%TF.GenerationSoftware,KiCad,Pcbnew,8.0.5*%
%TF.CreationDate,2024-10-14T11:10:16-07:00*%
%TF.ProjectId,Atmega_BM83,41746d65-6761-45f4-924d-38332e6b6963,rev?*%
%TF.SameCoordinates,Original*%
%TF.FileFunction,Legend,Top*%
%TF.FilePolarity,Positive*%
%FSLAX46Y46*%
G04 Gerber Fmt 4.6, Leading zero omitted, Abs format (unit mm)*
G04 Created by KiCad (PCBNEW 8.0.5) date 2024-10-14 11:10:16*
%MOMM*%
%LPD*%
G01*
G04 APERTURE LIST*
%ADD10C,0.200000*%
%ADD11C,0.100000*%
%ADD12C,0.150000*%
%ADD13C,0.120000*%
%ADD14C,0.010000*%
G04 APERTURE END LIST*
D10*
X104652879Y-82273391D02*
X104652879Y-83334728D01*
X102968517Y-84567977D02*
G75*
G02*
X101056667Y-84567977I-955925J0D01*
G01*
X101056667Y-84567977D02*
G75*
G02*
X102968517Y-84567977I955925J0D01*
G01*
X103145878Y-88089112D02*
G75*
G02*
X100848582Y-88089112I-1148648J0D01*
G01*
X100848582Y-88089112D02*
G75*
G02*
X103145878Y-88089112I1148648J0D01*
G01*
X106475413Y-83451970D02*
G75*
G02*
X106385569Y-89287292I-2942413J-2873050D01*
G01*
X99392326Y-84851020D02*
X100558669Y-84851020D01*
X98458652Y-87847433D02*
G75*
G02*
X98091562Y-88205232I-253852J-106767D01*
G01*
X104991224Y-85599090D02*
G75*
G02*
X104970286Y-87080401I-933424J-727610D01*
G01*
X98629002Y-82201643D02*
G75*
G02*
X97983832Y-82201643I-322585J0D01*
G01*
X97983832Y-82201643D02*
G75*
G02*
X98629002Y-82201643I322585J0D01*
G01*
X100558643Y-84285065D02*
G75*
G02*
X100558660Y-84851022I1453957J-282935D01*
G01*
X106385569Y-89287292D02*
G75*
G02*
X106010244Y-88897509I-101569J277792D01*
G01*
X99392326Y-89153231D02*
X99392326Y-84851020D01*
X100545152Y-81089926D02*
G75*
G02*
X103494570Y-81138295I1442548J-1985274D01*
G01*
X100558643Y-84285065D02*
X99392326Y-84285065D01*
X105571932Y-84791309D02*
G75*
G02*
X105537761Y-87878297I-1742832J-1524391D01*
G01*
X106088227Y-83830029D02*
G75*
G02*
X106475413Y-83451969I281473J99029D01*
G01*
X104652879Y-83890027D02*
X104652879Y-84281714D01*
X103738820Y-83334728D02*
X104652879Y-83334728D01*
X105571932Y-84791309D02*
G75*
G02*
X105969585Y-84482688I288468J38809D01*
G01*
X103738820Y-83890027D02*
X104652879Y-83890027D01*
X100922295Y-81462040D02*
G75*
G02*
X103112614Y-81486220I1076005J-1747160D01*
G01*
X98458652Y-87847433D02*
G75*
G02*
X98451433Y-84760239I1722248J1547633D01*
G01*
X98091548Y-88205262D02*
G75*
G02*
X98056496Y-84448167I1949792J1896902D01*
G01*
X105969584Y-84482689D02*
G75*
G02*
X105901757Y-88239343I-2000984J-1842811D01*
G01*
X104652879Y-84837013D02*
X104652879Y-89019382D01*
X97598605Y-89248957D02*
G75*
G02*
X97559692Y-83413086I2878295J2937257D01*
G01*
X104098064Y-84837013D02*
G75*
G02*
X104098093Y-84281773I135236J277613D01*
G01*
X104652879Y-89019382D02*
G75*
G02*
X99392275Y-89153252I-2655679J930282D01*
G01*
X106088227Y-83830029D02*
G75*
G02*
X106010186Y-88897473I-2555227J-2494971D01*
G01*
X103738820Y-83890027D02*
G75*
G02*
X103738838Y-83334764I135280J277627D01*
G01*
X104652879Y-84281714D02*
X104098064Y-84281714D01*
X102384937Y-84567977D02*
G75*
G02*
X101640247Y-84567977I-372345J0D01*
G01*
X101640247Y-84567977D02*
G75*
G02*
X102384937Y-84567977I372345J0D01*
G01*
X105295533Y-87434118D02*
G75*
G02*
X104970255Y-87080384I-112233J223218D01*
G01*
X104991224Y-85599090D02*
G75*
G02*
X105356962Y-85265525I229376J115790D01*
G01*
X103694981Y-88089112D02*
G75*
G02*
X100299479Y-88089112I-1697751J0D01*
G01*
X100299479Y-88089112D02*
G75*
G02*
X103694981Y-88089112I1697751J0D01*
G01*
X103738820Y-83890027D02*
X104652879Y-83890027D01*
X103494603Y-81138253D02*
G75*
G02*
X103112609Y-81486223I-212803J-150047D01*
G01*
X104098064Y-84837013D02*
X104652879Y-84837013D01*
X106061858Y-82234071D02*
G75*
G02*
X105416688Y-82234071I-322585J0D01*
G01*
X105416688Y-82234071D02*
G75*
G02*
X106061858Y-82234071I322585J0D01*
G01*
X99033083Y-87054504D02*
G75*
G02*
X98704779Y-87405343I-214083J-128696D01*
G01*
X97977355Y-88862448D02*
G75*
G02*
X97943565Y-83794508I2499545J2550748D01*
G01*
X98056495Y-84448166D02*
G75*
G02*
X98451495Y-84760252I106805J-270834D01*
G01*
X97559679Y-83413073D02*
G75*
G02*
X97943589Y-83794509I103321J-279927D01*
G01*
X105356933Y-85265572D02*
G75*
G02*
X105295556Y-87434141I-1209233J-1050928D01*
G01*
X97977355Y-88862448D02*
G75*
G02*
X97598622Y-89248912I-274755J-109552D01*
G01*
X99392326Y-84285065D02*
X99392326Y-82273391D01*
X104652879Y-83334728D02*
X103738820Y-83334728D01*
X99033083Y-87054504D02*
G75*
G02*
X99025082Y-85573066I919017J745704D01*
G01*
X98704768Y-87405364D02*
G75*
G02*
X98662312Y-85236383I1157532J1107564D01*
G01*
X105901750Y-88239336D02*
G75*
G02*
X105537766Y-87878310I-111050J252036D01*
G01*
X99392326Y-82273391D02*
X104652879Y-82273391D01*
X100922295Y-81462040D02*
G75*
G02*
X100545145Y-81089919I-188595J186040D01*
G01*
X98662292Y-85236365D02*
G75*
G02*
X99025032Y-85573039I134408J-218935D01*
G01*
X102551098Y-88089112D02*
G75*
G02*
X101443362Y-88089112I-553868J0D01*
G01*
X101443362Y-88089112D02*
G75*
G02*
X102551098Y-88089112I553868J0D01*
G01*
D11*
X52197580Y-83869884D02*
X53197580Y-83869884D01*
X53197580Y-83869884D02*
X53197580Y-84250836D01*
X53197580Y-84250836D02*
X53149961Y-84346074D01*
X53149961Y-84346074D02*
X53102342Y-84393693D01*
X53102342Y-84393693D02*
X53007104Y-84441312D01*
X53007104Y-84441312D02*
X52864247Y-84441312D01*
X52864247Y-84441312D02*
X52769009Y-84393693D01*
X52769009Y-84393693D02*
X52721390Y-84346074D01*
X52721390Y-84346074D02*
X52673771Y-84250836D01*
X52673771Y-84250836D02*
X52673771Y-83869884D01*
X52483295Y-84822265D02*
X52483295Y-85298455D01*
X52197580Y-84727027D02*
X53197580Y-85060360D01*
X53197580Y-85060360D02*
X52197580Y-85393693D01*
X52197580Y-85727027D02*
X53197580Y-85727027D01*
X52197580Y-86774645D02*
X52673771Y-86441312D01*
X52197580Y-86203217D02*
X53197580Y-86203217D01*
X53197580Y-86203217D02*
X53197580Y-86584169D01*
X53197580Y-86584169D02*
X53149961Y-86679407D01*
X53149961Y-86679407D02*
X53102342Y-86727026D01*
X53102342Y-86727026D02*
X53007104Y-86774645D01*
X53007104Y-86774645D02*
X52864247Y-86774645D01*
X52864247Y-86774645D02*
X52769009Y-86727026D01*
X52769009Y-86727026D02*
X52721390Y-86679407D01*
X52721390Y-86679407D02*
X52673771Y-86584169D01*
X52673771Y-86584169D02*
X52673771Y-86203217D01*
X52721390Y-88298455D02*
X52673771Y-88441312D01*
X52673771Y-88441312D02*
X52626152Y-88488931D01*
X52626152Y-88488931D02*
X52530914Y-88536550D01*
X52530914Y-88536550D02*
X52388057Y-88536550D01*
X52388057Y-88536550D02*
X52292819Y-88488931D01*
X52292819Y-88488931D02*
X52245200Y-88441312D01*
X52245200Y-88441312D02*
X52197580Y-88346074D01*
X52197580Y-88346074D02*
X52197580Y-87965122D01*
X52197580Y-87965122D02*
X53197580Y-87965122D01*
X53197580Y-87965122D02*
X53197580Y-88298455D01*
X53197580Y-88298455D02*
X53149961Y-88393693D01*
X53149961Y-88393693D02*
X53102342Y-88441312D01*
X53102342Y-88441312D02*
X53007104Y-88488931D01*
X53007104Y-88488931D02*
X52911866Y-88488931D01*
X52911866Y-88488931D02*
X52816628Y-88441312D01*
X52816628Y-88441312D02*
X52769009Y-88393693D01*
X52769009Y-88393693D02*
X52721390Y-88298455D01*
X52721390Y-88298455D02*
X52721390Y-87965122D01*
X53197580Y-88822265D02*
X53197580Y-89393693D01*
X52197580Y-89107979D02*
X53197580Y-89107979D01*
X52197580Y-89727027D02*
X53197580Y-89727027D01*
X53197580Y-89727027D02*
X52197580Y-90298455D01*
X52197580Y-90298455D02*
X53197580Y-90298455D01*
X52578533Y-103427884D02*
X52578533Y-104189789D01*
X52197580Y-104665979D02*
X53197580Y-104665979D01*
X53197580Y-104665979D02*
X53197580Y-105046931D01*
X53197580Y-105046931D02*
X53149961Y-105142169D01*
X53149961Y-105142169D02*
X53102342Y-105189788D01*
X53102342Y-105189788D02*
X53007104Y-105237407D01*
X53007104Y-105237407D02*
X52864247Y-105237407D01*
X52864247Y-105237407D02*
X52769009Y-105189788D01*
X52769009Y-105189788D02*
X52721390Y-105142169D01*
X52721390Y-105142169D02*
X52673771Y-105046931D01*
X52673771Y-105046931D02*
X52673771Y-104665979D01*
X52483295Y-105618360D02*
X52483295Y-106094550D01*
X52197580Y-105523122D02*
X53197580Y-105856455D01*
X53197580Y-105856455D02*
X52197580Y-106189788D01*
X52197580Y-106523122D02*
X53197580Y-106523122D01*
X52197580Y-107570740D02*
X52673771Y-107237407D01*
X52197580Y-106999312D02*
X53197580Y-106999312D01*
X53197580Y-106999312D02*
X53197580Y-107380264D01*
X53197580Y-107380264D02*
X53149961Y-107475502D01*
X53149961Y-107475502D02*
X53102342Y-107523121D01*
X53102342Y-107523121D02*
X53007104Y-107570740D01*
X53007104Y-107570740D02*
X52864247Y-107570740D01*
X52864247Y-107570740D02*
X52769009Y-107523121D01*
X52769009Y-107523121D02*
X52721390Y-107475502D01*
X52721390Y-107475502D02*
X52673771Y-107380264D01*
X52673771Y-107380264D02*
X52673771Y-106999312D01*
X52197580Y-109237407D02*
X52197580Y-108761217D01*
X52197580Y-108761217D02*
X53197580Y-108761217D01*
X52721390Y-109570741D02*
X52721390Y-109904074D01*
X52197580Y-110046931D02*
X52197580Y-109570741D01*
X52197580Y-109570741D02*
X53197580Y-109570741D01*
X53197580Y-109570741D02*
X53197580Y-110046931D01*
X52197580Y-110475503D02*
X53197580Y-110475503D01*
X53197580Y-110475503D02*
X53197580Y-110713598D01*
X53197580Y-110713598D02*
X53149961Y-110856455D01*
X53149961Y-110856455D02*
X53054723Y-110951693D01*
X53054723Y-110951693D02*
X52959485Y-110999312D01*
X52959485Y-110999312D02*
X52769009Y-111046931D01*
X52769009Y-111046931D02*
X52626152Y-111046931D01*
X52626152Y-111046931D02*
X52435676Y-110999312D01*
X52435676Y-110999312D02*
X52340438Y-110951693D01*
X52340438Y-110951693D02*
X52245200Y-110856455D01*
X52245200Y-110856455D02*
X52197580Y-110713598D01*
X52197580Y-110713598D02*
X52197580Y-110475503D01*
X52578533Y-111475503D02*
X52578533Y-112237408D01*
X52197580Y-111856455D02*
X52959485Y-111856455D01*
X70992419Y-110186115D02*
X69992419Y-110186115D01*
X69992419Y-110186115D02*
X69992419Y-109805163D01*
X69992419Y-109805163D02*
X70040038Y-109709925D01*
X70040038Y-109709925D02*
X70087657Y-109662306D01*
X70087657Y-109662306D02*
X70182895Y-109614687D01*
X70182895Y-109614687D02*
X70325752Y-109614687D01*
X70325752Y-109614687D02*
X70420990Y-109662306D01*
X70420990Y-109662306D02*
X70468609Y-109709925D01*
X70468609Y-109709925D02*
X70516228Y-109805163D01*
X70516228Y-109805163D02*
X70516228Y-110186115D01*
X70992419Y-108614687D02*
X70516228Y-108948020D01*
X70992419Y-109186115D02*
X69992419Y-109186115D01*
X69992419Y-109186115D02*
X69992419Y-108805163D01*
X69992419Y-108805163D02*
X70040038Y-108709925D01*
X70040038Y-108709925D02*
X70087657Y-108662306D01*
X70087657Y-108662306D02*
X70182895Y-108614687D01*
X70182895Y-108614687D02*
X70325752Y-108614687D01*
X70325752Y-108614687D02*
X70420990Y-108662306D01*
X70420990Y-108662306D02*
X70468609Y-108709925D01*
X70468609Y-108709925D02*
X70516228Y-108805163D01*
X70516228Y-108805163D02*
X70516228Y-109186115D01*
X69992419Y-107995639D02*
X69992419Y-107805163D01*
X69992419Y-107805163D02*
X70040038Y-107709925D01*
X70040038Y-107709925D02*
X70135276Y-107614687D01*
X70135276Y-107614687D02*
X70325752Y-107567068D01*
X70325752Y-107567068D02*
X70659085Y-107567068D01*
X70659085Y-107567068D02*
X70849561Y-107614687D01*
X70849561Y-107614687D02*
X70944800Y-107709925D01*
X70944800Y-107709925D02*
X70992419Y-107805163D01*
X70992419Y-107805163D02*
X70992419Y-107995639D01*
X70992419Y-107995639D02*
X70944800Y-108090877D01*
X70944800Y-108090877D02*
X70849561Y-108186115D01*
X70849561Y-108186115D02*
X70659085Y-108233734D01*
X70659085Y-108233734D02*
X70325752Y-108233734D01*
X70325752Y-108233734D02*
X70135276Y-108186115D01*
X70135276Y-108186115D02*
X70040038Y-108090877D01*
X70040038Y-108090877D02*
X69992419Y-107995639D01*
X70040038Y-106614687D02*
X69992419Y-106709925D01*
X69992419Y-106709925D02*
X69992419Y-106852782D01*
X69992419Y-106852782D02*
X70040038Y-106995639D01*
X70040038Y-106995639D02*
X70135276Y-107090877D01*
X70135276Y-107090877D02*
X70230514Y-107138496D01*
X70230514Y-107138496D02*
X70420990Y-107186115D01*
X70420990Y-107186115D02*
X70563847Y-107186115D01*
X70563847Y-107186115D02*
X70754323Y-107138496D01*
X70754323Y-107138496D02*
X70849561Y-107090877D01*
X70849561Y-107090877D02*
X70944800Y-106995639D01*
X70944800Y-106995639D02*
X70992419Y-106852782D01*
X70992419Y-106852782D02*
X70992419Y-106757544D01*
X70992419Y-106757544D02*
X70944800Y-106614687D01*
X70944800Y-106614687D02*
X70897180Y-106567068D01*
X70897180Y-106567068D02*
X70563847Y-106567068D01*
X70563847Y-106567068D02*
X70563847Y-106757544D01*
X70992419Y-105567068D02*
X70516228Y-105900401D01*
X70992419Y-106138496D02*
X69992419Y-106138496D01*
X69992419Y-106138496D02*
X69992419Y-105757544D01*
X69992419Y-105757544D02*
X70040038Y-105662306D01*
X70040038Y-105662306D02*
X70087657Y-105614687D01*
X70087657Y-105614687D02*
X70182895Y-105567068D01*
X70182895Y-105567068D02*
X70325752Y-105567068D01*
X70325752Y-105567068D02*
X70420990Y-105614687D01*
X70420990Y-105614687D02*
X70468609Y-105662306D01*
X70468609Y-105662306D02*
X70516228Y-105757544D01*
X70516228Y-105757544D02*
X70516228Y-106138496D01*
X70706704Y-105186115D02*
X70706704Y-104709925D01*
X70992419Y-105281353D02*
X69992419Y-104948020D01*
X69992419Y-104948020D02*
X70992419Y-104614687D01*
X70992419Y-104281353D02*
X69992419Y-104281353D01*
X69992419Y-104281353D02*
X70706704Y-103948020D01*
X70706704Y-103948020D02*
X69992419Y-103614687D01*
X69992419Y-103614687D02*
X70992419Y-103614687D01*
X156212265Y-81374704D02*
X156688455Y-81374704D01*
X156117027Y-81660419D02*
X156450360Y-80660419D01*
X156450360Y-80660419D02*
X156783693Y-81660419D01*
X157307503Y-80660419D02*
X157497979Y-80660419D01*
X157497979Y-80660419D02*
X157593217Y-80708038D01*
X157593217Y-80708038D02*
X157688455Y-80803276D01*
X157688455Y-80803276D02*
X157736074Y-80993752D01*
X157736074Y-80993752D02*
X157736074Y-81327085D01*
X157736074Y-81327085D02*
X157688455Y-81517561D01*
X157688455Y-81517561D02*
X157593217Y-81612800D01*
X157593217Y-81612800D02*
X157497979Y-81660419D01*
X157497979Y-81660419D02*
X157307503Y-81660419D01*
X157307503Y-81660419D02*
X157212265Y-81612800D01*
X157212265Y-81612800D02*
X157117027Y-81517561D01*
X157117027Y-81517561D02*
X157069408Y-81327085D01*
X157069408Y-81327085D02*
X157069408Y-80993752D01*
X157069408Y-80993752D02*
X157117027Y-80803276D01*
X157117027Y-80803276D02*
X157212265Y-80708038D01*
X157212265Y-80708038D02*
X157307503Y-80660419D01*
X158164646Y-81660419D02*
X158164646Y-80660419D01*
X158164646Y-81136609D02*
X158736074Y-81136609D01*
X158736074Y-81660419D02*
X158736074Y-80660419D01*
X159212265Y-81660419D02*
X159212265Y-80660419D01*
X159212265Y-80660419D02*
X159593217Y-80660419D01*
X159593217Y-80660419D02*
X159688455Y-80708038D01*
X159688455Y-80708038D02*
X159736074Y-80755657D01*
X159736074Y-80755657D02*
X159783693Y-80850895D01*
X159783693Y-80850895D02*
X159783693Y-80993752D01*
X159783693Y-80993752D02*
X159736074Y-81088990D01*
X159736074Y-81088990D02*
X159688455Y-81136609D01*
X159688455Y-81136609D02*
X159593217Y-81184228D01*
X159593217Y-81184228D02*
X159212265Y-81184228D01*
X160783693Y-81660419D02*
X160450360Y-81184228D01*
X160212265Y-81660419D02*
X160212265Y-80660419D01*
X160212265Y-80660419D02*
X160593217Y-80660419D01*
X160593217Y-80660419D02*
X160688455Y-80708038D01*
X160688455Y-80708038D02*
X160736074Y-80755657D01*
X160736074Y-80755657D02*
X160783693Y-80850895D01*
X160783693Y-80850895D02*
X160783693Y-80993752D01*
X160783693Y-80993752D02*
X160736074Y-81088990D01*
X160736074Y-81088990D02*
X160688455Y-81136609D01*
X160688455Y-81136609D02*
X160593217Y-81184228D01*
X160593217Y-81184228D02*
X160212265Y-81184228D01*
X148407047Y-66961295D02*
X147930857Y-66961295D01*
X148502285Y-66675580D02*
X148168952Y-67675580D01*
X148168952Y-67675580D02*
X147835619Y-66675580D01*
X147502285Y-66675580D02*
X147502285Y-67675580D01*
X147502285Y-67675580D02*
X147168952Y-66961295D01*
X147168952Y-66961295D02*
X146835619Y-67675580D01*
X146835619Y-67675580D02*
X146835619Y-66675580D01*
X146359428Y-66675580D02*
X146359428Y-67675580D01*
X146359428Y-67675580D02*
X145978476Y-67675580D01*
X145978476Y-67675580D02*
X145883238Y-67627961D01*
X145883238Y-67627961D02*
X145835619Y-67580342D01*
X145835619Y-67580342D02*
X145788000Y-67485104D01*
X145788000Y-67485104D02*
X145788000Y-67342247D01*
X145788000Y-67342247D02*
X145835619Y-67247009D01*
X145835619Y-67247009D02*
X145883238Y-67199390D01*
X145883238Y-67199390D02*
X145978476Y-67151771D01*
X145978476Y-67151771D02*
X146359428Y-67151771D01*
X144407047Y-67675580D02*
X144216571Y-67675580D01*
X144216571Y-67675580D02*
X144121333Y-67627961D01*
X144121333Y-67627961D02*
X144026095Y-67532723D01*
X144026095Y-67532723D02*
X143978476Y-67342247D01*
X143978476Y-67342247D02*
X143978476Y-67008914D01*
X143978476Y-67008914D02*
X144026095Y-66818438D01*
X144026095Y-66818438D02*
X144121333Y-66723200D01*
X144121333Y-66723200D02*
X144216571Y-66675580D01*
X144216571Y-66675580D02*
X144407047Y-66675580D01*
X144407047Y-66675580D02*
X144502285Y-66723200D01*
X144502285Y-66723200D02*
X144597523Y-66818438D01*
X144597523Y-66818438D02*
X144645142Y-67008914D01*
X144645142Y-67008914D02*
X144645142Y-67342247D01*
X144645142Y-67342247D02*
X144597523Y-67532723D01*
X144597523Y-67532723D02*
X144502285Y-67627961D01*
X144502285Y-67627961D02*
X144407047Y-67675580D01*
X143549904Y-67675580D02*
X143549904Y-66866057D01*
X143549904Y-66866057D02*
X143502285Y-66770819D01*
X143502285Y-66770819D02*
X143454666Y-66723200D01*
X143454666Y-66723200D02*
X143359428Y-66675580D01*
X143359428Y-66675580D02*
X143168952Y-66675580D01*
X143168952Y-66675580D02*
X143073714Y-66723200D01*
X143073714Y-66723200D02*
X143026095Y-66770819D01*
X143026095Y-66770819D02*
X142978476Y-66866057D01*
X142978476Y-66866057D02*
X142978476Y-67675580D01*
X142645142Y-67675580D02*
X142073714Y-67675580D01*
X142359428Y-66675580D02*
X142359428Y-67675580D01*
X94701903Y-66253524D02*
X94701903Y-67253524D01*
X94701903Y-67253524D02*
X94320951Y-67253524D01*
X94320951Y-67253524D02*
X94225713Y-67205905D01*
X94225713Y-67205905D02*
X94178094Y-67158286D01*
X94178094Y-67158286D02*
X94130475Y-67063048D01*
X94130475Y-67063048D02*
X94130475Y-66920191D01*
X94130475Y-66920191D02*
X94178094Y-66824953D01*
X94178094Y-66824953D02*
X94225713Y-66777334D01*
X94225713Y-66777334D02*
X94320951Y-66729715D01*
X94320951Y-66729715D02*
X94701903Y-66729715D01*
X93511427Y-67253524D02*
X93320951Y-67253524D01*
X93320951Y-67253524D02*
X93225713Y-67205905D01*
X93225713Y-67205905D02*
X93130475Y-67110667D01*
X93130475Y-67110667D02*
X93082856Y-66920191D01*
X93082856Y-66920191D02*
X93082856Y-66586858D01*
X93082856Y-66586858D02*
X93130475Y-66396382D01*
X93130475Y-66396382D02*
X93225713Y-66301144D01*
X93225713Y-66301144D02*
X93320951Y-66253524D01*
X93320951Y-66253524D02*
X93511427Y-66253524D01*
X93511427Y-66253524D02*
X93606665Y-66301144D01*
X93606665Y-66301144D02*
X93701903Y-66396382D01*
X93701903Y-66396382D02*
X93749522Y-66586858D01*
X93749522Y-66586858D02*
X93749522Y-66920191D01*
X93749522Y-66920191D02*
X93701903Y-67110667D01*
X93701903Y-67110667D02*
X93606665Y-67205905D01*
X93606665Y-67205905D02*
X93511427Y-67253524D01*
X92749522Y-67253524D02*
X92511427Y-66253524D01*
X92511427Y-66253524D02*
X92320951Y-66967810D01*
X92320951Y-66967810D02*
X92130475Y-66253524D01*
X92130475Y-66253524D02*
X91892380Y-67253524D01*
X91511427Y-66348763D02*
X91463808Y-66301144D01*
X91463808Y-66301144D02*
X91511427Y-66253524D01*
X91511427Y-66253524D02*
X91559046Y-66301144D01*
X91559046Y-66301144D02*
X91511427Y-66348763D01*
X91511427Y-66348763D02*
X91511427Y-66253524D01*
X90320951Y-66301144D02*
X90178094Y-66253524D01*
X90178094Y-66253524D02*
X89939999Y-66253524D01*
X89939999Y-66253524D02*
X89844761Y-66301144D01*
X89844761Y-66301144D02*
X89797142Y-66348763D01*
X89797142Y-66348763D02*
X89749523Y-66444001D01*
X89749523Y-66444001D02*
X89749523Y-66539239D01*
X89749523Y-66539239D02*
X89797142Y-66634477D01*
X89797142Y-66634477D02*
X89844761Y-66682096D01*
X89844761Y-66682096D02*
X89939999Y-66729715D01*
X89939999Y-66729715D02*
X90130475Y-66777334D01*
X90130475Y-66777334D02*
X90225713Y-66824953D01*
X90225713Y-66824953D02*
X90273332Y-66872572D01*
X90273332Y-66872572D02*
X90320951Y-66967810D01*
X90320951Y-66967810D02*
X90320951Y-67063048D01*
X90320951Y-67063048D02*
X90273332Y-67158286D01*
X90273332Y-67158286D02*
X90225713Y-67205905D01*
X90225713Y-67205905D02*
X90130475Y-67253524D01*
X90130475Y-67253524D02*
X89892380Y-67253524D01*
X89892380Y-67253524D02*
X89749523Y-67205905D01*
X89416189Y-67253524D02*
X89178094Y-66253524D01*
X89178094Y-66253524D02*
X88987618Y-66967810D01*
X88987618Y-66967810D02*
X88797142Y-66253524D01*
X88797142Y-66253524D02*
X88559047Y-67253524D01*
X88178094Y-66348763D02*
X88130475Y-66301144D01*
X88130475Y-66301144D02*
X88178094Y-66253524D01*
X88178094Y-66253524D02*
X88225713Y-66301144D01*
X88225713Y-66301144D02*
X88178094Y-66348763D01*
X88178094Y-66348763D02*
X88178094Y-66253524D01*
X96439999Y-64643580D02*
X96439999Y-65643580D01*
X96439999Y-65643580D02*
X96059047Y-65643580D01*
X96059047Y-65643580D02*
X95963809Y-65595961D01*
X95963809Y-65595961D02*
X95916190Y-65548342D01*
X95916190Y-65548342D02*
X95868571Y-65453104D01*
X95868571Y-65453104D02*
X95868571Y-65310247D01*
X95868571Y-65310247D02*
X95916190Y-65215009D01*
X95916190Y-65215009D02*
X95963809Y-65167390D01*
X95963809Y-65167390D02*
X96059047Y-65119771D01*
X96059047Y-65119771D02*
X96439999Y-65119771D01*
X95439999Y-64643580D02*
X95439999Y-65643580D01*
X95439999Y-65643580D02*
X95201904Y-65643580D01*
X95201904Y-65643580D02*
X95059047Y-65595961D01*
X95059047Y-65595961D02*
X94963809Y-65500723D01*
X94963809Y-65500723D02*
X94916190Y-65405485D01*
X94916190Y-65405485D02*
X94868571Y-65215009D01*
X94868571Y-65215009D02*
X94868571Y-65072152D01*
X94868571Y-65072152D02*
X94916190Y-64881676D01*
X94916190Y-64881676D02*
X94963809Y-64786438D01*
X94963809Y-64786438D02*
X95059047Y-64691200D01*
X95059047Y-64691200D02*
X95201904Y-64643580D01*
X95201904Y-64643580D02*
X95439999Y-64643580D01*
X94487618Y-65548342D02*
X94439999Y-65595961D01*
X94439999Y-65595961D02*
X94344761Y-65643580D01*
X94344761Y-65643580D02*
X94106666Y-65643580D01*
X94106666Y-65643580D02*
X94011428Y-65595961D01*
X94011428Y-65595961D02*
X93963809Y-65548342D01*
X93963809Y-65548342D02*
X93916190Y-65453104D01*
X93916190Y-65453104D02*
X93916190Y-65357866D01*
X93916190Y-65357866D02*
X93963809Y-65215009D01*
X93963809Y-65215009D02*
X94535237Y-64643580D01*
X94535237Y-64643580D02*
X93916190Y-64643580D01*
X92201904Y-65595961D02*
X92297142Y-65643580D01*
X92297142Y-65643580D02*
X92439999Y-65643580D01*
X92439999Y-65643580D02*
X92582856Y-65595961D01*
X92582856Y-65595961D02*
X92678094Y-65500723D01*
X92678094Y-65500723D02*
X92725713Y-65405485D01*
X92725713Y-65405485D02*
X92773332Y-65215009D01*
X92773332Y-65215009D02*
X92773332Y-65072152D01*
X92773332Y-65072152D02*
X92725713Y-64881676D01*
X92725713Y-64881676D02*
X92678094Y-64786438D01*
X92678094Y-64786438D02*
X92582856Y-64691200D01*
X92582856Y-64691200D02*
X92439999Y-64643580D01*
X92439999Y-64643580D02*
X92344761Y-64643580D01*
X92344761Y-64643580D02*
X92201904Y-64691200D01*
X92201904Y-64691200D02*
X92154285Y-64738819D01*
X92154285Y-64738819D02*
X92154285Y-65072152D01*
X92154285Y-65072152D02*
X92344761Y-65072152D01*
X91725713Y-64643580D02*
X91725713Y-65643580D01*
X91725713Y-65643580D02*
X91154285Y-64643580D01*
X91154285Y-64643580D02*
X91154285Y-65643580D01*
X90678094Y-64643580D02*
X90678094Y-65643580D01*
X90678094Y-65643580D02*
X90439999Y-65643580D01*
X90439999Y-65643580D02*
X90297142Y-65595961D01*
X90297142Y-65595961D02*
X90201904Y-65500723D01*
X90201904Y-65500723D02*
X90154285Y-65405485D01*
X90154285Y-65405485D02*
X90106666Y-65215009D01*
X90106666Y-65215009D02*
X90106666Y-65072152D01*
X90106666Y-65072152D02*
X90154285Y-64881676D01*
X90154285Y-64881676D02*
X90201904Y-64786438D01*
X90201904Y-64786438D02*
X90297142Y-64691200D01*
X90297142Y-64691200D02*
X90439999Y-64643580D01*
X90439999Y-64643580D02*
X90678094Y-64643580D01*
X88916189Y-64643580D02*
X88916189Y-65643580D01*
X88916189Y-65643580D02*
X88535237Y-65643580D01*
X88535237Y-65643580D02*
X88439999Y-65595961D01*
X88439999Y-65595961D02*
X88392380Y-65548342D01*
X88392380Y-65548342D02*
X88344761Y-65453104D01*
X88344761Y-65453104D02*
X88344761Y-65310247D01*
X88344761Y-65310247D02*
X88392380Y-65215009D01*
X88392380Y-65215009D02*
X88439999Y-65167390D01*
X88439999Y-65167390D02*
X88535237Y-65119771D01*
X88535237Y-65119771D02*
X88916189Y-65119771D01*
X87916189Y-64643580D02*
X87916189Y-65643580D01*
X87916189Y-65643580D02*
X87678094Y-65643580D01*
X87678094Y-65643580D02*
X87535237Y-65595961D01*
X87535237Y-65595961D02*
X87439999Y-65500723D01*
X87439999Y-65500723D02*
X87392380Y-65405485D01*
X87392380Y-65405485D02*
X87344761Y-65215009D01*
X87344761Y-65215009D02*
X87344761Y-65072152D01*
X87344761Y-65072152D02*
X87392380Y-64881676D01*
X87392380Y-64881676D02*
X87439999Y-64786438D01*
X87439999Y-64786438D02*
X87535237Y-64691200D01*
X87535237Y-64691200D02*
X87678094Y-64643580D01*
X87678094Y-64643580D02*
X87916189Y-64643580D01*
X87011427Y-65643580D02*
X86392380Y-65643580D01*
X86392380Y-65643580D02*
X86725713Y-65262628D01*
X86725713Y-65262628D02*
X86582856Y-65262628D01*
X86582856Y-65262628D02*
X86487618Y-65215009D01*
X86487618Y-65215009D02*
X86439999Y-65167390D01*
X86439999Y-65167390D02*
X86392380Y-65072152D01*
X86392380Y-65072152D02*
X86392380Y-64834057D01*
X86392380Y-64834057D02*
X86439999Y-64738819D01*
X86439999Y-64738819D02*
X86487618Y-64691200D01*
X86487618Y-64691200D02*
X86582856Y-64643580D01*
X86582856Y-64643580D02*
X86868570Y-64643580D01*
X86868570Y-64643580D02*
X86963808Y-64691200D01*
X86963808Y-64691200D02*
X87011427Y-64738819D01*
X97077884Y-149605466D02*
X97839789Y-149605466D01*
X97458836Y-149986419D02*
X97458836Y-149224514D01*
X100363598Y-149986419D02*
X99792170Y-149986419D01*
X100077884Y-149986419D02*
X100077884Y-148986419D01*
X100077884Y-148986419D02*
X99982646Y-149129276D01*
X99982646Y-149129276D02*
X99887408Y-149224514D01*
X99887408Y-149224514D02*
X99792170Y-149272133D01*
X100935027Y-149414990D02*
X100839789Y-149367371D01*
X100839789Y-149367371D02*
X100792170Y-149319752D01*
X100792170Y-149319752D02*
X100744551Y-149224514D01*
X100744551Y-149224514D02*
X100744551Y-149176895D01*
X100744551Y-149176895D02*
X100792170Y-149081657D01*
X100792170Y-149081657D02*
X100839789Y-149034038D01*
X100839789Y-149034038D02*
X100935027Y-148986419D01*
X100935027Y-148986419D02*
X101125503Y-148986419D01*
X101125503Y-148986419D02*
X101220741Y-149034038D01*
X101220741Y-149034038D02*
X101268360Y-149081657D01*
X101268360Y-149081657D02*
X101315979Y-149176895D01*
X101315979Y-149176895D02*
X101315979Y-149224514D01*
X101315979Y-149224514D02*
X101268360Y-149319752D01*
X101268360Y-149319752D02*
X101220741Y-149367371D01*
X101220741Y-149367371D02*
X101125503Y-149414990D01*
X101125503Y-149414990D02*
X100935027Y-149414990D01*
X100935027Y-149414990D02*
X100839789Y-149462609D01*
X100839789Y-149462609D02*
X100792170Y-149510228D01*
X100792170Y-149510228D02*
X100744551Y-149605466D01*
X100744551Y-149605466D02*
X100744551Y-149795942D01*
X100744551Y-149795942D02*
X100792170Y-149891180D01*
X100792170Y-149891180D02*
X100839789Y-149938800D01*
X100839789Y-149938800D02*
X100935027Y-149986419D01*
X100935027Y-149986419D02*
X101125503Y-149986419D01*
X101125503Y-149986419D02*
X101220741Y-149938800D01*
X101220741Y-149938800D02*
X101268360Y-149891180D01*
X101268360Y-149891180D02*
X101315979Y-149795942D01*
X101315979Y-149795942D02*
X101315979Y-149605466D01*
X101315979Y-149605466D02*
X101268360Y-149510228D01*
X101268360Y-149510228D02*
X101220741Y-149462609D01*
X101220741Y-149462609D02*
X101125503Y-149414990D01*
X101601694Y-148986419D02*
X101935027Y-149986419D01*
X101935027Y-149986419D02*
X102268360Y-148986419D01*
X104125504Y-149605466D02*
X104887409Y-149605466D01*
X52578533Y-124255884D02*
X52578533Y-125017789D01*
X52197580Y-126255884D02*
X53197580Y-126255884D01*
X53197580Y-126255884D02*
X53197580Y-126636836D01*
X53197580Y-126636836D02*
X53149961Y-126732074D01*
X53149961Y-126732074D02*
X53102342Y-126779693D01*
X53102342Y-126779693D02*
X53007104Y-126827312D01*
X53007104Y-126827312D02*
X52864247Y-126827312D01*
X52864247Y-126827312D02*
X52769009Y-126779693D01*
X52769009Y-126779693D02*
X52721390Y-126732074D01*
X52721390Y-126732074D02*
X52673771Y-126636836D01*
X52673771Y-126636836D02*
X52673771Y-126255884D01*
X53197580Y-127160646D02*
X52197580Y-127398741D01*
X52197580Y-127398741D02*
X52911866Y-127589217D01*
X52911866Y-127589217D02*
X52197580Y-127779693D01*
X52197580Y-127779693D02*
X53197580Y-128017789D01*
X52197580Y-128970169D02*
X52673771Y-128636836D01*
X52197580Y-128398741D02*
X53197580Y-128398741D01*
X53197580Y-128398741D02*
X53197580Y-128779693D01*
X53197580Y-128779693D02*
X53149961Y-128874931D01*
X53149961Y-128874931D02*
X53102342Y-128922550D01*
X53102342Y-128922550D02*
X53007104Y-128970169D01*
X53007104Y-128970169D02*
X52864247Y-128970169D01*
X52864247Y-128970169D02*
X52769009Y-128922550D01*
X52769009Y-128922550D02*
X52721390Y-128874931D01*
X52721390Y-128874931D02*
X52673771Y-128779693D01*
X52673771Y-128779693D02*
X52673771Y-128398741D01*
X52197580Y-130636836D02*
X52197580Y-130160646D01*
X52197580Y-130160646D02*
X53197580Y-130160646D01*
X52721390Y-130970170D02*
X52721390Y-131303503D01*
X52197580Y-131446360D02*
X52197580Y-130970170D01*
X52197580Y-130970170D02*
X53197580Y-130970170D01*
X53197580Y-130970170D02*
X53197580Y-131446360D01*
X52197580Y-131874932D02*
X53197580Y-131874932D01*
X53197580Y-131874932D02*
X53197580Y-132113027D01*
X53197580Y-132113027D02*
X53149961Y-132255884D01*
X53149961Y-132255884D02*
X53054723Y-132351122D01*
X53054723Y-132351122D02*
X52959485Y-132398741D01*
X52959485Y-132398741D02*
X52769009Y-132446360D01*
X52769009Y-132446360D02*
X52626152Y-132446360D01*
X52626152Y-132446360D02*
X52435676Y-132398741D01*
X52435676Y-132398741D02*
X52340438Y-132351122D01*
X52340438Y-132351122D02*
X52245200Y-132255884D01*
X52245200Y-132255884D02*
X52197580Y-132113027D01*
X52197580Y-132113027D02*
X52197580Y-131874932D01*
X52578533Y-133636837D02*
X52578533Y-134398742D01*
X52197580Y-134017789D02*
X52959485Y-134017789D01*
X77215618Y-67253524D02*
X76882285Y-66253524D01*
X76882285Y-66253524D02*
X76548952Y-67253524D01*
X76025142Y-67253524D02*
X75834666Y-67253524D01*
X75834666Y-67253524D02*
X75739428Y-67205905D01*
X75739428Y-67205905D02*
X75644190Y-67110667D01*
X75644190Y-67110667D02*
X75596571Y-66920191D01*
X75596571Y-66920191D02*
X75596571Y-66586858D01*
X75596571Y-66586858D02*
X75644190Y-66396382D01*
X75644190Y-66396382D02*
X75739428Y-66301144D01*
X75739428Y-66301144D02*
X75834666Y-66253524D01*
X75834666Y-66253524D02*
X76025142Y-66253524D01*
X76025142Y-66253524D02*
X76120380Y-66301144D01*
X76120380Y-66301144D02*
X76215618Y-66396382D01*
X76215618Y-66396382D02*
X76263237Y-66586858D01*
X76263237Y-66586858D02*
X76263237Y-66920191D01*
X76263237Y-66920191D02*
X76215618Y-67110667D01*
X76215618Y-67110667D02*
X76120380Y-67205905D01*
X76120380Y-67205905D02*
X76025142Y-67253524D01*
X74691809Y-66253524D02*
X75167999Y-66253524D01*
X75167999Y-66253524D02*
X75167999Y-67253524D01*
X73596570Y-66253524D02*
X73596570Y-67253524D01*
X73596570Y-67253524D02*
X73215618Y-67253524D01*
X73215618Y-67253524D02*
X73120380Y-67205905D01*
X73120380Y-67205905D02*
X73072761Y-67158286D01*
X73072761Y-67158286D02*
X73025142Y-67063048D01*
X73025142Y-67063048D02*
X73025142Y-66920191D01*
X73025142Y-66920191D02*
X73072761Y-66824953D01*
X73072761Y-66824953D02*
X73120380Y-66777334D01*
X73120380Y-66777334D02*
X73215618Y-66729715D01*
X73215618Y-66729715D02*
X73596570Y-66729715D01*
X72406094Y-67253524D02*
X72215618Y-67253524D01*
X72215618Y-67253524D02*
X72120380Y-67205905D01*
X72120380Y-67205905D02*
X72025142Y-67110667D01*
X72025142Y-67110667D02*
X71977523Y-66920191D01*
X71977523Y-66920191D02*
X71977523Y-66586858D01*
X71977523Y-66586858D02*
X72025142Y-66396382D01*
X72025142Y-66396382D02*
X72120380Y-66301144D01*
X72120380Y-66301144D02*
X72215618Y-66253524D01*
X72215618Y-66253524D02*
X72406094Y-66253524D01*
X72406094Y-66253524D02*
X72501332Y-66301144D01*
X72501332Y-66301144D02*
X72596570Y-66396382D01*
X72596570Y-66396382D02*
X72644189Y-66586858D01*
X72644189Y-66586858D02*
X72644189Y-66920191D01*
X72644189Y-66920191D02*
X72596570Y-67110667D01*
X72596570Y-67110667D02*
X72501332Y-67205905D01*
X72501332Y-67205905D02*
X72406094Y-67253524D01*
X71691808Y-67253524D02*
X71120380Y-67253524D01*
X71406094Y-66253524D02*
X71406094Y-67253524D01*
X78763238Y-65595961D02*
X78858476Y-65643580D01*
X78858476Y-65643580D02*
X79001333Y-65643580D01*
X79001333Y-65643580D02*
X79144190Y-65595961D01*
X79144190Y-65595961D02*
X79239428Y-65500723D01*
X79239428Y-65500723D02*
X79287047Y-65405485D01*
X79287047Y-65405485D02*
X79334666Y-65215009D01*
X79334666Y-65215009D02*
X79334666Y-65072152D01*
X79334666Y-65072152D02*
X79287047Y-64881676D01*
X79287047Y-64881676D02*
X79239428Y-64786438D01*
X79239428Y-64786438D02*
X79144190Y-64691200D01*
X79144190Y-64691200D02*
X79001333Y-64643580D01*
X79001333Y-64643580D02*
X78906095Y-64643580D01*
X78906095Y-64643580D02*
X78763238Y-64691200D01*
X78763238Y-64691200D02*
X78715619Y-64738819D01*
X78715619Y-64738819D02*
X78715619Y-65072152D01*
X78715619Y-65072152D02*
X78906095Y-65072152D01*
X78287047Y-64643580D02*
X78287047Y-65643580D01*
X78287047Y-65643580D02*
X77715619Y-64643580D01*
X77715619Y-64643580D02*
X77715619Y-65643580D01*
X77239428Y-64643580D02*
X77239428Y-65643580D01*
X77239428Y-65643580D02*
X77001333Y-65643580D01*
X77001333Y-65643580D02*
X76858476Y-65595961D01*
X76858476Y-65595961D02*
X76763238Y-65500723D01*
X76763238Y-65500723D02*
X76715619Y-65405485D01*
X76715619Y-65405485D02*
X76668000Y-65215009D01*
X76668000Y-65215009D02*
X76668000Y-65072152D01*
X76668000Y-65072152D02*
X76715619Y-64881676D01*
X76715619Y-64881676D02*
X76763238Y-64786438D01*
X76763238Y-64786438D02*
X76858476Y-64691200D01*
X76858476Y-64691200D02*
X77001333Y-64643580D01*
X77001333Y-64643580D02*
X77239428Y-64643580D01*
X75572761Y-65643580D02*
X75334666Y-64643580D01*
X75334666Y-64643580D02*
X75144190Y-65357866D01*
X75144190Y-65357866D02*
X74953714Y-64643580D01*
X74953714Y-64643580D02*
X74715619Y-65643580D01*
X74334666Y-64643580D02*
X74334666Y-65643580D01*
X74334666Y-65643580D02*
X73953714Y-65643580D01*
X73953714Y-65643580D02*
X73858476Y-65595961D01*
X73858476Y-65595961D02*
X73810857Y-65548342D01*
X73810857Y-65548342D02*
X73763238Y-65453104D01*
X73763238Y-65453104D02*
X73763238Y-65310247D01*
X73763238Y-65310247D02*
X73810857Y-65215009D01*
X73810857Y-65215009D02*
X73858476Y-65167390D01*
X73858476Y-65167390D02*
X73953714Y-65119771D01*
X73953714Y-65119771D02*
X74334666Y-65119771D01*
X72763238Y-64643580D02*
X73096571Y-65119771D01*
X73334666Y-64643580D02*
X73334666Y-65643580D01*
X73334666Y-65643580D02*
X72953714Y-65643580D01*
X72953714Y-65643580D02*
X72858476Y-65595961D01*
X72858476Y-65595961D02*
X72810857Y-65548342D01*
X72810857Y-65548342D02*
X72763238Y-65453104D01*
X72763238Y-65453104D02*
X72763238Y-65310247D01*
X72763238Y-65310247D02*
X72810857Y-65215009D01*
X72810857Y-65215009D02*
X72858476Y-65167390D01*
X72858476Y-65167390D02*
X72953714Y-65119771D01*
X72953714Y-65119771D02*
X73334666Y-65119771D01*
X71572761Y-64643580D02*
X71572761Y-65643580D01*
X71572761Y-65643580D02*
X71191809Y-65643580D01*
X71191809Y-65643580D02*
X71096571Y-65595961D01*
X71096571Y-65595961D02*
X71048952Y-65548342D01*
X71048952Y-65548342D02*
X71001333Y-65453104D01*
X71001333Y-65453104D02*
X71001333Y-65310247D01*
X71001333Y-65310247D02*
X71048952Y-65215009D01*
X71048952Y-65215009D02*
X71096571Y-65167390D01*
X71096571Y-65167390D02*
X71191809Y-65119771D01*
X71191809Y-65119771D02*
X71572761Y-65119771D01*
X70382285Y-65643580D02*
X70191809Y-65643580D01*
X70191809Y-65643580D02*
X70096571Y-65595961D01*
X70096571Y-65595961D02*
X70001333Y-65500723D01*
X70001333Y-65500723D02*
X69953714Y-65310247D01*
X69953714Y-65310247D02*
X69953714Y-64976914D01*
X69953714Y-64976914D02*
X70001333Y-64786438D01*
X70001333Y-64786438D02*
X70096571Y-64691200D01*
X70096571Y-64691200D02*
X70191809Y-64643580D01*
X70191809Y-64643580D02*
X70382285Y-64643580D01*
X70382285Y-64643580D02*
X70477523Y-64691200D01*
X70477523Y-64691200D02*
X70572761Y-64786438D01*
X70572761Y-64786438D02*
X70620380Y-64976914D01*
X70620380Y-64976914D02*
X70620380Y-65310247D01*
X70620380Y-65310247D02*
X70572761Y-65500723D01*
X70572761Y-65500723D02*
X70477523Y-65595961D01*
X70477523Y-65595961D02*
X70382285Y-65643580D01*
X69572761Y-64691200D02*
X69429904Y-64643580D01*
X69429904Y-64643580D02*
X69191809Y-64643580D01*
X69191809Y-64643580D02*
X69096571Y-64691200D01*
X69096571Y-64691200D02*
X69048952Y-64738819D01*
X69048952Y-64738819D02*
X69001333Y-64834057D01*
X69001333Y-64834057D02*
X69001333Y-64929295D01*
X69001333Y-64929295D02*
X69048952Y-65024533D01*
X69048952Y-65024533D02*
X69096571Y-65072152D01*
X69096571Y-65072152D02*
X69191809Y-65119771D01*
X69191809Y-65119771D02*
X69382285Y-65167390D01*
X69382285Y-65167390D02*
X69477523Y-65215009D01*
X69477523Y-65215009D02*
X69525142Y-65262628D01*
X69525142Y-65262628D02*
X69572761Y-65357866D01*
X69572761Y-65357866D02*
X69572761Y-65453104D01*
X69572761Y-65453104D02*
X69525142Y-65548342D01*
X69525142Y-65548342D02*
X69477523Y-65595961D01*
X69477523Y-65595961D02*
X69382285Y-65643580D01*
X69382285Y-65643580D02*
X69144190Y-65643580D01*
X69144190Y-65643580D02*
X69001333Y-65595961D01*
D12*
X145153990Y-110770112D02*
X145106371Y-110912969D01*
X145106371Y-110912969D02*
X145058752Y-110960588D01*
X145058752Y-110960588D02*
X144963514Y-111008207D01*
X144963514Y-111008207D02*
X144820657Y-111008207D01*
X144820657Y-111008207D02*
X144725419Y-110960588D01*
X144725419Y-110960588D02*
X144677800Y-110912969D01*
X144677800Y-110912969D02*
X144630180Y-110817731D01*
X144630180Y-110817731D02*
X144630180Y-110436779D01*
X144630180Y-110436779D02*
X145630180Y-110436779D01*
X145630180Y-110436779D02*
X145630180Y-110770112D01*
X145630180Y-110770112D02*
X145582561Y-110865350D01*
X145582561Y-110865350D02*
X145534942Y-110912969D01*
X145534942Y-110912969D02*
X145439704Y-110960588D01*
X145439704Y-110960588D02*
X145344466Y-110960588D01*
X145344466Y-110960588D02*
X145249228Y-110912969D01*
X145249228Y-110912969D02*
X145201609Y-110865350D01*
X145201609Y-110865350D02*
X145153990Y-110770112D01*
X145153990Y-110770112D02*
X145153990Y-110436779D01*
X144630180Y-111436779D02*
X145630180Y-111436779D01*
X145630180Y-111436779D02*
X144915895Y-111770112D01*
X144915895Y-111770112D02*
X145630180Y-112103445D01*
X145630180Y-112103445D02*
X144630180Y-112103445D01*
X145201609Y-112722493D02*
X145249228Y-112627255D01*
X145249228Y-112627255D02*
X145296847Y-112579636D01*
X145296847Y-112579636D02*
X145392085Y-112532017D01*
X145392085Y-112532017D02*
X145439704Y-112532017D01*
X145439704Y-112532017D02*
X145534942Y-112579636D01*
X145534942Y-112579636D02*
X145582561Y-112627255D01*
X145582561Y-112627255D02*
X145630180Y-112722493D01*
X145630180Y-112722493D02*
X145630180Y-112912969D01*
X145630180Y-112912969D02*
X145582561Y-113008207D01*
X145582561Y-113008207D02*
X145534942Y-113055826D01*
X145534942Y-113055826D02*
X145439704Y-113103445D01*
X145439704Y-113103445D02*
X145392085Y-113103445D01*
X145392085Y-113103445D02*
X145296847Y-113055826D01*
X145296847Y-113055826D02*
X145249228Y-113008207D01*
X145249228Y-113008207D02*
X145201609Y-112912969D01*
X145201609Y-112912969D02*
X145201609Y-112722493D01*
X145201609Y-112722493D02*
X145153990Y-112627255D01*
X145153990Y-112627255D02*
X145106371Y-112579636D01*
X145106371Y-112579636D02*
X145011133Y-112532017D01*
X145011133Y-112532017D02*
X144820657Y-112532017D01*
X144820657Y-112532017D02*
X144725419Y-112579636D01*
X144725419Y-112579636D02*
X144677800Y-112627255D01*
X144677800Y-112627255D02*
X144630180Y-112722493D01*
X144630180Y-112722493D02*
X144630180Y-112912969D01*
X144630180Y-112912969D02*
X144677800Y-113008207D01*
X144677800Y-113008207D02*
X144725419Y-113055826D01*
X144725419Y-113055826D02*
X144820657Y-113103445D01*
X144820657Y-113103445D02*
X145011133Y-113103445D01*
X145011133Y-113103445D02*
X145106371Y-113055826D01*
X145106371Y-113055826D02*
X145153990Y-113008207D01*
X145153990Y-113008207D02*
X145201609Y-112912969D01*
X145630180Y-113436779D02*
X145630180Y-114055826D01*
X145630180Y-114055826D02*
X145249228Y-113722493D01*
X145249228Y-113722493D02*
X145249228Y-113865350D01*
X145249228Y-113865350D02*
X145201609Y-113960588D01*
X145201609Y-113960588D02*
X145153990Y-114008207D01*
X145153990Y-114008207D02*
X145058752Y-114055826D01*
X145058752Y-114055826D02*
X144820657Y-114055826D01*
X144820657Y-114055826D02*
X144725419Y-114008207D01*
X144725419Y-114008207D02*
X144677800Y-113960588D01*
X144677800Y-113960588D02*
X144630180Y-113865350D01*
X144630180Y-113865350D02*
X144630180Y-113579636D01*
X144630180Y-113579636D02*
X144677800Y-113484398D01*
X144677800Y-113484398D02*
X144725419Y-113436779D01*
X144630180Y-115246303D02*
X145630180Y-115246303D01*
X145630180Y-115246303D02*
X144915895Y-115579636D01*
X144915895Y-115579636D02*
X145630180Y-115912969D01*
X145630180Y-115912969D02*
X144630180Y-115912969D01*
X144630180Y-116532017D02*
X144677800Y-116436779D01*
X144677800Y-116436779D02*
X144725419Y-116389160D01*
X144725419Y-116389160D02*
X144820657Y-116341541D01*
X144820657Y-116341541D02*
X145106371Y-116341541D01*
X145106371Y-116341541D02*
X145201609Y-116389160D01*
X145201609Y-116389160D02*
X145249228Y-116436779D01*
X145249228Y-116436779D02*
X145296847Y-116532017D01*
X145296847Y-116532017D02*
X145296847Y-116674874D01*
X145296847Y-116674874D02*
X145249228Y-116770112D01*
X145249228Y-116770112D02*
X145201609Y-116817731D01*
X145201609Y-116817731D02*
X145106371Y-116865350D01*
X145106371Y-116865350D02*
X144820657Y-116865350D01*
X144820657Y-116865350D02*
X144725419Y-116817731D01*
X144725419Y-116817731D02*
X144677800Y-116770112D01*
X144677800Y-116770112D02*
X144630180Y-116674874D01*
X144630180Y-116674874D02*
X144630180Y-116532017D01*
X144630180Y-117722493D02*
X145630180Y-117722493D01*
X144677800Y-117722493D02*
X144630180Y-117627255D01*
X144630180Y-117627255D02*
X144630180Y-117436779D01*
X144630180Y-117436779D02*
X144677800Y-117341541D01*
X144677800Y-117341541D02*
X144725419Y-117293922D01*
X144725419Y-117293922D02*
X144820657Y-117246303D01*
X144820657Y-117246303D02*
X145106371Y-117246303D01*
X145106371Y-117246303D02*
X145201609Y-117293922D01*
X145201609Y-117293922D02*
X145249228Y-117341541D01*
X145249228Y-117341541D02*
X145296847Y-117436779D01*
X145296847Y-117436779D02*
X145296847Y-117627255D01*
X145296847Y-117627255D02*
X145249228Y-117722493D01*
X145296847Y-118627255D02*
X144630180Y-118627255D01*
X145296847Y-118198684D02*
X144773038Y-118198684D01*
X144773038Y-118198684D02*
X144677800Y-118246303D01*
X144677800Y-118246303D02*
X144630180Y-118341541D01*
X144630180Y-118341541D02*
X144630180Y-118484398D01*
X144630180Y-118484398D02*
X144677800Y-118579636D01*
X144677800Y-118579636D02*
X144725419Y-118627255D01*
X144630180Y-119246303D02*
X144677800Y-119151065D01*
X144677800Y-119151065D02*
X144773038Y-119103446D01*
X144773038Y-119103446D02*
X145630180Y-119103446D01*
X144677800Y-120008208D02*
X144630180Y-119912970D01*
X144630180Y-119912970D02*
X144630180Y-119722494D01*
X144630180Y-119722494D02*
X144677800Y-119627256D01*
X144677800Y-119627256D02*
X144773038Y-119579637D01*
X144773038Y-119579637D02*
X145153990Y-119579637D01*
X145153990Y-119579637D02*
X145249228Y-119627256D01*
X145249228Y-119627256D02*
X145296847Y-119722494D01*
X145296847Y-119722494D02*
X145296847Y-119912970D01*
X145296847Y-119912970D02*
X145249228Y-120008208D01*
X145249228Y-120008208D02*
X145153990Y-120055827D01*
X145153990Y-120055827D02*
X145058752Y-120055827D01*
X145058752Y-120055827D02*
X144963514Y-119579637D01*
X109509160Y-143922312D02*
X109652017Y-143969931D01*
X109652017Y-143969931D02*
X109890112Y-143969931D01*
X109890112Y-143969931D02*
X109985350Y-143922312D01*
X109985350Y-143922312D02*
X110032969Y-143874692D01*
X110032969Y-143874692D02*
X110080588Y-143779454D01*
X110080588Y-143779454D02*
X110080588Y-143684216D01*
X110080588Y-143684216D02*
X110032969Y-143588978D01*
X110032969Y-143588978D02*
X109985350Y-143541359D01*
X109985350Y-143541359D02*
X109890112Y-143493740D01*
X109890112Y-143493740D02*
X109699636Y-143446121D01*
X109699636Y-143446121D02*
X109604398Y-143398502D01*
X109604398Y-143398502D02*
X109556779Y-143350883D01*
X109556779Y-143350883D02*
X109509160Y-143255645D01*
X109509160Y-143255645D02*
X109509160Y-143160407D01*
X109509160Y-143160407D02*
X109556779Y-143065169D01*
X109556779Y-143065169D02*
X109604398Y-143017550D01*
X109604398Y-143017550D02*
X109699636Y-142969931D01*
X109699636Y-142969931D02*
X109937731Y-142969931D01*
X109937731Y-142969931D02*
X110080588Y-143017550D01*
X110461541Y-143684216D02*
X110937731Y-143684216D01*
X110366303Y-143969931D02*
X110699636Y-142969931D01*
X110699636Y-142969931D02*
X111032969Y-143969931D01*
X111366303Y-143969931D02*
X111366303Y-142969931D01*
X111366303Y-142969931D02*
X111937731Y-143969931D01*
X111937731Y-143969931D02*
X111937731Y-142969931D01*
X113175827Y-143969931D02*
X113175827Y-142969931D01*
X113175827Y-142969931D02*
X113413922Y-142969931D01*
X113413922Y-142969931D02*
X113556779Y-143017550D01*
X113556779Y-143017550D02*
X113652017Y-143112788D01*
X113652017Y-143112788D02*
X113699636Y-143208026D01*
X113699636Y-143208026D02*
X113747255Y-143398502D01*
X113747255Y-143398502D02*
X113747255Y-143541359D01*
X113747255Y-143541359D02*
X113699636Y-143731835D01*
X113699636Y-143731835D02*
X113652017Y-143827073D01*
X113652017Y-143827073D02*
X113556779Y-143922312D01*
X113556779Y-143922312D02*
X113413922Y-143969931D01*
X113413922Y-143969931D02*
X113175827Y-143969931D01*
X114175827Y-143969931D02*
X114175827Y-142969931D01*
X114652017Y-143446121D02*
X114985350Y-143446121D01*
X115128207Y-143969931D02*
X114652017Y-143969931D01*
X114652017Y-143969931D02*
X114652017Y-142969931D01*
X114652017Y-142969931D02*
X115128207Y-142969931D01*
X116080588Y-143017550D02*
X115985350Y-142969931D01*
X115985350Y-142969931D02*
X115842493Y-142969931D01*
X115842493Y-142969931D02*
X115699636Y-143017550D01*
X115699636Y-143017550D02*
X115604398Y-143112788D01*
X115604398Y-143112788D02*
X115556779Y-143208026D01*
X115556779Y-143208026D02*
X115509160Y-143398502D01*
X115509160Y-143398502D02*
X115509160Y-143541359D01*
X115509160Y-143541359D02*
X115556779Y-143731835D01*
X115556779Y-143731835D02*
X115604398Y-143827073D01*
X115604398Y-143827073D02*
X115699636Y-143922312D01*
X115699636Y-143922312D02*
X115842493Y-143969931D01*
X115842493Y-143969931D02*
X115937731Y-143969931D01*
X115937731Y-143969931D02*
X116080588Y-143922312D01*
X116080588Y-143922312D02*
X116128207Y-143874692D01*
X116128207Y-143874692D02*
X116128207Y-143541359D01*
X116128207Y-143541359D02*
X115937731Y-143541359D01*
X116747255Y-142969931D02*
X116937731Y-142969931D01*
X116937731Y-142969931D02*
X117032969Y-143017550D01*
X117032969Y-143017550D02*
X117128207Y-143112788D01*
X117128207Y-143112788D02*
X117175826Y-143303264D01*
X117175826Y-143303264D02*
X117175826Y-143636597D01*
X117175826Y-143636597D02*
X117128207Y-143827073D01*
X117128207Y-143827073D02*
X117032969Y-143922312D01*
X117032969Y-143922312D02*
X116937731Y-143969931D01*
X116937731Y-143969931D02*
X116747255Y-143969931D01*
X116747255Y-143969931D02*
X116652017Y-143922312D01*
X116652017Y-143922312D02*
X116556779Y-143827073D01*
X116556779Y-143827073D02*
X116509160Y-143636597D01*
X116509160Y-143636597D02*
X116509160Y-143303264D01*
X116509160Y-143303264D02*
X116556779Y-143112788D01*
X116556779Y-143112788D02*
X116652017Y-143017550D01*
X116652017Y-143017550D02*
X116747255Y-142969931D01*
X118318684Y-143922312D02*
X118461541Y-143969931D01*
X118461541Y-143969931D02*
X118699636Y-143969931D01*
X118699636Y-143969931D02*
X118794874Y-143922312D01*
X118794874Y-143922312D02*
X118842493Y-143874692D01*
X118842493Y-143874692D02*
X118890112Y-143779454D01*
X118890112Y-143779454D02*
X118890112Y-143684216D01*
X118890112Y-143684216D02*
X118842493Y-143588978D01*
X118842493Y-143588978D02*
X118794874Y-143541359D01*
X118794874Y-143541359D02*
X118699636Y-143493740D01*
X118699636Y-143493740D02*
X118509160Y-143446121D01*
X118509160Y-143446121D02*
X118413922Y-143398502D01*
X118413922Y-143398502D02*
X118366303Y-143350883D01*
X118366303Y-143350883D02*
X118318684Y-143255645D01*
X118318684Y-143255645D02*
X118318684Y-143160407D01*
X118318684Y-143160407D02*
X118366303Y-143065169D01*
X118366303Y-143065169D02*
X118413922Y-143017550D01*
X118413922Y-143017550D02*
X118509160Y-142969931D01*
X118509160Y-142969931D02*
X118747255Y-142969931D01*
X118747255Y-142969931D02*
X118890112Y-143017550D01*
X119175827Y-142969931D02*
X119747255Y-142969931D01*
X119461541Y-143969931D02*
X119461541Y-142969931D01*
X120032970Y-143684216D02*
X120509160Y-143684216D01*
X119937732Y-143969931D02*
X120271065Y-142969931D01*
X120271065Y-142969931D02*
X120604398Y-143969931D01*
X120794875Y-142969931D02*
X121366303Y-142969931D01*
X121080589Y-143969931D02*
X121080589Y-142969931D01*
X121699637Y-143446121D02*
X122032970Y-143446121D01*
X122175827Y-143969931D02*
X121699637Y-143969931D01*
X121699637Y-143969931D02*
X121699637Y-142969931D01*
X121699637Y-142969931D02*
X122175827Y-142969931D01*
X123366304Y-142969931D02*
X123366304Y-143779454D01*
X123366304Y-143779454D02*
X123413923Y-143874692D01*
X123413923Y-143874692D02*
X123461542Y-143922312D01*
X123461542Y-143922312D02*
X123556780Y-143969931D01*
X123556780Y-143969931D02*
X123747256Y-143969931D01*
X123747256Y-143969931D02*
X123842494Y-143922312D01*
X123842494Y-143922312D02*
X123890113Y-143874692D01*
X123890113Y-143874692D02*
X123937732Y-143779454D01*
X123937732Y-143779454D02*
X123937732Y-142969931D01*
X124413923Y-143969931D02*
X124413923Y-142969931D01*
X124413923Y-142969931D02*
X124985351Y-143969931D01*
X124985351Y-143969931D02*
X124985351Y-142969931D01*
X125461542Y-143969931D02*
X125461542Y-142969931D01*
X125794875Y-142969931D02*
X126128208Y-143969931D01*
X126128208Y-143969931D02*
X126461541Y-142969931D01*
X126794875Y-143446121D02*
X127128208Y-143446121D01*
X127271065Y-143969931D02*
X126794875Y-143969931D01*
X126794875Y-143969931D02*
X126794875Y-142969931D01*
X126794875Y-142969931D02*
X127271065Y-142969931D01*
X128271065Y-143969931D02*
X127937732Y-143493740D01*
X127699637Y-143969931D02*
X127699637Y-142969931D01*
X127699637Y-142969931D02*
X128080589Y-142969931D01*
X128080589Y-142969931D02*
X128175827Y-143017550D01*
X128175827Y-143017550D02*
X128223446Y-143065169D01*
X128223446Y-143065169D02*
X128271065Y-143160407D01*
X128271065Y-143160407D02*
X128271065Y-143303264D01*
X128271065Y-143303264D02*
X128223446Y-143398502D01*
X128223446Y-143398502D02*
X128175827Y-143446121D01*
X128175827Y-143446121D02*
X128080589Y-143493740D01*
X128080589Y-143493740D02*
X127699637Y-143493740D01*
X128652018Y-143922312D02*
X128794875Y-143969931D01*
X128794875Y-143969931D02*
X129032970Y-143969931D01*
X129032970Y-143969931D02*
X129128208Y-143922312D01*
X129128208Y-143922312D02*
X129175827Y-143874692D01*
X129175827Y-143874692D02*
X129223446Y-143779454D01*
X129223446Y-143779454D02*
X129223446Y-143684216D01*
X129223446Y-143684216D02*
X129175827Y-143588978D01*
X129175827Y-143588978D02*
X129128208Y-143541359D01*
X129128208Y-143541359D02*
X129032970Y-143493740D01*
X129032970Y-143493740D02*
X128842494Y-143446121D01*
X128842494Y-143446121D02*
X128747256Y-143398502D01*
X128747256Y-143398502D02*
X128699637Y-143350883D01*
X128699637Y-143350883D02*
X128652018Y-143255645D01*
X128652018Y-143255645D02*
X128652018Y-143160407D01*
X128652018Y-143160407D02*
X128699637Y-143065169D01*
X128699637Y-143065169D02*
X128747256Y-143017550D01*
X128747256Y-143017550D02*
X128842494Y-142969931D01*
X128842494Y-142969931D02*
X129080589Y-142969931D01*
X129080589Y-142969931D02*
X129223446Y-143017550D01*
X129652018Y-143969931D02*
X129652018Y-142969931D01*
X129985351Y-142969931D02*
X130556779Y-142969931D01*
X130271065Y-143969931D02*
X130271065Y-142969931D01*
X131080589Y-143493740D02*
X131080589Y-143969931D01*
X130747256Y-142969931D02*
X131080589Y-143493740D01*
X131080589Y-143493740D02*
X131413922Y-142969931D01*
X133080589Y-143874692D02*
X133032970Y-143922312D01*
X133032970Y-143922312D02*
X132890113Y-143969931D01*
X132890113Y-143969931D02*
X132794875Y-143969931D01*
X132794875Y-143969931D02*
X132652018Y-143922312D01*
X132652018Y-143922312D02*
X132556780Y-143827073D01*
X132556780Y-143827073D02*
X132509161Y-143731835D01*
X132509161Y-143731835D02*
X132461542Y-143541359D01*
X132461542Y-143541359D02*
X132461542Y-143398502D01*
X132461542Y-143398502D02*
X132509161Y-143208026D01*
X132509161Y-143208026D02*
X132556780Y-143112788D01*
X132556780Y-143112788D02*
X132652018Y-143017550D01*
X132652018Y-143017550D02*
X132794875Y-142969931D01*
X132794875Y-142969931D02*
X132890113Y-142969931D01*
X132890113Y-142969931D02*
X133032970Y-143017550D01*
X133032970Y-143017550D02*
X133080589Y-143065169D01*
X133699637Y-142969931D02*
X133890113Y-142969931D01*
X133890113Y-142969931D02*
X133985351Y-143017550D01*
X133985351Y-143017550D02*
X134080589Y-143112788D01*
X134080589Y-143112788D02*
X134128208Y-143303264D01*
X134128208Y-143303264D02*
X134128208Y-143636597D01*
X134128208Y-143636597D02*
X134080589Y-143827073D01*
X134080589Y-143827073D02*
X133985351Y-143922312D01*
X133985351Y-143922312D02*
X133890113Y-143969931D01*
X133890113Y-143969931D02*
X133699637Y-143969931D01*
X133699637Y-143969931D02*
X133604399Y-143922312D01*
X133604399Y-143922312D02*
X133509161Y-143827073D01*
X133509161Y-143827073D02*
X133461542Y-143636597D01*
X133461542Y-143636597D02*
X133461542Y-143303264D01*
X133461542Y-143303264D02*
X133509161Y-143112788D01*
X133509161Y-143112788D02*
X133604399Y-143017550D01*
X133604399Y-143017550D02*
X133699637Y-142969931D01*
X135032970Y-143969931D02*
X134556780Y-143969931D01*
X134556780Y-143969931D02*
X134556780Y-142969931D01*
X135842494Y-143969931D02*
X135366304Y-143969931D01*
X135366304Y-143969931D02*
X135366304Y-142969931D01*
X136175828Y-143446121D02*
X136509161Y-143446121D01*
X136652018Y-143969931D02*
X136175828Y-143969931D01*
X136175828Y-143969931D02*
X136175828Y-142969931D01*
X136175828Y-142969931D02*
X136652018Y-142969931D01*
X137604399Y-143017550D02*
X137509161Y-142969931D01*
X137509161Y-142969931D02*
X137366304Y-142969931D01*
X137366304Y-142969931D02*
X137223447Y-143017550D01*
X137223447Y-143017550D02*
X137128209Y-143112788D01*
X137128209Y-143112788D02*
X137080590Y-143208026D01*
X137080590Y-143208026D02*
X137032971Y-143398502D01*
X137032971Y-143398502D02*
X137032971Y-143541359D01*
X137032971Y-143541359D02*
X137080590Y-143731835D01*
X137080590Y-143731835D02*
X137128209Y-143827073D01*
X137128209Y-143827073D02*
X137223447Y-143922312D01*
X137223447Y-143922312D02*
X137366304Y-143969931D01*
X137366304Y-143969931D02*
X137461542Y-143969931D01*
X137461542Y-143969931D02*
X137604399Y-143922312D01*
X137604399Y-143922312D02*
X137652018Y-143874692D01*
X137652018Y-143874692D02*
X137652018Y-143541359D01*
X137652018Y-143541359D02*
X137461542Y-143541359D01*
X138080590Y-143446121D02*
X138413923Y-143446121D01*
X138556780Y-143969931D02*
X138080590Y-143969931D01*
X138080590Y-143969931D02*
X138080590Y-142969931D01*
X138080590Y-142969931D02*
X138556780Y-142969931D01*
X139937733Y-142969931D02*
X140128209Y-142969931D01*
X140128209Y-142969931D02*
X140223447Y-143017550D01*
X140223447Y-143017550D02*
X140318685Y-143112788D01*
X140318685Y-143112788D02*
X140366304Y-143303264D01*
X140366304Y-143303264D02*
X140366304Y-143636597D01*
X140366304Y-143636597D02*
X140318685Y-143827073D01*
X140318685Y-143827073D02*
X140223447Y-143922312D01*
X140223447Y-143922312D02*
X140128209Y-143969931D01*
X140128209Y-143969931D02*
X139937733Y-143969931D01*
X139937733Y-143969931D02*
X139842495Y-143922312D01*
X139842495Y-143922312D02*
X139747257Y-143827073D01*
X139747257Y-143827073D02*
X139699638Y-143636597D01*
X139699638Y-143636597D02*
X139699638Y-143303264D01*
X139699638Y-143303264D02*
X139747257Y-143112788D01*
X139747257Y-143112788D02*
X139842495Y-143017550D01*
X139842495Y-143017550D02*
X139937733Y-142969931D01*
X141128209Y-143446121D02*
X140794876Y-143446121D01*
X140794876Y-143969931D02*
X140794876Y-142969931D01*
X140794876Y-142969931D02*
X141271066Y-142969931D01*
X142413924Y-143446121D02*
X142747257Y-143446121D01*
X142890114Y-143969931D02*
X142413924Y-143969931D01*
X142413924Y-143969931D02*
X142413924Y-142969931D01*
X142413924Y-142969931D02*
X142890114Y-142969931D01*
X143318686Y-143969931D02*
X143318686Y-142969931D01*
X143318686Y-142969931D02*
X143890114Y-143969931D01*
X143890114Y-143969931D02*
X143890114Y-142969931D01*
X144890114Y-143017550D02*
X144794876Y-142969931D01*
X144794876Y-142969931D02*
X144652019Y-142969931D01*
X144652019Y-142969931D02*
X144509162Y-143017550D01*
X144509162Y-143017550D02*
X144413924Y-143112788D01*
X144413924Y-143112788D02*
X144366305Y-143208026D01*
X144366305Y-143208026D02*
X144318686Y-143398502D01*
X144318686Y-143398502D02*
X144318686Y-143541359D01*
X144318686Y-143541359D02*
X144366305Y-143731835D01*
X144366305Y-143731835D02*
X144413924Y-143827073D01*
X144413924Y-143827073D02*
X144509162Y-143922312D01*
X144509162Y-143922312D02*
X144652019Y-143969931D01*
X144652019Y-143969931D02*
X144747257Y-143969931D01*
X144747257Y-143969931D02*
X144890114Y-143922312D01*
X144890114Y-143922312D02*
X144937733Y-143874692D01*
X144937733Y-143874692D02*
X144937733Y-143541359D01*
X144937733Y-143541359D02*
X144747257Y-143541359D01*
X145366305Y-143969931D02*
X145366305Y-142969931D01*
X145842495Y-143969931D02*
X145842495Y-142969931D01*
X145842495Y-142969931D02*
X146413923Y-143969931D01*
X146413923Y-143969931D02*
X146413923Y-142969931D01*
X146890114Y-143446121D02*
X147223447Y-143446121D01*
X147366304Y-143969931D02*
X146890114Y-143969931D01*
X146890114Y-143969931D02*
X146890114Y-142969931D01*
X146890114Y-142969931D02*
X147366304Y-142969931D01*
X147794876Y-143446121D02*
X148128209Y-143446121D01*
X148271066Y-143969931D02*
X147794876Y-143969931D01*
X147794876Y-143969931D02*
X147794876Y-142969931D01*
X147794876Y-142969931D02*
X148271066Y-142969931D01*
X149271066Y-143969931D02*
X148937733Y-143493740D01*
X148699638Y-143969931D02*
X148699638Y-142969931D01*
X148699638Y-142969931D02*
X149080590Y-142969931D01*
X149080590Y-142969931D02*
X149175828Y-143017550D01*
X149175828Y-143017550D02*
X149223447Y-143065169D01*
X149223447Y-143065169D02*
X149271066Y-143160407D01*
X149271066Y-143160407D02*
X149271066Y-143303264D01*
X149271066Y-143303264D02*
X149223447Y-143398502D01*
X149223447Y-143398502D02*
X149175828Y-143446121D01*
X149175828Y-143446121D02*
X149080590Y-143493740D01*
X149080590Y-143493740D02*
X148699638Y-143493740D01*
X149699638Y-143969931D02*
X149699638Y-142969931D01*
X150175828Y-143969931D02*
X150175828Y-142969931D01*
X150175828Y-142969931D02*
X150747256Y-143969931D01*
X150747256Y-143969931D02*
X150747256Y-142969931D01*
X151747256Y-143017550D02*
X151652018Y-142969931D01*
X151652018Y-142969931D02*
X151509161Y-142969931D01*
X151509161Y-142969931D02*
X151366304Y-143017550D01*
X151366304Y-143017550D02*
X151271066Y-143112788D01*
X151271066Y-143112788D02*
X151223447Y-143208026D01*
X151223447Y-143208026D02*
X151175828Y-143398502D01*
X151175828Y-143398502D02*
X151175828Y-143541359D01*
X151175828Y-143541359D02*
X151223447Y-143731835D01*
X151223447Y-143731835D02*
X151271066Y-143827073D01*
X151271066Y-143827073D02*
X151366304Y-143922312D01*
X151366304Y-143922312D02*
X151509161Y-143969931D01*
X151509161Y-143969931D02*
X151604399Y-143969931D01*
X151604399Y-143969931D02*
X151747256Y-143922312D01*
X151747256Y-143922312D02*
X151794875Y-143874692D01*
X151794875Y-143874692D02*
X151794875Y-143541359D01*
X151794875Y-143541359D02*
X151604399Y-143541359D01*
X109556779Y-145579875D02*
X109556779Y-144579875D01*
X109556779Y-144579875D02*
X109794874Y-144579875D01*
X109794874Y-144579875D02*
X109937731Y-144627494D01*
X109937731Y-144627494D02*
X110032969Y-144722732D01*
X110032969Y-144722732D02*
X110080588Y-144817970D01*
X110080588Y-144817970D02*
X110128207Y-145008446D01*
X110128207Y-145008446D02*
X110128207Y-145151303D01*
X110128207Y-145151303D02*
X110080588Y-145341779D01*
X110080588Y-145341779D02*
X110032969Y-145437017D01*
X110032969Y-145437017D02*
X109937731Y-145532256D01*
X109937731Y-145532256D02*
X109794874Y-145579875D01*
X109794874Y-145579875D02*
X109556779Y-145579875D01*
X110556779Y-145056065D02*
X110890112Y-145056065D01*
X111032969Y-145579875D02*
X110556779Y-145579875D01*
X110556779Y-145579875D02*
X110556779Y-144579875D01*
X110556779Y-144579875D02*
X111032969Y-144579875D01*
X111461541Y-145579875D02*
X111461541Y-144579875D01*
X111461541Y-144579875D02*
X111842493Y-144579875D01*
X111842493Y-144579875D02*
X111937731Y-144627494D01*
X111937731Y-144627494D02*
X111985350Y-144675113D01*
X111985350Y-144675113D02*
X112032969Y-144770351D01*
X112032969Y-144770351D02*
X112032969Y-144913208D01*
X112032969Y-144913208D02*
X111985350Y-145008446D01*
X111985350Y-145008446D02*
X111937731Y-145056065D01*
X111937731Y-145056065D02*
X111842493Y-145103684D01*
X111842493Y-145103684D02*
X111461541Y-145103684D01*
X112413922Y-145294160D02*
X112890112Y-145294160D01*
X112318684Y-145579875D02*
X112652017Y-144579875D01*
X112652017Y-144579875D02*
X112985350Y-145579875D01*
X113890112Y-145579875D02*
X113556779Y-145103684D01*
X113318684Y-145579875D02*
X113318684Y-144579875D01*
X113318684Y-144579875D02*
X113699636Y-144579875D01*
X113699636Y-144579875D02*
X113794874Y-144627494D01*
X113794874Y-144627494D02*
X113842493Y-144675113D01*
X113842493Y-144675113D02*
X113890112Y-144770351D01*
X113890112Y-144770351D02*
X113890112Y-144913208D01*
X113890112Y-144913208D02*
X113842493Y-145008446D01*
X113842493Y-145008446D02*
X113794874Y-145056065D01*
X113794874Y-145056065D02*
X113699636Y-145103684D01*
X113699636Y-145103684D02*
X113318684Y-145103684D01*
X114175827Y-144579875D02*
X114747255Y-144579875D01*
X114461541Y-145579875D02*
X114461541Y-144579875D01*
X115080589Y-145579875D02*
X115080589Y-144579875D01*
X115080589Y-144579875D02*
X115413922Y-145294160D01*
X115413922Y-145294160D02*
X115747255Y-144579875D01*
X115747255Y-144579875D02*
X115747255Y-145579875D01*
X116223446Y-145056065D02*
X116556779Y-145056065D01*
X116699636Y-145579875D02*
X116223446Y-145579875D01*
X116223446Y-145579875D02*
X116223446Y-144579875D01*
X116223446Y-144579875D02*
X116699636Y-144579875D01*
X117128208Y-145579875D02*
X117128208Y-144579875D01*
X117128208Y-144579875D02*
X117699636Y-145579875D01*
X117699636Y-145579875D02*
X117699636Y-144579875D01*
X118032970Y-144579875D02*
X118604398Y-144579875D01*
X118318684Y-145579875D02*
X118318684Y-144579875D01*
X119890113Y-144579875D02*
X120080589Y-144579875D01*
X120080589Y-144579875D02*
X120175827Y-144627494D01*
X120175827Y-144627494D02*
X120271065Y-144722732D01*
X120271065Y-144722732D02*
X120318684Y-144913208D01*
X120318684Y-144913208D02*
X120318684Y-145246541D01*
X120318684Y-145246541D02*
X120271065Y-145437017D01*
X120271065Y-145437017D02*
X120175827Y-145532256D01*
X120175827Y-145532256D02*
X120080589Y-145579875D01*
X120080589Y-145579875D02*
X119890113Y-145579875D01*
X119890113Y-145579875D02*
X119794875Y-145532256D01*
X119794875Y-145532256D02*
X119699637Y-145437017D01*
X119699637Y-145437017D02*
X119652018Y-145246541D01*
X119652018Y-145246541D02*
X119652018Y-144913208D01*
X119652018Y-144913208D02*
X119699637Y-144722732D01*
X119699637Y-144722732D02*
X119794875Y-144627494D01*
X119794875Y-144627494D02*
X119890113Y-144579875D01*
X121080589Y-145056065D02*
X120747256Y-145056065D01*
X120747256Y-145579875D02*
X120747256Y-144579875D01*
X120747256Y-144579875D02*
X121223446Y-144579875D01*
X122366304Y-145056065D02*
X122699637Y-145056065D01*
X122842494Y-145579875D02*
X122366304Y-145579875D01*
X122366304Y-145579875D02*
X122366304Y-144579875D01*
X122366304Y-144579875D02*
X122842494Y-144579875D01*
X123747256Y-145579875D02*
X123271066Y-145579875D01*
X123271066Y-145579875D02*
X123271066Y-144579875D01*
X124080590Y-145056065D02*
X124413923Y-145056065D01*
X124556780Y-145579875D02*
X124080590Y-145579875D01*
X124080590Y-145579875D02*
X124080590Y-144579875D01*
X124080590Y-144579875D02*
X124556780Y-144579875D01*
X125556780Y-145484636D02*
X125509161Y-145532256D01*
X125509161Y-145532256D02*
X125366304Y-145579875D01*
X125366304Y-145579875D02*
X125271066Y-145579875D01*
X125271066Y-145579875D02*
X125128209Y-145532256D01*
X125128209Y-145532256D02*
X125032971Y-145437017D01*
X125032971Y-145437017D02*
X124985352Y-145341779D01*
X124985352Y-145341779D02*
X124937733Y-145151303D01*
X124937733Y-145151303D02*
X124937733Y-145008446D01*
X124937733Y-145008446D02*
X124985352Y-144817970D01*
X124985352Y-144817970D02*
X125032971Y-144722732D01*
X125032971Y-144722732D02*
X125128209Y-144627494D01*
X125128209Y-144627494D02*
X125271066Y-144579875D01*
X125271066Y-144579875D02*
X125366304Y-144579875D01*
X125366304Y-144579875D02*
X125509161Y-144627494D01*
X125509161Y-144627494D02*
X125556780Y-144675113D01*
X125842495Y-144579875D02*
X126413923Y-144579875D01*
X126128209Y-145579875D02*
X126128209Y-144579875D01*
X127318685Y-145579875D02*
X126985352Y-145103684D01*
X126747257Y-145579875D02*
X126747257Y-144579875D01*
X126747257Y-144579875D02*
X127128209Y-144579875D01*
X127128209Y-144579875D02*
X127223447Y-144627494D01*
X127223447Y-144627494D02*
X127271066Y-144675113D01*
X127271066Y-144675113D02*
X127318685Y-144770351D01*
X127318685Y-144770351D02*
X127318685Y-144913208D01*
X127318685Y-144913208D02*
X127271066Y-145008446D01*
X127271066Y-145008446D02*
X127223447Y-145056065D01*
X127223447Y-145056065D02*
X127128209Y-145103684D01*
X127128209Y-145103684D02*
X126747257Y-145103684D01*
X127747257Y-145579875D02*
X127747257Y-144579875D01*
X128794875Y-145484636D02*
X128747256Y-145532256D01*
X128747256Y-145532256D02*
X128604399Y-145579875D01*
X128604399Y-145579875D02*
X128509161Y-145579875D01*
X128509161Y-145579875D02*
X128366304Y-145532256D01*
X128366304Y-145532256D02*
X128271066Y-145437017D01*
X128271066Y-145437017D02*
X128223447Y-145341779D01*
X128223447Y-145341779D02*
X128175828Y-145151303D01*
X128175828Y-145151303D02*
X128175828Y-145008446D01*
X128175828Y-145008446D02*
X128223447Y-144817970D01*
X128223447Y-144817970D02*
X128271066Y-144722732D01*
X128271066Y-144722732D02*
X128366304Y-144627494D01*
X128366304Y-144627494D02*
X128509161Y-144579875D01*
X128509161Y-144579875D02*
X128604399Y-144579875D01*
X128604399Y-144579875D02*
X128747256Y-144627494D01*
X128747256Y-144627494D02*
X128794875Y-144675113D01*
X129175828Y-145294160D02*
X129652018Y-145294160D01*
X129080590Y-145579875D02*
X129413923Y-144579875D01*
X129413923Y-144579875D02*
X129747256Y-145579875D01*
X130556780Y-145579875D02*
X130080590Y-145579875D01*
X130080590Y-145579875D02*
X130080590Y-144579875D01*
X132461543Y-145579875D02*
X132413924Y-145579875D01*
X132413924Y-145579875D02*
X132318685Y-145532256D01*
X132318685Y-145532256D02*
X132175828Y-145389398D01*
X132175828Y-145389398D02*
X131937733Y-145103684D01*
X131937733Y-145103684D02*
X131842495Y-144960827D01*
X131842495Y-144960827D02*
X131794876Y-144817970D01*
X131794876Y-144817970D02*
X131794876Y-144722732D01*
X131794876Y-144722732D02*
X131842495Y-144627494D01*
X131842495Y-144627494D02*
X131937733Y-144579875D01*
X131937733Y-144579875D02*
X131985352Y-144579875D01*
X131985352Y-144579875D02*
X132080590Y-144627494D01*
X132080590Y-144627494D02*
X132128209Y-144722732D01*
X132128209Y-144722732D02*
X132128209Y-144770351D01*
X132128209Y-144770351D02*
X132080590Y-144865589D01*
X132080590Y-144865589D02*
X132032971Y-144913208D01*
X132032971Y-144913208D02*
X131747257Y-145103684D01*
X131747257Y-145103684D02*
X131699638Y-145151303D01*
X131699638Y-145151303D02*
X131652019Y-145246541D01*
X131652019Y-145246541D02*
X131652019Y-145389398D01*
X131652019Y-145389398D02*
X131699638Y-145484636D01*
X131699638Y-145484636D02*
X131747257Y-145532256D01*
X131747257Y-145532256D02*
X131842495Y-145579875D01*
X131842495Y-145579875D02*
X131985352Y-145579875D01*
X131985352Y-145579875D02*
X132080590Y-145532256D01*
X132080590Y-145532256D02*
X132128209Y-145484636D01*
X132128209Y-145484636D02*
X132271066Y-145294160D01*
X132271066Y-145294160D02*
X132318685Y-145151303D01*
X132318685Y-145151303D02*
X132318685Y-145056065D01*
X134223447Y-145484636D02*
X134175828Y-145532256D01*
X134175828Y-145532256D02*
X134032971Y-145579875D01*
X134032971Y-145579875D02*
X133937733Y-145579875D01*
X133937733Y-145579875D02*
X133794876Y-145532256D01*
X133794876Y-145532256D02*
X133699638Y-145437017D01*
X133699638Y-145437017D02*
X133652019Y-145341779D01*
X133652019Y-145341779D02*
X133604400Y-145151303D01*
X133604400Y-145151303D02*
X133604400Y-145008446D01*
X133604400Y-145008446D02*
X133652019Y-144817970D01*
X133652019Y-144817970D02*
X133699638Y-144722732D01*
X133699638Y-144722732D02*
X133794876Y-144627494D01*
X133794876Y-144627494D02*
X133937733Y-144579875D01*
X133937733Y-144579875D02*
X134032971Y-144579875D01*
X134032971Y-144579875D02*
X134175828Y-144627494D01*
X134175828Y-144627494D02*
X134223447Y-144675113D01*
X134842495Y-144579875D02*
X135032971Y-144579875D01*
X135032971Y-144579875D02*
X135128209Y-144627494D01*
X135128209Y-144627494D02*
X135223447Y-144722732D01*
X135223447Y-144722732D02*
X135271066Y-144913208D01*
X135271066Y-144913208D02*
X135271066Y-145246541D01*
X135271066Y-145246541D02*
X135223447Y-145437017D01*
X135223447Y-145437017D02*
X135128209Y-145532256D01*
X135128209Y-145532256D02*
X135032971Y-145579875D01*
X135032971Y-145579875D02*
X134842495Y-145579875D01*
X134842495Y-145579875D02*
X134747257Y-145532256D01*
X134747257Y-145532256D02*
X134652019Y-145437017D01*
X134652019Y-145437017D02*
X134604400Y-145246541D01*
X134604400Y-145246541D02*
X134604400Y-144913208D01*
X134604400Y-144913208D02*
X134652019Y-144722732D01*
X134652019Y-144722732D02*
X134747257Y-144627494D01*
X134747257Y-144627494D02*
X134842495Y-144579875D01*
X135699638Y-145579875D02*
X135699638Y-144579875D01*
X135699638Y-144579875D02*
X136032971Y-145294160D01*
X136032971Y-145294160D02*
X136366304Y-144579875D01*
X136366304Y-144579875D02*
X136366304Y-145579875D01*
X136842495Y-145579875D02*
X136842495Y-144579875D01*
X136842495Y-144579875D02*
X137223447Y-144579875D01*
X137223447Y-144579875D02*
X137318685Y-144627494D01*
X137318685Y-144627494D02*
X137366304Y-144675113D01*
X137366304Y-144675113D02*
X137413923Y-144770351D01*
X137413923Y-144770351D02*
X137413923Y-144913208D01*
X137413923Y-144913208D02*
X137366304Y-145008446D01*
X137366304Y-145008446D02*
X137318685Y-145056065D01*
X137318685Y-145056065D02*
X137223447Y-145103684D01*
X137223447Y-145103684D02*
X136842495Y-145103684D01*
X137842495Y-144579875D02*
X137842495Y-145389398D01*
X137842495Y-145389398D02*
X137890114Y-145484636D01*
X137890114Y-145484636D02*
X137937733Y-145532256D01*
X137937733Y-145532256D02*
X138032971Y-145579875D01*
X138032971Y-145579875D02*
X138223447Y-145579875D01*
X138223447Y-145579875D02*
X138318685Y-145532256D01*
X138318685Y-145532256D02*
X138366304Y-145484636D01*
X138366304Y-145484636D02*
X138413923Y-145389398D01*
X138413923Y-145389398D02*
X138413923Y-144579875D01*
X138747257Y-144579875D02*
X139318685Y-144579875D01*
X139032971Y-145579875D02*
X139032971Y-144579875D01*
X139652019Y-145056065D02*
X139985352Y-145056065D01*
X140128209Y-145579875D02*
X139652019Y-145579875D01*
X139652019Y-145579875D02*
X139652019Y-144579875D01*
X139652019Y-144579875D02*
X140128209Y-144579875D01*
X141128209Y-145579875D02*
X140794876Y-145103684D01*
X140556781Y-145579875D02*
X140556781Y-144579875D01*
X140556781Y-144579875D02*
X140937733Y-144579875D01*
X140937733Y-144579875D02*
X141032971Y-144627494D01*
X141032971Y-144627494D02*
X141080590Y-144675113D01*
X141080590Y-144675113D02*
X141128209Y-144770351D01*
X141128209Y-144770351D02*
X141128209Y-144913208D01*
X141128209Y-144913208D02*
X141080590Y-145008446D01*
X141080590Y-145008446D02*
X141032971Y-145056065D01*
X141032971Y-145056065D02*
X140937733Y-145103684D01*
X140937733Y-145103684D02*
X140556781Y-145103684D01*
X142318686Y-145056065D02*
X142652019Y-145056065D01*
X142794876Y-145579875D02*
X142318686Y-145579875D01*
X142318686Y-145579875D02*
X142318686Y-144579875D01*
X142318686Y-144579875D02*
X142794876Y-144579875D01*
X143223448Y-145579875D02*
X143223448Y-144579875D01*
X143223448Y-144579875D02*
X143794876Y-145579875D01*
X143794876Y-145579875D02*
X143794876Y-144579875D01*
X144794876Y-144627494D02*
X144699638Y-144579875D01*
X144699638Y-144579875D02*
X144556781Y-144579875D01*
X144556781Y-144579875D02*
X144413924Y-144627494D01*
X144413924Y-144627494D02*
X144318686Y-144722732D01*
X144318686Y-144722732D02*
X144271067Y-144817970D01*
X144271067Y-144817970D02*
X144223448Y-145008446D01*
X144223448Y-145008446D02*
X144223448Y-145151303D01*
X144223448Y-145151303D02*
X144271067Y-145341779D01*
X144271067Y-145341779D02*
X144318686Y-145437017D01*
X144318686Y-145437017D02*
X144413924Y-145532256D01*
X144413924Y-145532256D02*
X144556781Y-145579875D01*
X144556781Y-145579875D02*
X144652019Y-145579875D01*
X144652019Y-145579875D02*
X144794876Y-145532256D01*
X144794876Y-145532256D02*
X144842495Y-145484636D01*
X144842495Y-145484636D02*
X144842495Y-145151303D01*
X144842495Y-145151303D02*
X144652019Y-145151303D01*
X145271067Y-145579875D02*
X145271067Y-144579875D01*
X145747257Y-145579875D02*
X145747257Y-144579875D01*
X145747257Y-144579875D02*
X146318685Y-145579875D01*
X146318685Y-145579875D02*
X146318685Y-144579875D01*
X146794876Y-145056065D02*
X147128209Y-145056065D01*
X147271066Y-145579875D02*
X146794876Y-145579875D01*
X146794876Y-145579875D02*
X146794876Y-144579875D01*
X146794876Y-144579875D02*
X147271066Y-144579875D01*
X147699638Y-145056065D02*
X148032971Y-145056065D01*
X148175828Y-145579875D02*
X147699638Y-145579875D01*
X147699638Y-145579875D02*
X147699638Y-144579875D01*
X147699638Y-144579875D02*
X148175828Y-144579875D01*
X149175828Y-145579875D02*
X148842495Y-145103684D01*
X148604400Y-145579875D02*
X148604400Y-144579875D01*
X148604400Y-144579875D02*
X148985352Y-144579875D01*
X148985352Y-144579875D02*
X149080590Y-144627494D01*
X149080590Y-144627494D02*
X149128209Y-144675113D01*
X149128209Y-144675113D02*
X149175828Y-144770351D01*
X149175828Y-144770351D02*
X149175828Y-144913208D01*
X149175828Y-144913208D02*
X149128209Y-145008446D01*
X149128209Y-145008446D02*
X149080590Y-145056065D01*
X149080590Y-145056065D02*
X148985352Y-145103684D01*
X148985352Y-145103684D02*
X148604400Y-145103684D01*
X149604400Y-145579875D02*
X149604400Y-144579875D01*
X150080590Y-145579875D02*
X150080590Y-144579875D01*
X150080590Y-144579875D02*
X150652018Y-145579875D01*
X150652018Y-145579875D02*
X150652018Y-144579875D01*
X151652018Y-144627494D02*
X151556780Y-144579875D01*
X151556780Y-144579875D02*
X151413923Y-144579875D01*
X151413923Y-144579875D02*
X151271066Y-144627494D01*
X151271066Y-144627494D02*
X151175828Y-144722732D01*
X151175828Y-144722732D02*
X151128209Y-144817970D01*
X151128209Y-144817970D02*
X151080590Y-145008446D01*
X151080590Y-145008446D02*
X151080590Y-145151303D01*
X151080590Y-145151303D02*
X151128209Y-145341779D01*
X151128209Y-145341779D02*
X151175828Y-145437017D01*
X151175828Y-145437017D02*
X151271066Y-145532256D01*
X151271066Y-145532256D02*
X151413923Y-145579875D01*
X151413923Y-145579875D02*
X151509161Y-145579875D01*
X151509161Y-145579875D02*
X151652018Y-145532256D01*
X151652018Y-145532256D02*
X151699637Y-145484636D01*
X151699637Y-145484636D02*
X151699637Y-145151303D01*
X151699637Y-145151303D02*
X151509161Y-145151303D01*
X109413922Y-146189819D02*
X109985350Y-146189819D01*
X109699636Y-147189819D02*
X109699636Y-146189819D01*
X110318684Y-146666009D02*
X110652017Y-146666009D01*
X110794874Y-147189819D02*
X110318684Y-147189819D01*
X110318684Y-147189819D02*
X110318684Y-146189819D01*
X110318684Y-146189819D02*
X110794874Y-146189819D01*
X111175827Y-146904104D02*
X111652017Y-146904104D01*
X111080589Y-147189819D02*
X111413922Y-146189819D01*
X111413922Y-146189819D02*
X111747255Y-147189819D01*
X112080589Y-147189819D02*
X112080589Y-146189819D01*
X112080589Y-146189819D02*
X112413922Y-146904104D01*
X112413922Y-146904104D02*
X112747255Y-146189819D01*
X112747255Y-146189819D02*
X112747255Y-147189819D01*
X114318684Y-146666009D02*
X114461541Y-146713628D01*
X114461541Y-146713628D02*
X114509160Y-146761247D01*
X114509160Y-146761247D02*
X114556779Y-146856485D01*
X114556779Y-146856485D02*
X114556779Y-146999342D01*
X114556779Y-146999342D02*
X114509160Y-147094580D01*
X114509160Y-147094580D02*
X114461541Y-147142200D01*
X114461541Y-147142200D02*
X114366303Y-147189819D01*
X114366303Y-147189819D02*
X113985351Y-147189819D01*
X113985351Y-147189819D02*
X113985351Y-146189819D01*
X113985351Y-146189819D02*
X114318684Y-146189819D01*
X114318684Y-146189819D02*
X114413922Y-146237438D01*
X114413922Y-146237438D02*
X114461541Y-146285057D01*
X114461541Y-146285057D02*
X114509160Y-146380295D01*
X114509160Y-146380295D02*
X114509160Y-146475533D01*
X114509160Y-146475533D02*
X114461541Y-146570771D01*
X114461541Y-146570771D02*
X114413922Y-146618390D01*
X114413922Y-146618390D02*
X114318684Y-146666009D01*
X114318684Y-146666009D02*
X113985351Y-146666009D01*
X115175827Y-146189819D02*
X115366303Y-146189819D01*
X115366303Y-146189819D02*
X115461541Y-146237438D01*
X115461541Y-146237438D02*
X115556779Y-146332676D01*
X115556779Y-146332676D02*
X115604398Y-146523152D01*
X115604398Y-146523152D02*
X115604398Y-146856485D01*
X115604398Y-146856485D02*
X115556779Y-147046961D01*
X115556779Y-147046961D02*
X115461541Y-147142200D01*
X115461541Y-147142200D02*
X115366303Y-147189819D01*
X115366303Y-147189819D02*
X115175827Y-147189819D01*
X115175827Y-147189819D02*
X115080589Y-147142200D01*
X115080589Y-147142200D02*
X114985351Y-147046961D01*
X114985351Y-147046961D02*
X114937732Y-146856485D01*
X114937732Y-146856485D02*
X114937732Y-146523152D01*
X114937732Y-146523152D02*
X114985351Y-146332676D01*
X114985351Y-146332676D02*
X115080589Y-146237438D01*
X115080589Y-146237438D02*
X115175827Y-146189819D01*
X116223446Y-146189819D02*
X116413922Y-146189819D01*
X116413922Y-146189819D02*
X116509160Y-146237438D01*
X116509160Y-146237438D02*
X116604398Y-146332676D01*
X116604398Y-146332676D02*
X116652017Y-146523152D01*
X116652017Y-146523152D02*
X116652017Y-146856485D01*
X116652017Y-146856485D02*
X116604398Y-147046961D01*
X116604398Y-147046961D02*
X116509160Y-147142200D01*
X116509160Y-147142200D02*
X116413922Y-147189819D01*
X116413922Y-147189819D02*
X116223446Y-147189819D01*
X116223446Y-147189819D02*
X116128208Y-147142200D01*
X116128208Y-147142200D02*
X116032970Y-147046961D01*
X116032970Y-147046961D02*
X115985351Y-146856485D01*
X115985351Y-146856485D02*
X115985351Y-146523152D01*
X115985351Y-146523152D02*
X116032970Y-146332676D01*
X116032970Y-146332676D02*
X116128208Y-146237438D01*
X116128208Y-146237438D02*
X116223446Y-146189819D01*
X117080589Y-147189819D02*
X117080589Y-146189819D01*
X117080589Y-146189819D02*
X117413922Y-146904104D01*
X117413922Y-146904104D02*
X117747255Y-146189819D01*
X117747255Y-146189819D02*
X117747255Y-147189819D01*
X118223446Y-147094580D02*
X118271065Y-147142200D01*
X118271065Y-147142200D02*
X118223446Y-147189819D01*
X118223446Y-147189819D02*
X118175827Y-147142200D01*
X118175827Y-147142200D02*
X118223446Y-147094580D01*
X118223446Y-147094580D02*
X118223446Y-147189819D01*
X118223446Y-146570771D02*
X118271065Y-146618390D01*
X118271065Y-146618390D02*
X118223446Y-146666009D01*
X118223446Y-146666009D02*
X118175827Y-146618390D01*
X118175827Y-146618390D02*
X118223446Y-146570771D01*
X118223446Y-146570771D02*
X118223446Y-146666009D01*
X119794874Y-146666009D02*
X119937731Y-146713628D01*
X119937731Y-146713628D02*
X119985350Y-146761247D01*
X119985350Y-146761247D02*
X120032969Y-146856485D01*
X120032969Y-146856485D02*
X120032969Y-146999342D01*
X120032969Y-146999342D02*
X119985350Y-147094580D01*
X119985350Y-147094580D02*
X119937731Y-147142200D01*
X119937731Y-147142200D02*
X119842493Y-147189819D01*
X119842493Y-147189819D02*
X119461541Y-147189819D01*
X119461541Y-147189819D02*
X119461541Y-146189819D01*
X119461541Y-146189819D02*
X119794874Y-146189819D01*
X119794874Y-146189819D02*
X119890112Y-146237438D01*
X119890112Y-146237438D02*
X119937731Y-146285057D01*
X119937731Y-146285057D02*
X119985350Y-146380295D01*
X119985350Y-146380295D02*
X119985350Y-146475533D01*
X119985350Y-146475533D02*
X119937731Y-146570771D01*
X119937731Y-146570771D02*
X119890112Y-146618390D01*
X119890112Y-146618390D02*
X119794874Y-146666009D01*
X119794874Y-146666009D02*
X119461541Y-146666009D01*
X120318684Y-146189819D02*
X120890112Y-146189819D01*
X120604398Y-147189819D02*
X120604398Y-146189819D01*
X121937731Y-146142200D02*
X121080589Y-147427914D01*
X122271065Y-147189819D02*
X122271065Y-146189819D01*
X122271065Y-146189819D02*
X122604398Y-146904104D01*
X122604398Y-146904104D02*
X122937731Y-146189819D01*
X122937731Y-146189819D02*
X122937731Y-147189819D01*
X123985350Y-147094580D02*
X123937731Y-147142200D01*
X123937731Y-147142200D02*
X123794874Y-147189819D01*
X123794874Y-147189819D02*
X123699636Y-147189819D01*
X123699636Y-147189819D02*
X123556779Y-147142200D01*
X123556779Y-147142200D02*
X123461541Y-147046961D01*
X123461541Y-147046961D02*
X123413922Y-146951723D01*
X123413922Y-146951723D02*
X123366303Y-146761247D01*
X123366303Y-146761247D02*
X123366303Y-146618390D01*
X123366303Y-146618390D02*
X123413922Y-146427914D01*
X123413922Y-146427914D02*
X123461541Y-146332676D01*
X123461541Y-146332676D02*
X123556779Y-146237438D01*
X123556779Y-146237438D02*
X123699636Y-146189819D01*
X123699636Y-146189819D02*
X123794874Y-146189819D01*
X123794874Y-146189819D02*
X123937731Y-146237438D01*
X123937731Y-146237438D02*
X123985350Y-146285057D01*
X125175827Y-147189819D02*
X125175827Y-146189819D01*
X125175827Y-146189819D02*
X125509160Y-146904104D01*
X125509160Y-146904104D02*
X125842493Y-146189819D01*
X125842493Y-146189819D02*
X125842493Y-147189819D01*
X126509160Y-146189819D02*
X126699636Y-146189819D01*
X126699636Y-146189819D02*
X126794874Y-146237438D01*
X126794874Y-146237438D02*
X126890112Y-146332676D01*
X126890112Y-146332676D02*
X126937731Y-146523152D01*
X126937731Y-146523152D02*
X126937731Y-146856485D01*
X126937731Y-146856485D02*
X126890112Y-147046961D01*
X126890112Y-147046961D02*
X126794874Y-147142200D01*
X126794874Y-147142200D02*
X126699636Y-147189819D01*
X126699636Y-147189819D02*
X126509160Y-147189819D01*
X126509160Y-147189819D02*
X126413922Y-147142200D01*
X126413922Y-147142200D02*
X126318684Y-147046961D01*
X126318684Y-147046961D02*
X126271065Y-146856485D01*
X126271065Y-146856485D02*
X126271065Y-146523152D01*
X126271065Y-146523152D02*
X126318684Y-146332676D01*
X126318684Y-146332676D02*
X126413922Y-146237438D01*
X126413922Y-146237438D02*
X126509160Y-146189819D01*
X127366303Y-147189819D02*
X127366303Y-146189819D01*
X127366303Y-146189819D02*
X127604398Y-146189819D01*
X127604398Y-146189819D02*
X127747255Y-146237438D01*
X127747255Y-146237438D02*
X127842493Y-146332676D01*
X127842493Y-146332676D02*
X127890112Y-146427914D01*
X127890112Y-146427914D02*
X127937731Y-146618390D01*
X127937731Y-146618390D02*
X127937731Y-146761247D01*
X127937731Y-146761247D02*
X127890112Y-146951723D01*
X127890112Y-146951723D02*
X127842493Y-147046961D01*
X127842493Y-147046961D02*
X127747255Y-147142200D01*
X127747255Y-147142200D02*
X127604398Y-147189819D01*
X127604398Y-147189819D02*
X127366303Y-147189819D01*
X128366303Y-146189819D02*
X128366303Y-146999342D01*
X128366303Y-146999342D02*
X128413922Y-147094580D01*
X128413922Y-147094580D02*
X128461541Y-147142200D01*
X128461541Y-147142200D02*
X128556779Y-147189819D01*
X128556779Y-147189819D02*
X128747255Y-147189819D01*
X128747255Y-147189819D02*
X128842493Y-147142200D01*
X128842493Y-147142200D02*
X128890112Y-147094580D01*
X128890112Y-147094580D02*
X128937731Y-146999342D01*
X128937731Y-146999342D02*
X128937731Y-146189819D01*
X129890112Y-147189819D02*
X129413922Y-147189819D01*
X129413922Y-147189819D02*
X129413922Y-146189819D01*
X130223446Y-146666009D02*
X130556779Y-146666009D01*
X130699636Y-147189819D02*
X130223446Y-147189819D01*
X130223446Y-147189819D02*
X130223446Y-146189819D01*
X130223446Y-146189819D02*
X130699636Y-146189819D01*
X131175827Y-147142200D02*
X131175827Y-147189819D01*
X131175827Y-147189819D02*
X131128208Y-147285057D01*
X131128208Y-147285057D02*
X131080589Y-147332676D01*
X132937731Y-147189819D02*
X132604398Y-146713628D01*
X132366303Y-147189819D02*
X132366303Y-146189819D01*
X132366303Y-146189819D02*
X132747255Y-146189819D01*
X132747255Y-146189819D02*
X132842493Y-146237438D01*
X132842493Y-146237438D02*
X132890112Y-146285057D01*
X132890112Y-146285057D02*
X132937731Y-146380295D01*
X132937731Y-146380295D02*
X132937731Y-146523152D01*
X132937731Y-146523152D02*
X132890112Y-146618390D01*
X132890112Y-146618390D02*
X132842493Y-146666009D01*
X132842493Y-146666009D02*
X132747255Y-146713628D01*
X132747255Y-146713628D02*
X132366303Y-146713628D01*
X133366303Y-146666009D02*
X133699636Y-146666009D01*
X133842493Y-147189819D02*
X133366303Y-147189819D01*
X133366303Y-147189819D02*
X133366303Y-146189819D01*
X133366303Y-146189819D02*
X133842493Y-146189819D01*
X134128208Y-146189819D02*
X134461541Y-147189819D01*
X134461541Y-147189819D02*
X134794874Y-146189819D01*
X135128208Y-147094580D02*
X135175827Y-147142200D01*
X135175827Y-147142200D02*
X135128208Y-147189819D01*
X135128208Y-147189819D02*
X135080589Y-147142200D01*
X135080589Y-147142200D02*
X135128208Y-147094580D01*
X135128208Y-147094580D02*
X135128208Y-147189819D01*
X136318684Y-146904104D02*
X136794874Y-146904104D01*
X136223446Y-147189819D02*
X136556779Y-146189819D01*
X136556779Y-146189819D02*
X136890112Y-147189819D01*
X147633333Y-89659580D02*
X147585714Y-89707200D01*
X147585714Y-89707200D02*
X147442857Y-89754819D01*
X147442857Y-89754819D02*
X147347619Y-89754819D01*
X147347619Y-89754819D02*
X147204762Y-89707200D01*
X147204762Y-89707200D02*
X147109524Y-89611961D01*
X147109524Y-89611961D02*
X147061905Y-89516723D01*
X147061905Y-89516723D02*
X147014286Y-89326247D01*
X147014286Y-89326247D02*
X147014286Y-89183390D01*
X147014286Y-89183390D02*
X147061905Y-88992914D01*
X147061905Y-88992914D02*
X147109524Y-88897676D01*
X147109524Y-88897676D02*
X147204762Y-88802438D01*
X147204762Y-88802438D02*
X147347619Y-88754819D01*
X147347619Y-88754819D02*
X147442857Y-88754819D01*
X147442857Y-88754819D02*
X147585714Y-88802438D01*
X147585714Y-88802438D02*
X147633333Y-88850057D01*
X147966667Y-88754819D02*
X148633333Y-88754819D01*
X148633333Y-88754819D02*
X148204762Y-89754819D01*
X156718095Y-66820819D02*
X156718095Y-65820819D01*
X156718095Y-66297009D02*
X157289523Y-66297009D01*
X157289523Y-66820819D02*
X157289523Y-65820819D01*
X157718095Y-65916057D02*
X157765714Y-65868438D01*
X157765714Y-65868438D02*
X157860952Y-65820819D01*
X157860952Y-65820819D02*
X158099047Y-65820819D01*
X158099047Y-65820819D02*
X158194285Y-65868438D01*
X158194285Y-65868438D02*
X158241904Y-65916057D01*
X158241904Y-65916057D02*
X158289523Y-66011295D01*
X158289523Y-66011295D02*
X158289523Y-66106533D01*
X158289523Y-66106533D02*
X158241904Y-66249390D01*
X158241904Y-66249390D02*
X157670476Y-66820819D01*
X157670476Y-66820819D02*
X158289523Y-66820819D01*
X91026666Y-78104819D02*
X91026666Y-78819104D01*
X91026666Y-78819104D02*
X90979047Y-78961961D01*
X90979047Y-78961961D02*
X90883809Y-79057200D01*
X90883809Y-79057200D02*
X90740952Y-79104819D01*
X90740952Y-79104819D02*
X90645714Y-79104819D01*
X91407619Y-78104819D02*
X92026666Y-78104819D01*
X92026666Y-78104819D02*
X91693333Y-78485771D01*
X91693333Y-78485771D02*
X91836190Y-78485771D01*
X91836190Y-78485771D02*
X91931428Y-78533390D01*
X91931428Y-78533390D02*
X91979047Y-78581009D01*
X91979047Y-78581009D02*
X92026666Y-78676247D01*
X92026666Y-78676247D02*
X92026666Y-78914342D01*
X92026666Y-78914342D02*
X91979047Y-79009580D01*
X91979047Y-79009580D02*
X91931428Y-79057200D01*
X91931428Y-79057200D02*
X91836190Y-79104819D01*
X91836190Y-79104819D02*
X91550476Y-79104819D01*
X91550476Y-79104819D02*
X91455238Y-79057200D01*
X91455238Y-79057200D02*
X91407619Y-79009580D01*
X100758666Y-136755819D02*
X100758666Y-137470104D01*
X100758666Y-137470104D02*
X100711047Y-137612961D01*
X100711047Y-137612961D02*
X100615809Y-137708200D01*
X100615809Y-137708200D02*
X100472952Y-137755819D01*
X100472952Y-137755819D02*
X100377714Y-137755819D01*
X101758666Y-137755819D02*
X101187238Y-137755819D01*
X101472952Y-137755819D02*
X101472952Y-136755819D01*
X101472952Y-136755819D02*
X101377714Y-136898676D01*
X101377714Y-136898676D02*
X101282476Y-136993914D01*
X101282476Y-136993914D02*
X101187238Y-137041533D01*
X134667333Y-76559580D02*
X134619714Y-76607200D01*
X134619714Y-76607200D02*
X134476857Y-76654819D01*
X134476857Y-76654819D02*
X134381619Y-76654819D01*
X134381619Y-76654819D02*
X134238762Y-76607200D01*
X134238762Y-76607200D02*
X134143524Y-76511961D01*
X134143524Y-76511961D02*
X134095905Y-76416723D01*
X134095905Y-76416723D02*
X134048286Y-76226247D01*
X134048286Y-76226247D02*
X134048286Y-76083390D01*
X134048286Y-76083390D02*
X134095905Y-75892914D01*
X134095905Y-75892914D02*
X134143524Y-75797676D01*
X134143524Y-75797676D02*
X134238762Y-75702438D01*
X134238762Y-75702438D02*
X134381619Y-75654819D01*
X134381619Y-75654819D02*
X134476857Y-75654819D01*
X134476857Y-75654819D02*
X134619714Y-75702438D01*
X134619714Y-75702438D02*
X134667333Y-75750057D01*
X135000667Y-75654819D02*
X135619714Y-75654819D01*
X135619714Y-75654819D02*
X135286381Y-76035771D01*
X135286381Y-76035771D02*
X135429238Y-76035771D01*
X135429238Y-76035771D02*
X135524476Y-76083390D01*
X135524476Y-76083390D02*
X135572095Y-76131009D01*
X135572095Y-76131009D02*
X135619714Y-76226247D01*
X135619714Y-76226247D02*
X135619714Y-76464342D01*
X135619714Y-76464342D02*
X135572095Y-76559580D01*
X135572095Y-76559580D02*
X135524476Y-76607200D01*
X135524476Y-76607200D02*
X135429238Y-76654819D01*
X135429238Y-76654819D02*
X135143524Y-76654819D01*
X135143524Y-76654819D02*
X135048286Y-76607200D01*
X135048286Y-76607200D02*
X135000667Y-76559580D01*
X114133333Y-119580819D02*
X113800000Y-119104628D01*
X113561905Y-119580819D02*
X113561905Y-118580819D01*
X113561905Y-118580819D02*
X113942857Y-118580819D01*
X113942857Y-118580819D02*
X114038095Y-118628438D01*
X114038095Y-118628438D02*
X114085714Y-118676057D01*
X114085714Y-118676057D02*
X114133333Y-118771295D01*
X114133333Y-118771295D02*
X114133333Y-118914152D01*
X114133333Y-118914152D02*
X114085714Y-119009390D01*
X114085714Y-119009390D02*
X114038095Y-119057009D01*
X114038095Y-119057009D02*
X113942857Y-119104628D01*
X113942857Y-119104628D02*
X113561905Y-119104628D01*
X114609524Y-119580819D02*
X114800000Y-119580819D01*
X114800000Y-119580819D02*
X114895238Y-119533200D01*
X114895238Y-119533200D02*
X114942857Y-119485580D01*
X114942857Y-119485580D02*
X115038095Y-119342723D01*
X115038095Y-119342723D02*
X115085714Y-119152247D01*
X115085714Y-119152247D02*
X115085714Y-118771295D01*
X115085714Y-118771295D02*
X115038095Y-118676057D01*
X115038095Y-118676057D02*
X114990476Y-118628438D01*
X114990476Y-118628438D02*
X114895238Y-118580819D01*
X114895238Y-118580819D02*
X114704762Y-118580819D01*
X114704762Y-118580819D02*
X114609524Y-118628438D01*
X114609524Y-118628438D02*
X114561905Y-118676057D01*
X114561905Y-118676057D02*
X114514286Y-118771295D01*
X114514286Y-118771295D02*
X114514286Y-119009390D01*
X114514286Y-119009390D02*
X114561905Y-119104628D01*
X114561905Y-119104628D02*
X114609524Y-119152247D01*
X114609524Y-119152247D02*
X114704762Y-119199866D01*
X114704762Y-119199866D02*
X114895238Y-119199866D01*
X114895238Y-119199866D02*
X114990476Y-119152247D01*
X114990476Y-119152247D02*
X115038095Y-119104628D01*
X115038095Y-119104628D02*
X115085714Y-119009390D01*
X134667333Y-95803580D02*
X134619714Y-95851200D01*
X134619714Y-95851200D02*
X134476857Y-95898819D01*
X134476857Y-95898819D02*
X134381619Y-95898819D01*
X134381619Y-95898819D02*
X134238762Y-95851200D01*
X134238762Y-95851200D02*
X134143524Y-95755961D01*
X134143524Y-95755961D02*
X134095905Y-95660723D01*
X134095905Y-95660723D02*
X134048286Y-95470247D01*
X134048286Y-95470247D02*
X134048286Y-95327390D01*
X134048286Y-95327390D02*
X134095905Y-95136914D01*
X134095905Y-95136914D02*
X134143524Y-95041676D01*
X134143524Y-95041676D02*
X134238762Y-94946438D01*
X134238762Y-94946438D02*
X134381619Y-94898819D01*
X134381619Y-94898819D02*
X134476857Y-94898819D01*
X134476857Y-94898819D02*
X134619714Y-94946438D01*
X134619714Y-94946438D02*
X134667333Y-94994057D01*
X135619714Y-95898819D02*
X135048286Y-95898819D01*
X135334000Y-95898819D02*
X135334000Y-94898819D01*
X135334000Y-94898819D02*
X135238762Y-95041676D01*
X135238762Y-95041676D02*
X135143524Y-95136914D01*
X135143524Y-95136914D02*
X135048286Y-95184533D01*
X108799333Y-73352819D02*
X108466000Y-72876628D01*
X108227905Y-73352819D02*
X108227905Y-72352819D01*
X108227905Y-72352819D02*
X108608857Y-72352819D01*
X108608857Y-72352819D02*
X108704095Y-72400438D01*
X108704095Y-72400438D02*
X108751714Y-72448057D01*
X108751714Y-72448057D02*
X108799333Y-72543295D01*
X108799333Y-72543295D02*
X108799333Y-72686152D01*
X108799333Y-72686152D02*
X108751714Y-72781390D01*
X108751714Y-72781390D02*
X108704095Y-72829009D01*
X108704095Y-72829009D02*
X108608857Y-72876628D01*
X108608857Y-72876628D02*
X108227905Y-72876628D01*
X109180286Y-72448057D02*
X109227905Y-72400438D01*
X109227905Y-72400438D02*
X109323143Y-72352819D01*
X109323143Y-72352819D02*
X109561238Y-72352819D01*
X109561238Y-72352819D02*
X109656476Y-72400438D01*
X109656476Y-72400438D02*
X109704095Y-72448057D01*
X109704095Y-72448057D02*
X109751714Y-72543295D01*
X109751714Y-72543295D02*
X109751714Y-72638533D01*
X109751714Y-72638533D02*
X109704095Y-72781390D01*
X109704095Y-72781390D02*
X109132667Y-73352819D01*
X109132667Y-73352819D02*
X109751714Y-73352819D01*
X161555819Y-100409333D02*
X162270104Y-100409333D01*
X162270104Y-100409333D02*
X162412961Y-100456952D01*
X162412961Y-100456952D02*
X162508200Y-100552190D01*
X162508200Y-100552190D02*
X162555819Y-100695047D01*
X162555819Y-100695047D02*
X162555819Y-100790285D01*
X161984390Y-99790285D02*
X161936771Y-99885523D01*
X161936771Y-99885523D02*
X161889152Y-99933142D01*
X161889152Y-99933142D02*
X161793914Y-99980761D01*
X161793914Y-99980761D02*
X161746295Y-99980761D01*
X161746295Y-99980761D02*
X161651057Y-99933142D01*
X161651057Y-99933142D02*
X161603438Y-99885523D01*
X161603438Y-99885523D02*
X161555819Y-99790285D01*
X161555819Y-99790285D02*
X161555819Y-99599809D01*
X161555819Y-99599809D02*
X161603438Y-99504571D01*
X161603438Y-99504571D02*
X161651057Y-99456952D01*
X161651057Y-99456952D02*
X161746295Y-99409333D01*
X161746295Y-99409333D02*
X161793914Y-99409333D01*
X161793914Y-99409333D02*
X161889152Y-99456952D01*
X161889152Y-99456952D02*
X161936771Y-99504571D01*
X161936771Y-99504571D02*
X161984390Y-99599809D01*
X161984390Y-99599809D02*
X161984390Y-99790285D01*
X161984390Y-99790285D02*
X162032009Y-99885523D01*
X162032009Y-99885523D02*
X162079628Y-99933142D01*
X162079628Y-99933142D02*
X162174866Y-99980761D01*
X162174866Y-99980761D02*
X162365342Y-99980761D01*
X162365342Y-99980761D02*
X162460580Y-99933142D01*
X162460580Y-99933142D02*
X162508200Y-99885523D01*
X162508200Y-99885523D02*
X162555819Y-99790285D01*
X162555819Y-99790285D02*
X162555819Y-99599809D01*
X162555819Y-99599809D02*
X162508200Y-99504571D01*
X162508200Y-99504571D02*
X162460580Y-99456952D01*
X162460580Y-99456952D02*
X162365342Y-99409333D01*
X162365342Y-99409333D02*
X162174866Y-99409333D01*
X162174866Y-99409333D02*
X162079628Y-99456952D01*
X162079628Y-99456952D02*
X162032009Y-99504571D01*
X162032009Y-99504571D02*
X161984390Y-99599809D01*
X64845819Y-108283333D02*
X65560104Y-108283333D01*
X65560104Y-108283333D02*
X65702961Y-108330952D01*
X65702961Y-108330952D02*
X65798200Y-108426190D01*
X65798200Y-108426190D02*
X65845819Y-108569047D01*
X65845819Y-108569047D02*
X65845819Y-108664285D01*
X64845819Y-107902380D02*
X64845819Y-107235714D01*
X64845819Y-107235714D02*
X65845819Y-107664285D01*
X144954666Y-78612819D02*
X144954666Y-79327104D01*
X144954666Y-79327104D02*
X144907047Y-79469961D01*
X144907047Y-79469961D02*
X144811809Y-79565200D01*
X144811809Y-79565200D02*
X144668952Y-79612819D01*
X144668952Y-79612819D02*
X144573714Y-79612819D01*
X145383238Y-78708057D02*
X145430857Y-78660438D01*
X145430857Y-78660438D02*
X145526095Y-78612819D01*
X145526095Y-78612819D02*
X145764190Y-78612819D01*
X145764190Y-78612819D02*
X145859428Y-78660438D01*
X145859428Y-78660438D02*
X145907047Y-78708057D01*
X145907047Y-78708057D02*
X145954666Y-78803295D01*
X145954666Y-78803295D02*
X145954666Y-78898533D01*
X145954666Y-78898533D02*
X145907047Y-79041390D01*
X145907047Y-79041390D02*
X145335619Y-79612819D01*
X145335619Y-79612819D02*
X145954666Y-79612819D01*
X134667333Y-86278580D02*
X134619714Y-86326200D01*
X134619714Y-86326200D02*
X134476857Y-86373819D01*
X134476857Y-86373819D02*
X134381619Y-86373819D01*
X134381619Y-86373819D02*
X134238762Y-86326200D01*
X134238762Y-86326200D02*
X134143524Y-86230961D01*
X134143524Y-86230961D02*
X134095905Y-86135723D01*
X134095905Y-86135723D02*
X134048286Y-85945247D01*
X134048286Y-85945247D02*
X134048286Y-85802390D01*
X134048286Y-85802390D02*
X134095905Y-85611914D01*
X134095905Y-85611914D02*
X134143524Y-85516676D01*
X134143524Y-85516676D02*
X134238762Y-85421438D01*
X134238762Y-85421438D02*
X134381619Y-85373819D01*
X134381619Y-85373819D02*
X134476857Y-85373819D01*
X134476857Y-85373819D02*
X134619714Y-85421438D01*
X134619714Y-85421438D02*
X134667333Y-85469057D01*
X135048286Y-85469057D02*
X135095905Y-85421438D01*
X135095905Y-85421438D02*
X135191143Y-85373819D01*
X135191143Y-85373819D02*
X135429238Y-85373819D01*
X135429238Y-85373819D02*
X135524476Y-85421438D01*
X135524476Y-85421438D02*
X135572095Y-85469057D01*
X135572095Y-85469057D02*
X135619714Y-85564295D01*
X135619714Y-85564295D02*
X135619714Y-85659533D01*
X135619714Y-85659533D02*
X135572095Y-85802390D01*
X135572095Y-85802390D02*
X135000667Y-86373819D01*
X135000667Y-86373819D02*
X135619714Y-86373819D01*
X156718095Y-140734819D02*
X156718095Y-139734819D01*
X156718095Y-140211009D02*
X157289523Y-140211009D01*
X157289523Y-140734819D02*
X157289523Y-139734819D01*
X158289523Y-140734819D02*
X157718095Y-140734819D01*
X158003809Y-140734819D02*
X158003809Y-139734819D01*
X158003809Y-139734819D02*
X157908571Y-139877676D01*
X157908571Y-139877676D02*
X157813333Y-139972914D01*
X157813333Y-139972914D02*
X157718095Y-140020533D01*
X57658095Y-140734819D02*
X57658095Y-139734819D01*
X57658095Y-140211009D02*
X58229523Y-140211009D01*
X58229523Y-140734819D02*
X58229523Y-139734819D01*
X59134285Y-140068152D02*
X59134285Y-140734819D01*
X58896190Y-139687200D02*
X58658095Y-140401485D01*
X58658095Y-140401485D02*
X59277142Y-140401485D01*
X64845819Y-87455333D02*
X65560104Y-87455333D01*
X65560104Y-87455333D02*
X65702961Y-87502952D01*
X65702961Y-87502952D02*
X65798200Y-87598190D01*
X65798200Y-87598190D02*
X65845819Y-87741047D01*
X65845819Y-87741047D02*
X65845819Y-87836285D01*
X64845819Y-86502952D02*
X64845819Y-86979142D01*
X64845819Y-86979142D02*
X65322009Y-87026761D01*
X65322009Y-87026761D02*
X65274390Y-86979142D01*
X65274390Y-86979142D02*
X65226771Y-86883904D01*
X65226771Y-86883904D02*
X65226771Y-86645809D01*
X65226771Y-86645809D02*
X65274390Y-86550571D01*
X65274390Y-86550571D02*
X65322009Y-86502952D01*
X65322009Y-86502952D02*
X65417247Y-86455333D01*
X65417247Y-86455333D02*
X65655342Y-86455333D01*
X65655342Y-86455333D02*
X65750580Y-86502952D01*
X65750580Y-86502952D02*
X65798200Y-86550571D01*
X65798200Y-86550571D02*
X65845819Y-86645809D01*
X65845819Y-86645809D02*
X65845819Y-86883904D01*
X65845819Y-86883904D02*
X65798200Y-86979142D01*
X65798200Y-86979142D02*
X65750580Y-87026761D01*
X115301095Y-78922819D02*
X115301095Y-79732342D01*
X115301095Y-79732342D02*
X115348714Y-79827580D01*
X115348714Y-79827580D02*
X115396333Y-79875200D01*
X115396333Y-79875200D02*
X115491571Y-79922819D01*
X115491571Y-79922819D02*
X115682047Y-79922819D01*
X115682047Y-79922819D02*
X115777285Y-79875200D01*
X115777285Y-79875200D02*
X115824904Y-79827580D01*
X115824904Y-79827580D02*
X115872523Y-79732342D01*
X115872523Y-79732342D02*
X115872523Y-78922819D01*
X116777285Y-79256152D02*
X116777285Y-79922819D01*
X116539190Y-78875200D02*
X116301095Y-79589485D01*
X116301095Y-79589485D02*
X116920142Y-79589485D01*
X78323295Y-96311619D02*
X78894723Y-96311619D01*
X78894723Y-96311619D02*
X79009009Y-96349714D01*
X79009009Y-96349714D02*
X79085200Y-96425905D01*
X79085200Y-96425905D02*
X79123295Y-96540190D01*
X79123295Y-96540190D02*
X79123295Y-96616381D01*
X79123295Y-95511619D02*
X79123295Y-95968762D01*
X79123295Y-95740190D02*
X78323295Y-95740190D01*
X78323295Y-95740190D02*
X78437580Y-95816381D01*
X78437580Y-95816381D02*
X78513771Y-95892571D01*
X78513771Y-95892571D02*
X78551866Y-95968762D01*
X78323295Y-95016380D02*
X78323295Y-94940190D01*
X78323295Y-94940190D02*
X78361390Y-94863999D01*
X78361390Y-94863999D02*
X78399485Y-94825904D01*
X78399485Y-94825904D02*
X78475676Y-94787809D01*
X78475676Y-94787809D02*
X78628057Y-94749714D01*
X78628057Y-94749714D02*
X78818533Y-94749714D01*
X78818533Y-94749714D02*
X78970914Y-94787809D01*
X78970914Y-94787809D02*
X79047104Y-94825904D01*
X79047104Y-94825904D02*
X79085200Y-94863999D01*
X79085200Y-94863999D02*
X79123295Y-94940190D01*
X79123295Y-94940190D02*
X79123295Y-95016380D01*
X79123295Y-95016380D02*
X79085200Y-95092571D01*
X79085200Y-95092571D02*
X79047104Y-95130666D01*
X79047104Y-95130666D02*
X78970914Y-95168761D01*
X78970914Y-95168761D02*
X78818533Y-95206857D01*
X78818533Y-95206857D02*
X78628057Y-95206857D01*
X78628057Y-95206857D02*
X78475676Y-95168761D01*
X78475676Y-95168761D02*
X78399485Y-95130666D01*
X78399485Y-95130666D02*
X78361390Y-95092571D01*
X78361390Y-95092571D02*
X78323295Y-95016380D01*
X82207580Y-137580666D02*
X82255200Y-137628285D01*
X82255200Y-137628285D02*
X82302819Y-137771142D01*
X82302819Y-137771142D02*
X82302819Y-137866380D01*
X82302819Y-137866380D02*
X82255200Y-138009237D01*
X82255200Y-138009237D02*
X82159961Y-138104475D01*
X82159961Y-138104475D02*
X82064723Y-138152094D01*
X82064723Y-138152094D02*
X81874247Y-138199713D01*
X81874247Y-138199713D02*
X81731390Y-138199713D01*
X81731390Y-138199713D02*
X81540914Y-138152094D01*
X81540914Y-138152094D02*
X81445676Y-138104475D01*
X81445676Y-138104475D02*
X81350438Y-138009237D01*
X81350438Y-138009237D02*
X81302819Y-137866380D01*
X81302819Y-137866380D02*
X81302819Y-137771142D01*
X81302819Y-137771142D02*
X81350438Y-137628285D01*
X81350438Y-137628285D02*
X81398057Y-137580666D01*
X81636152Y-136723523D02*
X82302819Y-136723523D01*
X81255200Y-136961618D02*
X81969485Y-137199713D01*
X81969485Y-137199713D02*
X81969485Y-136580666D01*
X113911142Y-127116819D02*
X113577809Y-126640628D01*
X113339714Y-127116819D02*
X113339714Y-126116819D01*
X113339714Y-126116819D02*
X113720666Y-126116819D01*
X113720666Y-126116819D02*
X113815904Y-126164438D01*
X113815904Y-126164438D02*
X113863523Y-126212057D01*
X113863523Y-126212057D02*
X113911142Y-126307295D01*
X113911142Y-126307295D02*
X113911142Y-126450152D01*
X113911142Y-126450152D02*
X113863523Y-126545390D01*
X113863523Y-126545390D02*
X113815904Y-126593009D01*
X113815904Y-126593009D02*
X113720666Y-126640628D01*
X113720666Y-126640628D02*
X113339714Y-126640628D01*
X114863523Y-127116819D02*
X114292095Y-127116819D01*
X114577809Y-127116819D02*
X114577809Y-126116819D01*
X114577809Y-126116819D02*
X114482571Y-126259676D01*
X114482571Y-126259676D02*
X114387333Y-126354914D01*
X114387333Y-126354914D02*
X114292095Y-126402533D01*
X115482571Y-126116819D02*
X115577809Y-126116819D01*
X115577809Y-126116819D02*
X115673047Y-126164438D01*
X115673047Y-126164438D02*
X115720666Y-126212057D01*
X115720666Y-126212057D02*
X115768285Y-126307295D01*
X115768285Y-126307295D02*
X115815904Y-126497771D01*
X115815904Y-126497771D02*
X115815904Y-126735866D01*
X115815904Y-126735866D02*
X115768285Y-126926342D01*
X115768285Y-126926342D02*
X115720666Y-127021580D01*
X115720666Y-127021580D02*
X115673047Y-127069200D01*
X115673047Y-127069200D02*
X115577809Y-127116819D01*
X115577809Y-127116819D02*
X115482571Y-127116819D01*
X115482571Y-127116819D02*
X115387333Y-127069200D01*
X115387333Y-127069200D02*
X115339714Y-127021580D01*
X115339714Y-127021580D02*
X115292095Y-126926342D01*
X115292095Y-126926342D02*
X115244476Y-126735866D01*
X115244476Y-126735866D02*
X115244476Y-126497771D01*
X115244476Y-126497771D02*
X115292095Y-126307295D01*
X115292095Y-126307295D02*
X115339714Y-126212057D01*
X115339714Y-126212057D02*
X115387333Y-126164438D01*
X115387333Y-126164438D02*
X115482571Y-126116819D01*
X123531333Y-73352819D02*
X123198000Y-72876628D01*
X122959905Y-73352819D02*
X122959905Y-72352819D01*
X122959905Y-72352819D02*
X123340857Y-72352819D01*
X123340857Y-72352819D02*
X123436095Y-72400438D01*
X123436095Y-72400438D02*
X123483714Y-72448057D01*
X123483714Y-72448057D02*
X123531333Y-72543295D01*
X123531333Y-72543295D02*
X123531333Y-72686152D01*
X123531333Y-72686152D02*
X123483714Y-72781390D01*
X123483714Y-72781390D02*
X123436095Y-72829009D01*
X123436095Y-72829009D02*
X123340857Y-72876628D01*
X123340857Y-72876628D02*
X122959905Y-72876628D01*
X124483714Y-73352819D02*
X123912286Y-73352819D01*
X124198000Y-73352819D02*
X124198000Y-72352819D01*
X124198000Y-72352819D02*
X124102762Y-72495676D01*
X124102762Y-72495676D02*
X124007524Y-72590914D01*
X124007524Y-72590914D02*
X123912286Y-72638533D01*
X114387333Y-96466819D02*
X114054000Y-95990628D01*
X113815905Y-96466819D02*
X113815905Y-95466819D01*
X113815905Y-95466819D02*
X114196857Y-95466819D01*
X114196857Y-95466819D02*
X114292095Y-95514438D01*
X114292095Y-95514438D02*
X114339714Y-95562057D01*
X114339714Y-95562057D02*
X114387333Y-95657295D01*
X114387333Y-95657295D02*
X114387333Y-95800152D01*
X114387333Y-95800152D02*
X114339714Y-95895390D01*
X114339714Y-95895390D02*
X114292095Y-95943009D01*
X114292095Y-95943009D02*
X114196857Y-95990628D01*
X114196857Y-95990628D02*
X113815905Y-95990628D01*
X114720667Y-95466819D02*
X115387333Y-95466819D01*
X115387333Y-95466819D02*
X114958762Y-96466819D01*
X89393095Y-88320819D02*
X89393095Y-89130342D01*
X89393095Y-89130342D02*
X89440714Y-89225580D01*
X89440714Y-89225580D02*
X89488333Y-89273200D01*
X89488333Y-89273200D02*
X89583571Y-89320819D01*
X89583571Y-89320819D02*
X89774047Y-89320819D01*
X89774047Y-89320819D02*
X89869285Y-89273200D01*
X89869285Y-89273200D02*
X89916904Y-89225580D01*
X89916904Y-89225580D02*
X89964523Y-89130342D01*
X89964523Y-89130342D02*
X89964523Y-88320819D01*
X90345476Y-88320819D02*
X90964523Y-88320819D01*
X90964523Y-88320819D02*
X90631190Y-88701771D01*
X90631190Y-88701771D02*
X90774047Y-88701771D01*
X90774047Y-88701771D02*
X90869285Y-88749390D01*
X90869285Y-88749390D02*
X90916904Y-88797009D01*
X90916904Y-88797009D02*
X90964523Y-88892247D01*
X90964523Y-88892247D02*
X90964523Y-89130342D01*
X90964523Y-89130342D02*
X90916904Y-89225580D01*
X90916904Y-89225580D02*
X90869285Y-89273200D01*
X90869285Y-89273200D02*
X90774047Y-89320819D01*
X90774047Y-89320819D02*
X90488333Y-89320819D01*
X90488333Y-89320819D02*
X90393095Y-89273200D01*
X90393095Y-89273200D02*
X90345476Y-89225580D01*
X123531333Y-67913819D02*
X123198000Y-67437628D01*
X122959905Y-67913819D02*
X122959905Y-66913819D01*
X122959905Y-66913819D02*
X123340857Y-66913819D01*
X123340857Y-66913819D02*
X123436095Y-66961438D01*
X123436095Y-66961438D02*
X123483714Y-67009057D01*
X123483714Y-67009057D02*
X123531333Y-67104295D01*
X123531333Y-67104295D02*
X123531333Y-67247152D01*
X123531333Y-67247152D02*
X123483714Y-67342390D01*
X123483714Y-67342390D02*
X123436095Y-67390009D01*
X123436095Y-67390009D02*
X123340857Y-67437628D01*
X123340857Y-67437628D02*
X122959905Y-67437628D01*
X124388476Y-67247152D02*
X124388476Y-67913819D01*
X124150381Y-66866200D02*
X123912286Y-67580485D01*
X123912286Y-67580485D02*
X124531333Y-67580485D01*
X82891333Y-142139580D02*
X82843714Y-142187200D01*
X82843714Y-142187200D02*
X82700857Y-142234819D01*
X82700857Y-142234819D02*
X82605619Y-142234819D01*
X82605619Y-142234819D02*
X82462762Y-142187200D01*
X82462762Y-142187200D02*
X82367524Y-142091961D01*
X82367524Y-142091961D02*
X82319905Y-141996723D01*
X82319905Y-141996723D02*
X82272286Y-141806247D01*
X82272286Y-141806247D02*
X82272286Y-141663390D01*
X82272286Y-141663390D02*
X82319905Y-141472914D01*
X82319905Y-141472914D02*
X82367524Y-141377676D01*
X82367524Y-141377676D02*
X82462762Y-141282438D01*
X82462762Y-141282438D02*
X82605619Y-141234819D01*
X82605619Y-141234819D02*
X82700857Y-141234819D01*
X82700857Y-141234819D02*
X82843714Y-141282438D01*
X82843714Y-141282438D02*
X82891333Y-141330057D01*
X83796095Y-141234819D02*
X83319905Y-141234819D01*
X83319905Y-141234819D02*
X83272286Y-141711009D01*
X83272286Y-141711009D02*
X83319905Y-141663390D01*
X83319905Y-141663390D02*
X83415143Y-141615771D01*
X83415143Y-141615771D02*
X83653238Y-141615771D01*
X83653238Y-141615771D02*
X83748476Y-141663390D01*
X83748476Y-141663390D02*
X83796095Y-141711009D01*
X83796095Y-141711009D02*
X83843714Y-141806247D01*
X83843714Y-141806247D02*
X83843714Y-142044342D01*
X83843714Y-142044342D02*
X83796095Y-142139580D01*
X83796095Y-142139580D02*
X83748476Y-142187200D01*
X83748476Y-142187200D02*
X83653238Y-142234819D01*
X83653238Y-142234819D02*
X83415143Y-142234819D01*
X83415143Y-142234819D02*
X83319905Y-142187200D01*
X83319905Y-142187200D02*
X83272286Y-142139580D01*
X114387333Y-111960819D02*
X114054000Y-111484628D01*
X113815905Y-111960819D02*
X113815905Y-110960819D01*
X113815905Y-110960819D02*
X114196857Y-110960819D01*
X114196857Y-110960819D02*
X114292095Y-111008438D01*
X114292095Y-111008438D02*
X114339714Y-111056057D01*
X114339714Y-111056057D02*
X114387333Y-111151295D01*
X114387333Y-111151295D02*
X114387333Y-111294152D01*
X114387333Y-111294152D02*
X114339714Y-111389390D01*
X114339714Y-111389390D02*
X114292095Y-111437009D01*
X114292095Y-111437009D02*
X114196857Y-111484628D01*
X114196857Y-111484628D02*
X113815905Y-111484628D01*
X114958762Y-111389390D02*
X114863524Y-111341771D01*
X114863524Y-111341771D02*
X114815905Y-111294152D01*
X114815905Y-111294152D02*
X114768286Y-111198914D01*
X114768286Y-111198914D02*
X114768286Y-111151295D01*
X114768286Y-111151295D02*
X114815905Y-111056057D01*
X114815905Y-111056057D02*
X114863524Y-111008438D01*
X114863524Y-111008438D02*
X114958762Y-110960819D01*
X114958762Y-110960819D02*
X115149238Y-110960819D01*
X115149238Y-110960819D02*
X115244476Y-111008438D01*
X115244476Y-111008438D02*
X115292095Y-111056057D01*
X115292095Y-111056057D02*
X115339714Y-111151295D01*
X115339714Y-111151295D02*
X115339714Y-111198914D01*
X115339714Y-111198914D02*
X115292095Y-111294152D01*
X115292095Y-111294152D02*
X115244476Y-111341771D01*
X115244476Y-111341771D02*
X115149238Y-111389390D01*
X115149238Y-111389390D02*
X114958762Y-111389390D01*
X114958762Y-111389390D02*
X114863524Y-111437009D01*
X114863524Y-111437009D02*
X114815905Y-111484628D01*
X114815905Y-111484628D02*
X114768286Y-111579866D01*
X114768286Y-111579866D02*
X114768286Y-111770342D01*
X114768286Y-111770342D02*
X114815905Y-111865580D01*
X114815905Y-111865580D02*
X114863524Y-111913200D01*
X114863524Y-111913200D02*
X114958762Y-111960819D01*
X114958762Y-111960819D02*
X115149238Y-111960819D01*
X115149238Y-111960819D02*
X115244476Y-111913200D01*
X115244476Y-111913200D02*
X115292095Y-111865580D01*
X115292095Y-111865580D02*
X115339714Y-111770342D01*
X115339714Y-111770342D02*
X115339714Y-111579866D01*
X115339714Y-111579866D02*
X115292095Y-111484628D01*
X115292095Y-111484628D02*
X115244476Y-111437009D01*
X115244476Y-111437009D02*
X115149238Y-111389390D01*
X57658095Y-67074819D02*
X57658095Y-66074819D01*
X57658095Y-66551009D02*
X58229523Y-66551009D01*
X58229523Y-67074819D02*
X58229523Y-66074819D01*
X58610476Y-66074819D02*
X59229523Y-66074819D01*
X59229523Y-66074819D02*
X58896190Y-66455771D01*
X58896190Y-66455771D02*
X59039047Y-66455771D01*
X59039047Y-66455771D02*
X59134285Y-66503390D01*
X59134285Y-66503390D02*
X59181904Y-66551009D01*
X59181904Y-66551009D02*
X59229523Y-66646247D01*
X59229523Y-66646247D02*
X59229523Y-66884342D01*
X59229523Y-66884342D02*
X59181904Y-66979580D01*
X59181904Y-66979580D02*
X59134285Y-67027200D01*
X59134285Y-67027200D02*
X59039047Y-67074819D01*
X59039047Y-67074819D02*
X58753333Y-67074819D01*
X58753333Y-67074819D02*
X58658095Y-67027200D01*
X58658095Y-67027200D02*
X58610476Y-66979580D01*
X161555819Y-128349333D02*
X162270104Y-128349333D01*
X162270104Y-128349333D02*
X162412961Y-128396952D01*
X162412961Y-128396952D02*
X162508200Y-128492190D01*
X162508200Y-128492190D02*
X162555819Y-128635047D01*
X162555819Y-128635047D02*
X162555819Y-128730285D01*
X162555819Y-127825523D02*
X162555819Y-127635047D01*
X162555819Y-127635047D02*
X162508200Y-127539809D01*
X162508200Y-127539809D02*
X162460580Y-127492190D01*
X162460580Y-127492190D02*
X162317723Y-127396952D01*
X162317723Y-127396952D02*
X162127247Y-127349333D01*
X162127247Y-127349333D02*
X161746295Y-127349333D01*
X161746295Y-127349333D02*
X161651057Y-127396952D01*
X161651057Y-127396952D02*
X161603438Y-127444571D01*
X161603438Y-127444571D02*
X161555819Y-127539809D01*
X161555819Y-127539809D02*
X161555819Y-127730285D01*
X161555819Y-127730285D02*
X161603438Y-127825523D01*
X161603438Y-127825523D02*
X161651057Y-127873142D01*
X161651057Y-127873142D02*
X161746295Y-127920761D01*
X161746295Y-127920761D02*
X161984390Y-127920761D01*
X161984390Y-127920761D02*
X162079628Y-127873142D01*
X162079628Y-127873142D02*
X162127247Y-127825523D01*
X162127247Y-127825523D02*
X162174866Y-127730285D01*
X162174866Y-127730285D02*
X162174866Y-127539809D01*
X162174866Y-127539809D02*
X162127247Y-127444571D01*
X162127247Y-127444571D02*
X162079628Y-127396952D01*
X162079628Y-127396952D02*
X161984390Y-127349333D01*
X64845819Y-129111333D02*
X65560104Y-129111333D01*
X65560104Y-129111333D02*
X65702961Y-129158952D01*
X65702961Y-129158952D02*
X65798200Y-129254190D01*
X65798200Y-129254190D02*
X65845819Y-129397047D01*
X65845819Y-129397047D02*
X65845819Y-129492285D01*
X64845819Y-128206571D02*
X64845819Y-128397047D01*
X64845819Y-128397047D02*
X64893438Y-128492285D01*
X64893438Y-128492285D02*
X64941057Y-128539904D01*
X64941057Y-128539904D02*
X65083914Y-128635142D01*
X65083914Y-128635142D02*
X65274390Y-128682761D01*
X65274390Y-128682761D02*
X65655342Y-128682761D01*
X65655342Y-128682761D02*
X65750580Y-128635142D01*
X65750580Y-128635142D02*
X65798200Y-128587523D01*
X65798200Y-128587523D02*
X65845819Y-128492285D01*
X65845819Y-128492285D02*
X65845819Y-128301809D01*
X65845819Y-128301809D02*
X65798200Y-128206571D01*
X65798200Y-128206571D02*
X65750580Y-128158952D01*
X65750580Y-128158952D02*
X65655342Y-128111333D01*
X65655342Y-128111333D02*
X65417247Y-128111333D01*
X65417247Y-128111333D02*
X65322009Y-128158952D01*
X65322009Y-128158952D02*
X65274390Y-128206571D01*
X65274390Y-128206571D02*
X65226771Y-128301809D01*
X65226771Y-128301809D02*
X65226771Y-128492285D01*
X65226771Y-128492285D02*
X65274390Y-128587523D01*
X65274390Y-128587523D02*
X65322009Y-128635142D01*
X65322009Y-128635142D02*
X65417247Y-128682761D01*
X72509142Y-128132819D02*
X72175809Y-127656628D01*
X71937714Y-128132819D02*
X71937714Y-127132819D01*
X71937714Y-127132819D02*
X72318666Y-127132819D01*
X72318666Y-127132819D02*
X72413904Y-127180438D01*
X72413904Y-127180438D02*
X72461523Y-127228057D01*
X72461523Y-127228057D02*
X72509142Y-127323295D01*
X72509142Y-127323295D02*
X72509142Y-127466152D01*
X72509142Y-127466152D02*
X72461523Y-127561390D01*
X72461523Y-127561390D02*
X72413904Y-127609009D01*
X72413904Y-127609009D02*
X72318666Y-127656628D01*
X72318666Y-127656628D02*
X71937714Y-127656628D01*
X73461523Y-128132819D02*
X72890095Y-128132819D01*
X73175809Y-128132819D02*
X73175809Y-127132819D01*
X73175809Y-127132819D02*
X73080571Y-127275676D01*
X73080571Y-127275676D02*
X72985333Y-127370914D01*
X72985333Y-127370914D02*
X72890095Y-127418533D01*
X74413904Y-128132819D02*
X73842476Y-128132819D01*
X74128190Y-128132819D02*
X74128190Y-127132819D01*
X74128190Y-127132819D02*
X74032952Y-127275676D01*
X74032952Y-127275676D02*
X73937714Y-127370914D01*
X73937714Y-127370914D02*
X73842476Y-127418533D01*
X73406666Y-78104819D02*
X73406666Y-78819104D01*
X73406666Y-78819104D02*
X73359047Y-78961961D01*
X73359047Y-78961961D02*
X73263809Y-79057200D01*
X73263809Y-79057200D02*
X73120952Y-79104819D01*
X73120952Y-79104819D02*
X73025714Y-79104819D01*
X74311428Y-78438152D02*
X74311428Y-79104819D01*
X74073333Y-78057200D02*
X73835238Y-78771485D01*
X73835238Y-78771485D02*
X74454285Y-78771485D01*
X156980095Y-82546819D02*
X157551523Y-82546819D01*
X157265809Y-83546819D02*
X157265809Y-82546819D01*
X157884857Y-83546819D02*
X157884857Y-82546819D01*
X157884857Y-82546819D02*
X158265809Y-82546819D01*
X158265809Y-82546819D02*
X158361047Y-82594438D01*
X158361047Y-82594438D02*
X158408666Y-82642057D01*
X158408666Y-82642057D02*
X158456285Y-82737295D01*
X158456285Y-82737295D02*
X158456285Y-82880152D01*
X158456285Y-82880152D02*
X158408666Y-82975390D01*
X158408666Y-82975390D02*
X158361047Y-83023009D01*
X158361047Y-83023009D02*
X158265809Y-83070628D01*
X158265809Y-83070628D02*
X157884857Y-83070628D01*
X159408666Y-83546819D02*
X158837238Y-83546819D01*
X159122952Y-83546819D02*
X159122952Y-82546819D01*
X159122952Y-82546819D02*
X159027714Y-82689676D01*
X159027714Y-82689676D02*
X158932476Y-82784914D01*
X158932476Y-82784914D02*
X158837238Y-82832533D01*
X70866095Y-148504819D02*
X70866095Y-149314342D01*
X70866095Y-149314342D02*
X70913714Y-149409580D01*
X70913714Y-149409580D02*
X70961333Y-149457200D01*
X70961333Y-149457200D02*
X71056571Y-149504819D01*
X71056571Y-149504819D02*
X71247047Y-149504819D01*
X71247047Y-149504819D02*
X71342285Y-149457200D01*
X71342285Y-149457200D02*
X71389904Y-149409580D01*
X71389904Y-149409580D02*
X71437523Y-149314342D01*
X71437523Y-149314342D02*
X71437523Y-148504819D01*
X71866095Y-148600057D02*
X71913714Y-148552438D01*
X71913714Y-148552438D02*
X72008952Y-148504819D01*
X72008952Y-148504819D02*
X72247047Y-148504819D01*
X72247047Y-148504819D02*
X72342285Y-148552438D01*
X72342285Y-148552438D02*
X72389904Y-148600057D01*
X72389904Y-148600057D02*
X72437523Y-148695295D01*
X72437523Y-148695295D02*
X72437523Y-148790533D01*
X72437523Y-148790533D02*
X72389904Y-148933390D01*
X72389904Y-148933390D02*
X71818476Y-149504819D01*
X71818476Y-149504819D02*
X72437523Y-149504819D01*
X71501333Y-135487580D02*
X71453714Y-135535200D01*
X71453714Y-135535200D02*
X71310857Y-135582819D01*
X71310857Y-135582819D02*
X71215619Y-135582819D01*
X71215619Y-135582819D02*
X71072762Y-135535200D01*
X71072762Y-135535200D02*
X70977524Y-135439961D01*
X70977524Y-135439961D02*
X70929905Y-135344723D01*
X70929905Y-135344723D02*
X70882286Y-135154247D01*
X70882286Y-135154247D02*
X70882286Y-135011390D01*
X70882286Y-135011390D02*
X70929905Y-134820914D01*
X70929905Y-134820914D02*
X70977524Y-134725676D01*
X70977524Y-134725676D02*
X71072762Y-134630438D01*
X71072762Y-134630438D02*
X71215619Y-134582819D01*
X71215619Y-134582819D02*
X71310857Y-134582819D01*
X71310857Y-134582819D02*
X71453714Y-134630438D01*
X71453714Y-134630438D02*
X71501333Y-134678057D01*
X72358476Y-134582819D02*
X72168000Y-134582819D01*
X72168000Y-134582819D02*
X72072762Y-134630438D01*
X72072762Y-134630438D02*
X72025143Y-134678057D01*
X72025143Y-134678057D02*
X71929905Y-134820914D01*
X71929905Y-134820914D02*
X71882286Y-135011390D01*
X71882286Y-135011390D02*
X71882286Y-135392342D01*
X71882286Y-135392342D02*
X71929905Y-135487580D01*
X71929905Y-135487580D02*
X71977524Y-135535200D01*
X71977524Y-135535200D02*
X72072762Y-135582819D01*
X72072762Y-135582819D02*
X72263238Y-135582819D01*
X72263238Y-135582819D02*
X72358476Y-135535200D01*
X72358476Y-135535200D02*
X72406095Y-135487580D01*
X72406095Y-135487580D02*
X72453714Y-135392342D01*
X72453714Y-135392342D02*
X72453714Y-135154247D01*
X72453714Y-135154247D02*
X72406095Y-135059009D01*
X72406095Y-135059009D02*
X72358476Y-135011390D01*
X72358476Y-135011390D02*
X72263238Y-134963771D01*
X72263238Y-134963771D02*
X72072762Y-134963771D01*
X72072762Y-134963771D02*
X71977524Y-135011390D01*
X71977524Y-135011390D02*
X71929905Y-135059009D01*
X71929905Y-135059009D02*
X71882286Y-135154247D01*
X108799333Y-68018819D02*
X108466000Y-67542628D01*
X108227905Y-68018819D02*
X108227905Y-67018819D01*
X108227905Y-67018819D02*
X108608857Y-67018819D01*
X108608857Y-67018819D02*
X108704095Y-67066438D01*
X108704095Y-67066438D02*
X108751714Y-67114057D01*
X108751714Y-67114057D02*
X108799333Y-67209295D01*
X108799333Y-67209295D02*
X108799333Y-67352152D01*
X108799333Y-67352152D02*
X108751714Y-67447390D01*
X108751714Y-67447390D02*
X108704095Y-67495009D01*
X108704095Y-67495009D02*
X108608857Y-67542628D01*
X108608857Y-67542628D02*
X108227905Y-67542628D01*
X109132667Y-67018819D02*
X109751714Y-67018819D01*
X109751714Y-67018819D02*
X109418381Y-67399771D01*
X109418381Y-67399771D02*
X109561238Y-67399771D01*
X109561238Y-67399771D02*
X109656476Y-67447390D01*
X109656476Y-67447390D02*
X109704095Y-67495009D01*
X109704095Y-67495009D02*
X109751714Y-67590247D01*
X109751714Y-67590247D02*
X109751714Y-67828342D01*
X109751714Y-67828342D02*
X109704095Y-67923580D01*
X109704095Y-67923580D02*
X109656476Y-67971200D01*
X109656476Y-67971200D02*
X109561238Y-68018819D01*
X109561238Y-68018819D02*
X109275524Y-68018819D01*
X109275524Y-68018819D02*
X109180286Y-67971200D01*
X109180286Y-67971200D02*
X109132667Y-67923580D01*
X114387333Y-104256819D02*
X114054000Y-103780628D01*
X113815905Y-104256819D02*
X113815905Y-103256819D01*
X113815905Y-103256819D02*
X114196857Y-103256819D01*
X114196857Y-103256819D02*
X114292095Y-103304438D01*
X114292095Y-103304438D02*
X114339714Y-103352057D01*
X114339714Y-103352057D02*
X114387333Y-103447295D01*
X114387333Y-103447295D02*
X114387333Y-103590152D01*
X114387333Y-103590152D02*
X114339714Y-103685390D01*
X114339714Y-103685390D02*
X114292095Y-103733009D01*
X114292095Y-103733009D02*
X114196857Y-103780628D01*
X114196857Y-103780628D02*
X113815905Y-103780628D01*
X115244476Y-103256819D02*
X115054000Y-103256819D01*
X115054000Y-103256819D02*
X114958762Y-103304438D01*
X114958762Y-103304438D02*
X114911143Y-103352057D01*
X114911143Y-103352057D02*
X114815905Y-103494914D01*
X114815905Y-103494914D02*
X114768286Y-103685390D01*
X114768286Y-103685390D02*
X114768286Y-104066342D01*
X114768286Y-104066342D02*
X114815905Y-104161580D01*
X114815905Y-104161580D02*
X114863524Y-104209200D01*
X114863524Y-104209200D02*
X114958762Y-104256819D01*
X114958762Y-104256819D02*
X115149238Y-104256819D01*
X115149238Y-104256819D02*
X115244476Y-104209200D01*
X115244476Y-104209200D02*
X115292095Y-104161580D01*
X115292095Y-104161580D02*
X115339714Y-104066342D01*
X115339714Y-104066342D02*
X115339714Y-103828247D01*
X115339714Y-103828247D02*
X115292095Y-103733009D01*
X115292095Y-103733009D02*
X115244476Y-103685390D01*
X115244476Y-103685390D02*
X115149238Y-103637771D01*
X115149238Y-103637771D02*
X114958762Y-103637771D01*
X114958762Y-103637771D02*
X114863524Y-103685390D01*
X114863524Y-103685390D02*
X114815905Y-103733009D01*
X114815905Y-103733009D02*
X114768286Y-103828247D01*
D13*
%TO.C,C7*%
X151420000Y-90430000D02*
X151420000Y-93170000D01*
X144180000Y-93170000D02*
X151420000Y-93170000D01*
X144180000Y-90430000D02*
X151420000Y-90430000D01*
X144180000Y-90430000D02*
X144180000Y-93170000D01*
%TO.C,J3*%
X83800000Y-77651000D02*
X83800000Y-67730000D01*
X85085000Y-73459000D02*
X85132000Y-73413000D01*
X85290000Y-73665000D02*
X85325000Y-73629000D01*
X87394000Y-71151000D02*
X87429000Y-71116000D01*
X87587000Y-71367000D02*
X87634000Y-71321000D01*
X90085000Y-73459000D02*
X90132000Y-73413000D01*
X90290000Y-73665000D02*
X90325000Y-73629000D01*
X92394000Y-71151000D02*
X92429000Y-71116000D01*
X92587000Y-71367000D02*
X92634000Y-71321000D01*
X98920000Y-67730000D02*
X83800000Y-67730000D01*
X98920000Y-68290000D02*
X83800000Y-68290000D01*
X98920000Y-69790000D02*
X83800000Y-69790000D01*
X98920000Y-74691000D02*
X83800000Y-74691000D01*
X98920000Y-77651000D02*
X83800000Y-77651000D01*
X98920000Y-77651000D02*
X98920000Y-67730000D01*
X99160000Y-67490000D02*
X98660000Y-67490000D01*
X99160000Y-68230000D02*
X99160000Y-67490000D01*
X94824573Y-73073042D02*
G75*
G02*
X94825000Y-71706000I1535427J683042D01*
G01*
X95676682Y-70855244D02*
G75*
G02*
X96360000Y-70710000I683318J-1534756D01*
G01*
X96331195Y-70709747D02*
G75*
G02*
X97044000Y-70855000I28806J-1680254D01*
G01*
X97043042Y-73925427D02*
G75*
G02*
X95676000Y-73925000I-683041J1535420D01*
G01*
X97895427Y-71706958D02*
G75*
G02*
X97895000Y-73074000I-1535420J-683041D01*
G01*
X88040000Y-72390000D02*
G75*
G02*
X84680000Y-72390000I-1680000J0D01*
G01*
X84680000Y-72390000D02*
G75*
G02*
X88040000Y-72390000I1680000J0D01*
G01*
X93040000Y-72390000D02*
G75*
G02*
X89680000Y-72390000I-1680000J0D01*
G01*
X89680000Y-72390000D02*
G75*
G02*
X93040000Y-72390000I1680000J0D01*
G01*
%TO.C,J1*%
X95792000Y-147721000D02*
X95792000Y-148461000D01*
X95792000Y-148461000D02*
X96292000Y-148461000D01*
X96032000Y-138300000D02*
X96032000Y-148221000D01*
X96032000Y-138300000D02*
X106152000Y-138300000D01*
X96032000Y-141260000D02*
X106152000Y-141260000D01*
X96032000Y-146161000D02*
X106152000Y-146161000D01*
X96032000Y-147661000D02*
X106152000Y-147661000D01*
X96032000Y-148221000D02*
X106152000Y-148221000D01*
X102365000Y-144584000D02*
X102318000Y-144630000D01*
X102558000Y-144800000D02*
X102523000Y-144835000D01*
X104662000Y-142286000D02*
X104627000Y-142322000D01*
X104867000Y-142492000D02*
X104820000Y-142538000D01*
X106152000Y-138300000D02*
X106152000Y-148221000D01*
X97056573Y-144244042D02*
G75*
G02*
X97057000Y-142877000I1535420J683041D01*
G01*
X97908958Y-142025573D02*
G75*
G02*
X99276000Y-142026000I683041J-1535420D01*
G01*
X98620805Y-145241253D02*
G75*
G02*
X97908000Y-145096000I-28806J1680254D01*
G01*
X99275318Y-145095756D02*
G75*
G02*
X98592000Y-145241000I-683318J1534756D01*
G01*
X100127427Y-142877958D02*
G75*
G02*
X100127000Y-144245000I-1535427J-683042D01*
G01*
X105272000Y-143561000D02*
G75*
G02*
X101912000Y-143561000I-1680000J0D01*
G01*
X101912000Y-143561000D02*
G75*
G02*
X105272000Y-143561000I1680000J0D01*
G01*
%TO.C,C3*%
X137388775Y-74369000D02*
X137388775Y-73869000D01*
X137638775Y-74119000D02*
X137138775Y-74119000D01*
X132438003Y-71584000D02*
G75*
G02*
X137229997Y-71584000I2395997J-1060001D01*
G01*
X137229997Y-73704000D02*
G75*
G02*
X132438003Y-73704000I-2395997J1060001D01*
G01*
%TO.C,R9*%
X110514000Y-121412000D02*
X111284000Y-121412000D01*
X111284000Y-120042000D02*
X111284000Y-122782000D01*
X111284000Y-122782000D02*
X117824000Y-122782000D01*
X117824000Y-120042000D02*
X111284000Y-120042000D01*
X117824000Y-122782000D02*
X117824000Y-120042000D01*
X118594000Y-121412000D02*
X117824000Y-121412000D01*
%TO.C,C1*%
X137388775Y-93419000D02*
X137388775Y-92919000D01*
X137638775Y-93169000D02*
X137138775Y-93169000D01*
X132438003Y-90634000D02*
G75*
G02*
X137229997Y-90634000I2395997J-1060001D01*
G01*
X137229997Y-92754000D02*
G75*
G02*
X132438003Y-92754000I-2395997J1060001D01*
G01*
%TO.C,R2*%
X104926000Y-75184000D02*
X105696000Y-75184000D01*
X105696000Y-73814000D02*
X105696000Y-76554000D01*
X105696000Y-76554000D02*
X112236000Y-76554000D01*
X112236000Y-73814000D02*
X105696000Y-73814000D01*
X112236000Y-76554000D02*
X112236000Y-73814000D01*
X113006000Y-75184000D02*
X112236000Y-75184000D01*
%TO.C,J8*%
X130501000Y-98746000D02*
X130501000Y-101406000D01*
X158501000Y-98746000D02*
X130501000Y-98746000D01*
X158501000Y-98746000D02*
X158501000Y-101406000D01*
X158501000Y-101406000D02*
X130501000Y-101406000D01*
X159771000Y-98746000D02*
X161101000Y-98746000D01*
X161101000Y-98746000D02*
X161101000Y-100076000D01*
%TO.C,J7*%
X54231000Y-102650000D02*
X54231000Y-103150000D01*
X54471000Y-102890000D02*
X54471000Y-113010000D01*
X54971000Y-102650000D02*
X54231000Y-102650000D01*
X55031000Y-102890000D02*
X55031000Y-113010000D01*
X56531000Y-102890000D02*
X56531000Y-113010000D01*
X57892000Y-109416000D02*
X57857000Y-109381000D01*
X58108000Y-109223000D02*
X58062000Y-109176000D01*
X60200000Y-111725000D02*
X60154000Y-111678000D01*
X60406000Y-111520000D02*
X60370000Y-111485000D01*
X61432000Y-102890000D02*
X61432000Y-113010000D01*
X64392000Y-102890000D02*
X54471000Y-102890000D01*
X64392000Y-102890000D02*
X64392000Y-113010000D01*
X64392000Y-113010000D02*
X54471000Y-113010000D01*
X57450747Y-105478805D02*
G75*
G02*
X57596000Y-104766000I1680254J28806D01*
G01*
X57596244Y-106133318D02*
G75*
G02*
X57451000Y-105450000I1534756J683318D01*
G01*
X58447958Y-103914573D02*
G75*
G02*
X59815000Y-103915000I683041J-1535420D01*
G01*
X59814042Y-106985427D02*
G75*
G02*
X58447000Y-106985000I-683042J1535427D01*
G01*
X60666427Y-104766958D02*
G75*
G02*
X60666000Y-106134000I-1535420J-683041D01*
G01*
X60811000Y-110450000D02*
G75*
G02*
X57451000Y-110450000I-1680000J0D01*
G01*
X57451000Y-110450000D02*
G75*
G02*
X60811000Y-110450000I1680000J0D01*
G01*
%TO.C,J2*%
X140228000Y-78159000D02*
X140228000Y-68238000D01*
X141513000Y-73967000D02*
X141560000Y-73921000D01*
X141718000Y-74173000D02*
X141753000Y-74137000D01*
X143822000Y-71659000D02*
X143857000Y-71624000D01*
X144015000Y-71875000D02*
X144062000Y-71829000D01*
X150348000Y-68238000D02*
X140228000Y-68238000D01*
X150348000Y-68798000D02*
X140228000Y-68798000D01*
X150348000Y-70298000D02*
X140228000Y-70298000D01*
X150348000Y-75199000D02*
X140228000Y-75199000D01*
X150348000Y-78159000D02*
X140228000Y-78159000D01*
X150348000Y-78159000D02*
X150348000Y-68238000D01*
X150588000Y-67998000D02*
X150088000Y-67998000D01*
X150588000Y-68738000D02*
X150588000Y-67998000D01*
X146252573Y-73581042D02*
G75*
G02*
X146253000Y-72214000I1535427J683042D01*
G01*
X147104682Y-71363244D02*
G75*
G02*
X147788000Y-71218000I683318J-1534756D01*
G01*
X147759195Y-71217747D02*
G75*
G02*
X148472000Y-71363000I28806J-1680254D01*
G01*
X148471042Y-74433427D02*
G75*
G02*
X147104000Y-74433000I-683041J1535420D01*
G01*
X149323427Y-72214958D02*
G75*
G02*
X149323000Y-73582000I-1535420J-683041D01*
G01*
X144468000Y-72898000D02*
G75*
G02*
X141108000Y-72898000I-1680000J0D01*
G01*
X141108000Y-72898000D02*
G75*
G02*
X144468000Y-72898000I1680000J0D01*
G01*
%TO.C,C2*%
X137388775Y-83894000D02*
X137388775Y-83394000D01*
X137638775Y-83644000D02*
X137138775Y-83644000D01*
X132438003Y-81109000D02*
G75*
G02*
X137229997Y-81109000I2395997J-1060001D01*
G01*
X137229997Y-83229000D02*
G75*
G02*
X132438003Y-83229000I-2395997J1060001D01*
G01*
%TO.C,J5*%
X54231000Y-81822000D02*
X54231000Y-82322000D01*
X54471000Y-82062000D02*
X54471000Y-92182000D01*
X54971000Y-81822000D02*
X54231000Y-81822000D01*
X55031000Y-82062000D02*
X55031000Y-92182000D01*
X56531000Y-82062000D02*
X56531000Y-92182000D01*
X57892000Y-88588000D02*
X57857000Y-88553000D01*
X58108000Y-88395000D02*
X58062000Y-88348000D01*
X60200000Y-90897000D02*
X60154000Y-90850000D01*
X60406000Y-90692000D02*
X60370000Y-90657000D01*
X61432000Y-82062000D02*
X61432000Y-92182000D01*
X64392000Y-82062000D02*
X54471000Y-82062000D01*
X64392000Y-82062000D02*
X64392000Y-92182000D01*
X64392000Y-92182000D02*
X54471000Y-92182000D01*
X57450747Y-84650805D02*
G75*
G02*
X57596000Y-83938000I1680254J28806D01*
G01*
X57596244Y-85305318D02*
G75*
G02*
X57451000Y-84622000I1534756J683318D01*
G01*
X58447958Y-83086573D02*
G75*
G02*
X59815000Y-83087000I683041J-1535420D01*
G01*
X59814042Y-86157427D02*
G75*
G02*
X58447000Y-86157000I-683042J1535427D01*
G01*
X60666427Y-83938958D02*
G75*
G02*
X60666000Y-85306000I-1535420J-683041D01*
G01*
X60811000Y-89622000D02*
G75*
G02*
X57451000Y-89622000I-1680000J0D01*
G01*
X57451000Y-89622000D02*
G75*
G02*
X60811000Y-89622000I1680000J0D01*
G01*
%TO.C,U4*%
X113813000Y-80468000D02*
X113813000Y-90748000D01*
X113813000Y-90748000D02*
X118313000Y-90748000D01*
X115063000Y-80468000D02*
X113813000Y-80468000D01*
X118313000Y-80468000D02*
X117063000Y-80468000D01*
X118313000Y-90748000D02*
X118313000Y-80468000D01*
X117063000Y-80468000D02*
G75*
G02*
X115063000Y-80468000I-1000000J0D01*
G01*
D10*
%TO.C,J10*%
X71675000Y-99194000D02*
X71675000Y-114674000D01*
X71675000Y-114674000D02*
X80725000Y-114674000D01*
X80725000Y-99194000D02*
X71675000Y-99194000D01*
X80725000Y-101444000D02*
X80725000Y-99194000D01*
X80725000Y-106604000D02*
X80725000Y-102084000D01*
X80725000Y-111764000D02*
X80725000Y-107244000D01*
X80725000Y-112404000D02*
X80725000Y-114674000D01*
X80725000Y-101444000D02*
G75*
G02*
X80725000Y-102084000I-125001J-320000D01*
G01*
X80725000Y-106604000D02*
G75*
G02*
X80725000Y-107244000I-125001J-320000D01*
G01*
X80725000Y-111764000D02*
G75*
G02*
X80725000Y-112404000I-125001J-320000D01*
G01*
X74430000Y-103034000D02*
G75*
G02*
X74230000Y-103034000I-100000J0D01*
G01*
X74230000Y-103034000D02*
G75*
G02*
X74430000Y-103034000I100000J0D01*
G01*
D14*
X73025000Y-109184000D02*
X71775000Y-109184000D01*
X71775000Y-104684000D01*
X73025000Y-104684000D01*
X73025000Y-109184000D01*
G36*
X73025000Y-109184000D02*
G01*
X71775000Y-109184000D01*
X71775000Y-104684000D01*
X73025000Y-104684000D01*
X73025000Y-109184000D01*
G37*
D13*
%TO.C,C4*%
X83873000Y-139968775D02*
X84373000Y-139968775D01*
X84123000Y-140218775D02*
X84123000Y-139718775D01*
X84538000Y-139809997D02*
G75*
G02*
X84538000Y-135018003I1060001J2395997D01*
G01*
X86658000Y-135018003D02*
G75*
G02*
X86658000Y-139809997I-1060001J-2395997D01*
G01*
%TO.C,R10*%
X110514000Y-129032000D02*
X111284000Y-129032000D01*
X111284000Y-127662000D02*
X111284000Y-130402000D01*
X111284000Y-130402000D02*
X117824000Y-130402000D01*
X117824000Y-127662000D02*
X111284000Y-127662000D01*
X117824000Y-130402000D02*
X117824000Y-127662000D01*
X118594000Y-129032000D02*
X117824000Y-129032000D01*
%TO.C,R1*%
X119658000Y-75184000D02*
X120428000Y-75184000D01*
X120428000Y-73814000D02*
X120428000Y-76554000D01*
X120428000Y-76554000D02*
X126968000Y-76554000D01*
X126968000Y-73814000D02*
X120428000Y-73814000D01*
X126968000Y-76554000D02*
X126968000Y-73814000D01*
X127738000Y-75184000D02*
X126968000Y-75184000D01*
%TO.C,R7*%
X110514000Y-98552000D02*
X111284000Y-98552000D01*
X111284000Y-97182000D02*
X111284000Y-99922000D01*
X111284000Y-99922000D02*
X117824000Y-99922000D01*
X117824000Y-97182000D02*
X111284000Y-97182000D01*
X117824000Y-99922000D02*
X117824000Y-97182000D01*
X118594000Y-98552000D02*
X117824000Y-98552000D01*
%TO.C,U3*%
X87905000Y-89866000D02*
X87905000Y-125546000D01*
X87905000Y-125546000D02*
X92405000Y-125546000D01*
X89155000Y-89866000D02*
X87905000Y-89866000D01*
X92405000Y-89866000D02*
X91155000Y-89866000D01*
X92405000Y-125546000D02*
X92405000Y-89866000D01*
X91155000Y-89866000D02*
G75*
G02*
X89155000Y-89866000I-1000000J0D01*
G01*
%TO.C,R4*%
X119658000Y-69850000D02*
X120428000Y-69850000D01*
X120428000Y-68480000D02*
X120428000Y-71220000D01*
X120428000Y-71220000D02*
X126968000Y-71220000D01*
X126968000Y-68480000D02*
X120428000Y-68480000D01*
X126968000Y-71220000D02*
X126968000Y-68480000D01*
X127738000Y-69850000D02*
X126968000Y-69850000D01*
%TO.C,C5*%
X79438000Y-142910000D02*
X79438000Y-146650000D01*
X79438000Y-142910000D02*
X86678000Y-142910000D01*
X79438000Y-146650000D02*
X86678000Y-146650000D01*
X86678000Y-142910000D02*
X86678000Y-146650000D01*
%TO.C,R8*%
X110514000Y-113792000D02*
X111284000Y-113792000D01*
X111284000Y-112422000D02*
X111284000Y-115162000D01*
X111284000Y-115162000D02*
X117824000Y-115162000D01*
X117824000Y-112422000D02*
X111284000Y-112422000D01*
X117824000Y-115162000D02*
X117824000Y-112422000D01*
X118594000Y-113792000D02*
X117824000Y-113792000D01*
%TO.C,J9*%
X130501000Y-126686000D02*
X130501000Y-129346000D01*
X158501000Y-126686000D02*
X130501000Y-126686000D01*
X158501000Y-126686000D02*
X158501000Y-129346000D01*
X158501000Y-129346000D02*
X130501000Y-129346000D01*
X159771000Y-126686000D02*
X161101000Y-126686000D01*
X161101000Y-126686000D02*
X161101000Y-128016000D01*
%TO.C,J6*%
X54231000Y-123478000D02*
X54231000Y-123978000D01*
X54471000Y-123718000D02*
X54471000Y-133838000D01*
X54971000Y-123478000D02*
X54231000Y-123478000D01*
X55031000Y-123718000D02*
X55031000Y-133838000D01*
X56531000Y-123718000D02*
X56531000Y-133838000D01*
X57892000Y-130244000D02*
X57857000Y-130209000D01*
X58108000Y-130051000D02*
X58062000Y-130004000D01*
X60200000Y-132553000D02*
X60154000Y-132506000D01*
X60406000Y-132348000D02*
X60370000Y-132313000D01*
X61432000Y-123718000D02*
X61432000Y-133838000D01*
X64392000Y-123718000D02*
X54471000Y-123718000D01*
X64392000Y-123718000D02*
X64392000Y-133838000D01*
X64392000Y-133838000D02*
X54471000Y-133838000D01*
X57450747Y-126306805D02*
G75*
G02*
X57596000Y-125594000I1680254J28806D01*
G01*
X57596244Y-126961318D02*
G75*
G02*
X57451000Y-126278000I1534756J683318D01*
G01*
X58447958Y-124742573D02*
G75*
G02*
X59815000Y-124743000I683041J-1535420D01*
G01*
X59814042Y-127813427D02*
G75*
G02*
X58447000Y-127813000I-683042J1535427D01*
G01*
X60666427Y-125594958D02*
G75*
G02*
X60666000Y-126962000I-1535420J-683041D01*
G01*
X60811000Y-131278000D02*
G75*
G02*
X57451000Y-131278000I-1680000J0D01*
G01*
X57451000Y-131278000D02*
G75*
G02*
X60811000Y-131278000I1680000J0D01*
G01*
%TO.C,R11*%
X69112000Y-130048000D02*
X69882000Y-130048000D01*
X69882000Y-128678000D02*
X69882000Y-131418000D01*
X69882000Y-131418000D02*
X76422000Y-131418000D01*
X76422000Y-128678000D02*
X69882000Y-128678000D01*
X76422000Y-131418000D02*
X76422000Y-128678000D01*
X77192000Y-130048000D02*
X76422000Y-130048000D01*
%TO.C,J4*%
X66180000Y-77651000D02*
X66180000Y-67730000D01*
X67465000Y-73459000D02*
X67512000Y-73413000D01*
X67670000Y-73665000D02*
X67705000Y-73629000D01*
X69774000Y-71151000D02*
X69809000Y-71116000D01*
X69967000Y-71367000D02*
X70014000Y-71321000D01*
X72465000Y-73459000D02*
X72512000Y-73413000D01*
X72670000Y-73665000D02*
X72705000Y-73629000D01*
X74774000Y-71151000D02*
X74809000Y-71116000D01*
X74967000Y-71367000D02*
X75014000Y-71321000D01*
X81300000Y-67730000D02*
X66180000Y-67730000D01*
X81300000Y-68290000D02*
X66180000Y-68290000D01*
X81300000Y-69790000D02*
X66180000Y-69790000D01*
X81300000Y-74691000D02*
X66180000Y-74691000D01*
X81300000Y-77651000D02*
X66180000Y-77651000D01*
X81300000Y-77651000D02*
X81300000Y-67730000D01*
X81540000Y-67490000D02*
X81040000Y-67490000D01*
X81540000Y-68230000D02*
X81540000Y-67490000D01*
X77204573Y-73073042D02*
G75*
G02*
X77205000Y-71706000I1535427J683042D01*
G01*
X78056682Y-70855244D02*
G75*
G02*
X78740000Y-70710000I683318J-1534756D01*
G01*
X78711195Y-70709747D02*
G75*
G02*
X79424000Y-70855000I28806J-1680254D01*
G01*
X79423042Y-73925427D02*
G75*
G02*
X78056000Y-73925000I-683041J1535420D01*
G01*
X80275427Y-71706958D02*
G75*
G02*
X80275000Y-73074000I-1535420J-683041D01*
G01*
X70420000Y-72390000D02*
G75*
G02*
X67060000Y-72390000I-1680000J0D01*
G01*
X67060000Y-72390000D02*
G75*
G02*
X70420000Y-72390000I1680000J0D01*
G01*
X75420000Y-72390000D02*
G75*
G02*
X72060000Y-72390000I-1680000J0D01*
G01*
X72060000Y-72390000D02*
G75*
G02*
X75420000Y-72390000I1680000J0D01*
G01*
%TO.C,TP1*%
X159442000Y-85090000D02*
G75*
G02*
X157042000Y-85090000I-1200000J0D01*
G01*
X157042000Y-85090000D02*
G75*
G02*
X159442000Y-85090000I1200000J0D01*
G01*
%TO.C,U2*%
X66508000Y-148050000D02*
X66508000Y-143409000D01*
X69777000Y-148050000D02*
X69777000Y-146540000D01*
X73478000Y-148050000D02*
X73478000Y-146540000D01*
X76748000Y-143409000D02*
X66508000Y-143409000D01*
X76748000Y-146540000D02*
X66508000Y-146540000D01*
X76748000Y-148050000D02*
X66508000Y-148050000D01*
X76748000Y-148050000D02*
X76748000Y-143409000D01*
%TO.C,C6*%
X68008000Y-136298000D02*
X68008000Y-139038000D01*
X68008000Y-136298000D02*
X75248000Y-136298000D01*
X68008000Y-139038000D02*
X75248000Y-139038000D01*
X75248000Y-136298000D02*
X75248000Y-139038000D01*
%TO.C,R3*%
X104926000Y-69850000D02*
X105696000Y-69850000D01*
X105696000Y-68480000D02*
X105696000Y-71220000D01*
X105696000Y-71220000D02*
X112236000Y-71220000D01*
X112236000Y-68480000D02*
X105696000Y-68480000D01*
X112236000Y-71220000D02*
X112236000Y-68480000D01*
X113006000Y-69850000D02*
X112236000Y-69850000D01*
%TO.C,R6*%
X110514000Y-106172000D02*
X111284000Y-106172000D01*
X111284000Y-104802000D02*
X111284000Y-107542000D01*
X111284000Y-107542000D02*
X117824000Y-107542000D01*
X117824000Y-104802000D02*
X111284000Y-104802000D01*
X117824000Y-107542000D02*
X117824000Y-104802000D01*
X118594000Y-106172000D02*
X117824000Y-106172000D01*
%TD*%
M02*
