%TF.GenerationSoftware,KiCad,Pcbnew,8.0.5*%
%TF.CreationDate,2024-10-14T11:10:16-07:00*%
%TF.ProjectId,Atmega_BM83,41746d65-6761-45f4-924d-38332e6b6963,rev?*%
%TF.SameCoordinates,Original*%
%TF.FileFunction,Soldermask,Bot*%
%TF.FilePolarity,Negative*%
%FSLAX46Y46*%
G04 Gerber Fmt 4.6, Leading zero omitted, Abs format (unit mm)*
G04 Created by KiCad (PCBNEW 8.0.5) date 2024-10-14 11:10:16*
%MOMM*%
%LPD*%
G01*
G04 APERTURE LIST*
%ADD10C,1.600000*%
%ADD11C,7.000000*%
%ADD12R,2.600000X2.600000*%
%ADD13C,2.600000*%
%ADD14R,1.600000X1.600000*%
%ADD15O,1.600000X1.600000*%
%ADD16R,1.700000X1.700000*%
%ADD17O,1.700000X1.700000*%
%ADD18R,2.400000X1.600000*%
%ADD19O,2.400000X1.600000*%
%ADD20C,1.854000*%
%ADD21C,2.000000*%
%ADD22R,1.905000X2.000000*%
%ADD23O,1.905000X2.000000*%
G04 APERTURE END LIST*
D10*
%TO.C,C7*%
X145300000Y-91800000D03*
X150300000Y-91800000D03*
%TD*%
D11*
%TO.C,H2*%
X157480000Y-70866000D03*
%TD*%
D12*
%TO.C,J3*%
X96360000Y-72390000D03*
D13*
X91360000Y-72390000D03*
X86360000Y-72390000D03*
%TD*%
D12*
%TO.C,J1*%
X98592000Y-143561000D03*
D13*
X103592000Y-143561000D03*
%TD*%
D14*
%TO.C,C3*%
X137334000Y-72644000D03*
D10*
X132334000Y-72644000D03*
%TD*%
%TO.C,R9*%
X119634000Y-121412000D03*
D15*
X109474000Y-121412000D03*
%TD*%
D14*
%TO.C,C1*%
X137334000Y-91694000D03*
D10*
X132334000Y-91694000D03*
%TD*%
%TO.C,R2*%
X114046000Y-75184000D03*
D15*
X103886000Y-75184000D03*
%TD*%
D16*
%TO.C,J8*%
X159771000Y-100076000D03*
D17*
X157231000Y-100076000D03*
X154691000Y-100076000D03*
X152151000Y-100076000D03*
X149611000Y-100076000D03*
X147071000Y-100076000D03*
X144531000Y-100076000D03*
X141991000Y-100076000D03*
X139451000Y-100076000D03*
X136911000Y-100076000D03*
X134371000Y-100076000D03*
X131831000Y-100076000D03*
%TD*%
D12*
%TO.C,J7*%
X59131000Y-105450000D03*
D13*
X59131000Y-110450000D03*
%TD*%
D12*
%TO.C,J2*%
X147788000Y-72898000D03*
D13*
X142788000Y-72898000D03*
%TD*%
D14*
%TO.C,C2*%
X137334000Y-82169000D03*
D10*
X132334000Y-82169000D03*
%TD*%
D11*
%TO.C,H1*%
X157480000Y-144780000D03*
%TD*%
%TO.C,H4*%
X58420000Y-144780000D03*
%TD*%
D12*
%TO.C,J5*%
X59131000Y-84622000D03*
D13*
X59131000Y-89622000D03*
%TD*%
D18*
%TO.C,U4*%
X112253000Y-81798000D03*
D19*
X112253000Y-84338000D03*
X112253000Y-86878000D03*
X112253000Y-89418000D03*
X119873000Y-89418000D03*
X119873000Y-86878000D03*
X119873000Y-84338000D03*
X119873000Y-81798000D03*
%TD*%
D20*
%TO.C,J10*%
X74930000Y-104394000D03*
X77470000Y-104394000D03*
X74930000Y-106934000D03*
X77470000Y-106934000D03*
X74930000Y-109474000D03*
X77470000Y-109474000D03*
%TD*%
D14*
%TO.C,C4*%
X85598000Y-139914000D03*
D10*
X85598000Y-134914000D03*
%TD*%
%TO.C,R10*%
X109474000Y-129032000D03*
D15*
X119634000Y-129032000D03*
%TD*%
D10*
%TO.C,R1*%
X128778000Y-75184000D03*
D15*
X118618000Y-75184000D03*
%TD*%
D10*
%TO.C,R7*%
X119634000Y-98552000D03*
D15*
X109474000Y-98552000D03*
%TD*%
D18*
%TO.C,U3*%
X86345000Y-91196000D03*
D19*
X86345000Y-93736000D03*
X86345000Y-96276000D03*
X86345000Y-98816000D03*
X86345000Y-101356000D03*
X86345000Y-103896000D03*
X86345000Y-106436000D03*
X86345000Y-108976000D03*
X86345000Y-111516000D03*
X86345000Y-114056000D03*
X86345000Y-116596000D03*
X86345000Y-119136000D03*
X86345000Y-121676000D03*
X86345000Y-124216000D03*
X93965000Y-124216000D03*
X93965000Y-121676000D03*
X93965000Y-119136000D03*
X93965000Y-116596000D03*
X93965000Y-114056000D03*
X93965000Y-111516000D03*
X93965000Y-108976000D03*
X93965000Y-106436000D03*
X93965000Y-103896000D03*
X93965000Y-101356000D03*
X93965000Y-98816000D03*
X93965000Y-96276000D03*
X93965000Y-93736000D03*
X93965000Y-91196000D03*
%TD*%
D10*
%TO.C,R4*%
X118618000Y-69850000D03*
D15*
X128778000Y-69850000D03*
%TD*%
D10*
%TO.C,C5*%
X80558000Y-144780000D03*
X85558000Y-144780000D03*
%TD*%
%TO.C,R8*%
X109474000Y-113792000D03*
D15*
X119634000Y-113792000D03*
%TD*%
D11*
%TO.C,H3*%
X58420000Y-71120000D03*
%TD*%
D16*
%TO.C,J9*%
X159771000Y-128016000D03*
D17*
X157231000Y-128016000D03*
X154691000Y-128016000D03*
X152151000Y-128016000D03*
X149611000Y-128016000D03*
X147071000Y-128016000D03*
X144531000Y-128016000D03*
X141991000Y-128016000D03*
X139451000Y-128016000D03*
X136911000Y-128016000D03*
X134371000Y-128016000D03*
X131831000Y-128016000D03*
%TD*%
D12*
%TO.C,J6*%
X59131000Y-126278000D03*
D13*
X59131000Y-131278000D03*
%TD*%
D10*
%TO.C,R11*%
X68072000Y-130048000D03*
D15*
X78232000Y-130048000D03*
%TD*%
D12*
%TO.C,J4*%
X78740000Y-72390000D03*
D13*
X73740000Y-72390000D03*
X68740000Y-72390000D03*
%TD*%
D21*
%TO.C,TP1*%
X158242000Y-85090000D03*
%TD*%
D22*
%TO.C,U2*%
X74168000Y-144780000D03*
D23*
X71628000Y-144780000D03*
X69088000Y-144780000D03*
%TD*%
D10*
%TO.C,C6*%
X69128000Y-137668000D03*
X74128000Y-137668000D03*
%TD*%
%TO.C,R3*%
X114046000Y-69850000D03*
D15*
X103886000Y-69850000D03*
%TD*%
D10*
%TO.C,R6*%
X109474000Y-106172000D03*
D15*
X119634000Y-106172000D03*
%TD*%
M02*
