%TF.GenerationSoftware,KiCad,Pcbnew,8.0.5*%
%TF.CreationDate,2024-10-14T11:10:16-07:00*%
%TF.ProjectId,Atmega_BM83,41746d65-6761-45f4-924d-38332e6b6963,rev?*%
%TF.SameCoordinates,Original*%
%TF.FileFunction,Legend,Bot*%
%TF.FilePolarity,Positive*%
%FSLAX46Y46*%
G04 Gerber Fmt 4.6, Leading zero omitted, Abs format (unit mm)*
G04 Created by KiCad (PCBNEW 8.0.5) date 2024-10-14 11:10:16*
%MOMM*%
%LPD*%
G01*
G04 APERTURE LIST*
%ADD10C,0.400000*%
G04 APERTURE END LIST*
D10*
X150794111Y-105909759D02*
G75*
G02*
X150078415Y-106644054I-502211J-226441D01*
G01*
X152881500Y-104923872D02*
G75*
G02*
X152108482Y-105681370I-553900J-207928D01*
G01*
X142953716Y-110843949D02*
X142953716Y-108511315D01*
X152690050Y-108511315D02*
X144085627Y-108511315D01*
X152178572Y-121747072D02*
G75*
G02*
X142043618Y-121903142I-5144972J4954372D01*
G01*
X141972577Y-105613765D02*
G75*
G02*
X152108482Y-105681372I5034383J-5066725D01*
G01*
X137355993Y-115951912D02*
G75*
G02*
X136660092Y-116715867I-395693J-338488D01*
G01*
X145529709Y-107776815D02*
G75*
G02*
X148492614Y-107792803I1471491J-1854085D01*
G01*
X138930369Y-108511315D02*
X138930369Y-119032421D01*
X144085627Y-110843982D02*
G75*
G02*
X142953716Y-110843950I-566037J-2907878D01*
G01*
X141053043Y-119032421D02*
X141053043Y-117204302D01*
X152178572Y-121747072D02*
G75*
G02*
X152958183Y-122497803I223828J-547728D01*
G01*
X136563438Y-110816967D02*
G75*
G02*
X137307703Y-111571291I372162J-377133D01*
G01*
X142163640Y-119032421D02*
X142947014Y-119032421D01*
X153957312Y-113721123D02*
G75*
G02*
X147166310Y-113721123I-3395501J0D01*
G01*
X147166310Y-113721123D02*
G75*
G02*
X153957312Y-113721123I3395501J0D01*
G01*
X152859106Y-113721123D02*
G75*
G02*
X148264516Y-113721123I-2297295J0D01*
G01*
X148264516Y-113721123D02*
G75*
G02*
X152859106Y-113721123I2297295J0D01*
G01*
X144264232Y-113751846D02*
G75*
G02*
X142774850Y-113751846I-744691J0D01*
G01*
X142774850Y-113751846D02*
G75*
G02*
X144264232Y-113751846I744691J0D01*
G01*
X148544399Y-119667247D02*
G75*
G02*
X145581767Y-119709110I-1507399J1824947D01*
G01*
X141053043Y-117204302D02*
X141053043Y-119032421D01*
X149251822Y-120317729D02*
G75*
G02*
X144914695Y-120440569I-2235322J2295629D01*
G01*
X142163640Y-117204302D02*
X142163640Y-119032421D01*
X141972577Y-105613765D02*
G75*
G02*
X141209749Y-104846026I-202977J561165D01*
G01*
X139496898Y-121205208D02*
G75*
G02*
X138206558Y-121205208I-645170J0D01*
G01*
X138206558Y-121205208D02*
G75*
G02*
X139496898Y-121205208I645170J0D01*
G01*
X152690050Y-108511315D02*
G75*
G02*
X152422347Y-119032417I-2128240J-5209805D01*
G01*
X144057611Y-117922791D02*
X144057611Y-119032421D01*
X150862259Y-121530163D02*
G75*
G02*
X143348990Y-121665801I-3827659J3866363D01*
G01*
X141287526Y-122677488D02*
G75*
G02*
X142043632Y-121903148I558074J211388D01*
G01*
X144914730Y-120440528D02*
G75*
G02*
X145581760Y-119709126I435570J272628D01*
G01*
X138930369Y-119032421D02*
X141053043Y-119032421D01*
X142163640Y-117204303D02*
X142163640Y-119032421D01*
X150140221Y-120802227D02*
G75*
G02*
X143966177Y-120870558I-3125221J3417327D01*
G01*
X144856316Y-107051246D02*
G75*
G02*
X149194271Y-107136243I2122784J-2400054D01*
G01*
X136660091Y-116715868D02*
G75*
G02*
X136563436Y-110816966I3873919J3013718D01*
G01*
X151669546Y-113721123D02*
G75*
G02*
X149454076Y-113721123I-1107735J0D01*
G01*
X149454076Y-113721123D02*
G75*
G02*
X151669546Y-113721123I1107735J0D01*
G01*
X152958171Y-122497799D02*
G75*
G02*
X141287501Y-122677514I-5924571J5705099D01*
G01*
X141053043Y-117204302D02*
G75*
G02*
X142163573Y-117204335I555257J-270498D01*
G01*
X143348963Y-121665830D02*
G75*
G02*
X143966200Y-120870565I539637J218330D01*
G01*
X142947014Y-119032421D02*
X142947014Y-117922682D01*
X143279918Y-105839652D02*
G75*
G02*
X150794106Y-105909764I3720382J-3969648D01*
G01*
X149194314Y-107136198D02*
G75*
G02*
X148492554Y-107792893I-444314J-228502D01*
G01*
X137355993Y-115951912D02*
G75*
G02*
X137307664Y-111571252I3445807J2228612D01*
G01*
X144057611Y-119032421D02*
X152422348Y-119032421D01*
X143904075Y-106629541D02*
G75*
G02*
X150078453Y-106643966I3079125J-3458959D01*
G01*
X148544399Y-119667247D02*
G75*
G02*
X149251816Y-120317726I261101J-425953D01*
G01*
X143904075Y-106629541D02*
G75*
G02*
X143279886Y-105839639I-82675J576241D01*
G01*
X141209731Y-104846019D02*
G75*
G02*
X152881502Y-104923870I5797229J-5834471D01*
G01*
X150140221Y-120802227D02*
G75*
G02*
X150862168Y-121530123I217879J-505873D01*
G01*
X144085627Y-108511315D02*
X144085627Y-110843982D01*
X145529709Y-107776815D02*
G75*
G02*
X144856293Y-107051232I-235509J456715D01*
G01*
X139432042Y-106339497D02*
G75*
G02*
X138141704Y-106339497I-645169J0D01*
G01*
X138141704Y-106339497D02*
G75*
G02*
X139432042Y-106339497I645169J0D01*
G01*
X142947014Y-117922682D02*
G75*
G02*
X144057634Y-117922780I555286J-270618D01*
G01*
X142953716Y-108511315D02*
X138930369Y-108511315D01*
X145431391Y-113751846D02*
G75*
G02*
X141607691Y-113751846I-1911850J0D01*
G01*
X141607691Y-113751846D02*
G75*
G02*
X145431391Y-113751846I1911850J0D01*
G01*
M02*
