M48
; DRILL file {KiCad 8.0.4} date 2024-09-08T18:56:53-0700
; FORMAT={-:-/ absolute / inch / decimal}
; #@! TF.CreationDate,2024-09-08T18:56:53-07:00
; #@! TF.GenerationSoftware,Kicad,Pcbnew,8.0.4
; #@! TF.FileFunction,Plated,1,2,PTH
FMAT,2
INCH
; #@! TA.AperFunction,Plated,PTH,ComponentDrill
T1C0.0236
; #@! TA.AperFunction,Plated,PTH,ComponentDrill
T2C0.0276
; #@! TA.AperFunction,Plated,PTH,ComponentDrill
T3C0.0295
; #@! TA.AperFunction,Plated,PTH,ComponentDrill
T4C0.0315
; #@! TA.AperFunction,Plated,PTH,ComponentDrill
T5C0.0394
; #@! TA.AperFunction,Plated,PTH,ComponentDrill
T6C0.0433
; #@! TA.AperFunction,Plated,PTH,ComponentDrill
T7C0.0472
; #@! TA.AperFunction,Plated,PTH,ComponentDrill
T8C0.0512
; #@! TA.AperFunction,Plated,PTH,ComponentDrill
T9C0.0591
; #@! TA.AperFunction,Plated,PTH,ComponentDrill
T10C0.1063
; #@! TA.AperFunction,Plated,PTH,ComponentDrill
T11C0.1181
%
G90
G05
T1
X2.95Y-2.975
X2.95Y-5.1
X3.0091Y-2.975
X3.0091Y-5.1
X5.3Y-2.8909
X5.3Y-2.95
X5.35Y-5.15
X5.35Y-5.2091
X7.25Y-4.1659
X7.25Y-4.225
X7.85Y-4.1659
X7.85Y-4.225
T2
X3.25Y-5.1
X3.275Y-2.975
X3.45Y-5.1
X3.475Y-2.975
X3.825Y-4.725
X3.85Y-3.225
X4.025Y-4.725
X4.05Y-3.225
X4.525Y-3.825
X4.525Y-4.025
X4.525Y-4.175
X4.525Y-4.375
X4.85Y-3.45
X4.85Y-4.7
X5.05Y-3.45
X5.05Y-4.7
X5.725Y-2.775
X5.75Y-5.225
X5.925Y-2.775
X5.95Y-5.225
X6.1Y-2.975
X6.1Y-3.175
X6.1Y-3.4
X6.1Y-3.6
X6.1Y-3.775
X6.1Y-3.975
X6.1Y-4.175
X6.1Y-4.375
X6.1Y-4.525
X6.1Y-4.725
X6.1Y-4.9
X6.1Y-5.1
T3
X4.9392Y-2.85
X4.9392Y-2.9
X4.9392Y-2.95
X4.9608Y-5.125
X4.9608Y-5.175
X4.9608Y-5.225
X5.475Y-4.675
X5.475Y-4.725
X5.475Y-4.775
X5.5Y-3.375
X5.5Y-3.425
X5.5Y-3.475
X5.5Y-3.775
X5.5Y-3.825
X5.5Y-3.875
X5.5Y-4.275
X5.5Y-4.325
X5.5Y-4.375
T4
X4.525Y-2.875
X4.525Y-3.175
X4.525Y-3.35
X4.525Y-3.65
X4.525Y-4.55
X4.525Y-4.85
X4.525Y-5.025
X4.525Y-5.325
T5
X7.225Y-3.225
X7.225Y-5.025
T6
X6.65Y-4.4
X6.65Y-4.5
X6.65Y-4.6
X6.7122Y-5.05
X6.7122Y-5.15
X6.7122Y-5.25
T7
X7.7593Y-3.225
X7.7593Y-5.025
X8.0546Y-3.225
X8.0546Y-5.025
T8
X3.7281Y-5.0506
X3.7281Y-5.2474
X3.7531Y-2.7756
X3.7531Y-2.9724
X4.1219Y-5.149
X4.1469Y-2.874
T9
X6.65Y-2.75
X6.65Y-2.9656
X6.65Y-3.1811
X6.7122Y-3.6
X6.7122Y-3.8156
X6.7122Y-4.0311
T10
X3.7Y-3.5789
T11
X2.95Y-3.9833
X2.95Y-4.2667
X3.7Y-3.9915
X3.7Y-4.275
X8.5Y-4.0083
X8.5Y-4.2917
M30
