%TF.GenerationSoftware,KiCad,Pcbnew,8.0.1*%
%TF.CreationDate,2024-09-10T19:28:36-07:00*%
%TF.ProjectId,Dorr_Amp_REV-,446f7272-5f41-46d7-905f-5245562d2e6b,-*%
%TF.SameCoordinates,Original*%
%TF.FileFunction,Legend,Top*%
%TF.FilePolarity,Positive*%
%FSLAX46Y46*%
G04 Gerber Fmt 4.6, Leading zero omitted, Abs format (unit mm)*
G04 Created by KiCad (PCBNEW 8.0.1) date 2024-09-10 19:28:36*
%MOMM*%
%LPD*%
G01*
G04 APERTURE LIST*
%ADD10C,0.150000*%
%ADD11C,0.120000*%
G04 APERTURE END LIST*
D10*
X187042312Y-128615839D02*
X187089931Y-128472982D01*
X187089931Y-128472982D02*
X187089931Y-128234887D01*
X187089931Y-128234887D02*
X187042312Y-128139649D01*
X187042312Y-128139649D02*
X186994692Y-128092030D01*
X186994692Y-128092030D02*
X186899454Y-128044411D01*
X186899454Y-128044411D02*
X186804216Y-128044411D01*
X186804216Y-128044411D02*
X186708978Y-128092030D01*
X186708978Y-128092030D02*
X186661359Y-128139649D01*
X186661359Y-128139649D02*
X186613740Y-128234887D01*
X186613740Y-128234887D02*
X186566121Y-128425363D01*
X186566121Y-128425363D02*
X186518502Y-128520601D01*
X186518502Y-128520601D02*
X186470883Y-128568220D01*
X186470883Y-128568220D02*
X186375645Y-128615839D01*
X186375645Y-128615839D02*
X186280407Y-128615839D01*
X186280407Y-128615839D02*
X186185169Y-128568220D01*
X186185169Y-128568220D02*
X186137550Y-128520601D01*
X186137550Y-128520601D02*
X186089931Y-128425363D01*
X186089931Y-128425363D02*
X186089931Y-128187268D01*
X186089931Y-128187268D02*
X186137550Y-128044411D01*
X186804216Y-127663458D02*
X186804216Y-127187268D01*
X187089931Y-127758696D02*
X186089931Y-127425363D01*
X186089931Y-127425363D02*
X187089931Y-127092030D01*
X187089931Y-126758696D02*
X186089931Y-126758696D01*
X186089931Y-126758696D02*
X187089931Y-126187268D01*
X187089931Y-126187268D02*
X186089931Y-126187268D01*
X187089931Y-124949172D02*
X186089931Y-124949172D01*
X186089931Y-124949172D02*
X186089931Y-124711077D01*
X186089931Y-124711077D02*
X186137550Y-124568220D01*
X186137550Y-124568220D02*
X186232788Y-124472982D01*
X186232788Y-124472982D02*
X186328026Y-124425363D01*
X186328026Y-124425363D02*
X186518502Y-124377744D01*
X186518502Y-124377744D02*
X186661359Y-124377744D01*
X186661359Y-124377744D02*
X186851835Y-124425363D01*
X186851835Y-124425363D02*
X186947073Y-124472982D01*
X186947073Y-124472982D02*
X187042312Y-124568220D01*
X187042312Y-124568220D02*
X187089931Y-124711077D01*
X187089931Y-124711077D02*
X187089931Y-124949172D01*
X187089931Y-123949172D02*
X186089931Y-123949172D01*
X186566121Y-123472982D02*
X186566121Y-123139649D01*
X187089931Y-122996792D02*
X187089931Y-123472982D01*
X187089931Y-123472982D02*
X186089931Y-123472982D01*
X186089931Y-123472982D02*
X186089931Y-122996792D01*
X186137550Y-122044411D02*
X186089931Y-122139649D01*
X186089931Y-122139649D02*
X186089931Y-122282506D01*
X186089931Y-122282506D02*
X186137550Y-122425363D01*
X186137550Y-122425363D02*
X186232788Y-122520601D01*
X186232788Y-122520601D02*
X186328026Y-122568220D01*
X186328026Y-122568220D02*
X186518502Y-122615839D01*
X186518502Y-122615839D02*
X186661359Y-122615839D01*
X186661359Y-122615839D02*
X186851835Y-122568220D01*
X186851835Y-122568220D02*
X186947073Y-122520601D01*
X186947073Y-122520601D02*
X187042312Y-122425363D01*
X187042312Y-122425363D02*
X187089931Y-122282506D01*
X187089931Y-122282506D02*
X187089931Y-122187268D01*
X187089931Y-122187268D02*
X187042312Y-122044411D01*
X187042312Y-122044411D02*
X186994692Y-121996792D01*
X186994692Y-121996792D02*
X186661359Y-121996792D01*
X186661359Y-121996792D02*
X186661359Y-122187268D01*
X186089931Y-121377744D02*
X186089931Y-121187268D01*
X186089931Y-121187268D02*
X186137550Y-121092030D01*
X186137550Y-121092030D02*
X186232788Y-120996792D01*
X186232788Y-120996792D02*
X186423264Y-120949173D01*
X186423264Y-120949173D02*
X186756597Y-120949173D01*
X186756597Y-120949173D02*
X186947073Y-120996792D01*
X186947073Y-120996792D02*
X187042312Y-121092030D01*
X187042312Y-121092030D02*
X187089931Y-121187268D01*
X187089931Y-121187268D02*
X187089931Y-121377744D01*
X187089931Y-121377744D02*
X187042312Y-121472982D01*
X187042312Y-121472982D02*
X186947073Y-121568220D01*
X186947073Y-121568220D02*
X186756597Y-121615839D01*
X186756597Y-121615839D02*
X186423264Y-121615839D01*
X186423264Y-121615839D02*
X186232788Y-121568220D01*
X186232788Y-121568220D02*
X186137550Y-121472982D01*
X186137550Y-121472982D02*
X186089931Y-121377744D01*
X187042312Y-119806315D02*
X187089931Y-119663458D01*
X187089931Y-119663458D02*
X187089931Y-119425363D01*
X187089931Y-119425363D02*
X187042312Y-119330125D01*
X187042312Y-119330125D02*
X186994692Y-119282506D01*
X186994692Y-119282506D02*
X186899454Y-119234887D01*
X186899454Y-119234887D02*
X186804216Y-119234887D01*
X186804216Y-119234887D02*
X186708978Y-119282506D01*
X186708978Y-119282506D02*
X186661359Y-119330125D01*
X186661359Y-119330125D02*
X186613740Y-119425363D01*
X186613740Y-119425363D02*
X186566121Y-119615839D01*
X186566121Y-119615839D02*
X186518502Y-119711077D01*
X186518502Y-119711077D02*
X186470883Y-119758696D01*
X186470883Y-119758696D02*
X186375645Y-119806315D01*
X186375645Y-119806315D02*
X186280407Y-119806315D01*
X186280407Y-119806315D02*
X186185169Y-119758696D01*
X186185169Y-119758696D02*
X186137550Y-119711077D01*
X186137550Y-119711077D02*
X186089931Y-119615839D01*
X186089931Y-119615839D02*
X186089931Y-119377744D01*
X186089931Y-119377744D02*
X186137550Y-119234887D01*
X186089931Y-118949172D02*
X186089931Y-118377744D01*
X187089931Y-118663458D02*
X186089931Y-118663458D01*
X186804216Y-118092029D02*
X186804216Y-117615839D01*
X187089931Y-118187267D02*
X186089931Y-117853934D01*
X186089931Y-117853934D02*
X187089931Y-117520601D01*
X186089931Y-117330124D02*
X186089931Y-116758696D01*
X187089931Y-117044410D02*
X186089931Y-117044410D01*
X186566121Y-116425362D02*
X186566121Y-116092029D01*
X187089931Y-115949172D02*
X187089931Y-116425362D01*
X187089931Y-116425362D02*
X186089931Y-116425362D01*
X186089931Y-116425362D02*
X186089931Y-115949172D01*
X186089931Y-114758695D02*
X186899454Y-114758695D01*
X186899454Y-114758695D02*
X186994692Y-114711076D01*
X186994692Y-114711076D02*
X187042312Y-114663457D01*
X187042312Y-114663457D02*
X187089931Y-114568219D01*
X187089931Y-114568219D02*
X187089931Y-114377743D01*
X187089931Y-114377743D02*
X187042312Y-114282505D01*
X187042312Y-114282505D02*
X186994692Y-114234886D01*
X186994692Y-114234886D02*
X186899454Y-114187267D01*
X186899454Y-114187267D02*
X186089931Y-114187267D01*
X187089931Y-113711076D02*
X186089931Y-113711076D01*
X186089931Y-113711076D02*
X187089931Y-113139648D01*
X187089931Y-113139648D02*
X186089931Y-113139648D01*
X187089931Y-112663457D02*
X186089931Y-112663457D01*
X186089931Y-112330124D02*
X187089931Y-111996791D01*
X187089931Y-111996791D02*
X186089931Y-111663458D01*
X186566121Y-111330124D02*
X186566121Y-110996791D01*
X187089931Y-110853934D02*
X187089931Y-111330124D01*
X187089931Y-111330124D02*
X186089931Y-111330124D01*
X186089931Y-111330124D02*
X186089931Y-110853934D01*
X187089931Y-109853934D02*
X186613740Y-110187267D01*
X187089931Y-110425362D02*
X186089931Y-110425362D01*
X186089931Y-110425362D02*
X186089931Y-110044410D01*
X186089931Y-110044410D02*
X186137550Y-109949172D01*
X186137550Y-109949172D02*
X186185169Y-109901553D01*
X186185169Y-109901553D02*
X186280407Y-109853934D01*
X186280407Y-109853934D02*
X186423264Y-109853934D01*
X186423264Y-109853934D02*
X186518502Y-109901553D01*
X186518502Y-109901553D02*
X186566121Y-109949172D01*
X186566121Y-109949172D02*
X186613740Y-110044410D01*
X186613740Y-110044410D02*
X186613740Y-110425362D01*
X187042312Y-109472981D02*
X187089931Y-109330124D01*
X187089931Y-109330124D02*
X187089931Y-109092029D01*
X187089931Y-109092029D02*
X187042312Y-108996791D01*
X187042312Y-108996791D02*
X186994692Y-108949172D01*
X186994692Y-108949172D02*
X186899454Y-108901553D01*
X186899454Y-108901553D02*
X186804216Y-108901553D01*
X186804216Y-108901553D02*
X186708978Y-108949172D01*
X186708978Y-108949172D02*
X186661359Y-108996791D01*
X186661359Y-108996791D02*
X186613740Y-109092029D01*
X186613740Y-109092029D02*
X186566121Y-109282505D01*
X186566121Y-109282505D02*
X186518502Y-109377743D01*
X186518502Y-109377743D02*
X186470883Y-109425362D01*
X186470883Y-109425362D02*
X186375645Y-109472981D01*
X186375645Y-109472981D02*
X186280407Y-109472981D01*
X186280407Y-109472981D02*
X186185169Y-109425362D01*
X186185169Y-109425362D02*
X186137550Y-109377743D01*
X186137550Y-109377743D02*
X186089931Y-109282505D01*
X186089931Y-109282505D02*
X186089931Y-109044410D01*
X186089931Y-109044410D02*
X186137550Y-108901553D01*
X187089931Y-108472981D02*
X186089931Y-108472981D01*
X186089931Y-108139648D02*
X186089931Y-107568220D01*
X187089931Y-107853934D02*
X186089931Y-107853934D01*
X186613740Y-107044410D02*
X187089931Y-107044410D01*
X186089931Y-107377743D02*
X186613740Y-107044410D01*
X186613740Y-107044410D02*
X186089931Y-106711077D01*
X186994692Y-105044410D02*
X187042312Y-105092029D01*
X187042312Y-105092029D02*
X187089931Y-105234886D01*
X187089931Y-105234886D02*
X187089931Y-105330124D01*
X187089931Y-105330124D02*
X187042312Y-105472981D01*
X187042312Y-105472981D02*
X186947073Y-105568219D01*
X186947073Y-105568219D02*
X186851835Y-105615838D01*
X186851835Y-105615838D02*
X186661359Y-105663457D01*
X186661359Y-105663457D02*
X186518502Y-105663457D01*
X186518502Y-105663457D02*
X186328026Y-105615838D01*
X186328026Y-105615838D02*
X186232788Y-105568219D01*
X186232788Y-105568219D02*
X186137550Y-105472981D01*
X186137550Y-105472981D02*
X186089931Y-105330124D01*
X186089931Y-105330124D02*
X186089931Y-105234886D01*
X186089931Y-105234886D02*
X186137550Y-105092029D01*
X186137550Y-105092029D02*
X186185169Y-105044410D01*
X186089931Y-104425362D02*
X186089931Y-104234886D01*
X186089931Y-104234886D02*
X186137550Y-104139648D01*
X186137550Y-104139648D02*
X186232788Y-104044410D01*
X186232788Y-104044410D02*
X186423264Y-103996791D01*
X186423264Y-103996791D02*
X186756597Y-103996791D01*
X186756597Y-103996791D02*
X186947073Y-104044410D01*
X186947073Y-104044410D02*
X187042312Y-104139648D01*
X187042312Y-104139648D02*
X187089931Y-104234886D01*
X187089931Y-104234886D02*
X187089931Y-104425362D01*
X187089931Y-104425362D02*
X187042312Y-104520600D01*
X187042312Y-104520600D02*
X186947073Y-104615838D01*
X186947073Y-104615838D02*
X186756597Y-104663457D01*
X186756597Y-104663457D02*
X186423264Y-104663457D01*
X186423264Y-104663457D02*
X186232788Y-104615838D01*
X186232788Y-104615838D02*
X186137550Y-104520600D01*
X186137550Y-104520600D02*
X186089931Y-104425362D01*
X187089931Y-103092029D02*
X187089931Y-103568219D01*
X187089931Y-103568219D02*
X186089931Y-103568219D01*
X187089931Y-102282505D02*
X187089931Y-102758695D01*
X187089931Y-102758695D02*
X186089931Y-102758695D01*
X186566121Y-101949171D02*
X186566121Y-101615838D01*
X187089931Y-101472981D02*
X187089931Y-101949171D01*
X187089931Y-101949171D02*
X186089931Y-101949171D01*
X186089931Y-101949171D02*
X186089931Y-101472981D01*
X186137550Y-100520600D02*
X186089931Y-100615838D01*
X186089931Y-100615838D02*
X186089931Y-100758695D01*
X186089931Y-100758695D02*
X186137550Y-100901552D01*
X186137550Y-100901552D02*
X186232788Y-100996790D01*
X186232788Y-100996790D02*
X186328026Y-101044409D01*
X186328026Y-101044409D02*
X186518502Y-101092028D01*
X186518502Y-101092028D02*
X186661359Y-101092028D01*
X186661359Y-101092028D02*
X186851835Y-101044409D01*
X186851835Y-101044409D02*
X186947073Y-100996790D01*
X186947073Y-100996790D02*
X187042312Y-100901552D01*
X187042312Y-100901552D02*
X187089931Y-100758695D01*
X187089931Y-100758695D02*
X187089931Y-100663457D01*
X187089931Y-100663457D02*
X187042312Y-100520600D01*
X187042312Y-100520600D02*
X186994692Y-100472981D01*
X186994692Y-100472981D02*
X186661359Y-100472981D01*
X186661359Y-100472981D02*
X186661359Y-100663457D01*
X186566121Y-100044409D02*
X186566121Y-99711076D01*
X187089931Y-99568219D02*
X187089931Y-100044409D01*
X187089931Y-100044409D02*
X186089931Y-100044409D01*
X186089931Y-100044409D02*
X186089931Y-99568219D01*
X186089931Y-98187266D02*
X186089931Y-97996790D01*
X186089931Y-97996790D02*
X186137550Y-97901552D01*
X186137550Y-97901552D02*
X186232788Y-97806314D01*
X186232788Y-97806314D02*
X186423264Y-97758695D01*
X186423264Y-97758695D02*
X186756597Y-97758695D01*
X186756597Y-97758695D02*
X186947073Y-97806314D01*
X186947073Y-97806314D02*
X187042312Y-97901552D01*
X187042312Y-97901552D02*
X187089931Y-97996790D01*
X187089931Y-97996790D02*
X187089931Y-98187266D01*
X187089931Y-98187266D02*
X187042312Y-98282504D01*
X187042312Y-98282504D02*
X186947073Y-98377742D01*
X186947073Y-98377742D02*
X186756597Y-98425361D01*
X186756597Y-98425361D02*
X186423264Y-98425361D01*
X186423264Y-98425361D02*
X186232788Y-98377742D01*
X186232788Y-98377742D02*
X186137550Y-98282504D01*
X186137550Y-98282504D02*
X186089931Y-98187266D01*
X186566121Y-96996790D02*
X186566121Y-97330123D01*
X187089931Y-97330123D02*
X186089931Y-97330123D01*
X186089931Y-97330123D02*
X186089931Y-96853933D01*
X186566121Y-95711075D02*
X186566121Y-95377742D01*
X187089931Y-95234885D02*
X187089931Y-95711075D01*
X187089931Y-95711075D02*
X186089931Y-95711075D01*
X186089931Y-95711075D02*
X186089931Y-95234885D01*
X187089931Y-94806313D02*
X186089931Y-94806313D01*
X186089931Y-94806313D02*
X187089931Y-94234885D01*
X187089931Y-94234885D02*
X186089931Y-94234885D01*
X186137550Y-93234885D02*
X186089931Y-93330123D01*
X186089931Y-93330123D02*
X186089931Y-93472980D01*
X186089931Y-93472980D02*
X186137550Y-93615837D01*
X186137550Y-93615837D02*
X186232788Y-93711075D01*
X186232788Y-93711075D02*
X186328026Y-93758694D01*
X186328026Y-93758694D02*
X186518502Y-93806313D01*
X186518502Y-93806313D02*
X186661359Y-93806313D01*
X186661359Y-93806313D02*
X186851835Y-93758694D01*
X186851835Y-93758694D02*
X186947073Y-93711075D01*
X186947073Y-93711075D02*
X187042312Y-93615837D01*
X187042312Y-93615837D02*
X187089931Y-93472980D01*
X187089931Y-93472980D02*
X187089931Y-93377742D01*
X187089931Y-93377742D02*
X187042312Y-93234885D01*
X187042312Y-93234885D02*
X186994692Y-93187266D01*
X186994692Y-93187266D02*
X186661359Y-93187266D01*
X186661359Y-93187266D02*
X186661359Y-93377742D01*
X187089931Y-92758694D02*
X186089931Y-92758694D01*
X187089931Y-92282504D02*
X186089931Y-92282504D01*
X186089931Y-92282504D02*
X187089931Y-91711076D01*
X187089931Y-91711076D02*
X186089931Y-91711076D01*
X186566121Y-91234885D02*
X186566121Y-90901552D01*
X187089931Y-90758695D02*
X187089931Y-91234885D01*
X187089931Y-91234885D02*
X186089931Y-91234885D01*
X186089931Y-91234885D02*
X186089931Y-90758695D01*
X186566121Y-90330123D02*
X186566121Y-89996790D01*
X187089931Y-89853933D02*
X187089931Y-90330123D01*
X187089931Y-90330123D02*
X186089931Y-90330123D01*
X186089931Y-90330123D02*
X186089931Y-89853933D01*
X187089931Y-88853933D02*
X186613740Y-89187266D01*
X187089931Y-89425361D02*
X186089931Y-89425361D01*
X186089931Y-89425361D02*
X186089931Y-89044409D01*
X186089931Y-89044409D02*
X186137550Y-88949171D01*
X186137550Y-88949171D02*
X186185169Y-88901552D01*
X186185169Y-88901552D02*
X186280407Y-88853933D01*
X186280407Y-88853933D02*
X186423264Y-88853933D01*
X186423264Y-88853933D02*
X186518502Y-88901552D01*
X186518502Y-88901552D02*
X186566121Y-88949171D01*
X186566121Y-88949171D02*
X186613740Y-89044409D01*
X186613740Y-89044409D02*
X186613740Y-89425361D01*
X187089931Y-88425361D02*
X186089931Y-88425361D01*
X187089931Y-87949171D02*
X186089931Y-87949171D01*
X186089931Y-87949171D02*
X187089931Y-87377743D01*
X187089931Y-87377743D02*
X186089931Y-87377743D01*
X186137550Y-86377743D02*
X186089931Y-86472981D01*
X186089931Y-86472981D02*
X186089931Y-86615838D01*
X186089931Y-86615838D02*
X186137550Y-86758695D01*
X186137550Y-86758695D02*
X186232788Y-86853933D01*
X186232788Y-86853933D02*
X186328026Y-86901552D01*
X186328026Y-86901552D02*
X186518502Y-86949171D01*
X186518502Y-86949171D02*
X186661359Y-86949171D01*
X186661359Y-86949171D02*
X186851835Y-86901552D01*
X186851835Y-86901552D02*
X186947073Y-86853933D01*
X186947073Y-86853933D02*
X187042312Y-86758695D01*
X187042312Y-86758695D02*
X187089931Y-86615838D01*
X187089931Y-86615838D02*
X187089931Y-86520600D01*
X187089931Y-86520600D02*
X187042312Y-86377743D01*
X187042312Y-86377743D02*
X186994692Y-86330124D01*
X186994692Y-86330124D02*
X186661359Y-86330124D01*
X186661359Y-86330124D02*
X186661359Y-86520600D01*
X188699875Y-128568220D02*
X187699875Y-128568220D01*
X187699875Y-128568220D02*
X187699875Y-128330125D01*
X187699875Y-128330125D02*
X187747494Y-128187268D01*
X187747494Y-128187268D02*
X187842732Y-128092030D01*
X187842732Y-128092030D02*
X187937970Y-128044411D01*
X187937970Y-128044411D02*
X188128446Y-127996792D01*
X188128446Y-127996792D02*
X188271303Y-127996792D01*
X188271303Y-127996792D02*
X188461779Y-128044411D01*
X188461779Y-128044411D02*
X188557017Y-128092030D01*
X188557017Y-128092030D02*
X188652256Y-128187268D01*
X188652256Y-128187268D02*
X188699875Y-128330125D01*
X188699875Y-128330125D02*
X188699875Y-128568220D01*
X188176065Y-127568220D02*
X188176065Y-127234887D01*
X188699875Y-127092030D02*
X188699875Y-127568220D01*
X188699875Y-127568220D02*
X187699875Y-127568220D01*
X187699875Y-127568220D02*
X187699875Y-127092030D01*
X188699875Y-126663458D02*
X187699875Y-126663458D01*
X187699875Y-126663458D02*
X187699875Y-126282506D01*
X187699875Y-126282506D02*
X187747494Y-126187268D01*
X187747494Y-126187268D02*
X187795113Y-126139649D01*
X187795113Y-126139649D02*
X187890351Y-126092030D01*
X187890351Y-126092030D02*
X188033208Y-126092030D01*
X188033208Y-126092030D02*
X188128446Y-126139649D01*
X188128446Y-126139649D02*
X188176065Y-126187268D01*
X188176065Y-126187268D02*
X188223684Y-126282506D01*
X188223684Y-126282506D02*
X188223684Y-126663458D01*
X188414160Y-125711077D02*
X188414160Y-125234887D01*
X188699875Y-125806315D02*
X187699875Y-125472982D01*
X187699875Y-125472982D02*
X188699875Y-125139649D01*
X188699875Y-124234887D02*
X188223684Y-124568220D01*
X188699875Y-124806315D02*
X187699875Y-124806315D01*
X187699875Y-124806315D02*
X187699875Y-124425363D01*
X187699875Y-124425363D02*
X187747494Y-124330125D01*
X187747494Y-124330125D02*
X187795113Y-124282506D01*
X187795113Y-124282506D02*
X187890351Y-124234887D01*
X187890351Y-124234887D02*
X188033208Y-124234887D01*
X188033208Y-124234887D02*
X188128446Y-124282506D01*
X188128446Y-124282506D02*
X188176065Y-124330125D01*
X188176065Y-124330125D02*
X188223684Y-124425363D01*
X188223684Y-124425363D02*
X188223684Y-124806315D01*
X187699875Y-123949172D02*
X187699875Y-123377744D01*
X188699875Y-123663458D02*
X187699875Y-123663458D01*
X188699875Y-123044410D02*
X187699875Y-123044410D01*
X187699875Y-123044410D02*
X188414160Y-122711077D01*
X188414160Y-122711077D02*
X187699875Y-122377744D01*
X187699875Y-122377744D02*
X188699875Y-122377744D01*
X188176065Y-121901553D02*
X188176065Y-121568220D01*
X188699875Y-121425363D02*
X188699875Y-121901553D01*
X188699875Y-121901553D02*
X187699875Y-121901553D01*
X187699875Y-121901553D02*
X187699875Y-121425363D01*
X188699875Y-120996791D02*
X187699875Y-120996791D01*
X187699875Y-120996791D02*
X188699875Y-120425363D01*
X188699875Y-120425363D02*
X187699875Y-120425363D01*
X187699875Y-120092029D02*
X187699875Y-119520601D01*
X188699875Y-119806315D02*
X187699875Y-119806315D01*
X187699875Y-118234886D02*
X187699875Y-118044410D01*
X187699875Y-118044410D02*
X187747494Y-117949172D01*
X187747494Y-117949172D02*
X187842732Y-117853934D01*
X187842732Y-117853934D02*
X188033208Y-117806315D01*
X188033208Y-117806315D02*
X188366541Y-117806315D01*
X188366541Y-117806315D02*
X188557017Y-117853934D01*
X188557017Y-117853934D02*
X188652256Y-117949172D01*
X188652256Y-117949172D02*
X188699875Y-118044410D01*
X188699875Y-118044410D02*
X188699875Y-118234886D01*
X188699875Y-118234886D02*
X188652256Y-118330124D01*
X188652256Y-118330124D02*
X188557017Y-118425362D01*
X188557017Y-118425362D02*
X188366541Y-118472981D01*
X188366541Y-118472981D02*
X188033208Y-118472981D01*
X188033208Y-118472981D02*
X187842732Y-118425362D01*
X187842732Y-118425362D02*
X187747494Y-118330124D01*
X187747494Y-118330124D02*
X187699875Y-118234886D01*
X188176065Y-117044410D02*
X188176065Y-117377743D01*
X188699875Y-117377743D02*
X187699875Y-117377743D01*
X187699875Y-117377743D02*
X187699875Y-116901553D01*
X188176065Y-115758695D02*
X188176065Y-115425362D01*
X188699875Y-115282505D02*
X188699875Y-115758695D01*
X188699875Y-115758695D02*
X187699875Y-115758695D01*
X187699875Y-115758695D02*
X187699875Y-115282505D01*
X188699875Y-114377743D02*
X188699875Y-114853933D01*
X188699875Y-114853933D02*
X187699875Y-114853933D01*
X188176065Y-114044409D02*
X188176065Y-113711076D01*
X188699875Y-113568219D02*
X188699875Y-114044409D01*
X188699875Y-114044409D02*
X187699875Y-114044409D01*
X187699875Y-114044409D02*
X187699875Y-113568219D01*
X188604636Y-112568219D02*
X188652256Y-112615838D01*
X188652256Y-112615838D02*
X188699875Y-112758695D01*
X188699875Y-112758695D02*
X188699875Y-112853933D01*
X188699875Y-112853933D02*
X188652256Y-112996790D01*
X188652256Y-112996790D02*
X188557017Y-113092028D01*
X188557017Y-113092028D02*
X188461779Y-113139647D01*
X188461779Y-113139647D02*
X188271303Y-113187266D01*
X188271303Y-113187266D02*
X188128446Y-113187266D01*
X188128446Y-113187266D02*
X187937970Y-113139647D01*
X187937970Y-113139647D02*
X187842732Y-113092028D01*
X187842732Y-113092028D02*
X187747494Y-112996790D01*
X187747494Y-112996790D02*
X187699875Y-112853933D01*
X187699875Y-112853933D02*
X187699875Y-112758695D01*
X187699875Y-112758695D02*
X187747494Y-112615838D01*
X187747494Y-112615838D02*
X187795113Y-112568219D01*
X187699875Y-112282504D02*
X187699875Y-111711076D01*
X188699875Y-111996790D02*
X187699875Y-111996790D01*
X188699875Y-110806314D02*
X188223684Y-111139647D01*
X188699875Y-111377742D02*
X187699875Y-111377742D01*
X187699875Y-111377742D02*
X187699875Y-110996790D01*
X187699875Y-110996790D02*
X187747494Y-110901552D01*
X187747494Y-110901552D02*
X187795113Y-110853933D01*
X187795113Y-110853933D02*
X187890351Y-110806314D01*
X187890351Y-110806314D02*
X188033208Y-110806314D01*
X188033208Y-110806314D02*
X188128446Y-110853933D01*
X188128446Y-110853933D02*
X188176065Y-110901552D01*
X188176065Y-110901552D02*
X188223684Y-110996790D01*
X188223684Y-110996790D02*
X188223684Y-111377742D01*
X188699875Y-110377742D02*
X187699875Y-110377742D01*
X188604636Y-109330124D02*
X188652256Y-109377743D01*
X188652256Y-109377743D02*
X188699875Y-109520600D01*
X188699875Y-109520600D02*
X188699875Y-109615838D01*
X188699875Y-109615838D02*
X188652256Y-109758695D01*
X188652256Y-109758695D02*
X188557017Y-109853933D01*
X188557017Y-109853933D02*
X188461779Y-109901552D01*
X188461779Y-109901552D02*
X188271303Y-109949171D01*
X188271303Y-109949171D02*
X188128446Y-109949171D01*
X188128446Y-109949171D02*
X187937970Y-109901552D01*
X187937970Y-109901552D02*
X187842732Y-109853933D01*
X187842732Y-109853933D02*
X187747494Y-109758695D01*
X187747494Y-109758695D02*
X187699875Y-109615838D01*
X187699875Y-109615838D02*
X187699875Y-109520600D01*
X187699875Y-109520600D02*
X187747494Y-109377743D01*
X187747494Y-109377743D02*
X187795113Y-109330124D01*
X188414160Y-108949171D02*
X188414160Y-108472981D01*
X188699875Y-109044409D02*
X187699875Y-108711076D01*
X187699875Y-108711076D02*
X188699875Y-108377743D01*
X188699875Y-107568219D02*
X188699875Y-108044409D01*
X188699875Y-108044409D02*
X187699875Y-108044409D01*
X188699875Y-105663456D02*
X188699875Y-105711076D01*
X188699875Y-105711076D02*
X188652256Y-105806314D01*
X188652256Y-105806314D02*
X188509398Y-105949171D01*
X188509398Y-105949171D02*
X188223684Y-106187266D01*
X188223684Y-106187266D02*
X188080827Y-106282504D01*
X188080827Y-106282504D02*
X187937970Y-106330123D01*
X187937970Y-106330123D02*
X187842732Y-106330123D01*
X187842732Y-106330123D02*
X187747494Y-106282504D01*
X187747494Y-106282504D02*
X187699875Y-106187266D01*
X187699875Y-106187266D02*
X187699875Y-106139647D01*
X187699875Y-106139647D02*
X187747494Y-106044409D01*
X187747494Y-106044409D02*
X187842732Y-105996790D01*
X187842732Y-105996790D02*
X187890351Y-105996790D01*
X187890351Y-105996790D02*
X187985589Y-106044409D01*
X187985589Y-106044409D02*
X188033208Y-106092028D01*
X188033208Y-106092028D02*
X188223684Y-106377742D01*
X188223684Y-106377742D02*
X188271303Y-106425361D01*
X188271303Y-106425361D02*
X188366541Y-106472980D01*
X188366541Y-106472980D02*
X188509398Y-106472980D01*
X188509398Y-106472980D02*
X188604636Y-106425361D01*
X188604636Y-106425361D02*
X188652256Y-106377742D01*
X188652256Y-106377742D02*
X188699875Y-106282504D01*
X188699875Y-106282504D02*
X188699875Y-106139647D01*
X188699875Y-106139647D02*
X188652256Y-106044409D01*
X188652256Y-106044409D02*
X188604636Y-105996790D01*
X188604636Y-105996790D02*
X188414160Y-105853933D01*
X188414160Y-105853933D02*
X188271303Y-105806314D01*
X188271303Y-105806314D02*
X188176065Y-105806314D01*
X188604636Y-103901552D02*
X188652256Y-103949171D01*
X188652256Y-103949171D02*
X188699875Y-104092028D01*
X188699875Y-104092028D02*
X188699875Y-104187266D01*
X188699875Y-104187266D02*
X188652256Y-104330123D01*
X188652256Y-104330123D02*
X188557017Y-104425361D01*
X188557017Y-104425361D02*
X188461779Y-104472980D01*
X188461779Y-104472980D02*
X188271303Y-104520599D01*
X188271303Y-104520599D02*
X188128446Y-104520599D01*
X188128446Y-104520599D02*
X187937970Y-104472980D01*
X187937970Y-104472980D02*
X187842732Y-104425361D01*
X187842732Y-104425361D02*
X187747494Y-104330123D01*
X187747494Y-104330123D02*
X187699875Y-104187266D01*
X187699875Y-104187266D02*
X187699875Y-104092028D01*
X187699875Y-104092028D02*
X187747494Y-103949171D01*
X187747494Y-103949171D02*
X187795113Y-103901552D01*
X187699875Y-103282504D02*
X187699875Y-103092028D01*
X187699875Y-103092028D02*
X187747494Y-102996790D01*
X187747494Y-102996790D02*
X187842732Y-102901552D01*
X187842732Y-102901552D02*
X188033208Y-102853933D01*
X188033208Y-102853933D02*
X188366541Y-102853933D01*
X188366541Y-102853933D02*
X188557017Y-102901552D01*
X188557017Y-102901552D02*
X188652256Y-102996790D01*
X188652256Y-102996790D02*
X188699875Y-103092028D01*
X188699875Y-103092028D02*
X188699875Y-103282504D01*
X188699875Y-103282504D02*
X188652256Y-103377742D01*
X188652256Y-103377742D02*
X188557017Y-103472980D01*
X188557017Y-103472980D02*
X188366541Y-103520599D01*
X188366541Y-103520599D02*
X188033208Y-103520599D01*
X188033208Y-103520599D02*
X187842732Y-103472980D01*
X187842732Y-103472980D02*
X187747494Y-103377742D01*
X187747494Y-103377742D02*
X187699875Y-103282504D01*
X188699875Y-102425361D02*
X187699875Y-102425361D01*
X187699875Y-102425361D02*
X188414160Y-102092028D01*
X188414160Y-102092028D02*
X187699875Y-101758695D01*
X187699875Y-101758695D02*
X188699875Y-101758695D01*
X188699875Y-101282504D02*
X187699875Y-101282504D01*
X187699875Y-101282504D02*
X187699875Y-100901552D01*
X187699875Y-100901552D02*
X187747494Y-100806314D01*
X187747494Y-100806314D02*
X187795113Y-100758695D01*
X187795113Y-100758695D02*
X187890351Y-100711076D01*
X187890351Y-100711076D02*
X188033208Y-100711076D01*
X188033208Y-100711076D02*
X188128446Y-100758695D01*
X188128446Y-100758695D02*
X188176065Y-100806314D01*
X188176065Y-100806314D02*
X188223684Y-100901552D01*
X188223684Y-100901552D02*
X188223684Y-101282504D01*
X187699875Y-100282504D02*
X188509398Y-100282504D01*
X188509398Y-100282504D02*
X188604636Y-100234885D01*
X188604636Y-100234885D02*
X188652256Y-100187266D01*
X188652256Y-100187266D02*
X188699875Y-100092028D01*
X188699875Y-100092028D02*
X188699875Y-99901552D01*
X188699875Y-99901552D02*
X188652256Y-99806314D01*
X188652256Y-99806314D02*
X188604636Y-99758695D01*
X188604636Y-99758695D02*
X188509398Y-99711076D01*
X188509398Y-99711076D02*
X187699875Y-99711076D01*
X187699875Y-99377742D02*
X187699875Y-98806314D01*
X188699875Y-99092028D02*
X187699875Y-99092028D01*
X188176065Y-98472980D02*
X188176065Y-98139647D01*
X188699875Y-97996790D02*
X188699875Y-98472980D01*
X188699875Y-98472980D02*
X187699875Y-98472980D01*
X187699875Y-98472980D02*
X187699875Y-97996790D01*
X188699875Y-96996790D02*
X188223684Y-97330123D01*
X188699875Y-97568218D02*
X187699875Y-97568218D01*
X187699875Y-97568218D02*
X187699875Y-97187266D01*
X187699875Y-97187266D02*
X187747494Y-97092028D01*
X187747494Y-97092028D02*
X187795113Y-97044409D01*
X187795113Y-97044409D02*
X187890351Y-96996790D01*
X187890351Y-96996790D02*
X188033208Y-96996790D01*
X188033208Y-96996790D02*
X188128446Y-97044409D01*
X188128446Y-97044409D02*
X188176065Y-97092028D01*
X188176065Y-97092028D02*
X188223684Y-97187266D01*
X188223684Y-97187266D02*
X188223684Y-97568218D01*
X188176065Y-95806313D02*
X188176065Y-95472980D01*
X188699875Y-95330123D02*
X188699875Y-95806313D01*
X188699875Y-95806313D02*
X187699875Y-95806313D01*
X187699875Y-95806313D02*
X187699875Y-95330123D01*
X188699875Y-94901551D02*
X187699875Y-94901551D01*
X187699875Y-94901551D02*
X188699875Y-94330123D01*
X188699875Y-94330123D02*
X187699875Y-94330123D01*
X187747494Y-93330123D02*
X187699875Y-93425361D01*
X187699875Y-93425361D02*
X187699875Y-93568218D01*
X187699875Y-93568218D02*
X187747494Y-93711075D01*
X187747494Y-93711075D02*
X187842732Y-93806313D01*
X187842732Y-93806313D02*
X187937970Y-93853932D01*
X187937970Y-93853932D02*
X188128446Y-93901551D01*
X188128446Y-93901551D02*
X188271303Y-93901551D01*
X188271303Y-93901551D02*
X188461779Y-93853932D01*
X188461779Y-93853932D02*
X188557017Y-93806313D01*
X188557017Y-93806313D02*
X188652256Y-93711075D01*
X188652256Y-93711075D02*
X188699875Y-93568218D01*
X188699875Y-93568218D02*
X188699875Y-93472980D01*
X188699875Y-93472980D02*
X188652256Y-93330123D01*
X188652256Y-93330123D02*
X188604636Y-93282504D01*
X188604636Y-93282504D02*
X188271303Y-93282504D01*
X188271303Y-93282504D02*
X188271303Y-93472980D01*
X188699875Y-92853932D02*
X187699875Y-92853932D01*
X188699875Y-92377742D02*
X187699875Y-92377742D01*
X187699875Y-92377742D02*
X188699875Y-91806314D01*
X188699875Y-91806314D02*
X187699875Y-91806314D01*
X188176065Y-91330123D02*
X188176065Y-90996790D01*
X188699875Y-90853933D02*
X188699875Y-91330123D01*
X188699875Y-91330123D02*
X187699875Y-91330123D01*
X187699875Y-91330123D02*
X187699875Y-90853933D01*
X188176065Y-90425361D02*
X188176065Y-90092028D01*
X188699875Y-89949171D02*
X188699875Y-90425361D01*
X188699875Y-90425361D02*
X187699875Y-90425361D01*
X187699875Y-90425361D02*
X187699875Y-89949171D01*
X188699875Y-88949171D02*
X188223684Y-89282504D01*
X188699875Y-89520599D02*
X187699875Y-89520599D01*
X187699875Y-89520599D02*
X187699875Y-89139647D01*
X187699875Y-89139647D02*
X187747494Y-89044409D01*
X187747494Y-89044409D02*
X187795113Y-88996790D01*
X187795113Y-88996790D02*
X187890351Y-88949171D01*
X187890351Y-88949171D02*
X188033208Y-88949171D01*
X188033208Y-88949171D02*
X188128446Y-88996790D01*
X188128446Y-88996790D02*
X188176065Y-89044409D01*
X188176065Y-89044409D02*
X188223684Y-89139647D01*
X188223684Y-89139647D02*
X188223684Y-89520599D01*
X188699875Y-88520599D02*
X187699875Y-88520599D01*
X188699875Y-88044409D02*
X187699875Y-88044409D01*
X187699875Y-88044409D02*
X188699875Y-87472981D01*
X188699875Y-87472981D02*
X187699875Y-87472981D01*
X187747494Y-86472981D02*
X187699875Y-86568219D01*
X187699875Y-86568219D02*
X187699875Y-86711076D01*
X187699875Y-86711076D02*
X187747494Y-86853933D01*
X187747494Y-86853933D02*
X187842732Y-86949171D01*
X187842732Y-86949171D02*
X187937970Y-86996790D01*
X187937970Y-86996790D02*
X188128446Y-87044409D01*
X188128446Y-87044409D02*
X188271303Y-87044409D01*
X188271303Y-87044409D02*
X188461779Y-86996790D01*
X188461779Y-86996790D02*
X188557017Y-86949171D01*
X188557017Y-86949171D02*
X188652256Y-86853933D01*
X188652256Y-86853933D02*
X188699875Y-86711076D01*
X188699875Y-86711076D02*
X188699875Y-86615838D01*
X188699875Y-86615838D02*
X188652256Y-86472981D01*
X188652256Y-86472981D02*
X188604636Y-86425362D01*
X188604636Y-86425362D02*
X188271303Y-86425362D01*
X188271303Y-86425362D02*
X188271303Y-86615838D01*
X189309819Y-128711077D02*
X189309819Y-128139649D01*
X190309819Y-128425363D02*
X189309819Y-128425363D01*
X189786009Y-127806315D02*
X189786009Y-127472982D01*
X190309819Y-127330125D02*
X190309819Y-127806315D01*
X190309819Y-127806315D02*
X189309819Y-127806315D01*
X189309819Y-127806315D02*
X189309819Y-127330125D01*
X190024104Y-126949172D02*
X190024104Y-126472982D01*
X190309819Y-127044410D02*
X189309819Y-126711077D01*
X189309819Y-126711077D02*
X190309819Y-126377744D01*
X190309819Y-126044410D02*
X189309819Y-126044410D01*
X189309819Y-126044410D02*
X190024104Y-125711077D01*
X190024104Y-125711077D02*
X189309819Y-125377744D01*
X189309819Y-125377744D02*
X190309819Y-125377744D01*
X189786009Y-123806315D02*
X189833628Y-123663458D01*
X189833628Y-123663458D02*
X189881247Y-123615839D01*
X189881247Y-123615839D02*
X189976485Y-123568220D01*
X189976485Y-123568220D02*
X190119342Y-123568220D01*
X190119342Y-123568220D02*
X190214580Y-123615839D01*
X190214580Y-123615839D02*
X190262200Y-123663458D01*
X190262200Y-123663458D02*
X190309819Y-123758696D01*
X190309819Y-123758696D02*
X190309819Y-124139648D01*
X190309819Y-124139648D02*
X189309819Y-124139648D01*
X189309819Y-124139648D02*
X189309819Y-123806315D01*
X189309819Y-123806315D02*
X189357438Y-123711077D01*
X189357438Y-123711077D02*
X189405057Y-123663458D01*
X189405057Y-123663458D02*
X189500295Y-123615839D01*
X189500295Y-123615839D02*
X189595533Y-123615839D01*
X189595533Y-123615839D02*
X189690771Y-123663458D01*
X189690771Y-123663458D02*
X189738390Y-123711077D01*
X189738390Y-123711077D02*
X189786009Y-123806315D01*
X189786009Y-123806315D02*
X189786009Y-124139648D01*
X189309819Y-122949172D02*
X189309819Y-122758696D01*
X189309819Y-122758696D02*
X189357438Y-122663458D01*
X189357438Y-122663458D02*
X189452676Y-122568220D01*
X189452676Y-122568220D02*
X189643152Y-122520601D01*
X189643152Y-122520601D02*
X189976485Y-122520601D01*
X189976485Y-122520601D02*
X190166961Y-122568220D01*
X190166961Y-122568220D02*
X190262200Y-122663458D01*
X190262200Y-122663458D02*
X190309819Y-122758696D01*
X190309819Y-122758696D02*
X190309819Y-122949172D01*
X190309819Y-122949172D02*
X190262200Y-123044410D01*
X190262200Y-123044410D02*
X190166961Y-123139648D01*
X190166961Y-123139648D02*
X189976485Y-123187267D01*
X189976485Y-123187267D02*
X189643152Y-123187267D01*
X189643152Y-123187267D02*
X189452676Y-123139648D01*
X189452676Y-123139648D02*
X189357438Y-123044410D01*
X189357438Y-123044410D02*
X189309819Y-122949172D01*
X189309819Y-121901553D02*
X189309819Y-121711077D01*
X189309819Y-121711077D02*
X189357438Y-121615839D01*
X189357438Y-121615839D02*
X189452676Y-121520601D01*
X189452676Y-121520601D02*
X189643152Y-121472982D01*
X189643152Y-121472982D02*
X189976485Y-121472982D01*
X189976485Y-121472982D02*
X190166961Y-121520601D01*
X190166961Y-121520601D02*
X190262200Y-121615839D01*
X190262200Y-121615839D02*
X190309819Y-121711077D01*
X190309819Y-121711077D02*
X190309819Y-121901553D01*
X190309819Y-121901553D02*
X190262200Y-121996791D01*
X190262200Y-121996791D02*
X190166961Y-122092029D01*
X190166961Y-122092029D02*
X189976485Y-122139648D01*
X189976485Y-122139648D02*
X189643152Y-122139648D01*
X189643152Y-122139648D02*
X189452676Y-122092029D01*
X189452676Y-122092029D02*
X189357438Y-121996791D01*
X189357438Y-121996791D02*
X189309819Y-121901553D01*
X190309819Y-121044410D02*
X189309819Y-121044410D01*
X189309819Y-121044410D02*
X190024104Y-120711077D01*
X190024104Y-120711077D02*
X189309819Y-120377744D01*
X189309819Y-120377744D02*
X190309819Y-120377744D01*
X190214580Y-119901553D02*
X190262200Y-119853934D01*
X190262200Y-119853934D02*
X190309819Y-119901553D01*
X190309819Y-119901553D02*
X190262200Y-119949172D01*
X190262200Y-119949172D02*
X190214580Y-119901553D01*
X190214580Y-119901553D02*
X190309819Y-119901553D01*
X189690771Y-119901553D02*
X189738390Y-119853934D01*
X189738390Y-119853934D02*
X189786009Y-119901553D01*
X189786009Y-119901553D02*
X189738390Y-119949172D01*
X189738390Y-119949172D02*
X189690771Y-119901553D01*
X189690771Y-119901553D02*
X189786009Y-119901553D01*
X190024104Y-118711077D02*
X190024104Y-118234887D01*
X190309819Y-118806315D02*
X189309819Y-118472982D01*
X189309819Y-118472982D02*
X190309819Y-118139649D01*
X190309819Y-117806315D02*
X189309819Y-117806315D01*
X189309819Y-117806315D02*
X190024104Y-117472982D01*
X190024104Y-117472982D02*
X189309819Y-117139649D01*
X189309819Y-117139649D02*
X190309819Y-117139649D01*
X190309819Y-116663458D02*
X189309819Y-116663458D01*
X189309819Y-116663458D02*
X189309819Y-116282506D01*
X189309819Y-116282506D02*
X189357438Y-116187268D01*
X189357438Y-116187268D02*
X189405057Y-116139649D01*
X189405057Y-116139649D02*
X189500295Y-116092030D01*
X189500295Y-116092030D02*
X189643152Y-116092030D01*
X189643152Y-116092030D02*
X189738390Y-116139649D01*
X189738390Y-116139649D02*
X189786009Y-116187268D01*
X189786009Y-116187268D02*
X189833628Y-116282506D01*
X189833628Y-116282506D02*
X189833628Y-116663458D01*
X190309819Y-115187268D02*
X190309819Y-115663458D01*
X190309819Y-115663458D02*
X189309819Y-115663458D01*
X190309819Y-114853934D02*
X189309819Y-114853934D01*
X189786009Y-114044411D02*
X189786009Y-114377744D01*
X190309819Y-114377744D02*
X189309819Y-114377744D01*
X189309819Y-114377744D02*
X189309819Y-113901554D01*
X190309819Y-113520601D02*
X189309819Y-113520601D01*
X189786009Y-113044411D02*
X189786009Y-112711078D01*
X190309819Y-112568221D02*
X190309819Y-113044411D01*
X190309819Y-113044411D02*
X189309819Y-113044411D01*
X189309819Y-113044411D02*
X189309819Y-112568221D01*
X190309819Y-111568221D02*
X189833628Y-111901554D01*
X190309819Y-112139649D02*
X189309819Y-112139649D01*
X189309819Y-112139649D02*
X189309819Y-111758697D01*
X189309819Y-111758697D02*
X189357438Y-111663459D01*
X189357438Y-111663459D02*
X189405057Y-111615840D01*
X189405057Y-111615840D02*
X189500295Y-111568221D01*
X189500295Y-111568221D02*
X189643152Y-111568221D01*
X189643152Y-111568221D02*
X189738390Y-111615840D01*
X189738390Y-111615840D02*
X189786009Y-111663459D01*
X189786009Y-111663459D02*
X189833628Y-111758697D01*
X189833628Y-111758697D02*
X189833628Y-112139649D01*
X190309819Y-110377744D02*
X189309819Y-110377744D01*
X189309819Y-110377744D02*
X190024104Y-110044411D01*
X190024104Y-110044411D02*
X189309819Y-109711078D01*
X189309819Y-109711078D02*
X190309819Y-109711078D01*
X189309819Y-109044411D02*
X189309819Y-108853935D01*
X189309819Y-108853935D02*
X189357438Y-108758697D01*
X189357438Y-108758697D02*
X189452676Y-108663459D01*
X189452676Y-108663459D02*
X189643152Y-108615840D01*
X189643152Y-108615840D02*
X189976485Y-108615840D01*
X189976485Y-108615840D02*
X190166961Y-108663459D01*
X190166961Y-108663459D02*
X190262200Y-108758697D01*
X190262200Y-108758697D02*
X190309819Y-108853935D01*
X190309819Y-108853935D02*
X190309819Y-109044411D01*
X190309819Y-109044411D02*
X190262200Y-109139649D01*
X190262200Y-109139649D02*
X190166961Y-109234887D01*
X190166961Y-109234887D02*
X189976485Y-109282506D01*
X189976485Y-109282506D02*
X189643152Y-109282506D01*
X189643152Y-109282506D02*
X189452676Y-109234887D01*
X189452676Y-109234887D02*
X189357438Y-109139649D01*
X189357438Y-109139649D02*
X189309819Y-109044411D01*
X190309819Y-108187268D02*
X189309819Y-108187268D01*
X189309819Y-108187268D02*
X189309819Y-107949173D01*
X189309819Y-107949173D02*
X189357438Y-107806316D01*
X189357438Y-107806316D02*
X189452676Y-107711078D01*
X189452676Y-107711078D02*
X189547914Y-107663459D01*
X189547914Y-107663459D02*
X189738390Y-107615840D01*
X189738390Y-107615840D02*
X189881247Y-107615840D01*
X189881247Y-107615840D02*
X190071723Y-107663459D01*
X190071723Y-107663459D02*
X190166961Y-107711078D01*
X190166961Y-107711078D02*
X190262200Y-107806316D01*
X190262200Y-107806316D02*
X190309819Y-107949173D01*
X190309819Y-107949173D02*
X190309819Y-108187268D01*
X189309819Y-107187268D02*
X190119342Y-107187268D01*
X190119342Y-107187268D02*
X190214580Y-107139649D01*
X190214580Y-107139649D02*
X190262200Y-107092030D01*
X190262200Y-107092030D02*
X190309819Y-106996792D01*
X190309819Y-106996792D02*
X190309819Y-106806316D01*
X190309819Y-106806316D02*
X190262200Y-106711078D01*
X190262200Y-106711078D02*
X190214580Y-106663459D01*
X190214580Y-106663459D02*
X190119342Y-106615840D01*
X190119342Y-106615840D02*
X189309819Y-106615840D01*
X190309819Y-105663459D02*
X190309819Y-106139649D01*
X190309819Y-106139649D02*
X189309819Y-106139649D01*
X189786009Y-105330125D02*
X189786009Y-104996792D01*
X190309819Y-104853935D02*
X190309819Y-105330125D01*
X190309819Y-105330125D02*
X189309819Y-105330125D01*
X189309819Y-105330125D02*
X189309819Y-104853935D01*
X190262200Y-104377744D02*
X190309819Y-104377744D01*
X190309819Y-104377744D02*
X190405057Y-104425363D01*
X190405057Y-104425363D02*
X190452676Y-104472982D01*
X190309819Y-102615840D02*
X189833628Y-102949173D01*
X190309819Y-103187268D02*
X189309819Y-103187268D01*
X189309819Y-103187268D02*
X189309819Y-102806316D01*
X189309819Y-102806316D02*
X189357438Y-102711078D01*
X189357438Y-102711078D02*
X189405057Y-102663459D01*
X189405057Y-102663459D02*
X189500295Y-102615840D01*
X189500295Y-102615840D02*
X189643152Y-102615840D01*
X189643152Y-102615840D02*
X189738390Y-102663459D01*
X189738390Y-102663459D02*
X189786009Y-102711078D01*
X189786009Y-102711078D02*
X189833628Y-102806316D01*
X189833628Y-102806316D02*
X189833628Y-103187268D01*
X189786009Y-102187268D02*
X189786009Y-101853935D01*
X190309819Y-101711078D02*
X190309819Y-102187268D01*
X190309819Y-102187268D02*
X189309819Y-102187268D01*
X189309819Y-102187268D02*
X189309819Y-101711078D01*
X189309819Y-101425363D02*
X190309819Y-101092030D01*
X190309819Y-101092030D02*
X189309819Y-100758697D01*
X189928866Y-100425363D02*
X189928866Y-99663459D01*
X69633333Y-127199819D02*
X69300000Y-126723628D01*
X69061905Y-127199819D02*
X69061905Y-126199819D01*
X69061905Y-126199819D02*
X69442857Y-126199819D01*
X69442857Y-126199819D02*
X69538095Y-126247438D01*
X69538095Y-126247438D02*
X69585714Y-126295057D01*
X69585714Y-126295057D02*
X69633333Y-126390295D01*
X69633333Y-126390295D02*
X69633333Y-126533152D01*
X69633333Y-126533152D02*
X69585714Y-126628390D01*
X69585714Y-126628390D02*
X69538095Y-126676009D01*
X69538095Y-126676009D02*
X69442857Y-126723628D01*
X69442857Y-126723628D02*
X69061905Y-126723628D01*
X70204762Y-126628390D02*
X70109524Y-126580771D01*
X70109524Y-126580771D02*
X70061905Y-126533152D01*
X70061905Y-126533152D02*
X70014286Y-126437914D01*
X70014286Y-126437914D02*
X70014286Y-126390295D01*
X70014286Y-126390295D02*
X70061905Y-126295057D01*
X70061905Y-126295057D02*
X70109524Y-126247438D01*
X70109524Y-126247438D02*
X70204762Y-126199819D01*
X70204762Y-126199819D02*
X70395238Y-126199819D01*
X70395238Y-126199819D02*
X70490476Y-126247438D01*
X70490476Y-126247438D02*
X70538095Y-126295057D01*
X70538095Y-126295057D02*
X70585714Y-126390295D01*
X70585714Y-126390295D02*
X70585714Y-126437914D01*
X70585714Y-126437914D02*
X70538095Y-126533152D01*
X70538095Y-126533152D02*
X70490476Y-126580771D01*
X70490476Y-126580771D02*
X70395238Y-126628390D01*
X70395238Y-126628390D02*
X70204762Y-126628390D01*
X70204762Y-126628390D02*
X70109524Y-126676009D01*
X70109524Y-126676009D02*
X70061905Y-126723628D01*
X70061905Y-126723628D02*
X70014286Y-126818866D01*
X70014286Y-126818866D02*
X70014286Y-127009342D01*
X70014286Y-127009342D02*
X70061905Y-127104580D01*
X70061905Y-127104580D02*
X70109524Y-127152200D01*
X70109524Y-127152200D02*
X70204762Y-127199819D01*
X70204762Y-127199819D02*
X70395238Y-127199819D01*
X70395238Y-127199819D02*
X70490476Y-127152200D01*
X70490476Y-127152200D02*
X70538095Y-127104580D01*
X70538095Y-127104580D02*
X70585714Y-127009342D01*
X70585714Y-127009342D02*
X70585714Y-126818866D01*
X70585714Y-126818866D02*
X70538095Y-126723628D01*
X70538095Y-126723628D02*
X70490476Y-126676009D01*
X70490476Y-126676009D02*
X70395238Y-126628390D01*
X100037942Y-89134619D02*
X99704609Y-88658428D01*
X99466514Y-89134619D02*
X99466514Y-88134619D01*
X99466514Y-88134619D02*
X99847466Y-88134619D01*
X99847466Y-88134619D02*
X99942704Y-88182238D01*
X99942704Y-88182238D02*
X99990323Y-88229857D01*
X99990323Y-88229857D02*
X100037942Y-88325095D01*
X100037942Y-88325095D02*
X100037942Y-88467952D01*
X100037942Y-88467952D02*
X99990323Y-88563190D01*
X99990323Y-88563190D02*
X99942704Y-88610809D01*
X99942704Y-88610809D02*
X99847466Y-88658428D01*
X99847466Y-88658428D02*
X99466514Y-88658428D01*
X100990323Y-89134619D02*
X100418895Y-89134619D01*
X100704609Y-89134619D02*
X100704609Y-88134619D01*
X100704609Y-88134619D02*
X100609371Y-88277476D01*
X100609371Y-88277476D02*
X100514133Y-88372714D01*
X100514133Y-88372714D02*
X100418895Y-88420333D01*
X101847466Y-88467952D02*
X101847466Y-89134619D01*
X101609371Y-88087000D02*
X101371276Y-88801285D01*
X101371276Y-88801285D02*
X101990323Y-88801285D01*
X157903895Y-128719619D02*
X158475323Y-128719619D01*
X158189609Y-129719619D02*
X158189609Y-128719619D01*
X158808657Y-129719619D02*
X158808657Y-128719619D01*
X158808657Y-128719619D02*
X159189609Y-128719619D01*
X159189609Y-128719619D02*
X159284847Y-128767238D01*
X159284847Y-128767238D02*
X159332466Y-128814857D01*
X159332466Y-128814857D02*
X159380085Y-128910095D01*
X159380085Y-128910095D02*
X159380085Y-129052952D01*
X159380085Y-129052952D02*
X159332466Y-129148190D01*
X159332466Y-129148190D02*
X159284847Y-129195809D01*
X159284847Y-129195809D02*
X159189609Y-129243428D01*
X159189609Y-129243428D02*
X158808657Y-129243428D01*
X160332466Y-129719619D02*
X159761038Y-129719619D01*
X160046752Y-129719619D02*
X160046752Y-128719619D01*
X160046752Y-128719619D02*
X159951514Y-128862476D01*
X159951514Y-128862476D02*
X159856276Y-128957714D01*
X159856276Y-128957714D02*
X159761038Y-129005333D01*
X74637942Y-79579619D02*
X74304609Y-79103428D01*
X74066514Y-79579619D02*
X74066514Y-78579619D01*
X74066514Y-78579619D02*
X74447466Y-78579619D01*
X74447466Y-78579619D02*
X74542704Y-78627238D01*
X74542704Y-78627238D02*
X74590323Y-78674857D01*
X74590323Y-78674857D02*
X74637942Y-78770095D01*
X74637942Y-78770095D02*
X74637942Y-78912952D01*
X74637942Y-78912952D02*
X74590323Y-79008190D01*
X74590323Y-79008190D02*
X74542704Y-79055809D01*
X74542704Y-79055809D02*
X74447466Y-79103428D01*
X74447466Y-79103428D02*
X74066514Y-79103428D01*
X75590323Y-79579619D02*
X75018895Y-79579619D01*
X75304609Y-79579619D02*
X75304609Y-78579619D01*
X75304609Y-78579619D02*
X75209371Y-78722476D01*
X75209371Y-78722476D02*
X75114133Y-78817714D01*
X75114133Y-78817714D02*
X75018895Y-78865333D01*
X75971276Y-78674857D02*
X76018895Y-78627238D01*
X76018895Y-78627238D02*
X76114133Y-78579619D01*
X76114133Y-78579619D02*
X76352228Y-78579619D01*
X76352228Y-78579619D02*
X76447466Y-78627238D01*
X76447466Y-78627238D02*
X76495085Y-78674857D01*
X76495085Y-78674857D02*
X76542704Y-78770095D01*
X76542704Y-78770095D02*
X76542704Y-78865333D01*
X76542704Y-78865333D02*
X76495085Y-79008190D01*
X76495085Y-79008190D02*
X75923657Y-79579619D01*
X75923657Y-79579619D02*
X76542704Y-79579619D01*
X162710380Y-105861466D02*
X162758000Y-105909085D01*
X162758000Y-105909085D02*
X162805619Y-106051942D01*
X162805619Y-106051942D02*
X162805619Y-106147180D01*
X162805619Y-106147180D02*
X162758000Y-106290037D01*
X162758000Y-106290037D02*
X162662761Y-106385275D01*
X162662761Y-106385275D02*
X162567523Y-106432894D01*
X162567523Y-106432894D02*
X162377047Y-106480513D01*
X162377047Y-106480513D02*
X162234190Y-106480513D01*
X162234190Y-106480513D02*
X162043714Y-106432894D01*
X162043714Y-106432894D02*
X161948476Y-106385275D01*
X161948476Y-106385275D02*
X161853238Y-106290037D01*
X161853238Y-106290037D02*
X161805619Y-106147180D01*
X161805619Y-106147180D02*
X161805619Y-106051942D01*
X161805619Y-106051942D02*
X161853238Y-105909085D01*
X161853238Y-105909085D02*
X161900857Y-105861466D01*
X162805619Y-104909085D02*
X162805619Y-105480513D01*
X162805619Y-105194799D02*
X161805619Y-105194799D01*
X161805619Y-105194799D02*
X161948476Y-105290037D01*
X161948476Y-105290037D02*
X162043714Y-105385275D01*
X162043714Y-105385275D02*
X162091333Y-105480513D01*
X45618495Y-67180619D02*
X45618495Y-66180619D01*
X45618495Y-66656809D02*
X46189923Y-66656809D01*
X46189923Y-67180619D02*
X46189923Y-66180619D01*
X47189923Y-67180619D02*
X46618495Y-67180619D01*
X46904209Y-67180619D02*
X46904209Y-66180619D01*
X46904209Y-66180619D02*
X46808971Y-66323476D01*
X46808971Y-66323476D02*
X46713733Y-66418714D01*
X46713733Y-66418714D02*
X46618495Y-66466333D01*
X41198895Y-131902619D02*
X41198895Y-130902619D01*
X41198895Y-131378809D02*
X41770323Y-131378809D01*
X41770323Y-131902619D02*
X41770323Y-130902619D01*
X42151276Y-130902619D02*
X42770323Y-130902619D01*
X42770323Y-130902619D02*
X42436990Y-131283571D01*
X42436990Y-131283571D02*
X42579847Y-131283571D01*
X42579847Y-131283571D02*
X42675085Y-131331190D01*
X42675085Y-131331190D02*
X42722704Y-131378809D01*
X42722704Y-131378809D02*
X42770323Y-131474047D01*
X42770323Y-131474047D02*
X42770323Y-131712142D01*
X42770323Y-131712142D02*
X42722704Y-131807380D01*
X42722704Y-131807380D02*
X42675085Y-131855000D01*
X42675085Y-131855000D02*
X42579847Y-131902619D01*
X42579847Y-131902619D02*
X42294133Y-131902619D01*
X42294133Y-131902619D02*
X42198895Y-131855000D01*
X42198895Y-131855000D02*
X42151276Y-131807380D01*
X132224819Y-98757857D02*
X131748628Y-99091190D01*
X132224819Y-99329285D02*
X131224819Y-99329285D01*
X131224819Y-99329285D02*
X131224819Y-98948333D01*
X131224819Y-98948333D02*
X131272438Y-98853095D01*
X131272438Y-98853095D02*
X131320057Y-98805476D01*
X131320057Y-98805476D02*
X131415295Y-98757857D01*
X131415295Y-98757857D02*
X131558152Y-98757857D01*
X131558152Y-98757857D02*
X131653390Y-98805476D01*
X131653390Y-98805476D02*
X131701009Y-98853095D01*
X131701009Y-98853095D02*
X131748628Y-98948333D01*
X131748628Y-98948333D02*
X131748628Y-99329285D01*
X132224819Y-97805476D02*
X132224819Y-98376904D01*
X132224819Y-98091190D02*
X131224819Y-98091190D01*
X131224819Y-98091190D02*
X131367676Y-98186428D01*
X131367676Y-98186428D02*
X131462914Y-98281666D01*
X131462914Y-98281666D02*
X131510533Y-98376904D01*
X131224819Y-96900714D02*
X131224819Y-97376904D01*
X131224819Y-97376904D02*
X131701009Y-97424523D01*
X131701009Y-97424523D02*
X131653390Y-97376904D01*
X131653390Y-97376904D02*
X131605771Y-97281666D01*
X131605771Y-97281666D02*
X131605771Y-97043571D01*
X131605771Y-97043571D02*
X131653390Y-96948333D01*
X131653390Y-96948333D02*
X131701009Y-96900714D01*
X131701009Y-96900714D02*
X131796247Y-96853095D01*
X131796247Y-96853095D02*
X132034342Y-96853095D01*
X132034342Y-96853095D02*
X132129580Y-96900714D01*
X132129580Y-96900714D02*
X132177200Y-96948333D01*
X132177200Y-96948333D02*
X132224819Y-97043571D01*
X132224819Y-97043571D02*
X132224819Y-97281666D01*
X132224819Y-97281666D02*
X132177200Y-97376904D01*
X132177200Y-97376904D02*
X132129580Y-97424523D01*
X72505619Y-101813133D02*
X73219904Y-101813133D01*
X73219904Y-101813133D02*
X73362761Y-101860752D01*
X73362761Y-101860752D02*
X73458000Y-101955990D01*
X73458000Y-101955990D02*
X73505619Y-102098847D01*
X73505619Y-102098847D02*
X73505619Y-102194085D01*
X72505619Y-101432180D02*
X72505619Y-100813133D01*
X72505619Y-100813133D02*
X72886571Y-101146466D01*
X72886571Y-101146466D02*
X72886571Y-101003609D01*
X72886571Y-101003609D02*
X72934190Y-100908371D01*
X72934190Y-100908371D02*
X72981809Y-100860752D01*
X72981809Y-100860752D02*
X73077047Y-100813133D01*
X73077047Y-100813133D02*
X73315142Y-100813133D01*
X73315142Y-100813133D02*
X73410380Y-100860752D01*
X73410380Y-100860752D02*
X73458000Y-100908371D01*
X73458000Y-100908371D02*
X73505619Y-101003609D01*
X73505619Y-101003609D02*
X73505619Y-101289323D01*
X73505619Y-101289323D02*
X73458000Y-101384561D01*
X73458000Y-101384561D02*
X73410380Y-101432180D01*
X186537695Y-131953419D02*
X186537695Y-130953419D01*
X186537695Y-131429609D02*
X187109123Y-131429609D01*
X187109123Y-131953419D02*
X187109123Y-130953419D01*
X188013885Y-131286752D02*
X188013885Y-131953419D01*
X187775790Y-130905800D02*
X187537695Y-131620085D01*
X187537695Y-131620085D02*
X188156742Y-131620085D01*
X182439295Y-66764219D02*
X182439295Y-65764219D01*
X182439295Y-66240409D02*
X183010723Y-66240409D01*
X183010723Y-66764219D02*
X183010723Y-65764219D01*
X183439295Y-65859457D02*
X183486914Y-65811838D01*
X183486914Y-65811838D02*
X183582152Y-65764219D01*
X183582152Y-65764219D02*
X183820247Y-65764219D01*
X183820247Y-65764219D02*
X183915485Y-65811838D01*
X183915485Y-65811838D02*
X183963104Y-65859457D01*
X183963104Y-65859457D02*
X184010723Y-65954695D01*
X184010723Y-65954695D02*
X184010723Y-66049933D01*
X184010723Y-66049933D02*
X183963104Y-66192790D01*
X183963104Y-66192790D02*
X183391676Y-66764219D01*
X183391676Y-66764219D02*
X184010723Y-66764219D01*
X132265619Y-116771466D02*
X131789428Y-117104799D01*
X132265619Y-117342894D02*
X131265619Y-117342894D01*
X131265619Y-117342894D02*
X131265619Y-116961942D01*
X131265619Y-116961942D02*
X131313238Y-116866704D01*
X131313238Y-116866704D02*
X131360857Y-116819085D01*
X131360857Y-116819085D02*
X131456095Y-116771466D01*
X131456095Y-116771466D02*
X131598952Y-116771466D01*
X131598952Y-116771466D02*
X131694190Y-116819085D01*
X131694190Y-116819085D02*
X131741809Y-116866704D01*
X131741809Y-116866704D02*
X131789428Y-116961942D01*
X131789428Y-116961942D02*
X131789428Y-117342894D01*
X131265619Y-116438132D02*
X131265619Y-115819085D01*
X131265619Y-115819085D02*
X131646571Y-116152418D01*
X131646571Y-116152418D02*
X131646571Y-116009561D01*
X131646571Y-116009561D02*
X131694190Y-115914323D01*
X131694190Y-115914323D02*
X131741809Y-115866704D01*
X131741809Y-115866704D02*
X131837047Y-115819085D01*
X131837047Y-115819085D02*
X132075142Y-115819085D01*
X132075142Y-115819085D02*
X132170380Y-115866704D01*
X132170380Y-115866704D02*
X132218000Y-115914323D01*
X132218000Y-115914323D02*
X132265619Y-116009561D01*
X132265619Y-116009561D02*
X132265619Y-116295275D01*
X132265619Y-116295275D02*
X132218000Y-116390513D01*
X132218000Y-116390513D02*
X132170380Y-116438132D01*
X50464133Y-125779380D02*
X50416514Y-125827000D01*
X50416514Y-125827000D02*
X50273657Y-125874619D01*
X50273657Y-125874619D02*
X50178419Y-125874619D01*
X50178419Y-125874619D02*
X50035562Y-125827000D01*
X50035562Y-125827000D02*
X49940324Y-125731761D01*
X49940324Y-125731761D02*
X49892705Y-125636523D01*
X49892705Y-125636523D02*
X49845086Y-125446047D01*
X49845086Y-125446047D02*
X49845086Y-125303190D01*
X49845086Y-125303190D02*
X49892705Y-125112714D01*
X49892705Y-125112714D02*
X49940324Y-125017476D01*
X49940324Y-125017476D02*
X50035562Y-124922238D01*
X50035562Y-124922238D02*
X50178419Y-124874619D01*
X50178419Y-124874619D02*
X50273657Y-124874619D01*
X50273657Y-124874619D02*
X50416514Y-124922238D01*
X50416514Y-124922238D02*
X50464133Y-124969857D01*
X50797467Y-124874619D02*
X51416514Y-124874619D01*
X51416514Y-124874619D02*
X51083181Y-125255571D01*
X51083181Y-125255571D02*
X51226038Y-125255571D01*
X51226038Y-125255571D02*
X51321276Y-125303190D01*
X51321276Y-125303190D02*
X51368895Y-125350809D01*
X51368895Y-125350809D02*
X51416514Y-125446047D01*
X51416514Y-125446047D02*
X51416514Y-125684142D01*
X51416514Y-125684142D02*
X51368895Y-125779380D01*
X51368895Y-125779380D02*
X51321276Y-125827000D01*
X51321276Y-125827000D02*
X51226038Y-125874619D01*
X51226038Y-125874619D02*
X50940324Y-125874619D01*
X50940324Y-125874619D02*
X50845086Y-125827000D01*
X50845086Y-125827000D02*
X50797467Y-125779380D01*
X68115619Y-72162657D02*
X67639428Y-72495990D01*
X68115619Y-72734085D02*
X67115619Y-72734085D01*
X67115619Y-72734085D02*
X67115619Y-72353133D01*
X67115619Y-72353133D02*
X67163238Y-72257895D01*
X67163238Y-72257895D02*
X67210857Y-72210276D01*
X67210857Y-72210276D02*
X67306095Y-72162657D01*
X67306095Y-72162657D02*
X67448952Y-72162657D01*
X67448952Y-72162657D02*
X67544190Y-72210276D01*
X67544190Y-72210276D02*
X67591809Y-72257895D01*
X67591809Y-72257895D02*
X67639428Y-72353133D01*
X67639428Y-72353133D02*
X67639428Y-72734085D01*
X68115619Y-71210276D02*
X68115619Y-71781704D01*
X68115619Y-71495990D02*
X67115619Y-71495990D01*
X67115619Y-71495990D02*
X67258476Y-71591228D01*
X67258476Y-71591228D02*
X67353714Y-71686466D01*
X67353714Y-71686466D02*
X67401333Y-71781704D01*
X68115619Y-70257895D02*
X68115619Y-70829323D01*
X68115619Y-70543609D02*
X67115619Y-70543609D01*
X67115619Y-70543609D02*
X67258476Y-70638847D01*
X67258476Y-70638847D02*
X67353714Y-70734085D01*
X67353714Y-70734085D02*
X67401333Y-70829323D01*
X128425619Y-107881466D02*
X127949428Y-108214799D01*
X128425619Y-108452894D02*
X127425619Y-108452894D01*
X127425619Y-108452894D02*
X127425619Y-108071942D01*
X127425619Y-108071942D02*
X127473238Y-107976704D01*
X127473238Y-107976704D02*
X127520857Y-107929085D01*
X127520857Y-107929085D02*
X127616095Y-107881466D01*
X127616095Y-107881466D02*
X127758952Y-107881466D01*
X127758952Y-107881466D02*
X127854190Y-107929085D01*
X127854190Y-107929085D02*
X127901809Y-107976704D01*
X127901809Y-107976704D02*
X127949428Y-108071942D01*
X127949428Y-108071942D02*
X127949428Y-108452894D01*
X127520857Y-107500513D02*
X127473238Y-107452894D01*
X127473238Y-107452894D02*
X127425619Y-107357656D01*
X127425619Y-107357656D02*
X127425619Y-107119561D01*
X127425619Y-107119561D02*
X127473238Y-107024323D01*
X127473238Y-107024323D02*
X127520857Y-106976704D01*
X127520857Y-106976704D02*
X127616095Y-106929085D01*
X127616095Y-106929085D02*
X127711333Y-106929085D01*
X127711333Y-106929085D02*
X127854190Y-106976704D01*
X127854190Y-106976704D02*
X128425619Y-107548132D01*
X128425619Y-107548132D02*
X128425619Y-106929085D01*
X50464133Y-71804380D02*
X50416514Y-71852000D01*
X50416514Y-71852000D02*
X50273657Y-71899619D01*
X50273657Y-71899619D02*
X50178419Y-71899619D01*
X50178419Y-71899619D02*
X50035562Y-71852000D01*
X50035562Y-71852000D02*
X49940324Y-71756761D01*
X49940324Y-71756761D02*
X49892705Y-71661523D01*
X49892705Y-71661523D02*
X49845086Y-71471047D01*
X49845086Y-71471047D02*
X49845086Y-71328190D01*
X49845086Y-71328190D02*
X49892705Y-71137714D01*
X49892705Y-71137714D02*
X49940324Y-71042476D01*
X49940324Y-71042476D02*
X50035562Y-70947238D01*
X50035562Y-70947238D02*
X50178419Y-70899619D01*
X50178419Y-70899619D02*
X50273657Y-70899619D01*
X50273657Y-70899619D02*
X50416514Y-70947238D01*
X50416514Y-70947238D02*
X50464133Y-70994857D01*
X51368895Y-70899619D02*
X50892705Y-70899619D01*
X50892705Y-70899619D02*
X50845086Y-71375809D01*
X50845086Y-71375809D02*
X50892705Y-71328190D01*
X50892705Y-71328190D02*
X50987943Y-71280571D01*
X50987943Y-71280571D02*
X51226038Y-71280571D01*
X51226038Y-71280571D02*
X51321276Y-71328190D01*
X51321276Y-71328190D02*
X51368895Y-71375809D01*
X51368895Y-71375809D02*
X51416514Y-71471047D01*
X51416514Y-71471047D02*
X51416514Y-71709142D01*
X51416514Y-71709142D02*
X51368895Y-71804380D01*
X51368895Y-71804380D02*
X51321276Y-71852000D01*
X51321276Y-71852000D02*
X51226038Y-71899619D01*
X51226038Y-71899619D02*
X50987943Y-71899619D01*
X50987943Y-71899619D02*
X50892705Y-71852000D01*
X50892705Y-71852000D02*
X50845086Y-71804380D01*
X97420857Y-71615038D02*
X97373238Y-71710276D01*
X97373238Y-71710276D02*
X97278000Y-71805514D01*
X97278000Y-71805514D02*
X97135142Y-71948371D01*
X97135142Y-71948371D02*
X97087523Y-72043609D01*
X97087523Y-72043609D02*
X97087523Y-72138847D01*
X97325619Y-72091228D02*
X97278000Y-72186466D01*
X97278000Y-72186466D02*
X97182761Y-72281704D01*
X97182761Y-72281704D02*
X96992285Y-72329323D01*
X96992285Y-72329323D02*
X96658952Y-72329323D01*
X96658952Y-72329323D02*
X96468476Y-72281704D01*
X96468476Y-72281704D02*
X96373238Y-72186466D01*
X96373238Y-72186466D02*
X96325619Y-72091228D01*
X96325619Y-72091228D02*
X96325619Y-71900752D01*
X96325619Y-71900752D02*
X96373238Y-71805514D01*
X96373238Y-71805514D02*
X96468476Y-71710276D01*
X96468476Y-71710276D02*
X96658952Y-71662657D01*
X96658952Y-71662657D02*
X96992285Y-71662657D01*
X96992285Y-71662657D02*
X97182761Y-71710276D01*
X97182761Y-71710276D02*
X97278000Y-71805514D01*
X97278000Y-71805514D02*
X97325619Y-71900752D01*
X97325619Y-71900752D02*
X97325619Y-72091228D01*
X96325619Y-70805514D02*
X96325619Y-70995990D01*
X96325619Y-70995990D02*
X96373238Y-71091228D01*
X96373238Y-71091228D02*
X96420857Y-71138847D01*
X96420857Y-71138847D02*
X96563714Y-71234085D01*
X96563714Y-71234085D02*
X96754190Y-71281704D01*
X96754190Y-71281704D02*
X97135142Y-71281704D01*
X97135142Y-71281704D02*
X97230380Y-71234085D01*
X97230380Y-71234085D02*
X97278000Y-71186466D01*
X97278000Y-71186466D02*
X97325619Y-71091228D01*
X97325619Y-71091228D02*
X97325619Y-70900752D01*
X97325619Y-70900752D02*
X97278000Y-70805514D01*
X97278000Y-70805514D02*
X97230380Y-70757895D01*
X97230380Y-70757895D02*
X97135142Y-70710276D01*
X97135142Y-70710276D02*
X96897047Y-70710276D01*
X96897047Y-70710276D02*
X96801809Y-70757895D01*
X96801809Y-70757895D02*
X96754190Y-70805514D01*
X96754190Y-70805514D02*
X96706571Y-70900752D01*
X96706571Y-70900752D02*
X96706571Y-71091228D01*
X96706571Y-71091228D02*
X96754190Y-71186466D01*
X96754190Y-71186466D02*
X96801809Y-71234085D01*
X96801809Y-71234085D02*
X96897047Y-71281704D01*
X92460619Y-88767894D02*
X91460619Y-88767894D01*
X91460619Y-88767894D02*
X91460619Y-88529799D01*
X91460619Y-88529799D02*
X91508238Y-88386942D01*
X91508238Y-88386942D02*
X91603476Y-88291704D01*
X91603476Y-88291704D02*
X91698714Y-88244085D01*
X91698714Y-88244085D02*
X91889190Y-88196466D01*
X91889190Y-88196466D02*
X92032047Y-88196466D01*
X92032047Y-88196466D02*
X92222523Y-88244085D01*
X92222523Y-88244085D02*
X92317761Y-88291704D01*
X92317761Y-88291704D02*
X92413000Y-88386942D01*
X92413000Y-88386942D02*
X92460619Y-88529799D01*
X92460619Y-88529799D02*
X92460619Y-88767894D01*
X91460619Y-87863132D02*
X91460619Y-87244085D01*
X91460619Y-87244085D02*
X91841571Y-87577418D01*
X91841571Y-87577418D02*
X91841571Y-87434561D01*
X91841571Y-87434561D02*
X91889190Y-87339323D01*
X91889190Y-87339323D02*
X91936809Y-87291704D01*
X91936809Y-87291704D02*
X92032047Y-87244085D01*
X92032047Y-87244085D02*
X92270142Y-87244085D01*
X92270142Y-87244085D02*
X92365380Y-87291704D01*
X92365380Y-87291704D02*
X92413000Y-87339323D01*
X92413000Y-87339323D02*
X92460619Y-87434561D01*
X92460619Y-87434561D02*
X92460619Y-87720275D01*
X92460619Y-87720275D02*
X92413000Y-87815513D01*
X92413000Y-87815513D02*
X92365380Y-87863132D01*
X92140619Y-84481704D02*
X91140619Y-84481704D01*
X92140619Y-83910276D02*
X91569190Y-84338847D01*
X91140619Y-83910276D02*
X91712047Y-84481704D01*
X113180380Y-73476466D02*
X113228000Y-73524085D01*
X113228000Y-73524085D02*
X113275619Y-73666942D01*
X113275619Y-73666942D02*
X113275619Y-73762180D01*
X113275619Y-73762180D02*
X113228000Y-73905037D01*
X113228000Y-73905037D02*
X113132761Y-74000275D01*
X113132761Y-74000275D02*
X113037523Y-74047894D01*
X113037523Y-74047894D02*
X112847047Y-74095513D01*
X112847047Y-74095513D02*
X112704190Y-74095513D01*
X112704190Y-74095513D02*
X112513714Y-74047894D01*
X112513714Y-74047894D02*
X112418476Y-74000275D01*
X112418476Y-74000275D02*
X112323238Y-73905037D01*
X112323238Y-73905037D02*
X112275619Y-73762180D01*
X112275619Y-73762180D02*
X112275619Y-73666942D01*
X112275619Y-73666942D02*
X112323238Y-73524085D01*
X112323238Y-73524085D02*
X112370857Y-73476466D01*
X112275619Y-72619323D02*
X112275619Y-72809799D01*
X112275619Y-72809799D02*
X112323238Y-72905037D01*
X112323238Y-72905037D02*
X112370857Y-72952656D01*
X112370857Y-72952656D02*
X112513714Y-73047894D01*
X112513714Y-73047894D02*
X112704190Y-73095513D01*
X112704190Y-73095513D02*
X113085142Y-73095513D01*
X113085142Y-73095513D02*
X113180380Y-73047894D01*
X113180380Y-73047894D02*
X113228000Y-73000275D01*
X113228000Y-73000275D02*
X113275619Y-72905037D01*
X113275619Y-72905037D02*
X113275619Y-72714561D01*
X113275619Y-72714561D02*
X113228000Y-72619323D01*
X113228000Y-72619323D02*
X113180380Y-72571704D01*
X113180380Y-72571704D02*
X113085142Y-72524085D01*
X113085142Y-72524085D02*
X112847047Y-72524085D01*
X112847047Y-72524085D02*
X112751809Y-72571704D01*
X112751809Y-72571704D02*
X112704190Y-72619323D01*
X112704190Y-72619323D02*
X112656571Y-72714561D01*
X112656571Y-72714561D02*
X112656571Y-72905037D01*
X112656571Y-72905037D02*
X112704190Y-73000275D01*
X112704190Y-73000275D02*
X112751809Y-73047894D01*
X112751809Y-73047894D02*
X112847047Y-73095513D01*
X60032942Y-77069619D02*
X59699609Y-76593428D01*
X59461514Y-77069619D02*
X59461514Y-76069619D01*
X59461514Y-76069619D02*
X59842466Y-76069619D01*
X59842466Y-76069619D02*
X59937704Y-76117238D01*
X59937704Y-76117238D02*
X59985323Y-76164857D01*
X59985323Y-76164857D02*
X60032942Y-76260095D01*
X60032942Y-76260095D02*
X60032942Y-76402952D01*
X60032942Y-76402952D02*
X59985323Y-76498190D01*
X59985323Y-76498190D02*
X59937704Y-76545809D01*
X59937704Y-76545809D02*
X59842466Y-76593428D01*
X59842466Y-76593428D02*
X59461514Y-76593428D01*
X60985323Y-77069619D02*
X60413895Y-77069619D01*
X60699609Y-77069619D02*
X60699609Y-76069619D01*
X60699609Y-76069619D02*
X60604371Y-76212476D01*
X60604371Y-76212476D02*
X60509133Y-76307714D01*
X60509133Y-76307714D02*
X60413895Y-76355333D01*
X61604371Y-76069619D02*
X61699609Y-76069619D01*
X61699609Y-76069619D02*
X61794847Y-76117238D01*
X61794847Y-76117238D02*
X61842466Y-76164857D01*
X61842466Y-76164857D02*
X61890085Y-76260095D01*
X61890085Y-76260095D02*
X61937704Y-76450571D01*
X61937704Y-76450571D02*
X61937704Y-76688666D01*
X61937704Y-76688666D02*
X61890085Y-76879142D01*
X61890085Y-76879142D02*
X61842466Y-76974380D01*
X61842466Y-76974380D02*
X61794847Y-77022000D01*
X61794847Y-77022000D02*
X61699609Y-77069619D01*
X61699609Y-77069619D02*
X61604371Y-77069619D01*
X61604371Y-77069619D02*
X61509133Y-77022000D01*
X61509133Y-77022000D02*
X61461514Y-76974380D01*
X61461514Y-76974380D02*
X61413895Y-76879142D01*
X61413895Y-76879142D02*
X61366276Y-76688666D01*
X61366276Y-76688666D02*
X61366276Y-76450571D01*
X61366276Y-76450571D02*
X61413895Y-76260095D01*
X61413895Y-76260095D02*
X61461514Y-76164857D01*
X61461514Y-76164857D02*
X61509133Y-76117238D01*
X61509133Y-76117238D02*
X61604371Y-76069619D01*
X111009580Y-133104266D02*
X111057200Y-133151885D01*
X111057200Y-133151885D02*
X111104819Y-133294742D01*
X111104819Y-133294742D02*
X111104819Y-133389980D01*
X111104819Y-133389980D02*
X111057200Y-133532837D01*
X111057200Y-133532837D02*
X110961961Y-133628075D01*
X110961961Y-133628075D02*
X110866723Y-133675694D01*
X110866723Y-133675694D02*
X110676247Y-133723313D01*
X110676247Y-133723313D02*
X110533390Y-133723313D01*
X110533390Y-133723313D02*
X110342914Y-133675694D01*
X110342914Y-133675694D02*
X110247676Y-133628075D01*
X110247676Y-133628075D02*
X110152438Y-133532837D01*
X110152438Y-133532837D02*
X110104819Y-133389980D01*
X110104819Y-133389980D02*
X110104819Y-133294742D01*
X110104819Y-133294742D02*
X110152438Y-133151885D01*
X110152438Y-133151885D02*
X110200057Y-133104266D01*
X110438152Y-132247123D02*
X111104819Y-132247123D01*
X110057200Y-132485218D02*
X110771485Y-132723313D01*
X110771485Y-132723313D02*
X110771485Y-132104266D01*
X59874133Y-131044619D02*
X59540800Y-130568428D01*
X59302705Y-131044619D02*
X59302705Y-130044619D01*
X59302705Y-130044619D02*
X59683657Y-130044619D01*
X59683657Y-130044619D02*
X59778895Y-130092238D01*
X59778895Y-130092238D02*
X59826514Y-130139857D01*
X59826514Y-130139857D02*
X59874133Y-130235095D01*
X59874133Y-130235095D02*
X59874133Y-130377952D01*
X59874133Y-130377952D02*
X59826514Y-130473190D01*
X59826514Y-130473190D02*
X59778895Y-130520809D01*
X59778895Y-130520809D02*
X59683657Y-130568428D01*
X59683657Y-130568428D02*
X59302705Y-130568428D01*
X60731276Y-130044619D02*
X60540800Y-130044619D01*
X60540800Y-130044619D02*
X60445562Y-130092238D01*
X60445562Y-130092238D02*
X60397943Y-130139857D01*
X60397943Y-130139857D02*
X60302705Y-130282714D01*
X60302705Y-130282714D02*
X60255086Y-130473190D01*
X60255086Y-130473190D02*
X60255086Y-130854142D01*
X60255086Y-130854142D02*
X60302705Y-130949380D01*
X60302705Y-130949380D02*
X60350324Y-130997000D01*
X60350324Y-130997000D02*
X60445562Y-131044619D01*
X60445562Y-131044619D02*
X60636038Y-131044619D01*
X60636038Y-131044619D02*
X60731276Y-130997000D01*
X60731276Y-130997000D02*
X60778895Y-130949380D01*
X60778895Y-130949380D02*
X60826514Y-130854142D01*
X60826514Y-130854142D02*
X60826514Y-130616047D01*
X60826514Y-130616047D02*
X60778895Y-130520809D01*
X60778895Y-130520809D02*
X60731276Y-130473190D01*
X60731276Y-130473190D02*
X60636038Y-130425571D01*
X60636038Y-130425571D02*
X60445562Y-130425571D01*
X60445562Y-130425571D02*
X60350324Y-130473190D01*
X60350324Y-130473190D02*
X60302705Y-130520809D01*
X60302705Y-130520809D02*
X60255086Y-130616047D01*
X148700857Y-75026228D02*
X148653238Y-75121466D01*
X148653238Y-75121466D02*
X148558000Y-75216704D01*
X148558000Y-75216704D02*
X148415142Y-75359561D01*
X148415142Y-75359561D02*
X148367523Y-75454799D01*
X148367523Y-75454799D02*
X148367523Y-75550037D01*
X148605619Y-75502418D02*
X148558000Y-75597656D01*
X148558000Y-75597656D02*
X148462761Y-75692894D01*
X148462761Y-75692894D02*
X148272285Y-75740513D01*
X148272285Y-75740513D02*
X147938952Y-75740513D01*
X147938952Y-75740513D02*
X147748476Y-75692894D01*
X147748476Y-75692894D02*
X147653238Y-75597656D01*
X147653238Y-75597656D02*
X147605619Y-75502418D01*
X147605619Y-75502418D02*
X147605619Y-75311942D01*
X147605619Y-75311942D02*
X147653238Y-75216704D01*
X147653238Y-75216704D02*
X147748476Y-75121466D01*
X147748476Y-75121466D02*
X147938952Y-75073847D01*
X147938952Y-75073847D02*
X148272285Y-75073847D01*
X148272285Y-75073847D02*
X148462761Y-75121466D01*
X148462761Y-75121466D02*
X148558000Y-75216704D01*
X148558000Y-75216704D02*
X148605619Y-75311942D01*
X148605619Y-75311942D02*
X148605619Y-75502418D01*
X148605619Y-74121466D02*
X148605619Y-74692894D01*
X148605619Y-74407180D02*
X147605619Y-74407180D01*
X147605619Y-74407180D02*
X147748476Y-74502418D01*
X147748476Y-74502418D02*
X147843714Y-74597656D01*
X147843714Y-74597656D02*
X147891333Y-74692894D01*
X147605619Y-73502418D02*
X147605619Y-73407180D01*
X147605619Y-73407180D02*
X147653238Y-73311942D01*
X147653238Y-73311942D02*
X147700857Y-73264323D01*
X147700857Y-73264323D02*
X147796095Y-73216704D01*
X147796095Y-73216704D02*
X147986571Y-73169085D01*
X147986571Y-73169085D02*
X148224666Y-73169085D01*
X148224666Y-73169085D02*
X148415142Y-73216704D01*
X148415142Y-73216704D02*
X148510380Y-73264323D01*
X148510380Y-73264323D02*
X148558000Y-73311942D01*
X148558000Y-73311942D02*
X148605619Y-73407180D01*
X148605619Y-73407180D02*
X148605619Y-73502418D01*
X148605619Y-73502418D02*
X148558000Y-73597656D01*
X148558000Y-73597656D02*
X148510380Y-73645275D01*
X148510380Y-73645275D02*
X148415142Y-73692894D01*
X148415142Y-73692894D02*
X148224666Y-73740513D01*
X148224666Y-73740513D02*
X147986571Y-73740513D01*
X147986571Y-73740513D02*
X147796095Y-73692894D01*
X147796095Y-73692894D02*
X147700857Y-73645275D01*
X147700857Y-73645275D02*
X147653238Y-73597656D01*
X147653238Y-73597656D02*
X147605619Y-73502418D01*
X170109580Y-105681666D02*
X170157200Y-105729285D01*
X170157200Y-105729285D02*
X170204819Y-105872142D01*
X170204819Y-105872142D02*
X170204819Y-105967380D01*
X170204819Y-105967380D02*
X170157200Y-106110237D01*
X170157200Y-106110237D02*
X170061961Y-106205475D01*
X170061961Y-106205475D02*
X169966723Y-106253094D01*
X169966723Y-106253094D02*
X169776247Y-106300713D01*
X169776247Y-106300713D02*
X169633390Y-106300713D01*
X169633390Y-106300713D02*
X169442914Y-106253094D01*
X169442914Y-106253094D02*
X169347676Y-106205475D01*
X169347676Y-106205475D02*
X169252438Y-106110237D01*
X169252438Y-106110237D02*
X169204819Y-105967380D01*
X169204819Y-105967380D02*
X169204819Y-105872142D01*
X169204819Y-105872142D02*
X169252438Y-105729285D01*
X169252438Y-105729285D02*
X169300057Y-105681666D01*
X169204819Y-105348332D02*
X169204819Y-104681666D01*
X169204819Y-104681666D02*
X170204819Y-105110237D01*
X88220619Y-119247894D02*
X87220619Y-119247894D01*
X87220619Y-119247894D02*
X87220619Y-119009799D01*
X87220619Y-119009799D02*
X87268238Y-118866942D01*
X87268238Y-118866942D02*
X87363476Y-118771704D01*
X87363476Y-118771704D02*
X87458714Y-118724085D01*
X87458714Y-118724085D02*
X87649190Y-118676466D01*
X87649190Y-118676466D02*
X87792047Y-118676466D01*
X87792047Y-118676466D02*
X87982523Y-118724085D01*
X87982523Y-118724085D02*
X88077761Y-118771704D01*
X88077761Y-118771704D02*
X88173000Y-118866942D01*
X88173000Y-118866942D02*
X88220619Y-119009799D01*
X88220619Y-119009799D02*
X88220619Y-119247894D01*
X88220619Y-117724085D02*
X88220619Y-118295513D01*
X88220619Y-118009799D02*
X87220619Y-118009799D01*
X87220619Y-118009799D02*
X87363476Y-118105037D01*
X87363476Y-118105037D02*
X87458714Y-118200275D01*
X87458714Y-118200275D02*
X87506333Y-118295513D01*
X88540619Y-122581704D02*
X87540619Y-122581704D01*
X88540619Y-122010276D02*
X87969190Y-122438847D01*
X87540619Y-122010276D02*
X88112047Y-122581704D01*
X123374133Y-134204619D02*
X123040800Y-133728428D01*
X122802705Y-134204619D02*
X122802705Y-133204619D01*
X122802705Y-133204619D02*
X123183657Y-133204619D01*
X123183657Y-133204619D02*
X123278895Y-133252238D01*
X123278895Y-133252238D02*
X123326514Y-133299857D01*
X123326514Y-133299857D02*
X123374133Y-133395095D01*
X123374133Y-133395095D02*
X123374133Y-133537952D01*
X123374133Y-133537952D02*
X123326514Y-133633190D01*
X123326514Y-133633190D02*
X123278895Y-133680809D01*
X123278895Y-133680809D02*
X123183657Y-133728428D01*
X123183657Y-133728428D02*
X122802705Y-133728428D01*
X123850324Y-134204619D02*
X124040800Y-134204619D01*
X124040800Y-134204619D02*
X124136038Y-134157000D01*
X124136038Y-134157000D02*
X124183657Y-134109380D01*
X124183657Y-134109380D02*
X124278895Y-133966523D01*
X124278895Y-133966523D02*
X124326514Y-133776047D01*
X124326514Y-133776047D02*
X124326514Y-133395095D01*
X124326514Y-133395095D02*
X124278895Y-133299857D01*
X124278895Y-133299857D02*
X124231276Y-133252238D01*
X124231276Y-133252238D02*
X124136038Y-133204619D01*
X124136038Y-133204619D02*
X123945562Y-133204619D01*
X123945562Y-133204619D02*
X123850324Y-133252238D01*
X123850324Y-133252238D02*
X123802705Y-133299857D01*
X123802705Y-133299857D02*
X123755086Y-133395095D01*
X123755086Y-133395095D02*
X123755086Y-133633190D01*
X123755086Y-133633190D02*
X123802705Y-133728428D01*
X123802705Y-133728428D02*
X123850324Y-133776047D01*
X123850324Y-133776047D02*
X123945562Y-133823666D01*
X123945562Y-133823666D02*
X124136038Y-133823666D01*
X124136038Y-133823666D02*
X124231276Y-133776047D01*
X124231276Y-133776047D02*
X124278895Y-133728428D01*
X124278895Y-133728428D02*
X124326514Y-133633190D01*
X183654819Y-102298333D02*
X184369104Y-102298333D01*
X184369104Y-102298333D02*
X184511961Y-102345952D01*
X184511961Y-102345952D02*
X184607200Y-102441190D01*
X184607200Y-102441190D02*
X184654819Y-102584047D01*
X184654819Y-102584047D02*
X184654819Y-102679285D01*
X184654819Y-101298333D02*
X184654819Y-101869761D01*
X184654819Y-101584047D02*
X183654819Y-101584047D01*
X183654819Y-101584047D02*
X183797676Y-101679285D01*
X183797676Y-101679285D02*
X183892914Y-101774523D01*
X183892914Y-101774523D02*
X183940533Y-101869761D01*
X111640857Y-86220038D02*
X111593238Y-86315276D01*
X111593238Y-86315276D02*
X111498000Y-86410514D01*
X111498000Y-86410514D02*
X111355142Y-86553371D01*
X111355142Y-86553371D02*
X111307523Y-86648609D01*
X111307523Y-86648609D02*
X111307523Y-86743847D01*
X111545619Y-86696228D02*
X111498000Y-86791466D01*
X111498000Y-86791466D02*
X111402761Y-86886704D01*
X111402761Y-86886704D02*
X111212285Y-86934323D01*
X111212285Y-86934323D02*
X110878952Y-86934323D01*
X110878952Y-86934323D02*
X110688476Y-86886704D01*
X110688476Y-86886704D02*
X110593238Y-86791466D01*
X110593238Y-86791466D02*
X110545619Y-86696228D01*
X110545619Y-86696228D02*
X110545619Y-86505752D01*
X110545619Y-86505752D02*
X110593238Y-86410514D01*
X110593238Y-86410514D02*
X110688476Y-86315276D01*
X110688476Y-86315276D02*
X110878952Y-86267657D01*
X110878952Y-86267657D02*
X111212285Y-86267657D01*
X111212285Y-86267657D02*
X111402761Y-86315276D01*
X111402761Y-86315276D02*
X111498000Y-86410514D01*
X111498000Y-86410514D02*
X111545619Y-86505752D01*
X111545619Y-86505752D02*
X111545619Y-86696228D01*
X110974190Y-85696228D02*
X110926571Y-85791466D01*
X110926571Y-85791466D02*
X110878952Y-85839085D01*
X110878952Y-85839085D02*
X110783714Y-85886704D01*
X110783714Y-85886704D02*
X110736095Y-85886704D01*
X110736095Y-85886704D02*
X110640857Y-85839085D01*
X110640857Y-85839085D02*
X110593238Y-85791466D01*
X110593238Y-85791466D02*
X110545619Y-85696228D01*
X110545619Y-85696228D02*
X110545619Y-85505752D01*
X110545619Y-85505752D02*
X110593238Y-85410514D01*
X110593238Y-85410514D02*
X110640857Y-85362895D01*
X110640857Y-85362895D02*
X110736095Y-85315276D01*
X110736095Y-85315276D02*
X110783714Y-85315276D01*
X110783714Y-85315276D02*
X110878952Y-85362895D01*
X110878952Y-85362895D02*
X110926571Y-85410514D01*
X110926571Y-85410514D02*
X110974190Y-85505752D01*
X110974190Y-85505752D02*
X110974190Y-85696228D01*
X110974190Y-85696228D02*
X111021809Y-85791466D01*
X111021809Y-85791466D02*
X111069428Y-85839085D01*
X111069428Y-85839085D02*
X111164666Y-85886704D01*
X111164666Y-85886704D02*
X111355142Y-85886704D01*
X111355142Y-85886704D02*
X111450380Y-85839085D01*
X111450380Y-85839085D02*
X111498000Y-85791466D01*
X111498000Y-85791466D02*
X111545619Y-85696228D01*
X111545619Y-85696228D02*
X111545619Y-85505752D01*
X111545619Y-85505752D02*
X111498000Y-85410514D01*
X111498000Y-85410514D02*
X111450380Y-85362895D01*
X111450380Y-85362895D02*
X111355142Y-85315276D01*
X111355142Y-85315276D02*
X111164666Y-85315276D01*
X111164666Y-85315276D02*
X111069428Y-85362895D01*
X111069428Y-85362895D02*
X111021809Y-85410514D01*
X111021809Y-85410514D02*
X110974190Y-85505752D01*
X128425619Y-77877657D02*
X127949428Y-78210990D01*
X128425619Y-78449085D02*
X127425619Y-78449085D01*
X127425619Y-78449085D02*
X127425619Y-78068133D01*
X127425619Y-78068133D02*
X127473238Y-77972895D01*
X127473238Y-77972895D02*
X127520857Y-77925276D01*
X127520857Y-77925276D02*
X127616095Y-77877657D01*
X127616095Y-77877657D02*
X127758952Y-77877657D01*
X127758952Y-77877657D02*
X127854190Y-77925276D01*
X127854190Y-77925276D02*
X127901809Y-77972895D01*
X127901809Y-77972895D02*
X127949428Y-78068133D01*
X127949428Y-78068133D02*
X127949428Y-78449085D01*
X128425619Y-76925276D02*
X128425619Y-77496704D01*
X128425619Y-77210990D02*
X127425619Y-77210990D01*
X127425619Y-77210990D02*
X127568476Y-77306228D01*
X127568476Y-77306228D02*
X127663714Y-77401466D01*
X127663714Y-77401466D02*
X127711333Y-77496704D01*
X127854190Y-76353847D02*
X127806571Y-76449085D01*
X127806571Y-76449085D02*
X127758952Y-76496704D01*
X127758952Y-76496704D02*
X127663714Y-76544323D01*
X127663714Y-76544323D02*
X127616095Y-76544323D01*
X127616095Y-76544323D02*
X127520857Y-76496704D01*
X127520857Y-76496704D02*
X127473238Y-76449085D01*
X127473238Y-76449085D02*
X127425619Y-76353847D01*
X127425619Y-76353847D02*
X127425619Y-76163371D01*
X127425619Y-76163371D02*
X127473238Y-76068133D01*
X127473238Y-76068133D02*
X127520857Y-76020514D01*
X127520857Y-76020514D02*
X127616095Y-75972895D01*
X127616095Y-75972895D02*
X127663714Y-75972895D01*
X127663714Y-75972895D02*
X127758952Y-76020514D01*
X127758952Y-76020514D02*
X127806571Y-76068133D01*
X127806571Y-76068133D02*
X127854190Y-76163371D01*
X127854190Y-76163371D02*
X127854190Y-76353847D01*
X127854190Y-76353847D02*
X127901809Y-76449085D01*
X127901809Y-76449085D02*
X127949428Y-76496704D01*
X127949428Y-76496704D02*
X128044666Y-76544323D01*
X128044666Y-76544323D02*
X128235142Y-76544323D01*
X128235142Y-76544323D02*
X128330380Y-76496704D01*
X128330380Y-76496704D02*
X128378000Y-76449085D01*
X128378000Y-76449085D02*
X128425619Y-76353847D01*
X128425619Y-76353847D02*
X128425619Y-76163371D01*
X128425619Y-76163371D02*
X128378000Y-76068133D01*
X128378000Y-76068133D02*
X128330380Y-76020514D01*
X128330380Y-76020514D02*
X128235142Y-75972895D01*
X128235142Y-75972895D02*
X128044666Y-75972895D01*
X128044666Y-75972895D02*
X127949428Y-76020514D01*
X127949428Y-76020514D02*
X127901809Y-76068133D01*
X127901809Y-76068133D02*
X127854190Y-76163371D01*
X57253333Y-111934819D02*
X56920000Y-111458628D01*
X56681905Y-111934819D02*
X56681905Y-110934819D01*
X56681905Y-110934819D02*
X57062857Y-110934819D01*
X57062857Y-110934819D02*
X57158095Y-110982438D01*
X57158095Y-110982438D02*
X57205714Y-111030057D01*
X57205714Y-111030057D02*
X57253333Y-111125295D01*
X57253333Y-111125295D02*
X57253333Y-111268152D01*
X57253333Y-111268152D02*
X57205714Y-111363390D01*
X57205714Y-111363390D02*
X57158095Y-111411009D01*
X57158095Y-111411009D02*
X57062857Y-111458628D01*
X57062857Y-111458628D02*
X56681905Y-111458628D01*
X57586667Y-110934819D02*
X58253333Y-110934819D01*
X58253333Y-110934819D02*
X57824762Y-111934819D01*
X111640857Y-109080038D02*
X111593238Y-109175276D01*
X111593238Y-109175276D02*
X111498000Y-109270514D01*
X111498000Y-109270514D02*
X111355142Y-109413371D01*
X111355142Y-109413371D02*
X111307523Y-109508609D01*
X111307523Y-109508609D02*
X111307523Y-109603847D01*
X111545619Y-109556228D02*
X111498000Y-109651466D01*
X111498000Y-109651466D02*
X111402761Y-109746704D01*
X111402761Y-109746704D02*
X111212285Y-109794323D01*
X111212285Y-109794323D02*
X110878952Y-109794323D01*
X110878952Y-109794323D02*
X110688476Y-109746704D01*
X110688476Y-109746704D02*
X110593238Y-109651466D01*
X110593238Y-109651466D02*
X110545619Y-109556228D01*
X110545619Y-109556228D02*
X110545619Y-109365752D01*
X110545619Y-109365752D02*
X110593238Y-109270514D01*
X110593238Y-109270514D02*
X110688476Y-109175276D01*
X110688476Y-109175276D02*
X110878952Y-109127657D01*
X110878952Y-109127657D02*
X111212285Y-109127657D01*
X111212285Y-109127657D02*
X111402761Y-109175276D01*
X111402761Y-109175276D02*
X111498000Y-109270514D01*
X111498000Y-109270514D02*
X111545619Y-109365752D01*
X111545619Y-109365752D02*
X111545619Y-109556228D01*
X111545619Y-108175276D02*
X111545619Y-108746704D01*
X111545619Y-108460990D02*
X110545619Y-108460990D01*
X110545619Y-108460990D02*
X110688476Y-108556228D01*
X110688476Y-108556228D02*
X110783714Y-108651466D01*
X110783714Y-108651466D02*
X110831333Y-108746704D01*
X128425619Y-88672657D02*
X127949428Y-89005990D01*
X128425619Y-89244085D02*
X127425619Y-89244085D01*
X127425619Y-89244085D02*
X127425619Y-88863133D01*
X127425619Y-88863133D02*
X127473238Y-88767895D01*
X127473238Y-88767895D02*
X127520857Y-88720276D01*
X127520857Y-88720276D02*
X127616095Y-88672657D01*
X127616095Y-88672657D02*
X127758952Y-88672657D01*
X127758952Y-88672657D02*
X127854190Y-88720276D01*
X127854190Y-88720276D02*
X127901809Y-88767895D01*
X127901809Y-88767895D02*
X127949428Y-88863133D01*
X127949428Y-88863133D02*
X127949428Y-89244085D01*
X128425619Y-87720276D02*
X128425619Y-88291704D01*
X128425619Y-88005990D02*
X127425619Y-88005990D01*
X127425619Y-88005990D02*
X127568476Y-88101228D01*
X127568476Y-88101228D02*
X127663714Y-88196466D01*
X127663714Y-88196466D02*
X127711333Y-88291704D01*
X127425619Y-87386942D02*
X127425619Y-86720276D01*
X127425619Y-86720276D02*
X128425619Y-87148847D01*
X150175857Y-113425038D02*
X150128238Y-113520276D01*
X150128238Y-113520276D02*
X150033000Y-113615514D01*
X150033000Y-113615514D02*
X149890142Y-113758371D01*
X149890142Y-113758371D02*
X149842523Y-113853609D01*
X149842523Y-113853609D02*
X149842523Y-113948847D01*
X150080619Y-113901228D02*
X150033000Y-113996466D01*
X150033000Y-113996466D02*
X149937761Y-114091704D01*
X149937761Y-114091704D02*
X149747285Y-114139323D01*
X149747285Y-114139323D02*
X149413952Y-114139323D01*
X149413952Y-114139323D02*
X149223476Y-114091704D01*
X149223476Y-114091704D02*
X149128238Y-113996466D01*
X149128238Y-113996466D02*
X149080619Y-113901228D01*
X149080619Y-113901228D02*
X149080619Y-113710752D01*
X149080619Y-113710752D02*
X149128238Y-113615514D01*
X149128238Y-113615514D02*
X149223476Y-113520276D01*
X149223476Y-113520276D02*
X149413952Y-113472657D01*
X149413952Y-113472657D02*
X149747285Y-113472657D01*
X149747285Y-113472657D02*
X149937761Y-113520276D01*
X149937761Y-113520276D02*
X150033000Y-113615514D01*
X150033000Y-113615514D02*
X150080619Y-113710752D01*
X150080619Y-113710752D02*
X150080619Y-113901228D01*
X150080619Y-112996466D02*
X150080619Y-112805990D01*
X150080619Y-112805990D02*
X150033000Y-112710752D01*
X150033000Y-112710752D02*
X149985380Y-112663133D01*
X149985380Y-112663133D02*
X149842523Y-112567895D01*
X149842523Y-112567895D02*
X149652047Y-112520276D01*
X149652047Y-112520276D02*
X149271095Y-112520276D01*
X149271095Y-112520276D02*
X149175857Y-112567895D01*
X149175857Y-112567895D02*
X149128238Y-112615514D01*
X149128238Y-112615514D02*
X149080619Y-112710752D01*
X149080619Y-112710752D02*
X149080619Y-112901228D01*
X149080619Y-112901228D02*
X149128238Y-112996466D01*
X149128238Y-112996466D02*
X149175857Y-113044085D01*
X149175857Y-113044085D02*
X149271095Y-113091704D01*
X149271095Y-113091704D02*
X149509190Y-113091704D01*
X149509190Y-113091704D02*
X149604428Y-113044085D01*
X149604428Y-113044085D02*
X149652047Y-112996466D01*
X149652047Y-112996466D02*
X149699666Y-112901228D01*
X149699666Y-112901228D02*
X149699666Y-112710752D01*
X149699666Y-112710752D02*
X149652047Y-112615514D01*
X149652047Y-112615514D02*
X149604428Y-112567895D01*
X149604428Y-112567895D02*
X149509190Y-112520276D01*
X157903895Y-82999619D02*
X158475323Y-82999619D01*
X158189609Y-83999619D02*
X158189609Y-82999619D01*
X158808657Y-83999619D02*
X158808657Y-82999619D01*
X158808657Y-82999619D02*
X159189609Y-82999619D01*
X159189609Y-82999619D02*
X159284847Y-83047238D01*
X159284847Y-83047238D02*
X159332466Y-83094857D01*
X159332466Y-83094857D02*
X159380085Y-83190095D01*
X159380085Y-83190095D02*
X159380085Y-83332952D01*
X159380085Y-83332952D02*
X159332466Y-83428190D01*
X159332466Y-83428190D02*
X159284847Y-83475809D01*
X159284847Y-83475809D02*
X159189609Y-83523428D01*
X159189609Y-83523428D02*
X158808657Y-83523428D01*
X159761038Y-83094857D02*
X159808657Y-83047238D01*
X159808657Y-83047238D02*
X159903895Y-82999619D01*
X159903895Y-82999619D02*
X160141990Y-82999619D01*
X160141990Y-82999619D02*
X160237228Y-83047238D01*
X160237228Y-83047238D02*
X160284847Y-83094857D01*
X160284847Y-83094857D02*
X160332466Y-83190095D01*
X160332466Y-83190095D02*
X160332466Y-83285333D01*
X160332466Y-83285333D02*
X160284847Y-83428190D01*
X160284847Y-83428190D02*
X159713419Y-83999619D01*
X159713419Y-83999619D02*
X160332466Y-83999619D01*
X92260619Y-107881466D02*
X91784428Y-108214799D01*
X92260619Y-108452894D02*
X91260619Y-108452894D01*
X91260619Y-108452894D02*
X91260619Y-108071942D01*
X91260619Y-108071942D02*
X91308238Y-107976704D01*
X91308238Y-107976704D02*
X91355857Y-107929085D01*
X91355857Y-107929085D02*
X91451095Y-107881466D01*
X91451095Y-107881466D02*
X91593952Y-107881466D01*
X91593952Y-107881466D02*
X91689190Y-107929085D01*
X91689190Y-107929085D02*
X91736809Y-107976704D01*
X91736809Y-107976704D02*
X91784428Y-108071942D01*
X91784428Y-108071942D02*
X91784428Y-108452894D01*
X92260619Y-106929085D02*
X92260619Y-107500513D01*
X92260619Y-107214799D02*
X91260619Y-107214799D01*
X91260619Y-107214799D02*
X91403476Y-107310037D01*
X91403476Y-107310037D02*
X91498714Y-107405275D01*
X91498714Y-107405275D02*
X91546333Y-107500513D01*
X111200057Y-96410238D02*
X111152438Y-96505476D01*
X111152438Y-96505476D02*
X111057200Y-96600714D01*
X111057200Y-96600714D02*
X110914342Y-96743571D01*
X110914342Y-96743571D02*
X110866723Y-96838809D01*
X110866723Y-96838809D02*
X110866723Y-96934047D01*
X111104819Y-96886428D02*
X111057200Y-96981666D01*
X111057200Y-96981666D02*
X110961961Y-97076904D01*
X110961961Y-97076904D02*
X110771485Y-97124523D01*
X110771485Y-97124523D02*
X110438152Y-97124523D01*
X110438152Y-97124523D02*
X110247676Y-97076904D01*
X110247676Y-97076904D02*
X110152438Y-96981666D01*
X110152438Y-96981666D02*
X110104819Y-96886428D01*
X110104819Y-96886428D02*
X110104819Y-96695952D01*
X110104819Y-96695952D02*
X110152438Y-96600714D01*
X110152438Y-96600714D02*
X110247676Y-96505476D01*
X110247676Y-96505476D02*
X110438152Y-96457857D01*
X110438152Y-96457857D02*
X110771485Y-96457857D01*
X110771485Y-96457857D02*
X110961961Y-96505476D01*
X110961961Y-96505476D02*
X111057200Y-96600714D01*
X111057200Y-96600714D02*
X111104819Y-96695952D01*
X111104819Y-96695952D02*
X111104819Y-96886428D01*
X110104819Y-96124523D02*
X110104819Y-95457857D01*
X110104819Y-95457857D02*
X111104819Y-95886428D01*
X46262619Y-116829733D02*
X46976904Y-116829733D01*
X46976904Y-116829733D02*
X47119761Y-116877352D01*
X47119761Y-116877352D02*
X47215000Y-116972590D01*
X47215000Y-116972590D02*
X47262619Y-117115447D01*
X47262619Y-117115447D02*
X47262619Y-117210685D01*
X46357857Y-116401161D02*
X46310238Y-116353542D01*
X46310238Y-116353542D02*
X46262619Y-116258304D01*
X46262619Y-116258304D02*
X46262619Y-116020209D01*
X46262619Y-116020209D02*
X46310238Y-115924971D01*
X46310238Y-115924971D02*
X46357857Y-115877352D01*
X46357857Y-115877352D02*
X46453095Y-115829733D01*
X46453095Y-115829733D02*
X46548333Y-115829733D01*
X46548333Y-115829733D02*
X46691190Y-115877352D01*
X46691190Y-115877352D02*
X47262619Y-116448780D01*
X47262619Y-116448780D02*
X47262619Y-115829733D01*
X92486019Y-76042494D02*
X91486019Y-76042494D01*
X91486019Y-76042494D02*
X91486019Y-75804399D01*
X91486019Y-75804399D02*
X91533638Y-75661542D01*
X91533638Y-75661542D02*
X91628876Y-75566304D01*
X91628876Y-75566304D02*
X91724114Y-75518685D01*
X91724114Y-75518685D02*
X91914590Y-75471066D01*
X91914590Y-75471066D02*
X92057447Y-75471066D01*
X92057447Y-75471066D02*
X92247923Y-75518685D01*
X92247923Y-75518685D02*
X92343161Y-75566304D01*
X92343161Y-75566304D02*
X92438400Y-75661542D01*
X92438400Y-75661542D02*
X92486019Y-75804399D01*
X92486019Y-75804399D02*
X92486019Y-76042494D01*
X91819352Y-74613923D02*
X92486019Y-74613923D01*
X91438400Y-74852018D02*
X92152685Y-75090113D01*
X92152685Y-75090113D02*
X92152685Y-74471066D01*
X92166019Y-71756304D02*
X91166019Y-71756304D01*
X92166019Y-71184876D02*
X91594590Y-71613447D01*
X91166019Y-71184876D02*
X91737447Y-71756304D01*
X103810057Y-130890238D02*
X103762438Y-130985476D01*
X103762438Y-130985476D02*
X103667200Y-131080714D01*
X103667200Y-131080714D02*
X103524342Y-131223571D01*
X103524342Y-131223571D02*
X103476723Y-131318809D01*
X103476723Y-131318809D02*
X103476723Y-131414047D01*
X103714819Y-131366428D02*
X103667200Y-131461666D01*
X103667200Y-131461666D02*
X103571961Y-131556904D01*
X103571961Y-131556904D02*
X103381485Y-131604523D01*
X103381485Y-131604523D02*
X103048152Y-131604523D01*
X103048152Y-131604523D02*
X102857676Y-131556904D01*
X102857676Y-131556904D02*
X102762438Y-131461666D01*
X102762438Y-131461666D02*
X102714819Y-131366428D01*
X102714819Y-131366428D02*
X102714819Y-131175952D01*
X102714819Y-131175952D02*
X102762438Y-131080714D01*
X102762438Y-131080714D02*
X102857676Y-130985476D01*
X102857676Y-130985476D02*
X103048152Y-130937857D01*
X103048152Y-130937857D02*
X103381485Y-130937857D01*
X103381485Y-130937857D02*
X103571961Y-130985476D01*
X103571961Y-130985476D02*
X103667200Y-131080714D01*
X103667200Y-131080714D02*
X103714819Y-131175952D01*
X103714819Y-131175952D02*
X103714819Y-131366428D01*
X102714819Y-130604523D02*
X102714819Y-129985476D01*
X102714819Y-129985476D02*
X103095771Y-130318809D01*
X103095771Y-130318809D02*
X103095771Y-130175952D01*
X103095771Y-130175952D02*
X103143390Y-130080714D01*
X103143390Y-130080714D02*
X103191009Y-130033095D01*
X103191009Y-130033095D02*
X103286247Y-129985476D01*
X103286247Y-129985476D02*
X103524342Y-129985476D01*
X103524342Y-129985476D02*
X103619580Y-130033095D01*
X103619580Y-130033095D02*
X103667200Y-130080714D01*
X103667200Y-130080714D02*
X103714819Y-130175952D01*
X103714819Y-130175952D02*
X103714819Y-130461666D01*
X103714819Y-130461666D02*
X103667200Y-130556904D01*
X103667200Y-130556904D02*
X103619580Y-130604523D01*
X141720857Y-131940038D02*
X141673238Y-132035276D01*
X141673238Y-132035276D02*
X141578000Y-132130514D01*
X141578000Y-132130514D02*
X141435142Y-132273371D01*
X141435142Y-132273371D02*
X141387523Y-132368609D01*
X141387523Y-132368609D02*
X141387523Y-132463847D01*
X141625619Y-132416228D02*
X141578000Y-132511466D01*
X141578000Y-132511466D02*
X141482761Y-132606704D01*
X141482761Y-132606704D02*
X141292285Y-132654323D01*
X141292285Y-132654323D02*
X140958952Y-132654323D01*
X140958952Y-132654323D02*
X140768476Y-132606704D01*
X140768476Y-132606704D02*
X140673238Y-132511466D01*
X140673238Y-132511466D02*
X140625619Y-132416228D01*
X140625619Y-132416228D02*
X140625619Y-132225752D01*
X140625619Y-132225752D02*
X140673238Y-132130514D01*
X140673238Y-132130514D02*
X140768476Y-132035276D01*
X140768476Y-132035276D02*
X140958952Y-131987657D01*
X140958952Y-131987657D02*
X141292285Y-131987657D01*
X141292285Y-131987657D02*
X141482761Y-132035276D01*
X141482761Y-132035276D02*
X141578000Y-132130514D01*
X141578000Y-132130514D02*
X141625619Y-132225752D01*
X141625619Y-132225752D02*
X141625619Y-132416228D01*
X140625619Y-131082895D02*
X140625619Y-131559085D01*
X140625619Y-131559085D02*
X141101809Y-131606704D01*
X141101809Y-131606704D02*
X141054190Y-131559085D01*
X141054190Y-131559085D02*
X141006571Y-131463847D01*
X141006571Y-131463847D02*
X141006571Y-131225752D01*
X141006571Y-131225752D02*
X141054190Y-131130514D01*
X141054190Y-131130514D02*
X141101809Y-131082895D01*
X141101809Y-131082895D02*
X141197047Y-131035276D01*
X141197047Y-131035276D02*
X141435142Y-131035276D01*
X141435142Y-131035276D02*
X141530380Y-131082895D01*
X141530380Y-131082895D02*
X141578000Y-131130514D01*
X141578000Y-131130514D02*
X141625619Y-131225752D01*
X141625619Y-131225752D02*
X141625619Y-131463847D01*
X141625619Y-131463847D02*
X141578000Y-131559085D01*
X141578000Y-131559085D02*
X141530380Y-131606704D01*
X170209374Y-73924580D02*
X170161755Y-73972200D01*
X170161755Y-73972200D02*
X170018898Y-74019819D01*
X170018898Y-74019819D02*
X169923660Y-74019819D01*
X169923660Y-74019819D02*
X169780803Y-73972200D01*
X169780803Y-73972200D02*
X169685565Y-73876961D01*
X169685565Y-73876961D02*
X169637946Y-73781723D01*
X169637946Y-73781723D02*
X169590327Y-73591247D01*
X169590327Y-73591247D02*
X169590327Y-73448390D01*
X169590327Y-73448390D02*
X169637946Y-73257914D01*
X169637946Y-73257914D02*
X169685565Y-73162676D01*
X169685565Y-73162676D02*
X169780803Y-73067438D01*
X169780803Y-73067438D02*
X169923660Y-73019819D01*
X169923660Y-73019819D02*
X170018898Y-73019819D01*
X170018898Y-73019819D02*
X170161755Y-73067438D01*
X170161755Y-73067438D02*
X170209374Y-73115057D01*
X170780803Y-73448390D02*
X170685565Y-73400771D01*
X170685565Y-73400771D02*
X170637946Y-73353152D01*
X170637946Y-73353152D02*
X170590327Y-73257914D01*
X170590327Y-73257914D02*
X170590327Y-73210295D01*
X170590327Y-73210295D02*
X170637946Y-73115057D01*
X170637946Y-73115057D02*
X170685565Y-73067438D01*
X170685565Y-73067438D02*
X170780803Y-73019819D01*
X170780803Y-73019819D02*
X170971279Y-73019819D01*
X170971279Y-73019819D02*
X171066517Y-73067438D01*
X171066517Y-73067438D02*
X171114136Y-73115057D01*
X171114136Y-73115057D02*
X171161755Y-73210295D01*
X171161755Y-73210295D02*
X171161755Y-73257914D01*
X171161755Y-73257914D02*
X171114136Y-73353152D01*
X171114136Y-73353152D02*
X171066517Y-73400771D01*
X171066517Y-73400771D02*
X170971279Y-73448390D01*
X170971279Y-73448390D02*
X170780803Y-73448390D01*
X170780803Y-73448390D02*
X170685565Y-73496009D01*
X170685565Y-73496009D02*
X170637946Y-73543628D01*
X170637946Y-73543628D02*
X170590327Y-73638866D01*
X170590327Y-73638866D02*
X170590327Y-73829342D01*
X170590327Y-73829342D02*
X170637946Y-73924580D01*
X170637946Y-73924580D02*
X170685565Y-73972200D01*
X170685565Y-73972200D02*
X170780803Y-74019819D01*
X170780803Y-74019819D02*
X170971279Y-74019819D01*
X170971279Y-74019819D02*
X171066517Y-73972200D01*
X171066517Y-73972200D02*
X171114136Y-73924580D01*
X171114136Y-73924580D02*
X171161755Y-73829342D01*
X171161755Y-73829342D02*
X171161755Y-73638866D01*
X171161755Y-73638866D02*
X171114136Y-73543628D01*
X171114136Y-73543628D02*
X171066517Y-73496009D01*
X171066517Y-73496009D02*
X170971279Y-73448390D01*
X118125857Y-121145038D02*
X118078238Y-121240276D01*
X118078238Y-121240276D02*
X117983000Y-121335514D01*
X117983000Y-121335514D02*
X117840142Y-121478371D01*
X117840142Y-121478371D02*
X117792523Y-121573609D01*
X117792523Y-121573609D02*
X117792523Y-121668847D01*
X118030619Y-121621228D02*
X117983000Y-121716466D01*
X117983000Y-121716466D02*
X117887761Y-121811704D01*
X117887761Y-121811704D02*
X117697285Y-121859323D01*
X117697285Y-121859323D02*
X117363952Y-121859323D01*
X117363952Y-121859323D02*
X117173476Y-121811704D01*
X117173476Y-121811704D02*
X117078238Y-121716466D01*
X117078238Y-121716466D02*
X117030619Y-121621228D01*
X117030619Y-121621228D02*
X117030619Y-121430752D01*
X117030619Y-121430752D02*
X117078238Y-121335514D01*
X117078238Y-121335514D02*
X117173476Y-121240276D01*
X117173476Y-121240276D02*
X117363952Y-121192657D01*
X117363952Y-121192657D02*
X117697285Y-121192657D01*
X117697285Y-121192657D02*
X117887761Y-121240276D01*
X117887761Y-121240276D02*
X117983000Y-121335514D01*
X117983000Y-121335514D02*
X118030619Y-121430752D01*
X118030619Y-121430752D02*
X118030619Y-121621228D01*
X117363952Y-120335514D02*
X118030619Y-120335514D01*
X116983000Y-120573609D02*
X117697285Y-120811704D01*
X117697285Y-120811704D02*
X117697285Y-120192657D01*
X88435619Y-99467657D02*
X87959428Y-99800990D01*
X88435619Y-100039085D02*
X87435619Y-100039085D01*
X87435619Y-100039085D02*
X87435619Y-99658133D01*
X87435619Y-99658133D02*
X87483238Y-99562895D01*
X87483238Y-99562895D02*
X87530857Y-99515276D01*
X87530857Y-99515276D02*
X87626095Y-99467657D01*
X87626095Y-99467657D02*
X87768952Y-99467657D01*
X87768952Y-99467657D02*
X87864190Y-99515276D01*
X87864190Y-99515276D02*
X87911809Y-99562895D01*
X87911809Y-99562895D02*
X87959428Y-99658133D01*
X87959428Y-99658133D02*
X87959428Y-100039085D01*
X88435619Y-98515276D02*
X88435619Y-99086704D01*
X88435619Y-98800990D02*
X87435619Y-98800990D01*
X87435619Y-98800990D02*
X87578476Y-98896228D01*
X87578476Y-98896228D02*
X87673714Y-98991466D01*
X87673714Y-98991466D02*
X87721333Y-99086704D01*
X87435619Y-98181942D02*
X87435619Y-97562895D01*
X87435619Y-97562895D02*
X87816571Y-97896228D01*
X87816571Y-97896228D02*
X87816571Y-97753371D01*
X87816571Y-97753371D02*
X87864190Y-97658133D01*
X87864190Y-97658133D02*
X87911809Y-97610514D01*
X87911809Y-97610514D02*
X88007047Y-97562895D01*
X88007047Y-97562895D02*
X88245142Y-97562895D01*
X88245142Y-97562895D02*
X88340380Y-97610514D01*
X88340380Y-97610514D02*
X88388000Y-97658133D01*
X88388000Y-97658133D02*
X88435619Y-97753371D01*
X88435619Y-97753371D02*
X88435619Y-98039085D01*
X88435619Y-98039085D02*
X88388000Y-98134323D01*
X88388000Y-98134323D02*
X88340380Y-98181942D01*
X132265619Y-126296466D02*
X131789428Y-126629799D01*
X132265619Y-126867894D02*
X131265619Y-126867894D01*
X131265619Y-126867894D02*
X131265619Y-126486942D01*
X131265619Y-126486942D02*
X131313238Y-126391704D01*
X131313238Y-126391704D02*
X131360857Y-126344085D01*
X131360857Y-126344085D02*
X131456095Y-126296466D01*
X131456095Y-126296466D02*
X131598952Y-126296466D01*
X131598952Y-126296466D02*
X131694190Y-126344085D01*
X131694190Y-126344085D02*
X131741809Y-126391704D01*
X131741809Y-126391704D02*
X131789428Y-126486942D01*
X131789428Y-126486942D02*
X131789428Y-126867894D01*
X131265619Y-125391704D02*
X131265619Y-125867894D01*
X131265619Y-125867894D02*
X131741809Y-125915513D01*
X131741809Y-125915513D02*
X131694190Y-125867894D01*
X131694190Y-125867894D02*
X131646571Y-125772656D01*
X131646571Y-125772656D02*
X131646571Y-125534561D01*
X131646571Y-125534561D02*
X131694190Y-125439323D01*
X131694190Y-125439323D02*
X131741809Y-125391704D01*
X131741809Y-125391704D02*
X131837047Y-125344085D01*
X131837047Y-125344085D02*
X132075142Y-125344085D01*
X132075142Y-125344085D02*
X132170380Y-125391704D01*
X132170380Y-125391704D02*
X132218000Y-125439323D01*
X132218000Y-125439323D02*
X132265619Y-125534561D01*
X132265619Y-125534561D02*
X132265619Y-125772656D01*
X132265619Y-125772656D02*
X132218000Y-125867894D01*
X132218000Y-125867894D02*
X132170380Y-125915513D01*
X100514133Y-120884619D02*
X100180800Y-120408428D01*
X99942705Y-120884619D02*
X99942705Y-119884619D01*
X99942705Y-119884619D02*
X100323657Y-119884619D01*
X100323657Y-119884619D02*
X100418895Y-119932238D01*
X100418895Y-119932238D02*
X100466514Y-119979857D01*
X100466514Y-119979857D02*
X100514133Y-120075095D01*
X100514133Y-120075095D02*
X100514133Y-120217952D01*
X100514133Y-120217952D02*
X100466514Y-120313190D01*
X100466514Y-120313190D02*
X100418895Y-120360809D01*
X100418895Y-120360809D02*
X100323657Y-120408428D01*
X100323657Y-120408428D02*
X99942705Y-120408428D01*
X101371276Y-120217952D02*
X101371276Y-120884619D01*
X101133181Y-119837000D02*
X100895086Y-120551285D01*
X100895086Y-120551285D02*
X101514133Y-120551285D01*
X88220619Y-131312894D02*
X87220619Y-131312894D01*
X87220619Y-131312894D02*
X87220619Y-131074799D01*
X87220619Y-131074799D02*
X87268238Y-130931942D01*
X87268238Y-130931942D02*
X87363476Y-130836704D01*
X87363476Y-130836704D02*
X87458714Y-130789085D01*
X87458714Y-130789085D02*
X87649190Y-130741466D01*
X87649190Y-130741466D02*
X87792047Y-130741466D01*
X87792047Y-130741466D02*
X87982523Y-130789085D01*
X87982523Y-130789085D02*
X88077761Y-130836704D01*
X88077761Y-130836704D02*
X88173000Y-130931942D01*
X88173000Y-130931942D02*
X88220619Y-131074799D01*
X88220619Y-131074799D02*
X88220619Y-131312894D01*
X87315857Y-130360513D02*
X87268238Y-130312894D01*
X87268238Y-130312894D02*
X87220619Y-130217656D01*
X87220619Y-130217656D02*
X87220619Y-129979561D01*
X87220619Y-129979561D02*
X87268238Y-129884323D01*
X87268238Y-129884323D02*
X87315857Y-129836704D01*
X87315857Y-129836704D02*
X87411095Y-129789085D01*
X87411095Y-129789085D02*
X87506333Y-129789085D01*
X87506333Y-129789085D02*
X87649190Y-129836704D01*
X87649190Y-129836704D02*
X88220619Y-130408132D01*
X88220619Y-130408132D02*
X88220619Y-129789085D01*
X88540619Y-134646704D02*
X87540619Y-134646704D01*
X88540619Y-134075276D02*
X87969190Y-134503847D01*
X87540619Y-134075276D02*
X88112047Y-134646704D01*
X141700857Y-96380038D02*
X141653238Y-96475276D01*
X141653238Y-96475276D02*
X141558000Y-96570514D01*
X141558000Y-96570514D02*
X141415142Y-96713371D01*
X141415142Y-96713371D02*
X141367523Y-96808609D01*
X141367523Y-96808609D02*
X141367523Y-96903847D01*
X141605619Y-96856228D02*
X141558000Y-96951466D01*
X141558000Y-96951466D02*
X141462761Y-97046704D01*
X141462761Y-97046704D02*
X141272285Y-97094323D01*
X141272285Y-97094323D02*
X140938952Y-97094323D01*
X140938952Y-97094323D02*
X140748476Y-97046704D01*
X140748476Y-97046704D02*
X140653238Y-96951466D01*
X140653238Y-96951466D02*
X140605619Y-96856228D01*
X140605619Y-96856228D02*
X140605619Y-96665752D01*
X140605619Y-96665752D02*
X140653238Y-96570514D01*
X140653238Y-96570514D02*
X140748476Y-96475276D01*
X140748476Y-96475276D02*
X140938952Y-96427657D01*
X140938952Y-96427657D02*
X141272285Y-96427657D01*
X141272285Y-96427657D02*
X141462761Y-96475276D01*
X141462761Y-96475276D02*
X141558000Y-96570514D01*
X141558000Y-96570514D02*
X141605619Y-96665752D01*
X141605619Y-96665752D02*
X141605619Y-96856228D01*
X140700857Y-96046704D02*
X140653238Y-95999085D01*
X140653238Y-95999085D02*
X140605619Y-95903847D01*
X140605619Y-95903847D02*
X140605619Y-95665752D01*
X140605619Y-95665752D02*
X140653238Y-95570514D01*
X140653238Y-95570514D02*
X140700857Y-95522895D01*
X140700857Y-95522895D02*
X140796095Y-95475276D01*
X140796095Y-95475276D02*
X140891333Y-95475276D01*
X140891333Y-95475276D02*
X141034190Y-95522895D01*
X141034190Y-95522895D02*
X141605619Y-96094323D01*
X141605619Y-96094323D02*
X141605619Y-95475276D01*
D11*
%TO.C,R8*%
X67880000Y-127745000D02*
X71720000Y-127745000D01*
X67880000Y-129585000D02*
X71720000Y-129585000D01*
%TO.C,R14*%
X102600800Y-85839800D02*
X98760800Y-85839800D01*
X102600800Y-87679800D02*
X98760800Y-87679800D01*
%TO.C,TP1*%
X159965800Y-126764800D02*
G75*
G02*
X156965800Y-126764800I-1500000J0D01*
G01*
X156965800Y-126764800D02*
G75*
G02*
X159965800Y-126764800I1500000J0D01*
G01*
%TO.C,R12*%
X73360800Y-80124800D02*
X77200800Y-80124800D01*
X73360800Y-81964800D02*
X77200800Y-81964800D01*
%TO.C,C1*%
X158260800Y-105694800D02*
X157020800Y-105694800D01*
X158260800Y-105734800D02*
X157020800Y-105734800D01*
X158260800Y-105774800D02*
X157021800Y-105774800D01*
X158260800Y-105814800D02*
X157023800Y-105814800D01*
X158260800Y-105854800D02*
X157026800Y-105854800D01*
X158260800Y-105894800D02*
X157029800Y-105894800D01*
X158260800Y-105934800D02*
X157033800Y-105934800D01*
X158260800Y-105974800D02*
X157038800Y-105974800D01*
X158260800Y-106014800D02*
X157044800Y-106014800D01*
X158260800Y-106054800D02*
X157050800Y-106054800D01*
X158260800Y-106094800D02*
X157058800Y-106094800D01*
X158260800Y-106134800D02*
X157066800Y-106134800D01*
X158260800Y-106174800D02*
X157075800Y-106174800D01*
X158260800Y-106214800D02*
X157084800Y-106214800D01*
X158260800Y-106254800D02*
X157095800Y-106254800D01*
X158260800Y-106294800D02*
X157106800Y-106294800D01*
X158260800Y-106334800D02*
X157118800Y-106334800D01*
X158260800Y-106374800D02*
X157132800Y-106374800D01*
X158260800Y-106415800D02*
X157146800Y-106415800D01*
X158260800Y-106455800D02*
X157160800Y-106455800D01*
X158260800Y-106495800D02*
X157176800Y-106495800D01*
X158260800Y-106535800D02*
X157193800Y-106535800D01*
X158260800Y-106575800D02*
X157211800Y-106575800D01*
X158260800Y-106615800D02*
X157230800Y-106615800D01*
X158260800Y-106655800D02*
X157249800Y-106655800D01*
X158260800Y-106695800D02*
X157270800Y-106695800D01*
X158260800Y-106735800D02*
X157292800Y-106735800D01*
X158260800Y-106775800D02*
X157315800Y-106775800D01*
X158260800Y-106815800D02*
X157340800Y-106815800D01*
X158260800Y-106855800D02*
X157365800Y-106855800D01*
X158260800Y-106895800D02*
X157392800Y-106895800D01*
X158260800Y-106935800D02*
X157420800Y-106935800D01*
X158260800Y-106975800D02*
X157450800Y-106975800D01*
X158260800Y-107015800D02*
X157481800Y-107015800D01*
X158260800Y-107055800D02*
X157513800Y-107055800D01*
X158260800Y-107095800D02*
X157548800Y-107095800D01*
X158260800Y-107135800D02*
X157584800Y-107135800D01*
X158260800Y-107175800D02*
X157622800Y-107175800D01*
X158260800Y-107215800D02*
X157662800Y-107215800D01*
X158260800Y-107255800D02*
X157704800Y-107255800D01*
X159470800Y-107775800D02*
X158730800Y-107775800D01*
X159637800Y-107735800D02*
X158563800Y-107735800D01*
X159764800Y-107695800D02*
X158436800Y-107695800D01*
X159868800Y-107655800D02*
X158332800Y-107655800D01*
X159959800Y-107615800D02*
X158241800Y-107615800D01*
X160040800Y-107575800D02*
X158160800Y-107575800D01*
X160113800Y-107535800D02*
X158087800Y-107535800D01*
X160180800Y-107495800D02*
X158020800Y-107495800D01*
X160242800Y-107455800D02*
X157958800Y-107455800D01*
X160295800Y-103424999D02*
X160295800Y-103824999D01*
X160300800Y-107415800D02*
X157900800Y-107415800D01*
X160354800Y-107375800D02*
X157846800Y-107375800D01*
X160404800Y-107335800D02*
X157796800Y-107335800D01*
X160451800Y-107295800D02*
X157749800Y-107295800D01*
X160495800Y-103624999D02*
X160095800Y-103624999D01*
X160496800Y-107255800D02*
X159940800Y-107255800D01*
X160538800Y-107215800D02*
X159940800Y-107215800D01*
X160578800Y-107175800D02*
X159940800Y-107175800D01*
X160616800Y-107135800D02*
X159940800Y-107135800D01*
X160652800Y-107095800D02*
X159940800Y-107095800D01*
X160687800Y-107055800D02*
X159940800Y-107055800D01*
X160719800Y-107015800D02*
X159940800Y-107015800D01*
X160750800Y-106975800D02*
X159940800Y-106975800D01*
X160780800Y-106935800D02*
X159940800Y-106935800D01*
X160808800Y-106895800D02*
X159940800Y-106895800D01*
X160835800Y-106855800D02*
X159940800Y-106855800D01*
X160860800Y-106815800D02*
X159940800Y-106815800D01*
X160885800Y-106775800D02*
X159940800Y-106775800D01*
X160908800Y-106735800D02*
X159940800Y-106735800D01*
X160930800Y-106695800D02*
X159940800Y-106695800D01*
X160951800Y-106655800D02*
X159940800Y-106655800D01*
X160970800Y-106615800D02*
X159940800Y-106615800D01*
X160989800Y-106575800D02*
X159940800Y-106575800D01*
X161007800Y-106535800D02*
X159940800Y-106535800D01*
X161024800Y-106495800D02*
X159940800Y-106495800D01*
X161040800Y-106455800D02*
X159940800Y-106455800D01*
X161054800Y-106415800D02*
X159940800Y-106415800D01*
X161068800Y-106374800D02*
X159940800Y-106374800D01*
X161082800Y-106334800D02*
X159940800Y-106334800D01*
X161094800Y-106294800D02*
X159940800Y-106294800D01*
X161105800Y-106254800D02*
X159940800Y-106254800D01*
X161116800Y-106214800D02*
X159940800Y-106214800D01*
X161125800Y-106174800D02*
X159940800Y-106174800D01*
X161134800Y-106134800D02*
X159940800Y-106134800D01*
X161142800Y-106094800D02*
X159940800Y-106094800D01*
X161150800Y-106054800D02*
X159940800Y-106054800D01*
X161156800Y-106014800D02*
X159940800Y-106014800D01*
X161162800Y-105974800D02*
X159940800Y-105974800D01*
X161167800Y-105934800D02*
X159940800Y-105934800D01*
X161171800Y-105894800D02*
X159940800Y-105894800D01*
X161174800Y-105854800D02*
X159940800Y-105854800D01*
X161177800Y-105814800D02*
X159940800Y-105814800D01*
X161179800Y-105774800D02*
X159940800Y-105774800D01*
X161180800Y-105694800D02*
X159940800Y-105694800D01*
X161180800Y-105734800D02*
X159940800Y-105734800D01*
X161220800Y-105694800D02*
G75*
G02*
X156980800Y-105694800I-2120000J0D01*
G01*
X156980800Y-105694800D02*
G75*
G02*
X161220800Y-105694800I2120000J0D01*
G01*
%TO.C,R15*%
X128930000Y-96195000D02*
X128930000Y-100035000D01*
X130770000Y-96195000D02*
X130770000Y-100035000D01*
%TO.C,R3*%
X128970800Y-114684800D02*
X128970800Y-118524800D01*
X130810800Y-114684800D02*
X130810800Y-118524800D01*
%TO.C,C3*%
X48360999Y-127474800D02*
X48760999Y-127474800D01*
X48560999Y-127274800D02*
X48560999Y-127674800D01*
X50630800Y-126589800D02*
X50630800Y-127829800D01*
X50630800Y-129509800D02*
X50630800Y-130749800D01*
X50670800Y-126589800D02*
X50670800Y-127829800D01*
X50670800Y-129509800D02*
X50670800Y-130749800D01*
X50710800Y-126590800D02*
X50710800Y-127829800D01*
X50710800Y-129509800D02*
X50710800Y-130748800D01*
X50750800Y-126592800D02*
X50750800Y-127829800D01*
X50750800Y-129509800D02*
X50750800Y-130746800D01*
X50790800Y-126595800D02*
X50790800Y-127829800D01*
X50790800Y-129509800D02*
X50790800Y-130743800D01*
X50830800Y-126598800D02*
X50830800Y-127829800D01*
X50830800Y-129509800D02*
X50830800Y-130740800D01*
X50870800Y-126602800D02*
X50870800Y-127829800D01*
X50870800Y-129509800D02*
X50870800Y-130736800D01*
X50910800Y-126607800D02*
X50910800Y-127829800D01*
X50910800Y-129509800D02*
X50910800Y-130731800D01*
X50950800Y-126613800D02*
X50950800Y-127829800D01*
X50950800Y-129509800D02*
X50950800Y-130725800D01*
X50990800Y-126619800D02*
X50990800Y-127829800D01*
X50990800Y-129509800D02*
X50990800Y-130719800D01*
X51030800Y-126627800D02*
X51030800Y-127829800D01*
X51030800Y-129509800D02*
X51030800Y-130711800D01*
X51070800Y-126635800D02*
X51070800Y-127829800D01*
X51070800Y-129509800D02*
X51070800Y-130703800D01*
X51110800Y-126644800D02*
X51110800Y-127829800D01*
X51110800Y-129509800D02*
X51110800Y-130694800D01*
X51150800Y-126653800D02*
X51150800Y-127829800D01*
X51150800Y-129509800D02*
X51150800Y-130685800D01*
X51190800Y-126664800D02*
X51190800Y-127829800D01*
X51190800Y-129509800D02*
X51190800Y-130674800D01*
X51230800Y-126675800D02*
X51230800Y-127829800D01*
X51230800Y-129509800D02*
X51230800Y-130663800D01*
X51270800Y-126687800D02*
X51270800Y-127829800D01*
X51270800Y-129509800D02*
X51270800Y-130651800D01*
X51310800Y-126701800D02*
X51310800Y-127829800D01*
X51310800Y-129509800D02*
X51310800Y-130637800D01*
X51351800Y-126715800D02*
X51351800Y-127829800D01*
X51351800Y-129509800D02*
X51351800Y-130623800D01*
X51391800Y-126729800D02*
X51391800Y-127829800D01*
X51391800Y-129509800D02*
X51391800Y-130609800D01*
X51431800Y-126745800D02*
X51431800Y-127829800D01*
X51431800Y-129509800D02*
X51431800Y-130593800D01*
X51471800Y-126762800D02*
X51471800Y-127829800D01*
X51471800Y-129509800D02*
X51471800Y-130576800D01*
X51511800Y-126780800D02*
X51511800Y-127829800D01*
X51511800Y-129509800D02*
X51511800Y-130558800D01*
X51551800Y-126799800D02*
X51551800Y-127829800D01*
X51551800Y-129509800D02*
X51551800Y-130539800D01*
X51591800Y-126818800D02*
X51591800Y-127829800D01*
X51591800Y-129509800D02*
X51591800Y-130520800D01*
X51631800Y-126839800D02*
X51631800Y-127829800D01*
X51631800Y-129509800D02*
X51631800Y-130499800D01*
X51671800Y-126861800D02*
X51671800Y-127829800D01*
X51671800Y-129509800D02*
X51671800Y-130477800D01*
X51711800Y-126884800D02*
X51711800Y-127829800D01*
X51711800Y-129509800D02*
X51711800Y-130454800D01*
X51751800Y-126909800D02*
X51751800Y-127829800D01*
X51751800Y-129509800D02*
X51751800Y-130429800D01*
X51791800Y-126934800D02*
X51791800Y-127829800D01*
X51791800Y-129509800D02*
X51791800Y-130404800D01*
X51831800Y-126961800D02*
X51831800Y-127829800D01*
X51831800Y-129509800D02*
X51831800Y-130377800D01*
X51871800Y-126989800D02*
X51871800Y-127829800D01*
X51871800Y-129509800D02*
X51871800Y-130349800D01*
X51911800Y-127019800D02*
X51911800Y-127829800D01*
X51911800Y-129509800D02*
X51911800Y-130319800D01*
X51951800Y-127050800D02*
X51951800Y-127829800D01*
X51951800Y-129509800D02*
X51951800Y-130288800D01*
X51991800Y-127082800D02*
X51991800Y-127829800D01*
X51991800Y-129509800D02*
X51991800Y-130256800D01*
X52031800Y-127117800D02*
X52031800Y-127829800D01*
X52031800Y-129509800D02*
X52031800Y-130221800D01*
X52071800Y-127153800D02*
X52071800Y-127829800D01*
X52071800Y-129509800D02*
X52071800Y-130185800D01*
X52111800Y-127191800D02*
X52111800Y-127829800D01*
X52111800Y-129509800D02*
X52111800Y-130147800D01*
X52151800Y-127231800D02*
X52151800Y-127829800D01*
X52151800Y-129509800D02*
X52151800Y-130107800D01*
X52191800Y-127273800D02*
X52191800Y-127829800D01*
X52191800Y-129509800D02*
X52191800Y-130065800D01*
X52231800Y-127318800D02*
X52231800Y-130020800D01*
X52271800Y-127365800D02*
X52271800Y-129973800D01*
X52311800Y-127415800D02*
X52311800Y-129923800D01*
X52351800Y-127469800D02*
X52351800Y-129869800D01*
X52391800Y-127527800D02*
X52391800Y-129811800D01*
X52431800Y-127589800D02*
X52431800Y-129749800D01*
X52471800Y-127656800D02*
X52471800Y-129682800D01*
X52511800Y-127729800D02*
X52511800Y-129609800D01*
X52551800Y-127810800D02*
X52551800Y-129528800D01*
X52591800Y-127901800D02*
X52591800Y-129437800D01*
X52631800Y-128005800D02*
X52631800Y-129333800D01*
X52671800Y-128132800D02*
X52671800Y-129206800D01*
X52711800Y-128299800D02*
X52711800Y-129039800D01*
X52750800Y-128669800D02*
G75*
G02*
X48510800Y-128669800I-2120000J0D01*
G01*
X48510800Y-128669800D02*
G75*
G02*
X52750800Y-128669800I2120000J0D01*
G01*
%TO.C,R11*%
X70160800Y-67108800D02*
X70160800Y-68203800D01*
X70160800Y-67108800D02*
X80400800Y-67108800D01*
X70160800Y-71055800D02*
X70160800Y-73204800D01*
X70160800Y-76054800D02*
X70160800Y-77149800D01*
X70160800Y-77149800D02*
X80400800Y-77149800D01*
X80400800Y-67108800D02*
X80400800Y-70704800D01*
X80400800Y-73554800D02*
X80400800Y-77149800D01*
%TO.C,R2*%
X128970800Y-109634800D02*
X128970800Y-105794800D01*
X130810800Y-109634800D02*
X130810800Y-105794800D01*
%TO.C,C5*%
X48360999Y-73499800D02*
X48760999Y-73499800D01*
X48560999Y-73299800D02*
X48560999Y-73699800D01*
X50630800Y-72614800D02*
X50630800Y-73854800D01*
X50630800Y-75534800D02*
X50630800Y-76774800D01*
X50670800Y-72614800D02*
X50670800Y-73854800D01*
X50670800Y-75534800D02*
X50670800Y-76774800D01*
X50710800Y-72615800D02*
X50710800Y-73854800D01*
X50710800Y-75534800D02*
X50710800Y-76773800D01*
X50750800Y-72617800D02*
X50750800Y-73854800D01*
X50750800Y-75534800D02*
X50750800Y-76771800D01*
X50790800Y-72620800D02*
X50790800Y-73854800D01*
X50790800Y-75534800D02*
X50790800Y-76768800D01*
X50830800Y-72623800D02*
X50830800Y-73854800D01*
X50830800Y-75534800D02*
X50830800Y-76765800D01*
X50870800Y-72627800D02*
X50870800Y-73854800D01*
X50870800Y-75534800D02*
X50870800Y-76761800D01*
X50910800Y-72632800D02*
X50910800Y-73854800D01*
X50910800Y-75534800D02*
X50910800Y-76756800D01*
X50950800Y-72638800D02*
X50950800Y-73854800D01*
X50950800Y-75534800D02*
X50950800Y-76750800D01*
X50990800Y-72644800D02*
X50990800Y-73854800D01*
X50990800Y-75534800D02*
X50990800Y-76744800D01*
X51030800Y-72652800D02*
X51030800Y-73854800D01*
X51030800Y-75534800D02*
X51030800Y-76736800D01*
X51070800Y-72660800D02*
X51070800Y-73854800D01*
X51070800Y-75534800D02*
X51070800Y-76728800D01*
X51110800Y-72669800D02*
X51110800Y-73854800D01*
X51110800Y-75534800D02*
X51110800Y-76719800D01*
X51150800Y-72678800D02*
X51150800Y-73854800D01*
X51150800Y-75534800D02*
X51150800Y-76710800D01*
X51190800Y-72689800D02*
X51190800Y-73854800D01*
X51190800Y-75534800D02*
X51190800Y-76699800D01*
X51230800Y-72700800D02*
X51230800Y-73854800D01*
X51230800Y-75534800D02*
X51230800Y-76688800D01*
X51270800Y-72712800D02*
X51270800Y-73854800D01*
X51270800Y-75534800D02*
X51270800Y-76676800D01*
X51310800Y-72726800D02*
X51310800Y-73854800D01*
X51310800Y-75534800D02*
X51310800Y-76662800D01*
X51351800Y-72740800D02*
X51351800Y-73854800D01*
X51351800Y-75534800D02*
X51351800Y-76648800D01*
X51391800Y-72754800D02*
X51391800Y-73854800D01*
X51391800Y-75534800D02*
X51391800Y-76634800D01*
X51431800Y-72770800D02*
X51431800Y-73854800D01*
X51431800Y-75534800D02*
X51431800Y-76618800D01*
X51471800Y-72787800D02*
X51471800Y-73854800D01*
X51471800Y-75534800D02*
X51471800Y-76601800D01*
X51511800Y-72805800D02*
X51511800Y-73854800D01*
X51511800Y-75534800D02*
X51511800Y-76583800D01*
X51551800Y-72824800D02*
X51551800Y-73854800D01*
X51551800Y-75534800D02*
X51551800Y-76564800D01*
X51591800Y-72843800D02*
X51591800Y-73854800D01*
X51591800Y-75534800D02*
X51591800Y-76545800D01*
X51631800Y-72864800D02*
X51631800Y-73854800D01*
X51631800Y-75534800D02*
X51631800Y-76524800D01*
X51671800Y-72886800D02*
X51671800Y-73854800D01*
X51671800Y-75534800D02*
X51671800Y-76502800D01*
X51711800Y-72909800D02*
X51711800Y-73854800D01*
X51711800Y-75534800D02*
X51711800Y-76479800D01*
X51751800Y-72934800D02*
X51751800Y-73854800D01*
X51751800Y-75534800D02*
X51751800Y-76454800D01*
X51791800Y-72959800D02*
X51791800Y-73854800D01*
X51791800Y-75534800D02*
X51791800Y-76429800D01*
X51831800Y-72986800D02*
X51831800Y-73854800D01*
X51831800Y-75534800D02*
X51831800Y-76402800D01*
X51871800Y-73014800D02*
X51871800Y-73854800D01*
X51871800Y-75534800D02*
X51871800Y-76374800D01*
X51911800Y-73044800D02*
X51911800Y-73854800D01*
X51911800Y-75534800D02*
X51911800Y-76344800D01*
X51951800Y-73075800D02*
X51951800Y-73854800D01*
X51951800Y-75534800D02*
X51951800Y-76313800D01*
X51991800Y-73107800D02*
X51991800Y-73854800D01*
X51991800Y-75534800D02*
X51991800Y-76281800D01*
X52031800Y-73142800D02*
X52031800Y-73854800D01*
X52031800Y-75534800D02*
X52031800Y-76246800D01*
X52071800Y-73178800D02*
X52071800Y-73854800D01*
X52071800Y-75534800D02*
X52071800Y-76210800D01*
X52111800Y-73216800D02*
X52111800Y-73854800D01*
X52111800Y-75534800D02*
X52111800Y-76172800D01*
X52151800Y-73256800D02*
X52151800Y-73854800D01*
X52151800Y-75534800D02*
X52151800Y-76132800D01*
X52191800Y-73298800D02*
X52191800Y-73854800D01*
X52191800Y-75534800D02*
X52191800Y-76090800D01*
X52231800Y-73343800D02*
X52231800Y-76045800D01*
X52271800Y-73390800D02*
X52271800Y-75998800D01*
X52311800Y-73440800D02*
X52311800Y-75948800D01*
X52351800Y-73494800D02*
X52351800Y-75894800D01*
X52391800Y-73552800D02*
X52391800Y-75836800D01*
X52431800Y-73614800D02*
X52431800Y-75774800D01*
X52471800Y-73681800D02*
X52471800Y-75707800D01*
X52511800Y-73754800D02*
X52511800Y-75634800D01*
X52551800Y-73835800D02*
X52551800Y-75553800D01*
X52591800Y-73926800D02*
X52591800Y-75462800D01*
X52631800Y-74030800D02*
X52631800Y-75358800D01*
X52671800Y-74157800D02*
X52671800Y-75231800D01*
X52711800Y-74324800D02*
X52711800Y-75064800D01*
X52750800Y-74694800D02*
G75*
G02*
X48510800Y-74694800I-2120000J0D01*
G01*
X48510800Y-74694800D02*
G75*
G02*
X52750800Y-74694800I2120000J0D01*
G01*
%TO.C,Q6*%
X102255800Y-74589800D02*
X102255800Y-70989800D01*
X97805800Y-72789800D02*
G75*
G02*
X102244278Y-70951322I2600000J0D01*
G01*
X102244278Y-74628278D02*
G75*
G02*
X97805800Y-72789800I-1838478J1838478D01*
G01*
%TO.C,D3*%
X88765800Y-85909800D02*
X88765800Y-90149800D01*
X88765800Y-90149800D02*
X91005800Y-90149800D01*
X89885800Y-85259800D02*
X89885800Y-85909800D01*
X89885800Y-90799800D02*
X89885800Y-90149800D01*
X91005800Y-85909800D02*
X88765800Y-85909800D01*
X91005800Y-86509800D02*
X88765800Y-86509800D01*
X91005800Y-86629800D02*
X88765800Y-86629800D01*
X91005800Y-86749800D02*
X88765800Y-86749800D01*
X91005800Y-90149800D02*
X91005800Y-85909800D01*
%TO.C,C6*%
X108730800Y-73309800D02*
X107490800Y-73309800D01*
X108730800Y-73349800D02*
X107490800Y-73349800D01*
X108730800Y-73389800D02*
X107491800Y-73389800D01*
X108730800Y-73429800D02*
X107493800Y-73429800D01*
X108730800Y-73469800D02*
X107496800Y-73469800D01*
X108730800Y-73509800D02*
X107499800Y-73509800D01*
X108730800Y-73549800D02*
X107503800Y-73549800D01*
X108730800Y-73589800D02*
X107508800Y-73589800D01*
X108730800Y-73629800D02*
X107514800Y-73629800D01*
X108730800Y-73669800D02*
X107520800Y-73669800D01*
X108730800Y-73709800D02*
X107528800Y-73709800D01*
X108730800Y-73749800D02*
X107536800Y-73749800D01*
X108730800Y-73789800D02*
X107545800Y-73789800D01*
X108730800Y-73829800D02*
X107554800Y-73829800D01*
X108730800Y-73869800D02*
X107565800Y-73869800D01*
X108730800Y-73909800D02*
X107576800Y-73909800D01*
X108730800Y-73949800D02*
X107588800Y-73949800D01*
X108730800Y-73989800D02*
X107602800Y-73989800D01*
X108730800Y-74030800D02*
X107616800Y-74030800D01*
X108730800Y-74070800D02*
X107630800Y-74070800D01*
X108730800Y-74110800D02*
X107646800Y-74110800D01*
X108730800Y-74150800D02*
X107663800Y-74150800D01*
X108730800Y-74190800D02*
X107681800Y-74190800D01*
X108730800Y-74230800D02*
X107700800Y-74230800D01*
X108730800Y-74270800D02*
X107719800Y-74270800D01*
X108730800Y-74310800D02*
X107740800Y-74310800D01*
X108730800Y-74350800D02*
X107762800Y-74350800D01*
X108730800Y-74390800D02*
X107785800Y-74390800D01*
X108730800Y-74430800D02*
X107810800Y-74430800D01*
X108730800Y-74470800D02*
X107835800Y-74470800D01*
X108730800Y-74510800D02*
X107862800Y-74510800D01*
X108730800Y-74550800D02*
X107890800Y-74550800D01*
X108730800Y-74590800D02*
X107920800Y-74590800D01*
X108730800Y-74630800D02*
X107951800Y-74630800D01*
X108730800Y-74670800D02*
X107983800Y-74670800D01*
X108730800Y-74710800D02*
X108018800Y-74710800D01*
X108730800Y-74750800D02*
X108054800Y-74750800D01*
X108730800Y-74790800D02*
X108092800Y-74790800D01*
X108730800Y-74830800D02*
X108132800Y-74830800D01*
X108730800Y-74870800D02*
X108174800Y-74870800D01*
X109940800Y-75390800D02*
X109200800Y-75390800D01*
X110107800Y-75350800D02*
X109033800Y-75350800D01*
X110234800Y-75310800D02*
X108906800Y-75310800D01*
X110338800Y-75270800D02*
X108802800Y-75270800D01*
X110429800Y-75230800D02*
X108711800Y-75230800D01*
X110510800Y-75190800D02*
X108630800Y-75190800D01*
X110583800Y-75150800D02*
X108557800Y-75150800D01*
X110650800Y-75110800D02*
X108490800Y-75110800D01*
X110712800Y-75070800D02*
X108428800Y-75070800D01*
X110765800Y-71039999D02*
X110765800Y-71439999D01*
X110770800Y-75030800D02*
X108370800Y-75030800D01*
X110824800Y-74990800D02*
X108316800Y-74990800D01*
X110874800Y-74950800D02*
X108266800Y-74950800D01*
X110921800Y-74910800D02*
X108219800Y-74910800D01*
X110965800Y-71239999D02*
X110565800Y-71239999D01*
X110966800Y-74870800D02*
X110410800Y-74870800D01*
X111008800Y-74830800D02*
X110410800Y-74830800D01*
X111048800Y-74790800D02*
X110410800Y-74790800D01*
X111086800Y-74750800D02*
X110410800Y-74750800D01*
X111122800Y-74710800D02*
X110410800Y-74710800D01*
X111157800Y-74670800D02*
X110410800Y-74670800D01*
X111189800Y-74630800D02*
X110410800Y-74630800D01*
X111220800Y-74590800D02*
X110410800Y-74590800D01*
X111250800Y-74550800D02*
X110410800Y-74550800D01*
X111278800Y-74510800D02*
X110410800Y-74510800D01*
X111305800Y-74470800D02*
X110410800Y-74470800D01*
X111330800Y-74430800D02*
X110410800Y-74430800D01*
X111355800Y-74390800D02*
X110410800Y-74390800D01*
X111378800Y-74350800D02*
X110410800Y-74350800D01*
X111400800Y-74310800D02*
X110410800Y-74310800D01*
X111421800Y-74270800D02*
X110410800Y-74270800D01*
X111440800Y-74230800D02*
X110410800Y-74230800D01*
X111459800Y-74190800D02*
X110410800Y-74190800D01*
X111477800Y-74150800D02*
X110410800Y-74150800D01*
X111494800Y-74110800D02*
X110410800Y-74110800D01*
X111510800Y-74070800D02*
X110410800Y-74070800D01*
X111524800Y-74030800D02*
X110410800Y-74030800D01*
X111538800Y-73989800D02*
X110410800Y-73989800D01*
X111552800Y-73949800D02*
X110410800Y-73949800D01*
X111564800Y-73909800D02*
X110410800Y-73909800D01*
X111575800Y-73869800D02*
X110410800Y-73869800D01*
X111586800Y-73829800D02*
X110410800Y-73829800D01*
X111595800Y-73789800D02*
X110410800Y-73789800D01*
X111604800Y-73749800D02*
X110410800Y-73749800D01*
X111612800Y-73709800D02*
X110410800Y-73709800D01*
X111620800Y-73669800D02*
X110410800Y-73669800D01*
X111626800Y-73629800D02*
X110410800Y-73629800D01*
X111632800Y-73589800D02*
X110410800Y-73589800D01*
X111637800Y-73549800D02*
X110410800Y-73549800D01*
X111641800Y-73509800D02*
X110410800Y-73509800D01*
X111644800Y-73469800D02*
X110410800Y-73469800D01*
X111647800Y-73429800D02*
X110410800Y-73429800D01*
X111649800Y-73389800D02*
X110410800Y-73389800D01*
X111650800Y-73309800D02*
X110410800Y-73309800D01*
X111650800Y-73349800D02*
X110410800Y-73349800D01*
X111690800Y-73309800D02*
G75*
G02*
X107450800Y-73309800I-2120000J0D01*
G01*
X107450800Y-73309800D02*
G75*
G02*
X111690800Y-73309800I2120000J0D01*
G01*
%TO.C,R10*%
X62595800Y-73774800D02*
X58755800Y-73774800D01*
X62595800Y-75614800D02*
X58755800Y-75614800D01*
%TO.C,C4*%
X111820000Y-132897600D02*
X113060000Y-132897600D01*
X111820000Y-132937600D02*
X113060000Y-132937600D01*
X111821000Y-132857600D02*
X113060000Y-132857600D01*
X111823000Y-132817600D02*
X113060000Y-132817600D01*
X111826000Y-132777600D02*
X113060000Y-132777600D01*
X111829000Y-132737600D02*
X113060000Y-132737600D01*
X111833000Y-132697600D02*
X113060000Y-132697600D01*
X111838000Y-132657600D02*
X113060000Y-132657600D01*
X111844000Y-132617600D02*
X113060000Y-132617600D01*
X111850000Y-132577600D02*
X113060000Y-132577600D01*
X111858000Y-132537600D02*
X113060000Y-132537600D01*
X111866000Y-132497600D02*
X113060000Y-132497600D01*
X111875000Y-132457600D02*
X113060000Y-132457600D01*
X111884000Y-132417600D02*
X113060000Y-132417600D01*
X111895000Y-132377600D02*
X113060000Y-132377600D01*
X111906000Y-132337600D02*
X113060000Y-132337600D01*
X111918000Y-132297600D02*
X113060000Y-132297600D01*
X111932000Y-132257600D02*
X113060000Y-132257600D01*
X111946000Y-132216600D02*
X113060000Y-132216600D01*
X111960000Y-132176600D02*
X113060000Y-132176600D01*
X111976000Y-132136600D02*
X113060000Y-132136600D01*
X111993000Y-132096600D02*
X113060000Y-132096600D01*
X112011000Y-132056600D02*
X113060000Y-132056600D01*
X112030000Y-132016600D02*
X113060000Y-132016600D01*
X112049000Y-131976600D02*
X113060000Y-131976600D01*
X112070000Y-131936600D02*
X113060000Y-131936600D01*
X112092000Y-131896600D02*
X113060000Y-131896600D01*
X112115000Y-131856600D02*
X113060000Y-131856600D01*
X112140000Y-131816600D02*
X113060000Y-131816600D01*
X112165000Y-131776600D02*
X113060000Y-131776600D01*
X112192000Y-131736600D02*
X113060000Y-131736600D01*
X112220000Y-131696600D02*
X113060000Y-131696600D01*
X112250000Y-131656600D02*
X113060000Y-131656600D01*
X112281000Y-131616600D02*
X113060000Y-131616600D01*
X112313000Y-131576600D02*
X113060000Y-131576600D01*
X112348000Y-131536600D02*
X113060000Y-131536600D01*
X112384000Y-131496600D02*
X113060000Y-131496600D01*
X112422000Y-131456600D02*
X113060000Y-131456600D01*
X112462000Y-131416600D02*
X113060000Y-131416600D01*
X112504000Y-131376600D02*
X113060000Y-131376600D01*
X112505000Y-135007401D02*
X112905000Y-135007401D01*
X112549000Y-131336600D02*
X115251000Y-131336600D01*
X112596000Y-131296600D02*
X115204000Y-131296600D01*
X112646000Y-131256600D02*
X115154000Y-131256600D01*
X112700000Y-131216600D02*
X115100000Y-131216600D01*
X112705000Y-135207401D02*
X112705000Y-134807401D01*
X112758000Y-131176600D02*
X115042000Y-131176600D01*
X112820000Y-131136600D02*
X114980000Y-131136600D01*
X112887000Y-131096600D02*
X114913000Y-131096600D01*
X112960000Y-131056600D02*
X114840000Y-131056600D01*
X113041000Y-131016600D02*
X114759000Y-131016600D01*
X113132000Y-130976600D02*
X114668000Y-130976600D01*
X113236000Y-130936600D02*
X114564000Y-130936600D01*
X113363000Y-130896600D02*
X114437000Y-130896600D01*
X113530000Y-130856600D02*
X114270000Y-130856600D01*
X114740000Y-131376600D02*
X115296000Y-131376600D01*
X114740000Y-131416600D02*
X115338000Y-131416600D01*
X114740000Y-131456600D02*
X115378000Y-131456600D01*
X114740000Y-131496600D02*
X115416000Y-131496600D01*
X114740000Y-131536600D02*
X115452000Y-131536600D01*
X114740000Y-131576600D02*
X115487000Y-131576600D01*
X114740000Y-131616600D02*
X115519000Y-131616600D01*
X114740000Y-131656600D02*
X115550000Y-131656600D01*
X114740000Y-131696600D02*
X115580000Y-131696600D01*
X114740000Y-131736600D02*
X115608000Y-131736600D01*
X114740000Y-131776600D02*
X115635000Y-131776600D01*
X114740000Y-131816600D02*
X115660000Y-131816600D01*
X114740000Y-131856600D02*
X115685000Y-131856600D01*
X114740000Y-131896600D02*
X115708000Y-131896600D01*
X114740000Y-131936600D02*
X115730000Y-131936600D01*
X114740000Y-131976600D02*
X115751000Y-131976600D01*
X114740000Y-132016600D02*
X115770000Y-132016600D01*
X114740000Y-132056600D02*
X115789000Y-132056600D01*
X114740000Y-132096600D02*
X115807000Y-132096600D01*
X114740000Y-132136600D02*
X115824000Y-132136600D01*
X114740000Y-132176600D02*
X115840000Y-132176600D01*
X114740000Y-132216600D02*
X115854000Y-132216600D01*
X114740000Y-132257600D02*
X115868000Y-132257600D01*
X114740000Y-132297600D02*
X115882000Y-132297600D01*
X114740000Y-132337600D02*
X115894000Y-132337600D01*
X114740000Y-132377600D02*
X115905000Y-132377600D01*
X114740000Y-132417600D02*
X115916000Y-132417600D01*
X114740000Y-132457600D02*
X115925000Y-132457600D01*
X114740000Y-132497600D02*
X115934000Y-132497600D01*
X114740000Y-132537600D02*
X115942000Y-132537600D01*
X114740000Y-132577600D02*
X115950000Y-132577600D01*
X114740000Y-132617600D02*
X115956000Y-132617600D01*
X114740000Y-132657600D02*
X115962000Y-132657600D01*
X114740000Y-132697600D02*
X115967000Y-132697600D01*
X114740000Y-132737600D02*
X115971000Y-132737600D01*
X114740000Y-132777600D02*
X115974000Y-132777600D01*
X114740000Y-132817600D02*
X115977000Y-132817600D01*
X114740000Y-132857600D02*
X115979000Y-132857600D01*
X114740000Y-132897600D02*
X115980000Y-132897600D01*
X114740000Y-132937600D02*
X115980000Y-132937600D01*
X116020000Y-132937600D02*
G75*
G02*
X111780000Y-132937600I-2120000J0D01*
G01*
X111780000Y-132937600D02*
G75*
G02*
X116020000Y-132937600I2120000J0D01*
G01*
%TO.C,R6*%
X61960800Y-127749800D02*
X58120800Y-127749800D01*
X61960800Y-129589800D02*
X58120800Y-129589800D01*
%TO.C,Q10*%
X142110800Y-66864800D02*
X142110800Y-67579800D01*
X142110800Y-70379800D02*
X142110800Y-73054800D01*
X142110800Y-75854800D02*
X142110800Y-78529800D01*
X142110800Y-81329800D02*
X142110800Y-82044800D01*
X145640800Y-66864800D02*
X145640800Y-67579800D01*
X145640800Y-70379800D02*
X145640800Y-73054800D01*
X145640800Y-75854800D02*
X145640800Y-78529800D01*
X145640800Y-81329800D02*
X145640800Y-82044800D01*
X147150800Y-66864800D02*
X142110800Y-66864800D01*
X147150800Y-66864800D02*
X147150800Y-82044800D01*
X147150800Y-72339800D02*
X145640800Y-72339800D01*
X147150800Y-76569800D02*
X145640800Y-76569800D01*
X147150800Y-82044800D02*
X142110800Y-82044800D01*
%TO.C,C7*%
X165660000Y-105515000D02*
X164420000Y-105515000D01*
X165660000Y-105555000D02*
X164420000Y-105555000D01*
X165660000Y-105595000D02*
X164421000Y-105595000D01*
X165660000Y-105635000D02*
X164423000Y-105635000D01*
X165660000Y-105675000D02*
X164426000Y-105675000D01*
X165660000Y-105715000D02*
X164429000Y-105715000D01*
X165660000Y-105755000D02*
X164433000Y-105755000D01*
X165660000Y-105795000D02*
X164438000Y-105795000D01*
X165660000Y-105835000D02*
X164444000Y-105835000D01*
X165660000Y-105875000D02*
X164450000Y-105875000D01*
X165660000Y-105915000D02*
X164458000Y-105915000D01*
X165660000Y-105955000D02*
X164466000Y-105955000D01*
X165660000Y-105995000D02*
X164475000Y-105995000D01*
X165660000Y-106035000D02*
X164484000Y-106035000D01*
X165660000Y-106075000D02*
X164495000Y-106075000D01*
X165660000Y-106115000D02*
X164506000Y-106115000D01*
X165660000Y-106155000D02*
X164518000Y-106155000D01*
X165660000Y-106195000D02*
X164532000Y-106195000D01*
X165660000Y-106236000D02*
X164546000Y-106236000D01*
X165660000Y-106276000D02*
X164560000Y-106276000D01*
X165660000Y-106316000D02*
X164576000Y-106316000D01*
X165660000Y-106356000D02*
X164593000Y-106356000D01*
X165660000Y-106396000D02*
X164611000Y-106396000D01*
X165660000Y-106436000D02*
X164630000Y-106436000D01*
X165660000Y-106476000D02*
X164649000Y-106476000D01*
X165660000Y-106516000D02*
X164670000Y-106516000D01*
X165660000Y-106556000D02*
X164692000Y-106556000D01*
X165660000Y-106596000D02*
X164715000Y-106596000D01*
X165660000Y-106636000D02*
X164740000Y-106636000D01*
X165660000Y-106676000D02*
X164765000Y-106676000D01*
X165660000Y-106716000D02*
X164792000Y-106716000D01*
X165660000Y-106756000D02*
X164820000Y-106756000D01*
X165660000Y-106796000D02*
X164850000Y-106796000D01*
X165660000Y-106836000D02*
X164881000Y-106836000D01*
X165660000Y-106876000D02*
X164913000Y-106876000D01*
X165660000Y-106916000D02*
X164948000Y-106916000D01*
X165660000Y-106956000D02*
X164984000Y-106956000D01*
X165660000Y-106996000D02*
X165022000Y-106996000D01*
X165660000Y-107036000D02*
X165062000Y-107036000D01*
X165660000Y-107076000D02*
X165104000Y-107076000D01*
X166870000Y-107596000D02*
X166130000Y-107596000D01*
X167037000Y-107556000D02*
X165963000Y-107556000D01*
X167164000Y-107516000D02*
X165836000Y-107516000D01*
X167268000Y-107476000D02*
X165732000Y-107476000D01*
X167359000Y-107436000D02*
X165641000Y-107436000D01*
X167440000Y-107396000D02*
X165560000Y-107396000D01*
X167513000Y-107356000D02*
X165487000Y-107356000D01*
X167580000Y-107316000D02*
X165420000Y-107316000D01*
X167642000Y-107276000D02*
X165358000Y-107276000D01*
X167695000Y-103245199D02*
X167695000Y-103645199D01*
X167700000Y-107236000D02*
X165300000Y-107236000D01*
X167754000Y-107196000D02*
X165246000Y-107196000D01*
X167804000Y-107156000D02*
X165196000Y-107156000D01*
X167851000Y-107116000D02*
X165149000Y-107116000D01*
X167895000Y-103445199D02*
X167495000Y-103445199D01*
X167896000Y-107076000D02*
X167340000Y-107076000D01*
X167938000Y-107036000D02*
X167340000Y-107036000D01*
X167978000Y-106996000D02*
X167340000Y-106996000D01*
X168016000Y-106956000D02*
X167340000Y-106956000D01*
X168052000Y-106916000D02*
X167340000Y-106916000D01*
X168087000Y-106876000D02*
X167340000Y-106876000D01*
X168119000Y-106836000D02*
X167340000Y-106836000D01*
X168150000Y-106796000D02*
X167340000Y-106796000D01*
X168180000Y-106756000D02*
X167340000Y-106756000D01*
X168208000Y-106716000D02*
X167340000Y-106716000D01*
X168235000Y-106676000D02*
X167340000Y-106676000D01*
X168260000Y-106636000D02*
X167340000Y-106636000D01*
X168285000Y-106596000D02*
X167340000Y-106596000D01*
X168308000Y-106556000D02*
X167340000Y-106556000D01*
X168330000Y-106516000D02*
X167340000Y-106516000D01*
X168351000Y-106476000D02*
X167340000Y-106476000D01*
X168370000Y-106436000D02*
X167340000Y-106436000D01*
X168389000Y-106396000D02*
X167340000Y-106396000D01*
X168407000Y-106356000D02*
X167340000Y-106356000D01*
X168424000Y-106316000D02*
X167340000Y-106316000D01*
X168440000Y-106276000D02*
X167340000Y-106276000D01*
X168454000Y-106236000D02*
X167340000Y-106236000D01*
X168468000Y-106195000D02*
X167340000Y-106195000D01*
X168482000Y-106155000D02*
X167340000Y-106155000D01*
X168494000Y-106115000D02*
X167340000Y-106115000D01*
X168505000Y-106075000D02*
X167340000Y-106075000D01*
X168516000Y-106035000D02*
X167340000Y-106035000D01*
X168525000Y-105995000D02*
X167340000Y-105995000D01*
X168534000Y-105955000D02*
X167340000Y-105955000D01*
X168542000Y-105915000D02*
X167340000Y-105915000D01*
X168550000Y-105875000D02*
X167340000Y-105875000D01*
X168556000Y-105835000D02*
X167340000Y-105835000D01*
X168562000Y-105795000D02*
X167340000Y-105795000D01*
X168567000Y-105755000D02*
X167340000Y-105755000D01*
X168571000Y-105715000D02*
X167340000Y-105715000D01*
X168574000Y-105675000D02*
X167340000Y-105675000D01*
X168577000Y-105635000D02*
X167340000Y-105635000D01*
X168579000Y-105595000D02*
X167340000Y-105595000D01*
X168580000Y-105515000D02*
X167340000Y-105515000D01*
X168580000Y-105555000D02*
X167340000Y-105555000D01*
X168620000Y-105515000D02*
G75*
G02*
X164380000Y-105515000I-2120000J0D01*
G01*
X164380000Y-105515000D02*
G75*
G02*
X168620000Y-105515000I2120000J0D01*
G01*
%TO.C,R16*%
X124825800Y-68694800D02*
X120985800Y-68694800D01*
X124825800Y-70534800D02*
X120985800Y-70534800D01*
%TO.C,D1*%
X88765800Y-116389800D02*
X88765800Y-120629800D01*
X88765800Y-119789800D02*
X91005800Y-119789800D01*
X88765800Y-119909800D02*
X91005800Y-119909800D01*
X88765800Y-120029800D02*
X91005800Y-120029800D01*
X88765800Y-120629800D02*
X91005800Y-120629800D01*
X89885800Y-115739800D02*
X89885800Y-116389800D01*
X89885800Y-121279800D02*
X89885800Y-120629800D01*
X91005800Y-116389800D02*
X88765800Y-116389800D01*
X91005800Y-120629800D02*
X91005800Y-116389800D01*
%TO.C,R9*%
X125460800Y-130924800D02*
X121620800Y-130924800D01*
X125460800Y-132764800D02*
X121620800Y-132764800D01*
%TO.C,Q8*%
X116500800Y-87924800D02*
X116500800Y-84324800D01*
X112050800Y-86124800D02*
G75*
G02*
X116489278Y-84286322I2600000J0D01*
G01*
X116489278Y-87963278D02*
G75*
G02*
X112050800Y-86124800I-1838478J1838478D01*
G01*
%TO.C,R18*%
X128970800Y-79154800D02*
X128970800Y-75314800D01*
X130810800Y-79154800D02*
X130810800Y-75314800D01*
%TO.C,R7*%
X57380000Y-113419000D02*
X57380000Y-114514000D01*
X57380000Y-113419000D02*
X67620000Y-113419000D01*
X57380000Y-117366000D02*
X57380000Y-119515000D01*
X57380000Y-122365000D02*
X57380000Y-123460000D01*
X57380000Y-123460000D02*
X67620000Y-123460000D01*
X67620000Y-113419000D02*
X67620000Y-117015000D01*
X67620000Y-119865000D02*
X67620000Y-123460000D01*
%TO.C,Q1*%
X116500800Y-110784800D02*
X116500800Y-107184800D01*
X112050800Y-108984800D02*
G75*
G02*
X116489278Y-107146322I2600000J0D01*
G01*
X116489278Y-110823278D02*
G75*
G02*
X112050800Y-108984800I-1838478J1838478D01*
G01*
%TO.C,R17*%
X128970800Y-89949800D02*
X128970800Y-86109800D01*
X130810800Y-89949800D02*
X130810800Y-86109800D01*
%TO.C,Q9*%
X143984800Y-108209800D02*
X143984800Y-118449800D01*
X147115800Y-108209800D02*
X147115800Y-118449800D01*
X148625800Y-108209800D02*
X143984800Y-108209800D01*
X148625800Y-108209800D02*
X148625800Y-118449800D01*
X148625800Y-111479800D02*
X147115800Y-111479800D01*
X148625800Y-115180800D02*
X147115800Y-115180800D01*
X148625800Y-118449800D02*
X143984800Y-118449800D01*
%TO.C,TP2*%
X159965800Y-81044800D02*
G75*
G02*
X156965800Y-81044800I-1500000J0D01*
G01*
X156965800Y-81044800D02*
G75*
G02*
X159965800Y-81044800I1500000J0D01*
G01*
%TO.C,R1*%
X88965800Y-105794800D02*
X88965800Y-109634800D01*
X90805800Y-105794800D02*
X90805800Y-109634800D01*
%TO.C,Q7*%
X116060000Y-98115000D02*
X116060000Y-94515000D01*
X111610000Y-96315000D02*
G75*
G02*
X116048478Y-94476522I2600000J0D01*
G01*
X116048478Y-98153478D02*
G75*
G02*
X111610000Y-96315000I-1838478J1838478D01*
G01*
%TO.C,D4*%
X88791200Y-73184400D02*
X88791200Y-77424400D01*
X88791200Y-77424400D02*
X91031200Y-77424400D01*
X89911200Y-72534400D02*
X89911200Y-73184400D01*
X89911200Y-78074400D02*
X89911200Y-77424400D01*
X91031200Y-73184400D02*
X88791200Y-73184400D01*
X91031200Y-73784400D02*
X88791200Y-73784400D01*
X91031200Y-73904400D02*
X88791200Y-73904400D01*
X91031200Y-74024400D02*
X88791200Y-74024400D01*
X91031200Y-77424400D02*
X91031200Y-73184400D01*
%TO.C,Q3*%
X97850000Y-128995000D02*
X97850000Y-132595000D01*
X97861522Y-128956522D02*
G75*
G02*
X102300000Y-130795000I1838478J-1838478D01*
G01*
X102300000Y-130795000D02*
G75*
G02*
X97861522Y-132633478I-2600000J0D01*
G01*
%TO.C,Q5*%
X142170800Y-124819800D02*
X146811800Y-124819800D01*
X142170800Y-128088800D02*
X143680800Y-128088800D01*
X142170800Y-131789800D02*
X143680800Y-131789800D01*
X142170800Y-135059800D02*
X142170800Y-124819800D01*
X142170800Y-135059800D02*
X146811800Y-135059800D01*
X143680800Y-135059800D02*
X143680800Y-124819800D01*
X146811800Y-135059800D02*
X146811800Y-124819800D01*
%TO.C,C8*%
X163558959Y-77490000D02*
X164808959Y-77490000D01*
X164183959Y-76865000D02*
X164183959Y-78115000D01*
X170376041Y-74735000D02*
X170376041Y-87395000D01*
X170416041Y-74735000D02*
X170416041Y-87395000D01*
X170456041Y-74735000D02*
X170456041Y-87395000D01*
X170496041Y-74736000D02*
X170496041Y-87394000D01*
X170536041Y-74737000D02*
X170536041Y-87393000D01*
X170576041Y-74738000D02*
X170576041Y-87392000D01*
X170616041Y-74739000D02*
X170616041Y-87391000D01*
X170656041Y-74741000D02*
X170656041Y-87389000D01*
X170696041Y-74743000D02*
X170696041Y-87387000D01*
X170736041Y-74745000D02*
X170736041Y-87385000D01*
X170776041Y-74747000D02*
X170776041Y-87383000D01*
X170816041Y-74750000D02*
X170816041Y-87380000D01*
X170856041Y-74753000D02*
X170856041Y-87377000D01*
X170896041Y-74756000D02*
X170896041Y-87374000D01*
X170936041Y-74759000D02*
X170936041Y-87371000D01*
X170976041Y-74763000D02*
X170976041Y-87367000D01*
X171016041Y-74767000D02*
X171016041Y-87363000D01*
X171056041Y-74771000D02*
X171056041Y-87359000D01*
X171097041Y-74775000D02*
X171097041Y-87355000D01*
X171137041Y-74780000D02*
X171137041Y-87350000D01*
X171177041Y-74785000D02*
X171177041Y-87345000D01*
X171217041Y-74790000D02*
X171217041Y-87340000D01*
X171257041Y-74796000D02*
X171257041Y-87334000D01*
X171297041Y-74801000D02*
X171297041Y-87329000D01*
X171337041Y-74807000D02*
X171337041Y-87323000D01*
X171377041Y-74813000D02*
X171377041Y-87317000D01*
X171417041Y-74820000D02*
X171417041Y-87310000D01*
X171457041Y-74827000D02*
X171457041Y-87303000D01*
X171497041Y-74834000D02*
X171497041Y-87296000D01*
X171537041Y-74841000D02*
X171537041Y-87289000D01*
X171577041Y-74849000D02*
X171577041Y-87281000D01*
X171617041Y-74856000D02*
X171617041Y-87274000D01*
X171657041Y-74864000D02*
X171657041Y-87266000D01*
X171697041Y-74873000D02*
X171697041Y-87257000D01*
X171737041Y-74881000D02*
X171737041Y-87249000D01*
X171777041Y-74890000D02*
X171777041Y-87240000D01*
X171817041Y-74899000D02*
X171817041Y-87231000D01*
X171857041Y-74909000D02*
X171857041Y-87221000D01*
X171897041Y-74919000D02*
X171897041Y-87211000D01*
X171937041Y-74928000D02*
X171937041Y-87202000D01*
X171977041Y-74939000D02*
X171977041Y-87191000D01*
X172017041Y-74949000D02*
X172017041Y-87181000D01*
X172057041Y-74960000D02*
X172057041Y-87170000D01*
X172097041Y-74971000D02*
X172097041Y-87159000D01*
X172137041Y-74982000D02*
X172137041Y-87148000D01*
X172177041Y-74994000D02*
X172177041Y-87136000D01*
X172217041Y-75006000D02*
X172217041Y-87124000D01*
X172257041Y-75018000D02*
X172257041Y-87112000D01*
X172297041Y-75031000D02*
X172297041Y-87099000D01*
X172337041Y-75044000D02*
X172337041Y-87086000D01*
X172377041Y-75057000D02*
X172377041Y-87073000D01*
X172417041Y-75070000D02*
X172417041Y-87060000D01*
X172457041Y-75084000D02*
X172457041Y-87046000D01*
X172497041Y-75098000D02*
X172497041Y-87032000D01*
X172537041Y-75112000D02*
X172537041Y-87018000D01*
X172577041Y-75126000D02*
X172577041Y-87004000D01*
X172617041Y-75141000D02*
X172617041Y-86989000D01*
X172657041Y-75157000D02*
X172657041Y-86973000D01*
X172697041Y-75172000D02*
X172697041Y-79625000D01*
X172697041Y-82505000D02*
X172697041Y-86958000D01*
X172737041Y-75188000D02*
X172737041Y-79625000D01*
X172737041Y-82505000D02*
X172737041Y-86942000D01*
X172777041Y-75204000D02*
X172777041Y-79625000D01*
X172777041Y-82505000D02*
X172777041Y-86926000D01*
X172817041Y-75220000D02*
X172817041Y-79625000D01*
X172817041Y-82505000D02*
X172817041Y-86910000D01*
X172857041Y-75237000D02*
X172857041Y-79625000D01*
X172857041Y-82505000D02*
X172857041Y-86893000D01*
X172897041Y-75254000D02*
X172897041Y-79625000D01*
X172897041Y-82505000D02*
X172897041Y-86876000D01*
X172937041Y-75272000D02*
X172937041Y-79625000D01*
X172937041Y-82505000D02*
X172937041Y-86858000D01*
X172977041Y-75289000D02*
X172977041Y-79625000D01*
X172977041Y-82505000D02*
X172977041Y-86841000D01*
X173017041Y-75307000D02*
X173017041Y-79625000D01*
X173017041Y-82505000D02*
X173017041Y-86823000D01*
X173057041Y-75326000D02*
X173057041Y-79625000D01*
X173057041Y-82505000D02*
X173057041Y-86804000D01*
X173097041Y-75344000D02*
X173097041Y-79625000D01*
X173097041Y-82505000D02*
X173097041Y-86786000D01*
X173137041Y-75363000D02*
X173137041Y-79625000D01*
X173137041Y-82505000D02*
X173137041Y-86767000D01*
X173177041Y-75383000D02*
X173177041Y-79625000D01*
X173177041Y-82505000D02*
X173177041Y-86747000D01*
X173217041Y-75403000D02*
X173217041Y-79625000D01*
X173217041Y-82505000D02*
X173217041Y-86727000D01*
X173257041Y-75423000D02*
X173257041Y-79625000D01*
X173257041Y-82505000D02*
X173257041Y-86707000D01*
X173297041Y-75443000D02*
X173297041Y-79625000D01*
X173297041Y-82505000D02*
X173297041Y-86687000D01*
X173337041Y-75464000D02*
X173337041Y-79625000D01*
X173337041Y-82505000D02*
X173337041Y-86666000D01*
X173377041Y-75485000D02*
X173377041Y-79625000D01*
X173377041Y-82505000D02*
X173377041Y-86645000D01*
X173417041Y-75507000D02*
X173417041Y-79625000D01*
X173417041Y-82505000D02*
X173417041Y-86623000D01*
X173457041Y-75529000D02*
X173457041Y-79625000D01*
X173457041Y-82505000D02*
X173457041Y-86601000D01*
X173497041Y-75551000D02*
X173497041Y-79625000D01*
X173497041Y-82505000D02*
X173497041Y-86579000D01*
X173537041Y-75574000D02*
X173537041Y-79625000D01*
X173537041Y-82505000D02*
X173537041Y-86556000D01*
X173577041Y-75597000D02*
X173577041Y-79625000D01*
X173577041Y-82505000D02*
X173577041Y-86533000D01*
X173617041Y-75620000D02*
X173617041Y-79625000D01*
X173617041Y-82505000D02*
X173617041Y-86510000D01*
X173657041Y-75644000D02*
X173657041Y-79625000D01*
X173657041Y-82505000D02*
X173657041Y-86486000D01*
X173697041Y-75668000D02*
X173697041Y-79625000D01*
X173697041Y-82505000D02*
X173697041Y-86462000D01*
X173737041Y-75693000D02*
X173737041Y-79625000D01*
X173737041Y-82505000D02*
X173737041Y-86437000D01*
X173777041Y-75718000D02*
X173777041Y-79625000D01*
X173777041Y-82505000D02*
X173777041Y-86412000D01*
X173817041Y-75743000D02*
X173817041Y-79625000D01*
X173817041Y-82505000D02*
X173817041Y-86387000D01*
X173857041Y-75769000D02*
X173857041Y-79625000D01*
X173857041Y-82505000D02*
X173857041Y-86361000D01*
X173897041Y-75795000D02*
X173897041Y-79625000D01*
X173897041Y-82505000D02*
X173897041Y-86335000D01*
X173937041Y-75822000D02*
X173937041Y-79625000D01*
X173937041Y-82505000D02*
X173937041Y-86308000D01*
X173977041Y-75849000D02*
X173977041Y-79625000D01*
X173977041Y-82505000D02*
X173977041Y-86281000D01*
X174017041Y-75877000D02*
X174017041Y-79625000D01*
X174017041Y-82505000D02*
X174017041Y-86253000D01*
X174057041Y-75905000D02*
X174057041Y-79625000D01*
X174057041Y-82505000D02*
X174057041Y-86225000D01*
X174097041Y-75934000D02*
X174097041Y-79625000D01*
X174097041Y-82505000D02*
X174097041Y-86196000D01*
X174137041Y-75963000D02*
X174137041Y-79625000D01*
X174137041Y-82505000D02*
X174137041Y-86167000D01*
X174177041Y-75992000D02*
X174177041Y-79625000D01*
X174177041Y-82505000D02*
X174177041Y-86138000D01*
X174217041Y-76022000D02*
X174217041Y-79625000D01*
X174217041Y-82505000D02*
X174217041Y-86108000D01*
X174257041Y-76053000D02*
X174257041Y-79625000D01*
X174257041Y-82505000D02*
X174257041Y-86077000D01*
X174297041Y-76083000D02*
X174297041Y-79625000D01*
X174297041Y-82505000D02*
X174297041Y-86047000D01*
X174337041Y-76115000D02*
X174337041Y-79625000D01*
X174337041Y-82505000D02*
X174337041Y-86015000D01*
X174377041Y-76147000D02*
X174377041Y-79625000D01*
X174377041Y-82505000D02*
X174377041Y-85983000D01*
X174417041Y-76180000D02*
X174417041Y-79625000D01*
X174417041Y-82505000D02*
X174417041Y-85950000D01*
X174457041Y-76213000D02*
X174457041Y-79625000D01*
X174457041Y-82505000D02*
X174457041Y-85917000D01*
X174497041Y-76246000D02*
X174497041Y-79625000D01*
X174497041Y-82505000D02*
X174497041Y-85884000D01*
X174537041Y-76280000D02*
X174537041Y-79625000D01*
X174537041Y-82505000D02*
X174537041Y-85850000D01*
X174577041Y-76315000D02*
X174577041Y-79625000D01*
X174577041Y-82505000D02*
X174577041Y-85815000D01*
X174617041Y-76351000D02*
X174617041Y-79625000D01*
X174617041Y-82505000D02*
X174617041Y-85779000D01*
X174657041Y-76387000D02*
X174657041Y-79625000D01*
X174657041Y-82505000D02*
X174657041Y-85743000D01*
X174697041Y-76423000D02*
X174697041Y-79625000D01*
X174697041Y-82505000D02*
X174697041Y-85707000D01*
X174737041Y-76460000D02*
X174737041Y-79625000D01*
X174737041Y-82505000D02*
X174737041Y-85670000D01*
X174777041Y-76498000D02*
X174777041Y-79625000D01*
X174777041Y-82505000D02*
X174777041Y-85632000D01*
X174817041Y-76537000D02*
X174817041Y-79625000D01*
X174817041Y-82505000D02*
X174817041Y-85593000D01*
X174857041Y-76576000D02*
X174857041Y-79625000D01*
X174857041Y-82505000D02*
X174857041Y-85554000D01*
X174897041Y-76616000D02*
X174897041Y-79625000D01*
X174897041Y-82505000D02*
X174897041Y-85514000D01*
X174937041Y-76657000D02*
X174937041Y-79625000D01*
X174937041Y-82505000D02*
X174937041Y-85473000D01*
X174977041Y-76698000D02*
X174977041Y-79625000D01*
X174977041Y-82505000D02*
X174977041Y-85432000D01*
X175017041Y-76740000D02*
X175017041Y-79625000D01*
X175017041Y-82505000D02*
X175017041Y-85390000D01*
X175057041Y-76783000D02*
X175057041Y-79625000D01*
X175057041Y-82505000D02*
X175057041Y-85347000D01*
X175097041Y-76827000D02*
X175097041Y-79625000D01*
X175097041Y-82505000D02*
X175097041Y-85303000D01*
X175137041Y-76871000D02*
X175137041Y-79625000D01*
X175137041Y-82505000D02*
X175137041Y-85259000D01*
X175177041Y-76917000D02*
X175177041Y-79625000D01*
X175177041Y-82505000D02*
X175177041Y-85213000D01*
X175217041Y-76963000D02*
X175217041Y-79625000D01*
X175217041Y-82505000D02*
X175217041Y-85167000D01*
X175257041Y-77010000D02*
X175257041Y-79625000D01*
X175257041Y-82505000D02*
X175257041Y-85120000D01*
X175297041Y-77058000D02*
X175297041Y-79625000D01*
X175297041Y-82505000D02*
X175297041Y-85072000D01*
X175337041Y-77108000D02*
X175337041Y-79625000D01*
X175337041Y-82505000D02*
X175337041Y-85022000D01*
X175377041Y-77158000D02*
X175377041Y-79625000D01*
X175377041Y-82505000D02*
X175377041Y-84972000D01*
X175417041Y-77209000D02*
X175417041Y-79625000D01*
X175417041Y-82505000D02*
X175417041Y-84921000D01*
X175457041Y-77261000D02*
X175457041Y-79625000D01*
X175457041Y-82505000D02*
X175457041Y-84869000D01*
X175497041Y-77315000D02*
X175497041Y-79625000D01*
X175497041Y-82505000D02*
X175497041Y-84815000D01*
X175537041Y-77369000D02*
X175537041Y-79625000D01*
X175537041Y-82505000D02*
X175537041Y-84761000D01*
X175577041Y-77425000D02*
X175577041Y-84705000D01*
X175617041Y-77482000D02*
X175617041Y-84648000D01*
X175657041Y-77541000D02*
X175657041Y-84589000D01*
X175697041Y-77601000D02*
X175697041Y-84529000D01*
X175737041Y-77663000D02*
X175737041Y-84467000D01*
X175777041Y-77726000D02*
X175777041Y-84404000D01*
X175817041Y-77790000D02*
X175817041Y-84340000D01*
X175857041Y-77857000D02*
X175857041Y-84273000D01*
X175897041Y-77925000D02*
X175897041Y-84205000D01*
X175937041Y-77996000D02*
X175937041Y-84134000D01*
X175977041Y-78069000D02*
X175977041Y-84061000D01*
X176017041Y-78144000D02*
X176017041Y-83986000D01*
X176057041Y-78221000D02*
X176057041Y-83909000D01*
X176097041Y-78301000D02*
X176097041Y-83829000D01*
X176137041Y-78384000D02*
X176137041Y-83746000D01*
X176177041Y-78471000D02*
X176177041Y-83659000D01*
X176217041Y-78561000D02*
X176217041Y-83569000D01*
X176257041Y-78655000D02*
X176257041Y-83475000D01*
X176297041Y-78753000D02*
X176297041Y-83377000D01*
X176337041Y-78856000D02*
X176337041Y-83274000D01*
X176377041Y-78965000D02*
X176377041Y-83165000D01*
X176417041Y-79081000D02*
X176417041Y-83049000D01*
X176457041Y-79204000D02*
X176457041Y-82926000D01*
X176497041Y-79337000D02*
X176497041Y-82793000D01*
X176537041Y-79482000D02*
X176537041Y-82648000D01*
X176577041Y-79643000D02*
X176577041Y-82487000D01*
X176617041Y-79824000D02*
X176617041Y-82306000D01*
X176657041Y-80037000D02*
X176657041Y-82093000D01*
X176697041Y-80308000D02*
X176697041Y-81822000D01*
X176737041Y-80748000D02*
X176737041Y-81382000D01*
X176746041Y-81065000D02*
G75*
G02*
X164006041Y-81065000I-6370000J0D01*
G01*
X164006041Y-81065000D02*
G75*
G02*
X176746041Y-81065000I6370000J0D01*
G01*
%TO.C,Q4*%
X112165800Y-117344800D02*
X112165800Y-120944800D01*
X112177322Y-117306322D02*
G75*
G02*
X116615800Y-119144800I1838478J-1838478D01*
G01*
X116615800Y-119144800D02*
G75*
G02*
X112177322Y-120983278I-2600000J0D01*
G01*
%TO.C,R13*%
X88965800Y-100744800D02*
X88965800Y-96904800D01*
X90805800Y-100744800D02*
X90805800Y-96904800D01*
%TO.C,R5*%
X128970800Y-124209800D02*
X128970800Y-128049800D01*
X130810800Y-124209800D02*
X130810800Y-128049800D01*
%TO.C,R4*%
X102600800Y-117589800D02*
X98760800Y-117589800D01*
X102600800Y-119429800D02*
X98760800Y-119429800D01*
%TO.C,D2*%
X88765800Y-128454800D02*
X88765800Y-132694800D01*
X88765800Y-131854800D02*
X91005800Y-131854800D01*
X88765800Y-131974800D02*
X91005800Y-131974800D01*
X88765800Y-132094800D02*
X91005800Y-132094800D01*
X88765800Y-132694800D02*
X91005800Y-132694800D01*
X89885800Y-127804800D02*
X89885800Y-128454800D01*
X89885800Y-133344800D02*
X89885800Y-132694800D01*
X91005800Y-128454800D02*
X88765800Y-128454800D01*
X91005800Y-132694800D02*
X91005800Y-128454800D01*
%TO.C,Q2*%
X142150800Y-88454800D02*
X147190800Y-88454800D01*
X142150800Y-93929800D02*
X143660800Y-93929800D01*
X142150800Y-98159800D02*
X143660800Y-98159800D01*
X142150800Y-103634800D02*
X142150800Y-88454800D01*
X142150800Y-103634800D02*
X147190800Y-103634800D01*
X143660800Y-89169800D02*
X143660800Y-88454800D01*
X143660800Y-94644800D02*
X143660800Y-91969800D01*
X143660800Y-100119800D02*
X143660800Y-97444800D01*
X143660800Y-103634800D02*
X143660800Y-102919800D01*
X147190800Y-89169800D02*
X147190800Y-88454800D01*
X147190800Y-94644800D02*
X147190800Y-91969800D01*
X147190800Y-100119800D02*
X147190800Y-97444800D01*
X147190800Y-103634800D02*
X147190800Y-102919800D01*
%TD*%
M02*
