%TF.GenerationSoftware,KiCad,Pcbnew,8.0.1*%
%TF.CreationDate,2024-09-10T19:28:36-07:00*%
%TF.ProjectId,Dorr_Amp_REV-,446f7272-5f41-46d7-905f-5245562d2e6b,-*%
%TF.SameCoordinates,Original*%
%TF.FileFunction,Copper,L2,Bot*%
%TF.FilePolarity,Positive*%
%FSLAX46Y46*%
G04 Gerber Fmt 4.6, Leading zero omitted, Abs format (unit mm)*
G04 Created by KiCad (PCBNEW 8.0.1) date 2024-09-10 19:28:36*
%MOMM*%
%LPD*%
G01*
G04 APERTURE LIST*
G04 Aperture macros list*
%AMRoundRect*
0 Rectangle with rounded corners*
0 $1 Rounding radius*
0 $2 $3 $4 $5 $6 $7 $8 $9 X,Y pos of 4 corners*
0 Add a 4 corners polygon primitive as box body*
4,1,4,$2,$3,$4,$5,$6,$7,$8,$9,$2,$3,0*
0 Add four circle primitives for the rounded corners*
1,1,$1+$1,$2,$3*
1,1,$1+$1,$4,$5*
1,1,$1+$1,$6,$7*
1,1,$1+$1,$8,$9*
0 Add four rect primitives between the rounded corners*
20,1,$1+$1,$2,$3,$4,$5,0*
20,1,$1+$1,$4,$5,$6,$7,0*
20,1,$1+$1,$6,$7,$8,$9,0*
20,1,$1+$1,$8,$9,$2,$3,0*%
G04 Aperture macros list end*
%TA.AperFunction,ComponentPad*%
%ADD10C,1.400000*%
%TD*%
%TA.AperFunction,ComponentPad*%
%ADD11O,1.400000X1.400000*%
%TD*%
%TA.AperFunction,ComponentPad*%
%ADD12C,2.000000*%
%TD*%
%TA.AperFunction,ComponentPad*%
%ADD13R,1.200000X1.200000*%
%TD*%
%TA.AperFunction,ComponentPad*%
%ADD14C,1.200000*%
%TD*%
%TA.AperFunction,ComponentPad*%
%ADD15C,4.700000*%
%TD*%
%TA.AperFunction,ComponentPad*%
%ADD16RoundRect,0.250000X1.750000X-1.750000X1.750000X1.750000X-1.750000X1.750000X-1.750000X-1.750000X0*%
%TD*%
%TA.AperFunction,ComponentPad*%
%ADD17C,4.000000*%
%TD*%
%TA.AperFunction,ComponentPad*%
%ADD18C,2.340000*%
%TD*%
%TA.AperFunction,ComponentPad*%
%ADD19R,1.500000X1.050000*%
%TD*%
%TA.AperFunction,ComponentPad*%
%ADD20O,1.500000X1.050000*%
%TD*%
%TA.AperFunction,ComponentPad*%
%ADD21R,1.600000X1.600000*%
%TD*%
%TA.AperFunction,ComponentPad*%
%ADD22O,1.600000X1.600000*%
%TD*%
%TA.AperFunction,ComponentPad*%
%ADD23R,3.500000X2.500000*%
%TD*%
%TA.AperFunction,ComponentPad*%
%ADD24O,3.500000X2.500000*%
%TD*%
%TA.AperFunction,ComponentPad*%
%ADD25RoundRect,0.250000X-1.750000X1.750000X-1.750000X-1.750000X1.750000X-1.750000X1.750000X1.750000X0*%
%TD*%
%TA.AperFunction,ComponentPad*%
%ADD26R,2.000000X1.905000*%
%TD*%
%TA.AperFunction,ComponentPad*%
%ADD27O,2.000000X1.905000*%
%TD*%
%TA.AperFunction,ComponentPad*%
%ADD28R,2.400000X2.400000*%
%TD*%
%TA.AperFunction,ComponentPad*%
%ADD29C,2.400000*%
%TD*%
%TA.AperFunction,Conductor*%
%ADD30C,0.200000*%
%TD*%
%TA.AperFunction,Conductor*%
%ADD31C,0.762000*%
%TD*%
%TA.AperFunction,Conductor*%
%ADD32C,1.270000*%
%TD*%
G04 APERTURE END LIST*
D10*
%TO.P,R8,1*%
%TO.N,Net-(D1-K)*%
X67260000Y-128665000D03*
D11*
%TO.P,R8,2*%
%TO.N,GND*%
X72340000Y-128665000D03*
%TD*%
D10*
%TO.P,R14,1*%
%TO.N,Net-(C8-Pad1)*%
X103220800Y-86759800D03*
D11*
%TO.P,R14,2*%
%TO.N,Net-(D3-K)*%
X98140800Y-86759800D03*
%TD*%
D12*
%TO.P,TP1,1,1*%
%TO.N,Net-(J1-Pin_2)*%
X158465800Y-126764800D03*
%TD*%
D10*
%TO.P,R12,1*%
%TO.N,Net-(D3-K)*%
X72740800Y-81044800D03*
D11*
%TO.P,R12,2*%
%TO.N,GND*%
X77820800Y-81044800D03*
%TD*%
D13*
%TO.P,C1,1*%
%TO.N,/18V*%
X159100800Y-104944800D03*
D14*
%TO.P,C1,2*%
%TO.N,GND*%
X159100800Y-106444800D03*
%TD*%
D15*
%TO.P,H1,1,1*%
%TO.N,GND*%
X42265600Y-66675000D03*
%TD*%
%TO.P,H3,1,1*%
%TO.N,GND*%
X41960800Y-134797800D03*
%TD*%
D10*
%TO.P,R15,1*%
%TO.N,Net-(Q2-B)*%
X129850000Y-95575000D03*
D11*
%TO.P,R15,2*%
%TO.N,/18V*%
X129850000Y-100655000D03*
%TD*%
D16*
%TO.P,J3,1,Pin_1*%
%TO.N,/18V*%
X76250800Y-105079800D03*
D17*
%TO.P,J3,2,Pin_2*%
%TO.N,GND*%
X76250800Y-97879800D03*
%TD*%
D15*
%TO.P,H4,1,1*%
%TO.N,GND*%
X187299600Y-134848600D03*
%TD*%
%TO.P,H2,1,1*%
%TO.N,GND*%
X187401200Y-66319400D03*
%TD*%
D10*
%TO.P,R3,1*%
%TO.N,Net-(Q1-E)*%
X129890800Y-114064800D03*
D11*
%TO.P,R3,2*%
%TO.N,Net-(J1-Pin_2)*%
X129890800Y-119144800D03*
%TD*%
D13*
%TO.P,C3,1*%
%TO.N,Net-(J2-Pin_1)*%
X49880800Y-128669800D03*
D14*
%TO.P,C3,2*%
%TO.N,Net-(C3-Pad2)*%
X51380800Y-128669800D03*
%TD*%
D18*
%TO.P,R11,1*%
%TO.N,Net-(D3-K)*%
X70280800Y-74629800D03*
%TO.P,R11,2*%
%TO.N,GND*%
X80280800Y-72129800D03*
%TO.P,R11,3*%
%TO.N,N/C*%
X70280800Y-69629800D03*
%TD*%
D10*
%TO.P,R2,1*%
%TO.N,Net-(Q1-C)*%
X129890800Y-110254800D03*
D11*
%TO.P,R2,2*%
%TO.N,/18V*%
X129890800Y-105174800D03*
%TD*%
D13*
%TO.P,C5,1*%
%TO.N,Net-(J2-Pin_2)*%
X49880800Y-74694800D03*
D14*
%TO.P,C5,2*%
%TO.N,Net-(C5-Pad2)*%
X51380800Y-74694800D03*
%TD*%
D19*
%TO.P,Q6,1,E*%
%TO.N,GND*%
X100405800Y-74059800D03*
D20*
%TO.P,Q6,2,B*%
%TO.N,Net-(D3-K)*%
X100405800Y-72789800D03*
%TO.P,Q6,3,C*%
%TO.N,Net-(D4-K)*%
X100405800Y-71519800D03*
%TD*%
D21*
%TO.P,D3,1,K*%
%TO.N,Net-(D3-K)*%
X89885800Y-84219800D03*
D22*
%TO.P,D3,2,A*%
%TO.N,Net-(D3-A)*%
X89885800Y-91839800D03*
%TD*%
D13*
%TO.P,C6,1*%
%TO.N,Net-(D4-K)*%
X109570800Y-72559800D03*
D14*
%TO.P,C6,2*%
%TO.N,GND*%
X109570800Y-74059800D03*
%TD*%
D10*
%TO.P,R10,1*%
%TO.N,Net-(D3-K)*%
X63215800Y-74694800D03*
D11*
%TO.P,R10,2*%
%TO.N,Net-(C5-Pad2)*%
X58135800Y-74694800D03*
%TD*%
D13*
%TO.P,C4,1*%
%TO.N,Net-(D2-K)*%
X113900000Y-133687600D03*
D14*
%TO.P,C4,2*%
%TO.N,GND*%
X113900000Y-132187600D03*
%TD*%
D10*
%TO.P,R6,1*%
%TO.N,Net-(D1-K)*%
X62580800Y-128669800D03*
D11*
%TO.P,R6,2*%
%TO.N,Net-(C3-Pad2)*%
X57500800Y-128669800D03*
%TD*%
D23*
%TO.P,Q10,1,E*%
%TO.N,GND*%
X143860800Y-68979800D03*
D24*
%TO.P,Q10,2,B*%
%TO.N,Net-(Q10-B)*%
X143860800Y-74454800D03*
%TO.P,Q10,3,C*%
%TO.N,Net-(Q10-C)*%
X143860800Y-79929800D03*
%TD*%
D13*
%TO.P,C7,1*%
%TO.N,/18V*%
X166500000Y-104765000D03*
D14*
%TO.P,C7,2*%
%TO.N,GND*%
X166500000Y-106265000D03*
%TD*%
D10*
%TO.P,R16,1*%
%TO.N,Net-(Q10-B)*%
X125445800Y-69614800D03*
D11*
%TO.P,R16,2*%
%TO.N,GND*%
X120365800Y-69614800D03*
%TD*%
D21*
%TO.P,D1,1,K*%
%TO.N,Net-(D1-K)*%
X89885800Y-122319800D03*
D22*
%TO.P,D1,2,A*%
%TO.N,Net-(D1-A)*%
X89885800Y-114699800D03*
%TD*%
D10*
%TO.P,R9,1*%
%TO.N,Net-(Q4-C)*%
X126080800Y-131844800D03*
D11*
%TO.P,R9,2*%
%TO.N,GND*%
X121000800Y-131844800D03*
%TD*%
D25*
%TO.P,J1,1,Pin_1*%
%TO.N,Net-(J1-Pin_1)*%
X181000000Y-98365000D03*
D17*
%TO.P,J1,2,Pin_2*%
%TO.N,Net-(J1-Pin_2)*%
X181000000Y-105565000D03*
%TD*%
D19*
%TO.P,Q8,1,E*%
%TO.N,Net-(Q10-C)*%
X114650800Y-87394800D03*
D20*
%TO.P,Q8,2,B*%
%TO.N,Net-(D4-K)*%
X114650800Y-86124800D03*
%TO.P,Q8,3,C*%
%TO.N,Net-(Q10-B)*%
X114650800Y-84854800D03*
%TD*%
D10*
%TO.P,R18,1*%
%TO.N,Net-(C8-Pad1)*%
X129890800Y-79774800D03*
D11*
%TO.P,R18,2*%
%TO.N,Net-(Q10-C)*%
X129890800Y-74694800D03*
%TD*%
D18*
%TO.P,R7,1*%
%TO.N,Net-(D1-K)*%
X57500000Y-120940000D03*
%TO.P,R7,2*%
%TO.N,GND*%
X67500000Y-118440000D03*
%TO.P,R7,3*%
%TO.N,N/C*%
X57500000Y-115940000D03*
%TD*%
D19*
%TO.P,Q1,1,E*%
%TO.N,Net-(Q1-E)*%
X114650800Y-110254800D03*
D20*
%TO.P,Q1,2,B*%
%TO.N,Net-(D1-A)*%
X114650800Y-108984800D03*
%TO.P,Q1,3,C*%
%TO.N,Net-(Q1-C)*%
X114650800Y-107714800D03*
%TD*%
D10*
%TO.P,R17,1*%
%TO.N,Net-(Q2-C)*%
X129890800Y-90569800D03*
D11*
%TO.P,R17,2*%
%TO.N,Net-(C8-Pad1)*%
X129890800Y-85489800D03*
%TD*%
D26*
%TO.P,Q9,1,E*%
%TO.N,/18V*%
X145355800Y-110789800D03*
D27*
%TO.P,Q9,2,B*%
%TO.N,Net-(Q1-C)*%
X145355800Y-113329800D03*
%TO.P,Q9,3,C*%
%TO.N,Net-(Q1-E)*%
X145355800Y-115869800D03*
%TD*%
D12*
%TO.P,TP2,1,1*%
%TO.N,Net-(C8-Pad1)*%
X158465800Y-81044800D03*
%TD*%
D10*
%TO.P,R1,1*%
%TO.N,/18V*%
X89885800Y-105174800D03*
D11*
%TO.P,R1,2*%
%TO.N,Net-(D1-A)*%
X89885800Y-110254800D03*
%TD*%
D19*
%TO.P,Q7,1,E*%
%TO.N,Net-(Q2-C)*%
X114210000Y-97585000D03*
D20*
%TO.P,Q7,2,B*%
%TO.N,Net-(D3-A)*%
X114210000Y-96315000D03*
%TO.P,Q7,3,C*%
%TO.N,Net-(Q2-B)*%
X114210000Y-95045000D03*
%TD*%
D16*
%TO.P,J2,1,Pin_1*%
%TO.N,Net-(J2-Pin_1)*%
X50007800Y-120096400D03*
D17*
%TO.P,J2,2,Pin_2*%
%TO.N,Net-(J2-Pin_2)*%
X50007800Y-112896400D03*
%TD*%
D21*
%TO.P,D4,1,K*%
%TO.N,Net-(D4-K)*%
X89911200Y-71494400D03*
D22*
%TO.P,D4,2,A*%
%TO.N,Net-(D3-K)*%
X89911200Y-79114400D03*
%TD*%
D19*
%TO.P,Q3,1,E*%
%TO.N,GND*%
X99700000Y-129525000D03*
D20*
%TO.P,Q3,2,B*%
%TO.N,Net-(D1-K)*%
X99700000Y-130795000D03*
%TO.P,Q3,3,C*%
%TO.N,Net-(D2-K)*%
X99700000Y-132065000D03*
%TD*%
D26*
%TO.P,Q5,1,E*%
%TO.N,GND*%
X145440800Y-132479800D03*
D27*
%TO.P,Q5,2,B*%
%TO.N,Net-(Q4-C)*%
X145440800Y-129939800D03*
%TO.P,Q5,3,C*%
%TO.N,Net-(Q4-E)*%
X145440800Y-127399800D03*
%TD*%
D28*
%TO.P,C8,1*%
%TO.N,Net-(C8-Pad1)*%
X166626041Y-81065000D03*
D29*
%TO.P,C8,2*%
%TO.N,Net-(J1-Pin_1)*%
X174126041Y-81065000D03*
%TD*%
D19*
%TO.P,Q4,1,E*%
%TO.N,Net-(Q4-E)*%
X114015800Y-117874800D03*
D20*
%TO.P,Q4,2,B*%
%TO.N,Net-(D2-K)*%
X114015800Y-119144800D03*
%TO.P,Q4,3,C*%
%TO.N,Net-(Q4-C)*%
X114015800Y-120414800D03*
%TD*%
D10*
%TO.P,R13,1*%
%TO.N,/18V*%
X89885800Y-101364800D03*
D11*
%TO.P,R13,2*%
%TO.N,Net-(D3-A)*%
X89885800Y-96284800D03*
%TD*%
D10*
%TO.P,R5,1*%
%TO.N,Net-(J1-Pin_2)*%
X129890800Y-123589800D03*
D11*
%TO.P,R5,2*%
%TO.N,Net-(Q4-E)*%
X129890800Y-128669800D03*
%TD*%
D10*
%TO.P,R4,1*%
%TO.N,Net-(J1-Pin_2)*%
X103220800Y-118509800D03*
D11*
%TO.P,R4,2*%
%TO.N,Net-(D1-K)*%
X98140800Y-118509800D03*
%TD*%
D21*
%TO.P,D2,1,K*%
%TO.N,Net-(D2-K)*%
X89885800Y-134384800D03*
D22*
%TO.P,D2,2,A*%
%TO.N,Net-(D1-K)*%
X89885800Y-126764800D03*
%TD*%
D23*
%TO.P,Q2,1,E*%
%TO.N,/18V*%
X145440800Y-101519800D03*
D24*
%TO.P,Q2,2,B*%
%TO.N,Net-(Q2-B)*%
X145440800Y-96044800D03*
%TO.P,Q2,3,C*%
%TO.N,Net-(Q2-C)*%
X145440800Y-90569800D03*
%TD*%
D30*
%TO.N,/18V*%
X166320200Y-104944800D02*
X166500000Y-104765000D01*
X159100800Y-104944800D02*
X166320200Y-104944800D01*
D31*
%TO.N,Net-(J1-Pin_2)*%
X179665600Y-105565000D02*
X181000000Y-105565000D01*
X158465800Y-126764800D02*
X179665600Y-105565000D01*
%TO.N,Net-(C8-Pad1)*%
X166626041Y-81065000D02*
X158486000Y-81065000D01*
X158486000Y-81065000D02*
X158465800Y-81044800D01*
%TO.N,Net-(J1-Pin_1)*%
X174126041Y-91491041D02*
X181000000Y-98365000D01*
X174126041Y-81065000D02*
X174126041Y-91491041D01*
%TO.N,Net-(C8-Pad1)*%
X129890800Y-82949800D02*
X129890800Y-85489800D01*
X158465800Y-81044800D02*
X154020800Y-85489800D01*
X154020800Y-85489800D02*
X140152400Y-85489800D01*
X140152400Y-85489800D02*
X134437400Y-79774800D01*
X129890800Y-82949800D02*
X129890800Y-79774800D01*
X134437400Y-79774800D02*
X129890800Y-79774800D01*
%TO.N,Net-(Q10-C)*%
X140205800Y-79929800D02*
X134970800Y-74694800D01*
X143860800Y-79929800D02*
X140205800Y-79929800D01*
X134970800Y-74694800D02*
X129890800Y-74694800D01*
D30*
%TO.N,Net-(Q2-C)*%
X122875600Y-97585000D02*
X129890800Y-90569800D01*
X114210000Y-97585000D02*
X122875600Y-97585000D01*
D31*
X129890800Y-90569800D02*
X145440800Y-90569800D01*
%TO.N,GND*%
X143860800Y-68979800D02*
X141759200Y-66878200D01*
D30*
X100405800Y-74969800D02*
X100405800Y-74059800D01*
D31*
X143535800Y-134384800D02*
X145440800Y-132479800D01*
X123102400Y-66878200D02*
X120365800Y-69614800D01*
X121000800Y-131844800D02*
X123540800Y-134384800D01*
X141759200Y-66878200D02*
X123102400Y-66878200D01*
X123540800Y-134384800D02*
X143535800Y-134384800D01*
D30*
X100405800Y-74059800D02*
X100680800Y-74059800D01*
X100680800Y-74059800D02*
X100910800Y-74289800D01*
%TO.N,Net-(D3-K)*%
X70215800Y-74694800D02*
X70280800Y-74629800D01*
%TO.N,/18V*%
X149035800Y-104944800D02*
X159100800Y-104944800D01*
X145440800Y-101519800D02*
X145610800Y-101519800D01*
D31*
X145440800Y-101519800D02*
X145461000Y-101540000D01*
D32*
X129890800Y-105174800D02*
X138145800Y-105174800D01*
X145440800Y-101519800D02*
X145440800Y-110704800D01*
X138145800Y-105174800D02*
X143860800Y-110889800D01*
D30*
X145440800Y-110704800D02*
X145355800Y-110789800D01*
X89885800Y-101364800D02*
X89885800Y-105174800D01*
X129850000Y-105134000D02*
X129890800Y-105174800D01*
X129850000Y-100655000D02*
X129850000Y-105134000D01*
D31*
X89867200Y-105193400D02*
X89885800Y-105174800D01*
D32*
X129890800Y-105174800D02*
X89885800Y-105174800D01*
D30*
X145610800Y-101519800D02*
X149035800Y-104944800D01*
D32*
X76169800Y-105193400D02*
X89867200Y-105193400D01*
D30*
%TO.N,Net-(Q4-C)*%
X126080800Y-131844800D02*
X137510800Y-131844800D01*
X139415800Y-129939800D02*
X145440800Y-129939800D01*
X137510800Y-131844800D02*
X139415800Y-129939800D01*
%TO.N,Net-(D1-K)*%
X89885800Y-122319800D02*
X89885800Y-126764800D01*
X98140800Y-118509800D02*
X97505800Y-118509800D01*
D31*
%TO.N,Net-(Q4-E)*%
X137510800Y-128669800D02*
X138780800Y-127399800D01*
X138780800Y-127399800D02*
X145440800Y-127399800D01*
X129890800Y-128669800D02*
X137510800Y-128669800D01*
D30*
%TO.N,Net-(D1-A)*%
X89885800Y-110254800D02*
X89885800Y-114699800D01*
%TO.N,Net-(Q1-C)*%
X144755800Y-112729800D02*
X145355800Y-113329800D01*
D31*
%TO.N,Net-(Q1-E)*%
X131695800Y-115869800D02*
X145355800Y-115869800D01*
X129890800Y-114064800D02*
X131695800Y-115869800D01*
D30*
%TO.N,Net-(Q2-B)*%
X144410800Y-95014800D02*
X145440800Y-96044800D01*
%TO.N,Net-(D4-K)*%
X89936600Y-71519800D02*
X89911200Y-71494400D01*
X90495400Y-71545200D02*
X89885800Y-72154800D01*
%TO.N,Net-(J2-Pin_2)*%
X49982400Y-74820407D02*
X49880800Y-74718807D01*
X49880800Y-74718807D02*
X49880800Y-74694800D01*
X49880800Y-112769400D02*
X50007800Y-112896400D01*
D31*
%TO.N,Net-(J2-Pin_1)*%
X50007800Y-128542800D02*
X49880800Y-128669800D01*
D30*
X49982400Y-128568200D02*
X49880800Y-128669800D01*
D31*
%TO.N,Net-(J1-Pin_2)*%
X129916200Y-123615200D02*
X129890800Y-123589800D01*
X152750800Y-126764800D02*
X149601200Y-123615200D01*
X149601200Y-123615200D02*
X129916200Y-123615200D01*
X129890800Y-119144800D02*
X129890800Y-123589800D01*
X158465800Y-126764800D02*
X152750800Y-126764800D01*
%TD*%
%TA.AperFunction,Conductor*%
%TO.N,GND*%
G36*
X190623339Y-63149985D02*
G01*
X190669094Y-63202789D01*
X190680300Y-63254300D01*
X190680300Y-138205300D01*
X190660615Y-138272339D01*
X190607811Y-138318094D01*
X190556300Y-138329300D01*
X39075300Y-138329300D01*
X39008261Y-138309615D01*
X38962506Y-138256811D01*
X38951300Y-138205300D01*
X38951300Y-135529037D01*
X38970985Y-135461998D01*
X39023789Y-135416243D01*
X39092947Y-135406299D01*
X39156503Y-135435324D01*
X39194091Y-135493474D01*
X39278136Y-135774208D01*
X39409627Y-136079036D01*
X39409633Y-136079049D01*
X39575624Y-136366555D01*
X39773157Y-136631887D01*
X40845528Y-135559516D01*
X40931078Y-135677266D01*
X41081334Y-135827522D01*
X41199081Y-135913070D01*
X40130089Y-136982063D01*
X40256015Y-137087725D01*
X40533388Y-137270156D01*
X40830052Y-137419147D01*
X40830058Y-137419150D01*
X41142013Y-137532692D01*
X41142034Y-137532699D01*
X41465048Y-137609256D01*
X41465063Y-137609258D01*
X41794812Y-137647799D01*
X41794813Y-137647800D01*
X42126787Y-137647800D01*
X42126787Y-137647799D01*
X42456536Y-137609258D01*
X42456551Y-137609256D01*
X42779565Y-137532699D01*
X42779586Y-137532692D01*
X43091541Y-137419150D01*
X43091547Y-137419147D01*
X43388211Y-137270156D01*
X43665589Y-137087722D01*
X43791508Y-136982063D01*
X43791509Y-136982062D01*
X42722518Y-135913070D01*
X42840266Y-135827522D01*
X42990522Y-135677266D01*
X43076070Y-135559517D01*
X44148441Y-136631888D01*
X44345975Y-136366556D01*
X44511966Y-136079049D01*
X44511972Y-136079036D01*
X44643463Y-135774208D01*
X44738678Y-135456165D01*
X44738681Y-135456151D01*
X44778087Y-135232670D01*
X88585300Y-135232670D01*
X88585301Y-135232676D01*
X88591708Y-135292283D01*
X88642002Y-135427128D01*
X88642006Y-135427135D01*
X88728252Y-135542344D01*
X88728255Y-135542347D01*
X88843464Y-135628593D01*
X88843471Y-135628597D01*
X88978317Y-135678891D01*
X88978316Y-135678891D01*
X88985244Y-135679635D01*
X89037927Y-135685300D01*
X90733672Y-135685299D01*
X90793283Y-135678891D01*
X90928131Y-135628596D01*
X91043346Y-135542346D01*
X91129596Y-135427131D01*
X91179891Y-135292283D01*
X91186300Y-135232673D01*
X91186300Y-134848603D01*
X184444770Y-134848603D01*
X184464073Y-135180026D01*
X184464074Y-135180037D01*
X184521718Y-135506951D01*
X184521721Y-135506965D01*
X184616936Y-135825008D01*
X184748427Y-136129836D01*
X184748433Y-136129849D01*
X184914424Y-136417355D01*
X185111957Y-136682687D01*
X186184328Y-135610316D01*
X186269878Y-135728066D01*
X186420134Y-135878322D01*
X186537881Y-135963870D01*
X185468889Y-137032863D01*
X185594815Y-137138525D01*
X185872188Y-137320956D01*
X186168852Y-137469947D01*
X186168858Y-137469950D01*
X186480813Y-137583492D01*
X186480834Y-137583499D01*
X186803848Y-137660056D01*
X186803863Y-137660058D01*
X187133612Y-137698599D01*
X187133613Y-137698600D01*
X187465587Y-137698600D01*
X187465587Y-137698599D01*
X187795336Y-137660058D01*
X187795351Y-137660056D01*
X188118365Y-137583499D01*
X188118386Y-137583492D01*
X188430341Y-137469950D01*
X188430347Y-137469947D01*
X188727011Y-137320956D01*
X189004389Y-137138522D01*
X189130308Y-137032863D01*
X189130309Y-137032862D01*
X188061318Y-135963870D01*
X188179066Y-135878322D01*
X188329322Y-135728066D01*
X188414870Y-135610317D01*
X189487241Y-136682688D01*
X189684775Y-136417356D01*
X189850766Y-136129849D01*
X189850772Y-136129836D01*
X189982263Y-135825008D01*
X190077478Y-135506965D01*
X190077481Y-135506951D01*
X190135125Y-135180037D01*
X190135126Y-135180026D01*
X190154430Y-134848603D01*
X190154430Y-134848596D01*
X190135126Y-134517173D01*
X190135125Y-134517162D01*
X190077481Y-134190248D01*
X190077478Y-134190234D01*
X189982263Y-133872191D01*
X189850772Y-133567363D01*
X189850766Y-133567350D01*
X189684772Y-133279839D01*
X189487242Y-133014510D01*
X188414870Y-134086881D01*
X188329322Y-133969134D01*
X188179066Y-133818878D01*
X188061317Y-133733328D01*
X189130309Y-132664336D01*
X189130309Y-132664335D01*
X189004384Y-132558674D01*
X188727011Y-132376243D01*
X188430347Y-132227252D01*
X188430341Y-132227249D01*
X188118386Y-132113707D01*
X188118365Y-132113700D01*
X187795351Y-132037143D01*
X187795336Y-132037141D01*
X187465587Y-131998600D01*
X187133613Y-131998600D01*
X186803863Y-132037141D01*
X186803848Y-132037143D01*
X186480834Y-132113700D01*
X186480813Y-132113707D01*
X186168858Y-132227249D01*
X186168852Y-132227252D01*
X185872181Y-132376246D01*
X185594820Y-132558670D01*
X185594813Y-132558675D01*
X185468889Y-132664335D01*
X186537882Y-133733328D01*
X186420134Y-133818878D01*
X186269878Y-133969134D01*
X186184328Y-134086882D01*
X185111957Y-133014511D01*
X185111956Y-133014511D01*
X184914429Y-133279836D01*
X184914425Y-133279842D01*
X184748433Y-133567350D01*
X184748427Y-133567363D01*
X184616936Y-133872191D01*
X184521721Y-134190234D01*
X184521718Y-134190248D01*
X184464074Y-134517162D01*
X184464073Y-134517173D01*
X184444770Y-134848596D01*
X184444770Y-134848603D01*
X91186300Y-134848603D01*
X91186299Y-133536928D01*
X91179891Y-133477317D01*
X91129596Y-133342469D01*
X91129595Y-133342468D01*
X91129593Y-133342464D01*
X91043347Y-133227255D01*
X91043344Y-133227252D01*
X90928135Y-133141006D01*
X90928128Y-133141002D01*
X90793282Y-133090708D01*
X90793283Y-133090708D01*
X90733683Y-133084301D01*
X90733681Y-133084300D01*
X90733673Y-133084300D01*
X90733664Y-133084300D01*
X89037929Y-133084300D01*
X89037923Y-133084301D01*
X88978316Y-133090708D01*
X88843471Y-133141002D01*
X88843464Y-133141006D01*
X88728255Y-133227252D01*
X88728252Y-133227255D01*
X88642006Y-133342464D01*
X88642002Y-133342471D01*
X88591708Y-133477317D01*
X88585301Y-133536916D01*
X88585301Y-133536923D01*
X88585300Y-133536935D01*
X88585300Y-135232670D01*
X44778087Y-135232670D01*
X44796325Y-135129237D01*
X44796326Y-135129226D01*
X44815630Y-134797803D01*
X44815630Y-134797796D01*
X44796326Y-134466373D01*
X44796325Y-134466362D01*
X44738681Y-134139448D01*
X44738678Y-134139434D01*
X44643463Y-133821391D01*
X44511972Y-133516563D01*
X44511966Y-133516550D01*
X44345972Y-133229039D01*
X44148442Y-132963710D01*
X43076070Y-134036081D01*
X42990522Y-133918334D01*
X42840266Y-133768078D01*
X42722517Y-133682528D01*
X43791509Y-132613536D01*
X43791509Y-132613535D01*
X43665584Y-132507874D01*
X43388211Y-132325443D01*
X43091547Y-132176452D01*
X43091541Y-132176449D01*
X43062852Y-132166007D01*
X98449500Y-132166007D01*
X98488907Y-132364119D01*
X98488909Y-132364127D01*
X98566212Y-132550752D01*
X98566217Y-132550762D01*
X98678441Y-132718718D01*
X98821281Y-132861558D01*
X98989237Y-132973782D01*
X98989241Y-132973784D01*
X98989244Y-132973786D01*
X99175873Y-133051091D01*
X99373992Y-133090499D01*
X99373996Y-133090500D01*
X99373997Y-133090500D01*
X100026004Y-133090500D01*
X100026005Y-133090499D01*
X100224127Y-133051091D01*
X100410756Y-132973786D01*
X100578718Y-132861558D01*
X100721558Y-132718718D01*
X100833786Y-132550756D01*
X100911091Y-132364127D01*
X100946204Y-132187600D01*
X112795287Y-132187600D01*
X112814096Y-132390589D01*
X112814097Y-132390591D01*
X112869884Y-132586663D01*
X112869890Y-132586678D01*
X112907688Y-132662585D01*
X112919949Y-132731370D01*
X112895955Y-132792168D01*
X112856204Y-132845268D01*
X112856202Y-132845271D01*
X112805908Y-132980117D01*
X112803348Y-133003935D01*
X112799501Y-133039723D01*
X112799500Y-133039735D01*
X112799500Y-134335470D01*
X112799501Y-134335476D01*
X112805908Y-134395083D01*
X112856202Y-134529928D01*
X112856206Y-134529935D01*
X112942452Y-134645144D01*
X112942455Y-134645147D01*
X113057664Y-134731393D01*
X113057671Y-134731397D01*
X113192517Y-134781691D01*
X113192516Y-134781691D01*
X113199444Y-134782435D01*
X113252127Y-134788100D01*
X114547872Y-134788099D01*
X114607483Y-134781691D01*
X114742331Y-134731396D01*
X114857546Y-134645146D01*
X114943796Y-134529931D01*
X114994091Y-134395083D01*
X115000500Y-134335473D01*
X115000499Y-133039728D01*
X114994091Y-132980117D01*
X114991728Y-132973782D01*
X114943797Y-132845271D01*
X114943795Y-132845268D01*
X114904044Y-132792167D01*
X114879627Y-132726703D01*
X114892311Y-132662583D01*
X114930114Y-132586664D01*
X114930115Y-132586663D01*
X114985902Y-132390591D01*
X114985903Y-132390589D01*
X115004713Y-132187600D01*
X115004713Y-132187599D01*
X114996114Y-132094800D01*
X119824305Y-132094800D01*
X119877039Y-132280149D01*
X119976168Y-132479225D01*
X120110191Y-132656700D01*
X120274538Y-132806521D01*
X120463620Y-132923597D01*
X120463622Y-132923598D01*
X120670995Y-133003935D01*
X120750800Y-133018852D01*
X120750800Y-132094800D01*
X119824305Y-132094800D01*
X114996114Y-132094800D01*
X114985903Y-131984610D01*
X114985902Y-131984607D01*
X114959234Y-131890878D01*
X120650800Y-131890878D01*
X120674652Y-131979895D01*
X120720730Y-132059705D01*
X120785895Y-132124870D01*
X120865705Y-132170948D01*
X120954722Y-132194800D01*
X121046878Y-132194800D01*
X121135895Y-132170948D01*
X121215705Y-132124870D01*
X121245775Y-132094800D01*
X121250800Y-132094800D01*
X121250800Y-133018852D01*
X121330604Y-133003935D01*
X121537977Y-132923598D01*
X121537979Y-132923597D01*
X121727061Y-132806521D01*
X121891408Y-132656700D01*
X122025431Y-132479225D01*
X122124560Y-132280149D01*
X122177295Y-132094800D01*
X121250800Y-132094800D01*
X121245775Y-132094800D01*
X121280870Y-132059705D01*
X121326948Y-131979895D01*
X121350800Y-131890878D01*
X121350800Y-131844800D01*
X124875157Y-131844800D01*
X124895684Y-132066335D01*
X124895685Y-132066337D01*
X124956569Y-132280323D01*
X124956575Y-132280338D01*
X125055738Y-132479483D01*
X125055743Y-132479491D01*
X125189820Y-132657038D01*
X125354237Y-132806923D01*
X125354239Y-132806925D01*
X125543395Y-132924045D01*
X125543396Y-132924045D01*
X125543399Y-132924047D01*
X125750860Y-133004418D01*
X125969557Y-133045300D01*
X125969559Y-133045300D01*
X126192041Y-133045300D01*
X126192043Y-133045300D01*
X126410740Y-133004418D01*
X126618201Y-132924047D01*
X126807362Y-132806924D01*
X126963773Y-132664336D01*
X126971779Y-132657038D01*
X126972035Y-132656700D01*
X127094467Y-132494572D01*
X127150576Y-132452937D01*
X127193421Y-132445300D01*
X137424131Y-132445300D01*
X137424147Y-132445301D01*
X137431743Y-132445301D01*
X137589854Y-132445301D01*
X137589857Y-132445301D01*
X137742585Y-132404377D01*
X137792704Y-132375439D01*
X137879516Y-132325320D01*
X137991320Y-132213516D01*
X137991320Y-132213514D01*
X138001528Y-132203307D01*
X138001529Y-132203304D01*
X139628216Y-130576619D01*
X139689539Y-130543134D01*
X139715897Y-130540300D01*
X143992542Y-130540300D01*
X144059581Y-130559985D01*
X144103027Y-130608005D01*
X144142351Y-130685182D01*
X144150583Y-130701338D01*
X144283629Y-130884460D01*
X144307109Y-130950266D01*
X144291284Y-131018320D01*
X144241178Y-131067015D01*
X144226648Y-131073526D01*
X144198712Y-131083946D01*
X144198706Y-131083949D01*
X144083612Y-131170109D01*
X144083609Y-131170112D01*
X143997449Y-131285206D01*
X143997445Y-131285213D01*
X143947203Y-131419920D01*
X143947201Y-131419927D01*
X143940800Y-131479455D01*
X143940800Y-132229800D01*
X144950052Y-132229800D01*
X144928282Y-132267508D01*
X144890800Y-132407391D01*
X144890800Y-132552209D01*
X144928282Y-132692092D01*
X144950052Y-132729800D01*
X143940800Y-132729800D01*
X143940800Y-133480144D01*
X143947201Y-133539672D01*
X143947203Y-133539679D01*
X143997445Y-133674386D01*
X143997449Y-133674393D01*
X144083609Y-133789487D01*
X144083612Y-133789490D01*
X144198706Y-133875650D01*
X144198713Y-133875654D01*
X144333420Y-133925896D01*
X144333427Y-133925898D01*
X144392955Y-133932299D01*
X144392972Y-133932300D01*
X145190800Y-133932300D01*
X145190800Y-132970547D01*
X145228508Y-132992318D01*
X145368391Y-133029800D01*
X145513209Y-133029800D01*
X145653092Y-132992318D01*
X145690800Y-132970547D01*
X145690800Y-133932300D01*
X146488628Y-133932300D01*
X146488644Y-133932299D01*
X146548172Y-133925898D01*
X146548179Y-133925896D01*
X146682886Y-133875654D01*
X146682893Y-133875650D01*
X146797987Y-133789490D01*
X146797990Y-133789487D01*
X146884150Y-133674393D01*
X146884154Y-133674386D01*
X146934396Y-133539679D01*
X146934398Y-133539672D01*
X146940799Y-133480144D01*
X146940800Y-133480127D01*
X146940800Y-132729800D01*
X145931548Y-132729800D01*
X145953318Y-132692092D01*
X145990800Y-132552209D01*
X145990800Y-132407391D01*
X145953318Y-132267508D01*
X145931548Y-132229800D01*
X146940800Y-132229800D01*
X146940800Y-131479472D01*
X146940799Y-131479455D01*
X146934398Y-131419927D01*
X146934396Y-131419920D01*
X146884154Y-131285213D01*
X146884150Y-131285206D01*
X146797990Y-131170112D01*
X146797987Y-131170109D01*
X146682893Y-131083949D01*
X146682883Y-131083944D01*
X146654953Y-131073526D01*
X146599020Y-131031654D01*
X146574604Y-130966189D01*
X146589457Y-130897916D01*
X146597959Y-130884475D01*
X146731017Y-130701338D01*
X146834848Y-130497558D01*
X146835393Y-130495880D01*
X146905521Y-130280049D01*
X146905521Y-130280048D01*
X146905522Y-130280045D01*
X146941300Y-130054154D01*
X146941300Y-129825446D01*
X146905522Y-129599555D01*
X146905521Y-129599551D01*
X146905521Y-129599550D01*
X146834849Y-129382044D01*
X146792884Y-129299683D01*
X146731017Y-129178262D01*
X146596586Y-128993234D01*
X146434866Y-128831514D01*
X146350359Y-128770116D01*
X146307696Y-128714788D01*
X146301717Y-128645175D01*
X146334323Y-128583380D01*
X146350356Y-128569485D01*
X146434866Y-128508086D01*
X146596586Y-128346366D01*
X146731017Y-128161338D01*
X146834848Y-127957558D01*
X146868898Y-127852764D01*
X146905521Y-127740049D01*
X146905521Y-127740048D01*
X146905522Y-127740045D01*
X146941300Y-127514154D01*
X146941300Y-127285446D01*
X146905522Y-127059555D01*
X146905521Y-127059551D01*
X146905521Y-127059550D01*
X146834849Y-126842044D01*
X146770163Y-126715091D01*
X146731017Y-126638262D01*
X146596586Y-126453234D01*
X146434866Y-126291514D01*
X146249838Y-126157083D01*
X146161487Y-126112066D01*
X146046055Y-126053250D01*
X145828548Y-125982578D01*
X145659126Y-125955744D01*
X145602654Y-125946800D01*
X145278946Y-125946800D01*
X145203649Y-125958726D01*
X145053053Y-125982578D01*
X145053050Y-125982578D01*
X144835544Y-126053250D01*
X144631761Y-126157083D01*
X144526196Y-126233780D01*
X144446734Y-126291514D01*
X144446732Y-126291516D01*
X144446731Y-126291516D01*
X144285012Y-126453235D01*
X144285008Y-126453240D01*
X144274877Y-126467185D01*
X144219547Y-126509851D01*
X144174559Y-126518300D01*
X138693977Y-126518300D01*
X138523681Y-126552174D01*
X138523671Y-126552177D01*
X138363259Y-126618621D01*
X138363247Y-126618628D01*
X138274424Y-126677979D01*
X138274423Y-126677979D01*
X138218880Y-126715091D01*
X138218872Y-126715097D01*
X137181989Y-127751981D01*
X137120666Y-127785466D01*
X137094308Y-127788300D01*
X130753840Y-127788300D01*
X130686801Y-127768615D01*
X130670302Y-127755937D01*
X130617362Y-127707676D01*
X130617360Y-127707674D01*
X130428204Y-127590554D01*
X130428198Y-127590552D01*
X130220740Y-127510182D01*
X130002043Y-127469300D01*
X129779557Y-127469300D01*
X129560860Y-127510182D01*
X129468468Y-127545975D01*
X129353401Y-127590552D01*
X129353395Y-127590554D01*
X129164239Y-127707674D01*
X129164237Y-127707676D01*
X128999820Y-127857561D01*
X128865743Y-128035108D01*
X128865738Y-128035116D01*
X128766575Y-128234261D01*
X128766569Y-128234276D01*
X128705685Y-128448262D01*
X128705684Y-128448264D01*
X128685157Y-128669799D01*
X128685157Y-128669800D01*
X128705684Y-128891335D01*
X128705685Y-128891337D01*
X128766569Y-129105323D01*
X128766575Y-129105338D01*
X128865738Y-129304483D01*
X128865743Y-129304491D01*
X128999820Y-129482038D01*
X129164237Y-129631923D01*
X129164239Y-129631925D01*
X129353395Y-129749045D01*
X129353396Y-129749045D01*
X129353399Y-129749047D01*
X129560860Y-129829418D01*
X129779557Y-129870300D01*
X129779559Y-129870300D01*
X130002041Y-129870300D01*
X130002043Y-129870300D01*
X130220740Y-129829418D01*
X130428201Y-129749047D01*
X130617362Y-129631924D01*
X130670302Y-129583663D01*
X130733106Y-129553046D01*
X130753840Y-129551300D01*
X137597623Y-129551300D01*
X137712193Y-129528509D01*
X137767924Y-129517424D01*
X137868824Y-129475630D01*
X137928343Y-129450977D01*
X137928344Y-129450976D01*
X137928347Y-129450975D01*
X138072724Y-129354506D01*
X139109610Y-128317618D01*
X139170933Y-128284134D01*
X139197291Y-128281300D01*
X144174559Y-128281300D01*
X144241598Y-128300985D01*
X144274877Y-128332415D01*
X144285008Y-128346359D01*
X144285012Y-128346364D01*
X144285014Y-128346366D01*
X144446734Y-128508086D01*
X144513570Y-128556645D01*
X144531238Y-128569482D01*
X144573903Y-128624813D01*
X144579882Y-128694426D01*
X144547276Y-128756221D01*
X144531238Y-128770118D01*
X144446732Y-128831515D01*
X144285016Y-128993231D01*
X144285016Y-128993232D01*
X144285014Y-128993234D01*
X144269200Y-129015000D01*
X144150583Y-129178261D01*
X144103027Y-129271595D01*
X144055052Y-129322391D01*
X143992542Y-129339300D01*
X139502469Y-129339300D01*
X139502453Y-129339299D01*
X139494857Y-129339299D01*
X139336743Y-129339299D01*
X139229387Y-129368065D01*
X139184010Y-129380224D01*
X139184009Y-129380225D01*
X139133896Y-129409159D01*
X139133895Y-129409160D01*
X139124852Y-129414381D01*
X139047085Y-129459279D01*
X139047082Y-129459281D01*
X138935278Y-129571086D01*
X137298384Y-131207981D01*
X137237061Y-131241466D01*
X137210703Y-131244300D01*
X127193421Y-131244300D01*
X127126382Y-131224615D01*
X127094467Y-131195027D01*
X126971779Y-131032561D01*
X126807362Y-130882676D01*
X126807360Y-130882674D01*
X126618204Y-130765554D01*
X126618198Y-130765552D01*
X126410740Y-130685182D01*
X126192043Y-130644300D01*
X125969557Y-130644300D01*
X125750860Y-130685182D01*
X125709157Y-130701338D01*
X125543401Y-130765552D01*
X125543395Y-130765554D01*
X125354239Y-130882674D01*
X125354237Y-130882676D01*
X125189820Y-131032561D01*
X125055743Y-131210108D01*
X125055738Y-131210116D01*
X124956575Y-131409261D01*
X124956569Y-131409276D01*
X124895685Y-131623262D01*
X124895684Y-131623264D01*
X124875157Y-131844799D01*
X124875157Y-131844800D01*
X121350800Y-131844800D01*
X121350800Y-131798722D01*
X121326948Y-131709705D01*
X121280870Y-131629895D01*
X121215705Y-131564730D01*
X121135895Y-131518652D01*
X121046878Y-131494800D01*
X120954722Y-131494800D01*
X120865705Y-131518652D01*
X120785895Y-131564730D01*
X120720730Y-131629895D01*
X120674652Y-131709705D01*
X120650800Y-131798722D01*
X120650800Y-131890878D01*
X114959234Y-131890878D01*
X114930116Y-131788536D01*
X114930113Y-131788530D01*
X114839249Y-131606049D01*
X114839247Y-131606047D01*
X114837465Y-131603687D01*
X114194855Y-132246296D01*
X114200000Y-132227096D01*
X114200000Y-132148104D01*
X114179556Y-132071804D01*
X114140060Y-132003395D01*
X114084205Y-131947540D01*
X114015796Y-131908044D01*
X113939496Y-131887600D01*
X113860504Y-131887600D01*
X113784204Y-131908044D01*
X113715795Y-131947540D01*
X113659940Y-132003395D01*
X113620444Y-132071804D01*
X113600000Y-132148104D01*
X113600000Y-132227096D01*
X113605145Y-132246299D01*
X112962533Y-131603687D01*
X112960755Y-131606042D01*
X112960754Y-131606043D01*
X112869886Y-131788530D01*
X112869883Y-131788536D01*
X112814097Y-131984607D01*
X112814096Y-131984610D01*
X112795287Y-132187599D01*
X112795287Y-132187600D01*
X100946204Y-132187600D01*
X100950500Y-132166003D01*
X100950500Y-131963997D01*
X100911091Y-131765873D01*
X100833786Y-131579244D01*
X100780094Y-131498889D01*
X100759217Y-131432214D01*
X100777701Y-131364834D01*
X100780078Y-131361134D01*
X100833786Y-131280756D01*
X100845135Y-131253358D01*
X113319311Y-131253358D01*
X113900000Y-131834046D01*
X113900001Y-131834046D01*
X114139246Y-131594800D01*
X119824305Y-131594800D01*
X120750800Y-131594800D01*
X120750800Y-130670746D01*
X121250800Y-130670746D01*
X121250800Y-131594800D01*
X122177295Y-131594800D01*
X122124560Y-131409450D01*
X122025431Y-131210374D01*
X121891408Y-131032899D01*
X121727061Y-130883078D01*
X121537979Y-130766002D01*
X121537977Y-130766001D01*
X121330599Y-130685664D01*
X121250800Y-130670746D01*
X120750800Y-130670746D01*
X120671000Y-130685664D01*
X120463622Y-130766001D01*
X120463620Y-130766002D01*
X120274538Y-130883078D01*
X120110191Y-131032899D01*
X119976168Y-131210374D01*
X119877039Y-131409450D01*
X119824305Y-131594800D01*
X114139246Y-131594800D01*
X114480687Y-131253358D01*
X114392413Y-131198701D01*
X114392411Y-131198700D01*
X114202321Y-131125060D01*
X114001928Y-131087600D01*
X113798072Y-131087600D01*
X113597678Y-131125060D01*
X113407588Y-131198700D01*
X113407581Y-131198704D01*
X113319312Y-131253357D01*
X113319311Y-131253358D01*
X100845135Y-131253358D01*
X100911091Y-131094127D01*
X100950500Y-130896003D01*
X100950500Y-130693997D01*
X100911091Y-130495873D01*
X100877451Y-130414661D01*
X100869983Y-130345194D01*
X100889592Y-130300144D01*
X100889101Y-130299876D01*
X100892102Y-130294379D01*
X100892748Y-130292896D01*
X100893352Y-130292089D01*
X100943597Y-130157376D01*
X100943598Y-130157372D01*
X100949999Y-130097844D01*
X100950000Y-130097827D01*
X100950000Y-129775000D01*
X100065866Y-129775000D01*
X100041674Y-129772617D01*
X100026004Y-129769500D01*
X100026003Y-129769500D01*
X99985830Y-129769500D01*
X100000075Y-129755255D01*
X100049444Y-129669745D01*
X100075000Y-129574370D01*
X100075000Y-129475630D01*
X100049444Y-129380255D01*
X100000075Y-129294745D01*
X99980330Y-129275000D01*
X100950000Y-129275000D01*
X100950000Y-128952172D01*
X100949999Y-128952155D01*
X100943598Y-128892627D01*
X100943596Y-128892620D01*
X100893354Y-128757913D01*
X100893350Y-128757906D01*
X100807190Y-128642812D01*
X100807187Y-128642809D01*
X100692093Y-128556649D01*
X100692086Y-128556645D01*
X100557379Y-128506403D01*
X100557372Y-128506401D01*
X100497844Y-128500000D01*
X99950000Y-128500000D01*
X99950000Y-129244670D01*
X99930255Y-129224925D01*
X99844745Y-129175556D01*
X99749370Y-129150000D01*
X99650630Y-129150000D01*
X99555255Y-129175556D01*
X99469745Y-129224925D01*
X99450000Y-129244670D01*
X99450000Y-128500000D01*
X98902155Y-128500000D01*
X98842627Y-128506401D01*
X98842620Y-128506403D01*
X98707913Y-128556645D01*
X98707906Y-128556649D01*
X98592812Y-128642809D01*
X98592809Y-128642812D01*
X98506649Y-128757906D01*
X98506645Y-128757913D01*
X98456403Y-128892620D01*
X98456401Y-128892627D01*
X98450000Y-128952155D01*
X98450000Y-129275000D01*
X99419670Y-129275000D01*
X99399925Y-129294745D01*
X99350556Y-129380255D01*
X99325000Y-129475630D01*
X99325000Y-129574370D01*
X99350556Y-129669745D01*
X99399925Y-129755255D01*
X99414170Y-129769500D01*
X99373997Y-129769500D01*
X99373996Y-129769500D01*
X99358326Y-129772617D01*
X99334134Y-129775000D01*
X98450000Y-129775000D01*
X98450000Y-130097844D01*
X98456401Y-130157372D01*
X98456403Y-130157379D01*
X98506645Y-130292086D01*
X98507251Y-130292895D01*
X98507604Y-130293841D01*
X98510897Y-130299872D01*
X98510030Y-130300345D01*
X98531670Y-130358359D01*
X98522547Y-130414661D01*
X98488910Y-130495868D01*
X98488907Y-130495880D01*
X98449500Y-130693992D01*
X98449500Y-130896007D01*
X98488907Y-131094119D01*
X98488909Y-131094127D01*
X98566213Y-131280755D01*
X98619904Y-131361109D01*
X98640782Y-131427787D01*
X98622297Y-131495167D01*
X98619904Y-131498891D01*
X98566213Y-131579244D01*
X98488909Y-131765872D01*
X98488907Y-131765880D01*
X98449500Y-131963992D01*
X98449500Y-132166007D01*
X43062852Y-132166007D01*
X42779586Y-132062907D01*
X42779565Y-132062900D01*
X42456551Y-131986343D01*
X42456536Y-131986341D01*
X42126787Y-131947800D01*
X41794813Y-131947800D01*
X41465063Y-131986341D01*
X41465048Y-131986343D01*
X41142034Y-132062900D01*
X41142013Y-132062907D01*
X40830058Y-132176449D01*
X40830052Y-132176452D01*
X40533381Y-132325446D01*
X40256020Y-132507870D01*
X40256013Y-132507875D01*
X40130089Y-132613535D01*
X41199082Y-133682528D01*
X41081334Y-133768078D01*
X40931078Y-133918334D01*
X40845528Y-134036082D01*
X39773157Y-132963711D01*
X39773156Y-132963711D01*
X39575629Y-133229036D01*
X39575625Y-133229042D01*
X39409633Y-133516550D01*
X39409627Y-133516563D01*
X39278137Y-133821389D01*
X39194091Y-134102126D01*
X39156006Y-134160703D01*
X39092298Y-134189391D01*
X39023193Y-134179082D01*
X38970632Y-134133049D01*
X38951300Y-134066562D01*
X38951300Y-129317670D01*
X48780300Y-129317670D01*
X48780301Y-129317676D01*
X48786708Y-129377283D01*
X48837002Y-129512128D01*
X48837006Y-129512135D01*
X48923252Y-129627344D01*
X48923255Y-129627347D01*
X49038464Y-129713593D01*
X49038471Y-129713597D01*
X49173317Y-129763891D01*
X49173316Y-129763891D01*
X49180244Y-129764635D01*
X49232927Y-129770300D01*
X50528672Y-129770299D01*
X50588283Y-129763891D01*
X50628087Y-129749045D01*
X50723129Y-129713597D01*
X50723129Y-129713596D01*
X50723131Y-129713596D01*
X50772321Y-129676771D01*
X50837782Y-129652354D01*
X50891422Y-129660410D01*
X51078344Y-129732824D01*
X51278824Y-129770300D01*
X51278826Y-129770300D01*
X51482774Y-129770300D01*
X51482776Y-129770300D01*
X51683256Y-129732824D01*
X51873437Y-129659148D01*
X52046841Y-129551781D01*
X52197564Y-129414379D01*
X52320473Y-129251621D01*
X52411382Y-129069050D01*
X52467197Y-128872883D01*
X52486015Y-128669800D01*
X56295157Y-128669800D01*
X56315684Y-128891335D01*
X56315685Y-128891337D01*
X56376569Y-129105323D01*
X56376575Y-129105338D01*
X56475738Y-129304483D01*
X56475743Y-129304491D01*
X56609820Y-129482038D01*
X56774237Y-129631923D01*
X56774239Y-129631925D01*
X56963395Y-129749045D01*
X56963396Y-129749045D01*
X56963399Y-129749047D01*
X57170860Y-129829418D01*
X57389557Y-129870300D01*
X57389559Y-129870300D01*
X57612041Y-129870300D01*
X57612043Y-129870300D01*
X57830740Y-129829418D01*
X58038201Y-129749047D01*
X58227362Y-129631924D01*
X58391781Y-129482036D01*
X58525858Y-129304489D01*
X58625029Y-129105328D01*
X58685915Y-128891336D01*
X58706443Y-128669800D01*
X61375157Y-128669800D01*
X61395684Y-128891335D01*
X61395685Y-128891337D01*
X61456569Y-129105323D01*
X61456575Y-129105338D01*
X61555738Y-129304483D01*
X61555743Y-129304491D01*
X61689820Y-129482038D01*
X61854237Y-129631923D01*
X61854239Y-129631925D01*
X62043395Y-129749045D01*
X62043396Y-129749045D01*
X62043399Y-129749047D01*
X62250860Y-129829418D01*
X62469557Y-129870300D01*
X62469559Y-129870300D01*
X62692041Y-129870300D01*
X62692043Y-129870300D01*
X62910740Y-129829418D01*
X63118201Y-129749047D01*
X63307362Y-129631924D01*
X63471781Y-129482036D01*
X63605858Y-129304489D01*
X63705029Y-129105328D01*
X63765915Y-128891336D01*
X63786443Y-128669800D01*
X63785998Y-128665000D01*
X66054357Y-128665000D01*
X66074884Y-128886535D01*
X66074885Y-128886537D01*
X66135769Y-129100523D01*
X66135775Y-129100538D01*
X66234938Y-129299683D01*
X66234943Y-129299691D01*
X66369020Y-129477238D01*
X66533437Y-129627123D01*
X66533439Y-129627125D01*
X66722595Y-129744245D01*
X66722596Y-129744245D01*
X66722599Y-129744247D01*
X66930060Y-129824618D01*
X67148757Y-129865500D01*
X67148759Y-129865500D01*
X67371241Y-129865500D01*
X67371243Y-129865500D01*
X67589940Y-129824618D01*
X67797401Y-129744247D01*
X67986562Y-129627124D01*
X68126282Y-129499751D01*
X68150979Y-129477238D01*
X68151235Y-129476900D01*
X68285058Y-129299689D01*
X68384229Y-129100528D01*
X68437016Y-128915000D01*
X71163505Y-128915000D01*
X71216239Y-129100349D01*
X71315368Y-129299425D01*
X71449391Y-129476900D01*
X71613738Y-129626721D01*
X71802820Y-129743797D01*
X71802822Y-129743798D01*
X72010195Y-129824135D01*
X72090000Y-129839052D01*
X72090000Y-128915000D01*
X71163505Y-128915000D01*
X68437016Y-128915000D01*
X68445115Y-128886536D01*
X68461373Y-128711078D01*
X71990000Y-128711078D01*
X72013852Y-128800095D01*
X72059930Y-128879905D01*
X72125095Y-128945070D01*
X72204905Y-128991148D01*
X72293922Y-129015000D01*
X72386078Y-129015000D01*
X72475095Y-128991148D01*
X72554905Y-128945070D01*
X72584975Y-128915000D01*
X72590000Y-128915000D01*
X72590000Y-129839052D01*
X72669804Y-129824135D01*
X72877177Y-129743798D01*
X72877179Y-129743797D01*
X73066261Y-129626721D01*
X73230608Y-129476900D01*
X73364631Y-129299425D01*
X73463760Y-129100349D01*
X73516495Y-128915000D01*
X72590000Y-128915000D01*
X72584975Y-128915000D01*
X72620070Y-128879905D01*
X72666148Y-128800095D01*
X72690000Y-128711078D01*
X72690000Y-128618922D01*
X72666148Y-128529905D01*
X72620070Y-128450095D01*
X72554905Y-128384930D01*
X72475095Y-128338852D01*
X72386078Y-128315000D01*
X72293922Y-128315000D01*
X72204905Y-128338852D01*
X72125095Y-128384930D01*
X72059930Y-128450095D01*
X72013852Y-128529905D01*
X71990000Y-128618922D01*
X71990000Y-128711078D01*
X68461373Y-128711078D01*
X68465643Y-128665000D01*
X68445115Y-128443464D01*
X68437016Y-128415000D01*
X71163505Y-128415000D01*
X72090000Y-128415000D01*
X72090000Y-127490946D01*
X72590000Y-127490946D01*
X72590000Y-128415000D01*
X73516495Y-128415000D01*
X73463760Y-128229650D01*
X73364631Y-128030574D01*
X73230608Y-127853099D01*
X73066261Y-127703278D01*
X72877179Y-127586202D01*
X72877177Y-127586201D01*
X72669799Y-127505864D01*
X72590000Y-127490946D01*
X72090000Y-127490946D01*
X72010200Y-127505864D01*
X71802822Y-127586201D01*
X71802820Y-127586202D01*
X71613738Y-127703278D01*
X71449391Y-127853099D01*
X71315368Y-128030574D01*
X71216239Y-128229650D01*
X71163505Y-128415000D01*
X68437016Y-128415000D01*
X68384229Y-128229472D01*
X68381689Y-128224371D01*
X68285061Y-128030316D01*
X68285056Y-128030308D01*
X68150979Y-127852761D01*
X67986562Y-127702876D01*
X67986560Y-127702874D01*
X67797404Y-127585754D01*
X67797398Y-127585752D01*
X67589940Y-127505382D01*
X67371243Y-127464500D01*
X67148757Y-127464500D01*
X66930060Y-127505382D01*
X66798864Y-127556207D01*
X66722601Y-127585752D01*
X66722595Y-127585754D01*
X66533439Y-127702874D01*
X66533437Y-127702876D01*
X66369020Y-127852761D01*
X66234943Y-128030308D01*
X66234938Y-128030316D01*
X66135775Y-128229461D01*
X66135769Y-128229476D01*
X66074885Y-128443462D01*
X66074884Y-128443464D01*
X66054357Y-128664999D01*
X66054357Y-128665000D01*
X63785998Y-128665000D01*
X63765915Y-128448264D01*
X63705029Y-128234272D01*
X63702639Y-128229472D01*
X63605861Y-128035116D01*
X63605856Y-128035108D01*
X63471779Y-127857561D01*
X63307362Y-127707676D01*
X63307360Y-127707674D01*
X63118204Y-127590554D01*
X63118198Y-127590552D01*
X62910740Y-127510182D01*
X62692043Y-127469300D01*
X62469557Y-127469300D01*
X62250860Y-127510182D01*
X62158468Y-127545975D01*
X62043401Y-127590552D01*
X62043395Y-127590554D01*
X61854239Y-127707674D01*
X61854237Y-127707676D01*
X61689820Y-127857561D01*
X61555743Y-128035108D01*
X61555738Y-128035116D01*
X61456575Y-128234261D01*
X61456569Y-128234276D01*
X61395685Y-128448262D01*
X61395684Y-128448264D01*
X61375157Y-128669799D01*
X61375157Y-128669800D01*
X58706443Y-128669800D01*
X58685915Y-128448264D01*
X58625029Y-128234272D01*
X58622639Y-128229472D01*
X58525861Y-128035116D01*
X58525856Y-128035108D01*
X58391779Y-127857561D01*
X58227362Y-127707676D01*
X58227360Y-127707674D01*
X58038204Y-127590554D01*
X58038198Y-127590552D01*
X57830740Y-127510182D01*
X57612043Y-127469300D01*
X57389557Y-127469300D01*
X57170860Y-127510182D01*
X57078468Y-127545975D01*
X56963401Y-127590552D01*
X56963395Y-127590554D01*
X56774239Y-127707674D01*
X56774237Y-127707676D01*
X56609820Y-127857561D01*
X56475743Y-128035108D01*
X56475738Y-128035116D01*
X56376575Y-128234261D01*
X56376569Y-128234276D01*
X56315685Y-128448262D01*
X56315684Y-128448264D01*
X56295157Y-128669799D01*
X56295157Y-128669800D01*
X52486015Y-128669800D01*
X52481846Y-128624813D01*
X52467197Y-128466717D01*
X52432954Y-128346367D01*
X52411382Y-128270550D01*
X52393312Y-128234261D01*
X52348182Y-128143627D01*
X52320473Y-128087979D01*
X52261504Y-128009891D01*
X52197562Y-127925218D01*
X52046841Y-127787819D01*
X52046839Y-127787817D01*
X51873442Y-127680455D01*
X51873435Y-127680451D01*
X51778346Y-127643614D01*
X51683256Y-127606776D01*
X51482776Y-127569300D01*
X51278824Y-127569300D01*
X51078344Y-127606776D01*
X51078341Y-127606776D01*
X51078341Y-127606777D01*
X50891426Y-127679188D01*
X50821802Y-127685050D01*
X50772321Y-127662827D01*
X50723135Y-127626006D01*
X50723128Y-127626002D01*
X50588282Y-127575708D01*
X50588283Y-127575708D01*
X50528683Y-127569301D01*
X50528681Y-127569300D01*
X50528673Y-127569300D01*
X50528664Y-127569300D01*
X49232929Y-127569300D01*
X49232923Y-127569301D01*
X49173316Y-127575708D01*
X49038471Y-127626002D01*
X49038464Y-127626006D01*
X48923255Y-127712252D01*
X48923252Y-127712255D01*
X48837006Y-127827464D01*
X48837002Y-127827471D01*
X48786708Y-127962317D01*
X48780301Y-128021916D01*
X48780300Y-128021935D01*
X48780300Y-129317670D01*
X38951300Y-129317670D01*
X38951300Y-126764801D01*
X88580332Y-126764801D01*
X88600164Y-126991486D01*
X88600166Y-126991497D01*
X88659058Y-127211288D01*
X88659061Y-127211297D01*
X88755231Y-127417532D01*
X88755232Y-127417534D01*
X88885754Y-127603941D01*
X89046658Y-127764845D01*
X89046661Y-127764847D01*
X89233066Y-127895368D01*
X89439304Y-127991539D01*
X89659108Y-128050435D01*
X89821030Y-128064601D01*
X89885798Y-128070268D01*
X89885800Y-128070268D01*
X89885802Y-128070268D01*
X89942473Y-128065309D01*
X90112492Y-128050435D01*
X90332296Y-127991539D01*
X90538534Y-127895368D01*
X90724939Y-127764847D01*
X90885847Y-127603939D01*
X91016368Y-127417534D01*
X91112539Y-127211296D01*
X91171435Y-126991492D01*
X91191268Y-126764800D01*
X91171435Y-126538108D01*
X91112539Y-126318304D01*
X91016368Y-126112066D01*
X90885847Y-125925661D01*
X90885845Y-125925658D01*
X90724940Y-125764753D01*
X90539177Y-125634681D01*
X90495552Y-125580104D01*
X90486300Y-125533106D01*
X90486300Y-123744299D01*
X90505985Y-123677260D01*
X90558789Y-123631505D01*
X90610300Y-123620299D01*
X90733671Y-123620299D01*
X90733672Y-123620299D01*
X90793283Y-123613891D01*
X90857874Y-123589800D01*
X128685157Y-123589800D01*
X128705684Y-123811335D01*
X128705685Y-123811337D01*
X128766569Y-124025323D01*
X128766575Y-124025338D01*
X128865738Y-124224483D01*
X128865743Y-124224491D01*
X128999820Y-124402038D01*
X129164237Y-124551923D01*
X129164239Y-124551925D01*
X129353395Y-124669045D01*
X129353396Y-124669045D01*
X129353399Y-124669047D01*
X129560860Y-124749418D01*
X129779557Y-124790300D01*
X129779559Y-124790300D01*
X130002041Y-124790300D01*
X130002043Y-124790300D01*
X130220740Y-124749418D01*
X130428201Y-124669047D01*
X130617362Y-124551924D01*
X130642439Y-124529062D01*
X130705243Y-124498446D01*
X130725977Y-124496700D01*
X149184708Y-124496700D01*
X149251747Y-124516385D01*
X149272389Y-124533019D01*
X152188872Y-127449503D01*
X152188873Y-127449504D01*
X152333256Y-127545977D01*
X152473191Y-127603939D01*
X152493676Y-127612424D01*
X152493680Y-127612424D01*
X152493681Y-127612425D01*
X152663976Y-127646300D01*
X152663979Y-127646300D01*
X152663980Y-127646300D01*
X157183398Y-127646300D01*
X157250437Y-127665985D01*
X157274628Y-127686317D01*
X157277634Y-127689582D01*
X157277636Y-127689585D01*
X157446056Y-127872538D01*
X157642291Y-128025274D01*
X157860990Y-128143628D01*
X158096186Y-128224371D01*
X158341465Y-128265300D01*
X158590135Y-128265300D01*
X158835414Y-128224371D01*
X159070610Y-128143628D01*
X159289309Y-128025274D01*
X159485544Y-127872538D01*
X159653964Y-127689585D01*
X159789973Y-127481407D01*
X159889863Y-127253681D01*
X159950908Y-127012621D01*
X159950909Y-127012612D01*
X159971443Y-126764805D01*
X159971443Y-126764795D01*
X159959330Y-126618625D01*
X159956368Y-126582885D01*
X159970448Y-126514451D01*
X159992260Y-126484968D01*
X179100774Y-107376453D01*
X179162095Y-107342970D01*
X179231787Y-107347954D01*
X179273337Y-107373744D01*
X179402968Y-107495476D01*
X179402978Y-107495484D01*
X179657504Y-107680408D01*
X179657509Y-107680410D01*
X179657516Y-107680416D01*
X179933234Y-107831994D01*
X179933239Y-107831996D01*
X179933241Y-107831997D01*
X179933242Y-107831998D01*
X180225771Y-107947818D01*
X180225774Y-107947819D01*
X180530523Y-108026065D01*
X180530527Y-108026066D01*
X180596010Y-108034338D01*
X180842670Y-108065499D01*
X180842679Y-108065499D01*
X180842682Y-108065500D01*
X180842684Y-108065500D01*
X181157316Y-108065500D01*
X181157318Y-108065500D01*
X181157321Y-108065499D01*
X181157329Y-108065499D01*
X181343593Y-108041968D01*
X181469473Y-108026066D01*
X181774225Y-107947819D01*
X181774228Y-107947818D01*
X182066757Y-107831998D01*
X182066758Y-107831997D01*
X182066756Y-107831997D01*
X182066766Y-107831994D01*
X182342484Y-107680416D01*
X182597030Y-107495478D01*
X182826390Y-107280094D01*
X183026947Y-107037663D01*
X183195537Y-106772007D01*
X183329503Y-106487315D01*
X183426731Y-106188079D01*
X183485688Y-105879015D01*
X183486512Y-105865925D01*
X183505444Y-105565005D01*
X183505444Y-105564994D01*
X183485689Y-105250995D01*
X183485688Y-105250988D01*
X183485688Y-105250985D01*
X183426731Y-104941921D01*
X183329503Y-104642685D01*
X183195537Y-104357993D01*
X183108155Y-104220300D01*
X183026948Y-104092338D01*
X183026945Y-104092334D01*
X182826393Y-103849909D01*
X182826391Y-103849907D01*
X182689335Y-103721202D01*
X182597030Y-103634522D01*
X182597027Y-103634520D01*
X182597021Y-103634515D01*
X182342495Y-103449591D01*
X182342488Y-103449586D01*
X182342484Y-103449584D01*
X182066766Y-103298006D01*
X182066763Y-103298004D01*
X182066758Y-103298002D01*
X182066757Y-103298001D01*
X181774228Y-103182181D01*
X181774225Y-103182180D01*
X181469476Y-103103934D01*
X181469463Y-103103932D01*
X181157329Y-103064500D01*
X181157318Y-103064500D01*
X180842682Y-103064500D01*
X180842670Y-103064500D01*
X180530536Y-103103932D01*
X180530523Y-103103934D01*
X180225774Y-103182180D01*
X180225771Y-103182181D01*
X179933242Y-103298001D01*
X179933241Y-103298002D01*
X179657516Y-103449584D01*
X179657504Y-103449591D01*
X179402978Y-103634515D01*
X179402968Y-103634523D01*
X179173608Y-103849907D01*
X179173606Y-103849909D01*
X178973054Y-104092334D01*
X178973051Y-104092338D01*
X178804464Y-104357990D01*
X178804461Y-104357996D01*
X178670499Y-104642678D01*
X178670497Y-104642683D01*
X178573270Y-104941916D01*
X178514311Y-105250988D01*
X178514310Y-105250995D01*
X178502572Y-105437576D01*
X178478717Y-105503247D01*
X178466498Y-105517471D01*
X158746278Y-125237690D01*
X158684955Y-125271175D01*
X158638189Y-125272318D01*
X158590136Y-125264300D01*
X158590135Y-125264300D01*
X158341465Y-125264300D01*
X158096183Y-125305229D01*
X157860997Y-125385969D01*
X157860988Y-125385972D01*
X157642293Y-125504324D01*
X157446057Y-125657061D01*
X157274628Y-125843283D01*
X157214741Y-125879273D01*
X157183398Y-125883300D01*
X153167292Y-125883300D01*
X153100253Y-125863615D01*
X153079611Y-125846981D01*
X150163127Y-122930496D01*
X150163126Y-122930495D01*
X150018743Y-122834022D01*
X149858328Y-122767577D01*
X149858318Y-122767574D01*
X149688023Y-122733700D01*
X149688021Y-122733700D01*
X149688020Y-122733700D01*
X130896300Y-122733700D01*
X130829261Y-122714015D01*
X130783506Y-122661211D01*
X130772300Y-122609700D01*
X130772300Y-120011151D01*
X130791985Y-119944112D01*
X130797346Y-119936424D01*
X130802918Y-119929046D01*
X130915858Y-119779489D01*
X131015029Y-119580328D01*
X131075915Y-119366336D01*
X131096443Y-119144800D01*
X131077959Y-118945328D01*
X131075915Y-118923264D01*
X131075914Y-118923262D01*
X131056307Y-118854351D01*
X131015029Y-118709272D01*
X131014742Y-118708695D01*
X130915861Y-118510116D01*
X130915856Y-118510108D01*
X130781779Y-118332561D01*
X130617362Y-118182676D01*
X130617360Y-118182674D01*
X130428204Y-118065554D01*
X130428198Y-118065552D01*
X130220740Y-117985182D01*
X130002043Y-117944300D01*
X129779557Y-117944300D01*
X129560860Y-117985182D01*
X129456403Y-118025649D01*
X129353401Y-118065552D01*
X129353395Y-118065554D01*
X129164239Y-118182674D01*
X129164237Y-118182676D01*
X128999820Y-118332561D01*
X128865743Y-118510108D01*
X128865738Y-118510116D01*
X128766575Y-118709261D01*
X128766569Y-118709276D01*
X128705685Y-118923262D01*
X128705684Y-118923264D01*
X128685157Y-119144799D01*
X128685157Y-119144800D01*
X128705684Y-119366335D01*
X128705685Y-119366337D01*
X128766569Y-119580323D01*
X128766575Y-119580338D01*
X128865738Y-119779483D01*
X128865743Y-119779491D01*
X128918001Y-119848691D01*
X128978680Y-119929044D01*
X128984254Y-119936424D01*
X129008946Y-120001785D01*
X129009300Y-120011151D01*
X129009300Y-122723449D01*
X128989615Y-122790488D01*
X128984254Y-122798176D01*
X128865743Y-122955108D01*
X128865738Y-122955116D01*
X128766575Y-123154261D01*
X128766569Y-123154276D01*
X128705685Y-123368262D01*
X128705684Y-123368264D01*
X128685157Y-123589799D01*
X128685157Y-123589800D01*
X90857874Y-123589800D01*
X90928131Y-123563596D01*
X91043346Y-123477346D01*
X91129596Y-123362131D01*
X91179891Y-123227283D01*
X91186300Y-123167673D01*
X91186299Y-121471928D01*
X91179891Y-121412317D01*
X91175629Y-121400891D01*
X91129597Y-121277471D01*
X91129593Y-121277464D01*
X91043347Y-121162255D01*
X91043344Y-121162252D01*
X90928135Y-121076006D01*
X90928128Y-121076002D01*
X90793282Y-121025708D01*
X90793283Y-121025708D01*
X90733683Y-121019301D01*
X90733681Y-121019300D01*
X90733673Y-121019300D01*
X90733664Y-121019300D01*
X89037929Y-121019300D01*
X89037923Y-121019301D01*
X88978316Y-121025708D01*
X88843471Y-121076002D01*
X88843464Y-121076006D01*
X88728255Y-121162252D01*
X88728252Y-121162255D01*
X88642006Y-121277464D01*
X88642002Y-121277471D01*
X88591708Y-121412317D01*
X88588700Y-121440300D01*
X88585301Y-121471923D01*
X88585300Y-121471935D01*
X88585300Y-123167670D01*
X88585301Y-123167676D01*
X88591708Y-123227283D01*
X88642002Y-123362128D01*
X88642006Y-123362135D01*
X88728252Y-123477344D01*
X88728255Y-123477347D01*
X88843464Y-123563593D01*
X88843471Y-123563597D01*
X88888418Y-123580361D01*
X88978317Y-123613891D01*
X89037927Y-123620300D01*
X89161300Y-123620299D01*
X89228339Y-123639983D01*
X89274094Y-123692787D01*
X89285300Y-123744299D01*
X89285300Y-125533106D01*
X89265615Y-125600145D01*
X89232423Y-125634681D01*
X89046659Y-125764753D01*
X88885754Y-125925658D01*
X88755232Y-126112065D01*
X88755231Y-126112067D01*
X88659061Y-126318302D01*
X88659058Y-126318311D01*
X88600166Y-126538102D01*
X88600164Y-126538113D01*
X88580332Y-126764798D01*
X88580332Y-126764801D01*
X38951300Y-126764801D01*
X38951300Y-121896401D01*
X47507300Y-121896401D01*
X47507301Y-121896418D01*
X47517800Y-121999196D01*
X47517801Y-121999199D01*
X47572985Y-122165731D01*
X47572986Y-122165734D01*
X47665088Y-122315056D01*
X47789144Y-122439112D01*
X47938466Y-122531214D01*
X48105003Y-122586399D01*
X48207791Y-122596900D01*
X51807808Y-122596899D01*
X51910597Y-122586399D01*
X52077134Y-122531214D01*
X52226456Y-122439112D01*
X52350512Y-122315056D01*
X52442614Y-122165734D01*
X52497799Y-121999197D01*
X52508300Y-121896409D01*
X52508300Y-120940004D01*
X55824816Y-120940004D01*
X55843524Y-121189663D01*
X55843525Y-121189668D01*
X55899236Y-121433755D01*
X55899238Y-121433764D01*
X55899240Y-121433769D01*
X55990711Y-121666835D01*
X56115898Y-121883665D01*
X56208031Y-121999196D01*
X56272006Y-122079418D01*
X56445264Y-122240177D01*
X56455540Y-122249712D01*
X56662408Y-122390752D01*
X56662413Y-122390754D01*
X56662414Y-122390755D01*
X56662415Y-122390756D01*
X56782218Y-122448449D01*
X56887983Y-122499383D01*
X56887984Y-122499383D01*
X56887987Y-122499385D01*
X57127236Y-122573184D01*
X57127237Y-122573184D01*
X57127240Y-122573185D01*
X57374805Y-122610499D01*
X57374810Y-122610499D01*
X57374813Y-122610500D01*
X57374814Y-122610500D01*
X57625186Y-122610500D01*
X57625187Y-122610500D01*
X57715418Y-122596900D01*
X57872759Y-122573185D01*
X57872760Y-122573184D01*
X57872764Y-122573184D01*
X58112013Y-122499385D01*
X58337592Y-122390752D01*
X58544460Y-122249712D01*
X58727997Y-122079414D01*
X58884102Y-121883665D01*
X59009289Y-121666835D01*
X59100760Y-121433769D01*
X59156474Y-121189673D01*
X59164992Y-121076004D01*
X59175184Y-120940004D01*
X59175184Y-120939995D01*
X59156475Y-120690336D01*
X59156474Y-120690331D01*
X59156474Y-120690327D01*
X59116640Y-120515807D01*
X112765300Y-120515807D01*
X112804707Y-120713919D01*
X112804709Y-120713927D01*
X112882012Y-120900552D01*
X112882017Y-120900562D01*
X112994241Y-121068518D01*
X113137081Y-121211358D01*
X113305037Y-121323582D01*
X113305041Y-121323584D01*
X113305044Y-121323586D01*
X113491673Y-121400891D01*
X113689792Y-121440299D01*
X113689796Y-121440300D01*
X113689797Y-121440300D01*
X114341804Y-121440300D01*
X114341805Y-121440299D01*
X114539927Y-121400891D01*
X114726556Y-121323586D01*
X114894518Y-121211358D01*
X115037358Y-121068518D01*
X115149586Y-120900556D01*
X115226891Y-120713927D01*
X115266300Y-120515803D01*
X115266300Y-120313797D01*
X115226891Y-120115673D01*
X115161181Y-119957036D01*
X115149587Y-119929046D01*
X115149586Y-119929044D01*
X115095894Y-119848689D01*
X115075017Y-119782014D01*
X115093501Y-119714634D01*
X115095878Y-119710934D01*
X115149586Y-119630556D01*
X115226891Y-119443927D01*
X115266300Y-119245803D01*
X115266300Y-119043797D01*
X115226891Y-118845673D01*
X115193473Y-118764998D01*
X115186005Y-118695530D01*
X115205764Y-118650140D01*
X115205347Y-118649912D01*
X115207895Y-118645244D01*
X115208772Y-118643231D01*
X115209596Y-118642131D01*
X115259891Y-118507283D01*
X115266300Y-118447673D01*
X115266299Y-117301928D01*
X115259891Y-117242317D01*
X115250205Y-117216348D01*
X115209597Y-117107471D01*
X115209593Y-117107464D01*
X115123347Y-116992255D01*
X115123344Y-116992252D01*
X115008135Y-116906006D01*
X115008128Y-116906002D01*
X114873282Y-116855708D01*
X114873283Y-116855708D01*
X114813683Y-116849301D01*
X114813681Y-116849300D01*
X114813673Y-116849300D01*
X114813664Y-116849300D01*
X113217929Y-116849300D01*
X113217923Y-116849301D01*
X113158316Y-116855708D01*
X113023471Y-116906002D01*
X113023464Y-116906006D01*
X112908255Y-116992252D01*
X112908252Y-116992255D01*
X112822006Y-117107464D01*
X112822002Y-117107471D01*
X112771708Y-117242317D01*
X112765301Y-117301916D01*
X112765301Y-117301923D01*
X112765300Y-117301935D01*
X112765300Y-118447670D01*
X112765301Y-118447676D01*
X112771708Y-118507283D01*
X112822002Y-118642128D01*
X112822003Y-118642130D01*
X112822004Y-118642131D01*
X112822828Y-118643232D01*
X112823309Y-118644521D01*
X112826254Y-118649914D01*
X112825478Y-118650337D01*
X112847248Y-118708695D01*
X112838125Y-118764998D01*
X112804710Y-118845668D01*
X112804707Y-118845680D01*
X112765300Y-119043792D01*
X112765300Y-119245807D01*
X112804707Y-119443919D01*
X112804709Y-119443927D01*
X112882013Y-119630555D01*
X112935704Y-119710909D01*
X112956582Y-119777587D01*
X112938097Y-119844967D01*
X112935704Y-119848691D01*
X112882013Y-119929044D01*
X112804709Y-120115672D01*
X112804707Y-120115680D01*
X112765300Y-120313792D01*
X112765300Y-120515807D01*
X59116640Y-120515807D01*
X59100760Y-120446231D01*
X59009289Y-120213165D01*
X58884102Y-119996335D01*
X58727997Y-119800586D01*
X58727996Y-119800585D01*
X58727993Y-119800581D01*
X58544460Y-119630288D01*
X58483970Y-119589047D01*
X58337592Y-119489248D01*
X58337588Y-119489246D01*
X58337585Y-119489244D01*
X58337584Y-119489243D01*
X58119034Y-119383996D01*
X58112015Y-119380616D01*
X58112017Y-119380616D01*
X57872765Y-119306816D01*
X57872759Y-119306814D01*
X57625194Y-119269500D01*
X57625187Y-119269500D01*
X57374813Y-119269500D01*
X57374805Y-119269500D01*
X57127240Y-119306814D01*
X57127234Y-119306816D01*
X56887983Y-119380616D01*
X56662415Y-119489243D01*
X56662414Y-119489244D01*
X56455539Y-119630288D01*
X56272006Y-119800581D01*
X56115898Y-119996335D01*
X55990711Y-120213164D01*
X55899242Y-120446225D01*
X55899236Y-120446244D01*
X55843525Y-120690331D01*
X55843524Y-120690336D01*
X55824816Y-120939995D01*
X55824816Y-120940004D01*
X52508300Y-120940004D01*
X52508299Y-118440004D01*
X65825317Y-118440004D01*
X65844021Y-118689597D01*
X65844021Y-118689599D01*
X65899714Y-118933607D01*
X65899720Y-118933626D01*
X65991163Y-119166618D01*
X66116311Y-119383381D01*
X66116318Y-119383392D01*
X66154799Y-119431645D01*
X66154800Y-119431645D01*
X66898958Y-118687487D01*
X66923978Y-118747890D01*
X66995112Y-118854351D01*
X67085649Y-118944888D01*
X67192110Y-119016022D01*
X67252511Y-119041041D01*
X66508403Y-119785148D01*
X66662658Y-119890317D01*
X66662666Y-119890322D01*
X66888167Y-119998916D01*
X66888165Y-119998916D01*
X67127346Y-120072694D01*
X67127352Y-120072696D01*
X67374843Y-120109999D01*
X67374852Y-120110000D01*
X67625148Y-120110000D01*
X67625156Y-120109999D01*
X67872647Y-120072696D01*
X67872653Y-120072694D01*
X68111833Y-119998916D01*
X68337334Y-119890322D01*
X68337344Y-119890315D01*
X68491595Y-119785148D01*
X67747489Y-119041041D01*
X67807890Y-119016022D01*
X67914351Y-118944888D01*
X68004888Y-118854351D01*
X68076022Y-118747890D01*
X68101041Y-118687488D01*
X68845197Y-119431645D01*
X68845198Y-119431644D01*
X68883690Y-119383379D01*
X69008836Y-119166618D01*
X69100279Y-118933626D01*
X69100285Y-118933607D01*
X69155978Y-118689599D01*
X69155978Y-118689597D01*
X69163528Y-118588857D01*
X96905300Y-118588857D01*
X96946223Y-118741584D01*
X96946224Y-118741587D01*
X96962950Y-118770557D01*
X96974828Y-118798621D01*
X97016568Y-118945319D01*
X97016575Y-118945337D01*
X97115736Y-119144479D01*
X97115743Y-119144491D01*
X97249820Y-119322038D01*
X97414237Y-119471923D01*
X97414239Y-119471925D01*
X97603395Y-119589045D01*
X97603396Y-119589045D01*
X97603399Y-119589047D01*
X97810860Y-119669418D01*
X98029557Y-119710300D01*
X98029559Y-119710300D01*
X98252041Y-119710300D01*
X98252043Y-119710300D01*
X98470740Y-119669418D01*
X98678201Y-119589047D01*
X98867362Y-119471924D01*
X99031781Y-119322036D01*
X99165858Y-119144489D01*
X99265029Y-118945328D01*
X99325915Y-118731336D01*
X99346443Y-118509800D01*
X102015157Y-118509800D01*
X102035684Y-118731335D01*
X102035685Y-118731337D01*
X102096569Y-118945323D01*
X102096575Y-118945338D01*
X102195738Y-119144483D01*
X102195743Y-119144491D01*
X102329820Y-119322038D01*
X102494237Y-119471923D01*
X102494239Y-119471925D01*
X102683395Y-119589045D01*
X102683396Y-119589045D01*
X102683399Y-119589047D01*
X102890860Y-119669418D01*
X103109557Y-119710300D01*
X103109559Y-119710300D01*
X103332041Y-119710300D01*
X103332043Y-119710300D01*
X103550740Y-119669418D01*
X103758201Y-119589047D01*
X103947362Y-119471924D01*
X104111781Y-119322036D01*
X104245858Y-119144489D01*
X104345029Y-118945328D01*
X104405915Y-118731336D01*
X104426443Y-118509800D01*
X104420686Y-118447676D01*
X104405915Y-118288264D01*
X104405914Y-118288262D01*
X104390971Y-118235744D01*
X104345029Y-118074272D01*
X104340688Y-118065554D01*
X104245861Y-117875116D01*
X104245856Y-117875108D01*
X104111779Y-117697561D01*
X103947362Y-117547676D01*
X103947360Y-117547674D01*
X103758204Y-117430554D01*
X103758198Y-117430552D01*
X103550740Y-117350182D01*
X103332043Y-117309300D01*
X103109557Y-117309300D01*
X102890860Y-117350182D01*
X102786137Y-117390752D01*
X102683401Y-117430552D01*
X102683395Y-117430554D01*
X102494239Y-117547674D01*
X102494237Y-117547676D01*
X102329820Y-117697561D01*
X102195743Y-117875108D01*
X102195738Y-117875116D01*
X102096575Y-118074261D01*
X102096569Y-118074276D01*
X102035685Y-118288262D01*
X102035684Y-118288264D01*
X102015157Y-118509799D01*
X102015157Y-118509800D01*
X99346443Y-118509800D01*
X99340686Y-118447676D01*
X99325915Y-118288264D01*
X99325914Y-118288262D01*
X99310971Y-118235744D01*
X99265029Y-118074272D01*
X99260688Y-118065554D01*
X99165861Y-117875116D01*
X99165856Y-117875108D01*
X99031779Y-117697561D01*
X98867362Y-117547676D01*
X98867360Y-117547674D01*
X98678204Y-117430554D01*
X98678198Y-117430552D01*
X98470740Y-117350182D01*
X98252043Y-117309300D01*
X98029557Y-117309300D01*
X97810860Y-117350182D01*
X97706137Y-117390752D01*
X97603401Y-117430552D01*
X97603395Y-117430554D01*
X97414239Y-117547674D01*
X97414237Y-117547676D01*
X97249820Y-117697561D01*
X97115743Y-117875108D01*
X97115736Y-117875120D01*
X97016575Y-118074262D01*
X97016569Y-118074278D01*
X96974828Y-118220978D01*
X96962952Y-118249037D01*
X96946224Y-118278013D01*
X96946221Y-118278020D01*
X96919973Y-118375981D01*
X96905300Y-118430743D01*
X96905300Y-118588857D01*
X69163528Y-118588857D01*
X69174683Y-118440004D01*
X69174683Y-118439995D01*
X69155978Y-118190402D01*
X69155978Y-118190400D01*
X69100285Y-117946392D01*
X69100279Y-117946373D01*
X69008836Y-117713381D01*
X68883688Y-117496618D01*
X68883681Y-117496607D01*
X68845199Y-117448354D01*
X68845198Y-117448353D01*
X68101041Y-118192510D01*
X68076022Y-118132110D01*
X68004888Y-118025649D01*
X67914351Y-117935112D01*
X67807890Y-117863978D01*
X67747488Y-117838958D01*
X68491595Y-117094850D01*
X68337335Y-116989678D01*
X68337334Y-116989677D01*
X68111832Y-116881083D01*
X68111834Y-116881083D01*
X67872653Y-116807305D01*
X67872647Y-116807303D01*
X67625156Y-116770000D01*
X67374843Y-116770000D01*
X67127352Y-116807303D01*
X67127346Y-116807305D01*
X66888166Y-116881083D01*
X66662664Y-116989679D01*
X66662651Y-116989686D01*
X66508403Y-117094849D01*
X67252512Y-117838958D01*
X67192110Y-117863978D01*
X67085649Y-117935112D01*
X66995112Y-118025649D01*
X66923978Y-118132110D01*
X66898958Y-118192512D01*
X66154800Y-117448354D01*
X66116311Y-117496617D01*
X65991163Y-117713381D01*
X65899720Y-117946373D01*
X65899714Y-117946392D01*
X65844021Y-118190400D01*
X65844021Y-118190402D01*
X65825317Y-118439995D01*
X65825317Y-118440004D01*
X52508299Y-118440004D01*
X52508299Y-118296392D01*
X52497799Y-118193603D01*
X52442614Y-118027066D01*
X52350512Y-117877744D01*
X52226456Y-117753688D01*
X52077134Y-117661586D01*
X51910597Y-117606401D01*
X51910595Y-117606400D01*
X51807810Y-117595900D01*
X48207798Y-117595900D01*
X48207781Y-117595901D01*
X48105003Y-117606400D01*
X48105000Y-117606401D01*
X47938468Y-117661585D01*
X47938463Y-117661587D01*
X47789142Y-117753689D01*
X47665089Y-117877742D01*
X47572987Y-118027063D01*
X47572985Y-118027068D01*
X47560232Y-118065554D01*
X47517801Y-118193603D01*
X47517801Y-118193604D01*
X47517800Y-118193604D01*
X47507300Y-118296383D01*
X47507300Y-121896401D01*
X38951300Y-121896401D01*
X38951300Y-115940004D01*
X55824816Y-115940004D01*
X55843524Y-116189663D01*
X55843525Y-116189668D01*
X55899236Y-116433755D01*
X55899238Y-116433764D01*
X55899240Y-116433769D01*
X55990711Y-116666835D01*
X56115898Y-116883665D01*
X56202495Y-116992254D01*
X56272006Y-117079418D01*
X56419582Y-117216348D01*
X56455540Y-117249712D01*
X56662408Y-117390752D01*
X56662413Y-117390754D01*
X56662414Y-117390755D01*
X56662415Y-117390756D01*
X56782018Y-117448353D01*
X56887983Y-117499383D01*
X56887984Y-117499383D01*
X56887987Y-117499385D01*
X57127236Y-117573184D01*
X57127237Y-117573184D01*
X57127240Y-117573185D01*
X57374805Y-117610499D01*
X57374810Y-117610499D01*
X57374813Y-117610500D01*
X57374814Y-117610500D01*
X57625186Y-117610500D01*
X57625187Y-117610500D01*
X57625194Y-117610499D01*
X57872759Y-117573185D01*
X57872760Y-117573184D01*
X57872764Y-117573184D01*
X58112013Y-117499385D01*
X58337592Y-117390752D01*
X58544460Y-117249712D01*
X58727997Y-117079414D01*
X58884102Y-116883665D01*
X59009289Y-116666835D01*
X59100760Y-116433769D01*
X59156474Y-116189673D01*
X59171779Y-115985435D01*
X59175184Y-115940004D01*
X59175184Y-115939995D01*
X59156475Y-115690336D01*
X59156474Y-115690331D01*
X59156474Y-115690327D01*
X59100760Y-115446231D01*
X59009289Y-115213165D01*
X58884102Y-114996335D01*
X58727997Y-114800586D01*
X58727996Y-114800585D01*
X58727993Y-114800581D01*
X58619378Y-114699801D01*
X88580332Y-114699801D01*
X88600164Y-114926486D01*
X88600166Y-114926497D01*
X88659058Y-115146288D01*
X88659061Y-115146297D01*
X88755231Y-115352532D01*
X88755232Y-115352534D01*
X88885754Y-115538941D01*
X89046658Y-115699845D01*
X89046661Y-115699847D01*
X89233066Y-115830368D01*
X89439304Y-115926539D01*
X89659108Y-115985435D01*
X89821030Y-115999601D01*
X89885798Y-116005268D01*
X89885800Y-116005268D01*
X89885802Y-116005268D01*
X89942473Y-116000309D01*
X90112492Y-115985435D01*
X90332296Y-115926539D01*
X90538534Y-115830368D01*
X90724939Y-115699847D01*
X90885847Y-115538939D01*
X91016368Y-115352534D01*
X91112539Y-115146296D01*
X91171435Y-114926492D01*
X91191268Y-114699800D01*
X91171435Y-114473108D01*
X91112539Y-114253304D01*
X91016368Y-114047066D01*
X90885847Y-113860661D01*
X90885845Y-113860658D01*
X90724940Y-113699753D01*
X90539177Y-113569681D01*
X90495552Y-113515104D01*
X90486300Y-113468106D01*
X90486300Y-111364044D01*
X90505985Y-111297005D01*
X90545020Y-111258619D01*
X90612362Y-111216924D01*
X90776781Y-111067036D01*
X90910858Y-110889489D01*
X90941640Y-110827670D01*
X113400300Y-110827670D01*
X113400301Y-110827676D01*
X113406708Y-110887283D01*
X113457002Y-111022128D01*
X113457006Y-111022135D01*
X113543252Y-111137344D01*
X113543255Y-111137347D01*
X113658464Y-111223593D01*
X113658471Y-111223597D01*
X113793317Y-111273891D01*
X113793316Y-111273891D01*
X113800244Y-111274635D01*
X113852927Y-111280300D01*
X115448672Y-111280299D01*
X115508283Y-111273891D01*
X115643131Y-111223596D01*
X115758346Y-111137346D01*
X115844596Y-111022131D01*
X115894891Y-110887283D01*
X115901300Y-110827673D01*
X115901299Y-110254800D01*
X128685157Y-110254800D01*
X128705684Y-110476335D01*
X128705685Y-110476337D01*
X128766569Y-110690323D01*
X128766575Y-110690338D01*
X128865738Y-110889483D01*
X128865743Y-110889491D01*
X128999820Y-111067038D01*
X129164237Y-111216923D01*
X129164239Y-111216925D01*
X129353395Y-111334045D01*
X129353396Y-111334045D01*
X129353399Y-111334047D01*
X129560860Y-111414418D01*
X129779557Y-111455300D01*
X129779559Y-111455300D01*
X130002041Y-111455300D01*
X130002043Y-111455300D01*
X130220740Y-111414418D01*
X130428201Y-111334047D01*
X130617362Y-111216924D01*
X130781781Y-111067036D01*
X130915858Y-110889489D01*
X131015029Y-110690328D01*
X131075915Y-110476336D01*
X131096443Y-110254800D01*
X131075915Y-110033264D01*
X131015029Y-109819272D01*
X131000169Y-109789429D01*
X130915861Y-109620116D01*
X130915856Y-109620108D01*
X130781779Y-109442561D01*
X130617362Y-109292676D01*
X130617360Y-109292674D01*
X130428204Y-109175554D01*
X130428198Y-109175552D01*
X130220740Y-109095182D01*
X130002043Y-109054300D01*
X129779557Y-109054300D01*
X129560860Y-109095182D01*
X129429664Y-109146007D01*
X129353401Y-109175552D01*
X129353395Y-109175554D01*
X129164239Y-109292674D01*
X129164237Y-109292676D01*
X128999820Y-109442561D01*
X128865743Y-109620108D01*
X128865738Y-109620116D01*
X128766575Y-109819261D01*
X128766569Y-109819276D01*
X128705685Y-110033262D01*
X128705684Y-110033264D01*
X128685157Y-110254799D01*
X128685157Y-110254800D01*
X115901299Y-110254800D01*
X115901299Y-109681928D01*
X115894891Y-109622317D01*
X115894068Y-109620111D01*
X115844597Y-109487471D01*
X115844596Y-109487470D01*
X115844596Y-109487469D01*
X115843767Y-109486362D01*
X115843285Y-109485068D01*
X115840346Y-109479686D01*
X115841119Y-109479263D01*
X115819351Y-109420899D01*
X115828475Y-109364598D01*
X115835080Y-109348654D01*
X115861891Y-109283927D01*
X115901300Y-109085803D01*
X115901300Y-108883797D01*
X115861891Y-108685673D01*
X115784586Y-108499044D01*
X115730894Y-108418689D01*
X115710017Y-108352014D01*
X115728501Y-108284634D01*
X115730878Y-108280934D01*
X115784586Y-108200556D01*
X115861891Y-108013927D01*
X115901300Y-107815803D01*
X115901300Y-107613797D01*
X115861891Y-107415673D01*
X115784586Y-107229044D01*
X115784584Y-107229041D01*
X115784582Y-107229037D01*
X115672358Y-107061081D01*
X115529518Y-106918241D01*
X115361562Y-106806017D01*
X115361552Y-106806012D01*
X115174927Y-106728709D01*
X115174919Y-106728707D01*
X114976807Y-106689300D01*
X114976803Y-106689300D01*
X114324797Y-106689300D01*
X114324792Y-106689300D01*
X114126680Y-106728707D01*
X114126672Y-106728709D01*
X113940047Y-106806012D01*
X113940037Y-106806017D01*
X113772081Y-106918241D01*
X113629241Y-107061081D01*
X113517017Y-107229037D01*
X113517012Y-107229047D01*
X113439709Y-107415672D01*
X113439707Y-107415680D01*
X113400300Y-107613792D01*
X113400300Y-107815807D01*
X113439707Y-108013919D01*
X113439709Y-108013927D01*
X113517013Y-108200555D01*
X113570704Y-108280909D01*
X113591582Y-108347587D01*
X113573097Y-108414967D01*
X113570704Y-108418691D01*
X113517013Y-108499044D01*
X113439709Y-108685672D01*
X113439707Y-108685680D01*
X113400300Y-108883792D01*
X113400300Y-109085807D01*
X113439707Y-109283919D01*
X113439709Y-109283927D01*
X113473125Y-109364600D01*
X113480594Y-109434070D01*
X113460838Y-109479460D01*
X113461254Y-109479687D01*
X113458719Y-109484328D01*
X113457837Y-109486356D01*
X113457006Y-109487465D01*
X113457002Y-109487472D01*
X113406708Y-109622317D01*
X113400301Y-109681916D01*
X113400301Y-109681923D01*
X113400300Y-109681935D01*
X113400300Y-110827670D01*
X90941640Y-110827670D01*
X91010029Y-110690328D01*
X91070915Y-110476336D01*
X91091443Y-110254800D01*
X91070915Y-110033264D01*
X91010029Y-109819272D01*
X90995169Y-109789429D01*
X90910861Y-109620116D01*
X90910856Y-109620108D01*
X90776779Y-109442561D01*
X90612362Y-109292676D01*
X90612360Y-109292674D01*
X90423204Y-109175554D01*
X90423198Y-109175552D01*
X90215740Y-109095182D01*
X89997043Y-109054300D01*
X89774557Y-109054300D01*
X89555860Y-109095182D01*
X89424664Y-109146007D01*
X89348401Y-109175552D01*
X89348395Y-109175554D01*
X89159239Y-109292674D01*
X89159237Y-109292676D01*
X88994820Y-109442561D01*
X88860743Y-109620108D01*
X88860738Y-109620116D01*
X88761575Y-109819261D01*
X88761569Y-109819276D01*
X88700685Y-110033262D01*
X88700684Y-110033264D01*
X88680157Y-110254799D01*
X88680157Y-110254800D01*
X88700684Y-110476335D01*
X88700685Y-110476337D01*
X88761569Y-110690323D01*
X88761575Y-110690338D01*
X88860738Y-110889483D01*
X88860743Y-110889491D01*
X88994820Y-111067038D01*
X89159233Y-111216920D01*
X89159235Y-111216921D01*
X89159238Y-111216924D01*
X89226578Y-111258618D01*
X89273212Y-111310643D01*
X89285300Y-111364044D01*
X89285300Y-113468106D01*
X89265615Y-113535145D01*
X89232423Y-113569681D01*
X89046659Y-113699753D01*
X88885754Y-113860658D01*
X88755232Y-114047065D01*
X88755231Y-114047067D01*
X88659061Y-114253302D01*
X88659058Y-114253311D01*
X88600166Y-114473102D01*
X88600164Y-114473113D01*
X88580332Y-114699798D01*
X88580332Y-114699801D01*
X58619378Y-114699801D01*
X58544460Y-114630288D01*
X58433758Y-114554813D01*
X58337592Y-114489248D01*
X58337588Y-114489246D01*
X58337585Y-114489244D01*
X58337584Y-114489243D01*
X58112015Y-114380616D01*
X58112017Y-114380616D01*
X57872765Y-114306816D01*
X57872759Y-114306814D01*
X57625194Y-114269500D01*
X57625187Y-114269500D01*
X57374813Y-114269500D01*
X57374805Y-114269500D01*
X57127240Y-114306814D01*
X57127234Y-114306816D01*
X56887983Y-114380616D01*
X56662415Y-114489243D01*
X56662414Y-114489244D01*
X56662408Y-114489247D01*
X56662408Y-114489248D01*
X56646164Y-114500323D01*
X56455539Y-114630288D01*
X56272006Y-114800581D01*
X56115898Y-114996335D01*
X55990711Y-115213164D01*
X55899242Y-115446225D01*
X55899236Y-115446244D01*
X55843525Y-115690331D01*
X55843524Y-115690336D01*
X55824816Y-115939995D01*
X55824816Y-115940004D01*
X38951300Y-115940004D01*
X38951300Y-112896405D01*
X47502356Y-112896405D01*
X47522110Y-113210404D01*
X47522111Y-113210411D01*
X47530152Y-113252561D01*
X47580234Y-113515104D01*
X47581070Y-113519483D01*
X47678297Y-113818716D01*
X47678299Y-113818721D01*
X47812261Y-114103403D01*
X47812264Y-114103409D01*
X47980851Y-114369061D01*
X47980854Y-114369065D01*
X48181406Y-114611490D01*
X48181408Y-114611492D01*
X48181410Y-114611494D01*
X48275109Y-114699483D01*
X48410768Y-114826876D01*
X48410778Y-114826884D01*
X48665304Y-115011808D01*
X48665309Y-115011810D01*
X48665316Y-115011816D01*
X48941034Y-115163394D01*
X48941039Y-115163396D01*
X48941041Y-115163397D01*
X48941042Y-115163398D01*
X49233571Y-115279218D01*
X49233574Y-115279219D01*
X49519110Y-115352532D01*
X49538327Y-115357466D01*
X49603810Y-115365738D01*
X49850470Y-115396899D01*
X49850479Y-115396899D01*
X49850482Y-115396900D01*
X49850484Y-115396900D01*
X50165116Y-115396900D01*
X50165118Y-115396900D01*
X50165121Y-115396899D01*
X50165129Y-115396899D01*
X50351393Y-115373368D01*
X50477273Y-115357466D01*
X50782025Y-115279219D01*
X50782028Y-115279218D01*
X51074557Y-115163398D01*
X51074558Y-115163397D01*
X51074556Y-115163397D01*
X51074566Y-115163394D01*
X51350284Y-115011816D01*
X51604830Y-114826878D01*
X51834190Y-114611494D01*
X52034747Y-114369063D01*
X52203337Y-114103407D01*
X52337303Y-113818715D01*
X52434531Y-113519479D01*
X52493488Y-113210415D01*
X52493489Y-113210404D01*
X52513244Y-112896405D01*
X52513244Y-112896394D01*
X52493489Y-112582395D01*
X52493488Y-112582388D01*
X52493488Y-112582385D01*
X52434531Y-112273321D01*
X52337303Y-111974085D01*
X52203337Y-111689393D01*
X52168214Y-111634048D01*
X52034748Y-111423738D01*
X52034745Y-111423734D01*
X51834193Y-111181309D01*
X51834191Y-111181307D01*
X51787379Y-111137347D01*
X51604830Y-110965922D01*
X51604827Y-110965920D01*
X51604821Y-110965915D01*
X51350295Y-110780991D01*
X51350288Y-110780986D01*
X51350284Y-110780984D01*
X51074566Y-110629406D01*
X51074563Y-110629404D01*
X51074558Y-110629402D01*
X51074557Y-110629401D01*
X50782028Y-110513581D01*
X50782025Y-110513580D01*
X50477276Y-110435334D01*
X50477263Y-110435332D01*
X50165129Y-110395900D01*
X50165118Y-110395900D01*
X49850482Y-110395900D01*
X49850470Y-110395900D01*
X49538336Y-110435332D01*
X49538323Y-110435334D01*
X49233574Y-110513580D01*
X49233571Y-110513581D01*
X48941042Y-110629401D01*
X48941041Y-110629402D01*
X48665316Y-110780984D01*
X48665304Y-110780991D01*
X48410778Y-110965915D01*
X48410768Y-110965923D01*
X48181408Y-111181307D01*
X48181406Y-111181309D01*
X47980854Y-111423734D01*
X47980851Y-111423738D01*
X47812264Y-111689390D01*
X47812261Y-111689396D01*
X47678299Y-111974078D01*
X47678297Y-111974083D01*
X47581070Y-112273316D01*
X47522111Y-112582388D01*
X47522110Y-112582395D01*
X47502356Y-112896394D01*
X47502356Y-112896405D01*
X38951300Y-112896405D01*
X38951300Y-106879801D01*
X73750300Y-106879801D01*
X73750301Y-106879818D01*
X73760800Y-106982596D01*
X73760801Y-106982599D01*
X73786808Y-107061081D01*
X73815986Y-107149134D01*
X73908088Y-107298456D01*
X74032144Y-107422512D01*
X74181466Y-107514614D01*
X74348003Y-107569799D01*
X74450791Y-107580300D01*
X78050808Y-107580299D01*
X78153597Y-107569799D01*
X78320134Y-107514614D01*
X78469456Y-107422512D01*
X78593512Y-107298456D01*
X78685614Y-107149134D01*
X78740799Y-106982597D01*
X78751300Y-106879809D01*
X78751300Y-106452900D01*
X78770985Y-106385861D01*
X78823789Y-106340106D01*
X78875300Y-106328900D01*
X89519169Y-106328900D01*
X89553099Y-106333632D01*
X89555853Y-106334415D01*
X89555860Y-106334418D01*
X89774557Y-106375300D01*
X89774559Y-106375300D01*
X89997041Y-106375300D01*
X89997043Y-106375300D01*
X90215740Y-106334418D01*
X90234956Y-106326973D01*
X90256384Y-106318673D01*
X90301177Y-106310300D01*
X129475423Y-106310300D01*
X129520216Y-106318673D01*
X129549417Y-106329985D01*
X129560860Y-106334418D01*
X129779557Y-106375300D01*
X129779559Y-106375300D01*
X130002041Y-106375300D01*
X130002043Y-106375300D01*
X130220740Y-106334418D01*
X130239956Y-106326973D01*
X130261384Y-106318673D01*
X130306177Y-106310300D01*
X137624099Y-106310300D01*
X137691138Y-106329985D01*
X137711780Y-106346619D01*
X143121072Y-111755911D01*
X143265669Y-111860967D01*
X143340906Y-111899302D01*
X143424915Y-111942108D01*
X143424917Y-111942108D01*
X143424920Y-111942110D01*
X143594903Y-111997341D01*
X143695617Y-112013292D01*
X143771430Y-112025300D01*
X143771434Y-112025300D01*
X143880380Y-112025300D01*
X143947419Y-112044985D01*
X143979644Y-112074986D01*
X143998254Y-112099846D01*
X143998255Y-112099846D01*
X143998256Y-112099848D01*
X144113464Y-112186093D01*
X144113469Y-112186096D01*
X144141339Y-112196490D01*
X144197273Y-112238361D01*
X144221691Y-112303824D01*
X144206840Y-112372098D01*
X144198325Y-112385559D01*
X144065583Y-112568261D01*
X143961750Y-112772044D01*
X143891078Y-112989550D01*
X143891078Y-112989553D01*
X143873161Y-113102676D01*
X143855300Y-113215446D01*
X143855300Y-113444154D01*
X143867230Y-113519479D01*
X143891078Y-113670046D01*
X143891078Y-113670049D01*
X143961750Y-113887555D01*
X144052061Y-114064799D01*
X144065583Y-114091338D01*
X144200014Y-114276366D01*
X144361734Y-114438086D01*
X144431223Y-114488573D01*
X144446238Y-114499482D01*
X144488903Y-114554813D01*
X144494882Y-114624426D01*
X144462276Y-114686221D01*
X144446238Y-114700118D01*
X144361732Y-114761515D01*
X144200012Y-114923235D01*
X144200008Y-114923240D01*
X144189877Y-114937185D01*
X144134547Y-114979851D01*
X144089559Y-114988300D01*
X132112291Y-114988300D01*
X132045252Y-114968615D01*
X132024610Y-114951981D01*
X131123916Y-114051286D01*
X131090431Y-113989963D01*
X131088126Y-113975046D01*
X131080019Y-113887558D01*
X131075915Y-113843264D01*
X131015029Y-113629272D01*
X131015024Y-113629261D01*
X130915861Y-113430116D01*
X130915856Y-113430108D01*
X130781779Y-113252561D01*
X130617362Y-113102676D01*
X130617360Y-113102674D01*
X130428204Y-112985554D01*
X130428198Y-112985552D01*
X130220740Y-112905182D01*
X130002043Y-112864300D01*
X129779557Y-112864300D01*
X129560860Y-112905182D01*
X129429664Y-112956007D01*
X129353401Y-112985552D01*
X129353395Y-112985554D01*
X129164239Y-113102674D01*
X129164237Y-113102676D01*
X128999820Y-113252561D01*
X128865743Y-113430108D01*
X128865738Y-113430116D01*
X128766575Y-113629261D01*
X128766569Y-113629276D01*
X128705685Y-113843262D01*
X128705684Y-113843264D01*
X128685157Y-114064799D01*
X128685157Y-114064800D01*
X128705684Y-114286335D01*
X128705685Y-114286337D01*
X128766569Y-114500323D01*
X128766575Y-114500338D01*
X128865738Y-114699483D01*
X128865743Y-114699491D01*
X128999820Y-114877038D01*
X129164237Y-115026923D01*
X129164239Y-115026925D01*
X129353395Y-115144045D01*
X129353396Y-115144045D01*
X129353399Y-115144047D01*
X129560860Y-115224418D01*
X129779557Y-115265300D01*
X129793308Y-115265300D01*
X129860347Y-115284985D01*
X129880989Y-115301619D01*
X131011094Y-116431723D01*
X131133877Y-116554506D01*
X131133878Y-116554507D01*
X131278246Y-116650971D01*
X131278259Y-116650978D01*
X131438671Y-116717422D01*
X131438676Y-116717424D01*
X131438680Y-116717424D01*
X131438681Y-116717425D01*
X131608977Y-116751300D01*
X131608980Y-116751300D01*
X144089559Y-116751300D01*
X144156598Y-116770985D01*
X144189877Y-116802415D01*
X144200008Y-116816359D01*
X144200012Y-116816364D01*
X144200014Y-116816366D01*
X144361734Y-116978086D01*
X144546762Y-117112517D01*
X144750542Y-117216348D01*
X144750544Y-117216349D01*
X144968051Y-117287021D01*
X144968052Y-117287021D01*
X144968055Y-117287022D01*
X145193946Y-117322800D01*
X145193947Y-117322800D01*
X145517653Y-117322800D01*
X145517654Y-117322800D01*
X145743545Y-117287022D01*
X145743548Y-117287021D01*
X145743549Y-117287021D01*
X145961055Y-117216349D01*
X145961055Y-117216348D01*
X145961058Y-117216348D01*
X146164838Y-117112517D01*
X146349866Y-116978086D01*
X146511586Y-116816366D01*
X146646017Y-116631338D01*
X146749848Y-116427558D01*
X146820522Y-116210045D01*
X146856300Y-115984154D01*
X146856300Y-115755446D01*
X146820522Y-115529555D01*
X146820521Y-115529551D01*
X146820521Y-115529550D01*
X146749849Y-115312044D01*
X146705201Y-115224417D01*
X146646017Y-115108262D01*
X146511586Y-114923234D01*
X146349866Y-114761514D01*
X146265359Y-114700116D01*
X146222696Y-114644788D01*
X146216717Y-114575175D01*
X146249323Y-114513380D01*
X146265356Y-114499485D01*
X146349866Y-114438086D01*
X146511586Y-114276366D01*
X146646017Y-114091338D01*
X146749848Y-113887558D01*
X146764241Y-113843262D01*
X146820521Y-113670049D01*
X146820521Y-113670048D01*
X146820522Y-113670045D01*
X146856300Y-113444154D01*
X146856300Y-113215446D01*
X146820522Y-112989555D01*
X146820521Y-112989551D01*
X146820521Y-112989550D01*
X146749849Y-112772044D01*
X146653218Y-112582395D01*
X146646017Y-112568262D01*
X146513272Y-112385555D01*
X146489794Y-112319753D01*
X146505619Y-112251699D01*
X146555725Y-112203004D01*
X146570255Y-112196492D01*
X146598131Y-112186096D01*
X146713346Y-112099846D01*
X146799596Y-111984631D01*
X146849891Y-111849783D01*
X146856300Y-111790173D01*
X146856299Y-109789428D01*
X146849891Y-109729817D01*
X146832032Y-109681935D01*
X146799597Y-109594971D01*
X146799593Y-109594964D01*
X146713347Y-109479755D01*
X146625988Y-109414357D01*
X146584118Y-109358423D01*
X146576300Y-109315091D01*
X146576300Y-107379040D01*
X158520111Y-107379040D01*
X158608385Y-107433697D01*
X158798478Y-107507339D01*
X158998872Y-107544800D01*
X159202728Y-107544800D01*
X159403122Y-107507339D01*
X159593212Y-107433699D01*
X159593216Y-107433697D01*
X159681486Y-107379041D01*
X159681486Y-107379040D01*
X159501687Y-107199240D01*
X165919311Y-107199240D01*
X166007585Y-107253897D01*
X166197678Y-107327539D01*
X166398072Y-107365000D01*
X166601928Y-107365000D01*
X166802322Y-107327539D01*
X166992412Y-107253899D01*
X166992416Y-107253897D01*
X167080686Y-107199241D01*
X167080686Y-107199240D01*
X166500001Y-106618553D01*
X166500000Y-106618553D01*
X165919311Y-107199240D01*
X159501687Y-107199240D01*
X159100801Y-106798353D01*
X159100800Y-106798353D01*
X158520111Y-107379040D01*
X146576300Y-107379040D01*
X146576300Y-103633897D01*
X146595985Y-103566858D01*
X146648789Y-103521103D01*
X146717947Y-103511159D01*
X146781503Y-103540184D01*
X146787981Y-103546216D01*
X148550939Y-105309174D01*
X148550949Y-105309185D01*
X148555279Y-105313515D01*
X148555280Y-105313516D01*
X148667084Y-105425320D01*
X148667086Y-105425321D01*
X148667090Y-105425324D01*
X148802059Y-105503247D01*
X148804016Y-105504377D01*
X148915819Y-105534334D01*
X148956742Y-105545300D01*
X148956743Y-105545300D01*
X157883823Y-105545300D01*
X157950862Y-105564985D01*
X157996617Y-105617789D01*
X158004066Y-105644934D01*
X158004924Y-105644732D01*
X158006707Y-105652279D01*
X158057002Y-105787128D01*
X158057006Y-105787135D01*
X158096754Y-105840231D01*
X158121172Y-105905695D01*
X158108488Y-105969813D01*
X158070688Y-106045725D01*
X158070683Y-106045736D01*
X158014897Y-106241807D01*
X158014896Y-106241810D01*
X157996087Y-106444799D01*
X157996087Y-106444800D01*
X158014896Y-106647789D01*
X158014897Y-106647792D01*
X158070683Y-106843863D01*
X158070686Y-106843869D01*
X158161551Y-107026351D01*
X158163333Y-107028711D01*
X158805945Y-106386098D01*
X158800800Y-106405304D01*
X158800800Y-106484296D01*
X158821244Y-106560596D01*
X158860740Y-106629005D01*
X158916595Y-106684860D01*
X158985004Y-106724356D01*
X159061304Y-106744800D01*
X159140296Y-106744800D01*
X159216596Y-106724356D01*
X159285005Y-106684860D01*
X159340860Y-106629005D01*
X159380356Y-106560596D01*
X159400800Y-106484296D01*
X159400800Y-106405304D01*
X159395654Y-106386101D01*
X160038265Y-107028712D01*
X160040047Y-107026353D01*
X160040048Y-107026351D01*
X160130913Y-106843869D01*
X160130916Y-106843863D01*
X160186702Y-106647792D01*
X160186703Y-106647789D01*
X160205513Y-106444800D01*
X160205513Y-106444799D01*
X160186703Y-106241810D01*
X160186702Y-106241808D01*
X160130915Y-106045736D01*
X160130910Y-106045725D01*
X160093111Y-105969813D01*
X160080850Y-105901028D01*
X160104845Y-105840231D01*
X160144596Y-105787131D01*
X160194891Y-105652283D01*
X160194891Y-105652281D01*
X160196674Y-105644738D01*
X160198946Y-105645274D01*
X160221229Y-105591488D01*
X160278623Y-105551643D01*
X160317776Y-105545300D01*
X165348760Y-105545300D01*
X165415799Y-105564985D01*
X165449547Y-105601234D01*
X165450888Y-105600231D01*
X165495954Y-105660431D01*
X165520372Y-105725895D01*
X165507688Y-105790013D01*
X165469888Y-105865925D01*
X165469883Y-105865936D01*
X165414097Y-106062007D01*
X165414096Y-106062010D01*
X165395287Y-106264999D01*
X165395287Y-106265000D01*
X165414096Y-106467989D01*
X165414097Y-106467992D01*
X165469883Y-106664063D01*
X165469886Y-106664069D01*
X165560751Y-106846551D01*
X165562533Y-106848911D01*
X166205145Y-106206298D01*
X166200000Y-106225504D01*
X166200000Y-106304496D01*
X166220444Y-106380796D01*
X166259940Y-106449205D01*
X166315795Y-106505060D01*
X166384204Y-106544556D01*
X166460504Y-106565000D01*
X166539496Y-106565000D01*
X166615796Y-106544556D01*
X166684205Y-106505060D01*
X166740060Y-106449205D01*
X166779556Y-106380796D01*
X166800000Y-106304496D01*
X166800000Y-106225504D01*
X166794854Y-106206301D01*
X167437465Y-106848912D01*
X167439247Y-106846553D01*
X167439248Y-106846551D01*
X167530113Y-106664069D01*
X167530116Y-106664063D01*
X167585902Y-106467992D01*
X167585903Y-106467989D01*
X167604713Y-106265000D01*
X167604713Y-106264999D01*
X167585903Y-106062010D01*
X167585902Y-106062008D01*
X167530115Y-105865936D01*
X167530110Y-105865925D01*
X167492311Y-105790013D01*
X167480050Y-105721228D01*
X167504045Y-105660431D01*
X167543796Y-105607331D01*
X167549264Y-105592672D01*
X167571024Y-105534329D01*
X167594091Y-105472483D01*
X167600500Y-105412873D01*
X167600499Y-104117128D01*
X167594091Y-104057517D01*
X167590054Y-104046694D01*
X167543797Y-103922671D01*
X167543793Y-103922664D01*
X167457547Y-103807455D01*
X167457544Y-103807452D01*
X167342335Y-103721206D01*
X167342328Y-103721202D01*
X167207482Y-103670908D01*
X167207483Y-103670908D01*
X167147883Y-103664501D01*
X167147881Y-103664500D01*
X167147873Y-103664500D01*
X167147864Y-103664500D01*
X165852129Y-103664500D01*
X165852123Y-103664501D01*
X165792516Y-103670908D01*
X165657671Y-103721202D01*
X165657664Y-103721206D01*
X165542455Y-103807452D01*
X165542452Y-103807455D01*
X165456206Y-103922664D01*
X165456202Y-103922671D01*
X165405908Y-104057517D01*
X165399501Y-104117116D01*
X165399501Y-104117123D01*
X165399500Y-104117135D01*
X165399500Y-104220300D01*
X165379815Y-104287339D01*
X165327011Y-104333094D01*
X165275500Y-104344300D01*
X160317777Y-104344300D01*
X160250738Y-104324615D01*
X160204983Y-104271811D01*
X160197533Y-104244665D01*
X160196676Y-104244868D01*
X160194892Y-104237320D01*
X160144597Y-104102471D01*
X160144593Y-104102464D01*
X160058347Y-103987255D01*
X160058344Y-103987252D01*
X159943135Y-103901006D01*
X159943128Y-103901002D01*
X159808282Y-103850708D01*
X159808283Y-103850708D01*
X159748683Y-103844301D01*
X159748681Y-103844300D01*
X159748673Y-103844300D01*
X159748664Y-103844300D01*
X158452929Y-103844300D01*
X158452923Y-103844301D01*
X158393316Y-103850708D01*
X158258471Y-103901002D01*
X158258464Y-103901006D01*
X158143255Y-103987252D01*
X158143252Y-103987255D01*
X158057006Y-104102464D01*
X158057002Y-104102471D01*
X158006708Y-104237317D01*
X158004926Y-104244862D01*
X158002653Y-104244325D01*
X157980371Y-104298112D01*
X157922977Y-104337957D01*
X157883824Y-104344300D01*
X149335897Y-104344300D01*
X149268858Y-104324615D01*
X149248216Y-104307981D01*
X147727618Y-102787383D01*
X147694133Y-102726060D01*
X147691299Y-102699702D01*
X147691299Y-100221929D01*
X147691298Y-100221923D01*
X147691297Y-100221916D01*
X147684891Y-100162317D01*
X147678933Y-100146344D01*
X147634597Y-100027471D01*
X147634593Y-100027464D01*
X147548347Y-99912255D01*
X147548344Y-99912252D01*
X147433135Y-99826006D01*
X147433128Y-99826002D01*
X147298282Y-99775708D01*
X147298283Y-99775708D01*
X147238683Y-99769301D01*
X147238681Y-99769300D01*
X147238673Y-99769300D01*
X147238664Y-99769300D01*
X143642929Y-99769300D01*
X143642923Y-99769301D01*
X143583316Y-99775708D01*
X143448471Y-99826002D01*
X143448464Y-99826006D01*
X143333255Y-99912252D01*
X143333252Y-99912255D01*
X143247006Y-100027464D01*
X143247002Y-100027471D01*
X143196708Y-100162317D01*
X143190301Y-100221916D01*
X143190301Y-100221923D01*
X143190300Y-100221935D01*
X143190300Y-102817670D01*
X143190301Y-102817676D01*
X143196708Y-102877283D01*
X143247002Y-103012128D01*
X143247006Y-103012135D01*
X143333252Y-103127344D01*
X143333255Y-103127347D01*
X143448464Y-103213593D01*
X143448471Y-103213597D01*
X143493418Y-103230361D01*
X143583317Y-103263891D01*
X143642927Y-103270300D01*
X144181300Y-103270299D01*
X144248339Y-103289983D01*
X144294094Y-103342787D01*
X144305300Y-103394299D01*
X144305300Y-109235860D01*
X144285615Y-109302899D01*
X144232811Y-109348654D01*
X144224633Y-109352042D01*
X144113471Y-109393502D01*
X144105686Y-109397754D01*
X144104366Y-109395337D01*
X144052151Y-109414805D01*
X143983880Y-109399944D01*
X143955640Y-109378801D01*
X138885529Y-104308690D01*
X138884553Y-104307981D01*
X138740932Y-104203633D01*
X138581681Y-104122491D01*
X138581675Y-104122488D01*
X138539994Y-104108946D01*
X138473253Y-104087260D01*
X138411697Y-104067259D01*
X138411695Y-104067258D01*
X138411694Y-104067258D01*
X138235170Y-104039300D01*
X138235166Y-104039300D01*
X130574500Y-104039300D01*
X130507461Y-104019615D01*
X130461706Y-103966811D01*
X130450500Y-103915300D01*
X130450500Y-101764244D01*
X130470185Y-101697205D01*
X130509220Y-101658819D01*
X130576562Y-101617124D01*
X130740981Y-101467236D01*
X130875058Y-101289689D01*
X130974229Y-101090528D01*
X131035115Y-100876536D01*
X131055643Y-100655000D01*
X131035115Y-100433464D01*
X130974229Y-100219472D01*
X130974224Y-100219461D01*
X130875061Y-100020316D01*
X130875056Y-100020308D01*
X130740979Y-99842761D01*
X130576562Y-99692876D01*
X130576560Y-99692874D01*
X130387404Y-99575754D01*
X130387398Y-99575752D01*
X130179940Y-99495382D01*
X129961243Y-99454500D01*
X129738757Y-99454500D01*
X129520060Y-99495382D01*
X129388864Y-99546207D01*
X129312601Y-99575752D01*
X129312595Y-99575754D01*
X129123439Y-99692874D01*
X129123437Y-99692876D01*
X128959020Y-99842761D01*
X128824943Y-100020308D01*
X128824938Y-100020316D01*
X128725775Y-100219461D01*
X128725769Y-100219476D01*
X128664885Y-100433462D01*
X128664884Y-100433464D01*
X128644357Y-100654999D01*
X128644357Y-100655000D01*
X128664884Y-100876535D01*
X128664885Y-100876537D01*
X128725769Y-101090523D01*
X128725775Y-101090538D01*
X128824938Y-101289683D01*
X128824943Y-101289691D01*
X128959020Y-101467238D01*
X129123433Y-101617120D01*
X129123435Y-101617121D01*
X129123438Y-101617124D01*
X129190778Y-101658818D01*
X129237412Y-101710843D01*
X129249500Y-101764244D01*
X129249500Y-103915300D01*
X129229815Y-103982339D01*
X129177011Y-104028094D01*
X129125500Y-104039300D01*
X90610300Y-104039300D01*
X90543261Y-104019615D01*
X90497506Y-103966811D01*
X90486300Y-103915300D01*
X90486300Y-102474044D01*
X90505985Y-102407005D01*
X90545020Y-102368619D01*
X90612362Y-102326924D01*
X90776781Y-102177036D01*
X90910858Y-101999489D01*
X91010029Y-101800328D01*
X91070915Y-101586336D01*
X91091443Y-101364800D01*
X91084482Y-101289683D01*
X91070915Y-101143264D01*
X91070914Y-101143262D01*
X91010030Y-100929276D01*
X91010029Y-100929272D01*
X90983770Y-100876537D01*
X90910861Y-100730116D01*
X90910856Y-100730108D01*
X90776779Y-100552561D01*
X90612362Y-100402676D01*
X90612360Y-100402674D01*
X90423204Y-100285554D01*
X90423198Y-100285552D01*
X90215740Y-100205182D01*
X89997043Y-100164300D01*
X89774557Y-100164300D01*
X89555860Y-100205182D01*
X89512616Y-100221935D01*
X89348401Y-100285552D01*
X89348395Y-100285554D01*
X89159239Y-100402674D01*
X89159237Y-100402676D01*
X88994820Y-100552561D01*
X88860743Y-100730108D01*
X88860738Y-100730116D01*
X88761575Y-100929261D01*
X88761569Y-100929276D01*
X88700685Y-101143262D01*
X88700684Y-101143264D01*
X88680157Y-101364799D01*
X88680157Y-101364800D01*
X88700684Y-101586335D01*
X88700685Y-101586337D01*
X88761569Y-101800323D01*
X88761575Y-101800338D01*
X88860738Y-101999483D01*
X88860743Y-101999491D01*
X88994820Y-102177038D01*
X89159233Y-102326920D01*
X89159235Y-102326921D01*
X89159238Y-102326924D01*
X89226578Y-102368618D01*
X89273212Y-102420643D01*
X89285300Y-102474044D01*
X89285300Y-103933900D01*
X89265615Y-104000939D01*
X89212811Y-104046694D01*
X89161300Y-104057900D01*
X78875299Y-104057900D01*
X78808260Y-104038215D01*
X78762505Y-103985411D01*
X78751299Y-103933900D01*
X78751299Y-103279798D01*
X78751298Y-103279781D01*
X78740799Y-103177003D01*
X78740798Y-103177000D01*
X78685614Y-103010466D01*
X78593512Y-102861144D01*
X78469456Y-102737088D01*
X78320134Y-102644986D01*
X78153597Y-102589801D01*
X78153595Y-102589800D01*
X78050810Y-102579300D01*
X74450798Y-102579300D01*
X74450781Y-102579301D01*
X74348003Y-102589800D01*
X74348000Y-102589801D01*
X74181468Y-102644985D01*
X74181463Y-102644987D01*
X74032142Y-102737089D01*
X73908089Y-102861142D01*
X73815987Y-103010463D01*
X73815986Y-103010466D01*
X73760801Y-103177003D01*
X73760801Y-103177004D01*
X73760800Y-103177004D01*
X73750300Y-103279783D01*
X73750300Y-106879801D01*
X38951300Y-106879801D01*
X38951300Y-97879805D01*
X73745857Y-97879805D01*
X73765607Y-98193742D01*
X73765608Y-98193749D01*
X73824555Y-98502758D01*
X73921763Y-98801932D01*
X73921765Y-98801937D01*
X74055700Y-99086561D01*
X74055703Y-99086567D01*
X74224257Y-99352167D01*
X74224260Y-99352171D01*
X74315086Y-99461960D01*
X75028140Y-98748905D01*
X75106664Y-98856984D01*
X75273616Y-99023936D01*
X75381692Y-99102458D01*
X74665771Y-99818379D01*
X74665772Y-99818381D01*
X74908572Y-99994785D01*
X74908590Y-99994796D01*
X75184247Y-100146340D01*
X75184255Y-100146344D01*
X75476726Y-100262140D01*
X75781420Y-100340373D01*
X75781429Y-100340375D01*
X76093501Y-100379799D01*
X76093515Y-100379800D01*
X76408085Y-100379800D01*
X76408098Y-100379799D01*
X76720170Y-100340375D01*
X76720179Y-100340373D01*
X77024873Y-100262140D01*
X77317344Y-100146344D01*
X77317352Y-100146340D01*
X77593009Y-99994796D01*
X77593019Y-99994790D01*
X77835826Y-99818379D01*
X77835827Y-99818379D01*
X77119906Y-99102458D01*
X77227984Y-99023936D01*
X77394936Y-98856984D01*
X77473458Y-98748906D01*
X78186512Y-99461960D01*
X78277344Y-99352164D01*
X78445896Y-99086567D01*
X78445899Y-99086561D01*
X78579834Y-98801937D01*
X78579836Y-98801932D01*
X78677044Y-98502758D01*
X78735991Y-98193749D01*
X78735992Y-98193742D01*
X78738249Y-98157870D01*
X112959500Y-98157870D01*
X112959501Y-98157876D01*
X112965908Y-98217483D01*
X113016202Y-98352328D01*
X113016206Y-98352335D01*
X113102452Y-98467544D01*
X113102455Y-98467547D01*
X113217664Y-98553793D01*
X113217671Y-98553797D01*
X113352517Y-98604091D01*
X113352516Y-98604091D01*
X113359444Y-98604835D01*
X113412127Y-98610500D01*
X115007872Y-98610499D01*
X115067483Y-98604091D01*
X115202331Y-98553796D01*
X115317546Y-98467546D01*
X115403796Y-98352331D01*
X115416559Y-98318111D01*
X115435934Y-98266166D01*
X115477806Y-98210233D01*
X115543270Y-98185816D01*
X115552116Y-98185500D01*
X122788931Y-98185500D01*
X122788947Y-98185501D01*
X122796543Y-98185501D01*
X122954654Y-98185501D01*
X122954657Y-98185501D01*
X123107385Y-98144577D01*
X123157504Y-98115639D01*
X123244316Y-98065520D01*
X123356120Y-97953716D01*
X123356120Y-97953714D01*
X123366328Y-97943507D01*
X123366330Y-97943504D01*
X125734834Y-95575000D01*
X128644357Y-95575000D01*
X128664884Y-95796535D01*
X128664885Y-95796537D01*
X128725769Y-96010523D01*
X128725775Y-96010538D01*
X128824938Y-96209683D01*
X128824943Y-96209691D01*
X128959020Y-96387238D01*
X129123437Y-96537123D01*
X129123439Y-96537125D01*
X129312595Y-96654245D01*
X129312596Y-96654245D01*
X129312599Y-96654247D01*
X129520060Y-96734618D01*
X129738757Y-96775500D01*
X129738759Y-96775500D01*
X129961241Y-96775500D01*
X129961243Y-96775500D01*
X130179940Y-96734618D01*
X130387401Y-96654247D01*
X130576562Y-96537124D01*
X130740981Y-96387236D01*
X130875058Y-96209689D01*
X130900029Y-96159541D01*
X143190300Y-96159541D01*
X143208482Y-96297638D01*
X143220252Y-96387038D01*
X143252218Y-96506337D01*
X143279642Y-96608687D01*
X143367450Y-96820676D01*
X143367457Y-96820690D01*
X143482192Y-97019417D01*
X143621881Y-97201461D01*
X143621889Y-97201470D01*
X143784130Y-97363711D01*
X143784138Y-97363718D01*
X143784139Y-97363719D01*
X143834762Y-97402564D01*
X143966182Y-97503407D01*
X143966185Y-97503408D01*
X143966188Y-97503411D01*
X144164912Y-97618144D01*
X144164917Y-97618146D01*
X144164923Y-97618149D01*
X144256280Y-97655990D01*
X144376913Y-97705958D01*
X144598562Y-97765348D01*
X144826066Y-97795300D01*
X144826073Y-97795300D01*
X146055527Y-97795300D01*
X146055534Y-97795300D01*
X146283038Y-97765348D01*
X146504687Y-97705958D01*
X146716688Y-97618144D01*
X146915412Y-97503411D01*
X147097461Y-97363719D01*
X147097465Y-97363714D01*
X147097470Y-97363711D01*
X147259711Y-97201470D01*
X147259714Y-97201465D01*
X147259719Y-97201461D01*
X147399411Y-97019412D01*
X147514144Y-96820688D01*
X147601958Y-96608687D01*
X147661348Y-96387038D01*
X147691300Y-96159534D01*
X147691300Y-95930066D01*
X147661348Y-95702562D01*
X147601958Y-95480913D01*
X147514144Y-95268912D01*
X147399411Y-95070188D01*
X147399408Y-95070185D01*
X147399407Y-95070182D01*
X147259718Y-94888138D01*
X147259711Y-94888130D01*
X147097470Y-94725889D01*
X147097461Y-94725881D01*
X146915417Y-94586192D01*
X146716690Y-94471457D01*
X146716676Y-94471450D01*
X146504687Y-94383642D01*
X146470568Y-94374500D01*
X146283038Y-94324252D01*
X146245015Y-94319246D01*
X146055541Y-94294300D01*
X146055534Y-94294300D01*
X144826066Y-94294300D01*
X144826058Y-94294300D01*
X144609515Y-94322809D01*
X144598562Y-94324252D01*
X144411032Y-94374500D01*
X144376913Y-94383642D01*
X144376897Y-94383647D01*
X144257569Y-94433074D01*
X144242213Y-94438287D01*
X144179018Y-94455221D01*
X144179017Y-94455221D01*
X144042082Y-94534281D01*
X144034480Y-94541883D01*
X144008809Y-94561580D01*
X143966193Y-94586186D01*
X143966177Y-94586196D01*
X143784138Y-94725881D01*
X143621881Y-94888138D01*
X143482192Y-95070182D01*
X143367457Y-95268909D01*
X143367450Y-95268923D01*
X143279642Y-95480912D01*
X143266287Y-95530755D01*
X143226298Y-95680000D01*
X143220253Y-95702559D01*
X143220251Y-95702570D01*
X143190300Y-95930058D01*
X143190300Y-96159541D01*
X130900029Y-96159541D01*
X130974229Y-96010528D01*
X131035115Y-95796536D01*
X131055643Y-95575000D01*
X131035115Y-95353464D01*
X130974229Y-95139472D01*
X130974224Y-95139461D01*
X130875061Y-94940316D01*
X130875056Y-94940308D01*
X130740979Y-94762761D01*
X130576562Y-94612876D01*
X130576560Y-94612874D01*
X130387404Y-94495754D01*
X130387398Y-94495752D01*
X130179940Y-94415382D01*
X129961243Y-94374500D01*
X129738757Y-94374500D01*
X129520060Y-94415382D01*
X129460936Y-94438287D01*
X129312601Y-94495752D01*
X129312595Y-94495754D01*
X129123439Y-94612874D01*
X129123437Y-94612876D01*
X128959020Y-94762761D01*
X128824943Y-94940308D01*
X128824938Y-94940316D01*
X128725775Y-95139461D01*
X128725769Y-95139476D01*
X128664885Y-95353462D01*
X128664884Y-95353464D01*
X128644357Y-95574999D01*
X128644357Y-95575000D01*
X125734834Y-95575000D01*
X129531119Y-91778714D01*
X129592440Y-91745231D01*
X129641583Y-91744508D01*
X129779557Y-91770300D01*
X129779559Y-91770300D01*
X130002041Y-91770300D01*
X130002043Y-91770300D01*
X130220740Y-91729418D01*
X130428201Y-91649047D01*
X130617362Y-91531924D01*
X130670302Y-91483663D01*
X130733106Y-91453046D01*
X130753840Y-91451300D01*
X143356839Y-91451300D01*
X143423878Y-91470985D01*
X143464226Y-91513300D01*
X143482188Y-91544412D01*
X143621881Y-91726461D01*
X143621889Y-91726470D01*
X143784130Y-91888711D01*
X143784138Y-91888718D01*
X143784139Y-91888719D01*
X143810033Y-91908588D01*
X143966182Y-92028407D01*
X143966185Y-92028408D01*
X143966188Y-92028411D01*
X144164912Y-92143144D01*
X144164917Y-92143146D01*
X144164923Y-92143149D01*
X144256280Y-92180990D01*
X144376913Y-92230958D01*
X144598562Y-92290348D01*
X144826066Y-92320300D01*
X144826073Y-92320300D01*
X146055527Y-92320300D01*
X146055534Y-92320300D01*
X146283038Y-92290348D01*
X146504687Y-92230958D01*
X146716688Y-92143144D01*
X146915412Y-92028411D01*
X147097461Y-91888719D01*
X147097465Y-91888714D01*
X147097470Y-91888711D01*
X147259711Y-91726470D01*
X147259714Y-91726465D01*
X147259719Y-91726461D01*
X147399411Y-91544412D01*
X147514144Y-91345688D01*
X147601958Y-91133687D01*
X147661348Y-90912038D01*
X147691300Y-90684534D01*
X147691300Y-90455066D01*
X147661348Y-90227562D01*
X147601958Y-90005913D01*
X147514144Y-89793912D01*
X147399411Y-89595188D01*
X147399408Y-89595185D01*
X147399407Y-89595182D01*
X147259718Y-89413138D01*
X147259711Y-89413130D01*
X147097470Y-89250889D01*
X147097461Y-89250881D01*
X146915417Y-89111192D01*
X146716690Y-88996457D01*
X146716676Y-88996450D01*
X146504687Y-88908642D01*
X146283038Y-88849252D01*
X146245015Y-88844246D01*
X146055541Y-88819300D01*
X146055534Y-88819300D01*
X144826066Y-88819300D01*
X144826058Y-88819300D01*
X144609515Y-88847809D01*
X144598562Y-88849252D01*
X144504876Y-88874354D01*
X144376912Y-88908642D01*
X144164923Y-88996450D01*
X144164909Y-88996457D01*
X143966182Y-89111192D01*
X143784138Y-89250881D01*
X143621881Y-89413138D01*
X143482188Y-89595187D01*
X143464226Y-89626300D01*
X143413659Y-89674516D01*
X143356839Y-89688300D01*
X130753840Y-89688300D01*
X130686801Y-89668615D01*
X130670302Y-89655937D01*
X130617362Y-89607676D01*
X130617360Y-89607674D01*
X130428204Y-89490554D01*
X130428198Y-89490552D01*
X130220740Y-89410182D01*
X130002043Y-89369300D01*
X129779557Y-89369300D01*
X129560860Y-89410182D01*
X129429664Y-89461007D01*
X129353401Y-89490552D01*
X129353395Y-89490554D01*
X129164239Y-89607674D01*
X129164237Y-89607676D01*
X128999820Y-89757561D01*
X128865743Y-89935108D01*
X128865738Y-89935116D01*
X128766575Y-90134261D01*
X128766569Y-90134276D01*
X128705685Y-90348262D01*
X128705684Y-90348264D01*
X128685157Y-90569799D01*
X128685157Y-90569800D01*
X128705685Y-90791337D01*
X128711070Y-90810263D01*
X128710483Y-90880130D01*
X128679485Y-90931878D01*
X122663184Y-96948181D01*
X122601861Y-96981666D01*
X122575503Y-96984500D01*
X115552115Y-96984500D01*
X115485076Y-96964815D01*
X115439321Y-96912011D01*
X115435933Y-96903833D01*
X115403797Y-96817671D01*
X115403796Y-96817670D01*
X115403796Y-96817669D01*
X115402967Y-96816562D01*
X115402485Y-96815268D01*
X115399546Y-96809886D01*
X115400319Y-96809463D01*
X115378551Y-96751099D01*
X115387675Y-96694798D01*
X115421089Y-96614132D01*
X115421089Y-96614131D01*
X115421091Y-96614127D01*
X115460500Y-96416003D01*
X115460500Y-96213997D01*
X115421091Y-96015873D01*
X115343786Y-95829244D01*
X115290094Y-95748889D01*
X115269217Y-95682214D01*
X115287701Y-95614834D01*
X115290078Y-95611134D01*
X115343786Y-95530756D01*
X115421091Y-95344127D01*
X115460500Y-95146003D01*
X115460500Y-94943997D01*
X115421091Y-94745873D01*
X115343786Y-94559244D01*
X115343784Y-94559241D01*
X115343782Y-94559237D01*
X115231558Y-94391281D01*
X115088718Y-94248441D01*
X114920762Y-94136217D01*
X114920752Y-94136212D01*
X114734127Y-94058909D01*
X114734119Y-94058907D01*
X114536007Y-94019500D01*
X114536003Y-94019500D01*
X113883997Y-94019500D01*
X113883992Y-94019500D01*
X113685880Y-94058907D01*
X113685872Y-94058909D01*
X113499247Y-94136212D01*
X113499237Y-94136217D01*
X113331281Y-94248441D01*
X113188441Y-94391281D01*
X113076217Y-94559237D01*
X113076212Y-94559247D01*
X112998909Y-94745872D01*
X112998907Y-94745880D01*
X112959500Y-94943992D01*
X112959500Y-95146007D01*
X112998907Y-95344119D01*
X112998909Y-95344127D01*
X113076213Y-95530755D01*
X113129904Y-95611109D01*
X113150782Y-95677787D01*
X113132297Y-95745167D01*
X113129904Y-95748891D01*
X113076213Y-95829244D01*
X112998909Y-96015872D01*
X112998907Y-96015880D01*
X112959500Y-96213992D01*
X112959500Y-96416007D01*
X112998907Y-96614119D01*
X112998909Y-96614127D01*
X113032325Y-96694800D01*
X113039794Y-96764270D01*
X113020038Y-96809660D01*
X113020454Y-96809887D01*
X113017919Y-96814528D01*
X113017037Y-96816556D01*
X113016206Y-96817665D01*
X113016202Y-96817672D01*
X112965908Y-96952517D01*
X112959501Y-97012116D01*
X112959500Y-97012135D01*
X112959500Y-98157870D01*
X78738249Y-98157870D01*
X78755743Y-97879805D01*
X78755743Y-97879794D01*
X78735992Y-97565857D01*
X78735991Y-97565850D01*
X78677044Y-97256841D01*
X78579836Y-96957667D01*
X78579834Y-96957662D01*
X78445899Y-96673038D01*
X78445896Y-96673032D01*
X78277342Y-96407432D01*
X78277339Y-96407428D01*
X78186512Y-96297638D01*
X77473458Y-97010692D01*
X77394936Y-96902616D01*
X77227984Y-96735664D01*
X77119906Y-96657140D01*
X77492246Y-96284800D01*
X88680157Y-96284800D01*
X88700684Y-96506335D01*
X88700685Y-96506337D01*
X88761569Y-96720323D01*
X88761575Y-96720338D01*
X88860738Y-96919483D01*
X88860743Y-96919491D01*
X88994820Y-97097038D01*
X89159237Y-97246923D01*
X89159239Y-97246925D01*
X89348395Y-97364045D01*
X89348396Y-97364045D01*
X89348399Y-97364047D01*
X89555860Y-97444418D01*
X89774557Y-97485300D01*
X89774559Y-97485300D01*
X89997041Y-97485300D01*
X89997043Y-97485300D01*
X90215740Y-97444418D01*
X90423201Y-97364047D01*
X90612362Y-97246924D01*
X90776781Y-97097036D01*
X90910858Y-96919489D01*
X91010029Y-96720328D01*
X91070915Y-96506336D01*
X91091443Y-96284800D01*
X91084482Y-96209683D01*
X91070915Y-96063264D01*
X91070914Y-96063262D01*
X91059256Y-96022289D01*
X91010029Y-95849272D01*
X91007810Y-95844815D01*
X90910861Y-95650116D01*
X90910856Y-95650108D01*
X90776779Y-95472561D01*
X90612362Y-95322676D01*
X90612360Y-95322674D01*
X90423204Y-95205554D01*
X90423198Y-95205552D01*
X90215740Y-95125182D01*
X89997043Y-95084300D01*
X89774557Y-95084300D01*
X89555860Y-95125182D01*
X89502105Y-95146007D01*
X89348401Y-95205552D01*
X89348395Y-95205554D01*
X89159239Y-95322674D01*
X89159237Y-95322676D01*
X88994820Y-95472561D01*
X88860743Y-95650108D01*
X88860738Y-95650116D01*
X88761575Y-95849261D01*
X88761569Y-95849276D01*
X88700685Y-96063262D01*
X88700684Y-96063264D01*
X88680157Y-96284799D01*
X88680157Y-96284800D01*
X77492246Y-96284800D01*
X77835827Y-95941219D01*
X77835826Y-95941217D01*
X77593027Y-95764814D01*
X77593009Y-95764803D01*
X77317352Y-95613259D01*
X77317344Y-95613255D01*
X77024873Y-95497459D01*
X76720179Y-95419226D01*
X76720170Y-95419224D01*
X76408098Y-95379800D01*
X76093501Y-95379800D01*
X75781429Y-95419224D01*
X75781420Y-95419226D01*
X75476726Y-95497459D01*
X75184255Y-95613255D01*
X75184247Y-95613259D01*
X74908587Y-95764804D01*
X74908582Y-95764807D01*
X74665772Y-95941218D01*
X74665771Y-95941219D01*
X75381693Y-96657141D01*
X75273616Y-96735664D01*
X75106664Y-96902616D01*
X75028141Y-97010693D01*
X74315086Y-96297638D01*
X74315085Y-96297638D01*
X74224259Y-96407429D01*
X74224257Y-96407432D01*
X74055703Y-96673032D01*
X74055700Y-96673038D01*
X73921765Y-96957662D01*
X73921763Y-96957667D01*
X73824555Y-97256841D01*
X73765608Y-97565850D01*
X73765607Y-97565857D01*
X73745857Y-97879794D01*
X73745857Y-97879805D01*
X38951300Y-97879805D01*
X38951300Y-91839801D01*
X88580332Y-91839801D01*
X88600164Y-92066486D01*
X88600166Y-92066497D01*
X88659058Y-92286288D01*
X88659061Y-92286297D01*
X88755231Y-92492532D01*
X88755232Y-92492534D01*
X88885754Y-92678941D01*
X89046658Y-92839845D01*
X89046661Y-92839847D01*
X89233066Y-92970368D01*
X89439304Y-93066539D01*
X89659108Y-93125435D01*
X89821030Y-93139601D01*
X89885798Y-93145268D01*
X89885800Y-93145268D01*
X89885802Y-93145268D01*
X89942473Y-93140309D01*
X90112492Y-93125435D01*
X90332296Y-93066539D01*
X90538534Y-92970368D01*
X90724939Y-92839847D01*
X90885847Y-92678939D01*
X91016368Y-92492534D01*
X91112539Y-92286296D01*
X91171435Y-92066492D01*
X91191268Y-91839800D01*
X91171435Y-91613108D01*
X91112539Y-91393304D01*
X91016368Y-91187066D01*
X90885847Y-91000661D01*
X90885845Y-91000658D01*
X90724941Y-90839754D01*
X90538534Y-90709232D01*
X90538532Y-90709231D01*
X90332297Y-90613061D01*
X90332288Y-90613058D01*
X90112497Y-90554166D01*
X90112493Y-90554165D01*
X90112492Y-90554165D01*
X90112491Y-90554164D01*
X90112486Y-90554164D01*
X89885802Y-90534332D01*
X89885798Y-90534332D01*
X89659113Y-90554164D01*
X89659102Y-90554166D01*
X89439311Y-90613058D01*
X89439302Y-90613061D01*
X89233067Y-90709231D01*
X89233065Y-90709232D01*
X89046658Y-90839754D01*
X88885754Y-91000658D01*
X88755232Y-91187065D01*
X88755231Y-91187067D01*
X88659061Y-91393302D01*
X88659058Y-91393311D01*
X88600166Y-91613102D01*
X88600164Y-91613113D01*
X88580332Y-91839798D01*
X88580332Y-91839801D01*
X38951300Y-91839801D01*
X38951300Y-87967670D01*
X113400300Y-87967670D01*
X113400301Y-87967676D01*
X113406708Y-88027283D01*
X113457002Y-88162128D01*
X113457006Y-88162135D01*
X113543252Y-88277344D01*
X113543255Y-88277347D01*
X113658464Y-88363593D01*
X113658471Y-88363597D01*
X113793317Y-88413891D01*
X113793316Y-88413891D01*
X113800244Y-88414635D01*
X113852927Y-88420300D01*
X115448672Y-88420299D01*
X115508283Y-88413891D01*
X115643131Y-88363596D01*
X115758346Y-88277346D01*
X115844596Y-88162131D01*
X115894891Y-88027283D01*
X115901300Y-87967673D01*
X115901299Y-86821928D01*
X115894891Y-86762317D01*
X115893952Y-86759800D01*
X115844597Y-86627471D01*
X115844596Y-86627470D01*
X115844596Y-86627469D01*
X115843767Y-86626362D01*
X115843285Y-86625068D01*
X115840346Y-86619686D01*
X115841119Y-86619263D01*
X115819351Y-86560899D01*
X115828475Y-86504598D01*
X115861889Y-86423932D01*
X115861889Y-86423931D01*
X115861891Y-86423927D01*
X115901300Y-86225803D01*
X115901300Y-86023797D01*
X115861891Y-85825673D01*
X115784586Y-85639044D01*
X115730894Y-85558689D01*
X115710017Y-85492014D01*
X115710624Y-85489800D01*
X128685157Y-85489800D01*
X128705684Y-85711335D01*
X128705685Y-85711337D01*
X128766569Y-85925323D01*
X128766575Y-85925338D01*
X128865738Y-86124483D01*
X128865743Y-86124491D01*
X128999820Y-86302038D01*
X129164237Y-86451923D01*
X129164239Y-86451925D01*
X129353395Y-86569045D01*
X129353396Y-86569045D01*
X129353399Y-86569047D01*
X129560860Y-86649418D01*
X129779557Y-86690300D01*
X129779559Y-86690300D01*
X130002041Y-86690300D01*
X130002043Y-86690300D01*
X130220740Y-86649418D01*
X130428201Y-86569047D01*
X130617362Y-86451924D01*
X130781781Y-86302036D01*
X130915858Y-86124489D01*
X131015029Y-85925328D01*
X131075915Y-85711336D01*
X131096443Y-85489800D01*
X131075915Y-85268264D01*
X131015029Y-85054272D01*
X130965999Y-84955807D01*
X130915861Y-84855116D01*
X130915856Y-84855108D01*
X130839349Y-84753797D01*
X130797345Y-84698174D01*
X130772654Y-84632815D01*
X130772300Y-84623449D01*
X130772300Y-80780300D01*
X130791985Y-80713261D01*
X130844789Y-80667506D01*
X130896300Y-80656300D01*
X134020908Y-80656300D01*
X134087947Y-80675985D01*
X134108589Y-80692619D01*
X137245271Y-83829300D01*
X139467694Y-86051723D01*
X139590477Y-86174506D01*
X139734853Y-86270975D01*
X139801303Y-86298499D01*
X139895277Y-86337425D01*
X140065575Y-86371299D01*
X140065579Y-86371300D01*
X140065580Y-86371300D01*
X154107623Y-86371300D01*
X154222193Y-86348509D01*
X154277924Y-86337424D01*
X154371903Y-86298497D01*
X154438343Y-86270977D01*
X154438344Y-86270976D01*
X154438347Y-86270975D01*
X154582724Y-86174506D01*
X158185321Y-82571906D01*
X158246642Y-82538423D01*
X158293410Y-82537281D01*
X158312013Y-82540385D01*
X158341463Y-82545300D01*
X158341465Y-82545300D01*
X158590135Y-82545300D01*
X158835414Y-82504371D01*
X159070610Y-82423628D01*
X159289309Y-82305274D01*
X159485544Y-82152538D01*
X159638378Y-81986515D01*
X159698263Y-81950527D01*
X159729606Y-81946500D01*
X164801542Y-81946500D01*
X164868581Y-81966185D01*
X164914336Y-82018989D01*
X164925542Y-82070500D01*
X164925542Y-82312876D01*
X164931949Y-82372483D01*
X164982243Y-82507328D01*
X164982247Y-82507335D01*
X165068493Y-82622544D01*
X165068496Y-82622547D01*
X165183705Y-82708793D01*
X165183712Y-82708797D01*
X165318558Y-82759091D01*
X165318557Y-82759091D01*
X165325485Y-82759835D01*
X165378168Y-82765500D01*
X167873913Y-82765499D01*
X167933524Y-82759091D01*
X168068372Y-82708796D01*
X168183587Y-82622546D01*
X168269837Y-82507331D01*
X168320132Y-82372483D01*
X168326541Y-82312873D01*
X168326541Y-81065004D01*
X172420773Y-81065004D01*
X172439818Y-81319154D01*
X172481812Y-81503144D01*
X172496533Y-81567637D01*
X172589648Y-81804888D01*
X172717082Y-82025612D01*
X172875991Y-82224877D01*
X173062824Y-82398232D01*
X173190393Y-82485207D01*
X173234694Y-82539233D01*
X173244541Y-82587659D01*
X173244541Y-91404220D01*
X173244541Y-91577862D01*
X173244541Y-91577864D01*
X173244540Y-91577864D01*
X173278415Y-91748159D01*
X173278418Y-91748169D01*
X173344863Y-91908584D01*
X173441336Y-92052967D01*
X173441337Y-92052968D01*
X178463181Y-97074811D01*
X178496666Y-97136134D01*
X178499500Y-97162492D01*
X178499500Y-100165001D01*
X178499501Y-100165018D01*
X178510000Y-100267796D01*
X178510001Y-100267799D01*
X178564897Y-100433462D01*
X178565186Y-100434334D01*
X178657288Y-100583656D01*
X178781344Y-100707712D01*
X178930666Y-100799814D01*
X179097203Y-100854999D01*
X179199991Y-100865500D01*
X182800008Y-100865499D01*
X182902797Y-100854999D01*
X183069334Y-100799814D01*
X183218656Y-100707712D01*
X183342712Y-100583656D01*
X183434814Y-100434334D01*
X183489999Y-100267797D01*
X183500500Y-100165009D01*
X183500499Y-96564992D01*
X183489999Y-96462203D01*
X183434814Y-96295666D01*
X183342712Y-96146344D01*
X183218656Y-96022288D01*
X183125888Y-95965069D01*
X183069336Y-95930187D01*
X183069331Y-95930185D01*
X183067862Y-95929698D01*
X182902797Y-95875001D01*
X182902795Y-95875000D01*
X182800016Y-95864500D01*
X182800009Y-95864500D01*
X179797492Y-95864500D01*
X179730453Y-95844815D01*
X179709811Y-95828181D01*
X175043860Y-91162230D01*
X175010375Y-91100907D01*
X175007541Y-91074549D01*
X175007541Y-82587659D01*
X175027226Y-82520620D01*
X175061687Y-82485207D01*
X175189258Y-82398232D01*
X175376091Y-82224877D01*
X175535000Y-82025612D01*
X175662434Y-81804888D01*
X175755549Y-81567637D01*
X175812263Y-81319157D01*
X175831309Y-81065000D01*
X175829795Y-81044800D01*
X175812263Y-80810845D01*
X175809098Y-80796979D01*
X175755549Y-80562363D01*
X175662434Y-80325112D01*
X175535000Y-80104388D01*
X175376091Y-79905123D01*
X175189258Y-79731768D01*
X174978675Y-79588195D01*
X174978671Y-79588193D01*
X174978668Y-79588191D01*
X174978667Y-79588190D01*
X174749047Y-79477612D01*
X174749049Y-79477612D01*
X174505507Y-79402489D01*
X174505503Y-79402488D01*
X174505499Y-79402487D01*
X174384272Y-79384214D01*
X174253481Y-79364500D01*
X174253476Y-79364500D01*
X173998606Y-79364500D01*
X173998600Y-79364500D01*
X173841650Y-79388157D01*
X173746583Y-79402487D01*
X173746580Y-79402488D01*
X173746574Y-79402489D01*
X173503033Y-79477612D01*
X173273414Y-79588190D01*
X173273413Y-79588191D01*
X173062823Y-79731768D01*
X172875993Y-79905121D01*
X172875991Y-79905123D01*
X172717082Y-80104388D01*
X172589649Y-80325109D01*
X172496533Y-80562362D01*
X172496531Y-80562369D01*
X172439818Y-80810845D01*
X172420773Y-81064995D01*
X172420773Y-81065004D01*
X168326541Y-81065004D01*
X168326540Y-79817128D01*
X168320132Y-79757517D01*
X168310528Y-79731768D01*
X168269838Y-79622671D01*
X168269834Y-79622664D01*
X168183588Y-79507455D01*
X168183585Y-79507452D01*
X168068376Y-79421206D01*
X168068369Y-79421202D01*
X167933523Y-79370908D01*
X167933524Y-79370908D01*
X167873924Y-79364501D01*
X167873922Y-79364500D01*
X167873914Y-79364500D01*
X167873905Y-79364500D01*
X165378170Y-79364500D01*
X165378164Y-79364501D01*
X165318557Y-79370908D01*
X165183712Y-79421202D01*
X165183705Y-79421206D01*
X165068496Y-79507452D01*
X165068493Y-79507455D01*
X164982247Y-79622664D01*
X164982243Y-79622671D01*
X164931949Y-79757517D01*
X164925762Y-79815072D01*
X164925542Y-79817123D01*
X164925541Y-79817135D01*
X164925541Y-80059500D01*
X164905856Y-80126539D01*
X164853052Y-80172294D01*
X164801541Y-80183500D01*
X159762546Y-80183500D01*
X159695507Y-80163815D01*
X159658739Y-80127324D01*
X159658226Y-80126539D01*
X159653964Y-80120015D01*
X159485544Y-79937062D01*
X159289309Y-79784326D01*
X159289307Y-79784325D01*
X159289306Y-79784324D01*
X159070611Y-79665972D01*
X159070602Y-79665969D01*
X158835416Y-79585229D01*
X158590135Y-79544300D01*
X158341465Y-79544300D01*
X158096183Y-79585229D01*
X157860997Y-79665969D01*
X157860988Y-79665972D01*
X157642293Y-79784324D01*
X157446057Y-79937061D01*
X157277633Y-80120017D01*
X157141626Y-80328193D01*
X157041736Y-80555918D01*
X156980692Y-80796975D01*
X156980690Y-80796987D01*
X156960157Y-81044795D01*
X156960157Y-81044805D01*
X156975230Y-81226713D01*
X156961149Y-81295149D01*
X156939335Y-81324634D01*
X153691989Y-84571981D01*
X153630666Y-84605466D01*
X153604308Y-84608300D01*
X140568891Y-84608300D01*
X140501852Y-84588615D01*
X140481210Y-84571981D01*
X134999327Y-79090096D01*
X134999326Y-79090095D01*
X134854943Y-78993622D01*
X134694528Y-78927177D01*
X134694518Y-78927174D01*
X134524223Y-78893300D01*
X134524221Y-78893300D01*
X134524220Y-78893300D01*
X130753840Y-78893300D01*
X130686801Y-78873615D01*
X130670302Y-78860937D01*
X130617362Y-78812676D01*
X130617360Y-78812674D01*
X130428204Y-78695554D01*
X130428198Y-78695552D01*
X130220740Y-78615182D01*
X130002043Y-78574300D01*
X129779557Y-78574300D01*
X129560860Y-78615182D01*
X129429664Y-78666007D01*
X129353401Y-78695552D01*
X129353395Y-78695554D01*
X129164239Y-78812674D01*
X129164237Y-78812676D01*
X128999820Y-78962561D01*
X128865743Y-79140108D01*
X128865738Y-79140116D01*
X128766575Y-79339261D01*
X128766569Y-79339276D01*
X128705685Y-79553262D01*
X128705684Y-79553264D01*
X128685157Y-79774799D01*
X128685157Y-79774800D01*
X128705684Y-79996335D01*
X128705685Y-79996337D01*
X128766569Y-80210323D01*
X128766575Y-80210338D01*
X128865738Y-80409483D01*
X128865743Y-80409491D01*
X128929325Y-80493687D01*
X128981191Y-80562369D01*
X128984254Y-80566424D01*
X129008946Y-80631785D01*
X129009300Y-80641151D01*
X129009300Y-84623449D01*
X128989615Y-84690488D01*
X128984254Y-84698176D01*
X128865743Y-84855108D01*
X128865738Y-84855116D01*
X128766575Y-85054261D01*
X128766569Y-85054276D01*
X128705685Y-85268262D01*
X128705684Y-85268264D01*
X128685157Y-85489799D01*
X128685157Y-85489800D01*
X115710624Y-85489800D01*
X115728501Y-85424634D01*
X115730878Y-85420934D01*
X115784586Y-85340556D01*
X115861891Y-85153927D01*
X115901300Y-84955803D01*
X115901300Y-84753797D01*
X115861891Y-84555673D01*
X115784586Y-84369044D01*
X115784584Y-84369041D01*
X115784582Y-84369037D01*
X115672358Y-84201081D01*
X115529518Y-84058241D01*
X115361562Y-83946017D01*
X115361552Y-83946012D01*
X115174927Y-83868709D01*
X115174919Y-83868707D01*
X114976807Y-83829300D01*
X114976803Y-83829300D01*
X114324797Y-83829300D01*
X114324792Y-83829300D01*
X114126680Y-83868707D01*
X114126672Y-83868709D01*
X113940047Y-83946012D01*
X113940037Y-83946017D01*
X113772081Y-84058241D01*
X113629241Y-84201081D01*
X113517017Y-84369037D01*
X113517012Y-84369047D01*
X113439709Y-84555672D01*
X113439707Y-84555680D01*
X113400300Y-84753792D01*
X113400300Y-84955807D01*
X113439707Y-85153919D01*
X113439709Y-85153927D01*
X113517013Y-85340555D01*
X113570704Y-85420909D01*
X113591582Y-85487587D01*
X113573097Y-85554967D01*
X113570704Y-85558691D01*
X113517013Y-85639044D01*
X113439709Y-85825672D01*
X113439707Y-85825680D01*
X113400300Y-86023792D01*
X113400300Y-86225807D01*
X113439707Y-86423919D01*
X113439709Y-86423927D01*
X113473125Y-86504600D01*
X113480594Y-86574070D01*
X113460838Y-86619460D01*
X113461254Y-86619687D01*
X113458719Y-86624328D01*
X113457837Y-86626356D01*
X113457006Y-86627465D01*
X113457002Y-86627472D01*
X113406708Y-86762317D01*
X113400301Y-86821916D01*
X113400301Y-86821923D01*
X113400300Y-86821935D01*
X113400300Y-87967670D01*
X38951300Y-87967670D01*
X38951300Y-86759800D01*
X96935157Y-86759800D01*
X96955684Y-86981335D01*
X96955685Y-86981337D01*
X97016569Y-87195323D01*
X97016575Y-87195338D01*
X97115738Y-87394483D01*
X97115743Y-87394491D01*
X97249820Y-87572038D01*
X97414237Y-87721923D01*
X97414239Y-87721925D01*
X97603395Y-87839045D01*
X97603396Y-87839045D01*
X97603399Y-87839047D01*
X97810860Y-87919418D01*
X98029557Y-87960300D01*
X98029559Y-87960300D01*
X98252041Y-87960300D01*
X98252043Y-87960300D01*
X98470740Y-87919418D01*
X98678201Y-87839047D01*
X98867362Y-87721924D01*
X99031781Y-87572036D01*
X99165858Y-87394489D01*
X99265029Y-87195328D01*
X99325915Y-86981336D01*
X99346443Y-86759800D01*
X102015157Y-86759800D01*
X102035684Y-86981335D01*
X102035685Y-86981337D01*
X102096569Y-87195323D01*
X102096575Y-87195338D01*
X102195738Y-87394483D01*
X102195743Y-87394491D01*
X102329820Y-87572038D01*
X102494237Y-87721923D01*
X102494239Y-87721925D01*
X102683395Y-87839045D01*
X102683396Y-87839045D01*
X102683399Y-87839047D01*
X102890860Y-87919418D01*
X103109557Y-87960300D01*
X103109559Y-87960300D01*
X103332041Y-87960300D01*
X103332043Y-87960300D01*
X103550740Y-87919418D01*
X103758201Y-87839047D01*
X103947362Y-87721924D01*
X104111781Y-87572036D01*
X104245858Y-87394489D01*
X104345029Y-87195328D01*
X104405915Y-86981336D01*
X104426443Y-86759800D01*
X104405915Y-86538264D01*
X104345029Y-86324272D01*
X104333957Y-86302036D01*
X104245861Y-86125116D01*
X104245856Y-86125108D01*
X104111779Y-85947561D01*
X103947362Y-85797676D01*
X103947360Y-85797674D01*
X103758204Y-85680554D01*
X103758198Y-85680552D01*
X103550740Y-85600182D01*
X103332043Y-85559300D01*
X103109557Y-85559300D01*
X102890860Y-85600182D01*
X102790546Y-85639044D01*
X102683401Y-85680552D01*
X102683395Y-85680554D01*
X102494239Y-85797674D01*
X102494237Y-85797676D01*
X102329820Y-85947561D01*
X102195743Y-86125108D01*
X102195738Y-86125116D01*
X102096575Y-86324261D01*
X102096569Y-86324276D01*
X102035685Y-86538262D01*
X102035684Y-86538264D01*
X102015157Y-86759799D01*
X102015157Y-86759800D01*
X99346443Y-86759800D01*
X99325915Y-86538264D01*
X99265029Y-86324272D01*
X99253957Y-86302036D01*
X99165861Y-86125116D01*
X99165856Y-86125108D01*
X99031779Y-85947561D01*
X98867362Y-85797676D01*
X98867360Y-85797674D01*
X98678204Y-85680554D01*
X98678198Y-85680552D01*
X98470740Y-85600182D01*
X98252043Y-85559300D01*
X98029557Y-85559300D01*
X97810860Y-85600182D01*
X97710546Y-85639044D01*
X97603401Y-85680552D01*
X97603395Y-85680554D01*
X97414239Y-85797674D01*
X97414237Y-85797676D01*
X97249820Y-85947561D01*
X97115743Y-86125108D01*
X97115738Y-86125116D01*
X97016575Y-86324261D01*
X97016569Y-86324276D01*
X96955685Y-86538262D01*
X96955684Y-86538264D01*
X96935157Y-86759799D01*
X96935157Y-86759800D01*
X38951300Y-86759800D01*
X38951300Y-85067670D01*
X88585300Y-85067670D01*
X88585301Y-85067676D01*
X88591708Y-85127283D01*
X88642002Y-85262128D01*
X88642006Y-85262135D01*
X88728252Y-85377344D01*
X88728255Y-85377347D01*
X88843464Y-85463593D01*
X88843471Y-85463597D01*
X88978317Y-85513891D01*
X88978316Y-85513891D01*
X88985244Y-85514635D01*
X89037927Y-85520300D01*
X90733672Y-85520299D01*
X90793283Y-85513891D01*
X90928131Y-85463596D01*
X91043346Y-85377346D01*
X91129596Y-85262131D01*
X91179891Y-85127283D01*
X91186300Y-85067673D01*
X91186299Y-83371928D01*
X91179891Y-83312317D01*
X91129596Y-83177469D01*
X91129595Y-83177468D01*
X91129593Y-83177464D01*
X91043347Y-83062255D01*
X91043344Y-83062252D01*
X90928135Y-82976006D01*
X90928128Y-82976002D01*
X90793282Y-82925708D01*
X90793283Y-82925708D01*
X90733683Y-82919301D01*
X90733681Y-82919300D01*
X90733673Y-82919300D01*
X90733664Y-82919300D01*
X89037929Y-82919300D01*
X89037923Y-82919301D01*
X88978316Y-82925708D01*
X88843471Y-82976002D01*
X88843464Y-82976006D01*
X88728255Y-83062252D01*
X88728252Y-83062255D01*
X88642006Y-83177464D01*
X88642002Y-83177471D01*
X88591708Y-83312317D01*
X88585301Y-83371916D01*
X88585301Y-83371923D01*
X88585300Y-83371935D01*
X88585300Y-85067670D01*
X38951300Y-85067670D01*
X38951300Y-81044800D01*
X71535157Y-81044800D01*
X71555684Y-81266335D01*
X71555685Y-81266337D01*
X71616569Y-81480323D01*
X71616575Y-81480338D01*
X71715738Y-81679483D01*
X71715743Y-81679491D01*
X71849820Y-81857038D01*
X72014237Y-82006923D01*
X72014239Y-82006925D01*
X72203395Y-82124045D01*
X72203396Y-82124045D01*
X72203399Y-82124047D01*
X72410860Y-82204418D01*
X72629557Y-82245300D01*
X72629559Y-82245300D01*
X72852041Y-82245300D01*
X72852043Y-82245300D01*
X73070740Y-82204418D01*
X73278201Y-82124047D01*
X73467362Y-82006924D01*
X73631781Y-81857036D01*
X73765858Y-81679489D01*
X73865029Y-81480328D01*
X73917816Y-81294800D01*
X76644305Y-81294800D01*
X76697039Y-81480149D01*
X76796168Y-81679225D01*
X76930191Y-81856700D01*
X77094538Y-82006521D01*
X77283620Y-82123597D01*
X77283622Y-82123598D01*
X77490995Y-82203935D01*
X77570800Y-82218852D01*
X77570800Y-81294800D01*
X76644305Y-81294800D01*
X73917816Y-81294800D01*
X73925915Y-81266336D01*
X73942173Y-81090878D01*
X77470800Y-81090878D01*
X77494652Y-81179895D01*
X77540730Y-81259705D01*
X77605895Y-81324870D01*
X77685705Y-81370948D01*
X77774722Y-81394800D01*
X77866878Y-81394800D01*
X77955895Y-81370948D01*
X78035705Y-81324870D01*
X78065775Y-81294800D01*
X78070800Y-81294800D01*
X78070800Y-82218852D01*
X78150604Y-82203935D01*
X78357977Y-82123598D01*
X78357979Y-82123597D01*
X78547061Y-82006521D01*
X78711408Y-81856700D01*
X78845431Y-81679225D01*
X78944560Y-81480149D01*
X78997295Y-81294800D01*
X78070800Y-81294800D01*
X78065775Y-81294800D01*
X78100870Y-81259705D01*
X78146948Y-81179895D01*
X78170800Y-81090878D01*
X78170800Y-80998722D01*
X78146948Y-80909705D01*
X78100870Y-80829895D01*
X78035705Y-80764730D01*
X77955895Y-80718652D01*
X77866878Y-80694800D01*
X77774722Y-80694800D01*
X77685705Y-80718652D01*
X77605895Y-80764730D01*
X77540730Y-80829895D01*
X77494652Y-80909705D01*
X77470800Y-80998722D01*
X77470800Y-81090878D01*
X73942173Y-81090878D01*
X73946443Y-81044800D01*
X73925915Y-80823264D01*
X73917816Y-80794800D01*
X76644305Y-80794800D01*
X77570800Y-80794800D01*
X77570800Y-79870746D01*
X78070800Y-79870746D01*
X78070800Y-80794800D01*
X78997295Y-80794800D01*
X78944560Y-80609450D01*
X78845431Y-80410374D01*
X78711408Y-80232899D01*
X78547061Y-80083078D01*
X78357979Y-79966002D01*
X78357977Y-79966001D01*
X78150599Y-79885664D01*
X78070800Y-79870746D01*
X77570800Y-79870746D01*
X77491000Y-79885664D01*
X77283622Y-79966001D01*
X77283620Y-79966002D01*
X77094538Y-80083078D01*
X76930191Y-80232899D01*
X76796168Y-80410374D01*
X76697039Y-80609450D01*
X76644305Y-80794800D01*
X73917816Y-80794800D01*
X73865029Y-80609272D01*
X73865024Y-80609261D01*
X73765861Y-80410116D01*
X73765856Y-80410108D01*
X73631779Y-80232561D01*
X73467362Y-80082676D01*
X73467360Y-80082674D01*
X73278204Y-79965554D01*
X73278198Y-79965552D01*
X73070740Y-79885182D01*
X72852043Y-79844300D01*
X72629557Y-79844300D01*
X72410860Y-79885182D01*
X72279664Y-79936007D01*
X72203401Y-79965552D01*
X72203395Y-79965554D01*
X72014239Y-80082674D01*
X72014237Y-80082676D01*
X71849820Y-80232561D01*
X71715743Y-80410108D01*
X71715738Y-80410116D01*
X71616575Y-80609261D01*
X71616569Y-80609276D01*
X71555685Y-80823262D01*
X71555684Y-80823264D01*
X71535157Y-81044799D01*
X71535157Y-81044800D01*
X38951300Y-81044800D01*
X38951300Y-79114401D01*
X88605732Y-79114401D01*
X88625564Y-79341086D01*
X88625566Y-79341097D01*
X88684458Y-79560888D01*
X88684461Y-79560897D01*
X88780631Y-79767132D01*
X88780632Y-79767134D01*
X88911154Y-79953541D01*
X89072058Y-80114445D01*
X89072061Y-80114447D01*
X89258466Y-80244968D01*
X89464704Y-80341139D01*
X89684508Y-80400035D01*
X89846430Y-80414201D01*
X89911198Y-80419868D01*
X89911200Y-80419868D01*
X89911202Y-80419868D01*
X89967873Y-80414909D01*
X90137892Y-80400035D01*
X90357696Y-80341139D01*
X90563934Y-80244968D01*
X90750339Y-80114447D01*
X90911247Y-79953539D01*
X91041768Y-79767134D01*
X91137939Y-79560896D01*
X91196835Y-79341092D01*
X91216668Y-79114400D01*
X91214541Y-79090094D01*
X91207707Y-79011981D01*
X91196835Y-78887708D01*
X91145348Y-78695554D01*
X91137941Y-78667911D01*
X91137938Y-78667902D01*
X91111352Y-78610889D01*
X91041768Y-78461666D01*
X90911247Y-78275261D01*
X90911245Y-78275258D01*
X90750341Y-78114354D01*
X90563934Y-77983832D01*
X90563932Y-77983831D01*
X90357697Y-77887661D01*
X90357688Y-77887658D01*
X90137897Y-77828766D01*
X90137893Y-77828765D01*
X90137892Y-77828765D01*
X90137891Y-77828764D01*
X90137886Y-77828764D01*
X89911202Y-77808932D01*
X89911198Y-77808932D01*
X89684513Y-77828764D01*
X89684502Y-77828766D01*
X89464711Y-77887658D01*
X89464702Y-77887661D01*
X89258467Y-77983831D01*
X89258465Y-77983832D01*
X89072058Y-78114354D01*
X88911154Y-78275258D01*
X88780632Y-78461665D01*
X88780631Y-78461667D01*
X88684461Y-78667902D01*
X88684458Y-78667911D01*
X88625566Y-78887702D01*
X88625564Y-78887713D01*
X88605732Y-79114398D01*
X88605732Y-79114401D01*
X38951300Y-79114401D01*
X38951300Y-75342670D01*
X48780300Y-75342670D01*
X48780301Y-75342676D01*
X48786708Y-75402283D01*
X48837002Y-75537128D01*
X48837006Y-75537135D01*
X48923252Y-75652344D01*
X48923255Y-75652347D01*
X49038464Y-75738593D01*
X49038471Y-75738597D01*
X49173317Y-75788891D01*
X49173316Y-75788891D01*
X49180244Y-75789635D01*
X49232927Y-75795300D01*
X50528672Y-75795299D01*
X50588283Y-75788891D01*
X50671578Y-75757824D01*
X50723129Y-75738597D01*
X50723129Y-75738596D01*
X50723131Y-75738596D01*
X50772321Y-75701771D01*
X50837782Y-75677354D01*
X50891422Y-75685410D01*
X51078344Y-75757824D01*
X51278824Y-75795300D01*
X51278826Y-75795300D01*
X51482774Y-75795300D01*
X51482776Y-75795300D01*
X51683256Y-75757824D01*
X51873437Y-75684148D01*
X52046841Y-75576781D01*
X52197564Y-75439379D01*
X52320473Y-75276621D01*
X52411382Y-75094050D01*
X52467197Y-74897883D01*
X52486015Y-74694800D01*
X56930157Y-74694800D01*
X56950684Y-74916335D01*
X56950685Y-74916337D01*
X57011569Y-75130323D01*
X57011575Y-75130338D01*
X57110738Y-75329483D01*
X57110743Y-75329491D01*
X57244820Y-75507038D01*
X57409237Y-75656923D01*
X57409239Y-75656925D01*
X57598395Y-75774045D01*
X57598396Y-75774045D01*
X57598399Y-75774047D01*
X57805860Y-75854418D01*
X58024557Y-75895300D01*
X58024559Y-75895300D01*
X58247041Y-75895300D01*
X58247043Y-75895300D01*
X58465740Y-75854418D01*
X58673201Y-75774047D01*
X58862362Y-75656924D01*
X59026781Y-75507036D01*
X59160858Y-75329489D01*
X59260029Y-75130328D01*
X59320915Y-74916336D01*
X59341443Y-74694800D01*
X62010157Y-74694800D01*
X62030684Y-74916335D01*
X62030685Y-74916337D01*
X62091569Y-75130323D01*
X62091575Y-75130338D01*
X62190738Y-75329483D01*
X62190743Y-75329491D01*
X62324820Y-75507038D01*
X62489237Y-75656923D01*
X62489239Y-75656925D01*
X62678395Y-75774045D01*
X62678396Y-75774045D01*
X62678399Y-75774047D01*
X62885860Y-75854418D01*
X63104557Y-75895300D01*
X63104559Y-75895300D01*
X63327041Y-75895300D01*
X63327043Y-75895300D01*
X63545740Y-75854418D01*
X63753201Y-75774047D01*
X63942362Y-75656924D01*
X64106781Y-75507036D01*
X64240858Y-75329489D01*
X64340029Y-75130328D01*
X64400915Y-74916336D01*
X64421443Y-74694800D01*
X64421199Y-74692172D01*
X64415420Y-74629804D01*
X68605616Y-74629804D01*
X68624324Y-74879463D01*
X68624325Y-74879468D01*
X68680036Y-75123555D01*
X68680038Y-75123564D01*
X68680040Y-75123569D01*
X68771511Y-75356635D01*
X68896698Y-75573465D01*
X69022781Y-75731568D01*
X69052806Y-75769218D01*
X69208210Y-75913411D01*
X69236340Y-75939512D01*
X69443208Y-76080552D01*
X69443213Y-76080554D01*
X69443214Y-76080555D01*
X69443215Y-76080556D01*
X69516727Y-76115957D01*
X69668783Y-76189183D01*
X69668784Y-76189183D01*
X69668787Y-76189185D01*
X69908036Y-76262984D01*
X69908037Y-76262984D01*
X69908040Y-76262985D01*
X70155605Y-76300299D01*
X70155610Y-76300299D01*
X70155613Y-76300300D01*
X70155614Y-76300300D01*
X70405986Y-76300300D01*
X70405987Y-76300300D01*
X70405994Y-76300299D01*
X70653559Y-76262985D01*
X70653560Y-76262984D01*
X70653564Y-76262984D01*
X70892813Y-76189185D01*
X71118392Y-76080552D01*
X71325260Y-75939512D01*
X71487590Y-75788891D01*
X71508793Y-75769218D01*
X71508793Y-75769216D01*
X71508797Y-75769214D01*
X71664902Y-75573465D01*
X71790089Y-75356635D01*
X71881560Y-75123569D01*
X71937274Y-74879473D01*
X71937275Y-74879463D01*
X71955984Y-74629804D01*
X71955984Y-74629795D01*
X71937275Y-74380136D01*
X71937274Y-74380131D01*
X71937274Y-74380127D01*
X71881560Y-74136031D01*
X71790089Y-73902965D01*
X71664902Y-73686135D01*
X71508797Y-73490386D01*
X71508796Y-73490385D01*
X71508793Y-73490381D01*
X71325260Y-73320088D01*
X71281710Y-73290396D01*
X71118392Y-73179048D01*
X71118388Y-73179046D01*
X71118385Y-73179044D01*
X71118384Y-73179043D01*
X70899834Y-73073796D01*
X70892815Y-73070416D01*
X70892817Y-73070416D01*
X70653565Y-72996616D01*
X70653559Y-72996614D01*
X70405994Y-72959300D01*
X70405987Y-72959300D01*
X70155613Y-72959300D01*
X70155605Y-72959300D01*
X69908040Y-72996614D01*
X69908034Y-72996616D01*
X69668783Y-73070416D01*
X69443215Y-73179043D01*
X69443214Y-73179044D01*
X69236339Y-73320088D01*
X69052806Y-73490381D01*
X68896698Y-73686135D01*
X68771511Y-73902964D01*
X68680042Y-74136025D01*
X68680036Y-74136044D01*
X68624325Y-74380131D01*
X68624324Y-74380136D01*
X68605616Y-74629795D01*
X68605616Y-74629804D01*
X64415420Y-74629804D01*
X64400915Y-74473264D01*
X64400914Y-74473262D01*
X64396817Y-74458863D01*
X64340029Y-74259272D01*
X64332427Y-74244005D01*
X64240861Y-74060116D01*
X64240856Y-74060108D01*
X64106779Y-73882561D01*
X63942362Y-73732676D01*
X63942360Y-73732674D01*
X63753204Y-73615554D01*
X63753198Y-73615552D01*
X63722336Y-73603596D01*
X63545740Y-73535182D01*
X63327043Y-73494300D01*
X63104557Y-73494300D01*
X62885860Y-73535182D01*
X62769875Y-73580115D01*
X62678401Y-73615552D01*
X62678395Y-73615554D01*
X62489239Y-73732674D01*
X62489237Y-73732676D01*
X62324820Y-73882561D01*
X62190743Y-74060108D01*
X62190738Y-74060116D01*
X62091575Y-74259261D01*
X62091569Y-74259276D01*
X62030685Y-74473262D01*
X62030684Y-74473264D01*
X62010157Y-74694799D01*
X62010157Y-74694800D01*
X59341443Y-74694800D01*
X59341199Y-74692172D01*
X59320915Y-74473264D01*
X59320914Y-74473262D01*
X59316817Y-74458863D01*
X59260029Y-74259272D01*
X59252427Y-74244005D01*
X59160861Y-74060116D01*
X59160856Y-74060108D01*
X59026779Y-73882561D01*
X58862362Y-73732676D01*
X58862360Y-73732674D01*
X58673204Y-73615554D01*
X58673198Y-73615552D01*
X58642336Y-73603596D01*
X58465740Y-73535182D01*
X58247043Y-73494300D01*
X58024557Y-73494300D01*
X57805860Y-73535182D01*
X57689875Y-73580115D01*
X57598401Y-73615552D01*
X57598395Y-73615554D01*
X57409239Y-73732674D01*
X57409237Y-73732676D01*
X57244820Y-73882561D01*
X57110743Y-74060108D01*
X57110738Y-74060116D01*
X57011575Y-74259261D01*
X57011569Y-74259276D01*
X56950685Y-74473262D01*
X56950684Y-74473264D01*
X56930157Y-74694799D01*
X56930157Y-74694800D01*
X52486015Y-74694800D01*
X52485771Y-74692172D01*
X52467197Y-74491717D01*
X52457849Y-74458863D01*
X52411382Y-74295550D01*
X52393312Y-74259261D01*
X52331948Y-74136025D01*
X52320473Y-74112979D01*
X52243032Y-74010430D01*
X52197562Y-73950218D01*
X52046841Y-73812819D01*
X52046839Y-73812817D01*
X51873442Y-73705455D01*
X51873435Y-73705451D01*
X51758011Y-73660736D01*
X51683256Y-73631776D01*
X51482776Y-73594300D01*
X51278824Y-73594300D01*
X51078344Y-73631776D01*
X51078341Y-73631776D01*
X51078341Y-73631777D01*
X50891426Y-73704188D01*
X50821802Y-73710050D01*
X50772321Y-73687827D01*
X50723135Y-73651006D01*
X50723128Y-73651002D01*
X50588282Y-73600708D01*
X50588283Y-73600708D01*
X50528683Y-73594301D01*
X50528681Y-73594300D01*
X50528673Y-73594300D01*
X50528664Y-73594300D01*
X49232929Y-73594300D01*
X49232923Y-73594301D01*
X49173316Y-73600708D01*
X49038471Y-73651002D01*
X49038464Y-73651006D01*
X48923255Y-73737252D01*
X48923252Y-73737255D01*
X48837006Y-73852464D01*
X48837002Y-73852471D01*
X48786708Y-73987317D01*
X48780301Y-74046916D01*
X48780300Y-74046935D01*
X48780300Y-75342670D01*
X38951300Y-75342670D01*
X38951300Y-72129804D01*
X78606117Y-72129804D01*
X78624821Y-72379397D01*
X78624821Y-72379399D01*
X78680514Y-72623407D01*
X78680520Y-72623426D01*
X78771963Y-72856418D01*
X78897111Y-73073181D01*
X78897118Y-73073192D01*
X78935599Y-73121445D01*
X78935600Y-73121445D01*
X79679758Y-72377287D01*
X79704778Y-72437690D01*
X79775912Y-72544151D01*
X79866449Y-72634688D01*
X79972910Y-72705822D01*
X80033311Y-72730841D01*
X79289203Y-73474948D01*
X79443458Y-73580117D01*
X79443466Y-73580122D01*
X79668967Y-73688716D01*
X79668965Y-73688716D01*
X79908146Y-73762494D01*
X79908152Y-73762496D01*
X80155643Y-73799799D01*
X80155652Y-73799800D01*
X80405948Y-73799800D01*
X80405956Y-73799799D01*
X80653447Y-73762496D01*
X80653453Y-73762494D01*
X80892633Y-73688716D01*
X81118134Y-73580122D01*
X81118144Y-73580115D01*
X81272395Y-73474948D01*
X80528289Y-72730841D01*
X80588690Y-72705822D01*
X80695151Y-72634688D01*
X80785688Y-72544151D01*
X80856822Y-72437690D01*
X80881841Y-72377288D01*
X81625997Y-73121445D01*
X81625998Y-73121444D01*
X81664490Y-73073179D01*
X81769782Y-72890807D01*
X99155300Y-72890807D01*
X99194707Y-73088919D01*
X99194710Y-73088931D01*
X99228347Y-73170138D01*
X99235816Y-73239607D01*
X99216205Y-73284664D01*
X99216695Y-73284932D01*
X99213710Y-73290396D01*
X99213060Y-73291892D01*
X99212446Y-73292711D01*
X99212445Y-73292713D01*
X99162203Y-73427420D01*
X99162201Y-73427427D01*
X99155800Y-73486955D01*
X99155800Y-73809800D01*
X100039934Y-73809800D01*
X100064126Y-73812183D01*
X100066923Y-73812739D01*
X100079795Y-73815299D01*
X100079796Y-73815300D01*
X100079797Y-73815300D01*
X100119970Y-73815300D01*
X100105725Y-73829545D01*
X100056356Y-73915055D01*
X100030800Y-74010430D01*
X100030800Y-74109170D01*
X100056356Y-74204545D01*
X100105725Y-74290055D01*
X100125470Y-74309800D01*
X99155800Y-74309800D01*
X99155800Y-74632644D01*
X99162201Y-74692172D01*
X99162203Y-74692179D01*
X99212445Y-74826886D01*
X99212449Y-74826893D01*
X99298609Y-74941987D01*
X99298612Y-74941990D01*
X99413706Y-75028150D01*
X99413713Y-75028154D01*
X99548420Y-75078396D01*
X99548427Y-75078398D01*
X99607955Y-75084799D01*
X99607972Y-75084800D01*
X100155800Y-75084800D01*
X100155800Y-74340130D01*
X100175545Y-74359875D01*
X100261055Y-74409244D01*
X100356430Y-74434800D01*
X100455170Y-74434800D01*
X100550545Y-74409244D01*
X100636055Y-74359875D01*
X100655800Y-74340130D01*
X100655800Y-75084800D01*
X101203628Y-75084800D01*
X101203644Y-75084799D01*
X101263172Y-75078398D01*
X101263179Y-75078396D01*
X101397886Y-75028154D01*
X101397893Y-75028150D01*
X101443458Y-74994040D01*
X108990111Y-74994040D01*
X109078385Y-75048697D01*
X109268478Y-75122339D01*
X109468872Y-75159800D01*
X109672728Y-75159800D01*
X109873122Y-75122339D01*
X110063212Y-75048699D01*
X110063216Y-75048697D01*
X110151486Y-74994041D01*
X110151486Y-74994040D01*
X109852247Y-74694800D01*
X128685157Y-74694800D01*
X128705684Y-74916335D01*
X128705685Y-74916337D01*
X128766569Y-75130323D01*
X128766575Y-75130338D01*
X128865738Y-75329483D01*
X128865743Y-75329491D01*
X128999820Y-75507038D01*
X129164237Y-75656923D01*
X129164239Y-75656925D01*
X129353395Y-75774045D01*
X129353396Y-75774045D01*
X129353399Y-75774047D01*
X129560860Y-75854418D01*
X129779557Y-75895300D01*
X129779559Y-75895300D01*
X130002041Y-75895300D01*
X130002043Y-75895300D01*
X130220740Y-75854418D01*
X130428201Y-75774047D01*
X130617362Y-75656924D01*
X130665962Y-75612619D01*
X130670302Y-75608663D01*
X130733106Y-75578046D01*
X130753840Y-75576300D01*
X134554308Y-75576300D01*
X134621347Y-75595985D01*
X134641989Y-75612619D01*
X139643872Y-80614503D01*
X139643873Y-80614504D01*
X139788256Y-80710977D01*
X139948671Y-80777422D01*
X139948676Y-80777424D01*
X139948680Y-80777424D01*
X139948681Y-80777425D01*
X140118976Y-80811300D01*
X140118979Y-80811300D01*
X140118980Y-80811300D01*
X141776839Y-80811300D01*
X141843878Y-80830985D01*
X141884226Y-80873300D01*
X141902188Y-80904412D01*
X142041881Y-81086461D01*
X142041889Y-81086470D01*
X142204130Y-81248711D01*
X142204138Y-81248718D01*
X142204139Y-81248719D01*
X142227098Y-81266336D01*
X142386182Y-81388407D01*
X142386185Y-81388408D01*
X142386188Y-81388411D01*
X142584912Y-81503144D01*
X142584917Y-81503146D01*
X142584923Y-81503149D01*
X142676280Y-81540990D01*
X142796913Y-81590958D01*
X143018562Y-81650348D01*
X143246066Y-81680300D01*
X143246073Y-81680300D01*
X144475527Y-81680300D01*
X144475534Y-81680300D01*
X144703038Y-81650348D01*
X144924687Y-81590958D01*
X145136688Y-81503144D01*
X145335412Y-81388411D01*
X145517461Y-81248719D01*
X145517465Y-81248714D01*
X145517470Y-81248711D01*
X145679711Y-81086470D01*
X145679714Y-81086465D01*
X145679719Y-81086461D01*
X145819411Y-80904412D01*
X145934144Y-80705688D01*
X146021958Y-80493687D01*
X146081348Y-80272038D01*
X146111300Y-80044534D01*
X146111300Y-79815066D01*
X146081348Y-79587562D01*
X146021958Y-79365913D01*
X145934144Y-79153912D01*
X145819411Y-78955188D01*
X145819408Y-78955185D01*
X145819407Y-78955182D01*
X145679718Y-78773138D01*
X145679711Y-78773130D01*
X145517470Y-78610889D01*
X145517461Y-78610881D01*
X145335417Y-78471192D01*
X145318917Y-78461666D01*
X145136688Y-78356456D01*
X145136676Y-78356450D01*
X144924687Y-78268642D01*
X144703038Y-78209252D01*
X144665015Y-78204246D01*
X144475541Y-78179300D01*
X144475534Y-78179300D01*
X143246066Y-78179300D01*
X143246058Y-78179300D01*
X143029515Y-78207809D01*
X143018562Y-78209252D01*
X142924876Y-78234354D01*
X142796912Y-78268642D01*
X142584923Y-78356450D01*
X142584909Y-78356457D01*
X142386182Y-78471192D01*
X142204138Y-78610881D01*
X142041881Y-78773138D01*
X141902188Y-78955187D01*
X141884226Y-78986300D01*
X141833659Y-79034516D01*
X141776839Y-79048300D01*
X140622292Y-79048300D01*
X140555253Y-79028615D01*
X140534611Y-79011981D01*
X136092172Y-74569541D01*
X141610300Y-74569541D01*
X141626792Y-74694800D01*
X141640252Y-74797038D01*
X141672218Y-74916337D01*
X141699642Y-75018687D01*
X141787450Y-75230676D01*
X141787457Y-75230690D01*
X141902192Y-75429417D01*
X142041881Y-75611461D01*
X142041889Y-75611470D01*
X142204130Y-75773711D01*
X142204138Y-75773718D01*
X142204139Y-75773719D01*
X142232264Y-75795300D01*
X142386182Y-75913407D01*
X142386185Y-75913408D01*
X142386188Y-75913411D01*
X142584912Y-76028144D01*
X142584917Y-76028146D01*
X142584923Y-76028149D01*
X142676280Y-76065990D01*
X142796913Y-76115958D01*
X143018562Y-76175348D01*
X143246066Y-76205300D01*
X143246073Y-76205300D01*
X144475527Y-76205300D01*
X144475534Y-76205300D01*
X144703038Y-76175348D01*
X144924687Y-76115958D01*
X145136688Y-76028144D01*
X145335412Y-75913411D01*
X145517461Y-75773719D01*
X145517465Y-75773714D01*
X145517470Y-75773711D01*
X145679711Y-75611470D01*
X145679714Y-75611465D01*
X145679719Y-75611461D01*
X145819411Y-75429412D01*
X145934144Y-75230688D01*
X146021958Y-75018687D01*
X146081348Y-74797038D01*
X146111300Y-74569534D01*
X146111300Y-74340066D01*
X146081348Y-74112562D01*
X146021958Y-73890913D01*
X145945139Y-73705455D01*
X145934149Y-73678923D01*
X145934146Y-73678917D01*
X145934144Y-73678912D01*
X145819411Y-73480188D01*
X145819408Y-73480185D01*
X145819407Y-73480182D01*
X145679718Y-73298138D01*
X145679711Y-73298130D01*
X145517470Y-73135889D01*
X145517461Y-73135881D01*
X145335417Y-72996192D01*
X145136690Y-72881457D01*
X145136676Y-72881450D01*
X144924687Y-72793642D01*
X144873027Y-72779800D01*
X144703038Y-72734252D01*
X144665015Y-72729246D01*
X144475541Y-72704300D01*
X144475534Y-72704300D01*
X143246066Y-72704300D01*
X143246058Y-72704300D01*
X143029515Y-72732809D01*
X143018562Y-72734252D01*
X142941797Y-72754821D01*
X142796912Y-72793642D01*
X142584923Y-72881450D01*
X142584909Y-72881457D01*
X142386182Y-72996192D01*
X142204138Y-73135881D01*
X142041881Y-73298138D01*
X141902192Y-73480182D01*
X141787457Y-73678909D01*
X141787450Y-73678923D01*
X141699642Y-73890912D01*
X141640253Y-74112559D01*
X141640251Y-74112570D01*
X141610300Y-74340058D01*
X141610300Y-74569541D01*
X136092172Y-74569541D01*
X135532727Y-74010096D01*
X135532726Y-74010095D01*
X135388343Y-73913622D01*
X135227928Y-73847177D01*
X135227918Y-73847174D01*
X135057623Y-73813300D01*
X135057621Y-73813300D01*
X135057620Y-73813300D01*
X130753840Y-73813300D01*
X130686801Y-73793615D01*
X130670302Y-73780937D01*
X130617362Y-73732676D01*
X130617360Y-73732674D01*
X130428204Y-73615554D01*
X130428198Y-73615552D01*
X130397336Y-73603596D01*
X130220740Y-73535182D01*
X130002043Y-73494300D01*
X129779557Y-73494300D01*
X129560860Y-73535182D01*
X129444875Y-73580115D01*
X129353401Y-73615552D01*
X129353395Y-73615554D01*
X129164239Y-73732674D01*
X129164237Y-73732676D01*
X128999820Y-73882561D01*
X128865743Y-74060108D01*
X128865738Y-74060116D01*
X128766575Y-74259261D01*
X128766569Y-74259276D01*
X128705685Y-74473262D01*
X128705684Y-74473264D01*
X128685157Y-74694799D01*
X128685157Y-74694800D01*
X109852247Y-74694800D01*
X109570801Y-74413353D01*
X109570800Y-74413353D01*
X108990111Y-74994040D01*
X101443458Y-74994040D01*
X101512987Y-74941990D01*
X101512990Y-74941987D01*
X101599150Y-74826893D01*
X101599154Y-74826886D01*
X101649396Y-74692179D01*
X101649398Y-74692172D01*
X101655799Y-74632644D01*
X101655800Y-74632627D01*
X101655800Y-74309800D01*
X100686130Y-74309800D01*
X100705875Y-74290055D01*
X100755244Y-74204545D01*
X100780800Y-74109170D01*
X100780800Y-74059800D01*
X108466087Y-74059800D01*
X108484896Y-74262789D01*
X108484897Y-74262792D01*
X108540683Y-74458863D01*
X108540686Y-74458869D01*
X108631551Y-74641351D01*
X108633333Y-74643711D01*
X109275945Y-74001098D01*
X109270800Y-74020304D01*
X109270800Y-74099296D01*
X109291244Y-74175596D01*
X109330740Y-74244005D01*
X109386595Y-74299860D01*
X109455004Y-74339356D01*
X109531304Y-74359800D01*
X109610296Y-74359800D01*
X109686596Y-74339356D01*
X109755005Y-74299860D01*
X109810860Y-74244005D01*
X109850356Y-74175596D01*
X109870800Y-74099296D01*
X109870800Y-74020304D01*
X109865654Y-74001101D01*
X110508265Y-74643712D01*
X110510047Y-74641353D01*
X110510048Y-74641351D01*
X110600913Y-74458869D01*
X110600916Y-74458863D01*
X110656702Y-74262792D01*
X110656703Y-74262789D01*
X110675513Y-74059800D01*
X110675513Y-74059799D01*
X110656703Y-73856810D01*
X110656702Y-73856808D01*
X110600915Y-73660736D01*
X110600910Y-73660725D01*
X110563111Y-73584813D01*
X110550850Y-73516028D01*
X110574845Y-73455231D01*
X110614596Y-73402131D01*
X110664891Y-73267283D01*
X110671300Y-73207673D01*
X110671299Y-71911928D01*
X110664891Y-71852317D01*
X110652437Y-71818927D01*
X110614597Y-71717471D01*
X110614593Y-71717464D01*
X110528347Y-71602255D01*
X110528344Y-71602252D01*
X110413135Y-71516006D01*
X110413128Y-71516002D01*
X110278282Y-71465708D01*
X110278283Y-71465708D01*
X110218683Y-71459301D01*
X110218681Y-71459300D01*
X110218673Y-71459300D01*
X110218664Y-71459300D01*
X108922929Y-71459300D01*
X108922923Y-71459301D01*
X108863316Y-71465708D01*
X108728471Y-71516002D01*
X108728464Y-71516006D01*
X108613255Y-71602252D01*
X108613252Y-71602255D01*
X108527006Y-71717464D01*
X108527002Y-71717471D01*
X108476708Y-71852317D01*
X108470301Y-71911916D01*
X108470301Y-71911923D01*
X108470300Y-71911935D01*
X108470300Y-73207670D01*
X108470301Y-73207676D01*
X108476708Y-73267283D01*
X108527002Y-73402128D01*
X108527006Y-73402135D01*
X108566754Y-73455231D01*
X108591172Y-73520695D01*
X108578488Y-73584813D01*
X108540688Y-73660725D01*
X108540683Y-73660736D01*
X108484897Y-73856807D01*
X108484896Y-73856810D01*
X108466087Y-74059799D01*
X108466087Y-74059800D01*
X100780800Y-74059800D01*
X100780800Y-74010430D01*
X100755244Y-73915055D01*
X100705875Y-73829545D01*
X100691630Y-73815300D01*
X100731804Y-73815300D01*
X100731804Y-73815299D01*
X100745273Y-73812620D01*
X100747474Y-73812183D01*
X100771666Y-73809800D01*
X101655800Y-73809800D01*
X101655800Y-73486972D01*
X101655799Y-73486955D01*
X101649398Y-73427427D01*
X101649396Y-73427420D01*
X101599154Y-73292713D01*
X101599153Y-73292711D01*
X101598545Y-73291899D01*
X101598190Y-73290948D01*
X101594903Y-73284928D01*
X101595768Y-73284455D01*
X101574129Y-73226434D01*
X101583252Y-73170138D01*
X101616891Y-73088927D01*
X101656300Y-72890803D01*
X101656300Y-72688797D01*
X101616891Y-72490673D01*
X101539586Y-72304044D01*
X101485894Y-72223689D01*
X101465017Y-72157014D01*
X101483501Y-72089634D01*
X101485878Y-72085934D01*
X101539586Y-72005556D01*
X101616891Y-71818927D01*
X101656300Y-71620803D01*
X101656300Y-71418797D01*
X101616891Y-71220673D01*
X101539586Y-71034044D01*
X101539584Y-71034041D01*
X101539582Y-71034037D01*
X101427358Y-70866081D01*
X101284518Y-70723241D01*
X101116562Y-70611017D01*
X101116552Y-70611012D01*
X100929927Y-70533709D01*
X100929919Y-70533707D01*
X100731807Y-70494300D01*
X100731803Y-70494300D01*
X100079797Y-70494300D01*
X100079792Y-70494300D01*
X99881680Y-70533707D01*
X99881672Y-70533709D01*
X99695047Y-70611012D01*
X99695037Y-70611017D01*
X99527081Y-70723241D01*
X99384241Y-70866081D01*
X99272017Y-71034037D01*
X99272012Y-71034047D01*
X99194709Y-71220672D01*
X99194707Y-71220680D01*
X99155300Y-71418792D01*
X99155300Y-71620807D01*
X99194707Y-71818919D01*
X99194709Y-71818927D01*
X99272013Y-72005555D01*
X99325704Y-72085909D01*
X99346582Y-72152587D01*
X99328097Y-72219967D01*
X99325704Y-72223691D01*
X99272013Y-72304044D01*
X99194709Y-72490672D01*
X99194707Y-72490680D01*
X99155300Y-72688792D01*
X99155300Y-72890807D01*
X81769782Y-72890807D01*
X81789636Y-72856418D01*
X81881079Y-72623426D01*
X81881085Y-72623407D01*
X81936778Y-72379399D01*
X81936778Y-72379397D01*
X81939560Y-72342270D01*
X88610700Y-72342270D01*
X88610701Y-72342276D01*
X88617108Y-72401883D01*
X88667402Y-72536728D01*
X88667406Y-72536735D01*
X88753652Y-72651944D01*
X88753655Y-72651947D01*
X88868864Y-72738193D01*
X88868871Y-72738197D01*
X89003717Y-72788491D01*
X89003716Y-72788491D01*
X89010644Y-72789235D01*
X89063327Y-72794900D01*
X90759072Y-72794899D01*
X90818683Y-72788491D01*
X90953531Y-72738196D01*
X91068746Y-72651946D01*
X91154996Y-72536731D01*
X91205291Y-72401883D01*
X91211700Y-72342273D01*
X91211699Y-70646528D01*
X91205291Y-70586917D01*
X91201564Y-70576925D01*
X91154997Y-70452071D01*
X91154993Y-70452064D01*
X91068747Y-70336855D01*
X91068744Y-70336852D01*
X90953535Y-70250606D01*
X90953528Y-70250602D01*
X90818682Y-70200308D01*
X90818683Y-70200308D01*
X90759083Y-70193901D01*
X90759081Y-70193900D01*
X90759073Y-70193900D01*
X90759064Y-70193900D01*
X89063329Y-70193900D01*
X89063323Y-70193901D01*
X89003716Y-70200308D01*
X88868871Y-70250602D01*
X88868864Y-70250606D01*
X88753655Y-70336852D01*
X88753652Y-70336855D01*
X88667406Y-70452064D01*
X88667402Y-70452071D01*
X88617108Y-70586917D01*
X88610701Y-70646516D01*
X88610701Y-70646523D01*
X88610700Y-70646535D01*
X88610700Y-72342270D01*
X81939560Y-72342270D01*
X81955483Y-72129804D01*
X81955483Y-72129795D01*
X81936778Y-71880202D01*
X81936778Y-71880200D01*
X81881085Y-71636192D01*
X81881079Y-71636173D01*
X81789636Y-71403181D01*
X81664488Y-71186418D01*
X81664481Y-71186407D01*
X81625999Y-71138154D01*
X81625998Y-71138153D01*
X80881841Y-71882310D01*
X80856822Y-71821910D01*
X80785688Y-71715449D01*
X80695151Y-71624912D01*
X80588690Y-71553778D01*
X80528288Y-71528758D01*
X81272395Y-70784650D01*
X81118135Y-70679478D01*
X81118134Y-70679477D01*
X80892632Y-70570883D01*
X80892634Y-70570883D01*
X80653453Y-70497105D01*
X80653447Y-70497103D01*
X80405956Y-70459800D01*
X80155643Y-70459800D01*
X79908152Y-70497103D01*
X79908146Y-70497105D01*
X79668966Y-70570883D01*
X79443464Y-70679479D01*
X79443451Y-70679486D01*
X79289203Y-70784649D01*
X80033312Y-71528758D01*
X79972910Y-71553778D01*
X79866449Y-71624912D01*
X79775912Y-71715449D01*
X79704778Y-71821910D01*
X79679758Y-71882312D01*
X78935600Y-71138154D01*
X78897111Y-71186417D01*
X78771963Y-71403181D01*
X78680520Y-71636173D01*
X78680514Y-71636192D01*
X78624821Y-71880200D01*
X78624821Y-71880202D01*
X78606117Y-72129795D01*
X78606117Y-72129804D01*
X38951300Y-72129804D01*
X38951300Y-69629804D01*
X68605616Y-69629804D01*
X68624324Y-69879463D01*
X68624325Y-69879468D01*
X68680036Y-70123555D01*
X68680038Y-70123564D01*
X68680040Y-70123569D01*
X68771511Y-70356635D01*
X68896698Y-70573465D01*
X69016264Y-70723396D01*
X69052806Y-70769218D01*
X69226064Y-70929977D01*
X69236340Y-70939512D01*
X69443208Y-71080552D01*
X69443213Y-71080554D01*
X69443214Y-71080555D01*
X69443215Y-71080556D01*
X69562818Y-71138153D01*
X69668783Y-71189183D01*
X69668784Y-71189183D01*
X69668787Y-71189185D01*
X69908036Y-71262984D01*
X69908037Y-71262984D01*
X69908040Y-71262985D01*
X70155605Y-71300299D01*
X70155610Y-71300299D01*
X70155613Y-71300300D01*
X70155614Y-71300300D01*
X70405986Y-71300300D01*
X70405987Y-71300300D01*
X70405994Y-71300299D01*
X70653559Y-71262985D01*
X70653560Y-71262984D01*
X70653564Y-71262984D01*
X70892813Y-71189185D01*
X71118392Y-71080552D01*
X71325260Y-70939512D01*
X71492162Y-70784649D01*
X71508793Y-70769218D01*
X71508793Y-70769216D01*
X71508797Y-70769214D01*
X71664902Y-70573465D01*
X71790089Y-70356635D01*
X71881560Y-70123569D01*
X71937274Y-69879473D01*
X71938374Y-69864800D01*
X119189305Y-69864800D01*
X119242039Y-70050149D01*
X119341168Y-70249225D01*
X119475191Y-70426700D01*
X119639538Y-70576521D01*
X119828620Y-70693597D01*
X119828622Y-70693598D01*
X120035995Y-70773935D01*
X120115800Y-70788852D01*
X120115800Y-69864800D01*
X119189305Y-69864800D01*
X71938374Y-69864800D01*
X71941004Y-69829705D01*
X71953655Y-69660878D01*
X120015800Y-69660878D01*
X120039652Y-69749895D01*
X120085730Y-69829705D01*
X120150895Y-69894870D01*
X120230705Y-69940948D01*
X120319722Y-69964800D01*
X120411878Y-69964800D01*
X120500895Y-69940948D01*
X120580705Y-69894870D01*
X120610775Y-69864800D01*
X120615800Y-69864800D01*
X120615800Y-70788852D01*
X120695604Y-70773935D01*
X120902977Y-70693598D01*
X120902979Y-70693597D01*
X121092061Y-70576521D01*
X121256408Y-70426700D01*
X121390431Y-70249225D01*
X121489560Y-70050149D01*
X121542295Y-69864800D01*
X120615800Y-69864800D01*
X120610775Y-69864800D01*
X120645870Y-69829705D01*
X120691948Y-69749895D01*
X120715800Y-69660878D01*
X120715800Y-69614800D01*
X124240157Y-69614800D01*
X124260684Y-69836335D01*
X124260685Y-69836337D01*
X124321569Y-70050323D01*
X124321575Y-70050338D01*
X124420738Y-70249483D01*
X124420743Y-70249491D01*
X124554820Y-70427038D01*
X124719237Y-70576923D01*
X124719239Y-70576925D01*
X124908395Y-70694045D01*
X124908396Y-70694045D01*
X124908399Y-70694047D01*
X125115860Y-70774418D01*
X125334557Y-70815300D01*
X125334559Y-70815300D01*
X125557041Y-70815300D01*
X125557043Y-70815300D01*
X125775740Y-70774418D01*
X125983201Y-70694047D01*
X126172362Y-70576924D01*
X126336781Y-70427036D01*
X126449596Y-70277644D01*
X141610800Y-70277644D01*
X141617201Y-70337172D01*
X141617203Y-70337179D01*
X141667445Y-70471886D01*
X141667449Y-70471893D01*
X141753609Y-70586987D01*
X141753612Y-70586990D01*
X141868706Y-70673150D01*
X141868713Y-70673154D01*
X142003420Y-70723396D01*
X142003427Y-70723398D01*
X142062955Y-70729799D01*
X142062972Y-70729800D01*
X143610800Y-70729800D01*
X143610800Y-69688040D01*
X143642033Y-69700978D01*
X143786931Y-69729800D01*
X143934669Y-69729800D01*
X144079567Y-69700978D01*
X144110800Y-69688040D01*
X144110800Y-70729800D01*
X145658628Y-70729800D01*
X145658644Y-70729799D01*
X145718172Y-70723398D01*
X145718179Y-70723396D01*
X145852886Y-70673154D01*
X145852893Y-70673150D01*
X145967987Y-70586990D01*
X145967990Y-70586987D01*
X146054150Y-70471893D01*
X146054154Y-70471886D01*
X146104396Y-70337179D01*
X146104398Y-70337172D01*
X146110799Y-70277644D01*
X146110800Y-70277627D01*
X146110800Y-69229800D01*
X144569041Y-69229800D01*
X144581978Y-69198567D01*
X144610800Y-69053669D01*
X144610800Y-68905931D01*
X144581978Y-68761033D01*
X144569041Y-68729800D01*
X146110800Y-68729800D01*
X146110800Y-67681972D01*
X146110799Y-67681955D01*
X146104398Y-67622427D01*
X146104396Y-67622420D01*
X146054154Y-67487713D01*
X146054150Y-67487706D01*
X145967990Y-67372612D01*
X145967987Y-67372609D01*
X145852893Y-67286449D01*
X145852886Y-67286445D01*
X145718179Y-67236203D01*
X145718172Y-67236201D01*
X145658644Y-67229800D01*
X144110800Y-67229800D01*
X144110800Y-68271559D01*
X144079567Y-68258622D01*
X143934669Y-68229800D01*
X143786931Y-68229800D01*
X143642033Y-68258622D01*
X143610800Y-68271559D01*
X143610800Y-67229800D01*
X142062955Y-67229800D01*
X142003427Y-67236201D01*
X142003420Y-67236203D01*
X141868713Y-67286445D01*
X141868706Y-67286449D01*
X141753612Y-67372609D01*
X141753609Y-67372612D01*
X141667449Y-67487706D01*
X141667445Y-67487713D01*
X141617203Y-67622420D01*
X141617201Y-67622427D01*
X141610800Y-67681955D01*
X141610800Y-68729800D01*
X143152559Y-68729800D01*
X143139622Y-68761033D01*
X143110800Y-68905931D01*
X143110800Y-69053669D01*
X143139622Y-69198567D01*
X143152559Y-69229800D01*
X141610800Y-69229800D01*
X141610800Y-70277644D01*
X126449596Y-70277644D01*
X126470858Y-70249489D01*
X126570029Y-70050328D01*
X126630915Y-69836336D01*
X126651443Y-69614800D01*
X126630915Y-69393264D01*
X126570029Y-69179272D01*
X126570024Y-69179261D01*
X126470861Y-68980116D01*
X126470856Y-68980108D01*
X126336779Y-68802561D01*
X126172362Y-68652676D01*
X126172360Y-68652674D01*
X125983204Y-68535554D01*
X125983198Y-68535552D01*
X125775740Y-68455182D01*
X125557043Y-68414300D01*
X125334557Y-68414300D01*
X125115860Y-68455182D01*
X124995776Y-68501703D01*
X124908401Y-68535552D01*
X124908395Y-68535554D01*
X124719239Y-68652674D01*
X124719237Y-68652676D01*
X124554820Y-68802561D01*
X124420743Y-68980108D01*
X124420738Y-68980116D01*
X124321575Y-69179261D01*
X124321569Y-69179276D01*
X124260685Y-69393262D01*
X124260684Y-69393264D01*
X124240157Y-69614799D01*
X124240157Y-69614800D01*
X120715800Y-69614800D01*
X120715800Y-69568722D01*
X120691948Y-69479705D01*
X120645870Y-69399895D01*
X120580705Y-69334730D01*
X120500895Y-69288652D01*
X120411878Y-69264800D01*
X120319722Y-69264800D01*
X120230705Y-69288652D01*
X120150895Y-69334730D01*
X120085730Y-69399895D01*
X120039652Y-69479705D01*
X120015800Y-69568722D01*
X120015800Y-69660878D01*
X71953655Y-69660878D01*
X71955984Y-69629804D01*
X71955984Y-69629795D01*
X71937275Y-69380136D01*
X71937274Y-69380131D01*
X71937274Y-69380127D01*
X71933776Y-69364800D01*
X119189305Y-69364800D01*
X120115800Y-69364800D01*
X120115800Y-68440746D01*
X120615800Y-68440746D01*
X120615800Y-69364800D01*
X121542295Y-69364800D01*
X121489560Y-69179450D01*
X121390431Y-68980374D01*
X121256408Y-68802899D01*
X121092061Y-68653078D01*
X120902979Y-68536002D01*
X120902977Y-68536001D01*
X120695599Y-68455664D01*
X120615800Y-68440746D01*
X120115800Y-68440746D01*
X120036000Y-68455664D01*
X119828622Y-68536001D01*
X119828620Y-68536002D01*
X119639538Y-68653078D01*
X119475191Y-68802899D01*
X119341168Y-68980374D01*
X119242039Y-69179450D01*
X119189305Y-69364800D01*
X71933776Y-69364800D01*
X71881560Y-69136031D01*
X71790089Y-68902965D01*
X71664902Y-68686135D01*
X71508797Y-68490386D01*
X71508796Y-68490385D01*
X71508793Y-68490381D01*
X71325260Y-68320088D01*
X71318030Y-68315159D01*
X71118392Y-68179048D01*
X71118388Y-68179046D01*
X71118385Y-68179044D01*
X71118384Y-68179043D01*
X70892815Y-68070416D01*
X70892817Y-68070416D01*
X70653565Y-67996616D01*
X70653559Y-67996614D01*
X70405994Y-67959300D01*
X70405987Y-67959300D01*
X70155613Y-67959300D01*
X70155605Y-67959300D01*
X69908040Y-67996614D01*
X69908034Y-67996616D01*
X69668783Y-68070416D01*
X69443215Y-68179043D01*
X69443214Y-68179044D01*
X69236339Y-68320088D01*
X69052806Y-68490381D01*
X68896698Y-68686135D01*
X68771511Y-68902964D01*
X68680042Y-69136025D01*
X68680036Y-69136044D01*
X68624325Y-69380131D01*
X68624324Y-69380136D01*
X68605616Y-69629795D01*
X68605616Y-69629804D01*
X38951300Y-69629804D01*
X38951300Y-66675003D01*
X39410770Y-66675003D01*
X39430073Y-67006426D01*
X39430074Y-67006437D01*
X39487718Y-67333351D01*
X39487721Y-67333365D01*
X39582936Y-67651408D01*
X39714427Y-67956236D01*
X39714433Y-67956249D01*
X39880424Y-68243755D01*
X40077957Y-68509087D01*
X41150327Y-67436716D01*
X41235878Y-67554466D01*
X41386134Y-67704722D01*
X41503881Y-67790270D01*
X40434889Y-68859263D01*
X40560815Y-68964925D01*
X40838188Y-69147356D01*
X41134852Y-69296347D01*
X41134858Y-69296350D01*
X41446813Y-69409892D01*
X41446834Y-69409899D01*
X41769848Y-69486456D01*
X41769863Y-69486458D01*
X42099612Y-69524999D01*
X42099613Y-69525000D01*
X42431587Y-69525000D01*
X42431587Y-69524999D01*
X42761336Y-69486458D01*
X42761351Y-69486456D01*
X43084365Y-69409899D01*
X43084386Y-69409892D01*
X43396341Y-69296350D01*
X43396347Y-69296347D01*
X43693011Y-69147356D01*
X43970389Y-68964922D01*
X44096308Y-68859263D01*
X44096309Y-68859262D01*
X43027318Y-67790270D01*
X43145066Y-67704722D01*
X43295322Y-67554466D01*
X43380870Y-67436717D01*
X44453241Y-68509088D01*
X44650775Y-68243756D01*
X44816766Y-67956249D01*
X44816772Y-67956236D01*
X44948263Y-67651408D01*
X45043478Y-67333365D01*
X45043481Y-67333351D01*
X45101125Y-67006437D01*
X45101126Y-67006426D01*
X45120430Y-66675003D01*
X45120430Y-66674996D01*
X45101126Y-66343573D01*
X45101125Y-66343562D01*
X45096865Y-66319403D01*
X184546370Y-66319403D01*
X184565673Y-66650826D01*
X184565674Y-66650837D01*
X184623318Y-66977751D01*
X184623321Y-66977765D01*
X184718536Y-67295808D01*
X184850027Y-67600636D01*
X184850033Y-67600649D01*
X185016024Y-67888155D01*
X185213557Y-68153487D01*
X186285928Y-67081116D01*
X186371478Y-67198866D01*
X186521734Y-67349122D01*
X186639481Y-67434670D01*
X185570489Y-68503663D01*
X185696415Y-68609325D01*
X185973788Y-68791756D01*
X186270452Y-68940747D01*
X186270458Y-68940750D01*
X186582413Y-69054292D01*
X186582434Y-69054299D01*
X186905448Y-69130856D01*
X186905463Y-69130858D01*
X187235212Y-69169399D01*
X187235213Y-69169400D01*
X187567187Y-69169400D01*
X187567187Y-69169399D01*
X187896936Y-69130858D01*
X187896951Y-69130856D01*
X188219965Y-69054299D01*
X188219986Y-69054292D01*
X188531941Y-68940750D01*
X188531947Y-68940747D01*
X188828611Y-68791756D01*
X189105989Y-68609322D01*
X189231908Y-68503663D01*
X189231909Y-68503662D01*
X188162918Y-67434670D01*
X188280666Y-67349122D01*
X188430922Y-67198866D01*
X188516470Y-67081117D01*
X189588841Y-68153488D01*
X189786375Y-67888156D01*
X189952366Y-67600649D01*
X189952372Y-67600636D01*
X190083863Y-67295808D01*
X190179078Y-66977765D01*
X190179081Y-66977751D01*
X190236725Y-66650837D01*
X190236726Y-66650826D01*
X190256030Y-66319403D01*
X190256030Y-66319396D01*
X190236726Y-65987973D01*
X190236725Y-65987962D01*
X190179081Y-65661048D01*
X190179078Y-65661034D01*
X190083863Y-65342991D01*
X189952372Y-65038163D01*
X189952366Y-65038150D01*
X189786372Y-64750639D01*
X189588842Y-64485310D01*
X188516470Y-65557681D01*
X188430922Y-65439934D01*
X188280666Y-65289678D01*
X188162917Y-65204128D01*
X189231909Y-64135136D01*
X189231909Y-64135135D01*
X189105984Y-64029474D01*
X188828611Y-63847043D01*
X188531947Y-63698052D01*
X188531941Y-63698049D01*
X188219986Y-63584507D01*
X188219965Y-63584500D01*
X187896951Y-63507943D01*
X187896936Y-63507941D01*
X187567187Y-63469400D01*
X187235213Y-63469400D01*
X186905463Y-63507941D01*
X186905448Y-63507943D01*
X186582434Y-63584500D01*
X186582413Y-63584507D01*
X186270458Y-63698049D01*
X186270452Y-63698052D01*
X185973781Y-63847046D01*
X185696420Y-64029470D01*
X185696413Y-64029475D01*
X185570489Y-64135135D01*
X186639482Y-65204128D01*
X186521734Y-65289678D01*
X186371478Y-65439934D01*
X186285928Y-65557682D01*
X185213557Y-64485311D01*
X185213556Y-64485311D01*
X185016029Y-64750636D01*
X185016025Y-64750642D01*
X184850033Y-65038150D01*
X184850027Y-65038163D01*
X184718536Y-65342991D01*
X184623321Y-65661034D01*
X184623318Y-65661048D01*
X184565674Y-65987962D01*
X184565673Y-65987973D01*
X184546370Y-66319396D01*
X184546370Y-66319403D01*
X45096865Y-66319403D01*
X45043481Y-66016648D01*
X45043478Y-66016634D01*
X44948263Y-65698591D01*
X44816772Y-65393763D01*
X44816766Y-65393750D01*
X44650772Y-65106239D01*
X44453242Y-64840910D01*
X43380870Y-65913281D01*
X43295322Y-65795534D01*
X43145066Y-65645278D01*
X43027317Y-65559728D01*
X44096309Y-64490736D01*
X44096309Y-64490735D01*
X43970384Y-64385074D01*
X43693011Y-64202643D01*
X43396347Y-64053652D01*
X43396341Y-64053649D01*
X43084386Y-63940107D01*
X43084365Y-63940100D01*
X42761351Y-63863543D01*
X42761336Y-63863541D01*
X42431587Y-63825000D01*
X42099613Y-63825000D01*
X41769863Y-63863541D01*
X41769848Y-63863543D01*
X41446834Y-63940100D01*
X41446813Y-63940107D01*
X41134858Y-64053649D01*
X41134852Y-64053652D01*
X40838181Y-64202646D01*
X40560820Y-64385070D01*
X40560813Y-64385075D01*
X40434889Y-64490735D01*
X41503882Y-65559728D01*
X41386134Y-65645278D01*
X41235878Y-65795534D01*
X41150328Y-65913282D01*
X40077957Y-64840911D01*
X40077956Y-64840911D01*
X39880429Y-65106236D01*
X39880425Y-65106242D01*
X39714433Y-65393750D01*
X39714427Y-65393763D01*
X39582936Y-65698591D01*
X39487721Y-66016634D01*
X39487718Y-66016648D01*
X39430074Y-66343562D01*
X39430073Y-66343573D01*
X39410770Y-66674996D01*
X39410770Y-66675003D01*
X38951300Y-66675003D01*
X38951300Y-63254300D01*
X38970985Y-63187261D01*
X39023789Y-63141506D01*
X39075300Y-63130300D01*
X190556300Y-63130300D01*
X190623339Y-63149985D01*
G37*
%TD.AperFunction*%
%TD*%
M02*
