M48
; DRILL file {KiCad 8.0.1} date 2024-09-10T19:28:20-0700
; FORMAT={-:-/ absolute / inch / decimal}
; #@! TF.CreationDate,2024-09-10T19:28:20-07:00
; #@! TF.GenerationSoftware,Kicad,Pcbnew,8.0.1
; #@! TF.FileFunction,Plated,1,2,PTH
FMAT,2
INCH
; #@! TA.AperFunction,Plated,PTH,ComponentDrill
T1C0.0236
; #@! TA.AperFunction,Plated,PTH,ComponentDrill
T2C0.0276
; #@! TA.AperFunction,Plated,PTH,ComponentDrill
T3C0.0295
; #@! TA.AperFunction,Plated,PTH,ComponentDrill
T4C0.0315
; #@! TA.AperFunction,Plated,PTH,ComponentDrill
T5C0.0394
; #@! TA.AperFunction,Plated,PTH,ComponentDrill
T6C0.0433
; #@! TA.AperFunction,Plated,PTH,ComponentDrill
T7C0.0472
; #@! TA.AperFunction,Plated,PTH,ComponentDrill
T8C0.0512
; #@! TA.AperFunction,Plated,PTH,ComponentDrill
T9C0.0591
; #@! TA.AperFunction,Plated,PTH,ComponentDrill
T10C0.1063
; #@! TA.AperFunction,Plated,PTH,ComponentDrill
T11C0.1181
%
G90
G05
T1
X1.9638Y-2.9407
X1.9638Y-5.0657
X2.0229Y-2.9407
X2.0229Y-5.0657
X4.3138Y-2.8567
X4.3138Y-2.9157
X4.4843Y-5.2042
X4.4843Y-5.2633
X6.2638Y-4.1317
X6.2638Y-4.1907
X6.5551Y-4.1246
X6.5551Y-4.1837
T2
X2.2638Y-5.0657
X2.2888Y-2.9407
X2.4638Y-5.0657
X2.4888Y-2.9407
X2.648Y-5.0656
X2.848Y-5.0656
X2.8638Y-3.1907
X3.0638Y-3.1907
X3.5388Y-3.7907
X3.5388Y-3.9907
X3.5388Y-4.1407
X3.5388Y-4.3407
X3.8638Y-3.4157
X3.8638Y-4.6657
X4.0638Y-3.4157
X4.0638Y-4.6657
X4.7388Y-2.7407
X4.7638Y-5.1907
X4.9388Y-2.7407
X4.9638Y-5.1907
X5.1122Y-3.7628
X5.1122Y-3.9628
X5.1138Y-2.9407
X5.1138Y-3.1407
X5.1138Y-3.3657
X5.1138Y-3.5657
X5.1138Y-4.1407
X5.1138Y-4.3407
X5.1138Y-4.4907
X5.1138Y-4.6907
X5.1138Y-4.8657
X5.1138Y-5.0657
T3
X3.9252Y-5.0994
X3.9252Y-5.1494
X3.9252Y-5.1994
X3.953Y-2.8157
X3.953Y-2.8657
X3.953Y-2.9157
X4.4888Y-4.6407
X4.4888Y-4.6907
X4.4888Y-4.7407
X4.4965Y-3.7419
X4.4965Y-3.7919
X4.4965Y-3.8419
X4.5138Y-3.3407
X4.5138Y-3.3907
X4.5138Y-3.4407
X4.5138Y-4.2407
X4.5138Y-4.2907
X4.5138Y-4.3407
T4
X3.5388Y-3.3157
X3.5388Y-3.6157
X3.5388Y-4.5157
X3.5388Y-4.8157
X3.5388Y-4.9907
X3.5388Y-5.2907
X3.5398Y-2.8147
X3.5398Y-3.1147
T5
X6.2388Y-3.1907
X6.2388Y-4.9907
T6
X5.7227Y-4.3618
X5.7227Y-4.4618
X5.7227Y-4.5618
X5.726Y-5.0157
X5.726Y-5.1157
X5.726Y-5.2157
T7
X6.5601Y-3.1915
X6.8554Y-3.1915
T8
X2.2638Y-4.5646
X2.2638Y-4.7614
X2.6575Y-4.663
X2.767Y-2.7413
X2.767Y-2.9382
X3.1607Y-2.8398
T9
X5.6638Y-2.7157
X5.6638Y-2.9313
X5.6638Y-3.1468
X5.726Y-3.5657
X5.726Y-3.7813
X5.726Y-3.9968
T10
X1.652Y-5.307
X1.664Y-2.625
X7.374Y-5.309
X7.378Y-2.611
T11
X1.9688Y-4.4447
X1.9688Y-4.7282
X3.002Y-3.8535
X3.002Y-4.137
X7.126Y-3.8726
X7.126Y-4.1561
M30
