%TF.GenerationSoftware,KiCad,Pcbnew,8.0.4*%
%TF.CreationDate,2024-09-16T18:55:14-07:00*%
%TF.ProjectId,Dorr_Amp_REV-,446f7272-5f41-46d7-905f-5245562d2e6b,-*%
%TF.SameCoordinates,Original*%
%TF.FileFunction,Soldermask,Top*%
%TF.FilePolarity,Negative*%
%FSLAX46Y46*%
G04 Gerber Fmt 4.6, Leading zero omitted, Abs format (unit mm)*
G04 Created by KiCad (PCBNEW 8.0.4) date 2024-09-16 18:55:14*
%MOMM*%
%LPD*%
G01*
G04 APERTURE LIST*
%ADD10C,1.600000*%
%ADD11O,1.600000X1.600000*%
%ADD12C,3.000000*%
%ADD13C,7.000000*%
%ADD14C,1.803400*%
%ADD15R,1.600000X1.600000*%
%ADD16R,2.000000X1.905000*%
%ADD17O,2.000000X1.905000*%
%ADD18R,1.346200X1.346200*%
%ADD19C,1.346200*%
%ADD20R,1.500000X1.050000*%
%ADD21O,1.500000X1.050000*%
%ADD22R,1.050000X1.500000*%
%ADD23O,1.050000X1.500000*%
%ADD24R,2.400000X2.400000*%
%ADD25C,2.400000*%
G04 APERTURE END LIST*
D10*
%TO.C,R8*%
X68120000Y-127265000D03*
D11*
X78280000Y-127265000D03*
%TD*%
D10*
%TO.C,R14*%
X103980000Y-83665000D03*
D11*
X93820000Y-83665000D03*
%TD*%
D12*
%TO.C,TP1*%
X158465800Y-126764800D03*
%TD*%
D10*
%TO.C,R12*%
X72542400Y-82651600D03*
D11*
X72542400Y-92811600D03*
%TD*%
D10*
%TO.C,C1*%
X155346400Y-100598001D03*
X155346400Y-105598001D03*
%TD*%
D13*
%TO.C,H1*%
X43053000Y-67183000D03*
%TD*%
%TO.C,H3*%
X43053000Y-134366000D03*
%TD*%
D10*
%TO.C,R15*%
X126900000Y-86865000D03*
D11*
X126900000Y-97025000D03*
%TD*%
D14*
%TO.C,J3*%
X76250800Y-105079800D03*
X76250800Y-100079800D03*
%TD*%
D13*
%TO.C,H4*%
X186563000Y-134366000D03*
%TD*%
%TO.C,H2*%
X186563000Y-67183000D03*
%TD*%
D10*
%TO.C,R3*%
X127400000Y-110685000D03*
D11*
X127400000Y-120845000D03*
%TD*%
D15*
%TO.C,C3*%
X45625000Y-128016000D03*
D10*
X47625000Y-128016000D03*
%TD*%
D16*
%TO.C,Q9*%
X151700000Y-116345000D03*
D17*
X151700000Y-113805000D03*
X151700000Y-111265000D03*
%TD*%
D18*
%TO.C,R11*%
X72560000Y-72782400D03*
D19*
X75100000Y-70242400D03*
X77640000Y-72782400D03*
%TD*%
D10*
%TO.C,R2*%
X137668000Y-115036600D03*
D11*
X137668000Y-104876600D03*
%TD*%
D15*
%TO.C,C5*%
X49880800Y-74694800D03*
D10*
X51880800Y-74694800D03*
%TD*%
D20*
%TO.C,Q6*%
X98500000Y-76665000D03*
D21*
X98500000Y-75395000D03*
X98500000Y-74125000D03*
%TD*%
D15*
%TO.C,D3*%
X83000000Y-82555000D03*
D11*
X83000000Y-90175000D03*
%TD*%
D10*
%TO.C,C6*%
X109570800Y-72559800D03*
X109570800Y-77559800D03*
%TD*%
%TO.C,R10*%
X63480000Y-81365000D03*
D11*
X53320000Y-81365000D03*
%TD*%
D16*
%TO.C,Q5*%
X146862800Y-133045200D03*
D17*
X146862800Y-130505200D03*
X146862800Y-127965200D03*
%TD*%
D10*
%TO.C,C4*%
X107300000Y-123065000D03*
X107300000Y-128065000D03*
%TD*%
%TO.C,R6*%
X62080000Y-132665000D03*
D11*
X51920000Y-132665000D03*
%TD*%
D16*
%TO.C,Q10*%
X145237200Y-68935600D03*
D17*
X145237200Y-71475600D03*
X145237200Y-74015600D03*
%TD*%
D10*
%TO.C,C7*%
X162745600Y-100418201D03*
X162745600Y-105418201D03*
%TD*%
D11*
%TO.C,R16*%
X139480000Y-71365000D03*
D10*
X129320000Y-71365000D03*
%TD*%
D15*
%TO.C,D1*%
X82300000Y-122575000D03*
D11*
X82300000Y-114955000D03*
%TD*%
D10*
%TO.C,R9*%
X125280000Y-127165000D03*
D11*
X115120000Y-127165000D03*
%TD*%
D14*
%TO.C,J1*%
X177647599Y-103401500D03*
X177647599Y-98401500D03*
%TD*%
D22*
%TO.C,Q8*%
X115570000Y-85344000D03*
D23*
X114300000Y-85344000D03*
X113030000Y-85344000D03*
%TD*%
D11*
%TO.C,R18*%
X121600000Y-67885000D03*
D10*
X121600000Y-78045000D03*
%TD*%
D18*
%TO.C,R7*%
X58620000Y-117865000D03*
D19*
X61160000Y-115325000D03*
X63700000Y-117865000D03*
%TD*%
D20*
%TO.C,Q1*%
X114609200Y-110896400D03*
D21*
X114609200Y-109626400D03*
X114609200Y-108356400D03*
%TD*%
D10*
%TO.C,R17*%
X135509000Y-87020400D03*
D11*
X135509000Y-76860400D03*
%TD*%
D12*
%TO.C,TP2*%
X158465800Y-81044800D03*
%TD*%
D10*
%TO.C,R1*%
X89885800Y-105174800D03*
D11*
X89885800Y-115334800D03*
%TD*%
D20*
%TO.C,Q7*%
X111019000Y-93700600D03*
D21*
X111019000Y-94970600D03*
X111019000Y-96240600D03*
%TD*%
D14*
%TO.C,J2*%
X50007800Y-120096400D03*
X50007800Y-115096400D03*
%TD*%
D15*
%TO.C,D4*%
X85400000Y-68555000D03*
D11*
X85400000Y-76175000D03*
%TD*%
D20*
%TO.C,Q3*%
X99000000Y-124065000D03*
D21*
X99000000Y-125335000D03*
X99000000Y-126605000D03*
%TD*%
D24*
%TO.C,C8*%
X166626041Y-81065000D03*
D25*
X171626041Y-81065000D03*
%TD*%
D20*
%TO.C,Q4*%
X114727400Y-117983000D03*
D21*
X114727400Y-119253000D03*
X114727400Y-120523000D03*
%TD*%
D11*
%TO.C,R13*%
X96291400Y-94996000D03*
D10*
X96291400Y-105156000D03*
%TD*%
%TO.C,R5*%
X129890800Y-123589800D03*
D11*
X129890800Y-133749800D03*
%TD*%
D10*
%TO.C,R4*%
X103220800Y-118509800D03*
D11*
X93060800Y-118509800D03*
%TD*%
D15*
%TO.C,D2*%
X89500000Y-132875000D03*
D11*
X89500000Y-125255000D03*
%TD*%
D16*
%TO.C,Q2*%
X147655000Y-88425000D03*
D17*
X147655000Y-90965000D03*
X147655000Y-93505000D03*
%TD*%
M02*
