%TF.GenerationSoftware,KiCad,Pcbnew,8.0.5*%
%TF.CreationDate,2024-09-17T20:01:56-07:00*%
%TF.ProjectId,Power_Amp_v1.0,506f7765-725f-4416-9d70-5f76312e302e,-*%
%TF.SameCoordinates,Original*%
%TF.FileFunction,Copper,L2,Bot*%
%TF.FilePolarity,Positive*%
%FSLAX46Y46*%
G04 Gerber Fmt 4.6, Leading zero omitted, Abs format (unit mm)*
G04 Created by KiCad (PCBNEW 8.0.5) date 2024-09-17 20:01:56*
%MOMM*%
%LPD*%
G01*
G04 APERTURE LIST*
%TA.AperFunction,ComponentPad*%
%ADD10C,1.600000*%
%TD*%
%TA.AperFunction,ComponentPad*%
%ADD11O,1.600000X1.600000*%
%TD*%
%TA.AperFunction,ComponentPad*%
%ADD12C,3.000000*%
%TD*%
%TA.AperFunction,ComponentPad*%
%ADD13C,7.000000*%
%TD*%
%TA.AperFunction,ComponentPad*%
%ADD14C,1.803400*%
%TD*%
%TA.AperFunction,ComponentPad*%
%ADD15R,1.600000X1.600000*%
%TD*%
%TA.AperFunction,ComponentPad*%
%ADD16R,2.000000X1.905000*%
%TD*%
%TA.AperFunction,ComponentPad*%
%ADD17O,2.000000X1.905000*%
%TD*%
%TA.AperFunction,ComponentPad*%
%ADD18R,1.500000X1.500000*%
%TD*%
%TA.AperFunction,ComponentPad*%
%ADD19C,1.500000*%
%TD*%
%TA.AperFunction,ComponentPad*%
%ADD20R,2.200000X2.200000*%
%TD*%
%TA.AperFunction,ComponentPad*%
%ADD21O,2.200000X2.200000*%
%TD*%
%TA.AperFunction,ComponentPad*%
%ADD22R,1.346200X1.346200*%
%TD*%
%TA.AperFunction,ComponentPad*%
%ADD23C,1.346200*%
%TD*%
%TA.AperFunction,ComponentPad*%
%ADD24R,2.400000X2.400000*%
%TD*%
%TA.AperFunction,ComponentPad*%
%ADD25C,2.400000*%
%TD*%
%TA.AperFunction,ViaPad*%
%ADD26C,0.600000*%
%TD*%
%TA.AperFunction,Conductor*%
%ADD27C,0.762000*%
%TD*%
%TA.AperFunction,Conductor*%
%ADD28C,0.508000*%
%TD*%
%TA.AperFunction,Conductor*%
%ADD29C,0.200000*%
%TD*%
%TA.AperFunction,Conductor*%
%ADD30C,1.270000*%
%TD*%
G04 APERTURE END LIST*
D10*
%TO.P,R8,1*%
%TO.N,Net-(D1-K)*%
X68120000Y-127265000D03*
D11*
%TO.P,R8,2*%
%TO.N,GND*%
X78280000Y-127265000D03*
%TD*%
D10*
%TO.P,R14,1*%
%TO.N,Net-(C8-Pad1)*%
X103980000Y-83665000D03*
D11*
%TO.P,R14,2*%
%TO.N,Net-(D3-K)*%
X93820000Y-83665000D03*
%TD*%
D12*
%TO.P,TP1,1,1*%
%TO.N,Net-(J1-Pin_2)*%
X158465800Y-126764800D03*
%TD*%
D10*
%TO.P,R12,1*%
%TO.N,Net-(D3-K)*%
X72542400Y-82651600D03*
D11*
%TO.P,R12,2*%
%TO.N,GND*%
X72542400Y-92811600D03*
%TD*%
D10*
%TO.P,C1,1*%
%TO.N,/18V*%
X155346400Y-100598001D03*
%TO.P,C1,2*%
%TO.N,GND*%
X155346400Y-105598001D03*
%TD*%
D13*
%TO.P,H1,1,1*%
%TO.N,GND*%
X43053000Y-67183000D03*
%TD*%
%TO.P,H3,1,1*%
%TO.N,GND*%
X43053000Y-134366000D03*
%TD*%
D10*
%TO.P,R15,1*%
%TO.N,Net-(Q2-B)*%
X126900000Y-86865000D03*
D11*
%TO.P,R15,2*%
%TO.N,/18V*%
X126900000Y-97025000D03*
%TD*%
D14*
%TO.P,J3,1,Pin_1*%
%TO.N,/18V*%
X76250800Y-105079800D03*
%TO.P,J3,2,Pin_2*%
%TO.N,GND*%
X76250800Y-100079800D03*
%TD*%
D13*
%TO.P,H4,1,1*%
%TO.N,GND*%
X186563000Y-134366000D03*
%TD*%
%TO.P,H2,1,1*%
%TO.N,GND*%
X186563000Y-67183000D03*
%TD*%
D10*
%TO.P,R3,1*%
%TO.N,Net-(Q1-E)*%
X127400000Y-110685000D03*
D11*
%TO.P,R3,2*%
%TO.N,Net-(J1-Pin_2)*%
X127400000Y-120845000D03*
%TD*%
D15*
%TO.P,C3,1*%
%TO.N,Net-(J2-Pin_1)*%
X50832000Y-128905000D03*
D10*
%TO.P,C3,2*%
%TO.N,Net-(C3-Pad2)*%
X52832000Y-128905000D03*
%TD*%
D16*
%TO.P,Q9,1,B*%
%TO.N,Net-(Q1-C)*%
X151700000Y-116345000D03*
D17*
%TO.P,Q9,2,C*%
%TO.N,Net-(Q1-E)*%
X151700000Y-113805000D03*
%TO.P,Q9,3,E*%
%TO.N,/18V*%
X151700000Y-111265000D03*
%TD*%
D10*
%TO.P,R2,1*%
%TO.N,Net-(Q1-C)*%
X137668000Y-115036600D03*
D11*
%TO.P,R2,2*%
%TO.N,/18V*%
X137668000Y-104876600D03*
%TD*%
D15*
%TO.P,C5,1*%
%TO.N,Net-(J2-Pin_2)*%
X49880800Y-74694800D03*
D10*
%TO.P,C5,2*%
%TO.N,Net-(C5-Pad2)*%
X51880800Y-74694800D03*
%TD*%
D18*
%TO.P,Q6,1,E*%
%TO.N,GND*%
X98500000Y-76665000D03*
D19*
%TO.P,Q6,2,B*%
%TO.N,Net-(D3-K)*%
X95960000Y-74125000D03*
%TO.P,Q6,3,C*%
%TO.N,Net-(D4-K)*%
X98500000Y-71585000D03*
%TD*%
D20*
%TO.P,D3,1,K*%
%TO.N,Net-(D3-K)*%
X83000000Y-82555000D03*
D21*
%TO.P,D3,2,A*%
%TO.N,Net-(D3-A)*%
X83000000Y-92715000D03*
%TD*%
D10*
%TO.P,C6,1*%
%TO.N,Net-(D4-K)*%
X107600000Y-69665000D03*
%TO.P,C6,2*%
%TO.N,GND*%
X107600000Y-74665000D03*
%TD*%
%TO.P,R10,1*%
%TO.N,Net-(D3-K)*%
X63480000Y-81365000D03*
D11*
%TO.P,R10,2*%
%TO.N,Net-(C5-Pad2)*%
X53320000Y-81365000D03*
%TD*%
D16*
%TO.P,Q5,1,B*%
%TO.N,Net-(Q4-C)*%
X146862800Y-133045200D03*
D17*
%TO.P,Q5,2,C*%
%TO.N,Net-(Q4-E)*%
X146862800Y-130505200D03*
%TO.P,Q5,3,E*%
%TO.N,GND*%
X146862800Y-127965200D03*
%TD*%
D10*
%TO.P,C4,1*%
%TO.N,Net-(D2-K)*%
X107300000Y-123065000D03*
%TO.P,C4,2*%
%TO.N,GND*%
X107300000Y-128065000D03*
%TD*%
%TO.P,R6,1*%
%TO.N,Net-(D1-K)*%
X68080000Y-132465000D03*
D11*
%TO.P,R6,2*%
%TO.N,Net-(C3-Pad2)*%
X57920000Y-132465000D03*
%TD*%
D16*
%TO.P,Q10,1,B*%
%TO.N,Net-(Q10-B)*%
X145237200Y-68935600D03*
D17*
%TO.P,Q10,2,C*%
%TO.N,Net-(Q10-C)*%
X145237200Y-71475600D03*
%TO.P,Q10,3,E*%
%TO.N,GND*%
X145237200Y-74015600D03*
%TD*%
D22*
%TO.P,RV1,1,1*%
%TO.N,Net-(D3-K)*%
X72669400Y-73025000D03*
D23*
%TO.P,RV1,2,2*%
%TO.N,GND*%
X70129400Y-70485000D03*
%TO.P,RV1,3,3*%
X72669400Y-67945000D03*
%TD*%
D10*
%TO.P,C7,1*%
%TO.N,/18V*%
X162745600Y-100418201D03*
%TO.P,C7,2*%
%TO.N,GND*%
X162745600Y-105418201D03*
%TD*%
%TO.P,R16,1*%
%TO.N,Net-(Q10-B)*%
X129320000Y-71365000D03*
D11*
%TO.P,R16,2*%
%TO.N,GND*%
X139480000Y-71365000D03*
%TD*%
D20*
%TO.P,D1,1,K*%
%TO.N,Net-(D1-K)*%
X82300000Y-122575000D03*
D21*
%TO.P,D1,2,A*%
%TO.N,Net-(D1-A)*%
X82300000Y-112415000D03*
%TD*%
D10*
%TO.P,R9,1*%
%TO.N,Net-(Q4-C)*%
X125280000Y-127165000D03*
D11*
%TO.P,R9,2*%
%TO.N,GND*%
X115120000Y-127165000D03*
%TD*%
D14*
%TO.P,J1,1,Pin_1*%
%TO.N,Net-(J1-Pin_1)*%
X177647599Y-98401500D03*
%TO.P,J1,2,Pin_2*%
%TO.N,Net-(J1-Pin_2)*%
X177647599Y-103401500D03*
%TD*%
D18*
%TO.P,Q8,1,E*%
%TO.N,Net-(Q10-C)*%
X115316000Y-85463000D03*
D19*
%TO.P,Q8,2,B*%
%TO.N,Net-(D4-K)*%
X112776000Y-88003000D03*
%TO.P,Q8,3,C*%
%TO.N,Net-(Q10-B)*%
X110236000Y-85463000D03*
%TD*%
D10*
%TO.P,R18,1*%
%TO.N,Net-(C8-Pad1)*%
X121600000Y-78045000D03*
D11*
%TO.P,R18,2*%
%TO.N,Net-(Q10-C)*%
X121600000Y-67885000D03*
%TD*%
D22*
%TO.P,RV2,1,1*%
%TO.N,Net-(D1-K)*%
X73177400Y-119761000D03*
D23*
%TO.P,RV2,2,2*%
%TO.N,GND*%
X70637400Y-117221000D03*
%TO.P,RV2,3,3*%
X73177400Y-114681000D03*
%TD*%
D18*
%TO.P,Q1,1,E*%
%TO.N,Net-(Q1-E)*%
X104402000Y-113665000D03*
D19*
%TO.P,Q1,2,B*%
%TO.N,Net-(D1-A)*%
X101862000Y-111125000D03*
%TO.P,Q1,3,C*%
%TO.N,Net-(Q1-C)*%
X104402000Y-108585000D03*
%TD*%
D10*
%TO.P,R17,1*%
%TO.N,Net-(Q2-C)*%
X135509000Y-87020400D03*
D11*
%TO.P,R17,2*%
%TO.N,Net-(C8-Pad1)*%
X135509000Y-76860400D03*
%TD*%
D12*
%TO.P,TP2,1,1*%
%TO.N,Net-(C8-Pad1)*%
X158465800Y-81044800D03*
%TD*%
D10*
%TO.P,R1,1*%
%TO.N,/18V*%
X89885800Y-105174800D03*
D11*
%TO.P,R1,2*%
%TO.N,Net-(D1-A)*%
X89885800Y-115334800D03*
%TD*%
D18*
%TO.P,Q7,1,E*%
%TO.N,Net-(Q2-C)*%
X109220000Y-93345000D03*
D19*
%TO.P,Q7,2,B*%
%TO.N,Net-(D3-A)*%
X111760000Y-95885000D03*
%TO.P,Q7,3,C*%
%TO.N,Net-(Q2-B)*%
X109220000Y-98425000D03*
%TD*%
D14*
%TO.P,J2,1,Pin_1*%
%TO.N,Net-(J2-Pin_1)*%
X50007800Y-120096400D03*
%TO.P,J2,2,Pin_2*%
%TO.N,Net-(J2-Pin_2)*%
X50007800Y-115096400D03*
%TD*%
D20*
%TO.P,D4,1,K*%
%TO.N,Net-(D4-K)*%
X85400000Y-68555000D03*
D21*
%TO.P,D4,2,A*%
%TO.N,Net-(D3-K)*%
X85400000Y-78715000D03*
%TD*%
D18*
%TO.P,Q3,1,E*%
%TO.N,GND*%
X99000000Y-124065000D03*
D19*
%TO.P,Q3,2,B*%
%TO.N,Net-(D1-K)*%
X101540000Y-126605000D03*
%TO.P,Q3,3,C*%
%TO.N,Net-(D2-K)*%
X99000000Y-129145000D03*
%TD*%
D24*
%TO.P,C8,1*%
%TO.N,Net-(C8-Pad1)*%
X166626041Y-81065000D03*
D25*
%TO.P,C8,2*%
%TO.N,Net-(J1-Pin_1)*%
X171626041Y-81065000D03*
%TD*%
D18*
%TO.P,Q4,1,E*%
%TO.N,Net-(Q4-E)*%
X116660000Y-120935000D03*
D19*
%TO.P,Q4,2,B*%
%TO.N,Net-(D2-K)*%
X114120000Y-118395000D03*
%TO.P,Q4,3,C*%
%TO.N,Net-(Q4-C)*%
X116660000Y-115855000D03*
%TD*%
D10*
%TO.P,R13,1*%
%TO.N,/18V*%
X96291400Y-105156000D03*
D11*
%TO.P,R13,2*%
%TO.N,Net-(D3-A)*%
X96291400Y-94996000D03*
%TD*%
D10*
%TO.P,R5,1*%
%TO.N,Net-(J1-Pin_2)*%
X129890800Y-123589800D03*
D11*
%TO.P,R5,2*%
%TO.N,Net-(Q4-E)*%
X129890800Y-133749800D03*
%TD*%
D10*
%TO.P,R4,1*%
%TO.N,Net-(J1-Pin_2)*%
X103220800Y-118509800D03*
D11*
%TO.P,R4,2*%
%TO.N,Net-(D1-K)*%
X93060800Y-118509800D03*
%TD*%
D20*
%TO.P,D2,1,K*%
%TO.N,Net-(D2-K)*%
X89500000Y-132875000D03*
D21*
%TO.P,D2,2,A*%
%TO.N,Net-(D1-K)*%
X89500000Y-122715000D03*
%TD*%
D16*
%TO.P,Q2,1,B*%
%TO.N,Net-(Q2-B)*%
X147655000Y-88425000D03*
D17*
%TO.P,Q2,2,C*%
%TO.N,Net-(Q2-C)*%
X147655000Y-90965000D03*
%TO.P,Q2,3,E*%
%TO.N,/18V*%
X147655000Y-93505000D03*
%TD*%
D26*
%TO.N,GND*%
X62200000Y-73565000D03*
X175000000Y-123865000D03*
X162400000Y-68365000D03*
X59200000Y-98165000D03*
%TD*%
D27*
%TO.N,Net-(C8-Pad1)*%
X166626041Y-81065000D02*
X158486000Y-81065000D01*
X139700000Y-81051400D02*
X135509000Y-76860400D01*
D28*
X119680000Y-79965000D02*
X107680000Y-79965000D01*
D27*
X122784600Y-76860400D02*
X121600000Y-78045000D01*
X158472400Y-81051400D02*
X139700000Y-81051400D01*
D28*
X121600000Y-78045000D02*
X119680000Y-79965000D01*
D29*
X158486000Y-81065000D02*
X158472400Y-81051400D01*
D28*
X107680000Y-79965000D02*
X103980000Y-83665000D01*
D29*
X158486000Y-81065000D02*
X158465800Y-81044800D01*
D27*
X135509000Y-76860400D02*
X122784600Y-76860400D01*
%TO.N,Net-(Q10-C)*%
X145237200Y-71475600D02*
X150889400Y-71475600D01*
X152400000Y-69965000D02*
X152400000Y-67865000D01*
X152400000Y-67865000D02*
X150200000Y-65665000D01*
X123820000Y-65665000D02*
X121600000Y-67885000D01*
X150889400Y-71475600D02*
X152400000Y-69965000D01*
X150200000Y-65665000D02*
X123820000Y-65665000D01*
%TO.N,Net-(Q2-C)*%
X152706800Y-84965000D02*
X154584400Y-86842600D01*
X141425200Y-84965000D02*
X152706800Y-84965000D01*
X154584400Y-89357200D02*
X152976600Y-90965000D01*
X154584400Y-86842600D02*
X154584400Y-89357200D01*
X135509000Y-87020400D02*
X139369800Y-87020400D01*
X152976600Y-90965000D02*
X147655000Y-90965000D01*
X139369800Y-87020400D02*
X141425200Y-84965000D01*
D30*
%TO.N,/18V*%
X96382400Y-105065000D02*
X117809000Y-105065000D01*
X126900000Y-97025000D02*
X118860000Y-105065000D01*
X137856400Y-105065000D02*
X140476800Y-105065000D01*
X155346400Y-100598001D02*
X162565800Y-100598001D01*
X146700000Y-111265000D02*
X140500000Y-105065000D01*
X89904600Y-105156000D02*
X96291400Y-105156000D01*
X140500000Y-105065000D02*
X137856400Y-105065000D01*
X137479600Y-105065000D02*
X137668000Y-104876600D01*
D27*
X126900000Y-97613800D02*
X126900000Y-97025000D01*
D30*
X137668000Y-104876600D02*
X137856400Y-105065000D01*
X117991000Y-105065000D02*
X137479600Y-105065000D01*
X151700000Y-111265000D02*
X146700000Y-111265000D01*
D27*
X89867200Y-105193400D02*
X89904600Y-105156000D01*
D30*
X144932400Y-96227600D02*
X147655000Y-93505000D01*
D27*
X118860000Y-105065000D02*
X117991000Y-105065000D01*
X89867200Y-105193400D02*
X89885800Y-105174800D01*
D30*
X144932400Y-100609400D02*
X155335001Y-100609400D01*
D29*
X162565800Y-100598001D02*
X162745600Y-100418201D01*
D30*
X96291400Y-105156000D02*
X96382400Y-105065000D01*
D27*
X155335001Y-100609400D02*
X155346400Y-100598001D01*
D30*
X140476800Y-105065000D02*
X144932400Y-100609400D01*
X76169800Y-105193400D02*
X89867200Y-105193400D01*
X144932400Y-100609400D02*
X144932400Y-96227600D01*
D28*
%TO.N,Net-(Q4-C)*%
X139293600Y-133045200D02*
X136575800Y-130327400D01*
D29*
X126771400Y-128651000D02*
X126766000Y-128651000D01*
D28*
X146862800Y-133045200D02*
X139293600Y-133045200D01*
X128447800Y-130327400D02*
X126771400Y-128651000D01*
X126766000Y-128651000D02*
X125280000Y-127165000D01*
X136575800Y-130327400D02*
X128447800Y-130327400D01*
D27*
%TO.N,Net-(Q4-E)*%
X151460200Y-130581400D02*
X146939000Y-130581400D01*
X129884200Y-133756400D02*
X133033800Y-136906000D01*
D29*
X129884200Y-133756400D02*
X129890800Y-133749800D01*
D27*
X153238200Y-132359400D02*
X151460200Y-130581400D01*
X153238200Y-133832600D02*
X153238200Y-132359400D01*
X133033800Y-136906000D02*
X150164800Y-136906000D01*
D29*
X146939000Y-130581400D02*
X146862800Y-130505200D01*
D27*
X150164800Y-136906000D02*
X153238200Y-133832600D01*
%TO.N,Net-(Q1-E)*%
X131064000Y-116929000D02*
X134200000Y-120065000D01*
X159486600Y-115671600D02*
X157632400Y-113817400D01*
X157582400Y-120065000D02*
X159486600Y-118160800D01*
X134200000Y-120065000D02*
X157582400Y-120065000D01*
X127400000Y-110685000D02*
X129201600Y-110685000D01*
D28*
X127400000Y-110685000D02*
X126424000Y-110685000D01*
D27*
X131064000Y-112547400D02*
X131064000Y-116929000D01*
D28*
X125984000Y-111125000D02*
X106942000Y-111125000D01*
D27*
X129201600Y-110685000D02*
X131064000Y-112547400D01*
D28*
X126424000Y-110685000D02*
X125984000Y-111125000D01*
X106942000Y-111125000D02*
X104402000Y-113665000D01*
D27*
X159486600Y-118160800D02*
X159486600Y-115671600D01*
X157632400Y-113817400D02*
X151712400Y-113817400D01*
%TO.N,Net-(J1-Pin_2)*%
X129890800Y-123589800D02*
X129890800Y-123335800D01*
X129916200Y-123615200D02*
X129890800Y-123589800D01*
X152750800Y-126764800D02*
X149601200Y-123615200D01*
X149601200Y-123615200D02*
X129916200Y-123615200D01*
X177647599Y-107583001D02*
X158465800Y-126764800D01*
X129890800Y-123335800D02*
X127400000Y-120845000D01*
X177647599Y-103401500D02*
X177647599Y-107583001D01*
X158465800Y-126764800D02*
X152750800Y-126764800D01*
%TO.N,Net-(J1-Pin_1)*%
X171626041Y-81065000D02*
X171626041Y-92379942D01*
X171626041Y-92379942D02*
X177647599Y-98401500D01*
%TD*%
%TA.AperFunction,Conductor*%
%TO.N,GND*%
G36*
X39156503Y-135364996D02*
G01*
X39194277Y-135423774D01*
X39195584Y-135428580D01*
X39220623Y-135528545D01*
X39220624Y-135528548D01*
X39353016Y-135898559D01*
X39353023Y-135898575D01*
X39521062Y-136253864D01*
X39723109Y-136590958D01*
X39957228Y-136906632D01*
X40053068Y-137012376D01*
X40053069Y-137012376D01*
X41651381Y-135414064D01*
X41734457Y-135522331D01*
X41896669Y-135684543D01*
X42004934Y-135767617D01*
X40406622Y-137365929D01*
X40406622Y-137365930D01*
X40512367Y-137461771D01*
X40828041Y-137695890D01*
X41165135Y-137897937D01*
X41520423Y-138065976D01*
X41583508Y-138088548D01*
X41639997Y-138129667D01*
X41665289Y-138194799D01*
X41651352Y-138263264D01*
X41602613Y-138313327D01*
X41541734Y-138329300D01*
X39075300Y-138329300D01*
X39008261Y-138309615D01*
X38962506Y-138256811D01*
X38951300Y-138205300D01*
X38951300Y-135458709D01*
X38970985Y-135391670D01*
X39023789Y-135345915D01*
X39092947Y-135335971D01*
X39156503Y-135364996D01*
G37*
%TD.AperFunction*%
%TA.AperFunction,Conductor*%
G36*
X185368629Y-63149985D02*
G01*
X185414384Y-63202789D01*
X185424328Y-63271947D01*
X185395303Y-63335503D01*
X185343364Y-63371051D01*
X185030440Y-63483016D01*
X185030424Y-63483023D01*
X184675135Y-63651062D01*
X184338041Y-63853109D01*
X184022368Y-64087228D01*
X183916622Y-64183069D01*
X185514934Y-65781381D01*
X185406669Y-65864457D01*
X185244457Y-66026669D01*
X185161381Y-66134934D01*
X183563069Y-64536622D01*
X183467228Y-64642368D01*
X183233109Y-64958041D01*
X183031062Y-65295135D01*
X182863023Y-65650424D01*
X182863016Y-65650440D01*
X182730625Y-66020450D01*
X182635129Y-66401691D01*
X182577461Y-66790449D01*
X182558176Y-67183000D01*
X182577461Y-67575550D01*
X182635129Y-67964308D01*
X182730625Y-68345549D01*
X182863016Y-68715559D01*
X182863023Y-68715575D01*
X183031062Y-69070864D01*
X183233109Y-69407958D01*
X183467228Y-69723632D01*
X183563068Y-69829376D01*
X183563069Y-69829376D01*
X185161380Y-68231064D01*
X185244457Y-68339331D01*
X185406669Y-68501543D01*
X185514934Y-68584617D01*
X183916622Y-70182929D01*
X183916622Y-70182930D01*
X184022367Y-70278771D01*
X184338041Y-70512890D01*
X184675135Y-70714937D01*
X185030424Y-70882976D01*
X185030440Y-70882983D01*
X185400450Y-71015374D01*
X185781691Y-71110870D01*
X186170449Y-71168538D01*
X186563000Y-71187823D01*
X186955550Y-71168538D01*
X187344308Y-71110870D01*
X187725549Y-71015374D01*
X188095559Y-70882983D01*
X188095575Y-70882976D01*
X188450864Y-70714937D01*
X188787958Y-70512890D01*
X189103632Y-70278770D01*
X189209376Y-70182929D01*
X187611065Y-68584618D01*
X187719331Y-68501543D01*
X187881543Y-68339331D01*
X187964618Y-68231065D01*
X189562929Y-69829376D01*
X189658770Y-69723632D01*
X189892890Y-69407958D01*
X190094937Y-69070864D01*
X190262976Y-68715575D01*
X190262983Y-68715559D01*
X190395375Y-68345548D01*
X190395376Y-68345545D01*
X190436016Y-68183301D01*
X190471400Y-68123053D01*
X190533739Y-68091500D01*
X190603241Y-68098658D01*
X190657839Y-68142256D01*
X190680200Y-68208451D01*
X190680300Y-68213430D01*
X190680300Y-133335569D01*
X190660615Y-133402608D01*
X190607811Y-133448363D01*
X190538653Y-133458307D01*
X190475097Y-133429282D01*
X190437323Y-133370504D01*
X190436016Y-133365699D01*
X190395374Y-133203450D01*
X190262983Y-132833440D01*
X190262976Y-132833424D01*
X190094937Y-132478135D01*
X189892890Y-132141041D01*
X189658771Y-131825367D01*
X189562930Y-131719622D01*
X189562929Y-131719622D01*
X187964617Y-133317934D01*
X187881543Y-133209669D01*
X187719331Y-133047457D01*
X187611065Y-132964381D01*
X189209376Y-131366069D01*
X189209376Y-131366068D01*
X189103632Y-131270228D01*
X188787958Y-131036109D01*
X188450864Y-130834062D01*
X188095575Y-130666023D01*
X188095559Y-130666016D01*
X187725549Y-130533625D01*
X187344308Y-130438129D01*
X186955550Y-130380461D01*
X186563000Y-130361176D01*
X186170449Y-130380461D01*
X185781691Y-130438129D01*
X185400450Y-130533625D01*
X185030440Y-130666016D01*
X185030424Y-130666023D01*
X184675135Y-130834062D01*
X184338041Y-131036109D01*
X184022368Y-131270228D01*
X183916622Y-131366069D01*
X185514934Y-132964381D01*
X185406669Y-133047457D01*
X185244457Y-133209669D01*
X185161381Y-133317934D01*
X183563069Y-131719622D01*
X183467228Y-131825368D01*
X183233109Y-132141041D01*
X183031062Y-132478135D01*
X182863023Y-132833424D01*
X182863016Y-132833440D01*
X182730625Y-133203450D01*
X182635129Y-133584691D01*
X182577461Y-133973449D01*
X182558176Y-134366000D01*
X182577461Y-134758550D01*
X182635129Y-135147308D01*
X182730625Y-135528549D01*
X182863016Y-135898559D01*
X182863023Y-135898575D01*
X183031062Y-136253864D01*
X183233109Y-136590958D01*
X183467228Y-136906632D01*
X183563068Y-137012376D01*
X183563069Y-137012376D01*
X185161380Y-135414064D01*
X185244457Y-135522331D01*
X185406669Y-135684543D01*
X185514934Y-135767617D01*
X183916622Y-137365929D01*
X183916622Y-137365930D01*
X184022367Y-137461771D01*
X184338041Y-137695890D01*
X184675135Y-137897937D01*
X185030423Y-138065976D01*
X185093508Y-138088548D01*
X185149997Y-138129667D01*
X185175289Y-138194799D01*
X185161352Y-138263264D01*
X185112613Y-138313327D01*
X185051734Y-138329300D01*
X44564266Y-138329300D01*
X44497227Y-138309615D01*
X44451472Y-138256811D01*
X44441528Y-138187653D01*
X44470553Y-138124097D01*
X44522492Y-138088548D01*
X44585576Y-138065976D01*
X44940864Y-137897937D01*
X45277958Y-137695890D01*
X45593632Y-137461770D01*
X45699376Y-137365929D01*
X44101065Y-135767618D01*
X44209331Y-135684543D01*
X44371543Y-135522331D01*
X44454618Y-135414065D01*
X46052929Y-137012376D01*
X46148770Y-136906632D01*
X46382890Y-136590958D01*
X46584937Y-136253864D01*
X46752976Y-135898575D01*
X46752983Y-135898559D01*
X46885374Y-135528549D01*
X46980870Y-135147308D01*
X47038538Y-134758550D01*
X47057823Y-134366000D01*
X47038538Y-133973449D01*
X46980870Y-133584691D01*
X46885374Y-133203450D01*
X46752983Y-132833440D01*
X46752976Y-132833424D01*
X46584937Y-132478135D01*
X46577063Y-132464998D01*
X56614532Y-132464998D01*
X56614532Y-132465001D01*
X56634364Y-132691686D01*
X56634366Y-132691697D01*
X56693258Y-132911488D01*
X56693261Y-132911497D01*
X56789431Y-133117732D01*
X56789432Y-133117734D01*
X56919954Y-133304141D01*
X57080858Y-133465045D01*
X57080861Y-133465047D01*
X57267266Y-133595568D01*
X57473504Y-133691739D01*
X57693308Y-133750635D01*
X57855230Y-133764801D01*
X57919998Y-133770468D01*
X57920000Y-133770468D01*
X57920002Y-133770468D01*
X57976673Y-133765509D01*
X58146692Y-133750635D01*
X58366496Y-133691739D01*
X58572734Y-133595568D01*
X58759139Y-133465047D01*
X58920047Y-133304139D01*
X59050568Y-133117734D01*
X59146739Y-132911496D01*
X59205635Y-132691692D01*
X59225468Y-132465000D01*
X59225468Y-132464998D01*
X66774532Y-132464998D01*
X66774532Y-132465001D01*
X66794364Y-132691686D01*
X66794366Y-132691697D01*
X66853258Y-132911488D01*
X66853261Y-132911497D01*
X66949431Y-133117732D01*
X66949432Y-133117734D01*
X67079954Y-133304141D01*
X67240858Y-133465045D01*
X67240861Y-133465047D01*
X67427266Y-133595568D01*
X67633504Y-133691739D01*
X67853308Y-133750635D01*
X68015230Y-133764801D01*
X68079998Y-133770468D01*
X68080000Y-133770468D01*
X68080002Y-133770468D01*
X68136673Y-133765509D01*
X68306692Y-133750635D01*
X68526496Y-133691739D01*
X68732734Y-133595568D01*
X68919139Y-133465047D01*
X69080047Y-133304139D01*
X69210568Y-133117734D01*
X69306739Y-132911496D01*
X69365635Y-132691692D01*
X69385468Y-132465000D01*
X69365635Y-132238308D01*
X69313793Y-132044829D01*
X69306741Y-132018511D01*
X69306738Y-132018502D01*
X69291216Y-131985216D01*
X69210568Y-131812266D01*
X69150959Y-131727135D01*
X87899500Y-131727135D01*
X87899500Y-134022870D01*
X87899501Y-134022876D01*
X87905908Y-134082483D01*
X87956202Y-134217328D01*
X87956206Y-134217335D01*
X88042452Y-134332544D01*
X88042455Y-134332547D01*
X88157664Y-134418793D01*
X88157671Y-134418797D01*
X88292517Y-134469091D01*
X88292516Y-134469091D01*
X88299444Y-134469835D01*
X88352127Y-134475500D01*
X90647872Y-134475499D01*
X90707483Y-134469091D01*
X90842331Y-134418796D01*
X90957546Y-134332546D01*
X91043796Y-134217331D01*
X91094091Y-134082483D01*
X91100500Y-134022873D01*
X91100499Y-131727128D01*
X91094091Y-131667517D01*
X91087148Y-131648903D01*
X91043797Y-131532671D01*
X91043793Y-131532664D01*
X90957547Y-131417455D01*
X90957544Y-131417452D01*
X90842335Y-131331206D01*
X90842328Y-131331202D01*
X90707482Y-131280908D01*
X90707483Y-131280908D01*
X90647883Y-131274501D01*
X90647881Y-131274500D01*
X90647873Y-131274500D01*
X90647864Y-131274500D01*
X88352129Y-131274500D01*
X88352123Y-131274501D01*
X88292516Y-131280908D01*
X88157671Y-131331202D01*
X88157664Y-131331206D01*
X88042455Y-131417452D01*
X88042452Y-131417455D01*
X87956206Y-131532664D01*
X87956202Y-131532671D01*
X87905908Y-131667517D01*
X87900307Y-131719622D01*
X87899501Y-131727123D01*
X87899500Y-131727135D01*
X69150959Y-131727135D01*
X69096181Y-131648903D01*
X69080045Y-131625858D01*
X68919141Y-131464954D01*
X68732734Y-131334432D01*
X68732732Y-131334431D01*
X68526497Y-131238261D01*
X68526488Y-131238258D01*
X68306697Y-131179366D01*
X68306693Y-131179365D01*
X68306692Y-131179365D01*
X68306691Y-131179364D01*
X68306686Y-131179364D01*
X68080002Y-131159532D01*
X68079998Y-131159532D01*
X67853313Y-131179364D01*
X67853302Y-131179366D01*
X67633511Y-131238258D01*
X67633502Y-131238261D01*
X67427267Y-131334431D01*
X67427265Y-131334432D01*
X67240858Y-131464954D01*
X67079954Y-131625858D01*
X66949432Y-131812265D01*
X66949431Y-131812267D01*
X66853261Y-132018502D01*
X66853258Y-132018511D01*
X66794366Y-132238302D01*
X66794364Y-132238313D01*
X66774532Y-132464998D01*
X59225468Y-132464998D01*
X59205635Y-132238308D01*
X59153793Y-132044829D01*
X59146741Y-132018511D01*
X59146738Y-132018502D01*
X59131216Y-131985216D01*
X59050568Y-131812266D01*
X58936181Y-131648903D01*
X58920045Y-131625858D01*
X58759141Y-131464954D01*
X58572734Y-131334432D01*
X58572732Y-131334431D01*
X58366497Y-131238261D01*
X58366488Y-131238258D01*
X58146697Y-131179366D01*
X58146693Y-131179365D01*
X58146692Y-131179365D01*
X58146691Y-131179364D01*
X58146686Y-131179364D01*
X57920002Y-131159532D01*
X57919998Y-131159532D01*
X57693313Y-131179364D01*
X57693302Y-131179366D01*
X57473511Y-131238258D01*
X57473502Y-131238261D01*
X57267267Y-131334431D01*
X57267265Y-131334432D01*
X57080858Y-131464954D01*
X56919954Y-131625858D01*
X56789432Y-131812265D01*
X56789431Y-131812267D01*
X56693261Y-132018502D01*
X56693258Y-132018511D01*
X56634366Y-132238302D01*
X56634364Y-132238313D01*
X56614532Y-132464998D01*
X46577063Y-132464998D01*
X46382890Y-132141041D01*
X46148771Y-131825367D01*
X46052930Y-131719622D01*
X46052929Y-131719622D01*
X44454617Y-133317934D01*
X44371543Y-133209669D01*
X44209331Y-133047457D01*
X44101065Y-132964381D01*
X45699376Y-131366069D01*
X45699376Y-131366068D01*
X45593632Y-131270228D01*
X45277958Y-131036109D01*
X44940864Y-130834062D01*
X44585575Y-130666023D01*
X44585559Y-130666016D01*
X44215549Y-130533625D01*
X43834308Y-130438129D01*
X43445550Y-130380461D01*
X43053000Y-130361176D01*
X42660449Y-130380461D01*
X42271691Y-130438129D01*
X41890450Y-130533625D01*
X41520440Y-130666016D01*
X41520424Y-130666023D01*
X41165135Y-130834062D01*
X40828041Y-131036109D01*
X40512368Y-131270228D01*
X40406622Y-131366069D01*
X42004934Y-132964381D01*
X41896669Y-133047457D01*
X41734457Y-133209669D01*
X41651381Y-133317934D01*
X40053069Y-131719622D01*
X39957228Y-131825368D01*
X39723109Y-132141041D01*
X39521062Y-132478135D01*
X39353023Y-132833424D01*
X39353016Y-132833440D01*
X39220625Y-133203450D01*
X39195584Y-133303420D01*
X39160200Y-133363667D01*
X39097861Y-133395220D01*
X39028359Y-133388062D01*
X38973760Y-133344464D01*
X38951400Y-133278269D01*
X38951300Y-133273290D01*
X38951300Y-128057135D01*
X49531500Y-128057135D01*
X49531500Y-129752870D01*
X49531501Y-129752876D01*
X49537908Y-129812483D01*
X49588202Y-129947328D01*
X49588206Y-129947335D01*
X49674452Y-130062544D01*
X49674455Y-130062547D01*
X49789664Y-130148793D01*
X49789671Y-130148797D01*
X49924517Y-130199091D01*
X49924516Y-130199091D01*
X49931444Y-130199835D01*
X49984127Y-130205500D01*
X51679872Y-130205499D01*
X51739483Y-130199091D01*
X51874331Y-130148796D01*
X51989546Y-130062546D01*
X51996051Y-130053856D01*
X52051982Y-130011984D01*
X52121673Y-130006997D01*
X52166442Y-130026589D01*
X52179264Y-130035567D01*
X52179266Y-130035568D01*
X52385504Y-130131739D01*
X52605308Y-130190635D01*
X52767230Y-130204801D01*
X52831998Y-130210468D01*
X52832000Y-130210468D01*
X52832002Y-130210468D01*
X52888807Y-130205498D01*
X53058692Y-130190635D01*
X53278496Y-130131739D01*
X53484734Y-130035568D01*
X53671139Y-129905047D01*
X53832047Y-129744139D01*
X53962568Y-129557734D01*
X54058739Y-129351496D01*
X54114069Y-129145000D01*
X97744723Y-129145000D01*
X97754741Y-129259515D01*
X97763793Y-129362975D01*
X97763793Y-129362979D01*
X97820422Y-129574322D01*
X97820424Y-129574326D01*
X97820425Y-129574330D01*
X97859799Y-129658768D01*
X97912897Y-129772638D01*
X97912898Y-129772639D01*
X98038402Y-129951877D01*
X98193123Y-130106598D01*
X98372361Y-130232102D01*
X98570670Y-130324575D01*
X98782023Y-130381207D01*
X98964926Y-130397208D01*
X98999998Y-130400277D01*
X99000000Y-130400277D01*
X99000002Y-130400277D01*
X99028254Y-130397805D01*
X99217977Y-130381207D01*
X99429330Y-130324575D01*
X99627639Y-130232102D01*
X99806877Y-130106598D01*
X99961598Y-129951877D01*
X100087102Y-129772639D01*
X100179575Y-129574330D01*
X100236207Y-129362977D01*
X100255277Y-129145000D01*
X100236207Y-128927023D01*
X100188772Y-128749995D01*
X100179577Y-128715677D01*
X100179576Y-128715676D01*
X100179575Y-128715670D01*
X100087102Y-128517362D01*
X100087100Y-128517359D01*
X100087099Y-128517357D01*
X99961599Y-128338124D01*
X99888132Y-128264657D01*
X99806877Y-128183402D01*
X99656615Y-128078187D01*
X99637778Y-128064997D01*
X105995034Y-128064997D01*
X105995034Y-128065002D01*
X106014858Y-128291599D01*
X106014860Y-128291610D01*
X106073730Y-128511317D01*
X106073735Y-128511331D01*
X106169863Y-128717478D01*
X106220974Y-128790472D01*
X106900000Y-128111446D01*
X106900000Y-128117661D01*
X106927259Y-128219394D01*
X106979920Y-128310606D01*
X107054394Y-128385080D01*
X107145606Y-128437741D01*
X107247339Y-128465000D01*
X107253553Y-128465000D01*
X106574526Y-129144025D01*
X106647513Y-129195132D01*
X106647521Y-129195136D01*
X106853668Y-129291264D01*
X106853682Y-129291269D01*
X107073389Y-129350139D01*
X107073400Y-129350141D01*
X107299998Y-129369966D01*
X107300002Y-129369966D01*
X107526599Y-129350141D01*
X107526610Y-129350139D01*
X107746317Y-129291269D01*
X107746331Y-129291264D01*
X107952478Y-129195136D01*
X108025471Y-129144024D01*
X107346447Y-128465000D01*
X107352661Y-128465000D01*
X107454394Y-128437741D01*
X107545606Y-128385080D01*
X107620080Y-128310606D01*
X107672741Y-128219394D01*
X107700000Y-128117661D01*
X107700000Y-128111447D01*
X108379024Y-128790471D01*
X108430136Y-128717478D01*
X108526264Y-128511331D01*
X108526269Y-128511317D01*
X108585139Y-128291610D01*
X108585141Y-128291599D01*
X108604966Y-128065002D01*
X108604966Y-128064997D01*
X108585141Y-127838400D01*
X108585139Y-127838389D01*
X108526269Y-127618682D01*
X108526264Y-127618668D01*
X108430136Y-127412521D01*
X108430132Y-127412513D01*
X108379025Y-127339526D01*
X107700000Y-128018551D01*
X107700000Y-128012339D01*
X107672741Y-127910606D01*
X107620080Y-127819394D01*
X107545606Y-127744920D01*
X107454394Y-127692259D01*
X107352661Y-127665000D01*
X107346448Y-127665000D01*
X108025472Y-126985974D01*
X107952478Y-126934863D01*
X107909880Y-126914999D01*
X113841127Y-126914999D01*
X113841128Y-126915000D01*
X114804314Y-126915000D01*
X114799920Y-126919394D01*
X114747259Y-127010606D01*
X114720000Y-127112339D01*
X114720000Y-127217661D01*
X114747259Y-127319394D01*
X114799920Y-127410606D01*
X114804314Y-127415000D01*
X113841128Y-127415000D01*
X113893730Y-127611317D01*
X113893734Y-127611326D01*
X113989865Y-127817482D01*
X114120342Y-128003820D01*
X114281179Y-128164657D01*
X114467517Y-128295134D01*
X114673673Y-128391265D01*
X114673682Y-128391269D01*
X114869999Y-128443872D01*
X114870000Y-128443871D01*
X114870000Y-127480686D01*
X114874394Y-127485080D01*
X114965606Y-127537741D01*
X115067339Y-127565000D01*
X115172661Y-127565000D01*
X115274394Y-127537741D01*
X115365606Y-127485080D01*
X115370000Y-127480686D01*
X115370000Y-128443872D01*
X115566317Y-128391269D01*
X115566326Y-128391265D01*
X115772482Y-128295134D01*
X115958820Y-128164657D01*
X116119657Y-128003820D01*
X116250134Y-127817482D01*
X116346265Y-127611326D01*
X116346269Y-127611317D01*
X116398872Y-127415000D01*
X115435686Y-127415000D01*
X115440080Y-127410606D01*
X115492741Y-127319394D01*
X115520000Y-127217661D01*
X115520000Y-127164998D01*
X123974532Y-127164998D01*
X123974532Y-127165001D01*
X123994364Y-127391686D01*
X123994366Y-127391697D01*
X124053258Y-127611488D01*
X124053261Y-127611497D01*
X124149431Y-127817732D01*
X124149432Y-127817734D01*
X124279954Y-128004141D01*
X124440858Y-128165045D01*
X124440861Y-128165047D01*
X124627266Y-128295568D01*
X124833504Y-128391739D01*
X125053308Y-128450635D01*
X125215230Y-128464801D01*
X125279998Y-128470468D01*
X125280000Y-128470468D01*
X125280001Y-128470468D01*
X125298637Y-128468837D01*
X125441659Y-128456324D01*
X125510157Y-128470090D01*
X125540146Y-128492171D01*
X126285030Y-129237055D01*
X126291150Y-129241144D01*
X126309944Y-129256568D01*
X127857400Y-130804024D01*
X127857421Y-130804047D01*
X127966831Y-130913457D01*
X128021697Y-130950117D01*
X128021696Y-130950117D01*
X128090400Y-130996023D01*
X128090404Y-130996025D01*
X128090411Y-130996030D01*
X128170843Y-131029345D01*
X128170844Y-131029346D01*
X128187172Y-131036109D01*
X128227720Y-131052905D01*
X128227729Y-131052906D01*
X128227730Y-131052907D01*
X128251903Y-131057715D01*
X128251910Y-131057716D01*
X128373486Y-131081901D01*
X128373488Y-131081901D01*
X128528226Y-131081901D01*
X128528246Y-131081900D01*
X136211913Y-131081900D01*
X136278952Y-131101585D01*
X136299594Y-131118219D01*
X138703200Y-133521824D01*
X138703221Y-133521847D01*
X138812631Y-133631257D01*
X138869986Y-133669580D01*
X138936206Y-133713827D01*
X138936207Y-133713827D01*
X138936211Y-133713830D01*
X139013344Y-133745779D01*
X139013345Y-133745779D01*
X139013346Y-133745780D01*
X139023051Y-133749800D01*
X139073520Y-133770705D01*
X139073523Y-133770705D01*
X139073528Y-133770707D01*
X139097703Y-133775515D01*
X139097710Y-133775516D01*
X139219286Y-133799701D01*
X139219288Y-133799701D01*
X139374026Y-133799701D01*
X139374046Y-133799700D01*
X145238301Y-133799700D01*
X145305340Y-133819385D01*
X145351095Y-133872189D01*
X145362301Y-133923700D01*
X145362301Y-134045576D01*
X145368708Y-134105183D01*
X145419002Y-134240028D01*
X145419006Y-134240035D01*
X145505252Y-134355244D01*
X145505255Y-134355247D01*
X145620464Y-134441493D01*
X145620471Y-134441497D01*
X145755317Y-134491791D01*
X145755316Y-134491791D01*
X145762244Y-134492535D01*
X145814927Y-134498200D01*
X147910672Y-134498199D01*
X147970283Y-134491791D01*
X148105131Y-134441496D01*
X148220346Y-134355246D01*
X148306596Y-134240031D01*
X148356891Y-134105183D01*
X148363300Y-134045573D01*
X148363299Y-132044828D01*
X148356891Y-131985217D01*
X148346814Y-131958200D01*
X148306597Y-131850371D01*
X148306593Y-131850364D01*
X148220347Y-131735156D01*
X148220348Y-131735156D01*
X148220346Y-131735154D01*
X148154905Y-131686165D01*
X148113036Y-131630233D01*
X148108052Y-131560541D01*
X148141537Y-131499218D01*
X148202861Y-131465734D01*
X148229218Y-131462900D01*
X151043708Y-131462900D01*
X151110747Y-131482585D01*
X151131389Y-131499219D01*
X152320381Y-132688210D01*
X152353866Y-132749533D01*
X152356700Y-132775891D01*
X152356700Y-133416108D01*
X152337015Y-133483147D01*
X152320381Y-133503789D01*
X149835989Y-135988181D01*
X149774666Y-136021666D01*
X149748308Y-136024500D01*
X133450292Y-136024500D01*
X133383253Y-136004815D01*
X133362611Y-135988181D01*
X131231359Y-133856929D01*
X131197874Y-133795606D01*
X131195512Y-133758438D01*
X131196268Y-133749798D01*
X131182774Y-133595567D01*
X131176435Y-133523108D01*
X131117539Y-133303304D01*
X131021368Y-133097066D01*
X130890847Y-132910661D01*
X130890845Y-132910658D01*
X130729941Y-132749754D01*
X130543534Y-132619232D01*
X130543532Y-132619231D01*
X130337297Y-132523061D01*
X130337288Y-132523058D01*
X130117497Y-132464166D01*
X130117493Y-132464165D01*
X130117492Y-132464165D01*
X130117491Y-132464164D01*
X130117486Y-132464164D01*
X129890802Y-132444332D01*
X129890798Y-132444332D01*
X129664113Y-132464164D01*
X129664102Y-132464166D01*
X129444311Y-132523058D01*
X129444302Y-132523061D01*
X129238067Y-132619231D01*
X129238065Y-132619232D01*
X129051658Y-132749754D01*
X128890754Y-132910658D01*
X128760232Y-133097065D01*
X128760231Y-133097067D01*
X128664061Y-133303302D01*
X128664058Y-133303311D01*
X128605166Y-133523102D01*
X128605164Y-133523113D01*
X128585332Y-133749798D01*
X128585332Y-133749801D01*
X128605164Y-133976486D01*
X128605166Y-133976497D01*
X128664058Y-134196288D01*
X128664061Y-134196297D01*
X128760231Y-134402532D01*
X128760232Y-134402534D01*
X128890754Y-134588941D01*
X129051658Y-134749845D01*
X129051661Y-134749847D01*
X129238066Y-134880368D01*
X129444304Y-134976539D01*
X129664108Y-135035435D01*
X129890800Y-135055268D01*
X129890800Y-135055267D01*
X129895853Y-135055710D01*
X129960922Y-135081162D01*
X129972727Y-135091557D01*
X132471872Y-137590703D01*
X132471873Y-137590704D01*
X132616256Y-137687177D01*
X132776671Y-137753622D01*
X132776676Y-137753624D01*
X132776680Y-137753624D01*
X132776681Y-137753625D01*
X132946976Y-137787500D01*
X132946979Y-137787500D01*
X150251623Y-137787500D01*
X150366193Y-137764709D01*
X150421924Y-137753624D01*
X150502135Y-137720399D01*
X150582343Y-137687177D01*
X150582344Y-137687176D01*
X150582347Y-137687175D01*
X150726724Y-137590706D01*
X153922906Y-134394524D01*
X154019375Y-134250147D01*
X154023567Y-134240028D01*
X154052599Y-134169935D01*
X154085824Y-134089724D01*
X154119700Y-133919421D01*
X154119700Y-133745779D01*
X154119700Y-132272580D01*
X154105727Y-132202334D01*
X154085825Y-132102276D01*
X154026146Y-131958200D01*
X154019375Y-131941853D01*
X153958249Y-131850371D01*
X153922907Y-131797478D01*
X153922906Y-131797477D01*
X153800123Y-131674694D01*
X153363687Y-131238258D01*
X152022127Y-129896696D01*
X152022126Y-129896695D01*
X151877743Y-129800222D01*
X151717328Y-129733777D01*
X151717318Y-129733774D01*
X151547023Y-129699900D01*
X151547021Y-129699900D01*
X151547020Y-129699900D01*
X148184403Y-129699900D01*
X148117364Y-129680215D01*
X148084085Y-129648786D01*
X148018586Y-129558634D01*
X147856866Y-129396914D01*
X147771934Y-129335207D01*
X147729270Y-129279878D01*
X147723291Y-129210264D01*
X147755897Y-129148469D01*
X147771937Y-129134571D01*
X147856539Y-129073105D01*
X148018202Y-128911442D01*
X148152588Y-128726476D01*
X148256382Y-128522770D01*
X148327034Y-128305328D01*
X148341309Y-128215200D01*
X147353548Y-128215200D01*
X147375318Y-128177492D01*
X147412800Y-128037609D01*
X147412800Y-127892791D01*
X147375318Y-127752908D01*
X147353548Y-127715200D01*
X148341309Y-127715200D01*
X148327034Y-127625071D01*
X148256382Y-127407629D01*
X148152588Y-127203923D01*
X148018202Y-127018957D01*
X147856542Y-126857297D01*
X147671576Y-126722911D01*
X147467868Y-126619117D01*
X147250425Y-126548465D01*
X147250426Y-126548465D01*
X147112800Y-126526667D01*
X147112800Y-127474452D01*
X147075092Y-127452682D01*
X146935209Y-127415200D01*
X146790391Y-127415200D01*
X146650508Y-127452682D01*
X146612800Y-127474452D01*
X146612800Y-126526667D01*
X146475174Y-126548465D01*
X146257731Y-126619117D01*
X146054023Y-126722911D01*
X145869057Y-126857297D01*
X145707397Y-127018957D01*
X145573011Y-127203923D01*
X145469217Y-127407629D01*
X145398565Y-127625071D01*
X145384291Y-127715200D01*
X146372052Y-127715200D01*
X146350282Y-127752908D01*
X146312800Y-127892791D01*
X146312800Y-128037609D01*
X146350282Y-128177492D01*
X146372052Y-128215200D01*
X145384291Y-128215200D01*
X145398565Y-128305328D01*
X145469217Y-128522770D01*
X145573011Y-128726476D01*
X145707397Y-128911442D01*
X145869057Y-129073102D01*
X145869063Y-129073107D01*
X145953663Y-129134572D01*
X145996329Y-129189901D01*
X146002308Y-129259515D01*
X145969703Y-129321310D01*
X145953664Y-129335207D01*
X145868740Y-129396909D01*
X145868731Y-129396916D01*
X145707016Y-129558631D01*
X145707016Y-129558632D01*
X145707014Y-129558634D01*
X145679078Y-129597085D01*
X145572583Y-129743661D01*
X145468750Y-129947444D01*
X145398078Y-130164950D01*
X145398078Y-130164953D01*
X145362300Y-130390846D01*
X145362300Y-130619553D01*
X145398078Y-130845446D01*
X145398078Y-130845449D01*
X145468750Y-131062955D01*
X145468752Y-131062958D01*
X145572583Y-131266738D01*
X145705325Y-131449442D01*
X145728805Y-131515246D01*
X145712980Y-131583300D01*
X145662874Y-131631995D01*
X145648341Y-131638508D01*
X145620470Y-131648903D01*
X145620464Y-131648906D01*
X145505255Y-131735152D01*
X145505252Y-131735155D01*
X145419006Y-131850364D01*
X145419002Y-131850371D01*
X145368708Y-131985217D01*
X145365130Y-132018502D01*
X145362301Y-132044823D01*
X145362300Y-132044835D01*
X145362300Y-132166700D01*
X145342615Y-132233739D01*
X145289811Y-132279494D01*
X145238300Y-132290700D01*
X139657486Y-132290700D01*
X139590447Y-132271015D01*
X139569805Y-132254381D01*
X137056769Y-129741343D01*
X137056768Y-129741342D01*
X136994745Y-129699900D01*
X136933189Y-129658770D01*
X136933186Y-129658768D01*
X136933185Y-129658768D01*
X136852755Y-129625453D01*
X136795880Y-129601895D01*
X136771694Y-129597084D01*
X136650114Y-129572899D01*
X136650112Y-129572899D01*
X136501488Y-129572899D01*
X136495374Y-129572899D01*
X136495354Y-129572900D01*
X128811686Y-129572900D01*
X128744647Y-129553215D01*
X128724005Y-129536581D01*
X127252369Y-128064943D01*
X127252365Y-128064940D01*
X127246241Y-128060848D01*
X127227451Y-128045427D01*
X126607171Y-127425146D01*
X126573686Y-127363823D01*
X126571324Y-127326661D01*
X126585468Y-127165000D01*
X126565635Y-126938308D01*
X126506739Y-126718504D01*
X126410568Y-126512266D01*
X126280047Y-126325861D01*
X126280045Y-126325858D01*
X126119141Y-126164954D01*
X125932734Y-126034432D01*
X125932732Y-126034431D01*
X125726497Y-125938261D01*
X125726488Y-125938258D01*
X125506697Y-125879366D01*
X125506693Y-125879365D01*
X125506692Y-125879365D01*
X125506691Y-125879364D01*
X125506686Y-125879364D01*
X125280002Y-125859532D01*
X125279998Y-125859532D01*
X125053313Y-125879364D01*
X125053302Y-125879366D01*
X124833511Y-125938258D01*
X124833502Y-125938261D01*
X124627267Y-126034431D01*
X124627265Y-126034432D01*
X124440858Y-126164954D01*
X124279954Y-126325858D01*
X124149432Y-126512265D01*
X124149431Y-126512267D01*
X124053261Y-126718502D01*
X124053258Y-126718511D01*
X123994366Y-126938302D01*
X123994364Y-126938313D01*
X123974532Y-127164998D01*
X115520000Y-127164998D01*
X115520000Y-127112339D01*
X115492741Y-127010606D01*
X115440080Y-126919394D01*
X115435686Y-126915000D01*
X116398872Y-126915000D01*
X116398872Y-126914999D01*
X116346269Y-126718682D01*
X116346265Y-126718673D01*
X116250134Y-126512517D01*
X116119657Y-126326179D01*
X115958820Y-126165342D01*
X115772482Y-126034865D01*
X115566328Y-125938734D01*
X115370000Y-125886127D01*
X115370000Y-126849314D01*
X115365606Y-126844920D01*
X115274394Y-126792259D01*
X115172661Y-126765000D01*
X115067339Y-126765000D01*
X114965606Y-126792259D01*
X114874394Y-126844920D01*
X114870000Y-126849314D01*
X114870000Y-125886127D01*
X114673671Y-125938734D01*
X114467517Y-126034865D01*
X114281179Y-126165342D01*
X114120342Y-126326179D01*
X113989865Y-126512517D01*
X113893734Y-126718673D01*
X113893730Y-126718682D01*
X113841127Y-126914999D01*
X107909880Y-126914999D01*
X107746331Y-126838735D01*
X107746317Y-126838730D01*
X107526610Y-126779860D01*
X107526599Y-126779858D01*
X107300002Y-126760034D01*
X107299998Y-126760034D01*
X107073400Y-126779858D01*
X107073389Y-126779860D01*
X106853682Y-126838730D01*
X106853673Y-126838734D01*
X106647516Y-126934866D01*
X106647512Y-126934868D01*
X106574526Y-126985973D01*
X106574526Y-126985974D01*
X107253553Y-127665000D01*
X107247339Y-127665000D01*
X107145606Y-127692259D01*
X107054394Y-127744920D01*
X106979920Y-127819394D01*
X106927259Y-127910606D01*
X106900000Y-128012339D01*
X106900000Y-128018552D01*
X106220974Y-127339526D01*
X106220973Y-127339526D01*
X106169868Y-127412512D01*
X106169866Y-127412516D01*
X106073734Y-127618673D01*
X106073730Y-127618682D01*
X106014860Y-127838389D01*
X106014858Y-127838400D01*
X105995034Y-128064997D01*
X99637778Y-128064997D01*
X99627638Y-128057897D01*
X99511668Y-128003820D01*
X99429330Y-127965425D01*
X99429326Y-127965424D01*
X99429322Y-127965422D01*
X99217977Y-127908793D01*
X99000002Y-127889723D01*
X98999998Y-127889723D01*
X98854682Y-127902436D01*
X98782023Y-127908793D01*
X98782020Y-127908793D01*
X98570677Y-127965422D01*
X98570668Y-127965426D01*
X98372361Y-128057898D01*
X98372357Y-128057900D01*
X98193121Y-128183402D01*
X98038402Y-128338121D01*
X97912900Y-128517357D01*
X97912898Y-128517361D01*
X97820426Y-128715668D01*
X97820422Y-128715677D01*
X97763793Y-128927020D01*
X97763793Y-128927024D01*
X97749712Y-129087978D01*
X97744723Y-129145000D01*
X54114069Y-129145000D01*
X54117635Y-129131692D01*
X54135541Y-128927023D01*
X54137468Y-128905001D01*
X54137468Y-128904998D01*
X54120904Y-128715677D01*
X54117635Y-128678308D01*
X54061945Y-128470468D01*
X54058741Y-128458511D01*
X54058738Y-128458502D01*
X54029189Y-128395134D01*
X53962568Y-128252266D01*
X53832047Y-128065861D01*
X53832045Y-128065858D01*
X53671141Y-127904954D01*
X53484734Y-127774432D01*
X53484732Y-127774431D01*
X53278497Y-127678261D01*
X53278488Y-127678258D01*
X53058697Y-127619366D01*
X53058693Y-127619365D01*
X53058692Y-127619365D01*
X53058691Y-127619364D01*
X53058686Y-127619364D01*
X52832002Y-127599532D01*
X52831998Y-127599532D01*
X52605313Y-127619364D01*
X52605302Y-127619366D01*
X52385511Y-127678258D01*
X52385502Y-127678261D01*
X52179267Y-127774431D01*
X52179262Y-127774434D01*
X52166435Y-127783415D01*
X52100227Y-127805738D01*
X52032461Y-127788722D01*
X51996052Y-127756145D01*
X51993629Y-127752908D01*
X51989546Y-127747454D01*
X51989545Y-127747453D01*
X51989544Y-127747452D01*
X51874335Y-127661206D01*
X51874328Y-127661202D01*
X51739482Y-127610908D01*
X51739483Y-127610908D01*
X51679883Y-127604501D01*
X51679881Y-127604500D01*
X51679873Y-127604500D01*
X51679864Y-127604500D01*
X49984129Y-127604500D01*
X49984123Y-127604501D01*
X49924516Y-127610908D01*
X49789671Y-127661202D01*
X49789664Y-127661206D01*
X49674455Y-127747452D01*
X49674452Y-127747455D01*
X49588206Y-127862664D01*
X49588202Y-127862671D01*
X49537908Y-127997517D01*
X49531501Y-128057116D01*
X49531500Y-128057135D01*
X38951300Y-128057135D01*
X38951300Y-127264998D01*
X66814532Y-127264998D01*
X66814532Y-127265001D01*
X66834364Y-127491686D01*
X66834366Y-127491697D01*
X66893258Y-127711488D01*
X66893261Y-127711497D01*
X66989431Y-127917732D01*
X66989432Y-127917734D01*
X67119954Y-128104141D01*
X67280858Y-128265045D01*
X67280861Y-128265047D01*
X67467266Y-128395568D01*
X67673504Y-128491739D01*
X67893308Y-128550635D01*
X68055230Y-128564801D01*
X68119998Y-128570468D01*
X68120000Y-128570468D01*
X68120002Y-128570468D01*
X68176673Y-128565509D01*
X68346692Y-128550635D01*
X68566496Y-128491739D01*
X68772734Y-128395568D01*
X68959139Y-128265047D01*
X69120047Y-128104139D01*
X69250568Y-127917734D01*
X69346739Y-127711496D01*
X69405635Y-127491692D01*
X69425468Y-127265000D01*
X69405635Y-127038308D01*
X69399389Y-127014999D01*
X77001127Y-127014999D01*
X77001128Y-127015000D01*
X77964314Y-127015000D01*
X77959920Y-127019394D01*
X77907259Y-127110606D01*
X77880000Y-127212339D01*
X77880000Y-127317661D01*
X77907259Y-127419394D01*
X77959920Y-127510606D01*
X77964314Y-127515000D01*
X77001128Y-127515000D01*
X77053730Y-127711317D01*
X77053734Y-127711326D01*
X77149865Y-127917482D01*
X77280342Y-128103820D01*
X77441179Y-128264657D01*
X77627517Y-128395134D01*
X77833673Y-128491265D01*
X77833682Y-128491269D01*
X78029999Y-128543872D01*
X78030000Y-128543871D01*
X78030000Y-127580686D01*
X78034394Y-127585080D01*
X78125606Y-127637741D01*
X78227339Y-127665000D01*
X78332661Y-127665000D01*
X78434394Y-127637741D01*
X78525606Y-127585080D01*
X78530000Y-127580686D01*
X78530000Y-128543872D01*
X78726317Y-128491269D01*
X78726326Y-128491265D01*
X78932482Y-128395134D01*
X79118820Y-128264657D01*
X79279657Y-128103820D01*
X79410134Y-127917482D01*
X79506265Y-127711326D01*
X79506269Y-127711317D01*
X79558872Y-127515000D01*
X78595686Y-127515000D01*
X78600080Y-127510606D01*
X78652741Y-127419394D01*
X78680000Y-127317661D01*
X78680000Y-127212339D01*
X78652741Y-127110606D01*
X78600080Y-127019394D01*
X78595686Y-127015000D01*
X79558872Y-127015000D01*
X79558872Y-127014999D01*
X79506269Y-126818682D01*
X79506265Y-126818673D01*
X79410134Y-126612517D01*
X79404868Y-126604997D01*
X100284723Y-126604997D01*
X100284723Y-126605002D01*
X100285958Y-126619117D01*
X100303416Y-126818673D01*
X100303793Y-126822975D01*
X100303793Y-126822979D01*
X100360422Y-127034322D01*
X100360424Y-127034326D01*
X100360425Y-127034330D01*
X100367841Y-127050233D01*
X100452897Y-127232638D01*
X100452898Y-127232639D01*
X100578402Y-127411877D01*
X100733123Y-127566598D01*
X100912361Y-127692102D01*
X101110670Y-127784575D01*
X101322023Y-127841207D01*
X101504926Y-127857208D01*
X101539998Y-127860277D01*
X101540000Y-127860277D01*
X101540002Y-127860277D01*
X101568254Y-127857805D01*
X101757977Y-127841207D01*
X101969330Y-127784575D01*
X102167639Y-127692102D01*
X102346877Y-127566598D01*
X102501598Y-127411877D01*
X102627102Y-127232639D01*
X102719575Y-127034330D01*
X102776207Y-126822977D01*
X102794641Y-126612266D01*
X102795277Y-126605002D01*
X102795277Y-126604997D01*
X102784286Y-126479372D01*
X102776207Y-126387023D01*
X102719575Y-126175670D01*
X102627102Y-125977362D01*
X102627100Y-125977359D01*
X102627099Y-125977357D01*
X102501599Y-125798124D01*
X102501596Y-125798121D01*
X102346877Y-125643402D01*
X102167639Y-125517898D01*
X102167640Y-125517898D01*
X102167638Y-125517897D01*
X102025044Y-125451405D01*
X101969330Y-125425425D01*
X101969326Y-125425424D01*
X101969322Y-125425422D01*
X101757977Y-125368793D01*
X101540002Y-125349723D01*
X101539998Y-125349723D01*
X101394682Y-125362436D01*
X101322023Y-125368793D01*
X101322020Y-125368793D01*
X101110677Y-125425422D01*
X101110668Y-125425426D01*
X100912361Y-125517898D01*
X100912357Y-125517900D01*
X100733121Y-125643402D01*
X100578402Y-125798121D01*
X100452900Y-125977357D01*
X100452898Y-125977361D01*
X100360426Y-126175668D01*
X100360422Y-126175677D01*
X100303793Y-126387020D01*
X100303793Y-126387024D01*
X100284723Y-126604997D01*
X79404868Y-126604997D01*
X79279657Y-126426179D01*
X79118820Y-126265342D01*
X78932482Y-126134865D01*
X78726328Y-126038734D01*
X78530000Y-125986127D01*
X78530000Y-126949314D01*
X78525606Y-126944920D01*
X78434394Y-126892259D01*
X78332661Y-126865000D01*
X78227339Y-126865000D01*
X78125606Y-126892259D01*
X78034394Y-126944920D01*
X78030000Y-126949314D01*
X78030000Y-125986127D01*
X77833671Y-126038734D01*
X77627517Y-126134865D01*
X77441179Y-126265342D01*
X77280342Y-126426179D01*
X77149865Y-126612517D01*
X77053734Y-126818673D01*
X77053730Y-126818682D01*
X77001127Y-127014999D01*
X69399389Y-127014999D01*
X69359198Y-126865000D01*
X69346741Y-126818511D01*
X69346738Y-126818502D01*
X69328718Y-126779858D01*
X69250568Y-126612266D01*
X69120047Y-126425861D01*
X69120045Y-126425858D01*
X68959141Y-126264954D01*
X68772734Y-126134432D01*
X68772732Y-126134431D01*
X68566497Y-126038261D01*
X68566488Y-126038258D01*
X68346697Y-125979366D01*
X68346693Y-125979365D01*
X68346692Y-125979365D01*
X68346691Y-125979364D01*
X68346686Y-125979364D01*
X68120002Y-125959532D01*
X68119998Y-125959532D01*
X67893313Y-125979364D01*
X67893302Y-125979366D01*
X67673511Y-126038258D01*
X67673502Y-126038261D01*
X67467267Y-126134431D01*
X67467265Y-126134432D01*
X67280858Y-126264954D01*
X67119954Y-126425858D01*
X66989432Y-126612265D01*
X66989431Y-126612267D01*
X66893261Y-126818502D01*
X66893258Y-126818511D01*
X66834366Y-127038302D01*
X66834364Y-127038313D01*
X66814532Y-127264998D01*
X38951300Y-127264998D01*
X38951300Y-120096394D01*
X48600794Y-120096394D01*
X48600794Y-120096405D01*
X48619983Y-120327982D01*
X48677029Y-120553254D01*
X48770375Y-120766062D01*
X48884010Y-120939991D01*
X48897475Y-120960601D01*
X49054861Y-121131568D01*
X49054864Y-121131570D01*
X49054867Y-121131573D01*
X49238232Y-121274292D01*
X49238238Y-121274296D01*
X49238241Y-121274298D01*
X49442612Y-121384899D01*
X49662400Y-121460352D01*
X49891610Y-121498600D01*
X50123990Y-121498600D01*
X50353200Y-121460352D01*
X50449958Y-121427135D01*
X80699500Y-121427135D01*
X80699500Y-123722870D01*
X80699501Y-123722876D01*
X80705908Y-123782483D01*
X80756202Y-123917328D01*
X80756206Y-123917335D01*
X80842452Y-124032544D01*
X80842455Y-124032547D01*
X80957664Y-124118793D01*
X80957671Y-124118797D01*
X81092517Y-124169091D01*
X81092516Y-124169091D01*
X81099444Y-124169835D01*
X81152127Y-124175500D01*
X83447872Y-124175499D01*
X83507483Y-124169091D01*
X83642331Y-124118796D01*
X83757546Y-124032546D01*
X83843796Y-123917331D01*
X83894091Y-123782483D01*
X83900500Y-123722873D01*
X83900500Y-122715000D01*
X87894551Y-122715000D01*
X87914317Y-122966151D01*
X87973126Y-123211110D01*
X88069533Y-123443859D01*
X88201160Y-123658653D01*
X88201161Y-123658656D01*
X88229861Y-123692259D01*
X88364776Y-123850224D01*
X88443353Y-123917335D01*
X88556343Y-124013838D01*
X88556346Y-124013839D01*
X88771140Y-124145466D01*
X89003889Y-124241873D01*
X89248852Y-124300683D01*
X89500000Y-124320449D01*
X89751148Y-124300683D01*
X89996111Y-124241873D01*
X90228859Y-124145466D01*
X90443659Y-124013836D01*
X90635224Y-123850224D01*
X90798836Y-123658659D01*
X90930466Y-123443859D01*
X91003659Y-123267155D01*
X97750000Y-123267155D01*
X97750000Y-123815000D01*
X98684314Y-123815000D01*
X98679920Y-123819394D01*
X98627259Y-123910606D01*
X98600000Y-124012339D01*
X98600000Y-124117661D01*
X98627259Y-124219394D01*
X98679920Y-124310606D01*
X98684314Y-124315000D01*
X97750000Y-124315000D01*
X97750000Y-124862844D01*
X97756401Y-124922372D01*
X97756403Y-124922379D01*
X97806645Y-125057086D01*
X97806649Y-125057093D01*
X97892809Y-125172187D01*
X97892812Y-125172190D01*
X98007906Y-125258350D01*
X98007913Y-125258354D01*
X98142620Y-125308596D01*
X98142627Y-125308598D01*
X98202155Y-125314999D01*
X98202172Y-125315000D01*
X98750000Y-125315000D01*
X98750000Y-124380686D01*
X98754394Y-124385080D01*
X98845606Y-124437741D01*
X98947339Y-124465000D01*
X99052661Y-124465000D01*
X99154394Y-124437741D01*
X99245606Y-124385080D01*
X99250000Y-124380686D01*
X99250000Y-125315000D01*
X99797828Y-125315000D01*
X99797844Y-125314999D01*
X99857372Y-125308598D01*
X99857379Y-125308596D01*
X99992086Y-125258354D01*
X99992093Y-125258350D01*
X100107187Y-125172190D01*
X100107190Y-125172187D01*
X100193350Y-125057093D01*
X100193354Y-125057086D01*
X100243596Y-124922379D01*
X100243598Y-124922372D01*
X100249999Y-124862844D01*
X100250000Y-124862827D01*
X100250000Y-124315000D01*
X99315686Y-124315000D01*
X99320080Y-124310606D01*
X99372741Y-124219394D01*
X99400000Y-124117661D01*
X99400000Y-124012339D01*
X99372741Y-123910606D01*
X99320080Y-123819394D01*
X99315686Y-123815000D01*
X100250000Y-123815000D01*
X100250000Y-123267172D01*
X100249999Y-123267155D01*
X100243598Y-123207627D01*
X100243596Y-123207620D01*
X100193354Y-123072913D01*
X100193350Y-123072906D01*
X100187430Y-123064998D01*
X105994532Y-123064998D01*
X105994532Y-123065001D01*
X106014364Y-123291686D01*
X106014366Y-123291697D01*
X106073258Y-123511488D01*
X106073261Y-123511497D01*
X106169431Y-123717732D01*
X106169432Y-123717734D01*
X106299954Y-123904141D01*
X106460858Y-124065045D01*
X106460861Y-124065047D01*
X106647266Y-124195568D01*
X106853504Y-124291739D01*
X106853509Y-124291740D01*
X106853511Y-124291741D01*
X106906415Y-124305916D01*
X107073308Y-124350635D01*
X107235230Y-124364801D01*
X107299998Y-124370468D01*
X107300000Y-124370468D01*
X107300002Y-124370468D01*
X107356673Y-124365509D01*
X107526692Y-124350635D01*
X107746496Y-124291739D01*
X107952734Y-124195568D01*
X108139139Y-124065047D01*
X108300047Y-123904139D01*
X108430568Y-123717734D01*
X108526739Y-123511496D01*
X108585635Y-123291692D01*
X108605468Y-123065000D01*
X108585635Y-122838308D01*
X108526739Y-122618504D01*
X108430568Y-122412266D01*
X108300047Y-122225861D01*
X108300045Y-122225858D01*
X108139141Y-122064954D01*
X107952734Y-121934432D01*
X107952732Y-121934431D01*
X107746497Y-121838261D01*
X107746488Y-121838258D01*
X107526697Y-121779366D01*
X107526693Y-121779365D01*
X107526692Y-121779365D01*
X107526691Y-121779364D01*
X107526686Y-121779364D01*
X107300002Y-121759532D01*
X107299998Y-121759532D01*
X107073313Y-121779364D01*
X107073302Y-121779366D01*
X106853511Y-121838258D01*
X106853502Y-121838261D01*
X106647267Y-121934431D01*
X106647265Y-121934432D01*
X106460858Y-122064954D01*
X106299954Y-122225858D01*
X106169432Y-122412265D01*
X106169431Y-122412267D01*
X106073261Y-122618502D01*
X106073258Y-122618511D01*
X106014366Y-122838302D01*
X106014364Y-122838313D01*
X105994532Y-123064998D01*
X100187430Y-123064998D01*
X100107190Y-122957812D01*
X100107187Y-122957809D01*
X99992093Y-122871649D01*
X99992086Y-122871645D01*
X99857379Y-122821403D01*
X99857372Y-122821401D01*
X99797844Y-122815000D01*
X99250000Y-122815000D01*
X99250000Y-123749314D01*
X99245606Y-123744920D01*
X99154394Y-123692259D01*
X99052661Y-123665000D01*
X98947339Y-123665000D01*
X98845606Y-123692259D01*
X98754394Y-123744920D01*
X98750000Y-123749314D01*
X98750000Y-122815000D01*
X98202155Y-122815000D01*
X98142627Y-122821401D01*
X98142620Y-122821403D01*
X98007913Y-122871645D01*
X98007906Y-122871649D01*
X97892812Y-122957809D01*
X97892809Y-122957812D01*
X97806649Y-123072906D01*
X97806645Y-123072913D01*
X97756403Y-123207620D01*
X97756401Y-123207627D01*
X97750000Y-123267155D01*
X91003659Y-123267155D01*
X91026873Y-123211111D01*
X91085683Y-122966148D01*
X91105449Y-122715000D01*
X91085683Y-122463852D01*
X91026873Y-122218889D01*
X91013043Y-122185500D01*
X90930466Y-121986140D01*
X90803753Y-121779365D01*
X90798838Y-121771345D01*
X90798838Y-121771343D01*
X90724358Y-121684139D01*
X90635224Y-121579776D01*
X90508571Y-121471604D01*
X90443656Y-121416161D01*
X90443653Y-121416160D01*
X90228859Y-121284533D01*
X89996110Y-121188126D01*
X89751151Y-121129317D01*
X89500000Y-121109551D01*
X89248848Y-121129317D01*
X89003889Y-121188126D01*
X88771140Y-121284533D01*
X88556346Y-121416160D01*
X88556343Y-121416161D01*
X88364776Y-121579776D01*
X88201161Y-121771343D01*
X88201160Y-121771346D01*
X88069533Y-121986140D01*
X87973126Y-122218889D01*
X87914317Y-122463848D01*
X87894551Y-122715000D01*
X83900500Y-122715000D01*
X83900499Y-121427128D01*
X83894091Y-121367517D01*
X83865737Y-121291497D01*
X83843797Y-121232671D01*
X83843793Y-121232664D01*
X83757547Y-121117455D01*
X83757544Y-121117452D01*
X83642335Y-121031206D01*
X83642328Y-121031202D01*
X83507482Y-120980908D01*
X83507483Y-120980908D01*
X83447883Y-120974501D01*
X83447881Y-120974500D01*
X83447873Y-120974500D01*
X83447864Y-120974500D01*
X81152129Y-120974500D01*
X81152123Y-120974501D01*
X81092516Y-120980908D01*
X80957671Y-121031202D01*
X80957664Y-121031206D01*
X80842455Y-121117452D01*
X80842452Y-121117455D01*
X80756206Y-121232664D01*
X80756202Y-121232671D01*
X80705908Y-121367517D01*
X80699501Y-121427116D01*
X80699501Y-121427123D01*
X80699500Y-121427135D01*
X50449958Y-121427135D01*
X50572988Y-121384899D01*
X50777359Y-121274298D01*
X50960739Y-121131568D01*
X51118125Y-120960601D01*
X51245225Y-120766061D01*
X51338571Y-120553254D01*
X51395616Y-120327986D01*
X51411431Y-120137128D01*
X51414806Y-120096405D01*
X51414806Y-120096394D01*
X51395616Y-119864817D01*
X51395616Y-119864814D01*
X51338571Y-119639546D01*
X51245225Y-119426739D01*
X51194395Y-119348939D01*
X51118126Y-119232201D01*
X51118125Y-119232199D01*
X50960739Y-119061232D01*
X50960734Y-119061228D01*
X50960732Y-119061226D01*
X50933506Y-119040035D01*
X72003800Y-119040035D01*
X72003800Y-120481970D01*
X72003801Y-120481976D01*
X72010208Y-120541583D01*
X72060502Y-120676428D01*
X72060506Y-120676435D01*
X72146752Y-120791644D01*
X72146755Y-120791647D01*
X72261964Y-120877893D01*
X72261971Y-120877897D01*
X72396817Y-120928191D01*
X72396816Y-120928191D01*
X72403744Y-120928935D01*
X72456427Y-120934600D01*
X73898372Y-120934599D01*
X73957983Y-120928191D01*
X74092831Y-120877896D01*
X74208046Y-120791646D01*
X74294296Y-120676431D01*
X74344591Y-120541583D01*
X74351000Y-120481973D01*
X74351000Y-120137135D01*
X115409500Y-120137135D01*
X115409500Y-121732870D01*
X115409501Y-121732876D01*
X115415908Y-121792483D01*
X115466202Y-121927328D01*
X115466206Y-121927335D01*
X115552452Y-122042544D01*
X115552455Y-122042547D01*
X115667664Y-122128793D01*
X115667671Y-122128797D01*
X115802517Y-122179091D01*
X115802516Y-122179091D01*
X115809444Y-122179835D01*
X115862127Y-122185500D01*
X117457872Y-122185499D01*
X117517483Y-122179091D01*
X117652331Y-122128796D01*
X117767546Y-122042546D01*
X117853796Y-121927331D01*
X117904091Y-121792483D01*
X117910500Y-121732873D01*
X117910499Y-120844998D01*
X126094532Y-120844998D01*
X126094532Y-120845001D01*
X126114364Y-121071686D01*
X126114366Y-121071697D01*
X126173258Y-121291488D01*
X126173261Y-121291497D01*
X126269431Y-121497732D01*
X126269432Y-121497734D01*
X126399954Y-121684141D01*
X126560858Y-121845045D01*
X126560861Y-121845047D01*
X126747266Y-121975568D01*
X126953504Y-122071739D01*
X127173308Y-122130635D01*
X127335230Y-122144801D01*
X127399998Y-122150468D01*
X127405415Y-122150468D01*
X127405415Y-122152567D01*
X127464991Y-122164534D01*
X127494991Y-122186621D01*
X128569613Y-123261243D01*
X128603098Y-123322566D01*
X128605460Y-123359731D01*
X128585332Y-123589797D01*
X128585332Y-123589801D01*
X128605164Y-123816486D01*
X128605166Y-123816497D01*
X128664058Y-124036288D01*
X128664061Y-124036297D01*
X128760231Y-124242532D01*
X128760232Y-124242534D01*
X128890754Y-124428941D01*
X129051658Y-124589845D01*
X129051661Y-124589847D01*
X129238066Y-124720368D01*
X129444304Y-124816539D01*
X129664108Y-124875435D01*
X129826030Y-124889601D01*
X129890798Y-124895268D01*
X129890800Y-124895268D01*
X129890802Y-124895268D01*
X129947473Y-124890309D01*
X130117492Y-124875435D01*
X130337296Y-124816539D01*
X130543534Y-124720368D01*
X130729939Y-124589847D01*
X130786768Y-124533017D01*
X130848089Y-124499534D01*
X130874448Y-124496700D01*
X149184708Y-124496700D01*
X149251747Y-124516385D01*
X149272389Y-124533019D01*
X152188872Y-127449503D01*
X152188873Y-127449504D01*
X152333256Y-127545977D01*
X152491438Y-127611497D01*
X152493676Y-127612424D01*
X152493680Y-127612424D01*
X152493681Y-127612425D01*
X152663976Y-127646300D01*
X152663979Y-127646300D01*
X152663980Y-127646300D01*
X156594256Y-127646300D01*
X156661295Y-127665985D01*
X156703087Y-127710872D01*
X156721679Y-127744920D01*
X156778570Y-127849109D01*
X156778575Y-127849117D01*
X156950054Y-128078187D01*
X156950070Y-128078205D01*
X157152394Y-128280529D01*
X157152412Y-128280545D01*
X157381482Y-128452024D01*
X157381490Y-128452029D01*
X157632633Y-128589164D01*
X157632632Y-128589164D01*
X157632636Y-128589165D01*
X157632639Y-128589167D01*
X157900754Y-128689169D01*
X157900760Y-128689170D01*
X157900762Y-128689171D01*
X158180366Y-128749995D01*
X158180368Y-128749995D01*
X158180372Y-128749996D01*
X158434020Y-128768137D01*
X158465799Y-128770410D01*
X158465800Y-128770410D01*
X158465801Y-128770410D01*
X158494395Y-128768364D01*
X158751228Y-128749996D01*
X158900712Y-128717478D01*
X159030837Y-128689171D01*
X159030837Y-128689170D01*
X159030846Y-128689169D01*
X159298961Y-128589167D01*
X159550115Y-128452026D01*
X159779195Y-128280539D01*
X159981539Y-128078195D01*
X160153026Y-127849115D01*
X160290167Y-127597961D01*
X160390169Y-127329846D01*
X160450996Y-127050228D01*
X160471410Y-126764800D01*
X160450996Y-126479372D01*
X160439425Y-126426179D01*
X160390169Y-126199752D01*
X160387405Y-126192343D01*
X160382418Y-126122651D01*
X160415899Y-126061329D01*
X178332304Y-108144925D01*
X178428774Y-108000548D01*
X178495223Y-107840125D01*
X178529099Y-107669822D01*
X178529099Y-107496181D01*
X178529099Y-104552891D01*
X178548784Y-104485852D01*
X178576937Y-104455037D01*
X178600538Y-104436668D01*
X178757924Y-104265701D01*
X178885024Y-104071161D01*
X178978370Y-103858354D01*
X179035415Y-103633086D01*
X179054605Y-103401500D01*
X179035415Y-103169914D01*
X178978370Y-102944646D01*
X178885024Y-102731839D01*
X178757924Y-102537299D01*
X178600538Y-102366332D01*
X178600533Y-102366328D01*
X178600531Y-102366326D01*
X178417166Y-102223607D01*
X178417160Y-102223603D01*
X178212787Y-102113001D01*
X178212779Y-102112998D01*
X177993001Y-102037548D01*
X177763789Y-101999300D01*
X177531409Y-101999300D01*
X177302196Y-102037548D01*
X177082418Y-102112998D01*
X177082410Y-102113001D01*
X176878037Y-102223603D01*
X176878031Y-102223607D01*
X176694666Y-102366326D01*
X176694663Y-102366329D01*
X176537275Y-102537297D01*
X176537272Y-102537301D01*
X176410174Y-102731837D01*
X176316828Y-102944645D01*
X176259782Y-103169917D01*
X176240593Y-103401494D01*
X176240593Y-103401505D01*
X176259782Y-103633082D01*
X176316828Y-103858354D01*
X176410174Y-104071162D01*
X176504542Y-104215601D01*
X176537274Y-104265701D01*
X176694660Y-104436668D01*
X176718261Y-104455037D01*
X176759074Y-104511748D01*
X176766099Y-104552891D01*
X176766099Y-107166508D01*
X176746414Y-107233547D01*
X176729780Y-107254189D01*
X159169273Y-124814695D01*
X159107950Y-124848180D01*
X159038259Y-124843196D01*
X159030846Y-124840431D01*
X159030845Y-124840430D01*
X159030843Y-124840430D01*
X158751233Y-124779604D01*
X158465801Y-124759190D01*
X158465799Y-124759190D01*
X158180366Y-124779604D01*
X157900762Y-124840428D01*
X157632633Y-124940435D01*
X157381490Y-125077570D01*
X157381482Y-125077575D01*
X157152412Y-125249054D01*
X157152394Y-125249070D01*
X156950070Y-125451394D01*
X156950054Y-125451412D01*
X156778575Y-125680482D01*
X156778570Y-125680490D01*
X156703088Y-125818727D01*
X156653683Y-125868132D01*
X156594256Y-125883300D01*
X153167292Y-125883300D01*
X153100253Y-125863615D01*
X153079611Y-125846981D01*
X150163127Y-122930496D01*
X150163126Y-122930495D01*
X150018743Y-122834022D01*
X149858328Y-122767577D01*
X149858318Y-122767574D01*
X149688023Y-122733700D01*
X149688021Y-122733700D01*
X149688020Y-122733700D01*
X130925248Y-122733700D01*
X130858209Y-122714015D01*
X130837571Y-122697385D01*
X130729939Y-122589753D01*
X130729938Y-122589752D01*
X130729937Y-122589751D01*
X130543534Y-122459232D01*
X130543532Y-122459231D01*
X130337297Y-122363061D01*
X130337291Y-122363059D01*
X130133605Y-122308482D01*
X130078018Y-122276388D01*
X128741621Y-120939991D01*
X128708136Y-120878668D01*
X128706342Y-120850415D01*
X128705468Y-120850415D01*
X128705468Y-120844998D01*
X128690720Y-120676428D01*
X128685635Y-120618308D01*
X128626739Y-120398504D01*
X128530568Y-120192266D01*
X128400047Y-120005861D01*
X128400045Y-120005858D01*
X128239141Y-119844954D01*
X128052734Y-119714432D01*
X128052732Y-119714431D01*
X127846497Y-119618261D01*
X127846488Y-119618258D01*
X127626697Y-119559366D01*
X127626693Y-119559365D01*
X127626692Y-119559365D01*
X127626691Y-119559364D01*
X127626686Y-119559364D01*
X127400002Y-119539532D01*
X127399998Y-119539532D01*
X127173313Y-119559364D01*
X127173302Y-119559366D01*
X126953511Y-119618258D01*
X126953502Y-119618261D01*
X126747267Y-119714431D01*
X126747265Y-119714432D01*
X126560858Y-119844954D01*
X126399954Y-120005858D01*
X126269432Y-120192265D01*
X126269431Y-120192267D01*
X126173261Y-120398502D01*
X126173258Y-120398511D01*
X126114366Y-120618302D01*
X126114364Y-120618313D01*
X126094532Y-120844998D01*
X117910499Y-120844998D01*
X117910499Y-120137128D01*
X117904091Y-120077517D01*
X117853796Y-119942669D01*
X117853795Y-119942668D01*
X117853793Y-119942664D01*
X117767547Y-119827455D01*
X117767544Y-119827452D01*
X117652335Y-119741206D01*
X117652328Y-119741202D01*
X117517482Y-119690908D01*
X117517483Y-119690908D01*
X117457883Y-119684501D01*
X117457881Y-119684500D01*
X117457873Y-119684500D01*
X117457864Y-119684500D01*
X115862129Y-119684500D01*
X115862123Y-119684501D01*
X115802516Y-119690908D01*
X115667671Y-119741202D01*
X115667664Y-119741206D01*
X115552455Y-119827452D01*
X115552452Y-119827455D01*
X115466206Y-119942664D01*
X115466202Y-119942671D01*
X115415908Y-120077517D01*
X115413878Y-120096405D01*
X115409501Y-120137123D01*
X115409500Y-120137135D01*
X74351000Y-120137135D01*
X74350999Y-119040028D01*
X74344591Y-118980417D01*
X74335594Y-118956296D01*
X74294297Y-118845571D01*
X74294293Y-118845564D01*
X74208047Y-118730355D01*
X74208044Y-118730352D01*
X74092835Y-118644106D01*
X74092828Y-118644102D01*
X73957982Y-118593808D01*
X73957983Y-118593808D01*
X73898383Y-118587401D01*
X73898381Y-118587400D01*
X73898373Y-118587400D01*
X73898364Y-118587400D01*
X72456429Y-118587400D01*
X72456423Y-118587401D01*
X72396816Y-118593808D01*
X72261971Y-118644102D01*
X72261964Y-118644106D01*
X72146755Y-118730352D01*
X72146752Y-118730355D01*
X72060506Y-118845564D01*
X72060502Y-118845571D01*
X72010208Y-118980417D01*
X72005669Y-119022639D01*
X72003801Y-119040023D01*
X72003800Y-119040035D01*
X50933506Y-119040035D01*
X50777367Y-118918507D01*
X50777361Y-118918503D01*
X50572988Y-118807901D01*
X50572980Y-118807898D01*
X50353202Y-118732448D01*
X50123990Y-118694200D01*
X49891610Y-118694200D01*
X49662397Y-118732448D01*
X49442619Y-118807898D01*
X49442611Y-118807901D01*
X49238238Y-118918503D01*
X49238232Y-118918507D01*
X49054867Y-119061226D01*
X49054864Y-119061229D01*
X48897476Y-119232197D01*
X48897473Y-119232201D01*
X48770375Y-119426737D01*
X48677029Y-119639545D01*
X48619983Y-119864817D01*
X48600794Y-120096394D01*
X38951300Y-120096394D01*
X38951300Y-118509798D01*
X91755332Y-118509798D01*
X91755332Y-118509801D01*
X91775164Y-118736486D01*
X91775166Y-118736497D01*
X91834058Y-118956288D01*
X91834061Y-118956297D01*
X91930231Y-119162532D01*
X91930232Y-119162534D01*
X92060754Y-119348941D01*
X92221658Y-119509845D01*
X92221661Y-119509847D01*
X92408066Y-119640368D01*
X92614304Y-119736539D01*
X92614309Y-119736540D01*
X92614311Y-119736541D01*
X92667215Y-119750716D01*
X92834108Y-119795435D01*
X92996030Y-119809601D01*
X93060798Y-119815268D01*
X93060800Y-119815268D01*
X93060802Y-119815268D01*
X93117473Y-119810309D01*
X93287492Y-119795435D01*
X93507296Y-119736539D01*
X93713534Y-119640368D01*
X93899939Y-119509847D01*
X94060847Y-119348939D01*
X94191368Y-119162534D01*
X94287539Y-118956296D01*
X94346435Y-118736492D01*
X94366268Y-118509800D01*
X94366268Y-118509798D01*
X101915332Y-118509798D01*
X101915332Y-118509801D01*
X101935164Y-118736486D01*
X101935166Y-118736497D01*
X101994058Y-118956288D01*
X101994061Y-118956297D01*
X102090231Y-119162532D01*
X102090232Y-119162534D01*
X102220754Y-119348941D01*
X102381658Y-119509845D01*
X102381661Y-119509847D01*
X102568066Y-119640368D01*
X102774304Y-119736539D01*
X102774309Y-119736540D01*
X102774311Y-119736541D01*
X102827215Y-119750716D01*
X102994108Y-119795435D01*
X103156030Y-119809601D01*
X103220798Y-119815268D01*
X103220800Y-119815268D01*
X103220802Y-119815268D01*
X103277473Y-119810309D01*
X103447492Y-119795435D01*
X103667296Y-119736539D01*
X103873534Y-119640368D01*
X104059939Y-119509847D01*
X104220847Y-119348939D01*
X104351368Y-119162534D01*
X104447539Y-118956296D01*
X104506435Y-118736492D01*
X104526268Y-118509800D01*
X104516224Y-118394997D01*
X112864723Y-118394997D01*
X112864723Y-118395002D01*
X112866729Y-118417928D01*
X112881555Y-118587401D01*
X112883793Y-118612975D01*
X112883793Y-118612979D01*
X112940422Y-118824322D01*
X112940424Y-118824326D01*
X112940425Y-118824330D01*
X112950327Y-118845564D01*
X113032897Y-119022638D01*
X113045079Y-119040035D01*
X113158402Y-119201877D01*
X113313123Y-119356598D01*
X113492361Y-119482102D01*
X113690670Y-119574575D01*
X113902023Y-119631207D01*
X114084926Y-119647208D01*
X114119998Y-119650277D01*
X114120000Y-119650277D01*
X114120002Y-119650277D01*
X114148254Y-119647805D01*
X114337977Y-119631207D01*
X114549330Y-119574575D01*
X114747639Y-119482102D01*
X114926877Y-119356598D01*
X115081598Y-119201877D01*
X115207102Y-119022639D01*
X115299575Y-118824330D01*
X115356207Y-118612977D01*
X115375277Y-118395000D01*
X115375198Y-118394100D01*
X115362383Y-118247620D01*
X115356207Y-118177023D01*
X115299575Y-117965670D01*
X115207102Y-117767362D01*
X115207100Y-117767359D01*
X115207099Y-117767357D01*
X115081599Y-117588124D01*
X115033303Y-117539828D01*
X114926877Y-117433402D01*
X114747639Y-117307898D01*
X114747640Y-117307898D01*
X114747638Y-117307897D01*
X114648484Y-117261661D01*
X114549330Y-117215425D01*
X114549326Y-117215424D01*
X114549322Y-117215422D01*
X114337977Y-117158793D01*
X114120002Y-117139723D01*
X114119998Y-117139723D01*
X113974682Y-117152436D01*
X113902023Y-117158793D01*
X113902020Y-117158793D01*
X113690677Y-117215422D01*
X113690670Y-117215424D01*
X113690670Y-117215425D01*
X113678712Y-117221001D01*
X113492361Y-117307898D01*
X113492357Y-117307900D01*
X113313121Y-117433402D01*
X113158402Y-117588121D01*
X113032900Y-117767357D01*
X113032898Y-117767361D01*
X112940426Y-117965668D01*
X112940422Y-117965677D01*
X112883793Y-118177020D01*
X112883793Y-118177024D01*
X112864723Y-118394997D01*
X104516224Y-118394997D01*
X104506435Y-118283108D01*
X104447539Y-118063304D01*
X104351368Y-117857066D01*
X104220847Y-117670661D01*
X104220845Y-117670658D01*
X104059941Y-117509754D01*
X103873534Y-117379232D01*
X103873532Y-117379231D01*
X103667297Y-117283061D01*
X103667288Y-117283058D01*
X103447497Y-117224166D01*
X103447493Y-117224165D01*
X103447492Y-117224165D01*
X103447491Y-117224164D01*
X103447486Y-117224164D01*
X103220802Y-117204332D01*
X103220798Y-117204332D01*
X102994113Y-117224164D01*
X102994102Y-117224166D01*
X102774311Y-117283058D01*
X102774302Y-117283061D01*
X102568067Y-117379231D01*
X102568065Y-117379232D01*
X102381658Y-117509754D01*
X102220754Y-117670658D01*
X102090232Y-117857065D01*
X102090231Y-117857067D01*
X101994061Y-118063302D01*
X101994058Y-118063311D01*
X101935166Y-118283102D01*
X101935164Y-118283113D01*
X101915332Y-118509798D01*
X94366268Y-118509798D01*
X94346435Y-118283108D01*
X94287539Y-118063304D01*
X94191368Y-117857066D01*
X94060847Y-117670661D01*
X94060845Y-117670658D01*
X93899941Y-117509754D01*
X93713534Y-117379232D01*
X93713532Y-117379231D01*
X93507297Y-117283061D01*
X93507288Y-117283058D01*
X93287497Y-117224166D01*
X93287493Y-117224165D01*
X93287492Y-117224165D01*
X93287491Y-117224164D01*
X93287486Y-117224164D01*
X93060802Y-117204332D01*
X93060798Y-117204332D01*
X92834113Y-117224164D01*
X92834102Y-117224166D01*
X92614311Y-117283058D01*
X92614302Y-117283061D01*
X92408067Y-117379231D01*
X92408065Y-117379232D01*
X92221658Y-117509754D01*
X92060754Y-117670658D01*
X91930232Y-117857065D01*
X91930231Y-117857067D01*
X91834061Y-118063302D01*
X91834058Y-118063311D01*
X91775166Y-118283102D01*
X91775164Y-118283113D01*
X91755332Y-118509798D01*
X38951300Y-118509798D01*
X38951300Y-117220999D01*
X69459274Y-117220999D01*
X69459274Y-117221000D01*
X69479333Y-117437475D01*
X69538831Y-117646591D01*
X69635738Y-117841205D01*
X69647743Y-117857101D01*
X70220491Y-117284355D01*
X70246861Y-117382766D01*
X70302037Y-117478333D01*
X70380067Y-117556363D01*
X70475634Y-117611539D01*
X70574044Y-117637908D01*
X70003611Y-118208339D01*
X70112263Y-118275614D01*
X70112264Y-118275615D01*
X70314988Y-118354150D01*
X70528698Y-118394100D01*
X70746102Y-118394100D01*
X70959816Y-118354149D01*
X71162535Y-118275615D01*
X71162539Y-118275613D01*
X71271186Y-118208340D01*
X71271186Y-118208339D01*
X70700756Y-117637908D01*
X70799166Y-117611539D01*
X70894733Y-117556363D01*
X70972763Y-117478333D01*
X71027939Y-117382766D01*
X71054308Y-117284356D01*
X71627053Y-117857101D01*
X71627055Y-117857101D01*
X71639062Y-117841203D01*
X71735968Y-117646591D01*
X71795466Y-117437475D01*
X71815526Y-117221000D01*
X71815526Y-117220999D01*
X71795466Y-117004524D01*
X71735968Y-116795408D01*
X71639062Y-116600796D01*
X71639059Y-116600792D01*
X71627054Y-116584896D01*
X71054308Y-117157643D01*
X71027939Y-117059234D01*
X70972763Y-116963667D01*
X70894733Y-116885637D01*
X70799166Y-116830461D01*
X70700755Y-116804091D01*
X71271187Y-116233659D01*
X71162537Y-116166385D01*
X71162535Y-116166384D01*
X70959811Y-116087849D01*
X70746102Y-116047900D01*
X70528698Y-116047900D01*
X70314988Y-116087849D01*
X70112266Y-116166383D01*
X70112260Y-116166386D01*
X70003612Y-116233658D01*
X70003611Y-116233659D01*
X70574044Y-116804091D01*
X70475634Y-116830461D01*
X70380067Y-116885637D01*
X70302037Y-116963667D01*
X70246861Y-117059234D01*
X70220491Y-117157643D01*
X69647744Y-116584896D01*
X69635741Y-116600790D01*
X69635733Y-116600803D01*
X69538831Y-116795408D01*
X69479333Y-117004524D01*
X69459274Y-117220999D01*
X38951300Y-117220999D01*
X38951300Y-115096394D01*
X48600794Y-115096394D01*
X48600794Y-115096405D01*
X48619983Y-115327982D01*
X48677029Y-115553254D01*
X48770375Y-115766062D01*
X48842033Y-115875741D01*
X48897475Y-115960601D01*
X49054861Y-116131568D01*
X49054864Y-116131570D01*
X49054867Y-116131573D01*
X49238232Y-116274292D01*
X49238238Y-116274296D01*
X49238241Y-116274298D01*
X49442612Y-116384899D01*
X49662400Y-116460352D01*
X49891610Y-116498600D01*
X50123990Y-116498600D01*
X50353200Y-116460352D01*
X50572988Y-116384899D01*
X50777359Y-116274298D01*
X50791441Y-116263338D01*
X50906298Y-116173941D01*
X50960739Y-116131568D01*
X51118125Y-115960601D01*
X51245225Y-115766061D01*
X51338571Y-115553254D01*
X51395616Y-115327986D01*
X51404144Y-115225058D01*
X51414806Y-115096405D01*
X51414806Y-115096394D01*
X51398322Y-114897475D01*
X51395616Y-114864814D01*
X51349068Y-114680999D01*
X71999274Y-114680999D01*
X71999274Y-114681000D01*
X72019333Y-114897475D01*
X72078831Y-115106591D01*
X72175738Y-115301205D01*
X72187743Y-115317101D01*
X72760491Y-114744355D01*
X72786861Y-114842766D01*
X72842037Y-114938333D01*
X72920067Y-115016363D01*
X73015634Y-115071539D01*
X73114044Y-115097908D01*
X72543611Y-115668339D01*
X72652263Y-115735614D01*
X72652264Y-115735615D01*
X72854988Y-115814150D01*
X73068698Y-115854100D01*
X73286102Y-115854100D01*
X73499816Y-115814149D01*
X73702535Y-115735615D01*
X73702539Y-115735613D01*
X73811186Y-115668340D01*
X73811186Y-115668339D01*
X73477646Y-115334798D01*
X88580332Y-115334798D01*
X88580332Y-115334801D01*
X88600164Y-115561486D01*
X88600166Y-115561497D01*
X88659058Y-115781288D01*
X88659061Y-115781297D01*
X88755231Y-115987532D01*
X88755232Y-115987534D01*
X88885754Y-116173941D01*
X89046658Y-116334845D01*
X89046661Y-116334847D01*
X89233066Y-116465368D01*
X89439304Y-116561539D01*
X89659108Y-116620435D01*
X89821030Y-116634601D01*
X89885798Y-116640268D01*
X89885800Y-116640268D01*
X89885802Y-116640268D01*
X89942473Y-116635309D01*
X90112492Y-116620435D01*
X90332296Y-116561539D01*
X90538534Y-116465368D01*
X90724939Y-116334847D01*
X90885847Y-116173939D01*
X91016368Y-115987534D01*
X91078171Y-115854997D01*
X115404723Y-115854997D01*
X115404723Y-115855002D01*
X115413961Y-115960598D01*
X115420614Y-116036645D01*
X115423793Y-116072975D01*
X115423793Y-116072979D01*
X115480422Y-116284322D01*
X115480424Y-116284326D01*
X115480425Y-116284330D01*
X115507349Y-116342068D01*
X115572897Y-116482638D01*
X115597998Y-116518486D01*
X115698402Y-116661877D01*
X115853123Y-116816598D01*
X116032361Y-116942102D01*
X116230670Y-117034575D01*
X116442023Y-117091207D01*
X116624926Y-117107208D01*
X116659998Y-117110277D01*
X116660000Y-117110277D01*
X116660002Y-117110277D01*
X116688254Y-117107805D01*
X116877977Y-117091207D01*
X117089330Y-117034575D01*
X117287639Y-116942102D01*
X117466877Y-116816598D01*
X117621598Y-116661877D01*
X117747102Y-116482639D01*
X117839575Y-116284330D01*
X117896207Y-116072977D01*
X117915277Y-115855000D01*
X117915198Y-115854100D01*
X117900783Y-115689332D01*
X117896207Y-115637023D01*
X117839575Y-115425670D01*
X117747102Y-115227362D01*
X117747100Y-115227359D01*
X117747099Y-115227357D01*
X117621599Y-115048124D01*
X117560369Y-114986894D01*
X117466877Y-114893402D01*
X117328978Y-114796844D01*
X117287638Y-114767897D01*
X117139672Y-114698900D01*
X117089330Y-114675425D01*
X117089326Y-114675424D01*
X117089322Y-114675422D01*
X116877977Y-114618793D01*
X116660002Y-114599723D01*
X116659998Y-114599723D01*
X116514682Y-114612436D01*
X116442023Y-114618793D01*
X116442020Y-114618793D01*
X116230677Y-114675422D01*
X116230670Y-114675424D01*
X116230670Y-114675425D01*
X116218712Y-114681001D01*
X116032361Y-114767898D01*
X116032357Y-114767900D01*
X115853121Y-114893402D01*
X115698402Y-115048121D01*
X115572900Y-115227357D01*
X115572898Y-115227361D01*
X115480426Y-115425668D01*
X115480422Y-115425677D01*
X115423793Y-115637020D01*
X115423793Y-115637024D01*
X115404723Y-115854997D01*
X91078171Y-115854997D01*
X91112539Y-115781296D01*
X91171435Y-115561492D01*
X91191268Y-115334800D01*
X91186912Y-115285016D01*
X91175114Y-115150164D01*
X91171435Y-115108108D01*
X91112539Y-114888304D01*
X91016368Y-114682066D01*
X90885847Y-114495661D01*
X90885845Y-114495658D01*
X90724941Y-114334754D01*
X90538534Y-114204232D01*
X90538532Y-114204231D01*
X90332297Y-114108061D01*
X90332288Y-114108058D01*
X90112497Y-114049166D01*
X90112493Y-114049165D01*
X90112492Y-114049165D01*
X90112491Y-114049164D01*
X90112486Y-114049164D01*
X89885802Y-114029332D01*
X89885798Y-114029332D01*
X89659113Y-114049164D01*
X89659102Y-114049166D01*
X89439311Y-114108058D01*
X89439302Y-114108061D01*
X89233067Y-114204231D01*
X89233065Y-114204232D01*
X89046658Y-114334754D01*
X88885754Y-114495658D01*
X88755232Y-114682065D01*
X88755231Y-114682067D01*
X88659061Y-114888302D01*
X88659058Y-114888311D01*
X88600166Y-115108102D01*
X88600164Y-115108113D01*
X88580332Y-115334798D01*
X73477646Y-115334798D01*
X73240756Y-115097908D01*
X73339166Y-115071539D01*
X73434733Y-115016363D01*
X73512763Y-114938333D01*
X73567939Y-114842766D01*
X73594308Y-114744356D01*
X74167053Y-115317101D01*
X74167055Y-115317101D01*
X74179062Y-115301203D01*
X74275968Y-115106591D01*
X74335466Y-114897475D01*
X74355526Y-114681000D01*
X74355526Y-114680999D01*
X74335466Y-114464524D01*
X74275968Y-114255408D01*
X74179062Y-114060796D01*
X74179059Y-114060792D01*
X74167054Y-114044896D01*
X73594308Y-114617643D01*
X73567939Y-114519234D01*
X73512763Y-114423667D01*
X73434733Y-114345637D01*
X73339166Y-114290461D01*
X73240755Y-114264091D01*
X73811187Y-113693659D01*
X73702537Y-113626385D01*
X73702535Y-113626384D01*
X73499811Y-113547849D01*
X73286102Y-113507900D01*
X73068698Y-113507900D01*
X72854988Y-113547849D01*
X72652266Y-113626383D01*
X72652260Y-113626386D01*
X72543612Y-113693658D01*
X72543611Y-113693659D01*
X73114044Y-114264091D01*
X73015634Y-114290461D01*
X72920067Y-114345637D01*
X72842037Y-114423667D01*
X72786861Y-114519234D01*
X72760491Y-114617643D01*
X72187744Y-114044896D01*
X72175741Y-114060790D01*
X72175733Y-114060803D01*
X72078831Y-114255408D01*
X72019333Y-114464524D01*
X71999274Y-114680999D01*
X51349068Y-114680999D01*
X51338571Y-114639546D01*
X51245225Y-114426739D01*
X51118125Y-114232199D01*
X50960739Y-114061232D01*
X50960734Y-114061228D01*
X50960732Y-114061226D01*
X50777367Y-113918507D01*
X50777361Y-113918503D01*
X50572988Y-113807901D01*
X50572980Y-113807898D01*
X50353202Y-113732448D01*
X50123990Y-113694200D01*
X49891610Y-113694200D01*
X49662397Y-113732448D01*
X49442619Y-113807898D01*
X49442611Y-113807901D01*
X49238238Y-113918503D01*
X49238232Y-113918507D01*
X49054867Y-114061226D01*
X49054864Y-114061229D01*
X48897476Y-114232197D01*
X48897473Y-114232201D01*
X48770375Y-114426737D01*
X48677029Y-114639545D01*
X48619983Y-114864817D01*
X48600794Y-115096394D01*
X38951300Y-115096394D01*
X38951300Y-112414998D01*
X80694551Y-112414998D01*
X80714317Y-112666151D01*
X80773126Y-112911110D01*
X80869533Y-113143859D01*
X81001160Y-113358653D01*
X81001161Y-113358656D01*
X81001164Y-113358659D01*
X81164776Y-113550224D01*
X81313066Y-113676875D01*
X81356343Y-113713838D01*
X81356346Y-113713839D01*
X81571140Y-113845466D01*
X81749523Y-113919354D01*
X81803889Y-113941873D01*
X82048852Y-114000683D01*
X82300000Y-114020449D01*
X82551148Y-114000683D01*
X82796111Y-113941873D01*
X83028859Y-113845466D01*
X83243659Y-113713836D01*
X83435224Y-113550224D01*
X83598836Y-113358659D01*
X83730466Y-113143859D01*
X83826873Y-112911111D01*
X83885683Y-112666148D01*
X83905449Y-112415000D01*
X83885683Y-112163852D01*
X83826873Y-111918889D01*
X83823911Y-111911738D01*
X83730466Y-111686140D01*
X83598839Y-111471346D01*
X83598838Y-111471343D01*
X83561875Y-111428066D01*
X83435224Y-111279776D01*
X83254005Y-111125000D01*
X83254001Y-111124997D01*
X100606723Y-111124997D01*
X100606723Y-111125002D01*
X100625793Y-111342975D01*
X100625793Y-111342979D01*
X100682422Y-111554322D01*
X100682424Y-111554326D01*
X100682425Y-111554330D01*
X100705036Y-111602819D01*
X100774897Y-111752638D01*
X100774898Y-111752639D01*
X100900402Y-111931877D01*
X101055123Y-112086598D01*
X101234361Y-112212102D01*
X101432670Y-112304575D01*
X101644023Y-112361207D01*
X101826926Y-112377208D01*
X101861998Y-112380277D01*
X101862000Y-112380277D01*
X101862002Y-112380277D01*
X101890254Y-112377805D01*
X102079977Y-112361207D01*
X102291330Y-112304575D01*
X102489639Y-112212102D01*
X102668877Y-112086598D01*
X102823598Y-111931877D01*
X102949102Y-111752639D01*
X103041575Y-111554330D01*
X103098207Y-111342977D01*
X103117277Y-111125000D01*
X103098207Y-110907023D01*
X103041575Y-110695670D01*
X102949102Y-110497362D01*
X102949100Y-110497359D01*
X102949099Y-110497357D01*
X102823599Y-110318124D01*
X102823596Y-110318121D01*
X102668877Y-110163402D01*
X102489639Y-110037898D01*
X102489640Y-110037898D01*
X102489638Y-110037897D01*
X102390484Y-109991661D01*
X102291330Y-109945425D01*
X102291326Y-109945424D01*
X102291322Y-109945422D01*
X102079977Y-109888793D01*
X101862002Y-109869723D01*
X101861998Y-109869723D01*
X101716682Y-109882436D01*
X101644023Y-109888793D01*
X101644020Y-109888793D01*
X101432677Y-109945422D01*
X101432668Y-109945426D01*
X101234361Y-110037898D01*
X101234357Y-110037900D01*
X101055121Y-110163402D01*
X100900402Y-110318121D01*
X100774900Y-110497357D01*
X100774898Y-110497361D01*
X100682426Y-110695668D01*
X100682422Y-110695677D01*
X100625793Y-110907020D01*
X100625793Y-110907024D01*
X100606723Y-111124997D01*
X83254001Y-111124997D01*
X83243656Y-111116161D01*
X83243653Y-111116160D01*
X83028859Y-110984533D01*
X82796110Y-110888126D01*
X82551151Y-110829317D01*
X82300000Y-110809551D01*
X82048848Y-110829317D01*
X81803889Y-110888126D01*
X81571140Y-110984533D01*
X81356346Y-111116160D01*
X81356343Y-111116161D01*
X81164776Y-111279776D01*
X81001161Y-111471343D01*
X81001160Y-111471346D01*
X80869533Y-111686140D01*
X80773126Y-111918889D01*
X80714317Y-112163848D01*
X80694551Y-112414998D01*
X38951300Y-112414998D01*
X38951300Y-108584997D01*
X103146723Y-108584997D01*
X103146723Y-108585002D01*
X103165793Y-108802975D01*
X103165793Y-108802979D01*
X103222422Y-109014322D01*
X103222424Y-109014326D01*
X103222425Y-109014330D01*
X103268661Y-109113484D01*
X103314897Y-109212638D01*
X103314898Y-109212639D01*
X103440402Y-109391877D01*
X103595123Y-109546598D01*
X103774361Y-109672102D01*
X103972670Y-109764575D01*
X103972676Y-109764576D01*
X103972677Y-109764577D01*
X104003364Y-109772799D01*
X104184023Y-109821207D01*
X104366926Y-109837208D01*
X104401998Y-109840277D01*
X104402000Y-109840277D01*
X104402002Y-109840277D01*
X104435182Y-109837374D01*
X104619977Y-109821207D01*
X104831330Y-109764575D01*
X105029639Y-109672102D01*
X105208877Y-109546598D01*
X105363598Y-109391877D01*
X105489102Y-109212639D01*
X105581575Y-109014330D01*
X105638207Y-108802977D01*
X105657277Y-108585000D01*
X105638207Y-108367023D01*
X105581575Y-108155670D01*
X105489102Y-107957362D01*
X105489100Y-107957359D01*
X105489099Y-107957357D01*
X105363599Y-107778124D01*
X105363596Y-107778121D01*
X105208877Y-107623402D01*
X105029639Y-107497898D01*
X105029640Y-107497898D01*
X105029638Y-107497897D01*
X104930484Y-107451661D01*
X104831330Y-107405425D01*
X104831326Y-107405424D01*
X104831322Y-107405422D01*
X104619977Y-107348793D01*
X104402002Y-107329723D01*
X104401998Y-107329723D01*
X104256682Y-107342436D01*
X104184023Y-107348793D01*
X104184020Y-107348793D01*
X103972677Y-107405422D01*
X103972668Y-107405426D01*
X103774361Y-107497898D01*
X103774357Y-107497900D01*
X103595121Y-107623402D01*
X103440402Y-107778121D01*
X103314900Y-107957357D01*
X103314898Y-107957361D01*
X103222426Y-108155668D01*
X103222422Y-108155677D01*
X103165793Y-108367020D01*
X103165793Y-108367024D01*
X103146723Y-108584997D01*
X38951300Y-108584997D01*
X38951300Y-105079794D01*
X74843794Y-105079794D01*
X74843794Y-105079805D01*
X74862983Y-105311382D01*
X74920029Y-105536654D01*
X75013375Y-105749462D01*
X75140473Y-105943998D01*
X75140475Y-105944001D01*
X75297861Y-106114968D01*
X75297864Y-106114970D01*
X75297867Y-106114973D01*
X75481232Y-106257692D01*
X75481238Y-106257696D01*
X75481241Y-106257698D01*
X75685612Y-106368299D01*
X75890221Y-106438541D01*
X75899227Y-106441633D01*
X75905400Y-106443752D01*
X76134610Y-106482000D01*
X76366990Y-106482000D01*
X76596200Y-106443752D01*
X76815988Y-106368299D01*
X76861173Y-106343845D01*
X76920191Y-106328900D01*
X89256040Y-106328900D01*
X89308444Y-106340517D01*
X89439304Y-106401539D01*
X89659108Y-106460435D01*
X89821030Y-106474601D01*
X89885798Y-106480268D01*
X89885800Y-106480268D01*
X89885802Y-106480268D01*
X89942473Y-106475309D01*
X90112492Y-106460435D01*
X90332296Y-106401539D01*
X90538534Y-106305368D01*
X90538534Y-106305367D01*
X90543359Y-106303118D01*
X90595764Y-106291500D01*
X95621753Y-106291500D01*
X95674157Y-106303117D01*
X95844904Y-106382739D01*
X96064708Y-106441635D01*
X96226630Y-106455801D01*
X96291398Y-106461468D01*
X96291400Y-106461468D01*
X96291402Y-106461468D01*
X96348073Y-106456509D01*
X96518092Y-106441635D01*
X96737896Y-106382739D01*
X96944134Y-106286568D01*
X97035026Y-106222924D01*
X97101232Y-106200598D01*
X97106149Y-106200500D01*
X137568964Y-106200500D01*
X137568966Y-106200500D01*
X137648605Y-106187886D01*
X137687395Y-106187886D01*
X137767034Y-106200500D01*
X137945766Y-106200500D01*
X139978299Y-106200500D01*
X140045338Y-106220185D01*
X140065979Y-106236818D01*
X145960271Y-112131111D01*
X146068718Y-112209903D01*
X146104869Y-112236168D01*
X146187708Y-112278375D01*
X146264119Y-112317309D01*
X146305802Y-112330851D01*
X146305804Y-112330853D01*
X146305805Y-112330853D01*
X146337880Y-112341275D01*
X146434103Y-112372541D01*
X146509759Y-112384523D01*
X146610630Y-112400500D01*
X146610634Y-112400500D01*
X150703100Y-112400500D01*
X150770139Y-112420185D01*
X150775985Y-112424182D01*
X150790437Y-112434682D01*
X150833103Y-112490012D01*
X150839082Y-112559625D01*
X150806476Y-112621420D01*
X150790438Y-112635318D01*
X150705932Y-112696715D01*
X150544216Y-112858431D01*
X150544216Y-112858432D01*
X150544214Y-112858434D01*
X150531299Y-112876210D01*
X150409783Y-113043461D01*
X150305950Y-113247244D01*
X150235278Y-113464750D01*
X150235278Y-113464753D01*
X150199500Y-113690646D01*
X150199500Y-113919353D01*
X150235278Y-114145246D01*
X150235278Y-114145249D01*
X150305950Y-114362755D01*
X150356968Y-114462883D01*
X150409783Y-114566538D01*
X150542525Y-114749242D01*
X150566005Y-114815046D01*
X150550180Y-114883100D01*
X150500074Y-114931795D01*
X150485541Y-114938308D01*
X150457670Y-114948703D01*
X150457664Y-114948706D01*
X150342455Y-115034952D01*
X150342452Y-115034955D01*
X150256206Y-115150164D01*
X150256202Y-115150171D01*
X150205908Y-115285017D01*
X150200556Y-115334801D01*
X150199501Y-115344623D01*
X150199500Y-115344635D01*
X150199500Y-117345370D01*
X150199501Y-117345376D01*
X150205908Y-117404983D01*
X150256202Y-117539828D01*
X150256206Y-117539835D01*
X150342452Y-117655044D01*
X150342455Y-117655047D01*
X150457664Y-117741293D01*
X150457671Y-117741297D01*
X150592517Y-117791591D01*
X150592516Y-117791591D01*
X150599444Y-117792335D01*
X150652127Y-117798000D01*
X152747872Y-117797999D01*
X152807483Y-117791591D01*
X152942331Y-117741296D01*
X153057546Y-117655046D01*
X153143796Y-117539831D01*
X153194091Y-117404983D01*
X153200500Y-117345373D01*
X153200499Y-115344628D01*
X153194091Y-115285017D01*
X153182542Y-115254053D01*
X153143797Y-115150171D01*
X153143793Y-115150164D01*
X153057547Y-115034955D01*
X153057544Y-115034952D01*
X152942335Y-114948706D01*
X152942328Y-114948702D01*
X152916534Y-114939082D01*
X152860600Y-114897211D01*
X152836183Y-114831747D01*
X152851034Y-114763474D01*
X152900439Y-114714068D01*
X152959867Y-114698900D01*
X157215908Y-114698900D01*
X157282947Y-114718585D01*
X157303589Y-114735219D01*
X158568781Y-116000410D01*
X158602266Y-116061733D01*
X158605100Y-116088091D01*
X158605100Y-117744308D01*
X158585415Y-117811347D01*
X158568781Y-117831989D01*
X157253589Y-119147181D01*
X157192266Y-119180666D01*
X157165908Y-119183500D01*
X134616491Y-119183500D01*
X134549452Y-119163815D01*
X134528810Y-119147181D01*
X131981819Y-116600189D01*
X131948334Y-116538866D01*
X131945500Y-116512508D01*
X131945500Y-115036598D01*
X136362532Y-115036598D01*
X136362532Y-115036601D01*
X136382364Y-115263286D01*
X136382366Y-115263297D01*
X136441258Y-115483088D01*
X136441261Y-115483097D01*
X136537431Y-115689332D01*
X136537432Y-115689334D01*
X136667954Y-115875741D01*
X136828858Y-116036645D01*
X136828861Y-116036647D01*
X137015266Y-116167168D01*
X137221504Y-116263339D01*
X137441308Y-116322235D01*
X137585441Y-116334845D01*
X137667998Y-116342068D01*
X137668000Y-116342068D01*
X137668002Y-116342068D01*
X137724673Y-116337109D01*
X137894692Y-116322235D01*
X138114496Y-116263339D01*
X138320734Y-116167168D01*
X138507139Y-116036647D01*
X138668047Y-115875739D01*
X138798568Y-115689334D01*
X138894739Y-115483096D01*
X138953635Y-115263292D01*
X138973468Y-115036600D01*
X138971697Y-115016363D01*
X138964871Y-114938333D01*
X138953635Y-114809908D01*
X138894739Y-114590104D01*
X138798568Y-114383866D01*
X138668047Y-114197461D01*
X138668045Y-114197458D01*
X138507141Y-114036554D01*
X138320734Y-113906032D01*
X138320732Y-113906031D01*
X138114497Y-113809861D01*
X138114488Y-113809858D01*
X137894697Y-113750966D01*
X137894693Y-113750965D01*
X137894692Y-113750965D01*
X137894691Y-113750964D01*
X137894686Y-113750964D01*
X137668002Y-113731132D01*
X137667998Y-113731132D01*
X137441313Y-113750964D01*
X137441302Y-113750966D01*
X137221511Y-113809858D01*
X137221502Y-113809861D01*
X137015267Y-113906031D01*
X137015265Y-113906032D01*
X136828858Y-114036554D01*
X136667954Y-114197458D01*
X136537432Y-114383865D01*
X136537431Y-114383867D01*
X136441261Y-114590102D01*
X136441258Y-114590111D01*
X136382366Y-114809902D01*
X136382364Y-114809913D01*
X136362532Y-115036598D01*
X131945500Y-115036598D01*
X131945500Y-112460579D01*
X131940348Y-112434682D01*
X131936433Y-112415000D01*
X131927987Y-112372541D01*
X131917001Y-112317309D01*
X131911624Y-112290276D01*
X131889212Y-112236168D01*
X131845178Y-112129859D01*
X131845176Y-112129855D01*
X131845175Y-112129853D01*
X131776142Y-112026538D01*
X131748706Y-111985477D01*
X131625923Y-111862694D01*
X131234570Y-111471341D01*
X129763527Y-110000296D01*
X129763526Y-110000295D01*
X129619143Y-109903822D01*
X129458728Y-109837377D01*
X129458718Y-109837374D01*
X129288423Y-109803500D01*
X129288421Y-109803500D01*
X129288420Y-109803500D01*
X128409048Y-109803500D01*
X128342009Y-109783815D01*
X128321371Y-109767185D01*
X128239139Y-109684953D01*
X128239138Y-109684952D01*
X128239137Y-109684951D01*
X128052734Y-109554432D01*
X128052732Y-109554431D01*
X127846497Y-109458261D01*
X127846488Y-109458258D01*
X127626697Y-109399366D01*
X127626693Y-109399365D01*
X127626692Y-109399365D01*
X127626691Y-109399364D01*
X127626686Y-109399364D01*
X127400002Y-109379532D01*
X127399998Y-109379532D01*
X127173313Y-109399364D01*
X127173302Y-109399366D01*
X126953511Y-109458258D01*
X126953502Y-109458261D01*
X126747267Y-109554431D01*
X126747265Y-109554432D01*
X126560862Y-109684951D01*
X126399952Y-109845862D01*
X126367786Y-109891799D01*
X126313209Y-109935422D01*
X126290407Y-109942290D01*
X126242675Y-109951785D01*
X126228105Y-109954684D01*
X126228103Y-109954684D01*
X126203926Y-109959492D01*
X126203917Y-109959495D01*
X126147045Y-109983053D01*
X126066614Y-110016368D01*
X125943031Y-110098942D01*
X125943030Y-110098943D01*
X125707794Y-110334181D01*
X125646471Y-110367666D01*
X125620113Y-110370500D01*
X106867683Y-110370500D01*
X106721927Y-110399493D01*
X106721919Y-110399495D01*
X106584608Y-110456371D01*
X106461035Y-110538939D01*
X106461034Y-110538940D01*
X106408488Y-110591487D01*
X106355941Y-110644034D01*
X106355939Y-110644036D01*
X104621792Y-112378181D01*
X104560469Y-112411666D01*
X104534111Y-112414500D01*
X103604129Y-112414500D01*
X103604123Y-112414501D01*
X103544516Y-112420908D01*
X103409671Y-112471202D01*
X103409664Y-112471206D01*
X103294455Y-112557452D01*
X103294452Y-112557455D01*
X103208206Y-112672664D01*
X103208202Y-112672671D01*
X103157908Y-112807517D01*
X103151501Y-112867116D01*
X103151500Y-112867135D01*
X103151500Y-114462870D01*
X103151501Y-114462876D01*
X103157908Y-114522483D01*
X103208202Y-114657328D01*
X103208206Y-114657335D01*
X103294452Y-114772544D01*
X103294455Y-114772547D01*
X103409664Y-114858793D01*
X103409671Y-114858797D01*
X103544517Y-114909091D01*
X103544516Y-114909091D01*
X103551444Y-114909835D01*
X103604127Y-114915500D01*
X105199872Y-114915499D01*
X105259483Y-114909091D01*
X105394331Y-114858796D01*
X105509546Y-114772546D01*
X105595796Y-114657331D01*
X105646091Y-114522483D01*
X105652500Y-114462873D01*
X105652499Y-113532885D01*
X105672183Y-113465847D01*
X105688813Y-113445210D01*
X107218205Y-111915819D01*
X107279528Y-111882334D01*
X107305886Y-111879500D01*
X125903554Y-111879500D01*
X125903574Y-111879501D01*
X125909688Y-111879501D01*
X126058314Y-111879501D01*
X126179894Y-111855315D01*
X126179894Y-111855316D01*
X126179900Y-111855313D01*
X126204080Y-111850505D01*
X126288425Y-111815568D01*
X126341389Y-111793630D01*
X126462516Y-111712695D01*
X126529193Y-111691818D01*
X126596573Y-111710303D01*
X126602529Y-111714223D01*
X126747266Y-111815568D01*
X126953504Y-111911739D01*
X127173308Y-111970635D01*
X127335230Y-111984801D01*
X127399998Y-111990468D01*
X127400000Y-111990468D01*
X127400002Y-111990468D01*
X127457059Y-111985476D01*
X127626692Y-111970635D01*
X127846496Y-111911739D01*
X128052734Y-111815568D01*
X128239139Y-111685047D01*
X128321368Y-111602817D01*
X128382689Y-111569334D01*
X128409048Y-111566500D01*
X128785108Y-111566500D01*
X128852147Y-111586185D01*
X128872789Y-111602819D01*
X130146181Y-112876210D01*
X130179666Y-112937533D01*
X130182500Y-112963891D01*
X130182500Y-116842179D01*
X130182500Y-117015821D01*
X130182500Y-117015823D01*
X130182499Y-117015823D01*
X130216374Y-117186118D01*
X130216377Y-117186128D01*
X130282822Y-117346543D01*
X130379295Y-117490926D01*
X130379296Y-117490927D01*
X133515294Y-120626923D01*
X133638074Y-120749703D01*
X133638078Y-120749707D01*
X133782451Y-120846174D01*
X133782460Y-120846178D01*
X133782782Y-120846312D01*
X133782779Y-120846317D01*
X133782831Y-120846331D01*
X133942876Y-120912625D01*
X134080456Y-120939991D01*
X134113174Y-120946499D01*
X134113178Y-120946500D01*
X134113179Y-120946500D01*
X157669223Y-120946500D01*
X157783793Y-120923709D01*
X157839524Y-120912624D01*
X157989711Y-120850415D01*
X157999943Y-120846177D01*
X157999944Y-120846176D01*
X157999947Y-120846175D01*
X158144324Y-120749706D01*
X160171305Y-118722724D01*
X160190364Y-118694200D01*
X160267775Y-118578347D01*
X160334224Y-118417924D01*
X160361042Y-118283102D01*
X160368100Y-118247622D01*
X160368100Y-115584778D01*
X160358627Y-115537158D01*
X160358627Y-115537156D01*
X160334225Y-115414476D01*
X160284529Y-115294500D01*
X160267775Y-115254053D01*
X160171306Y-115109677D01*
X160048523Y-114986894D01*
X159628167Y-114566538D01*
X158194327Y-113132696D01*
X158194326Y-113132695D01*
X158049943Y-113036222D01*
X157889528Y-112969777D01*
X157889518Y-112969774D01*
X157719223Y-112935900D01*
X157719221Y-112935900D01*
X157719220Y-112935900D01*
X152975250Y-112935900D01*
X152908211Y-112916215D01*
X152874932Y-112884785D01*
X152855791Y-112858440D01*
X152855787Y-112858435D01*
X152694068Y-112696716D01*
X152694067Y-112696715D01*
X152694066Y-112696714D01*
X152609559Y-112635316D01*
X152566896Y-112579988D01*
X152560917Y-112510375D01*
X152593523Y-112448580D01*
X152609556Y-112434685D01*
X152694066Y-112373286D01*
X152855786Y-112211566D01*
X152990217Y-112026538D01*
X153094048Y-111822758D01*
X153096384Y-111815568D01*
X153164721Y-111605249D01*
X153164721Y-111605248D01*
X153164722Y-111605245D01*
X153200500Y-111379354D01*
X153200500Y-111150646D01*
X153164722Y-110924755D01*
X153164721Y-110924751D01*
X153164721Y-110924750D01*
X153094049Y-110707244D01*
X152990216Y-110503461D01*
X152956003Y-110456371D01*
X152855786Y-110318434D01*
X152694066Y-110156714D01*
X152509038Y-110022283D01*
X152432045Y-109983053D01*
X152305255Y-109918450D01*
X152087748Y-109847778D01*
X151918326Y-109820944D01*
X151861854Y-109812000D01*
X151538146Y-109812000D01*
X151480022Y-109821206D01*
X151312253Y-109847778D01*
X151312250Y-109847778D01*
X151094744Y-109918450D01*
X150890958Y-110022285D01*
X150775985Y-110105818D01*
X150710179Y-110129298D01*
X150703100Y-110129500D01*
X147221702Y-110129500D01*
X147154663Y-110109815D01*
X147134021Y-110093181D01*
X142638838Y-105597998D01*
X154041434Y-105597998D01*
X154041434Y-105598003D01*
X154061258Y-105824600D01*
X154061260Y-105824611D01*
X154120130Y-106044318D01*
X154120135Y-106044332D01*
X154216263Y-106250479D01*
X154267374Y-106323473D01*
X154946400Y-105644447D01*
X154946400Y-105650662D01*
X154973659Y-105752395D01*
X155026320Y-105843607D01*
X155100794Y-105918081D01*
X155192006Y-105970742D01*
X155293739Y-105998001D01*
X155299953Y-105998001D01*
X154620926Y-106677026D01*
X154693913Y-106728133D01*
X154693921Y-106728137D01*
X154900068Y-106824265D01*
X154900082Y-106824270D01*
X155119789Y-106883140D01*
X155119800Y-106883142D01*
X155346398Y-106902967D01*
X155346402Y-106902967D01*
X155572999Y-106883142D01*
X155573010Y-106883140D01*
X155792717Y-106824270D01*
X155792731Y-106824265D01*
X155998878Y-106728137D01*
X156071871Y-106677025D01*
X155392847Y-105998001D01*
X155399061Y-105998001D01*
X155500794Y-105970742D01*
X155592006Y-105918081D01*
X155666480Y-105843607D01*
X155719141Y-105752395D01*
X155746400Y-105650662D01*
X155746400Y-105644448D01*
X156425424Y-106323472D01*
X156476536Y-106250479D01*
X156572664Y-106044332D01*
X156572669Y-106044318D01*
X156631539Y-105824611D01*
X156631541Y-105824600D01*
X156651366Y-105598003D01*
X156651366Y-105597998D01*
X156635635Y-105418198D01*
X161440634Y-105418198D01*
X161440634Y-105418203D01*
X161460458Y-105644800D01*
X161460460Y-105644811D01*
X161519330Y-105864518D01*
X161519335Y-105864532D01*
X161615463Y-106070679D01*
X161666574Y-106143673D01*
X162345600Y-105464647D01*
X162345600Y-105470862D01*
X162372859Y-105572595D01*
X162425520Y-105663807D01*
X162499994Y-105738281D01*
X162591206Y-105790942D01*
X162692939Y-105818201D01*
X162699153Y-105818201D01*
X162020126Y-106497226D01*
X162093113Y-106548333D01*
X162093121Y-106548337D01*
X162299268Y-106644465D01*
X162299282Y-106644470D01*
X162518989Y-106703340D01*
X162519000Y-106703342D01*
X162745598Y-106723167D01*
X162745602Y-106723167D01*
X162972199Y-106703342D01*
X162972210Y-106703340D01*
X163191917Y-106644470D01*
X163191931Y-106644465D01*
X163398078Y-106548337D01*
X163471071Y-106497225D01*
X162792047Y-105818201D01*
X162798261Y-105818201D01*
X162899994Y-105790942D01*
X162991206Y-105738281D01*
X163065680Y-105663807D01*
X163118341Y-105572595D01*
X163145600Y-105470862D01*
X163145600Y-105464648D01*
X163824624Y-106143672D01*
X163875736Y-106070679D01*
X163971864Y-105864532D01*
X163971869Y-105864518D01*
X164030739Y-105644811D01*
X164030741Y-105644800D01*
X164050566Y-105418203D01*
X164050566Y-105418198D01*
X164030741Y-105191601D01*
X164030739Y-105191590D01*
X163971869Y-104971883D01*
X163971864Y-104971869D01*
X163875736Y-104765722D01*
X163875732Y-104765714D01*
X163824625Y-104692727D01*
X163145600Y-105371752D01*
X163145600Y-105365540D01*
X163118341Y-105263807D01*
X163065680Y-105172595D01*
X162991206Y-105098121D01*
X162899994Y-105045460D01*
X162798261Y-105018201D01*
X162792048Y-105018201D01*
X163471072Y-104339175D01*
X163398078Y-104288064D01*
X163191931Y-104191936D01*
X163191917Y-104191931D01*
X162972210Y-104133061D01*
X162972199Y-104133059D01*
X162745602Y-104113235D01*
X162745598Y-104113235D01*
X162519000Y-104133059D01*
X162518989Y-104133061D01*
X162299282Y-104191931D01*
X162299273Y-104191935D01*
X162093116Y-104288067D01*
X162093112Y-104288069D01*
X162020126Y-104339174D01*
X162020126Y-104339175D01*
X162699153Y-105018201D01*
X162692939Y-105018201D01*
X162591206Y-105045460D01*
X162499994Y-105098121D01*
X162425520Y-105172595D01*
X162372859Y-105263807D01*
X162345600Y-105365540D01*
X162345600Y-105371753D01*
X161666574Y-104692727D01*
X161666573Y-104692727D01*
X161615468Y-104765713D01*
X161615466Y-104765717D01*
X161519334Y-104971874D01*
X161519330Y-104971883D01*
X161460460Y-105191590D01*
X161460458Y-105191601D01*
X161440634Y-105418198D01*
X156635635Y-105418198D01*
X156631541Y-105371401D01*
X156631539Y-105371390D01*
X156572669Y-105151683D01*
X156572664Y-105151669D01*
X156476536Y-104945522D01*
X156476532Y-104945514D01*
X156425425Y-104872527D01*
X155746400Y-105551552D01*
X155746400Y-105545340D01*
X155719141Y-105443607D01*
X155666480Y-105352395D01*
X155592006Y-105277921D01*
X155500794Y-105225260D01*
X155399061Y-105198001D01*
X155392848Y-105198001D01*
X156071872Y-104518975D01*
X155998878Y-104467864D01*
X155792731Y-104371736D01*
X155792717Y-104371731D01*
X155573010Y-104312861D01*
X155572999Y-104312859D01*
X155346402Y-104293035D01*
X155346398Y-104293035D01*
X155119800Y-104312859D01*
X155119789Y-104312861D01*
X154900082Y-104371731D01*
X154900073Y-104371735D01*
X154693916Y-104467867D01*
X154693912Y-104467869D01*
X154620926Y-104518974D01*
X154620926Y-104518975D01*
X155299953Y-105198001D01*
X155293739Y-105198001D01*
X155192006Y-105225260D01*
X155100794Y-105277921D01*
X155026320Y-105352395D01*
X154973659Y-105443607D01*
X154946400Y-105545340D01*
X154946400Y-105551553D01*
X154267374Y-104872527D01*
X154267373Y-104872527D01*
X154216268Y-104945513D01*
X154216266Y-104945517D01*
X154120134Y-105151674D01*
X154120130Y-105151683D01*
X154061260Y-105371390D01*
X154061258Y-105371401D01*
X154041434Y-105597998D01*
X142638838Y-105597998D01*
X142181920Y-105141080D01*
X142148435Y-105079757D01*
X142153419Y-105010065D01*
X142181920Y-104965718D01*
X145366420Y-101781219D01*
X145427743Y-101747734D01*
X145454101Y-101744900D01*
X154701198Y-101744900D01*
X154753602Y-101756517D01*
X154899904Y-101824740D01*
X155119708Y-101883636D01*
X155281630Y-101897802D01*
X155346398Y-101903469D01*
X155346400Y-101903469D01*
X155346402Y-101903469D01*
X155403073Y-101898510D01*
X155573092Y-101883636D01*
X155792896Y-101824740D01*
X155963642Y-101745118D01*
X156016047Y-101733501D01*
X162655163Y-101733501D01*
X162655166Y-101733501D01*
X162712295Y-101724451D01*
X162742505Y-101723398D01*
X162745600Y-101723669D01*
X162972292Y-101703836D01*
X163192096Y-101644940D01*
X163398334Y-101548769D01*
X163584739Y-101418248D01*
X163745647Y-101257340D01*
X163876168Y-101070935D01*
X163972339Y-100864697D01*
X164031235Y-100644893D01*
X164051068Y-100418201D01*
X164031235Y-100191509D01*
X163972339Y-99971705D01*
X163876168Y-99765467D01*
X163745647Y-99579062D01*
X163745645Y-99579059D01*
X163584741Y-99418155D01*
X163398334Y-99287633D01*
X163398332Y-99287632D01*
X163192097Y-99191462D01*
X163192088Y-99191459D01*
X162972297Y-99132567D01*
X162972293Y-99132566D01*
X162972292Y-99132566D01*
X162972291Y-99132565D01*
X162972286Y-99132565D01*
X162745602Y-99112733D01*
X162745598Y-99112733D01*
X162518913Y-99132565D01*
X162518902Y-99132567D01*
X162299111Y-99191459D01*
X162299102Y-99191462D01*
X162092867Y-99287632D01*
X162092865Y-99287633D01*
X161906458Y-99418155D01*
X161898432Y-99426182D01*
X161837109Y-99459667D01*
X161810751Y-99462501D01*
X156016047Y-99462501D01*
X155963642Y-99450883D01*
X155792897Y-99371262D01*
X155792888Y-99371259D01*
X155573097Y-99312367D01*
X155573093Y-99312366D01*
X155573092Y-99312366D01*
X155573091Y-99312365D01*
X155573086Y-99312365D01*
X155346402Y-99292533D01*
X155346398Y-99292533D01*
X155119713Y-99312365D01*
X155119702Y-99312367D01*
X154899911Y-99371259D01*
X154899902Y-99371262D01*
X154799344Y-99418154D01*
X154704711Y-99462282D01*
X154652308Y-99473900D01*
X146191900Y-99473900D01*
X146124861Y-99454215D01*
X146079106Y-99401411D01*
X146067900Y-99349900D01*
X146067900Y-96749301D01*
X146087585Y-96682262D01*
X146104219Y-96661620D01*
X146932435Y-95833404D01*
X147777655Y-94988183D01*
X147838976Y-94954700D01*
X147845908Y-94953398D01*
X148042745Y-94922222D01*
X148042748Y-94922221D01*
X148042749Y-94922221D01*
X148260255Y-94851549D01*
X148260255Y-94851548D01*
X148260258Y-94851548D01*
X148464038Y-94747717D01*
X148649066Y-94613286D01*
X148810786Y-94451566D01*
X148945217Y-94266538D01*
X149049048Y-94062758D01*
X149113163Y-93865431D01*
X149119721Y-93845249D01*
X149119721Y-93845248D01*
X149119722Y-93845245D01*
X149155500Y-93619354D01*
X149155500Y-93390646D01*
X149119722Y-93164755D01*
X149119721Y-93164751D01*
X149119721Y-93164750D01*
X149049049Y-92947244D01*
X148972743Y-92797485D01*
X148945217Y-92743462D01*
X148810786Y-92558434D01*
X148649066Y-92396714D01*
X148564559Y-92335316D01*
X148521896Y-92279988D01*
X148515917Y-92210375D01*
X148548523Y-92148580D01*
X148564556Y-92134685D01*
X148649066Y-92073286D01*
X148810786Y-91911566D01*
X148811555Y-91910507D01*
X148820923Y-91897615D01*
X148876253Y-91854949D01*
X148921241Y-91846500D01*
X153063423Y-91846500D01*
X153177993Y-91823709D01*
X153233724Y-91812624D01*
X153313935Y-91779399D01*
X153394143Y-91746177D01*
X153394144Y-91746176D01*
X153394147Y-91746175D01*
X153538524Y-91649706D01*
X155269106Y-89919123D01*
X155272195Y-89914500D01*
X155365575Y-89774747D01*
X155387306Y-89722283D01*
X155432025Y-89614324D01*
X155465900Y-89444020D01*
X155465900Y-89270379D01*
X155465900Y-86755780D01*
X155464297Y-86747723D01*
X155432024Y-86585476D01*
X155417372Y-86550102D01*
X155365578Y-86425059D01*
X155365574Y-86425052D01*
X155365271Y-86424598D01*
X155327230Y-86367666D01*
X155327230Y-86367665D01*
X155269109Y-86280681D01*
X155269107Y-86280678D01*
X155249293Y-86260864D01*
X155146323Y-86157894D01*
X154703361Y-85714932D01*
X153268727Y-84280296D01*
X153268726Y-84280295D01*
X153124343Y-84183822D01*
X152963928Y-84117377D01*
X152963918Y-84117374D01*
X152793623Y-84083500D01*
X152793621Y-84083500D01*
X152793620Y-84083500D01*
X141512021Y-84083500D01*
X141338380Y-84083500D01*
X141338375Y-84083500D01*
X141168083Y-84117373D01*
X141168075Y-84117375D01*
X141076038Y-84155499D01*
X141076037Y-84155499D01*
X141007659Y-84183821D01*
X141007646Y-84183828D01*
X140879874Y-84269203D01*
X140879874Y-84269204D01*
X140868881Y-84276548D01*
X140863272Y-84280297D01*
X140863271Y-84280298D01*
X139040989Y-86102581D01*
X138979666Y-86136066D01*
X138953308Y-86138900D01*
X136518048Y-86138900D01*
X136451009Y-86119215D01*
X136430371Y-86102585D01*
X136348139Y-86020353D01*
X136348138Y-86020352D01*
X136348137Y-86020351D01*
X136161734Y-85889832D01*
X136161732Y-85889831D01*
X135955497Y-85793661D01*
X135955488Y-85793658D01*
X135735697Y-85734766D01*
X135735693Y-85734765D01*
X135735692Y-85734765D01*
X135735691Y-85734764D01*
X135735686Y-85734764D01*
X135509002Y-85714932D01*
X135508998Y-85714932D01*
X135282313Y-85734764D01*
X135282302Y-85734766D01*
X135062511Y-85793658D01*
X135062502Y-85793661D01*
X134856267Y-85889831D01*
X134856265Y-85889832D01*
X134669858Y-86020354D01*
X134508954Y-86181258D01*
X134439341Y-86280678D01*
X134378432Y-86367666D01*
X134351886Y-86424593D01*
X134282261Y-86573902D01*
X134282258Y-86573911D01*
X134223366Y-86793702D01*
X134223364Y-86793713D01*
X134203532Y-87020398D01*
X134203532Y-87020401D01*
X134223364Y-87247086D01*
X134223366Y-87247097D01*
X134282258Y-87466888D01*
X134282261Y-87466897D01*
X134378431Y-87673132D01*
X134378432Y-87673134D01*
X134508954Y-87859541D01*
X134669858Y-88020445D01*
X134669861Y-88020447D01*
X134856266Y-88150968D01*
X135062504Y-88247139D01*
X135282308Y-88306035D01*
X135444230Y-88320201D01*
X135508998Y-88325868D01*
X135509000Y-88325868D01*
X135509002Y-88325868D01*
X135565673Y-88320909D01*
X135735692Y-88306035D01*
X135955496Y-88247139D01*
X136161734Y-88150968D01*
X136348139Y-88020447D01*
X136430368Y-87938217D01*
X136491689Y-87904734D01*
X136518048Y-87901900D01*
X139456623Y-87901900D01*
X139571193Y-87879109D01*
X139626924Y-87868024D01*
X139707135Y-87834799D01*
X139787343Y-87801577D01*
X139787344Y-87801576D01*
X139787347Y-87801575D01*
X139931724Y-87705106D01*
X141754010Y-85882818D01*
X141815333Y-85849334D01*
X141841691Y-85846500D01*
X152290308Y-85846500D01*
X152357347Y-85866185D01*
X152377989Y-85882819D01*
X153666581Y-87171410D01*
X153700066Y-87232733D01*
X153702900Y-87259091D01*
X153702900Y-88940708D01*
X153683215Y-89007747D01*
X153666581Y-89028389D01*
X152647789Y-90047181D01*
X152586466Y-90080666D01*
X152560108Y-90083500D01*
X148921241Y-90083500D01*
X148854202Y-90063815D01*
X148820925Y-90032388D01*
X148812477Y-90020761D01*
X148788995Y-89954955D01*
X148804819Y-89886901D01*
X148854923Y-89838205D01*
X148869455Y-89831692D01*
X148897331Y-89821296D01*
X149012546Y-89735046D01*
X149098796Y-89619831D01*
X149149091Y-89484983D01*
X149155500Y-89425373D01*
X149155499Y-87424628D01*
X149149091Y-87365017D01*
X149129129Y-87311497D01*
X149098797Y-87230171D01*
X149098793Y-87230164D01*
X149012547Y-87114955D01*
X149012544Y-87114952D01*
X148897335Y-87028706D01*
X148897328Y-87028702D01*
X148762482Y-86978408D01*
X148762483Y-86978408D01*
X148702883Y-86972001D01*
X148702881Y-86972000D01*
X148702873Y-86972000D01*
X148702864Y-86972000D01*
X146607129Y-86972000D01*
X146607123Y-86972001D01*
X146547516Y-86978408D01*
X146412671Y-87028702D01*
X146412664Y-87028706D01*
X146297455Y-87114952D01*
X146297452Y-87114955D01*
X146211206Y-87230164D01*
X146211202Y-87230171D01*
X146160908Y-87365017D01*
X146154501Y-87424616D01*
X146154501Y-87424623D01*
X146154500Y-87424635D01*
X146154500Y-89425370D01*
X146154501Y-89425376D01*
X146160908Y-89484983D01*
X146211202Y-89619828D01*
X146211206Y-89619835D01*
X146297452Y-89735044D01*
X146297455Y-89735047D01*
X146412664Y-89821293D01*
X146412669Y-89821296D01*
X146440539Y-89831690D01*
X146496473Y-89873561D01*
X146520891Y-89939024D01*
X146506040Y-90007298D01*
X146497526Y-90020756D01*
X146489076Y-90032388D01*
X146364783Y-90203461D01*
X146260950Y-90407244D01*
X146190278Y-90624750D01*
X146190278Y-90624753D01*
X146190278Y-90624755D01*
X146154500Y-90850646D01*
X146154500Y-91079354D01*
X146171728Y-91188126D01*
X146190278Y-91305246D01*
X146190278Y-91305249D01*
X146260950Y-91522755D01*
X146325634Y-91649704D01*
X146364783Y-91726538D01*
X146499214Y-91911566D01*
X146660934Y-92073286D01*
X146698954Y-92100909D01*
X146745438Y-92134682D01*
X146788103Y-92190013D01*
X146794082Y-92259626D01*
X146761476Y-92321421D01*
X146745438Y-92335318D01*
X146660932Y-92396715D01*
X146499216Y-92558431D01*
X146499216Y-92558432D01*
X146499214Y-92558434D01*
X146442089Y-92637060D01*
X146364783Y-92743461D01*
X146260950Y-92947244D01*
X146190278Y-93164750D01*
X146190278Y-93164753D01*
X146159106Y-93361563D01*
X146129177Y-93424698D01*
X146124314Y-93429846D01*
X144192672Y-95361489D01*
X144066291Y-95487869D01*
X144066290Y-95487870D01*
X143961233Y-95632467D01*
X143880090Y-95791718D01*
X143866545Y-95833404D01*
X143866546Y-95833405D01*
X143824858Y-95961706D01*
X143824857Y-95961707D01*
X143802484Y-96102977D01*
X143802484Y-96102980D01*
X143796900Y-96138232D01*
X143796900Y-100087699D01*
X143777215Y-100154738D01*
X143760581Y-100175380D01*
X140042780Y-103893181D01*
X139981457Y-103926666D01*
X139955099Y-103929500D01*
X138611449Y-103929500D01*
X138544410Y-103909815D01*
X138523768Y-103893181D01*
X138507141Y-103876554D01*
X138320734Y-103746032D01*
X138320732Y-103746031D01*
X138114497Y-103649861D01*
X138114488Y-103649858D01*
X137894697Y-103590966D01*
X137894693Y-103590965D01*
X137894692Y-103590965D01*
X137894691Y-103590964D01*
X137894686Y-103590964D01*
X137668002Y-103571132D01*
X137667998Y-103571132D01*
X137441313Y-103590964D01*
X137441302Y-103590966D01*
X137221511Y-103649858D01*
X137221502Y-103649861D01*
X137015267Y-103746031D01*
X137015265Y-103746032D01*
X136828858Y-103876554D01*
X136812232Y-103893181D01*
X136750909Y-103926666D01*
X136724551Y-103929500D01*
X121900701Y-103929500D01*
X121833662Y-103909815D01*
X121787907Y-103857011D01*
X121777963Y-103787853D01*
X121806988Y-103724297D01*
X121813020Y-103717819D01*
X122993542Y-102537297D01*
X127021040Y-98509797D01*
X127082361Y-98476314D01*
X127084371Y-98475894D01*
X127157124Y-98461424D01*
X127317547Y-98394975D01*
X127461923Y-98298506D01*
X127584706Y-98175723D01*
X127625201Y-98115116D01*
X127657175Y-98082437D01*
X127739139Y-98025047D01*
X127900047Y-97864139D01*
X128030568Y-97677734D01*
X128126739Y-97471496D01*
X128185635Y-97251692D01*
X128205468Y-97025000D01*
X128185635Y-96798308D01*
X128126739Y-96578504D01*
X128030568Y-96372266D01*
X127900047Y-96185861D01*
X127900045Y-96185858D01*
X127739141Y-96024954D01*
X127552734Y-95894432D01*
X127552732Y-95894431D01*
X127346497Y-95798261D01*
X127346488Y-95798258D01*
X127126697Y-95739366D01*
X127126693Y-95739365D01*
X127126692Y-95739365D01*
X127126691Y-95739364D01*
X127126686Y-95739364D01*
X126900002Y-95719532D01*
X126899998Y-95719532D01*
X126673313Y-95739364D01*
X126673302Y-95739366D01*
X126453511Y-95798258D01*
X126453502Y-95798261D01*
X126247267Y-95894431D01*
X126247265Y-95894432D01*
X126060858Y-96024954D01*
X125899954Y-96185858D01*
X125769432Y-96372265D01*
X125769431Y-96372267D01*
X125673260Y-96578504D01*
X125657190Y-96638477D01*
X125625097Y-96694062D01*
X118425980Y-103893181D01*
X118364657Y-103926666D01*
X118338299Y-103929500D01*
X96755112Y-103929500D01*
X96723020Y-103925275D01*
X96518092Y-103870365D01*
X96518090Y-103870364D01*
X96518086Y-103870364D01*
X96291402Y-103850532D01*
X96291398Y-103850532D01*
X96064713Y-103870364D01*
X96064702Y-103870366D01*
X95844911Y-103929258D01*
X95844902Y-103929261D01*
X95674158Y-104008882D01*
X95621753Y-104020500D01*
X90515131Y-104020500D01*
X90462726Y-104008882D01*
X90332296Y-103948061D01*
X90332292Y-103948060D01*
X90332288Y-103948058D01*
X90112497Y-103889166D01*
X90112493Y-103889165D01*
X90112492Y-103889165D01*
X90112491Y-103889164D01*
X90112486Y-103889164D01*
X89885802Y-103869332D01*
X89885798Y-103869332D01*
X89659113Y-103889164D01*
X89659102Y-103889166D01*
X89439311Y-103948058D01*
X89439302Y-103948062D01*
X89228669Y-104046282D01*
X89176264Y-104057900D01*
X77263355Y-104057900D01*
X77196316Y-104038215D01*
X77187193Y-104031753D01*
X77020367Y-103901907D01*
X77020361Y-103901903D01*
X76815988Y-103791301D01*
X76815980Y-103791298D01*
X76596202Y-103715848D01*
X76366990Y-103677600D01*
X76134610Y-103677600D01*
X75905397Y-103715848D01*
X75685619Y-103791298D01*
X75685611Y-103791301D01*
X75481238Y-103901903D01*
X75481232Y-103901907D01*
X75297867Y-104044626D01*
X75297864Y-104044629D01*
X75297861Y-104044631D01*
X75297861Y-104044632D01*
X75263117Y-104082373D01*
X75140476Y-104215597D01*
X75140473Y-104215601D01*
X75013375Y-104410137D01*
X74920029Y-104622945D01*
X74862983Y-104848217D01*
X74843794Y-105079794D01*
X38951300Y-105079794D01*
X38951300Y-100079794D01*
X74844296Y-100079794D01*
X74844296Y-100079805D01*
X74863478Y-100311299D01*
X74920504Y-100536491D01*
X75013815Y-100749218D01*
X75098384Y-100878661D01*
X75651518Y-100325527D01*
X75676816Y-100386601D01*
X75747699Y-100492685D01*
X75837915Y-100582901D01*
X75943999Y-100653784D01*
X76005071Y-100679081D01*
X75450789Y-101233362D01*
X75450790Y-101233363D01*
X75481512Y-101257275D01*
X75481518Y-101257280D01*
X75685807Y-101367835D01*
X75685817Y-101367840D01*
X75905521Y-101443264D01*
X76134653Y-101481500D01*
X76366947Y-101481500D01*
X76596078Y-101443264D01*
X76815782Y-101367840D01*
X76815787Y-101367838D01*
X77020088Y-101257275D01*
X77050808Y-101233363D01*
X77050808Y-101233362D01*
X76496528Y-100679081D01*
X76557601Y-100653784D01*
X76663685Y-100582901D01*
X76753901Y-100492685D01*
X76824784Y-100386601D01*
X76850081Y-100325528D01*
X77403214Y-100878661D01*
X77487780Y-100749225D01*
X77487785Y-100749217D01*
X77581095Y-100536491D01*
X77638121Y-100311299D01*
X77657304Y-100079805D01*
X77657304Y-100079794D01*
X77638121Y-99848300D01*
X77581095Y-99623108D01*
X77487782Y-99410376D01*
X77403214Y-99280937D01*
X76850080Y-99834070D01*
X76824784Y-99772999D01*
X76753901Y-99666915D01*
X76663685Y-99576699D01*
X76557601Y-99505816D01*
X76496527Y-99480518D01*
X77050809Y-98926236D01*
X77050809Y-98926235D01*
X77020086Y-98902323D01*
X77020081Y-98902319D01*
X76815792Y-98791764D01*
X76815782Y-98791759D01*
X76596078Y-98716335D01*
X76366947Y-98678100D01*
X76134653Y-98678100D01*
X75905521Y-98716335D01*
X75685817Y-98791759D01*
X75685807Y-98791764D01*
X75481517Y-98902320D01*
X75481506Y-98902327D01*
X75450790Y-98926234D01*
X75450790Y-98926236D01*
X76005072Y-99480518D01*
X75943999Y-99505816D01*
X75837915Y-99576699D01*
X75747699Y-99666915D01*
X75676816Y-99772999D01*
X75651518Y-99834071D01*
X75098384Y-99280937D01*
X75013816Y-99410378D01*
X74920504Y-99623108D01*
X74863478Y-99848300D01*
X74844296Y-100079794D01*
X38951300Y-100079794D01*
X38951300Y-98424997D01*
X107964723Y-98424997D01*
X107964723Y-98425002D01*
X107983793Y-98642975D01*
X107983793Y-98642979D01*
X108040422Y-98854322D01*
X108040424Y-98854326D01*
X108040425Y-98854330D01*
X108073955Y-98926235D01*
X108132897Y-99052638D01*
X108132898Y-99052639D01*
X108258402Y-99231877D01*
X108413123Y-99386598D01*
X108592361Y-99512102D01*
X108790670Y-99604575D01*
X109002023Y-99661207D01*
X109184926Y-99677208D01*
X109219998Y-99680277D01*
X109220000Y-99680277D01*
X109220002Y-99680277D01*
X109248254Y-99677805D01*
X109437977Y-99661207D01*
X109649330Y-99604575D01*
X109847639Y-99512102D01*
X110026877Y-99386598D01*
X110181598Y-99231877D01*
X110307102Y-99052639D01*
X110399575Y-98854330D01*
X110456207Y-98642977D01*
X110475277Y-98425000D01*
X110472650Y-98394978D01*
X110465275Y-98310674D01*
X110456207Y-98207023D01*
X110399575Y-97995670D01*
X110307102Y-97797362D01*
X110307100Y-97797359D01*
X110307099Y-97797357D01*
X110181599Y-97618124D01*
X110181596Y-97618121D01*
X110026877Y-97463402D01*
X109847639Y-97337898D01*
X109847640Y-97337898D01*
X109847638Y-97337897D01*
X109748484Y-97291661D01*
X109649330Y-97245425D01*
X109649326Y-97245424D01*
X109649322Y-97245422D01*
X109437977Y-97188793D01*
X109220002Y-97169723D01*
X109219998Y-97169723D01*
X109074682Y-97182436D01*
X109002023Y-97188793D01*
X109002020Y-97188793D01*
X108790677Y-97245422D01*
X108790670Y-97245424D01*
X108790670Y-97245425D01*
X108777220Y-97251697D01*
X108592361Y-97337898D01*
X108592357Y-97337900D01*
X108413121Y-97463402D01*
X108258402Y-97618121D01*
X108132900Y-97797357D01*
X108132898Y-97797361D01*
X108040426Y-97995668D01*
X108040422Y-97995677D01*
X107983793Y-98207020D01*
X107983793Y-98207024D01*
X107964723Y-98424997D01*
X38951300Y-98424997D01*
X38951300Y-94995998D01*
X94985932Y-94995998D01*
X94985932Y-94996001D01*
X95005764Y-95222686D01*
X95005766Y-95222697D01*
X95064658Y-95442488D01*
X95064661Y-95442497D01*
X95160831Y-95648732D01*
X95160832Y-95648734D01*
X95291354Y-95835141D01*
X95452258Y-95996045D01*
X95452261Y-95996047D01*
X95638666Y-96126568D01*
X95844904Y-96222739D01*
X96064708Y-96281635D01*
X96226630Y-96295801D01*
X96291398Y-96301468D01*
X96291400Y-96301468D01*
X96291402Y-96301468D01*
X96348073Y-96296509D01*
X96518092Y-96281635D01*
X96737896Y-96222739D01*
X96944134Y-96126568D01*
X97130539Y-95996047D01*
X97241589Y-95884997D01*
X110504723Y-95884997D01*
X110504723Y-95885002D01*
X110523793Y-96102975D01*
X110523793Y-96102977D01*
X110580422Y-96314322D01*
X110580424Y-96314326D01*
X110580425Y-96314330D01*
X110626661Y-96413484D01*
X110672897Y-96512638D01*
X110672898Y-96512639D01*
X110798402Y-96691877D01*
X110953123Y-96846598D01*
X111132361Y-96972102D01*
X111330670Y-97064575D01*
X111542023Y-97121207D01*
X111724926Y-97137208D01*
X111759998Y-97140277D01*
X111760000Y-97140277D01*
X111760002Y-97140277D01*
X111788254Y-97137805D01*
X111977977Y-97121207D01*
X112189330Y-97064575D01*
X112387639Y-96972102D01*
X112566877Y-96846598D01*
X112721598Y-96691877D01*
X112847102Y-96512639D01*
X112939575Y-96314330D01*
X112996207Y-96102977D01*
X113015277Y-95885000D01*
X112996207Y-95667023D01*
X112939575Y-95455670D01*
X112847102Y-95257362D01*
X112847100Y-95257359D01*
X112847099Y-95257357D01*
X112721599Y-95078124D01*
X112721596Y-95078121D01*
X112566877Y-94923402D01*
X112387639Y-94797898D01*
X112387640Y-94797898D01*
X112387638Y-94797897D01*
X112280023Y-94747716D01*
X112189330Y-94705425D01*
X112189326Y-94705424D01*
X112189322Y-94705422D01*
X111977977Y-94648793D01*
X111760002Y-94629723D01*
X111759998Y-94629723D01*
X111614682Y-94642436D01*
X111542023Y-94648793D01*
X111542020Y-94648793D01*
X111330677Y-94705422D01*
X111330668Y-94705426D01*
X111132361Y-94797898D01*
X111132357Y-94797900D01*
X110953121Y-94923402D01*
X110798402Y-95078121D01*
X110672900Y-95257357D01*
X110672898Y-95257361D01*
X110580426Y-95455668D01*
X110580422Y-95455677D01*
X110523793Y-95667020D01*
X110523793Y-95667024D01*
X110504723Y-95884997D01*
X97241589Y-95884997D01*
X97291447Y-95835139D01*
X97421968Y-95648734D01*
X97518139Y-95442496D01*
X97577035Y-95222692D01*
X97596868Y-94996000D01*
X97577035Y-94769308D01*
X97518139Y-94549504D01*
X97421968Y-94343266D01*
X97291447Y-94156861D01*
X97291445Y-94156858D01*
X97130541Y-93995954D01*
X96944134Y-93865432D01*
X96944132Y-93865431D01*
X96737897Y-93769261D01*
X96737888Y-93769258D01*
X96518097Y-93710366D01*
X96518093Y-93710365D01*
X96518092Y-93710365D01*
X96518091Y-93710364D01*
X96518086Y-93710364D01*
X96291402Y-93690532D01*
X96291398Y-93690532D01*
X96064713Y-93710364D01*
X96064702Y-93710366D01*
X95844911Y-93769258D01*
X95844902Y-93769261D01*
X95638667Y-93865431D01*
X95638665Y-93865432D01*
X95452258Y-93995954D01*
X95291354Y-94156858D01*
X95160832Y-94343265D01*
X95160831Y-94343267D01*
X95064661Y-94549502D01*
X95064658Y-94549511D01*
X95005766Y-94769302D01*
X95005764Y-94769313D01*
X94985932Y-94995998D01*
X38951300Y-94995998D01*
X38951300Y-92561599D01*
X71263527Y-92561599D01*
X71263528Y-92561600D01*
X72226714Y-92561600D01*
X72222320Y-92565994D01*
X72169659Y-92657206D01*
X72142400Y-92758939D01*
X72142400Y-92864261D01*
X72169659Y-92965994D01*
X72222320Y-93057206D01*
X72226714Y-93061600D01*
X71263528Y-93061600D01*
X71316130Y-93257917D01*
X71316134Y-93257926D01*
X71412265Y-93464082D01*
X71542742Y-93650420D01*
X71703579Y-93811257D01*
X71889917Y-93941734D01*
X72096073Y-94037865D01*
X72096082Y-94037869D01*
X72292399Y-94090472D01*
X72292400Y-94090471D01*
X72292400Y-93127286D01*
X72296794Y-93131680D01*
X72388006Y-93184341D01*
X72489739Y-93211600D01*
X72595061Y-93211600D01*
X72696794Y-93184341D01*
X72788006Y-93131680D01*
X72792400Y-93127286D01*
X72792400Y-94090472D01*
X72988717Y-94037869D01*
X72988726Y-94037865D01*
X73194882Y-93941734D01*
X73381220Y-93811257D01*
X73542057Y-93650420D01*
X73672534Y-93464082D01*
X73768665Y-93257926D01*
X73768669Y-93257917D01*
X73821272Y-93061600D01*
X72858086Y-93061600D01*
X72862480Y-93057206D01*
X72915141Y-92965994D01*
X72942400Y-92864261D01*
X72942400Y-92758939D01*
X72930627Y-92715000D01*
X81394551Y-92715000D01*
X81414317Y-92966151D01*
X81473126Y-93211110D01*
X81569533Y-93443859D01*
X81701160Y-93658653D01*
X81701161Y-93658656D01*
X81701164Y-93658659D01*
X81864776Y-93850224D01*
X82013066Y-93976875D01*
X82056343Y-94013838D01*
X82056346Y-94013839D01*
X82271140Y-94145466D01*
X82503889Y-94241873D01*
X82748852Y-94300683D01*
X83000000Y-94320449D01*
X83251148Y-94300683D01*
X83496111Y-94241873D01*
X83728859Y-94145466D01*
X83943659Y-94013836D01*
X84135224Y-93850224D01*
X84298836Y-93658659D01*
X84430466Y-93443859D01*
X84526873Y-93211111D01*
X84585683Y-92966148D01*
X84605449Y-92715000D01*
X84592238Y-92547135D01*
X107969500Y-92547135D01*
X107969500Y-94142870D01*
X107969501Y-94142876D01*
X107975908Y-94202483D01*
X108026202Y-94337328D01*
X108026206Y-94337335D01*
X108112452Y-94452544D01*
X108112455Y-94452547D01*
X108227664Y-94538793D01*
X108227671Y-94538797D01*
X108362517Y-94589091D01*
X108362516Y-94589091D01*
X108369444Y-94589835D01*
X108422127Y-94595500D01*
X110017872Y-94595499D01*
X110077483Y-94589091D01*
X110212331Y-94538796D01*
X110327546Y-94452546D01*
X110413796Y-94337331D01*
X110464091Y-94202483D01*
X110470500Y-94142873D01*
X110470499Y-92547128D01*
X110464091Y-92487517D01*
X110456350Y-92466763D01*
X110413797Y-92352671D01*
X110413793Y-92352664D01*
X110327547Y-92237455D01*
X110327544Y-92237452D01*
X110212335Y-92151206D01*
X110212328Y-92151202D01*
X110077482Y-92100908D01*
X110077483Y-92100908D01*
X110017883Y-92094501D01*
X110017881Y-92094500D01*
X110017873Y-92094500D01*
X110017864Y-92094500D01*
X108422129Y-92094500D01*
X108422123Y-92094501D01*
X108362516Y-92100908D01*
X108227671Y-92151202D01*
X108227664Y-92151206D01*
X108112455Y-92237452D01*
X108112452Y-92237455D01*
X108026206Y-92352664D01*
X108026202Y-92352671D01*
X107975908Y-92487517D01*
X107969501Y-92547116D01*
X107969501Y-92547123D01*
X107969500Y-92547135D01*
X84592238Y-92547135D01*
X84585683Y-92463852D01*
X84526873Y-92218889D01*
X84497750Y-92148580D01*
X84430466Y-91986140D01*
X84298839Y-91771346D01*
X84298838Y-91771343D01*
X84260571Y-91726538D01*
X84135224Y-91579776D01*
X84008571Y-91471604D01*
X83943656Y-91416161D01*
X83943653Y-91416160D01*
X83728859Y-91284533D01*
X83496110Y-91188126D01*
X83251151Y-91129317D01*
X83000000Y-91109551D01*
X82748848Y-91129317D01*
X82503889Y-91188126D01*
X82271140Y-91284533D01*
X82056346Y-91416160D01*
X82056343Y-91416161D01*
X81864776Y-91579776D01*
X81701161Y-91771343D01*
X81701160Y-91771346D01*
X81569533Y-91986140D01*
X81473126Y-92218889D01*
X81414317Y-92463848D01*
X81394551Y-92715000D01*
X72930627Y-92715000D01*
X72915141Y-92657206D01*
X72862480Y-92565994D01*
X72858086Y-92561600D01*
X73821272Y-92561600D01*
X73821272Y-92561599D01*
X73768669Y-92365282D01*
X73768665Y-92365273D01*
X73672534Y-92159117D01*
X73542057Y-91972779D01*
X73381220Y-91811942D01*
X73194882Y-91681465D01*
X72988728Y-91585334D01*
X72792400Y-91532727D01*
X72792400Y-92495914D01*
X72788006Y-92491520D01*
X72696794Y-92438859D01*
X72595061Y-92411600D01*
X72489739Y-92411600D01*
X72388006Y-92438859D01*
X72296794Y-92491520D01*
X72292400Y-92495914D01*
X72292400Y-91532727D01*
X72096071Y-91585334D01*
X71889917Y-91681465D01*
X71703579Y-91811942D01*
X71542742Y-91972779D01*
X71412265Y-92159117D01*
X71316134Y-92365273D01*
X71316130Y-92365282D01*
X71263527Y-92561599D01*
X38951300Y-92561599D01*
X38951300Y-88002997D01*
X111520723Y-88002997D01*
X111520723Y-88003002D01*
X111539793Y-88220975D01*
X111539793Y-88220979D01*
X111596422Y-88432322D01*
X111596424Y-88432326D01*
X111596425Y-88432330D01*
X111642661Y-88531484D01*
X111688897Y-88630638D01*
X111688898Y-88630639D01*
X111814402Y-88809877D01*
X111969123Y-88964598D01*
X112148361Y-89090102D01*
X112346670Y-89182575D01*
X112558023Y-89239207D01*
X112740926Y-89255208D01*
X112775998Y-89258277D01*
X112776000Y-89258277D01*
X112776002Y-89258277D01*
X112804254Y-89255805D01*
X112993977Y-89239207D01*
X113205330Y-89182575D01*
X113403639Y-89090102D01*
X113582877Y-88964598D01*
X113737598Y-88809877D01*
X113863102Y-88630639D01*
X113955575Y-88432330D01*
X114012207Y-88220977D01*
X114031277Y-88003000D01*
X114012207Y-87785023D01*
X113955575Y-87573670D01*
X113863102Y-87375362D01*
X113863100Y-87375359D01*
X113863099Y-87375357D01*
X113737599Y-87196124D01*
X113712885Y-87171410D01*
X113582877Y-87041402D01*
X113403639Y-86915898D01*
X113403640Y-86915898D01*
X113403638Y-86915897D01*
X113294488Y-86865000D01*
X113294484Y-86864998D01*
X125594532Y-86864998D01*
X125594532Y-86865001D01*
X125614364Y-87091686D01*
X125614366Y-87091697D01*
X125673258Y-87311488D01*
X125673261Y-87311497D01*
X125769431Y-87517732D01*
X125769432Y-87517734D01*
X125899954Y-87704141D01*
X126060858Y-87865045D01*
X126060861Y-87865047D01*
X126247266Y-87995568D01*
X126453504Y-88091739D01*
X126673308Y-88150635D01*
X126835230Y-88164801D01*
X126899998Y-88170468D01*
X126900000Y-88170468D01*
X126900002Y-88170468D01*
X126956673Y-88165509D01*
X127126692Y-88150635D01*
X127346496Y-88091739D01*
X127552734Y-87995568D01*
X127739139Y-87865047D01*
X127900047Y-87704139D01*
X128030568Y-87517734D01*
X128126739Y-87311496D01*
X128185635Y-87091692D01*
X128205468Y-86865000D01*
X128185635Y-86638308D01*
X128136606Y-86455328D01*
X128126741Y-86418511D01*
X128126738Y-86418502D01*
X128103032Y-86367665D01*
X128030568Y-86212266D01*
X127900047Y-86025861D01*
X127900045Y-86025858D01*
X127739141Y-85864954D01*
X127552734Y-85734432D01*
X127552732Y-85734431D01*
X127346497Y-85638261D01*
X127346488Y-85638258D01*
X127126697Y-85579366D01*
X127126693Y-85579365D01*
X127126692Y-85579365D01*
X127126691Y-85579364D01*
X127126686Y-85579364D01*
X126900002Y-85559532D01*
X126899998Y-85559532D01*
X126673313Y-85579364D01*
X126673302Y-85579366D01*
X126453511Y-85638258D01*
X126453502Y-85638261D01*
X126247267Y-85734431D01*
X126247265Y-85734432D01*
X126060858Y-85864954D01*
X125899954Y-86025858D01*
X125769432Y-86212265D01*
X125769431Y-86212267D01*
X125673261Y-86418502D01*
X125673258Y-86418511D01*
X125614366Y-86638302D01*
X125614364Y-86638313D01*
X125594532Y-86864998D01*
X113294484Y-86864998D01*
X113205330Y-86823425D01*
X113205326Y-86823424D01*
X113205322Y-86823422D01*
X112993977Y-86766793D01*
X112776002Y-86747723D01*
X112775998Y-86747723D01*
X112630682Y-86760436D01*
X112558023Y-86766793D01*
X112558020Y-86766793D01*
X112346677Y-86823422D01*
X112346668Y-86823426D01*
X112148361Y-86915898D01*
X112148357Y-86915900D01*
X111969121Y-87041402D01*
X111814402Y-87196121D01*
X111688900Y-87375357D01*
X111688898Y-87375361D01*
X111596426Y-87573668D01*
X111596422Y-87573677D01*
X111539793Y-87785020D01*
X111539793Y-87785024D01*
X111520723Y-88002997D01*
X38951300Y-88002997D01*
X38951300Y-85462997D01*
X108980723Y-85462997D01*
X108980723Y-85463002D01*
X108999793Y-85680975D01*
X108999793Y-85680979D01*
X109056422Y-85892322D01*
X109056424Y-85892326D01*
X109056425Y-85892330D01*
X109102661Y-85991484D01*
X109148897Y-86090638D01*
X109148898Y-86090639D01*
X109274402Y-86269877D01*
X109429123Y-86424598D01*
X109608361Y-86550102D01*
X109806670Y-86642575D01*
X110018023Y-86699207D01*
X110200926Y-86715208D01*
X110235998Y-86718277D01*
X110236000Y-86718277D01*
X110236002Y-86718277D01*
X110264254Y-86715805D01*
X110453977Y-86699207D01*
X110665330Y-86642575D01*
X110863639Y-86550102D01*
X111042877Y-86424598D01*
X111197598Y-86269877D01*
X111323102Y-86090639D01*
X111415575Y-85892330D01*
X111472207Y-85680977D01*
X111491277Y-85463000D01*
X111472207Y-85245023D01*
X111415575Y-85033670D01*
X111323102Y-84835362D01*
X111323100Y-84835359D01*
X111323099Y-84835357D01*
X111203909Y-84665135D01*
X114065500Y-84665135D01*
X114065500Y-86260870D01*
X114065501Y-86260876D01*
X114071908Y-86320483D01*
X114122202Y-86455328D01*
X114122206Y-86455335D01*
X114208452Y-86570544D01*
X114208455Y-86570547D01*
X114323664Y-86656793D01*
X114323671Y-86656797D01*
X114458517Y-86707091D01*
X114458516Y-86707091D01*
X114465444Y-86707835D01*
X114518127Y-86713500D01*
X116113872Y-86713499D01*
X116173483Y-86707091D01*
X116308331Y-86656796D01*
X116423546Y-86570546D01*
X116509796Y-86455331D01*
X116560091Y-86320483D01*
X116566500Y-86260873D01*
X116566499Y-84665128D01*
X116560091Y-84605517D01*
X116522280Y-84504141D01*
X116509797Y-84470671D01*
X116509793Y-84470664D01*
X116423547Y-84355455D01*
X116423544Y-84355452D01*
X116308335Y-84269206D01*
X116308328Y-84269202D01*
X116173482Y-84218908D01*
X116173483Y-84218908D01*
X116113883Y-84212501D01*
X116113881Y-84212500D01*
X116113873Y-84212500D01*
X116113864Y-84212500D01*
X114518129Y-84212500D01*
X114518123Y-84212501D01*
X114458516Y-84218908D01*
X114323671Y-84269202D01*
X114323664Y-84269206D01*
X114208455Y-84355452D01*
X114208452Y-84355455D01*
X114122206Y-84470664D01*
X114122202Y-84470671D01*
X114071908Y-84605517D01*
X114065501Y-84665116D01*
X114065501Y-84665123D01*
X114065500Y-84665135D01*
X111203909Y-84665135D01*
X111197599Y-84656124D01*
X111146991Y-84605516D01*
X111042877Y-84501402D01*
X110863639Y-84375898D01*
X110863640Y-84375898D01*
X110863638Y-84375897D01*
X110738906Y-84317734D01*
X110665330Y-84283425D01*
X110665326Y-84283424D01*
X110665322Y-84283422D01*
X110453977Y-84226793D01*
X110236002Y-84207723D01*
X110235998Y-84207723D01*
X110108151Y-84218908D01*
X110018023Y-84226793D01*
X110018020Y-84226793D01*
X109806677Y-84283422D01*
X109806668Y-84283426D01*
X109608361Y-84375898D01*
X109608357Y-84375900D01*
X109429121Y-84501402D01*
X109274402Y-84656121D01*
X109148900Y-84835357D01*
X109148898Y-84835361D01*
X109056426Y-85033668D01*
X109056422Y-85033677D01*
X108999793Y-85245020D01*
X108999793Y-85245024D01*
X108980723Y-85462997D01*
X38951300Y-85462997D01*
X38951300Y-81364998D01*
X52014532Y-81364998D01*
X52014532Y-81365001D01*
X52034364Y-81591686D01*
X52034366Y-81591697D01*
X52093258Y-81811488D01*
X52093261Y-81811497D01*
X52189431Y-82017732D01*
X52189432Y-82017734D01*
X52319954Y-82204141D01*
X52480858Y-82365045D01*
X52480861Y-82365047D01*
X52667266Y-82495568D01*
X52873504Y-82591739D01*
X53093308Y-82650635D01*
X53255230Y-82664801D01*
X53319998Y-82670468D01*
X53320000Y-82670468D01*
X53320002Y-82670468D01*
X53383025Y-82664954D01*
X53546692Y-82650635D01*
X53766496Y-82591739D01*
X53972734Y-82495568D01*
X54159139Y-82365047D01*
X54320047Y-82204139D01*
X54450568Y-82017734D01*
X54546739Y-81811496D01*
X54605635Y-81591692D01*
X54622634Y-81397384D01*
X54625468Y-81365001D01*
X54625468Y-81364998D01*
X62174532Y-81364998D01*
X62174532Y-81365001D01*
X62194364Y-81591686D01*
X62194366Y-81591697D01*
X62253258Y-81811488D01*
X62253261Y-81811497D01*
X62349431Y-82017732D01*
X62349432Y-82017734D01*
X62479954Y-82204141D01*
X62640858Y-82365045D01*
X62640861Y-82365047D01*
X62827266Y-82495568D01*
X63033504Y-82591739D01*
X63253308Y-82650635D01*
X63415230Y-82664801D01*
X63479998Y-82670468D01*
X63480000Y-82670468D01*
X63480002Y-82670468D01*
X63543025Y-82664954D01*
X63695685Y-82651598D01*
X71236932Y-82651598D01*
X71236932Y-82651601D01*
X71256764Y-82878286D01*
X71256766Y-82878297D01*
X71315658Y-83098088D01*
X71315661Y-83098097D01*
X71411831Y-83304332D01*
X71411832Y-83304334D01*
X71542354Y-83490741D01*
X71703258Y-83651645D01*
X71703261Y-83651647D01*
X71889666Y-83782168D01*
X72095904Y-83878339D01*
X72315708Y-83937235D01*
X72477630Y-83951401D01*
X72542398Y-83957068D01*
X72542400Y-83957068D01*
X72542402Y-83957068D01*
X72599073Y-83952109D01*
X72769092Y-83937235D01*
X72988896Y-83878339D01*
X73195134Y-83782168D01*
X73381539Y-83651647D01*
X73542447Y-83490739D01*
X73672968Y-83304334D01*
X73769139Y-83098096D01*
X73828035Y-82878292D01*
X73847868Y-82651600D01*
X73847783Y-82650633D01*
X73828035Y-82424913D01*
X73828035Y-82424908D01*
X73769139Y-82205104D01*
X73672968Y-81998866D01*
X73542447Y-81812461D01*
X73542445Y-81812458D01*
X73381541Y-81651554D01*
X73195134Y-81521032D01*
X73195132Y-81521031D01*
X72988897Y-81424861D01*
X72988888Y-81424858D01*
X72922744Y-81407135D01*
X81399500Y-81407135D01*
X81399500Y-83702870D01*
X81399501Y-83702876D01*
X81405908Y-83762483D01*
X81456202Y-83897328D01*
X81456206Y-83897335D01*
X81542452Y-84012544D01*
X81542455Y-84012547D01*
X81657664Y-84098793D01*
X81657671Y-84098797D01*
X81792517Y-84149091D01*
X81792516Y-84149091D01*
X81799444Y-84149835D01*
X81852127Y-84155500D01*
X84147872Y-84155499D01*
X84207483Y-84149091D01*
X84342331Y-84098796D01*
X84457546Y-84012546D01*
X84543796Y-83897331D01*
X84594091Y-83762483D01*
X84600500Y-83702873D01*
X84600500Y-83664998D01*
X92514532Y-83664998D01*
X92514532Y-83665001D01*
X92534364Y-83891686D01*
X92534366Y-83891697D01*
X92593258Y-84111488D01*
X92593261Y-84111497D01*
X92689431Y-84317732D01*
X92689432Y-84317734D01*
X92819954Y-84504141D01*
X92980858Y-84665045D01*
X92980975Y-84665127D01*
X93167266Y-84795568D01*
X93373504Y-84891739D01*
X93593308Y-84950635D01*
X93755230Y-84964801D01*
X93819998Y-84970468D01*
X93820000Y-84970468D01*
X93820002Y-84970468D01*
X93876673Y-84965509D01*
X94046692Y-84950635D01*
X94266496Y-84891739D01*
X94472734Y-84795568D01*
X94659139Y-84665047D01*
X94820047Y-84504139D01*
X94950568Y-84317734D01*
X95046739Y-84111496D01*
X95105635Y-83891692D01*
X95125468Y-83665000D01*
X95125468Y-83664998D01*
X102674532Y-83664998D01*
X102674532Y-83665001D01*
X102694364Y-83891686D01*
X102694366Y-83891697D01*
X102753258Y-84111488D01*
X102753261Y-84111497D01*
X102849431Y-84317732D01*
X102849432Y-84317734D01*
X102979954Y-84504141D01*
X103140858Y-84665045D01*
X103140975Y-84665127D01*
X103327266Y-84795568D01*
X103533504Y-84891739D01*
X103753308Y-84950635D01*
X103915230Y-84964801D01*
X103979998Y-84970468D01*
X103980000Y-84970468D01*
X103980002Y-84970468D01*
X104036673Y-84965509D01*
X104206692Y-84950635D01*
X104426496Y-84891739D01*
X104632734Y-84795568D01*
X104819139Y-84665047D01*
X104980047Y-84504139D01*
X105110568Y-84317734D01*
X105206739Y-84111496D01*
X105265635Y-83891692D01*
X105285468Y-83665000D01*
X105271324Y-83503339D01*
X105285090Y-83434841D01*
X105307168Y-83404855D01*
X107956205Y-80755819D01*
X108017528Y-80722334D01*
X108043886Y-80719500D01*
X119599554Y-80719500D01*
X119599574Y-80719501D01*
X119605688Y-80719501D01*
X119754313Y-80719501D01*
X119885365Y-80693432D01*
X119900080Y-80690505D01*
X119960360Y-80665536D01*
X120037389Y-80633630D01*
X120160966Y-80551059D01*
X121339854Y-79372169D01*
X121401175Y-79338686D01*
X121438337Y-79336324D01*
X121578186Y-79348559D01*
X121599999Y-79350468D01*
X121600000Y-79350468D01*
X121600002Y-79350468D01*
X121656673Y-79345509D01*
X121826692Y-79330635D01*
X122046496Y-79271739D01*
X122252734Y-79175568D01*
X122439139Y-79045047D01*
X122600047Y-78884139D01*
X122730568Y-78697734D01*
X122826739Y-78491496D01*
X122885635Y-78271692D01*
X122905468Y-78045000D01*
X122905468Y-78044998D01*
X122905468Y-78039585D01*
X122907565Y-78039585D01*
X122919540Y-77979997D01*
X122941618Y-77950010D01*
X123113410Y-77778219D01*
X123174733Y-77744734D01*
X123201091Y-77741900D01*
X134499952Y-77741900D01*
X134566991Y-77761585D01*
X134587628Y-77778214D01*
X134667764Y-77858350D01*
X134669862Y-77860448D01*
X134738628Y-77908598D01*
X134856266Y-77990968D01*
X135062504Y-78087139D01*
X135282308Y-78146035D01*
X135444230Y-78160201D01*
X135508998Y-78165868D01*
X135514415Y-78165868D01*
X135514415Y-78167967D01*
X135573991Y-78179934D01*
X135603991Y-78202021D01*
X139138072Y-81736103D01*
X139138073Y-81736104D01*
X139282456Y-81832577D01*
X139442871Y-81899022D01*
X139442876Y-81899024D01*
X139442880Y-81899024D01*
X139442881Y-81899025D01*
X139613176Y-81932900D01*
X139613179Y-81932900D01*
X139613180Y-81932900D01*
X156597860Y-81932900D01*
X156664899Y-81952585D01*
X156706691Y-81997472D01*
X156722056Y-82025611D01*
X156778570Y-82129109D01*
X156778575Y-82129117D01*
X156950054Y-82358187D01*
X156950070Y-82358205D01*
X157152394Y-82560529D01*
X157152412Y-82560545D01*
X157381482Y-82732024D01*
X157381490Y-82732029D01*
X157632633Y-82869164D01*
X157632632Y-82869164D01*
X157632636Y-82869165D01*
X157632639Y-82869167D01*
X157900754Y-82969169D01*
X157900760Y-82969170D01*
X157900762Y-82969171D01*
X158180366Y-83029995D01*
X158180368Y-83029995D01*
X158180372Y-83029996D01*
X158434020Y-83048137D01*
X158465799Y-83050410D01*
X158465800Y-83050410D01*
X158465801Y-83050410D01*
X158494395Y-83048364D01*
X158751228Y-83029996D01*
X158832737Y-83012265D01*
X159030837Y-82969171D01*
X159030837Y-82969170D01*
X159030846Y-82969169D01*
X159298961Y-82869167D01*
X159550115Y-82732026D01*
X159779195Y-82560539D01*
X159981539Y-82358195D01*
X160153026Y-82129115D01*
X160217482Y-82011072D01*
X160266887Y-81961668D01*
X160326314Y-81946500D01*
X164801542Y-81946500D01*
X164868581Y-81966185D01*
X164914336Y-82018989D01*
X164925542Y-82070500D01*
X164925542Y-82312876D01*
X164931949Y-82372483D01*
X164982243Y-82507328D01*
X164982247Y-82507335D01*
X165068493Y-82622544D01*
X165068496Y-82622547D01*
X165183705Y-82708793D01*
X165183712Y-82708797D01*
X165318558Y-82759091D01*
X165318557Y-82759091D01*
X165325485Y-82759835D01*
X165378168Y-82765500D01*
X167873913Y-82765499D01*
X167933524Y-82759091D01*
X168068372Y-82708796D01*
X168183587Y-82622546D01*
X168269837Y-82507331D01*
X168320132Y-82372483D01*
X168326541Y-82312873D01*
X168326540Y-81064995D01*
X169920773Y-81064995D01*
X169920773Y-81065004D01*
X169939818Y-81319154D01*
X169996531Y-81567630D01*
X169996533Y-81567637D01*
X170089649Y-81804890D01*
X170094020Y-81812461D01*
X170217082Y-82025612D01*
X170375991Y-82224877D01*
X170562824Y-82398232D01*
X170690393Y-82485207D01*
X170734694Y-82539233D01*
X170744541Y-82587659D01*
X170744541Y-92293121D01*
X170744541Y-92466763D01*
X170744541Y-92466765D01*
X170744540Y-92466765D01*
X170778415Y-92637060D01*
X170778418Y-92637070D01*
X170844863Y-92797485D01*
X170941336Y-92941868D01*
X170941337Y-92941869D01*
X176212223Y-98212754D01*
X176245708Y-98274077D01*
X176248118Y-98310673D01*
X176240594Y-98401494D01*
X176240593Y-98401505D01*
X176259782Y-98633082D01*
X176316828Y-98858354D01*
X176410174Y-99071162D01*
X176515178Y-99231881D01*
X176537274Y-99265701D01*
X176694660Y-99436668D01*
X176694663Y-99436670D01*
X176694666Y-99436673D01*
X176878031Y-99579392D01*
X176878037Y-99579396D01*
X176878040Y-99579398D01*
X177082411Y-99689999D01*
X177302199Y-99765452D01*
X177531409Y-99803700D01*
X177763789Y-99803700D01*
X177992999Y-99765452D01*
X178212787Y-99689999D01*
X178417158Y-99579398D01*
X178600538Y-99436668D01*
X178757924Y-99265701D01*
X178885024Y-99071161D01*
X178978370Y-98858354D01*
X179035415Y-98633086D01*
X179048443Y-98475862D01*
X179054605Y-98401505D01*
X179054605Y-98401494D01*
X179035897Y-98175728D01*
X179035415Y-98169914D01*
X178978370Y-97944646D01*
X178885024Y-97731839D01*
X178757924Y-97537299D01*
X178600538Y-97366332D01*
X178600533Y-97366328D01*
X178600531Y-97366326D01*
X178417166Y-97223607D01*
X178417160Y-97223603D01*
X178212787Y-97113001D01*
X178212779Y-97112998D01*
X177993001Y-97037548D01*
X177763789Y-96999300D01*
X177543391Y-96999300D01*
X177476352Y-96979615D01*
X177455710Y-96962981D01*
X172543860Y-92051131D01*
X172510375Y-91989808D01*
X172507541Y-91963450D01*
X172507541Y-82587659D01*
X172527226Y-82520620D01*
X172561687Y-82485207D01*
X172689258Y-82398232D01*
X172876091Y-82224877D01*
X173035000Y-82025612D01*
X173162434Y-81804888D01*
X173255549Y-81567637D01*
X173312263Y-81319157D01*
X173325815Y-81138313D01*
X173331309Y-81065004D01*
X173331309Y-81064995D01*
X173312263Y-80810845D01*
X173291414Y-80719501D01*
X173255549Y-80562363D01*
X173162434Y-80325112D01*
X173035000Y-80104388D01*
X172876091Y-79905123D01*
X172689258Y-79731768D01*
X172478675Y-79588195D01*
X172478671Y-79588193D01*
X172478668Y-79588191D01*
X172478667Y-79588190D01*
X172249047Y-79477612D01*
X172249049Y-79477612D01*
X172005507Y-79402489D01*
X172005503Y-79402488D01*
X172005499Y-79402487D01*
X171884272Y-79384214D01*
X171753481Y-79364500D01*
X171753476Y-79364500D01*
X171498606Y-79364500D01*
X171498600Y-79364500D01*
X171341650Y-79388157D01*
X171246583Y-79402487D01*
X171246580Y-79402488D01*
X171246574Y-79402489D01*
X171003033Y-79477612D01*
X170773414Y-79588190D01*
X170773413Y-79588191D01*
X170562823Y-79731768D01*
X170375993Y-79905121D01*
X170375991Y-79905123D01*
X170217082Y-80104388D01*
X170089649Y-80325109D01*
X169996533Y-80562362D01*
X169996531Y-80562369D01*
X169939818Y-80810845D01*
X169920773Y-81064995D01*
X168326540Y-81064995D01*
X168326540Y-79817128D01*
X168320132Y-79757517D01*
X168310528Y-79731768D01*
X168269838Y-79622671D01*
X168269834Y-79622664D01*
X168183588Y-79507455D01*
X168183585Y-79507452D01*
X168068376Y-79421206D01*
X168068369Y-79421202D01*
X167933523Y-79370908D01*
X167933524Y-79370908D01*
X167873924Y-79364501D01*
X167873922Y-79364500D01*
X167873914Y-79364500D01*
X167873905Y-79364500D01*
X165378170Y-79364500D01*
X165378164Y-79364501D01*
X165318557Y-79370908D01*
X165183712Y-79421202D01*
X165183705Y-79421206D01*
X165068496Y-79507452D01*
X165068493Y-79507455D01*
X164982247Y-79622664D01*
X164982243Y-79622671D01*
X164931949Y-79757517D01*
X164925542Y-79817116D01*
X164925542Y-79817123D01*
X164925541Y-79817135D01*
X164925541Y-80059500D01*
X164905856Y-80126539D01*
X164853052Y-80172294D01*
X164801541Y-80183500D01*
X160348374Y-80183500D01*
X160281335Y-80163815D01*
X160239542Y-80118927D01*
X160207092Y-80059500D01*
X160153026Y-79960485D01*
X160045716Y-79817135D01*
X159981545Y-79731412D01*
X159981529Y-79731394D01*
X159779205Y-79529070D01*
X159779187Y-79529054D01*
X159550117Y-79357575D01*
X159550109Y-79357570D01*
X159298966Y-79220435D01*
X159298967Y-79220435D01*
X159174955Y-79174181D01*
X159030846Y-79120431D01*
X159030843Y-79120430D01*
X159030837Y-79120428D01*
X158751233Y-79059604D01*
X158465801Y-79039190D01*
X158465799Y-79039190D01*
X158180366Y-79059604D01*
X157900762Y-79120428D01*
X157632633Y-79220435D01*
X157381490Y-79357570D01*
X157381482Y-79357575D01*
X157152412Y-79529054D01*
X157152394Y-79529070D01*
X156950070Y-79731394D01*
X156950054Y-79731412D01*
X156778575Y-79960482D01*
X156778570Y-79960490D01*
X156749440Y-80013839D01*
X156699997Y-80104388D01*
X156699484Y-80105327D01*
X156650079Y-80154732D01*
X156590652Y-80169900D01*
X140116492Y-80169900D01*
X140049453Y-80150215D01*
X140028811Y-80133581D01*
X136850621Y-76955391D01*
X136817136Y-76894068D01*
X136815342Y-76865815D01*
X136814468Y-76865815D01*
X136814468Y-76860398D01*
X136805629Y-76759366D01*
X136794635Y-76633708D01*
X136735739Y-76413904D01*
X136639568Y-76207666D01*
X136509047Y-76021261D01*
X136509045Y-76021258D01*
X136348141Y-75860354D01*
X136161734Y-75729832D01*
X136161732Y-75729831D01*
X135955497Y-75633661D01*
X135955488Y-75633658D01*
X135735697Y-75574766D01*
X135735693Y-75574765D01*
X135735692Y-75574765D01*
X135735691Y-75574764D01*
X135735686Y-75574764D01*
X135509002Y-75554932D01*
X135508998Y-75554932D01*
X135282313Y-75574764D01*
X135282302Y-75574766D01*
X135062511Y-75633658D01*
X135062502Y-75633661D01*
X134856267Y-75729831D01*
X134856265Y-75729832D01*
X134669862Y-75860351D01*
X134638950Y-75891264D01*
X134587631Y-75942582D01*
X134526311Y-75976066D01*
X134499952Y-75978900D01*
X122697777Y-75978900D01*
X122527481Y-76012774D01*
X122527471Y-76012777D01*
X122367059Y-76079221D01*
X122367046Y-76079228D01*
X122222676Y-76175694D01*
X122222672Y-76175697D01*
X121694990Y-76703378D01*
X121633667Y-76736863D01*
X121605413Y-76738665D01*
X121605413Y-76739532D01*
X121599998Y-76739532D01*
X121373313Y-76759364D01*
X121373302Y-76759366D01*
X121153511Y-76818258D01*
X121153502Y-76818261D01*
X120947267Y-76914431D01*
X120947265Y-76914432D01*
X120760858Y-77044954D01*
X120599954Y-77205858D01*
X120469432Y-77392265D01*
X120469431Y-77392267D01*
X120373261Y-77598502D01*
X120373258Y-77598511D01*
X120314366Y-77818302D01*
X120314364Y-77818313D01*
X120294532Y-78044998D01*
X120294532Y-78045002D01*
X120308674Y-78206658D01*
X120294907Y-78275158D01*
X120272827Y-78305146D01*
X119403794Y-79174181D01*
X119342471Y-79207666D01*
X119316113Y-79210500D01*
X107605683Y-79210500D01*
X107459927Y-79239493D01*
X107459919Y-79239495D01*
X107322608Y-79296371D01*
X107199035Y-79378939D01*
X107199034Y-79378940D01*
X107156773Y-79421202D01*
X107093941Y-79484034D01*
X107093939Y-79484036D01*
X104240146Y-82337827D01*
X104178823Y-82371312D01*
X104141658Y-82373674D01*
X103980002Y-82359532D01*
X103979998Y-82359532D01*
X103753313Y-82379364D01*
X103753302Y-82379366D01*
X103533511Y-82438258D01*
X103533502Y-82438261D01*
X103327267Y-82534431D01*
X103327265Y-82534432D01*
X103140858Y-82664954D01*
X102979954Y-82825858D01*
X102849432Y-83012265D01*
X102849431Y-83012267D01*
X102753261Y-83218502D01*
X102753258Y-83218511D01*
X102694366Y-83438302D01*
X102694364Y-83438313D01*
X102674532Y-83664998D01*
X95125468Y-83664998D01*
X95105635Y-83438308D01*
X95046739Y-83218504D01*
X94950568Y-83012266D01*
X94820047Y-82825861D01*
X94820045Y-82825858D01*
X94659141Y-82664954D01*
X94472734Y-82534432D01*
X94472732Y-82534431D01*
X94266497Y-82438261D01*
X94266488Y-82438258D01*
X94046697Y-82379366D01*
X94046693Y-82379365D01*
X94046692Y-82379365D01*
X94046691Y-82379364D01*
X94046686Y-82379364D01*
X93820002Y-82359532D01*
X93819998Y-82359532D01*
X93593313Y-82379364D01*
X93593302Y-82379366D01*
X93373511Y-82438258D01*
X93373502Y-82438261D01*
X93167267Y-82534431D01*
X93167265Y-82534432D01*
X92980858Y-82664954D01*
X92819954Y-82825858D01*
X92689432Y-83012265D01*
X92689431Y-83012267D01*
X92593261Y-83218502D01*
X92593258Y-83218511D01*
X92534366Y-83438302D01*
X92534364Y-83438313D01*
X92514532Y-83664998D01*
X84600500Y-83664998D01*
X84600499Y-81407128D01*
X84594091Y-81347517D01*
X84593574Y-81346132D01*
X84543797Y-81212671D01*
X84543793Y-81212664D01*
X84457547Y-81097455D01*
X84457544Y-81097452D01*
X84342335Y-81011206D01*
X84342328Y-81011202D01*
X84207482Y-80960908D01*
X84207483Y-80960908D01*
X84147883Y-80954501D01*
X84147881Y-80954500D01*
X84147873Y-80954500D01*
X84147864Y-80954500D01*
X81852129Y-80954500D01*
X81852123Y-80954501D01*
X81792516Y-80960908D01*
X81657671Y-81011202D01*
X81657664Y-81011206D01*
X81542455Y-81097452D01*
X81542452Y-81097455D01*
X81456206Y-81212664D01*
X81456202Y-81212671D01*
X81405908Y-81347517D01*
X81403925Y-81365966D01*
X81399501Y-81407123D01*
X81399500Y-81407135D01*
X72922744Y-81407135D01*
X72769097Y-81365966D01*
X72769093Y-81365965D01*
X72769092Y-81365965D01*
X72769091Y-81365964D01*
X72769086Y-81365964D01*
X72542402Y-81346132D01*
X72542398Y-81346132D01*
X72315713Y-81365964D01*
X72315702Y-81365966D01*
X72095911Y-81424858D01*
X72095902Y-81424861D01*
X71889667Y-81521031D01*
X71889665Y-81521032D01*
X71703258Y-81651554D01*
X71542354Y-81812458D01*
X71411832Y-81998865D01*
X71411831Y-81998867D01*
X71315661Y-82205102D01*
X71315658Y-82205111D01*
X71256766Y-82424902D01*
X71256764Y-82424913D01*
X71236932Y-82651598D01*
X63695685Y-82651598D01*
X63706692Y-82650635D01*
X63926496Y-82591739D01*
X64132734Y-82495568D01*
X64319139Y-82365047D01*
X64480047Y-82204139D01*
X64610568Y-82017734D01*
X64706739Y-81811496D01*
X64765635Y-81591692D01*
X64782634Y-81397384D01*
X64785468Y-81365001D01*
X64785468Y-81364998D01*
X64765635Y-81138313D01*
X64765635Y-81138308D01*
X64706739Y-80918504D01*
X64610568Y-80712266D01*
X64480047Y-80525861D01*
X64480045Y-80525858D01*
X64319141Y-80364954D01*
X64132734Y-80234432D01*
X64132732Y-80234431D01*
X63926497Y-80138261D01*
X63926488Y-80138258D01*
X63706697Y-80079366D01*
X63706693Y-80079365D01*
X63706692Y-80079365D01*
X63706691Y-80079364D01*
X63706686Y-80079364D01*
X63480002Y-80059532D01*
X63479998Y-80059532D01*
X63253313Y-80079364D01*
X63253302Y-80079366D01*
X63033511Y-80138258D01*
X63033502Y-80138261D01*
X62827267Y-80234431D01*
X62827265Y-80234432D01*
X62640858Y-80364954D01*
X62479954Y-80525858D01*
X62349432Y-80712265D01*
X62349431Y-80712267D01*
X62253261Y-80918502D01*
X62253258Y-80918511D01*
X62194366Y-81138302D01*
X62194364Y-81138313D01*
X62174532Y-81364998D01*
X54625468Y-81364998D01*
X54605635Y-81138313D01*
X54605635Y-81138308D01*
X54546739Y-80918504D01*
X54450568Y-80712266D01*
X54320047Y-80525861D01*
X54320045Y-80525858D01*
X54159141Y-80364954D01*
X53972734Y-80234432D01*
X53972732Y-80234431D01*
X53766497Y-80138261D01*
X53766488Y-80138258D01*
X53546697Y-80079366D01*
X53546693Y-80079365D01*
X53546692Y-80079365D01*
X53546691Y-80079364D01*
X53546686Y-80079364D01*
X53320002Y-80059532D01*
X53319998Y-80059532D01*
X53093313Y-80079364D01*
X53093302Y-80079366D01*
X52873511Y-80138258D01*
X52873502Y-80138261D01*
X52667267Y-80234431D01*
X52667265Y-80234432D01*
X52480858Y-80364954D01*
X52319954Y-80525858D01*
X52189432Y-80712265D01*
X52189431Y-80712267D01*
X52093261Y-80918502D01*
X52093258Y-80918511D01*
X52034366Y-81138302D01*
X52034364Y-81138313D01*
X52014532Y-81364998D01*
X38951300Y-81364998D01*
X38951300Y-78715000D01*
X83794551Y-78715000D01*
X83814317Y-78966151D01*
X83873126Y-79211110D01*
X83969533Y-79443859D01*
X84101160Y-79658653D01*
X84101161Y-79658656D01*
X84101164Y-79658659D01*
X84264776Y-79850224D01*
X84393872Y-79960482D01*
X84456343Y-80013838D01*
X84456346Y-80013839D01*
X84671140Y-80145466D01*
X84885922Y-80234431D01*
X84903889Y-80241873D01*
X85148852Y-80300683D01*
X85400000Y-80320449D01*
X85651148Y-80300683D01*
X85896111Y-80241873D01*
X86128859Y-80145466D01*
X86343659Y-80013836D01*
X86535224Y-79850224D01*
X86698836Y-79658659D01*
X86830466Y-79443859D01*
X86926873Y-79211111D01*
X86985683Y-78966148D01*
X87005449Y-78715000D01*
X86985683Y-78463852D01*
X86926873Y-78218889D01*
X86910737Y-78179934D01*
X86830466Y-77986140D01*
X86698839Y-77771346D01*
X86698838Y-77771343D01*
X86661875Y-77728066D01*
X86535224Y-77579776D01*
X86398294Y-77462827D01*
X86343656Y-77416161D01*
X86343653Y-77416160D01*
X86128859Y-77284533D01*
X85896110Y-77188126D01*
X85651151Y-77129317D01*
X85400000Y-77109551D01*
X85148848Y-77129317D01*
X84903889Y-77188126D01*
X84671140Y-77284533D01*
X84456346Y-77416160D01*
X84456343Y-77416161D01*
X84264776Y-77579776D01*
X84101161Y-77771343D01*
X84101160Y-77771346D01*
X83969533Y-77986140D01*
X83873126Y-78218889D01*
X83814317Y-78463848D01*
X83794551Y-78715000D01*
X38951300Y-78715000D01*
X38951300Y-73846935D01*
X48580300Y-73846935D01*
X48580300Y-75542670D01*
X48580301Y-75542676D01*
X48586708Y-75602283D01*
X48637002Y-75737128D01*
X48637006Y-75737135D01*
X48723252Y-75852344D01*
X48723255Y-75852347D01*
X48838464Y-75938593D01*
X48838471Y-75938597D01*
X48973317Y-75988891D01*
X48973316Y-75988891D01*
X48980244Y-75989635D01*
X49032927Y-75995300D01*
X50728672Y-75995299D01*
X50788283Y-75988891D01*
X50923131Y-75938596D01*
X51038346Y-75852346D01*
X51044851Y-75843656D01*
X51100782Y-75801784D01*
X51170473Y-75796797D01*
X51215242Y-75816389D01*
X51228064Y-75825367D01*
X51228066Y-75825368D01*
X51434304Y-75921539D01*
X51654108Y-75980435D01*
X51816030Y-75994601D01*
X51880798Y-76000268D01*
X51880800Y-76000268D01*
X51880802Y-76000268D01*
X51937607Y-75995298D01*
X52107492Y-75980435D01*
X52327296Y-75921539D01*
X52443922Y-75867155D01*
X97250000Y-75867155D01*
X97250000Y-76415000D01*
X98184314Y-76415000D01*
X98179920Y-76419394D01*
X98127259Y-76510606D01*
X98100000Y-76612339D01*
X98100000Y-76717661D01*
X98127259Y-76819394D01*
X98179920Y-76910606D01*
X98184314Y-76915000D01*
X97250000Y-76915000D01*
X97250000Y-77462844D01*
X97256401Y-77522372D01*
X97256403Y-77522379D01*
X97306645Y-77657086D01*
X97306649Y-77657093D01*
X97392809Y-77772187D01*
X97392812Y-77772190D01*
X97507906Y-77858350D01*
X97507913Y-77858354D01*
X97642620Y-77908596D01*
X97642627Y-77908598D01*
X97702155Y-77914999D01*
X97702172Y-77915000D01*
X98250000Y-77915000D01*
X98250000Y-76980686D01*
X98254394Y-76985080D01*
X98345606Y-77037741D01*
X98447339Y-77065000D01*
X98552661Y-77065000D01*
X98654394Y-77037741D01*
X98745606Y-76985080D01*
X98750000Y-76980686D01*
X98750000Y-77915000D01*
X99297828Y-77915000D01*
X99297844Y-77914999D01*
X99357372Y-77908598D01*
X99357379Y-77908596D01*
X99492086Y-77858354D01*
X99492093Y-77858350D01*
X99607187Y-77772190D01*
X99607190Y-77772187D01*
X99693350Y-77657093D01*
X99693354Y-77657086D01*
X99743596Y-77522379D01*
X99743598Y-77522372D01*
X99749999Y-77462844D01*
X99750000Y-77462827D01*
X99750000Y-76915000D01*
X98815686Y-76915000D01*
X98820080Y-76910606D01*
X98872741Y-76819394D01*
X98900000Y-76717661D01*
X98900000Y-76612339D01*
X98872741Y-76510606D01*
X98820080Y-76419394D01*
X98815686Y-76415000D01*
X99750000Y-76415000D01*
X99750000Y-75867172D01*
X99749999Y-75867155D01*
X99743598Y-75807627D01*
X99743596Y-75807620D01*
X99693354Y-75672913D01*
X99693350Y-75672906D01*
X99607190Y-75557812D01*
X99607187Y-75557809D01*
X99492093Y-75471649D01*
X99492086Y-75471645D01*
X99357379Y-75421403D01*
X99357372Y-75421401D01*
X99297844Y-75415000D01*
X98750000Y-75415000D01*
X98750000Y-76349314D01*
X98745606Y-76344920D01*
X98654394Y-76292259D01*
X98552661Y-76265000D01*
X98447339Y-76265000D01*
X98345606Y-76292259D01*
X98254394Y-76344920D01*
X98250000Y-76349314D01*
X98250000Y-75415000D01*
X97702155Y-75415000D01*
X97642627Y-75421401D01*
X97642620Y-75421403D01*
X97507913Y-75471645D01*
X97507906Y-75471649D01*
X97392812Y-75557809D01*
X97392809Y-75557812D01*
X97306649Y-75672906D01*
X97306645Y-75672913D01*
X97256403Y-75807620D01*
X97256401Y-75807627D01*
X97250000Y-75867155D01*
X52443922Y-75867155D01*
X52533534Y-75825368D01*
X52719939Y-75694847D01*
X52880847Y-75533939D01*
X53011368Y-75347534D01*
X53107539Y-75141296D01*
X53166435Y-74921492D01*
X53186268Y-74694800D01*
X53166435Y-74468108D01*
X53119317Y-74292259D01*
X53107541Y-74248311D01*
X53107538Y-74248302D01*
X53084361Y-74198599D01*
X53011368Y-74042066D01*
X52880847Y-73855661D01*
X52880845Y-73855658D01*
X52719941Y-73694754D01*
X52533534Y-73564232D01*
X52533532Y-73564231D01*
X52327297Y-73468061D01*
X52327288Y-73468058D01*
X52107497Y-73409166D01*
X52107493Y-73409165D01*
X52107492Y-73409165D01*
X52107491Y-73409164D01*
X52107486Y-73409164D01*
X51880802Y-73389332D01*
X51880798Y-73389332D01*
X51654113Y-73409164D01*
X51654102Y-73409166D01*
X51434311Y-73468058D01*
X51434302Y-73468061D01*
X51228067Y-73564231D01*
X51228062Y-73564234D01*
X51215235Y-73573215D01*
X51149027Y-73595538D01*
X51081261Y-73578522D01*
X51044852Y-73545945D01*
X51038346Y-73537254D01*
X51038345Y-73537253D01*
X51038344Y-73537252D01*
X50923135Y-73451006D01*
X50923128Y-73451002D01*
X50788282Y-73400708D01*
X50788283Y-73400708D01*
X50728683Y-73394301D01*
X50728681Y-73394300D01*
X50728673Y-73394300D01*
X50728664Y-73394300D01*
X49032929Y-73394300D01*
X49032923Y-73394301D01*
X48973316Y-73400708D01*
X48838471Y-73451002D01*
X48838464Y-73451006D01*
X48723255Y-73537252D01*
X48723252Y-73537255D01*
X48637006Y-73652464D01*
X48637002Y-73652471D01*
X48586708Y-73787317D01*
X48580301Y-73846916D01*
X48580300Y-73846935D01*
X38951300Y-73846935D01*
X38951300Y-72304035D01*
X71495800Y-72304035D01*
X71495800Y-73745970D01*
X71495801Y-73745976D01*
X71502208Y-73805583D01*
X71552502Y-73940428D01*
X71552506Y-73940435D01*
X71638752Y-74055644D01*
X71638755Y-74055647D01*
X71753964Y-74141893D01*
X71753971Y-74141897D01*
X71888817Y-74192191D01*
X71888816Y-74192191D01*
X71895744Y-74192935D01*
X71948427Y-74198600D01*
X73390372Y-74198599D01*
X73449983Y-74192191D01*
X73584831Y-74141896D01*
X73607405Y-74124997D01*
X94704723Y-74124997D01*
X94704723Y-74125002D01*
X94723793Y-74342975D01*
X94723793Y-74342979D01*
X94780422Y-74554322D01*
X94780424Y-74554326D01*
X94780425Y-74554330D01*
X94807475Y-74612339D01*
X94872897Y-74752638D01*
X94872898Y-74752639D01*
X94998402Y-74931877D01*
X95153123Y-75086598D01*
X95332361Y-75212102D01*
X95530670Y-75304575D01*
X95742023Y-75361207D01*
X95924926Y-75377208D01*
X95959998Y-75380277D01*
X95960000Y-75380277D01*
X95960002Y-75380277D01*
X95988254Y-75377805D01*
X96177977Y-75361207D01*
X96389330Y-75304575D01*
X96587639Y-75212102D01*
X96766877Y-75086598D01*
X96921598Y-74931877D01*
X97047102Y-74752639D01*
X97087970Y-74664997D01*
X106295034Y-74664997D01*
X106295034Y-74665002D01*
X106314858Y-74891599D01*
X106314860Y-74891610D01*
X106373730Y-75111317D01*
X106373735Y-75111331D01*
X106469863Y-75317478D01*
X106520974Y-75390472D01*
X107200000Y-74711446D01*
X107200000Y-74717661D01*
X107227259Y-74819394D01*
X107279920Y-74910606D01*
X107354394Y-74985080D01*
X107445606Y-75037741D01*
X107547339Y-75065000D01*
X107553553Y-75065000D01*
X106874526Y-75744025D01*
X106947513Y-75795132D01*
X106947521Y-75795136D01*
X107153668Y-75891264D01*
X107153682Y-75891269D01*
X107373389Y-75950139D01*
X107373400Y-75950141D01*
X107599998Y-75969966D01*
X107600002Y-75969966D01*
X107826599Y-75950141D01*
X107826610Y-75950139D01*
X108046317Y-75891269D01*
X108046331Y-75891264D01*
X108252478Y-75795136D01*
X108325471Y-75744024D01*
X107646447Y-75065000D01*
X107652661Y-75065000D01*
X107754394Y-75037741D01*
X107845606Y-74985080D01*
X107920080Y-74910606D01*
X107972741Y-74819394D01*
X108000000Y-74717661D01*
X108000000Y-74711447D01*
X108679024Y-75390471D01*
X108730136Y-75317478D01*
X108826264Y-75111331D01*
X108826269Y-75111317D01*
X108885139Y-74891610D01*
X108885141Y-74891599D01*
X108904966Y-74665002D01*
X108904966Y-74664997D01*
X108885141Y-74438400D01*
X108885139Y-74438389D01*
X108826269Y-74218682D01*
X108826264Y-74218668D01*
X108730136Y-74012521D01*
X108730132Y-74012513D01*
X108679025Y-73939526D01*
X108000000Y-74618551D01*
X108000000Y-74612339D01*
X107972741Y-74510606D01*
X107920080Y-74419394D01*
X107845606Y-74344920D01*
X107754394Y-74292259D01*
X107652661Y-74265000D01*
X107646448Y-74265000D01*
X108325472Y-73585974D01*
X108252478Y-73534863D01*
X108046331Y-73438735D01*
X108046317Y-73438730D01*
X107826610Y-73379860D01*
X107826599Y-73379858D01*
X107600002Y-73360034D01*
X107599998Y-73360034D01*
X107373400Y-73379858D01*
X107373389Y-73379860D01*
X107153682Y-73438730D01*
X107153673Y-73438734D01*
X106947516Y-73534866D01*
X106947512Y-73534868D01*
X106874526Y-73585973D01*
X106874526Y-73585974D01*
X107553553Y-74265000D01*
X107547339Y-74265000D01*
X107445606Y-74292259D01*
X107354394Y-74344920D01*
X107279920Y-74419394D01*
X107227259Y-74510606D01*
X107200000Y-74612339D01*
X107200000Y-74618552D01*
X106520974Y-73939526D01*
X106520973Y-73939526D01*
X106469868Y-74012512D01*
X106469866Y-74012516D01*
X106373734Y-74218673D01*
X106373730Y-74218682D01*
X106314860Y-74438389D01*
X106314858Y-74438400D01*
X106295034Y-74664997D01*
X97087970Y-74664997D01*
X97139575Y-74554330D01*
X97196207Y-74342977D01*
X97215277Y-74125000D01*
X97196207Y-73907023D01*
X97153056Y-73745983D01*
X97139577Y-73695677D01*
X97139576Y-73695676D01*
X97139575Y-73695670D01*
X97047102Y-73497362D01*
X97047100Y-73497359D01*
X97047099Y-73497357D01*
X96921599Y-73318124D01*
X96857798Y-73254323D01*
X96766877Y-73163402D01*
X96587639Y-73037898D01*
X96587640Y-73037898D01*
X96587638Y-73037897D01*
X96488484Y-72991661D01*
X96389330Y-72945425D01*
X96389326Y-72945424D01*
X96389322Y-72945422D01*
X96177977Y-72888793D01*
X95960002Y-72869723D01*
X95959998Y-72869723D01*
X95814682Y-72882436D01*
X95742023Y-72888793D01*
X95742020Y-72888793D01*
X95530677Y-72945422D01*
X95530668Y-72945426D01*
X95332361Y-73037898D01*
X95332357Y-73037900D01*
X95153121Y-73163402D01*
X94998402Y-73318121D01*
X94872900Y-73497357D01*
X94872898Y-73497361D01*
X94780426Y-73695668D01*
X94780422Y-73695677D01*
X94723793Y-73907020D01*
X94723793Y-73907024D01*
X94704723Y-74124997D01*
X73607405Y-74124997D01*
X73700046Y-74055646D01*
X73786296Y-73940431D01*
X73836591Y-73805583D01*
X73843000Y-73745973D01*
X73842999Y-72304028D01*
X73836591Y-72244417D01*
X73824738Y-72212638D01*
X73786297Y-72109571D01*
X73786293Y-72109564D01*
X73700047Y-71994355D01*
X73700044Y-71994352D01*
X73584835Y-71908106D01*
X73584828Y-71908102D01*
X73449982Y-71857808D01*
X73449983Y-71857808D01*
X73390383Y-71851401D01*
X73390381Y-71851400D01*
X73390373Y-71851400D01*
X73390364Y-71851400D01*
X71948429Y-71851400D01*
X71948423Y-71851401D01*
X71888816Y-71857808D01*
X71753971Y-71908102D01*
X71753964Y-71908106D01*
X71638755Y-71994352D01*
X71638752Y-71994355D01*
X71552506Y-72109564D01*
X71552502Y-72109571D01*
X71502208Y-72244417D01*
X71495801Y-72304016D01*
X71495801Y-72304023D01*
X71495800Y-72304035D01*
X38951300Y-72304035D01*
X38951300Y-68275709D01*
X38970985Y-68208670D01*
X39023789Y-68162915D01*
X39092947Y-68152971D01*
X39156503Y-68181996D01*
X39194277Y-68240774D01*
X39195584Y-68245580D01*
X39220623Y-68345545D01*
X39220624Y-68345548D01*
X39353016Y-68715559D01*
X39353023Y-68715575D01*
X39521062Y-69070864D01*
X39723109Y-69407958D01*
X39957228Y-69723632D01*
X40053068Y-69829376D01*
X40053069Y-69829376D01*
X41651381Y-68231064D01*
X41734457Y-68339331D01*
X41896669Y-68501543D01*
X42004934Y-68584617D01*
X40406622Y-70182929D01*
X40406622Y-70182930D01*
X40512367Y-70278771D01*
X40828041Y-70512890D01*
X41165135Y-70714937D01*
X41520424Y-70882976D01*
X41520440Y-70882983D01*
X41890450Y-71015374D01*
X42271691Y-71110870D01*
X42660449Y-71168538D01*
X43053000Y-71187823D01*
X43445550Y-71168538D01*
X43834308Y-71110870D01*
X44215549Y-71015374D01*
X44585559Y-70882983D01*
X44585575Y-70882976D01*
X44940864Y-70714937D01*
X45277958Y-70512890D01*
X45315565Y-70484999D01*
X68951274Y-70484999D01*
X68951274Y-70485000D01*
X68971333Y-70701475D01*
X69030831Y-70910591D01*
X69127738Y-71105205D01*
X69139743Y-71121101D01*
X69712491Y-70548355D01*
X69738861Y-70646766D01*
X69794037Y-70742333D01*
X69872067Y-70820363D01*
X69967634Y-70875539D01*
X70066044Y-70901908D01*
X69495611Y-71472339D01*
X69604263Y-71539614D01*
X69604264Y-71539615D01*
X69806988Y-71618150D01*
X70020698Y-71658100D01*
X70238102Y-71658100D01*
X70451816Y-71618149D01*
X70537391Y-71584997D01*
X97244723Y-71584997D01*
X97244723Y-71585002D01*
X97263793Y-71802975D01*
X97263793Y-71802979D01*
X97320422Y-72014322D01*
X97320424Y-72014326D01*
X97320425Y-72014330D01*
X97329297Y-72033355D01*
X97412897Y-72212638D01*
X97435149Y-72244417D01*
X97538402Y-72391877D01*
X97693123Y-72546598D01*
X97872361Y-72672102D01*
X98070670Y-72764575D01*
X98282023Y-72821207D01*
X98464926Y-72837208D01*
X98499998Y-72840277D01*
X98500000Y-72840277D01*
X98500002Y-72840277D01*
X98528254Y-72837805D01*
X98717977Y-72821207D01*
X98929330Y-72764575D01*
X99127639Y-72672102D01*
X99306877Y-72546598D01*
X99461598Y-72391877D01*
X99587102Y-72212639D01*
X99679575Y-72014330D01*
X99736207Y-71802977D01*
X99755277Y-71585000D01*
X99736207Y-71367023D01*
X99735664Y-71364998D01*
X128014532Y-71364998D01*
X128014532Y-71365001D01*
X128034364Y-71591686D01*
X128034366Y-71591697D01*
X128093258Y-71811488D01*
X128093261Y-71811497D01*
X128189431Y-72017732D01*
X128189432Y-72017734D01*
X128319954Y-72204141D01*
X128480858Y-72365045D01*
X128480861Y-72365047D01*
X128667266Y-72495568D01*
X128873504Y-72591739D01*
X129093308Y-72650635D01*
X129255230Y-72664801D01*
X129319998Y-72670468D01*
X129320000Y-72670468D01*
X129320002Y-72670468D01*
X129376673Y-72665509D01*
X129546692Y-72650635D01*
X129766496Y-72591739D01*
X129972734Y-72495568D01*
X130159139Y-72365047D01*
X130320047Y-72204139D01*
X130450568Y-72017734D01*
X130546739Y-71811496D01*
X130605635Y-71591692D01*
X130625468Y-71365000D01*
X130605635Y-71138308D01*
X130599389Y-71114999D01*
X138201127Y-71114999D01*
X138201128Y-71115000D01*
X139164314Y-71115000D01*
X139159920Y-71119394D01*
X139107259Y-71210606D01*
X139080000Y-71312339D01*
X139080000Y-71417661D01*
X139107259Y-71519394D01*
X139159920Y-71610606D01*
X139164314Y-71615000D01*
X138201128Y-71615000D01*
X138253730Y-71811317D01*
X138253734Y-71811326D01*
X138349865Y-72017482D01*
X138480342Y-72203820D01*
X138641179Y-72364657D01*
X138827517Y-72495134D01*
X139033673Y-72591265D01*
X139033682Y-72591269D01*
X139229999Y-72643872D01*
X139230000Y-72643871D01*
X139230000Y-71680686D01*
X139234394Y-71685080D01*
X139325606Y-71737741D01*
X139427339Y-71765000D01*
X139532661Y-71765000D01*
X139634394Y-71737741D01*
X139725606Y-71685080D01*
X139730000Y-71680686D01*
X139730000Y-72643872D01*
X139926317Y-72591269D01*
X139926326Y-72591265D01*
X140132482Y-72495134D01*
X140318820Y-72364657D01*
X140479657Y-72203820D01*
X140610134Y-72017482D01*
X140706265Y-71811326D01*
X140706269Y-71811317D01*
X140758872Y-71615000D01*
X139795686Y-71615000D01*
X139800080Y-71610606D01*
X139852741Y-71519394D01*
X139880000Y-71417661D01*
X139880000Y-71312339D01*
X139852741Y-71210606D01*
X139800080Y-71119394D01*
X139795686Y-71115000D01*
X140758872Y-71115000D01*
X140758872Y-71114999D01*
X140706269Y-70918682D01*
X140706265Y-70918673D01*
X140610134Y-70712517D01*
X140479657Y-70526179D01*
X140318820Y-70365342D01*
X140132482Y-70234865D01*
X139926328Y-70138734D01*
X139730000Y-70086127D01*
X139730000Y-71049314D01*
X139725606Y-71044920D01*
X139634394Y-70992259D01*
X139532661Y-70965000D01*
X139427339Y-70965000D01*
X139325606Y-70992259D01*
X139234394Y-71044920D01*
X139230000Y-71049314D01*
X139230000Y-70086127D01*
X139033671Y-70138734D01*
X138827517Y-70234865D01*
X138641179Y-70365342D01*
X138480342Y-70526179D01*
X138349865Y-70712517D01*
X138253734Y-70918673D01*
X138253730Y-70918682D01*
X138201127Y-71114999D01*
X130599389Y-71114999D01*
X130546739Y-70918504D01*
X130450568Y-70712266D01*
X130320047Y-70525861D01*
X130320045Y-70525858D01*
X130159141Y-70364954D01*
X129972734Y-70234432D01*
X129972732Y-70234431D01*
X129766497Y-70138261D01*
X129766488Y-70138258D01*
X129546697Y-70079366D01*
X129546693Y-70079365D01*
X129546692Y-70079365D01*
X129546691Y-70079364D01*
X129546686Y-70079364D01*
X129320002Y-70059532D01*
X129319998Y-70059532D01*
X129093313Y-70079364D01*
X129093302Y-70079366D01*
X128873511Y-70138258D01*
X128873502Y-70138261D01*
X128667267Y-70234431D01*
X128667265Y-70234432D01*
X128480858Y-70364954D01*
X128319954Y-70525858D01*
X128189432Y-70712265D01*
X128189431Y-70712267D01*
X128093261Y-70918502D01*
X128093258Y-70918511D01*
X128034366Y-71138302D01*
X128034364Y-71138313D01*
X128014532Y-71364998D01*
X99735664Y-71364998D01*
X99679575Y-71155670D01*
X99587102Y-70957362D01*
X99587100Y-70957359D01*
X99587099Y-70957357D01*
X99461599Y-70778124D01*
X99384950Y-70701475D01*
X99306877Y-70623402D01*
X99127639Y-70497898D01*
X99127640Y-70497898D01*
X99127638Y-70497897D01*
X99024115Y-70449624D01*
X98929330Y-70405425D01*
X98929326Y-70405424D01*
X98929322Y-70405422D01*
X98717977Y-70348793D01*
X98500002Y-70329723D01*
X98499998Y-70329723D01*
X98356355Y-70342290D01*
X98282023Y-70348793D01*
X98282020Y-70348793D01*
X98070677Y-70405422D01*
X98070668Y-70405426D01*
X97872361Y-70497898D01*
X97872357Y-70497900D01*
X97693121Y-70623402D01*
X97538402Y-70778121D01*
X97412900Y-70957357D01*
X97412898Y-70957361D01*
X97320426Y-71155668D01*
X97320422Y-71155677D01*
X97263793Y-71367020D01*
X97263793Y-71367024D01*
X97244723Y-71584997D01*
X70537391Y-71584997D01*
X70654535Y-71539615D01*
X70654539Y-71539613D01*
X70763186Y-71472340D01*
X70763186Y-71472339D01*
X70192756Y-70901908D01*
X70291166Y-70875539D01*
X70386733Y-70820363D01*
X70464763Y-70742333D01*
X70519939Y-70646766D01*
X70546308Y-70548356D01*
X71119053Y-71121101D01*
X71119055Y-71121101D01*
X71131062Y-71105203D01*
X71227968Y-70910591D01*
X71287466Y-70701475D01*
X71307526Y-70485000D01*
X71307526Y-70484999D01*
X71287466Y-70268524D01*
X71227968Y-70059408D01*
X71131062Y-69864796D01*
X71131059Y-69864792D01*
X71119054Y-69848896D01*
X70546308Y-70421643D01*
X70519939Y-70323234D01*
X70464763Y-70227667D01*
X70386733Y-70149637D01*
X70291166Y-70094461D01*
X70192755Y-70068091D01*
X70763187Y-69497659D01*
X70654537Y-69430385D01*
X70654535Y-69430384D01*
X70451811Y-69351849D01*
X70238102Y-69311900D01*
X70020698Y-69311900D01*
X69806988Y-69351849D01*
X69604266Y-69430383D01*
X69604260Y-69430386D01*
X69495612Y-69497658D01*
X69495611Y-69497659D01*
X70066044Y-70068091D01*
X69967634Y-70094461D01*
X69872067Y-70149637D01*
X69794037Y-70227667D01*
X69738861Y-70323234D01*
X69712491Y-70421643D01*
X69139744Y-69848896D01*
X69127741Y-69864790D01*
X69127733Y-69864803D01*
X69030831Y-70059408D01*
X68971333Y-70268524D01*
X68951274Y-70484999D01*
X45315565Y-70484999D01*
X45593632Y-70278770D01*
X45699376Y-70182929D01*
X44101065Y-68584618D01*
X44209331Y-68501543D01*
X44371543Y-68339331D01*
X44454618Y-68231065D01*
X46052929Y-69829376D01*
X46148770Y-69723632D01*
X46382890Y-69407958D01*
X46584937Y-69070864D01*
X46752976Y-68715575D01*
X46752983Y-68715559D01*
X46885374Y-68345549D01*
X46980870Y-67964308D01*
X46983734Y-67944999D01*
X71491274Y-67944999D01*
X71491274Y-67945000D01*
X71511333Y-68161475D01*
X71570831Y-68370591D01*
X71667738Y-68565205D01*
X71679743Y-68581101D01*
X72252491Y-68008355D01*
X72278861Y-68106766D01*
X72334037Y-68202333D01*
X72412067Y-68280363D01*
X72507634Y-68335539D01*
X72606044Y-68361908D01*
X72035611Y-68932339D01*
X72144263Y-68999614D01*
X72144264Y-68999615D01*
X72346988Y-69078150D01*
X72560698Y-69118100D01*
X72778102Y-69118100D01*
X72991816Y-69078149D01*
X73194535Y-68999615D01*
X73194539Y-68999613D01*
X73303186Y-68932340D01*
X73303186Y-68932339D01*
X72732756Y-68361908D01*
X72831166Y-68335539D01*
X72926733Y-68280363D01*
X73004763Y-68202333D01*
X73059939Y-68106766D01*
X73086308Y-68008356D01*
X73659053Y-68581101D01*
X73659055Y-68581101D01*
X73671062Y-68565203D01*
X73767968Y-68370591D01*
X73827466Y-68161475D01*
X73847526Y-67945000D01*
X73847526Y-67944999D01*
X73827466Y-67728524D01*
X73767968Y-67519408D01*
X73712062Y-67407135D01*
X83799500Y-67407135D01*
X83799500Y-69702870D01*
X83799501Y-69702876D01*
X83805908Y-69762483D01*
X83856202Y-69897328D01*
X83856206Y-69897335D01*
X83942452Y-70012544D01*
X83942455Y-70012547D01*
X84057664Y-70098793D01*
X84057671Y-70098797D01*
X84192517Y-70149091D01*
X84192516Y-70149091D01*
X84197595Y-70149637D01*
X84252127Y-70155500D01*
X86547872Y-70155499D01*
X86607483Y-70149091D01*
X86742331Y-70098796D01*
X86857546Y-70012546D01*
X86943796Y-69897331D01*
X86994091Y-69762483D01*
X87000500Y-69702873D01*
X87000500Y-69664998D01*
X106294532Y-69664998D01*
X106294532Y-69665001D01*
X106314364Y-69891686D01*
X106314366Y-69891697D01*
X106373258Y-70111488D01*
X106373261Y-70111497D01*
X106469431Y-70317732D01*
X106469432Y-70317734D01*
X106599954Y-70504141D01*
X106760858Y-70665045D01*
X106760861Y-70665047D01*
X106947266Y-70795568D01*
X107153504Y-70891739D01*
X107373308Y-70950635D01*
X107535230Y-70964801D01*
X107599998Y-70970468D01*
X107600000Y-70970468D01*
X107600002Y-70970468D01*
X107662499Y-70965000D01*
X107826692Y-70950635D01*
X108046496Y-70891739D01*
X108252734Y-70795568D01*
X108439139Y-70665047D01*
X108600047Y-70504139D01*
X108730568Y-70317734D01*
X108826739Y-70111496D01*
X108885635Y-69891692D01*
X108905468Y-69665000D01*
X108885635Y-69438308D01*
X108826739Y-69218504D01*
X108730568Y-69012266D01*
X108600047Y-68825861D01*
X108600045Y-68825858D01*
X108439141Y-68664954D01*
X108252734Y-68534432D01*
X108252732Y-68534431D01*
X108046497Y-68438261D01*
X108046488Y-68438258D01*
X107826697Y-68379366D01*
X107826693Y-68379365D01*
X107826692Y-68379365D01*
X107826691Y-68379364D01*
X107826686Y-68379364D01*
X107600002Y-68359532D01*
X107599998Y-68359532D01*
X107373313Y-68379364D01*
X107373302Y-68379366D01*
X107153511Y-68438258D01*
X107153502Y-68438261D01*
X106947267Y-68534431D01*
X106947265Y-68534432D01*
X106760858Y-68664954D01*
X106599954Y-68825858D01*
X106469432Y-69012265D01*
X106469431Y-69012267D01*
X106373261Y-69218502D01*
X106373258Y-69218511D01*
X106314366Y-69438302D01*
X106314364Y-69438313D01*
X106294532Y-69664998D01*
X87000500Y-69664998D01*
X87000499Y-67884998D01*
X120294532Y-67884998D01*
X120294532Y-67885001D01*
X120314364Y-68111686D01*
X120314366Y-68111697D01*
X120373258Y-68331488D01*
X120373261Y-68331497D01*
X120469431Y-68537732D01*
X120469432Y-68537734D01*
X120599954Y-68724141D01*
X120760858Y-68885045D01*
X120760861Y-68885047D01*
X120947266Y-69015568D01*
X121153504Y-69111739D01*
X121153509Y-69111740D01*
X121153511Y-69111741D01*
X121206415Y-69125916D01*
X121373308Y-69170635D01*
X121535230Y-69184801D01*
X121599998Y-69190468D01*
X121600000Y-69190468D01*
X121600002Y-69190468D01*
X121656673Y-69185509D01*
X121826692Y-69170635D01*
X122046496Y-69111739D01*
X122252734Y-69015568D01*
X122439139Y-68885047D01*
X122600047Y-68724139D01*
X122730568Y-68537734D01*
X122826739Y-68331496D01*
X122885635Y-68111692D01*
X122905468Y-67885000D01*
X122905468Y-67884998D01*
X122905468Y-67879585D01*
X122907565Y-67879585D01*
X122919540Y-67819997D01*
X122941618Y-67790010D01*
X124148811Y-66582819D01*
X124210134Y-66549334D01*
X124236492Y-66546500D01*
X149783508Y-66546500D01*
X149850547Y-66566185D01*
X149871189Y-66582819D01*
X151482181Y-68193811D01*
X151515666Y-68255134D01*
X151518500Y-68281492D01*
X151518500Y-69548508D01*
X151498815Y-69615547D01*
X151482181Y-69636189D01*
X150560589Y-70557781D01*
X150499266Y-70591266D01*
X150472908Y-70594100D01*
X146503441Y-70594100D01*
X146436402Y-70574415D01*
X146403125Y-70542988D01*
X146394677Y-70531361D01*
X146371195Y-70465555D01*
X146387019Y-70397501D01*
X146437123Y-70348805D01*
X146451655Y-70342292D01*
X146479531Y-70331896D01*
X146594746Y-70245646D01*
X146680996Y-70130431D01*
X146731291Y-69995583D01*
X146737700Y-69935973D01*
X146737699Y-67935228D01*
X146731291Y-67875617D01*
X146696834Y-67783234D01*
X146680997Y-67740771D01*
X146680993Y-67740764D01*
X146594747Y-67625555D01*
X146594744Y-67625552D01*
X146479535Y-67539306D01*
X146479528Y-67539302D01*
X146344682Y-67489008D01*
X146344683Y-67489008D01*
X146285083Y-67482601D01*
X146285081Y-67482600D01*
X146285073Y-67482600D01*
X146285064Y-67482600D01*
X144189329Y-67482600D01*
X144189323Y-67482601D01*
X144129716Y-67489008D01*
X143994871Y-67539302D01*
X143994864Y-67539306D01*
X143879655Y-67625552D01*
X143879652Y-67625555D01*
X143793406Y-67740764D01*
X143793402Y-67740771D01*
X143743108Y-67875617D01*
X143736701Y-67935216D01*
X143736701Y-67935223D01*
X143736700Y-67935235D01*
X143736700Y-69935970D01*
X143736701Y-69935976D01*
X143743108Y-69995583D01*
X143793402Y-70130428D01*
X143793406Y-70130435D01*
X143879652Y-70245644D01*
X143879655Y-70245647D01*
X143994864Y-70331893D01*
X143994869Y-70331896D01*
X144022739Y-70342290D01*
X144078673Y-70384161D01*
X144103091Y-70449624D01*
X144088240Y-70517898D01*
X144079726Y-70531356D01*
X144073319Y-70540176D01*
X143946983Y-70714061D01*
X143843150Y-70917844D01*
X143772478Y-71135350D01*
X143772478Y-71135353D01*
X143736700Y-71361246D01*
X143736700Y-71589953D01*
X143772478Y-71815846D01*
X143772478Y-71815849D01*
X143843150Y-72033355D01*
X143843152Y-72033358D01*
X143946983Y-72237138D01*
X144081414Y-72422166D01*
X144243134Y-72583886D01*
X144328064Y-72645591D01*
X144370729Y-72700921D01*
X144376708Y-72770535D01*
X144344102Y-72832330D01*
X144328064Y-72846227D01*
X144243457Y-72907697D01*
X144081797Y-73069357D01*
X143947411Y-73254323D01*
X143843617Y-73458029D01*
X143772965Y-73675471D01*
X143758691Y-73765600D01*
X144746452Y-73765600D01*
X144724682Y-73803308D01*
X144687200Y-73943191D01*
X144687200Y-74088009D01*
X144724682Y-74227892D01*
X144746452Y-74265600D01*
X143758691Y-74265600D01*
X143772965Y-74355728D01*
X143843617Y-74573170D01*
X143947411Y-74776876D01*
X144081797Y-74961842D01*
X144243457Y-75123502D01*
X144428423Y-75257888D01*
X144632129Y-75361682D01*
X144849571Y-75432334D01*
X144987200Y-75454132D01*
X144987200Y-74506347D01*
X145024908Y-74528118D01*
X145164791Y-74565600D01*
X145309609Y-74565600D01*
X145449492Y-74528118D01*
X145487200Y-74506347D01*
X145487200Y-75454131D01*
X145624828Y-75432334D01*
X145842270Y-75361682D01*
X146045976Y-75257888D01*
X146230942Y-75123502D01*
X146392602Y-74961842D01*
X146526988Y-74776876D01*
X146630782Y-74573170D01*
X146701434Y-74355728D01*
X146715709Y-74265600D01*
X145727948Y-74265600D01*
X145749718Y-74227892D01*
X145787200Y-74088009D01*
X145787200Y-73943191D01*
X145749718Y-73803308D01*
X145727948Y-73765600D01*
X146715709Y-73765600D01*
X146701434Y-73675471D01*
X146630782Y-73458029D01*
X146526988Y-73254323D01*
X146392602Y-73069357D01*
X146230942Y-72907697D01*
X146146335Y-72846226D01*
X146103670Y-72790896D01*
X146097691Y-72721282D01*
X146130297Y-72659487D01*
X146146325Y-72645599D01*
X146231266Y-72583886D01*
X146392986Y-72422166D01*
X146393755Y-72421107D01*
X146403123Y-72408215D01*
X146458453Y-72365549D01*
X146503441Y-72357100D01*
X150976223Y-72357100D01*
X151090793Y-72334309D01*
X151146524Y-72323224D01*
X151226735Y-72289999D01*
X151306943Y-72256777D01*
X151306944Y-72256776D01*
X151306947Y-72256775D01*
X151451324Y-72160306D01*
X153084706Y-70526924D01*
X153181175Y-70382547D01*
X153181323Y-70382191D01*
X153224160Y-70278771D01*
X153247624Y-70222124D01*
X153265661Y-70131447D01*
X153281500Y-70051823D01*
X153281500Y-67778178D01*
X153281499Y-67778174D01*
X153257655Y-67658302D01*
X153247625Y-67607876D01*
X153183499Y-67453065D01*
X153181855Y-67448471D01*
X153089977Y-67310964D01*
X153089976Y-67310963D01*
X153084708Y-67303079D01*
X153084704Y-67303074D01*
X150761927Y-64980296D01*
X150761926Y-64980295D01*
X150617543Y-64883822D01*
X150457128Y-64817377D01*
X150457118Y-64817374D01*
X150286823Y-64783500D01*
X150286821Y-64783500D01*
X150286820Y-64783500D01*
X123906821Y-64783500D01*
X123733179Y-64783500D01*
X123733177Y-64783500D01*
X123562881Y-64817374D01*
X123562871Y-64817377D01*
X123402456Y-64883822D01*
X123258073Y-64980295D01*
X121694990Y-66543378D01*
X121633667Y-66576863D01*
X121605413Y-66578665D01*
X121605413Y-66579532D01*
X121599998Y-66579532D01*
X121373313Y-66599364D01*
X121373302Y-66599366D01*
X121153511Y-66658258D01*
X121153502Y-66658261D01*
X120947267Y-66754431D01*
X120947265Y-66754432D01*
X120760858Y-66884954D01*
X120599954Y-67045858D01*
X120469432Y-67232265D01*
X120469431Y-67232267D01*
X120373261Y-67438502D01*
X120373258Y-67438511D01*
X120314366Y-67658302D01*
X120314364Y-67658313D01*
X120294532Y-67884998D01*
X87000499Y-67884998D01*
X87000499Y-67407128D01*
X86994091Y-67347517D01*
X86985619Y-67324803D01*
X86943797Y-67212671D01*
X86943793Y-67212664D01*
X86857547Y-67097455D01*
X86857544Y-67097452D01*
X86742335Y-67011206D01*
X86742328Y-67011202D01*
X86607482Y-66960908D01*
X86607483Y-66960908D01*
X86547883Y-66954501D01*
X86547881Y-66954500D01*
X86547873Y-66954500D01*
X86547864Y-66954500D01*
X84252129Y-66954500D01*
X84252123Y-66954501D01*
X84192516Y-66960908D01*
X84057671Y-67011202D01*
X84057664Y-67011206D01*
X83942455Y-67097452D01*
X83942452Y-67097455D01*
X83856206Y-67212664D01*
X83856202Y-67212671D01*
X83805908Y-67347517D01*
X83799501Y-67407116D01*
X83799501Y-67407123D01*
X83799500Y-67407135D01*
X73712062Y-67407135D01*
X73671062Y-67324796D01*
X73671059Y-67324792D01*
X73659054Y-67308896D01*
X73086308Y-67881643D01*
X73059939Y-67783234D01*
X73004763Y-67687667D01*
X72926733Y-67609637D01*
X72831166Y-67554461D01*
X72732755Y-67528091D01*
X73303187Y-66957659D01*
X73194537Y-66890385D01*
X73194535Y-66890384D01*
X72991811Y-66811849D01*
X72778102Y-66771900D01*
X72560698Y-66771900D01*
X72346988Y-66811849D01*
X72144266Y-66890383D01*
X72144260Y-66890386D01*
X72035612Y-66957658D01*
X72035611Y-66957659D01*
X72606044Y-67528091D01*
X72507634Y-67554461D01*
X72412067Y-67609637D01*
X72334037Y-67687667D01*
X72278861Y-67783234D01*
X72252491Y-67881643D01*
X71679744Y-67308896D01*
X71667741Y-67324790D01*
X71667733Y-67324803D01*
X71570831Y-67519408D01*
X71511333Y-67728524D01*
X71491274Y-67944999D01*
X46983734Y-67944999D01*
X47038538Y-67575550D01*
X47057823Y-67183000D01*
X47038538Y-66790449D01*
X46980870Y-66401691D01*
X46885374Y-66020450D01*
X46752983Y-65650440D01*
X46752976Y-65650424D01*
X46584937Y-65295135D01*
X46382890Y-64958041D01*
X46148771Y-64642367D01*
X46052930Y-64536622D01*
X46052929Y-64536622D01*
X44454617Y-66134934D01*
X44371543Y-66026669D01*
X44209331Y-65864457D01*
X44101065Y-65781381D01*
X45699376Y-64183069D01*
X45699376Y-64183068D01*
X45593632Y-64087228D01*
X45277958Y-63853109D01*
X44940864Y-63651062D01*
X44585575Y-63483023D01*
X44585559Y-63483016D01*
X44272636Y-63371051D01*
X44216147Y-63329933D01*
X44190855Y-63264801D01*
X44204792Y-63196335D01*
X44253532Y-63146273D01*
X44314410Y-63130300D01*
X185301590Y-63130300D01*
X185368629Y-63149985D01*
G37*
%TD.AperFunction*%
%TA.AperFunction,Conductor*%
G36*
X190603241Y-135281658D02*
G01*
X190657839Y-135325256D01*
X190680200Y-135391451D01*
X190680300Y-135396430D01*
X190680300Y-138205300D01*
X190660615Y-138272339D01*
X190607811Y-138318094D01*
X190556300Y-138329300D01*
X188074266Y-138329300D01*
X188007227Y-138309615D01*
X187961472Y-138256811D01*
X187951528Y-138187653D01*
X187980553Y-138124097D01*
X188032492Y-138088548D01*
X188095576Y-138065976D01*
X188450864Y-137897937D01*
X188787958Y-137695890D01*
X189103632Y-137461770D01*
X189209376Y-137365929D01*
X187611065Y-135767618D01*
X187719331Y-135684543D01*
X187881543Y-135522331D01*
X187964618Y-135414065D01*
X189562929Y-137012376D01*
X189658770Y-136906632D01*
X189892890Y-136590958D01*
X190094937Y-136253864D01*
X190262976Y-135898575D01*
X190262983Y-135898559D01*
X190395375Y-135528548D01*
X190395376Y-135528545D01*
X190436016Y-135366301D01*
X190471400Y-135306053D01*
X190533739Y-135274500D01*
X190603241Y-135281658D01*
G37*
%TD.AperFunction*%
%TA.AperFunction,Conductor*%
G36*
X190623339Y-63149985D02*
G01*
X190669094Y-63202789D01*
X190680300Y-63254300D01*
X190680300Y-66152569D01*
X190660615Y-66219608D01*
X190607811Y-66265363D01*
X190538653Y-66275307D01*
X190475097Y-66246282D01*
X190437323Y-66187504D01*
X190436016Y-66182699D01*
X190395374Y-66020450D01*
X190262983Y-65650440D01*
X190262976Y-65650424D01*
X190094937Y-65295135D01*
X189892890Y-64958041D01*
X189658771Y-64642367D01*
X189562930Y-64536622D01*
X189562929Y-64536622D01*
X187964617Y-66134934D01*
X187881543Y-66026669D01*
X187719331Y-65864457D01*
X187611065Y-65781381D01*
X189209376Y-64183069D01*
X189209376Y-64183068D01*
X189103632Y-64087228D01*
X188787958Y-63853109D01*
X188450864Y-63651062D01*
X188095575Y-63483023D01*
X188095559Y-63483016D01*
X187782636Y-63371051D01*
X187726147Y-63329933D01*
X187700855Y-63264801D01*
X187714792Y-63196335D01*
X187763532Y-63146273D01*
X187824410Y-63130300D01*
X190556300Y-63130300D01*
X190623339Y-63149985D01*
G37*
%TD.AperFunction*%
%TA.AperFunction,Conductor*%
G36*
X41858629Y-63149985D02*
G01*
X41904384Y-63202789D01*
X41914328Y-63271947D01*
X41885303Y-63335503D01*
X41833364Y-63371051D01*
X41520440Y-63483016D01*
X41520424Y-63483023D01*
X41165135Y-63651062D01*
X40828041Y-63853109D01*
X40512368Y-64087228D01*
X40406622Y-64183069D01*
X42004934Y-65781381D01*
X41896669Y-65864457D01*
X41734457Y-66026669D01*
X41651381Y-66134934D01*
X40053069Y-64536622D01*
X39957228Y-64642368D01*
X39723109Y-64958041D01*
X39521062Y-65295135D01*
X39353023Y-65650424D01*
X39353016Y-65650440D01*
X39220625Y-66020450D01*
X39195584Y-66120420D01*
X39160200Y-66180667D01*
X39097861Y-66212220D01*
X39028359Y-66205062D01*
X38973760Y-66161464D01*
X38951400Y-66095269D01*
X38951300Y-66090290D01*
X38951300Y-63254300D01*
X38970985Y-63187261D01*
X39023789Y-63141506D01*
X39075300Y-63130300D01*
X41791590Y-63130300D01*
X41858629Y-63149985D01*
G37*
%TD.AperFunction*%
%TD*%
M02*
