%TF.GenerationSoftware,KiCad,Pcbnew,8.0.5*%
%TF.CreationDate,2024-09-17T20:01:56-07:00*%
%TF.ProjectId,Power_Amp_v1.0,506f7765-725f-4416-9d70-5f76312e302e,-*%
%TF.SameCoordinates,Original*%
%TF.FileFunction,Legend,Top*%
%TF.FilePolarity,Positive*%
%FSLAX46Y46*%
G04 Gerber Fmt 4.6, Leading zero omitted, Abs format (unit mm)*
G04 Created by KiCad (PCBNEW 8.0.5) date 2024-09-17 20:01:56*
%MOMM*%
%LPD*%
G01*
G04 APERTURE LIST*
%ADD10C,0.150000*%
%ADD11C,0.120000*%
%ADD12C,0.152400*%
%ADD13C,0.508000*%
G04 APERTURE END LIST*
D10*
X186594312Y-121376839D02*
X186641931Y-121233982D01*
X186641931Y-121233982D02*
X186641931Y-120995887D01*
X186641931Y-120995887D02*
X186594312Y-120900649D01*
X186594312Y-120900649D02*
X186546692Y-120853030D01*
X186546692Y-120853030D02*
X186451454Y-120805411D01*
X186451454Y-120805411D02*
X186356216Y-120805411D01*
X186356216Y-120805411D02*
X186260978Y-120853030D01*
X186260978Y-120853030D02*
X186213359Y-120900649D01*
X186213359Y-120900649D02*
X186165740Y-120995887D01*
X186165740Y-120995887D02*
X186118121Y-121186363D01*
X186118121Y-121186363D02*
X186070502Y-121281601D01*
X186070502Y-121281601D02*
X186022883Y-121329220D01*
X186022883Y-121329220D02*
X185927645Y-121376839D01*
X185927645Y-121376839D02*
X185832407Y-121376839D01*
X185832407Y-121376839D02*
X185737169Y-121329220D01*
X185737169Y-121329220D02*
X185689550Y-121281601D01*
X185689550Y-121281601D02*
X185641931Y-121186363D01*
X185641931Y-121186363D02*
X185641931Y-120948268D01*
X185641931Y-120948268D02*
X185689550Y-120805411D01*
X186356216Y-120424458D02*
X186356216Y-119948268D01*
X186641931Y-120519696D02*
X185641931Y-120186363D01*
X185641931Y-120186363D02*
X186641931Y-119853030D01*
X186641931Y-119519696D02*
X185641931Y-119519696D01*
X185641931Y-119519696D02*
X186641931Y-118948268D01*
X186641931Y-118948268D02*
X185641931Y-118948268D01*
X186641931Y-117710172D02*
X185641931Y-117710172D01*
X185641931Y-117710172D02*
X185641931Y-117472077D01*
X185641931Y-117472077D02*
X185689550Y-117329220D01*
X185689550Y-117329220D02*
X185784788Y-117233982D01*
X185784788Y-117233982D02*
X185880026Y-117186363D01*
X185880026Y-117186363D02*
X186070502Y-117138744D01*
X186070502Y-117138744D02*
X186213359Y-117138744D01*
X186213359Y-117138744D02*
X186403835Y-117186363D01*
X186403835Y-117186363D02*
X186499073Y-117233982D01*
X186499073Y-117233982D02*
X186594312Y-117329220D01*
X186594312Y-117329220D02*
X186641931Y-117472077D01*
X186641931Y-117472077D02*
X186641931Y-117710172D01*
X186641931Y-116710172D02*
X185641931Y-116710172D01*
X186118121Y-116233982D02*
X186118121Y-115900649D01*
X186641931Y-115757792D02*
X186641931Y-116233982D01*
X186641931Y-116233982D02*
X185641931Y-116233982D01*
X185641931Y-116233982D02*
X185641931Y-115757792D01*
X185689550Y-114805411D02*
X185641931Y-114900649D01*
X185641931Y-114900649D02*
X185641931Y-115043506D01*
X185641931Y-115043506D02*
X185689550Y-115186363D01*
X185689550Y-115186363D02*
X185784788Y-115281601D01*
X185784788Y-115281601D02*
X185880026Y-115329220D01*
X185880026Y-115329220D02*
X186070502Y-115376839D01*
X186070502Y-115376839D02*
X186213359Y-115376839D01*
X186213359Y-115376839D02*
X186403835Y-115329220D01*
X186403835Y-115329220D02*
X186499073Y-115281601D01*
X186499073Y-115281601D02*
X186594312Y-115186363D01*
X186594312Y-115186363D02*
X186641931Y-115043506D01*
X186641931Y-115043506D02*
X186641931Y-114948268D01*
X186641931Y-114948268D02*
X186594312Y-114805411D01*
X186594312Y-114805411D02*
X186546692Y-114757792D01*
X186546692Y-114757792D02*
X186213359Y-114757792D01*
X186213359Y-114757792D02*
X186213359Y-114948268D01*
X185641931Y-114138744D02*
X185641931Y-113948268D01*
X185641931Y-113948268D02*
X185689550Y-113853030D01*
X185689550Y-113853030D02*
X185784788Y-113757792D01*
X185784788Y-113757792D02*
X185975264Y-113710173D01*
X185975264Y-113710173D02*
X186308597Y-113710173D01*
X186308597Y-113710173D02*
X186499073Y-113757792D01*
X186499073Y-113757792D02*
X186594312Y-113853030D01*
X186594312Y-113853030D02*
X186641931Y-113948268D01*
X186641931Y-113948268D02*
X186641931Y-114138744D01*
X186641931Y-114138744D02*
X186594312Y-114233982D01*
X186594312Y-114233982D02*
X186499073Y-114329220D01*
X186499073Y-114329220D02*
X186308597Y-114376839D01*
X186308597Y-114376839D02*
X185975264Y-114376839D01*
X185975264Y-114376839D02*
X185784788Y-114329220D01*
X185784788Y-114329220D02*
X185689550Y-114233982D01*
X185689550Y-114233982D02*
X185641931Y-114138744D01*
X186594312Y-112567315D02*
X186641931Y-112424458D01*
X186641931Y-112424458D02*
X186641931Y-112186363D01*
X186641931Y-112186363D02*
X186594312Y-112091125D01*
X186594312Y-112091125D02*
X186546692Y-112043506D01*
X186546692Y-112043506D02*
X186451454Y-111995887D01*
X186451454Y-111995887D02*
X186356216Y-111995887D01*
X186356216Y-111995887D02*
X186260978Y-112043506D01*
X186260978Y-112043506D02*
X186213359Y-112091125D01*
X186213359Y-112091125D02*
X186165740Y-112186363D01*
X186165740Y-112186363D02*
X186118121Y-112376839D01*
X186118121Y-112376839D02*
X186070502Y-112472077D01*
X186070502Y-112472077D02*
X186022883Y-112519696D01*
X186022883Y-112519696D02*
X185927645Y-112567315D01*
X185927645Y-112567315D02*
X185832407Y-112567315D01*
X185832407Y-112567315D02*
X185737169Y-112519696D01*
X185737169Y-112519696D02*
X185689550Y-112472077D01*
X185689550Y-112472077D02*
X185641931Y-112376839D01*
X185641931Y-112376839D02*
X185641931Y-112138744D01*
X185641931Y-112138744D02*
X185689550Y-111995887D01*
X185641931Y-111710172D02*
X185641931Y-111138744D01*
X186641931Y-111424458D02*
X185641931Y-111424458D01*
X186356216Y-110853029D02*
X186356216Y-110376839D01*
X186641931Y-110948267D02*
X185641931Y-110614934D01*
X185641931Y-110614934D02*
X186641931Y-110281601D01*
X185641931Y-110091124D02*
X185641931Y-109519696D01*
X186641931Y-109805410D02*
X185641931Y-109805410D01*
X186118121Y-109186362D02*
X186118121Y-108853029D01*
X186641931Y-108710172D02*
X186641931Y-109186362D01*
X186641931Y-109186362D02*
X185641931Y-109186362D01*
X185641931Y-109186362D02*
X185641931Y-108710172D01*
X185641931Y-107519695D02*
X186451454Y-107519695D01*
X186451454Y-107519695D02*
X186546692Y-107472076D01*
X186546692Y-107472076D02*
X186594312Y-107424457D01*
X186594312Y-107424457D02*
X186641931Y-107329219D01*
X186641931Y-107329219D02*
X186641931Y-107138743D01*
X186641931Y-107138743D02*
X186594312Y-107043505D01*
X186594312Y-107043505D02*
X186546692Y-106995886D01*
X186546692Y-106995886D02*
X186451454Y-106948267D01*
X186451454Y-106948267D02*
X185641931Y-106948267D01*
X186641931Y-106472076D02*
X185641931Y-106472076D01*
X185641931Y-106472076D02*
X186641931Y-105900648D01*
X186641931Y-105900648D02*
X185641931Y-105900648D01*
X186641931Y-105424457D02*
X185641931Y-105424457D01*
X185641931Y-105091124D02*
X186641931Y-104757791D01*
X186641931Y-104757791D02*
X185641931Y-104424458D01*
X186118121Y-104091124D02*
X186118121Y-103757791D01*
X186641931Y-103614934D02*
X186641931Y-104091124D01*
X186641931Y-104091124D02*
X185641931Y-104091124D01*
X185641931Y-104091124D02*
X185641931Y-103614934D01*
X186641931Y-102614934D02*
X186165740Y-102948267D01*
X186641931Y-103186362D02*
X185641931Y-103186362D01*
X185641931Y-103186362D02*
X185641931Y-102805410D01*
X185641931Y-102805410D02*
X185689550Y-102710172D01*
X185689550Y-102710172D02*
X185737169Y-102662553D01*
X185737169Y-102662553D02*
X185832407Y-102614934D01*
X185832407Y-102614934D02*
X185975264Y-102614934D01*
X185975264Y-102614934D02*
X186070502Y-102662553D01*
X186070502Y-102662553D02*
X186118121Y-102710172D01*
X186118121Y-102710172D02*
X186165740Y-102805410D01*
X186165740Y-102805410D02*
X186165740Y-103186362D01*
X186594312Y-102233981D02*
X186641931Y-102091124D01*
X186641931Y-102091124D02*
X186641931Y-101853029D01*
X186641931Y-101853029D02*
X186594312Y-101757791D01*
X186594312Y-101757791D02*
X186546692Y-101710172D01*
X186546692Y-101710172D02*
X186451454Y-101662553D01*
X186451454Y-101662553D02*
X186356216Y-101662553D01*
X186356216Y-101662553D02*
X186260978Y-101710172D01*
X186260978Y-101710172D02*
X186213359Y-101757791D01*
X186213359Y-101757791D02*
X186165740Y-101853029D01*
X186165740Y-101853029D02*
X186118121Y-102043505D01*
X186118121Y-102043505D02*
X186070502Y-102138743D01*
X186070502Y-102138743D02*
X186022883Y-102186362D01*
X186022883Y-102186362D02*
X185927645Y-102233981D01*
X185927645Y-102233981D02*
X185832407Y-102233981D01*
X185832407Y-102233981D02*
X185737169Y-102186362D01*
X185737169Y-102186362D02*
X185689550Y-102138743D01*
X185689550Y-102138743D02*
X185641931Y-102043505D01*
X185641931Y-102043505D02*
X185641931Y-101805410D01*
X185641931Y-101805410D02*
X185689550Y-101662553D01*
X186641931Y-101233981D02*
X185641931Y-101233981D01*
X185641931Y-100900648D02*
X185641931Y-100329220D01*
X186641931Y-100614934D02*
X185641931Y-100614934D01*
X186165740Y-99805410D02*
X186641931Y-99805410D01*
X185641931Y-100138743D02*
X186165740Y-99805410D01*
X186165740Y-99805410D02*
X185641931Y-99472077D01*
X186546692Y-97805410D02*
X186594312Y-97853029D01*
X186594312Y-97853029D02*
X186641931Y-97995886D01*
X186641931Y-97995886D02*
X186641931Y-98091124D01*
X186641931Y-98091124D02*
X186594312Y-98233981D01*
X186594312Y-98233981D02*
X186499073Y-98329219D01*
X186499073Y-98329219D02*
X186403835Y-98376838D01*
X186403835Y-98376838D02*
X186213359Y-98424457D01*
X186213359Y-98424457D02*
X186070502Y-98424457D01*
X186070502Y-98424457D02*
X185880026Y-98376838D01*
X185880026Y-98376838D02*
X185784788Y-98329219D01*
X185784788Y-98329219D02*
X185689550Y-98233981D01*
X185689550Y-98233981D02*
X185641931Y-98091124D01*
X185641931Y-98091124D02*
X185641931Y-97995886D01*
X185641931Y-97995886D02*
X185689550Y-97853029D01*
X185689550Y-97853029D02*
X185737169Y-97805410D01*
X185641931Y-97186362D02*
X185641931Y-96995886D01*
X185641931Y-96995886D02*
X185689550Y-96900648D01*
X185689550Y-96900648D02*
X185784788Y-96805410D01*
X185784788Y-96805410D02*
X185975264Y-96757791D01*
X185975264Y-96757791D02*
X186308597Y-96757791D01*
X186308597Y-96757791D02*
X186499073Y-96805410D01*
X186499073Y-96805410D02*
X186594312Y-96900648D01*
X186594312Y-96900648D02*
X186641931Y-96995886D01*
X186641931Y-96995886D02*
X186641931Y-97186362D01*
X186641931Y-97186362D02*
X186594312Y-97281600D01*
X186594312Y-97281600D02*
X186499073Y-97376838D01*
X186499073Y-97376838D02*
X186308597Y-97424457D01*
X186308597Y-97424457D02*
X185975264Y-97424457D01*
X185975264Y-97424457D02*
X185784788Y-97376838D01*
X185784788Y-97376838D02*
X185689550Y-97281600D01*
X185689550Y-97281600D02*
X185641931Y-97186362D01*
X186641931Y-95853029D02*
X186641931Y-96329219D01*
X186641931Y-96329219D02*
X185641931Y-96329219D01*
X186641931Y-95043505D02*
X186641931Y-95519695D01*
X186641931Y-95519695D02*
X185641931Y-95519695D01*
X186118121Y-94710171D02*
X186118121Y-94376838D01*
X186641931Y-94233981D02*
X186641931Y-94710171D01*
X186641931Y-94710171D02*
X185641931Y-94710171D01*
X185641931Y-94710171D02*
X185641931Y-94233981D01*
X185689550Y-93281600D02*
X185641931Y-93376838D01*
X185641931Y-93376838D02*
X185641931Y-93519695D01*
X185641931Y-93519695D02*
X185689550Y-93662552D01*
X185689550Y-93662552D02*
X185784788Y-93757790D01*
X185784788Y-93757790D02*
X185880026Y-93805409D01*
X185880026Y-93805409D02*
X186070502Y-93853028D01*
X186070502Y-93853028D02*
X186213359Y-93853028D01*
X186213359Y-93853028D02*
X186403835Y-93805409D01*
X186403835Y-93805409D02*
X186499073Y-93757790D01*
X186499073Y-93757790D02*
X186594312Y-93662552D01*
X186594312Y-93662552D02*
X186641931Y-93519695D01*
X186641931Y-93519695D02*
X186641931Y-93424457D01*
X186641931Y-93424457D02*
X186594312Y-93281600D01*
X186594312Y-93281600D02*
X186546692Y-93233981D01*
X186546692Y-93233981D02*
X186213359Y-93233981D01*
X186213359Y-93233981D02*
X186213359Y-93424457D01*
X186118121Y-92805409D02*
X186118121Y-92472076D01*
X186641931Y-92329219D02*
X186641931Y-92805409D01*
X186641931Y-92805409D02*
X185641931Y-92805409D01*
X185641931Y-92805409D02*
X185641931Y-92329219D01*
X185641931Y-90948266D02*
X185641931Y-90757790D01*
X185641931Y-90757790D02*
X185689550Y-90662552D01*
X185689550Y-90662552D02*
X185784788Y-90567314D01*
X185784788Y-90567314D02*
X185975264Y-90519695D01*
X185975264Y-90519695D02*
X186308597Y-90519695D01*
X186308597Y-90519695D02*
X186499073Y-90567314D01*
X186499073Y-90567314D02*
X186594312Y-90662552D01*
X186594312Y-90662552D02*
X186641931Y-90757790D01*
X186641931Y-90757790D02*
X186641931Y-90948266D01*
X186641931Y-90948266D02*
X186594312Y-91043504D01*
X186594312Y-91043504D02*
X186499073Y-91138742D01*
X186499073Y-91138742D02*
X186308597Y-91186361D01*
X186308597Y-91186361D02*
X185975264Y-91186361D01*
X185975264Y-91186361D02*
X185784788Y-91138742D01*
X185784788Y-91138742D02*
X185689550Y-91043504D01*
X185689550Y-91043504D02*
X185641931Y-90948266D01*
X186118121Y-89757790D02*
X186118121Y-90091123D01*
X186641931Y-90091123D02*
X185641931Y-90091123D01*
X185641931Y-90091123D02*
X185641931Y-89614933D01*
X186118121Y-88472075D02*
X186118121Y-88138742D01*
X186641931Y-87995885D02*
X186641931Y-88472075D01*
X186641931Y-88472075D02*
X185641931Y-88472075D01*
X185641931Y-88472075D02*
X185641931Y-87995885D01*
X186641931Y-87567313D02*
X185641931Y-87567313D01*
X185641931Y-87567313D02*
X186641931Y-86995885D01*
X186641931Y-86995885D02*
X185641931Y-86995885D01*
X185689550Y-85995885D02*
X185641931Y-86091123D01*
X185641931Y-86091123D02*
X185641931Y-86233980D01*
X185641931Y-86233980D02*
X185689550Y-86376837D01*
X185689550Y-86376837D02*
X185784788Y-86472075D01*
X185784788Y-86472075D02*
X185880026Y-86519694D01*
X185880026Y-86519694D02*
X186070502Y-86567313D01*
X186070502Y-86567313D02*
X186213359Y-86567313D01*
X186213359Y-86567313D02*
X186403835Y-86519694D01*
X186403835Y-86519694D02*
X186499073Y-86472075D01*
X186499073Y-86472075D02*
X186594312Y-86376837D01*
X186594312Y-86376837D02*
X186641931Y-86233980D01*
X186641931Y-86233980D02*
X186641931Y-86138742D01*
X186641931Y-86138742D02*
X186594312Y-85995885D01*
X186594312Y-85995885D02*
X186546692Y-85948266D01*
X186546692Y-85948266D02*
X186213359Y-85948266D01*
X186213359Y-85948266D02*
X186213359Y-86138742D01*
X186641931Y-85519694D02*
X185641931Y-85519694D01*
X186641931Y-85043504D02*
X185641931Y-85043504D01*
X185641931Y-85043504D02*
X186641931Y-84472076D01*
X186641931Y-84472076D02*
X185641931Y-84472076D01*
X186118121Y-83995885D02*
X186118121Y-83662552D01*
X186641931Y-83519695D02*
X186641931Y-83995885D01*
X186641931Y-83995885D02*
X185641931Y-83995885D01*
X185641931Y-83995885D02*
X185641931Y-83519695D01*
X186118121Y-83091123D02*
X186118121Y-82757790D01*
X186641931Y-82614933D02*
X186641931Y-83091123D01*
X186641931Y-83091123D02*
X185641931Y-83091123D01*
X185641931Y-83091123D02*
X185641931Y-82614933D01*
X186641931Y-81614933D02*
X186165740Y-81948266D01*
X186641931Y-82186361D02*
X185641931Y-82186361D01*
X185641931Y-82186361D02*
X185641931Y-81805409D01*
X185641931Y-81805409D02*
X185689550Y-81710171D01*
X185689550Y-81710171D02*
X185737169Y-81662552D01*
X185737169Y-81662552D02*
X185832407Y-81614933D01*
X185832407Y-81614933D02*
X185975264Y-81614933D01*
X185975264Y-81614933D02*
X186070502Y-81662552D01*
X186070502Y-81662552D02*
X186118121Y-81710171D01*
X186118121Y-81710171D02*
X186165740Y-81805409D01*
X186165740Y-81805409D02*
X186165740Y-82186361D01*
X186641931Y-81186361D02*
X185641931Y-81186361D01*
X186641931Y-80710171D02*
X185641931Y-80710171D01*
X185641931Y-80710171D02*
X186641931Y-80138743D01*
X186641931Y-80138743D02*
X185641931Y-80138743D01*
X185689550Y-79138743D02*
X185641931Y-79233981D01*
X185641931Y-79233981D02*
X185641931Y-79376838D01*
X185641931Y-79376838D02*
X185689550Y-79519695D01*
X185689550Y-79519695D02*
X185784788Y-79614933D01*
X185784788Y-79614933D02*
X185880026Y-79662552D01*
X185880026Y-79662552D02*
X186070502Y-79710171D01*
X186070502Y-79710171D02*
X186213359Y-79710171D01*
X186213359Y-79710171D02*
X186403835Y-79662552D01*
X186403835Y-79662552D02*
X186499073Y-79614933D01*
X186499073Y-79614933D02*
X186594312Y-79519695D01*
X186594312Y-79519695D02*
X186641931Y-79376838D01*
X186641931Y-79376838D02*
X186641931Y-79281600D01*
X186641931Y-79281600D02*
X186594312Y-79138743D01*
X186594312Y-79138743D02*
X186546692Y-79091124D01*
X186546692Y-79091124D02*
X186213359Y-79091124D01*
X186213359Y-79091124D02*
X186213359Y-79281600D01*
X188251875Y-121329220D02*
X187251875Y-121329220D01*
X187251875Y-121329220D02*
X187251875Y-121091125D01*
X187251875Y-121091125D02*
X187299494Y-120948268D01*
X187299494Y-120948268D02*
X187394732Y-120853030D01*
X187394732Y-120853030D02*
X187489970Y-120805411D01*
X187489970Y-120805411D02*
X187680446Y-120757792D01*
X187680446Y-120757792D02*
X187823303Y-120757792D01*
X187823303Y-120757792D02*
X188013779Y-120805411D01*
X188013779Y-120805411D02*
X188109017Y-120853030D01*
X188109017Y-120853030D02*
X188204256Y-120948268D01*
X188204256Y-120948268D02*
X188251875Y-121091125D01*
X188251875Y-121091125D02*
X188251875Y-121329220D01*
X187728065Y-120329220D02*
X187728065Y-119995887D01*
X188251875Y-119853030D02*
X188251875Y-120329220D01*
X188251875Y-120329220D02*
X187251875Y-120329220D01*
X187251875Y-120329220D02*
X187251875Y-119853030D01*
X188251875Y-119424458D02*
X187251875Y-119424458D01*
X187251875Y-119424458D02*
X187251875Y-119043506D01*
X187251875Y-119043506D02*
X187299494Y-118948268D01*
X187299494Y-118948268D02*
X187347113Y-118900649D01*
X187347113Y-118900649D02*
X187442351Y-118853030D01*
X187442351Y-118853030D02*
X187585208Y-118853030D01*
X187585208Y-118853030D02*
X187680446Y-118900649D01*
X187680446Y-118900649D02*
X187728065Y-118948268D01*
X187728065Y-118948268D02*
X187775684Y-119043506D01*
X187775684Y-119043506D02*
X187775684Y-119424458D01*
X187966160Y-118472077D02*
X187966160Y-117995887D01*
X188251875Y-118567315D02*
X187251875Y-118233982D01*
X187251875Y-118233982D02*
X188251875Y-117900649D01*
X188251875Y-116995887D02*
X187775684Y-117329220D01*
X188251875Y-117567315D02*
X187251875Y-117567315D01*
X187251875Y-117567315D02*
X187251875Y-117186363D01*
X187251875Y-117186363D02*
X187299494Y-117091125D01*
X187299494Y-117091125D02*
X187347113Y-117043506D01*
X187347113Y-117043506D02*
X187442351Y-116995887D01*
X187442351Y-116995887D02*
X187585208Y-116995887D01*
X187585208Y-116995887D02*
X187680446Y-117043506D01*
X187680446Y-117043506D02*
X187728065Y-117091125D01*
X187728065Y-117091125D02*
X187775684Y-117186363D01*
X187775684Y-117186363D02*
X187775684Y-117567315D01*
X187251875Y-116710172D02*
X187251875Y-116138744D01*
X188251875Y-116424458D02*
X187251875Y-116424458D01*
X188251875Y-115805410D02*
X187251875Y-115805410D01*
X187251875Y-115805410D02*
X187966160Y-115472077D01*
X187966160Y-115472077D02*
X187251875Y-115138744D01*
X187251875Y-115138744D02*
X188251875Y-115138744D01*
X187728065Y-114662553D02*
X187728065Y-114329220D01*
X188251875Y-114186363D02*
X188251875Y-114662553D01*
X188251875Y-114662553D02*
X187251875Y-114662553D01*
X187251875Y-114662553D02*
X187251875Y-114186363D01*
X188251875Y-113757791D02*
X187251875Y-113757791D01*
X187251875Y-113757791D02*
X188251875Y-113186363D01*
X188251875Y-113186363D02*
X187251875Y-113186363D01*
X187251875Y-112853029D02*
X187251875Y-112281601D01*
X188251875Y-112567315D02*
X187251875Y-112567315D01*
X187251875Y-110995886D02*
X187251875Y-110805410D01*
X187251875Y-110805410D02*
X187299494Y-110710172D01*
X187299494Y-110710172D02*
X187394732Y-110614934D01*
X187394732Y-110614934D02*
X187585208Y-110567315D01*
X187585208Y-110567315D02*
X187918541Y-110567315D01*
X187918541Y-110567315D02*
X188109017Y-110614934D01*
X188109017Y-110614934D02*
X188204256Y-110710172D01*
X188204256Y-110710172D02*
X188251875Y-110805410D01*
X188251875Y-110805410D02*
X188251875Y-110995886D01*
X188251875Y-110995886D02*
X188204256Y-111091124D01*
X188204256Y-111091124D02*
X188109017Y-111186362D01*
X188109017Y-111186362D02*
X187918541Y-111233981D01*
X187918541Y-111233981D02*
X187585208Y-111233981D01*
X187585208Y-111233981D02*
X187394732Y-111186362D01*
X187394732Y-111186362D02*
X187299494Y-111091124D01*
X187299494Y-111091124D02*
X187251875Y-110995886D01*
X187728065Y-109805410D02*
X187728065Y-110138743D01*
X188251875Y-110138743D02*
X187251875Y-110138743D01*
X187251875Y-110138743D02*
X187251875Y-109662553D01*
X187728065Y-108519695D02*
X187728065Y-108186362D01*
X188251875Y-108043505D02*
X188251875Y-108519695D01*
X188251875Y-108519695D02*
X187251875Y-108519695D01*
X187251875Y-108519695D02*
X187251875Y-108043505D01*
X188251875Y-107138743D02*
X188251875Y-107614933D01*
X188251875Y-107614933D02*
X187251875Y-107614933D01*
X187728065Y-106805409D02*
X187728065Y-106472076D01*
X188251875Y-106329219D02*
X188251875Y-106805409D01*
X188251875Y-106805409D02*
X187251875Y-106805409D01*
X187251875Y-106805409D02*
X187251875Y-106329219D01*
X188156636Y-105329219D02*
X188204256Y-105376838D01*
X188204256Y-105376838D02*
X188251875Y-105519695D01*
X188251875Y-105519695D02*
X188251875Y-105614933D01*
X188251875Y-105614933D02*
X188204256Y-105757790D01*
X188204256Y-105757790D02*
X188109017Y-105853028D01*
X188109017Y-105853028D02*
X188013779Y-105900647D01*
X188013779Y-105900647D02*
X187823303Y-105948266D01*
X187823303Y-105948266D02*
X187680446Y-105948266D01*
X187680446Y-105948266D02*
X187489970Y-105900647D01*
X187489970Y-105900647D02*
X187394732Y-105853028D01*
X187394732Y-105853028D02*
X187299494Y-105757790D01*
X187299494Y-105757790D02*
X187251875Y-105614933D01*
X187251875Y-105614933D02*
X187251875Y-105519695D01*
X187251875Y-105519695D02*
X187299494Y-105376838D01*
X187299494Y-105376838D02*
X187347113Y-105329219D01*
X187251875Y-105043504D02*
X187251875Y-104472076D01*
X188251875Y-104757790D02*
X187251875Y-104757790D01*
X188251875Y-103567314D02*
X187775684Y-103900647D01*
X188251875Y-104138742D02*
X187251875Y-104138742D01*
X187251875Y-104138742D02*
X187251875Y-103757790D01*
X187251875Y-103757790D02*
X187299494Y-103662552D01*
X187299494Y-103662552D02*
X187347113Y-103614933D01*
X187347113Y-103614933D02*
X187442351Y-103567314D01*
X187442351Y-103567314D02*
X187585208Y-103567314D01*
X187585208Y-103567314D02*
X187680446Y-103614933D01*
X187680446Y-103614933D02*
X187728065Y-103662552D01*
X187728065Y-103662552D02*
X187775684Y-103757790D01*
X187775684Y-103757790D02*
X187775684Y-104138742D01*
X188251875Y-103138742D02*
X187251875Y-103138742D01*
X188156636Y-102091124D02*
X188204256Y-102138743D01*
X188204256Y-102138743D02*
X188251875Y-102281600D01*
X188251875Y-102281600D02*
X188251875Y-102376838D01*
X188251875Y-102376838D02*
X188204256Y-102519695D01*
X188204256Y-102519695D02*
X188109017Y-102614933D01*
X188109017Y-102614933D02*
X188013779Y-102662552D01*
X188013779Y-102662552D02*
X187823303Y-102710171D01*
X187823303Y-102710171D02*
X187680446Y-102710171D01*
X187680446Y-102710171D02*
X187489970Y-102662552D01*
X187489970Y-102662552D02*
X187394732Y-102614933D01*
X187394732Y-102614933D02*
X187299494Y-102519695D01*
X187299494Y-102519695D02*
X187251875Y-102376838D01*
X187251875Y-102376838D02*
X187251875Y-102281600D01*
X187251875Y-102281600D02*
X187299494Y-102138743D01*
X187299494Y-102138743D02*
X187347113Y-102091124D01*
X187966160Y-101710171D02*
X187966160Y-101233981D01*
X188251875Y-101805409D02*
X187251875Y-101472076D01*
X187251875Y-101472076D02*
X188251875Y-101138743D01*
X188251875Y-100329219D02*
X188251875Y-100805409D01*
X188251875Y-100805409D02*
X187251875Y-100805409D01*
X188251875Y-98424456D02*
X188251875Y-98472076D01*
X188251875Y-98472076D02*
X188204256Y-98567314D01*
X188204256Y-98567314D02*
X188061398Y-98710171D01*
X188061398Y-98710171D02*
X187775684Y-98948266D01*
X187775684Y-98948266D02*
X187632827Y-99043504D01*
X187632827Y-99043504D02*
X187489970Y-99091123D01*
X187489970Y-99091123D02*
X187394732Y-99091123D01*
X187394732Y-99091123D02*
X187299494Y-99043504D01*
X187299494Y-99043504D02*
X187251875Y-98948266D01*
X187251875Y-98948266D02*
X187251875Y-98900647D01*
X187251875Y-98900647D02*
X187299494Y-98805409D01*
X187299494Y-98805409D02*
X187394732Y-98757790D01*
X187394732Y-98757790D02*
X187442351Y-98757790D01*
X187442351Y-98757790D02*
X187537589Y-98805409D01*
X187537589Y-98805409D02*
X187585208Y-98853028D01*
X187585208Y-98853028D02*
X187775684Y-99138742D01*
X187775684Y-99138742D02*
X187823303Y-99186361D01*
X187823303Y-99186361D02*
X187918541Y-99233980D01*
X187918541Y-99233980D02*
X188061398Y-99233980D01*
X188061398Y-99233980D02*
X188156636Y-99186361D01*
X188156636Y-99186361D02*
X188204256Y-99138742D01*
X188204256Y-99138742D02*
X188251875Y-99043504D01*
X188251875Y-99043504D02*
X188251875Y-98900647D01*
X188251875Y-98900647D02*
X188204256Y-98805409D01*
X188204256Y-98805409D02*
X188156636Y-98757790D01*
X188156636Y-98757790D02*
X187966160Y-98614933D01*
X187966160Y-98614933D02*
X187823303Y-98567314D01*
X187823303Y-98567314D02*
X187728065Y-98567314D01*
X188156636Y-96662552D02*
X188204256Y-96710171D01*
X188204256Y-96710171D02*
X188251875Y-96853028D01*
X188251875Y-96853028D02*
X188251875Y-96948266D01*
X188251875Y-96948266D02*
X188204256Y-97091123D01*
X188204256Y-97091123D02*
X188109017Y-97186361D01*
X188109017Y-97186361D02*
X188013779Y-97233980D01*
X188013779Y-97233980D02*
X187823303Y-97281599D01*
X187823303Y-97281599D02*
X187680446Y-97281599D01*
X187680446Y-97281599D02*
X187489970Y-97233980D01*
X187489970Y-97233980D02*
X187394732Y-97186361D01*
X187394732Y-97186361D02*
X187299494Y-97091123D01*
X187299494Y-97091123D02*
X187251875Y-96948266D01*
X187251875Y-96948266D02*
X187251875Y-96853028D01*
X187251875Y-96853028D02*
X187299494Y-96710171D01*
X187299494Y-96710171D02*
X187347113Y-96662552D01*
X187251875Y-96043504D02*
X187251875Y-95853028D01*
X187251875Y-95853028D02*
X187299494Y-95757790D01*
X187299494Y-95757790D02*
X187394732Y-95662552D01*
X187394732Y-95662552D02*
X187585208Y-95614933D01*
X187585208Y-95614933D02*
X187918541Y-95614933D01*
X187918541Y-95614933D02*
X188109017Y-95662552D01*
X188109017Y-95662552D02*
X188204256Y-95757790D01*
X188204256Y-95757790D02*
X188251875Y-95853028D01*
X188251875Y-95853028D02*
X188251875Y-96043504D01*
X188251875Y-96043504D02*
X188204256Y-96138742D01*
X188204256Y-96138742D02*
X188109017Y-96233980D01*
X188109017Y-96233980D02*
X187918541Y-96281599D01*
X187918541Y-96281599D02*
X187585208Y-96281599D01*
X187585208Y-96281599D02*
X187394732Y-96233980D01*
X187394732Y-96233980D02*
X187299494Y-96138742D01*
X187299494Y-96138742D02*
X187251875Y-96043504D01*
X188251875Y-95186361D02*
X187251875Y-95186361D01*
X187251875Y-95186361D02*
X187966160Y-94853028D01*
X187966160Y-94853028D02*
X187251875Y-94519695D01*
X187251875Y-94519695D02*
X188251875Y-94519695D01*
X188251875Y-94043504D02*
X187251875Y-94043504D01*
X187251875Y-94043504D02*
X187251875Y-93662552D01*
X187251875Y-93662552D02*
X187299494Y-93567314D01*
X187299494Y-93567314D02*
X187347113Y-93519695D01*
X187347113Y-93519695D02*
X187442351Y-93472076D01*
X187442351Y-93472076D02*
X187585208Y-93472076D01*
X187585208Y-93472076D02*
X187680446Y-93519695D01*
X187680446Y-93519695D02*
X187728065Y-93567314D01*
X187728065Y-93567314D02*
X187775684Y-93662552D01*
X187775684Y-93662552D02*
X187775684Y-94043504D01*
X187251875Y-93043504D02*
X188061398Y-93043504D01*
X188061398Y-93043504D02*
X188156636Y-92995885D01*
X188156636Y-92995885D02*
X188204256Y-92948266D01*
X188204256Y-92948266D02*
X188251875Y-92853028D01*
X188251875Y-92853028D02*
X188251875Y-92662552D01*
X188251875Y-92662552D02*
X188204256Y-92567314D01*
X188204256Y-92567314D02*
X188156636Y-92519695D01*
X188156636Y-92519695D02*
X188061398Y-92472076D01*
X188061398Y-92472076D02*
X187251875Y-92472076D01*
X187251875Y-92138742D02*
X187251875Y-91567314D01*
X188251875Y-91853028D02*
X187251875Y-91853028D01*
X187728065Y-91233980D02*
X187728065Y-90900647D01*
X188251875Y-90757790D02*
X188251875Y-91233980D01*
X188251875Y-91233980D02*
X187251875Y-91233980D01*
X187251875Y-91233980D02*
X187251875Y-90757790D01*
X188251875Y-89757790D02*
X187775684Y-90091123D01*
X188251875Y-90329218D02*
X187251875Y-90329218D01*
X187251875Y-90329218D02*
X187251875Y-89948266D01*
X187251875Y-89948266D02*
X187299494Y-89853028D01*
X187299494Y-89853028D02*
X187347113Y-89805409D01*
X187347113Y-89805409D02*
X187442351Y-89757790D01*
X187442351Y-89757790D02*
X187585208Y-89757790D01*
X187585208Y-89757790D02*
X187680446Y-89805409D01*
X187680446Y-89805409D02*
X187728065Y-89853028D01*
X187728065Y-89853028D02*
X187775684Y-89948266D01*
X187775684Y-89948266D02*
X187775684Y-90329218D01*
X187728065Y-88567313D02*
X187728065Y-88233980D01*
X188251875Y-88091123D02*
X188251875Y-88567313D01*
X188251875Y-88567313D02*
X187251875Y-88567313D01*
X187251875Y-88567313D02*
X187251875Y-88091123D01*
X188251875Y-87662551D02*
X187251875Y-87662551D01*
X187251875Y-87662551D02*
X188251875Y-87091123D01*
X188251875Y-87091123D02*
X187251875Y-87091123D01*
X187299494Y-86091123D02*
X187251875Y-86186361D01*
X187251875Y-86186361D02*
X187251875Y-86329218D01*
X187251875Y-86329218D02*
X187299494Y-86472075D01*
X187299494Y-86472075D02*
X187394732Y-86567313D01*
X187394732Y-86567313D02*
X187489970Y-86614932D01*
X187489970Y-86614932D02*
X187680446Y-86662551D01*
X187680446Y-86662551D02*
X187823303Y-86662551D01*
X187823303Y-86662551D02*
X188013779Y-86614932D01*
X188013779Y-86614932D02*
X188109017Y-86567313D01*
X188109017Y-86567313D02*
X188204256Y-86472075D01*
X188204256Y-86472075D02*
X188251875Y-86329218D01*
X188251875Y-86329218D02*
X188251875Y-86233980D01*
X188251875Y-86233980D02*
X188204256Y-86091123D01*
X188204256Y-86091123D02*
X188156636Y-86043504D01*
X188156636Y-86043504D02*
X187823303Y-86043504D01*
X187823303Y-86043504D02*
X187823303Y-86233980D01*
X188251875Y-85614932D02*
X187251875Y-85614932D01*
X188251875Y-85138742D02*
X187251875Y-85138742D01*
X187251875Y-85138742D02*
X188251875Y-84567314D01*
X188251875Y-84567314D02*
X187251875Y-84567314D01*
X187728065Y-84091123D02*
X187728065Y-83757790D01*
X188251875Y-83614933D02*
X188251875Y-84091123D01*
X188251875Y-84091123D02*
X187251875Y-84091123D01*
X187251875Y-84091123D02*
X187251875Y-83614933D01*
X187728065Y-83186361D02*
X187728065Y-82853028D01*
X188251875Y-82710171D02*
X188251875Y-83186361D01*
X188251875Y-83186361D02*
X187251875Y-83186361D01*
X187251875Y-83186361D02*
X187251875Y-82710171D01*
X188251875Y-81710171D02*
X187775684Y-82043504D01*
X188251875Y-82281599D02*
X187251875Y-82281599D01*
X187251875Y-82281599D02*
X187251875Y-81900647D01*
X187251875Y-81900647D02*
X187299494Y-81805409D01*
X187299494Y-81805409D02*
X187347113Y-81757790D01*
X187347113Y-81757790D02*
X187442351Y-81710171D01*
X187442351Y-81710171D02*
X187585208Y-81710171D01*
X187585208Y-81710171D02*
X187680446Y-81757790D01*
X187680446Y-81757790D02*
X187728065Y-81805409D01*
X187728065Y-81805409D02*
X187775684Y-81900647D01*
X187775684Y-81900647D02*
X187775684Y-82281599D01*
X188251875Y-81281599D02*
X187251875Y-81281599D01*
X188251875Y-80805409D02*
X187251875Y-80805409D01*
X187251875Y-80805409D02*
X188251875Y-80233981D01*
X188251875Y-80233981D02*
X187251875Y-80233981D01*
X187299494Y-79233981D02*
X187251875Y-79329219D01*
X187251875Y-79329219D02*
X187251875Y-79472076D01*
X187251875Y-79472076D02*
X187299494Y-79614933D01*
X187299494Y-79614933D02*
X187394732Y-79710171D01*
X187394732Y-79710171D02*
X187489970Y-79757790D01*
X187489970Y-79757790D02*
X187680446Y-79805409D01*
X187680446Y-79805409D02*
X187823303Y-79805409D01*
X187823303Y-79805409D02*
X188013779Y-79757790D01*
X188013779Y-79757790D02*
X188109017Y-79710171D01*
X188109017Y-79710171D02*
X188204256Y-79614933D01*
X188204256Y-79614933D02*
X188251875Y-79472076D01*
X188251875Y-79472076D02*
X188251875Y-79376838D01*
X188251875Y-79376838D02*
X188204256Y-79233981D01*
X188204256Y-79233981D02*
X188156636Y-79186362D01*
X188156636Y-79186362D02*
X187823303Y-79186362D01*
X187823303Y-79186362D02*
X187823303Y-79376838D01*
X188861819Y-121472077D02*
X188861819Y-120900649D01*
X189861819Y-121186363D02*
X188861819Y-121186363D01*
X189338009Y-120567315D02*
X189338009Y-120233982D01*
X189861819Y-120091125D02*
X189861819Y-120567315D01*
X189861819Y-120567315D02*
X188861819Y-120567315D01*
X188861819Y-120567315D02*
X188861819Y-120091125D01*
X189576104Y-119710172D02*
X189576104Y-119233982D01*
X189861819Y-119805410D02*
X188861819Y-119472077D01*
X188861819Y-119472077D02*
X189861819Y-119138744D01*
X189861819Y-118805410D02*
X188861819Y-118805410D01*
X188861819Y-118805410D02*
X189576104Y-118472077D01*
X189576104Y-118472077D02*
X188861819Y-118138744D01*
X188861819Y-118138744D02*
X189861819Y-118138744D01*
X189338009Y-116567315D02*
X189385628Y-116424458D01*
X189385628Y-116424458D02*
X189433247Y-116376839D01*
X189433247Y-116376839D02*
X189528485Y-116329220D01*
X189528485Y-116329220D02*
X189671342Y-116329220D01*
X189671342Y-116329220D02*
X189766580Y-116376839D01*
X189766580Y-116376839D02*
X189814200Y-116424458D01*
X189814200Y-116424458D02*
X189861819Y-116519696D01*
X189861819Y-116519696D02*
X189861819Y-116900648D01*
X189861819Y-116900648D02*
X188861819Y-116900648D01*
X188861819Y-116900648D02*
X188861819Y-116567315D01*
X188861819Y-116567315D02*
X188909438Y-116472077D01*
X188909438Y-116472077D02*
X188957057Y-116424458D01*
X188957057Y-116424458D02*
X189052295Y-116376839D01*
X189052295Y-116376839D02*
X189147533Y-116376839D01*
X189147533Y-116376839D02*
X189242771Y-116424458D01*
X189242771Y-116424458D02*
X189290390Y-116472077D01*
X189290390Y-116472077D02*
X189338009Y-116567315D01*
X189338009Y-116567315D02*
X189338009Y-116900648D01*
X188861819Y-115710172D02*
X188861819Y-115519696D01*
X188861819Y-115519696D02*
X188909438Y-115424458D01*
X188909438Y-115424458D02*
X189004676Y-115329220D01*
X189004676Y-115329220D02*
X189195152Y-115281601D01*
X189195152Y-115281601D02*
X189528485Y-115281601D01*
X189528485Y-115281601D02*
X189718961Y-115329220D01*
X189718961Y-115329220D02*
X189814200Y-115424458D01*
X189814200Y-115424458D02*
X189861819Y-115519696D01*
X189861819Y-115519696D02*
X189861819Y-115710172D01*
X189861819Y-115710172D02*
X189814200Y-115805410D01*
X189814200Y-115805410D02*
X189718961Y-115900648D01*
X189718961Y-115900648D02*
X189528485Y-115948267D01*
X189528485Y-115948267D02*
X189195152Y-115948267D01*
X189195152Y-115948267D02*
X189004676Y-115900648D01*
X189004676Y-115900648D02*
X188909438Y-115805410D01*
X188909438Y-115805410D02*
X188861819Y-115710172D01*
X188861819Y-114662553D02*
X188861819Y-114472077D01*
X188861819Y-114472077D02*
X188909438Y-114376839D01*
X188909438Y-114376839D02*
X189004676Y-114281601D01*
X189004676Y-114281601D02*
X189195152Y-114233982D01*
X189195152Y-114233982D02*
X189528485Y-114233982D01*
X189528485Y-114233982D02*
X189718961Y-114281601D01*
X189718961Y-114281601D02*
X189814200Y-114376839D01*
X189814200Y-114376839D02*
X189861819Y-114472077D01*
X189861819Y-114472077D02*
X189861819Y-114662553D01*
X189861819Y-114662553D02*
X189814200Y-114757791D01*
X189814200Y-114757791D02*
X189718961Y-114853029D01*
X189718961Y-114853029D02*
X189528485Y-114900648D01*
X189528485Y-114900648D02*
X189195152Y-114900648D01*
X189195152Y-114900648D02*
X189004676Y-114853029D01*
X189004676Y-114853029D02*
X188909438Y-114757791D01*
X188909438Y-114757791D02*
X188861819Y-114662553D01*
X189861819Y-113805410D02*
X188861819Y-113805410D01*
X188861819Y-113805410D02*
X189576104Y-113472077D01*
X189576104Y-113472077D02*
X188861819Y-113138744D01*
X188861819Y-113138744D02*
X189861819Y-113138744D01*
X189766580Y-112662553D02*
X189814200Y-112614934D01*
X189814200Y-112614934D02*
X189861819Y-112662553D01*
X189861819Y-112662553D02*
X189814200Y-112710172D01*
X189814200Y-112710172D02*
X189766580Y-112662553D01*
X189766580Y-112662553D02*
X189861819Y-112662553D01*
X189242771Y-112662553D02*
X189290390Y-112614934D01*
X189290390Y-112614934D02*
X189338009Y-112662553D01*
X189338009Y-112662553D02*
X189290390Y-112710172D01*
X189290390Y-112710172D02*
X189242771Y-112662553D01*
X189242771Y-112662553D02*
X189338009Y-112662553D01*
X189576104Y-111472077D02*
X189576104Y-110995887D01*
X189861819Y-111567315D02*
X188861819Y-111233982D01*
X188861819Y-111233982D02*
X189861819Y-110900649D01*
X189861819Y-110567315D02*
X188861819Y-110567315D01*
X188861819Y-110567315D02*
X189576104Y-110233982D01*
X189576104Y-110233982D02*
X188861819Y-109900649D01*
X188861819Y-109900649D02*
X189861819Y-109900649D01*
X189861819Y-109424458D02*
X188861819Y-109424458D01*
X188861819Y-109424458D02*
X188861819Y-109043506D01*
X188861819Y-109043506D02*
X188909438Y-108948268D01*
X188909438Y-108948268D02*
X188957057Y-108900649D01*
X188957057Y-108900649D02*
X189052295Y-108853030D01*
X189052295Y-108853030D02*
X189195152Y-108853030D01*
X189195152Y-108853030D02*
X189290390Y-108900649D01*
X189290390Y-108900649D02*
X189338009Y-108948268D01*
X189338009Y-108948268D02*
X189385628Y-109043506D01*
X189385628Y-109043506D02*
X189385628Y-109424458D01*
X189861819Y-107948268D02*
X189861819Y-108424458D01*
X189861819Y-108424458D02*
X188861819Y-108424458D01*
X189861819Y-107614934D02*
X188861819Y-107614934D01*
X189338009Y-106805411D02*
X189338009Y-107138744D01*
X189861819Y-107138744D02*
X188861819Y-107138744D01*
X188861819Y-107138744D02*
X188861819Y-106662554D01*
X189861819Y-106281601D02*
X188861819Y-106281601D01*
X189338009Y-105805411D02*
X189338009Y-105472078D01*
X189861819Y-105329221D02*
X189861819Y-105805411D01*
X189861819Y-105805411D02*
X188861819Y-105805411D01*
X188861819Y-105805411D02*
X188861819Y-105329221D01*
X189861819Y-104329221D02*
X189385628Y-104662554D01*
X189861819Y-104900649D02*
X188861819Y-104900649D01*
X188861819Y-104900649D02*
X188861819Y-104519697D01*
X188861819Y-104519697D02*
X188909438Y-104424459D01*
X188909438Y-104424459D02*
X188957057Y-104376840D01*
X188957057Y-104376840D02*
X189052295Y-104329221D01*
X189052295Y-104329221D02*
X189195152Y-104329221D01*
X189195152Y-104329221D02*
X189290390Y-104376840D01*
X189290390Y-104376840D02*
X189338009Y-104424459D01*
X189338009Y-104424459D02*
X189385628Y-104519697D01*
X189385628Y-104519697D02*
X189385628Y-104900649D01*
X189861819Y-103138744D02*
X188861819Y-103138744D01*
X188861819Y-103138744D02*
X189576104Y-102805411D01*
X189576104Y-102805411D02*
X188861819Y-102472078D01*
X188861819Y-102472078D02*
X189861819Y-102472078D01*
X188861819Y-101805411D02*
X188861819Y-101614935D01*
X188861819Y-101614935D02*
X188909438Y-101519697D01*
X188909438Y-101519697D02*
X189004676Y-101424459D01*
X189004676Y-101424459D02*
X189195152Y-101376840D01*
X189195152Y-101376840D02*
X189528485Y-101376840D01*
X189528485Y-101376840D02*
X189718961Y-101424459D01*
X189718961Y-101424459D02*
X189814200Y-101519697D01*
X189814200Y-101519697D02*
X189861819Y-101614935D01*
X189861819Y-101614935D02*
X189861819Y-101805411D01*
X189861819Y-101805411D02*
X189814200Y-101900649D01*
X189814200Y-101900649D02*
X189718961Y-101995887D01*
X189718961Y-101995887D02*
X189528485Y-102043506D01*
X189528485Y-102043506D02*
X189195152Y-102043506D01*
X189195152Y-102043506D02*
X189004676Y-101995887D01*
X189004676Y-101995887D02*
X188909438Y-101900649D01*
X188909438Y-101900649D02*
X188861819Y-101805411D01*
X189861819Y-100948268D02*
X188861819Y-100948268D01*
X188861819Y-100948268D02*
X188861819Y-100710173D01*
X188861819Y-100710173D02*
X188909438Y-100567316D01*
X188909438Y-100567316D02*
X189004676Y-100472078D01*
X189004676Y-100472078D02*
X189099914Y-100424459D01*
X189099914Y-100424459D02*
X189290390Y-100376840D01*
X189290390Y-100376840D02*
X189433247Y-100376840D01*
X189433247Y-100376840D02*
X189623723Y-100424459D01*
X189623723Y-100424459D02*
X189718961Y-100472078D01*
X189718961Y-100472078D02*
X189814200Y-100567316D01*
X189814200Y-100567316D02*
X189861819Y-100710173D01*
X189861819Y-100710173D02*
X189861819Y-100948268D01*
X188861819Y-99948268D02*
X189671342Y-99948268D01*
X189671342Y-99948268D02*
X189766580Y-99900649D01*
X189766580Y-99900649D02*
X189814200Y-99853030D01*
X189814200Y-99853030D02*
X189861819Y-99757792D01*
X189861819Y-99757792D02*
X189861819Y-99567316D01*
X189861819Y-99567316D02*
X189814200Y-99472078D01*
X189814200Y-99472078D02*
X189766580Y-99424459D01*
X189766580Y-99424459D02*
X189671342Y-99376840D01*
X189671342Y-99376840D02*
X188861819Y-99376840D01*
X189861819Y-98424459D02*
X189861819Y-98900649D01*
X189861819Y-98900649D02*
X188861819Y-98900649D01*
X189338009Y-98091125D02*
X189338009Y-97757792D01*
X189861819Y-97614935D02*
X189861819Y-98091125D01*
X189861819Y-98091125D02*
X188861819Y-98091125D01*
X188861819Y-98091125D02*
X188861819Y-97614935D01*
X189814200Y-97138744D02*
X189861819Y-97138744D01*
X189861819Y-97138744D02*
X189957057Y-97186363D01*
X189957057Y-97186363D02*
X190004676Y-97233982D01*
X189861819Y-95376840D02*
X189385628Y-95710173D01*
X189861819Y-95948268D02*
X188861819Y-95948268D01*
X188861819Y-95948268D02*
X188861819Y-95567316D01*
X188861819Y-95567316D02*
X188909438Y-95472078D01*
X188909438Y-95472078D02*
X188957057Y-95424459D01*
X188957057Y-95424459D02*
X189052295Y-95376840D01*
X189052295Y-95376840D02*
X189195152Y-95376840D01*
X189195152Y-95376840D02*
X189290390Y-95424459D01*
X189290390Y-95424459D02*
X189338009Y-95472078D01*
X189338009Y-95472078D02*
X189385628Y-95567316D01*
X189385628Y-95567316D02*
X189385628Y-95948268D01*
X189338009Y-94948268D02*
X189338009Y-94614935D01*
X189861819Y-94472078D02*
X189861819Y-94948268D01*
X189861819Y-94948268D02*
X188861819Y-94948268D01*
X188861819Y-94948268D02*
X188861819Y-94472078D01*
X188861819Y-94186363D02*
X189861819Y-93853030D01*
X189861819Y-93853030D02*
X188861819Y-93519697D01*
X189480866Y-93186363D02*
X189480866Y-92424459D01*
X73033333Y-125349819D02*
X72700000Y-124873628D01*
X72461905Y-125349819D02*
X72461905Y-124349819D01*
X72461905Y-124349819D02*
X72842857Y-124349819D01*
X72842857Y-124349819D02*
X72938095Y-124397438D01*
X72938095Y-124397438D02*
X72985714Y-124445057D01*
X72985714Y-124445057D02*
X73033333Y-124540295D01*
X73033333Y-124540295D02*
X73033333Y-124683152D01*
X73033333Y-124683152D02*
X72985714Y-124778390D01*
X72985714Y-124778390D02*
X72938095Y-124826009D01*
X72938095Y-124826009D02*
X72842857Y-124873628D01*
X72842857Y-124873628D02*
X72461905Y-124873628D01*
X73604762Y-124778390D02*
X73509524Y-124730771D01*
X73509524Y-124730771D02*
X73461905Y-124683152D01*
X73461905Y-124683152D02*
X73414286Y-124587914D01*
X73414286Y-124587914D02*
X73414286Y-124540295D01*
X73414286Y-124540295D02*
X73461905Y-124445057D01*
X73461905Y-124445057D02*
X73509524Y-124397438D01*
X73509524Y-124397438D02*
X73604762Y-124349819D01*
X73604762Y-124349819D02*
X73795238Y-124349819D01*
X73795238Y-124349819D02*
X73890476Y-124397438D01*
X73890476Y-124397438D02*
X73938095Y-124445057D01*
X73938095Y-124445057D02*
X73985714Y-124540295D01*
X73985714Y-124540295D02*
X73985714Y-124587914D01*
X73985714Y-124587914D02*
X73938095Y-124683152D01*
X73938095Y-124683152D02*
X73890476Y-124730771D01*
X73890476Y-124730771D02*
X73795238Y-124778390D01*
X73795238Y-124778390D02*
X73604762Y-124778390D01*
X73604762Y-124778390D02*
X73509524Y-124826009D01*
X73509524Y-124826009D02*
X73461905Y-124873628D01*
X73461905Y-124873628D02*
X73414286Y-124968866D01*
X73414286Y-124968866D02*
X73414286Y-125159342D01*
X73414286Y-125159342D02*
X73461905Y-125254580D01*
X73461905Y-125254580D02*
X73509524Y-125302200D01*
X73509524Y-125302200D02*
X73604762Y-125349819D01*
X73604762Y-125349819D02*
X73795238Y-125349819D01*
X73795238Y-125349819D02*
X73890476Y-125302200D01*
X73890476Y-125302200D02*
X73938095Y-125254580D01*
X73938095Y-125254580D02*
X73985714Y-125159342D01*
X73985714Y-125159342D02*
X73985714Y-124968866D01*
X73985714Y-124968866D02*
X73938095Y-124873628D01*
X73938095Y-124873628D02*
X73890476Y-124826009D01*
X73890476Y-124826009D02*
X73795238Y-124778390D01*
X98257142Y-86489819D02*
X97923809Y-86013628D01*
X97685714Y-86489819D02*
X97685714Y-85489819D01*
X97685714Y-85489819D02*
X98066666Y-85489819D01*
X98066666Y-85489819D02*
X98161904Y-85537438D01*
X98161904Y-85537438D02*
X98209523Y-85585057D01*
X98209523Y-85585057D02*
X98257142Y-85680295D01*
X98257142Y-85680295D02*
X98257142Y-85823152D01*
X98257142Y-85823152D02*
X98209523Y-85918390D01*
X98209523Y-85918390D02*
X98161904Y-85966009D01*
X98161904Y-85966009D02*
X98066666Y-86013628D01*
X98066666Y-86013628D02*
X97685714Y-86013628D01*
X99209523Y-86489819D02*
X98638095Y-86489819D01*
X98923809Y-86489819D02*
X98923809Y-85489819D01*
X98923809Y-85489819D02*
X98828571Y-85632676D01*
X98828571Y-85632676D02*
X98733333Y-85727914D01*
X98733333Y-85727914D02*
X98638095Y-85775533D01*
X100066666Y-85823152D02*
X100066666Y-86489819D01*
X99828571Y-85442200D02*
X99590476Y-86156485D01*
X99590476Y-86156485D02*
X100209523Y-86156485D01*
X157203895Y-123721619D02*
X157775323Y-123721619D01*
X157489609Y-124721619D02*
X157489609Y-123721619D01*
X158108657Y-124721619D02*
X158108657Y-123721619D01*
X158108657Y-123721619D02*
X158489609Y-123721619D01*
X158489609Y-123721619D02*
X158584847Y-123769238D01*
X158584847Y-123769238D02*
X158632466Y-123816857D01*
X158632466Y-123816857D02*
X158680085Y-123912095D01*
X158680085Y-123912095D02*
X158680085Y-124054952D01*
X158680085Y-124054952D02*
X158632466Y-124150190D01*
X158632466Y-124150190D02*
X158584847Y-124197809D01*
X158584847Y-124197809D02*
X158489609Y-124245428D01*
X158489609Y-124245428D02*
X158108657Y-124245428D01*
X159632466Y-124721619D02*
X159061038Y-124721619D01*
X159346752Y-124721619D02*
X159346752Y-123721619D01*
X159346752Y-123721619D02*
X159251514Y-123864476D01*
X159251514Y-123864476D02*
X159156276Y-123959714D01*
X159156276Y-123959714D02*
X159061038Y-124007333D01*
X75367219Y-88374457D02*
X74891028Y-88707790D01*
X75367219Y-88945885D02*
X74367219Y-88945885D01*
X74367219Y-88945885D02*
X74367219Y-88564933D01*
X74367219Y-88564933D02*
X74414838Y-88469695D01*
X74414838Y-88469695D02*
X74462457Y-88422076D01*
X74462457Y-88422076D02*
X74557695Y-88374457D01*
X74557695Y-88374457D02*
X74700552Y-88374457D01*
X74700552Y-88374457D02*
X74795790Y-88422076D01*
X74795790Y-88422076D02*
X74843409Y-88469695D01*
X74843409Y-88469695D02*
X74891028Y-88564933D01*
X74891028Y-88564933D02*
X74891028Y-88945885D01*
X75367219Y-87422076D02*
X75367219Y-87993504D01*
X75367219Y-87707790D02*
X74367219Y-87707790D01*
X74367219Y-87707790D02*
X74510076Y-87803028D01*
X74510076Y-87803028D02*
X74605314Y-87898266D01*
X74605314Y-87898266D02*
X74652933Y-87993504D01*
X74462457Y-87041123D02*
X74414838Y-86993504D01*
X74414838Y-86993504D02*
X74367219Y-86898266D01*
X74367219Y-86898266D02*
X74367219Y-86660171D01*
X74367219Y-86660171D02*
X74414838Y-86564933D01*
X74414838Y-86564933D02*
X74462457Y-86517314D01*
X74462457Y-86517314D02*
X74557695Y-86469695D01*
X74557695Y-86469695D02*
X74652933Y-86469695D01*
X74652933Y-86469695D02*
X74795790Y-86517314D01*
X74795790Y-86517314D02*
X75367219Y-87088742D01*
X75367219Y-87088742D02*
X75367219Y-86469695D01*
X158705980Y-103264667D02*
X158753600Y-103312286D01*
X158753600Y-103312286D02*
X158801219Y-103455143D01*
X158801219Y-103455143D02*
X158801219Y-103550381D01*
X158801219Y-103550381D02*
X158753600Y-103693238D01*
X158753600Y-103693238D02*
X158658361Y-103788476D01*
X158658361Y-103788476D02*
X158563123Y-103836095D01*
X158563123Y-103836095D02*
X158372647Y-103883714D01*
X158372647Y-103883714D02*
X158229790Y-103883714D01*
X158229790Y-103883714D02*
X158039314Y-103836095D01*
X158039314Y-103836095D02*
X157944076Y-103788476D01*
X157944076Y-103788476D02*
X157848838Y-103693238D01*
X157848838Y-103693238D02*
X157801219Y-103550381D01*
X157801219Y-103550381D02*
X157801219Y-103455143D01*
X157801219Y-103455143D02*
X157848838Y-103312286D01*
X157848838Y-103312286D02*
X157896457Y-103264667D01*
X158801219Y-102312286D02*
X158801219Y-102883714D01*
X158801219Y-102598000D02*
X157801219Y-102598000D01*
X157801219Y-102598000D02*
X157944076Y-102693238D01*
X157944076Y-102693238D02*
X158039314Y-102788476D01*
X158039314Y-102788476D02*
X158086933Y-102883714D01*
X42291095Y-72590819D02*
X42291095Y-71590819D01*
X42291095Y-72067009D02*
X42862523Y-72067009D01*
X42862523Y-72590819D02*
X42862523Y-71590819D01*
X43862523Y-72590819D02*
X43291095Y-72590819D01*
X43576809Y-72590819D02*
X43576809Y-71590819D01*
X43576809Y-71590819D02*
X43481571Y-71733676D01*
X43481571Y-71733676D02*
X43386333Y-71828914D01*
X43386333Y-71828914D02*
X43291095Y-71876533D01*
X41656095Y-130320819D02*
X41656095Y-129320819D01*
X41656095Y-129797009D02*
X42227523Y-129797009D01*
X42227523Y-130320819D02*
X42227523Y-129320819D01*
X42608476Y-129320819D02*
X43227523Y-129320819D01*
X43227523Y-129320819D02*
X42894190Y-129701771D01*
X42894190Y-129701771D02*
X43037047Y-129701771D01*
X43037047Y-129701771D02*
X43132285Y-129749390D01*
X43132285Y-129749390D02*
X43179904Y-129797009D01*
X43179904Y-129797009D02*
X43227523Y-129892247D01*
X43227523Y-129892247D02*
X43227523Y-130130342D01*
X43227523Y-130130342D02*
X43179904Y-130225580D01*
X43179904Y-130225580D02*
X43132285Y-130273200D01*
X43132285Y-130273200D02*
X43037047Y-130320819D01*
X43037047Y-130320819D02*
X42751333Y-130320819D01*
X42751333Y-130320819D02*
X42656095Y-130273200D01*
X42656095Y-130273200D02*
X42608476Y-130225580D01*
X129724819Y-92587857D02*
X129248628Y-92921190D01*
X129724819Y-93159285D02*
X128724819Y-93159285D01*
X128724819Y-93159285D02*
X128724819Y-92778333D01*
X128724819Y-92778333D02*
X128772438Y-92683095D01*
X128772438Y-92683095D02*
X128820057Y-92635476D01*
X128820057Y-92635476D02*
X128915295Y-92587857D01*
X128915295Y-92587857D02*
X129058152Y-92587857D01*
X129058152Y-92587857D02*
X129153390Y-92635476D01*
X129153390Y-92635476D02*
X129201009Y-92683095D01*
X129201009Y-92683095D02*
X129248628Y-92778333D01*
X129248628Y-92778333D02*
X129248628Y-93159285D01*
X129724819Y-91635476D02*
X129724819Y-92206904D01*
X129724819Y-91921190D02*
X128724819Y-91921190D01*
X128724819Y-91921190D02*
X128867676Y-92016428D01*
X128867676Y-92016428D02*
X128962914Y-92111666D01*
X128962914Y-92111666D02*
X129010533Y-92206904D01*
X128724819Y-90730714D02*
X128724819Y-91206904D01*
X128724819Y-91206904D02*
X129201009Y-91254523D01*
X129201009Y-91254523D02*
X129153390Y-91206904D01*
X129153390Y-91206904D02*
X129105771Y-91111666D01*
X129105771Y-91111666D02*
X129105771Y-90873571D01*
X129105771Y-90873571D02*
X129153390Y-90778333D01*
X129153390Y-90778333D02*
X129201009Y-90730714D01*
X129201009Y-90730714D02*
X129296247Y-90683095D01*
X129296247Y-90683095D02*
X129534342Y-90683095D01*
X129534342Y-90683095D02*
X129629580Y-90730714D01*
X129629580Y-90730714D02*
X129677200Y-90778333D01*
X129677200Y-90778333D02*
X129724819Y-90873571D01*
X129724819Y-90873571D02*
X129724819Y-91111666D01*
X129724819Y-91111666D02*
X129677200Y-91206904D01*
X129677200Y-91206904D02*
X129629580Y-91254523D01*
X70066819Y-102314333D02*
X70781104Y-102314333D01*
X70781104Y-102314333D02*
X70923961Y-102361952D01*
X70923961Y-102361952D02*
X71019200Y-102457190D01*
X71019200Y-102457190D02*
X71066819Y-102600047D01*
X71066819Y-102600047D02*
X71066819Y-102695285D01*
X70066819Y-101933380D02*
X70066819Y-101314333D01*
X70066819Y-101314333D02*
X70447771Y-101647666D01*
X70447771Y-101647666D02*
X70447771Y-101504809D01*
X70447771Y-101504809D02*
X70495390Y-101409571D01*
X70495390Y-101409571D02*
X70543009Y-101361952D01*
X70543009Y-101361952D02*
X70638247Y-101314333D01*
X70638247Y-101314333D02*
X70876342Y-101314333D01*
X70876342Y-101314333D02*
X70971580Y-101361952D01*
X70971580Y-101361952D02*
X71019200Y-101409571D01*
X71019200Y-101409571D02*
X71066819Y-101504809D01*
X71066819Y-101504809D02*
X71066819Y-101790523D01*
X71066819Y-101790523D02*
X71019200Y-101885761D01*
X71019200Y-101885761D02*
X70971580Y-101933380D01*
X185801095Y-130320819D02*
X185801095Y-129320819D01*
X185801095Y-129797009D02*
X186372523Y-129797009D01*
X186372523Y-130320819D02*
X186372523Y-129320819D01*
X187277285Y-129654152D02*
X187277285Y-130320819D01*
X187039190Y-129273200D02*
X186801095Y-129987485D01*
X186801095Y-129987485D02*
X187420142Y-129987485D01*
X185801095Y-72336819D02*
X185801095Y-71336819D01*
X185801095Y-71813009D02*
X186372523Y-71813009D01*
X186372523Y-72336819D02*
X186372523Y-71336819D01*
X186801095Y-71432057D02*
X186848714Y-71384438D01*
X186848714Y-71384438D02*
X186943952Y-71336819D01*
X186943952Y-71336819D02*
X187182047Y-71336819D01*
X187182047Y-71336819D02*
X187277285Y-71384438D01*
X187277285Y-71384438D02*
X187324904Y-71432057D01*
X187324904Y-71432057D02*
X187372523Y-71527295D01*
X187372523Y-71527295D02*
X187372523Y-71622533D01*
X187372523Y-71622533D02*
X187324904Y-71765390D01*
X187324904Y-71765390D02*
X186753476Y-72336819D01*
X186753476Y-72336819D02*
X187372523Y-72336819D01*
X130224819Y-115931666D02*
X129748628Y-116264999D01*
X130224819Y-116503094D02*
X129224819Y-116503094D01*
X129224819Y-116503094D02*
X129224819Y-116122142D01*
X129224819Y-116122142D02*
X129272438Y-116026904D01*
X129272438Y-116026904D02*
X129320057Y-115979285D01*
X129320057Y-115979285D02*
X129415295Y-115931666D01*
X129415295Y-115931666D02*
X129558152Y-115931666D01*
X129558152Y-115931666D02*
X129653390Y-115979285D01*
X129653390Y-115979285D02*
X129701009Y-116026904D01*
X129701009Y-116026904D02*
X129748628Y-116122142D01*
X129748628Y-116122142D02*
X129748628Y-116503094D01*
X129224819Y-115598332D02*
X129224819Y-114979285D01*
X129224819Y-114979285D02*
X129605771Y-115312618D01*
X129605771Y-115312618D02*
X129605771Y-115169761D01*
X129605771Y-115169761D02*
X129653390Y-115074523D01*
X129653390Y-115074523D02*
X129701009Y-115026904D01*
X129701009Y-115026904D02*
X129796247Y-114979285D01*
X129796247Y-114979285D02*
X130034342Y-114979285D01*
X130034342Y-114979285D02*
X130129580Y-115026904D01*
X130129580Y-115026904D02*
X130177200Y-115074523D01*
X130177200Y-115074523D02*
X130224819Y-115169761D01*
X130224819Y-115169761D02*
X130224819Y-115455475D01*
X130224819Y-115455475D02*
X130177200Y-115550713D01*
X130177200Y-115550713D02*
X130129580Y-115598332D01*
X51665333Y-125514580D02*
X51617714Y-125562200D01*
X51617714Y-125562200D02*
X51474857Y-125609819D01*
X51474857Y-125609819D02*
X51379619Y-125609819D01*
X51379619Y-125609819D02*
X51236762Y-125562200D01*
X51236762Y-125562200D02*
X51141524Y-125466961D01*
X51141524Y-125466961D02*
X51093905Y-125371723D01*
X51093905Y-125371723D02*
X51046286Y-125181247D01*
X51046286Y-125181247D02*
X51046286Y-125038390D01*
X51046286Y-125038390D02*
X51093905Y-124847914D01*
X51093905Y-124847914D02*
X51141524Y-124752676D01*
X51141524Y-124752676D02*
X51236762Y-124657438D01*
X51236762Y-124657438D02*
X51379619Y-124609819D01*
X51379619Y-124609819D02*
X51474857Y-124609819D01*
X51474857Y-124609819D02*
X51617714Y-124657438D01*
X51617714Y-124657438D02*
X51665333Y-124705057D01*
X51998667Y-124609819D02*
X52617714Y-124609819D01*
X52617714Y-124609819D02*
X52284381Y-124990771D01*
X52284381Y-124990771D02*
X52427238Y-124990771D01*
X52427238Y-124990771D02*
X52522476Y-125038390D01*
X52522476Y-125038390D02*
X52570095Y-125086009D01*
X52570095Y-125086009D02*
X52617714Y-125181247D01*
X52617714Y-125181247D02*
X52617714Y-125419342D01*
X52617714Y-125419342D02*
X52570095Y-125514580D01*
X52570095Y-125514580D02*
X52522476Y-125562200D01*
X52522476Y-125562200D02*
X52427238Y-125609819D01*
X52427238Y-125609819D02*
X52141524Y-125609819D01*
X52141524Y-125609819D02*
X52046286Y-125562200D01*
X52046286Y-125562200D02*
X51998667Y-125514580D01*
X147980057Y-113900238D02*
X147932438Y-113995476D01*
X147932438Y-113995476D02*
X147837200Y-114090714D01*
X147837200Y-114090714D02*
X147694342Y-114233571D01*
X147694342Y-114233571D02*
X147646723Y-114328809D01*
X147646723Y-114328809D02*
X147646723Y-114424047D01*
X147884819Y-114376428D02*
X147837200Y-114471666D01*
X147837200Y-114471666D02*
X147741961Y-114566904D01*
X147741961Y-114566904D02*
X147551485Y-114614523D01*
X147551485Y-114614523D02*
X147218152Y-114614523D01*
X147218152Y-114614523D02*
X147027676Y-114566904D01*
X147027676Y-114566904D02*
X146932438Y-114471666D01*
X146932438Y-114471666D02*
X146884819Y-114376428D01*
X146884819Y-114376428D02*
X146884819Y-114185952D01*
X146884819Y-114185952D02*
X146932438Y-114090714D01*
X146932438Y-114090714D02*
X147027676Y-113995476D01*
X147027676Y-113995476D02*
X147218152Y-113947857D01*
X147218152Y-113947857D02*
X147551485Y-113947857D01*
X147551485Y-113947857D02*
X147741961Y-113995476D01*
X147741961Y-113995476D02*
X147837200Y-114090714D01*
X147837200Y-114090714D02*
X147884819Y-114185952D01*
X147884819Y-114185952D02*
X147884819Y-114376428D01*
X147884819Y-113471666D02*
X147884819Y-113281190D01*
X147884819Y-113281190D02*
X147837200Y-113185952D01*
X147837200Y-113185952D02*
X147789580Y-113138333D01*
X147789580Y-113138333D02*
X147646723Y-113043095D01*
X147646723Y-113043095D02*
X147456247Y-112995476D01*
X147456247Y-112995476D02*
X147075295Y-112995476D01*
X147075295Y-112995476D02*
X146980057Y-113043095D01*
X146980057Y-113043095D02*
X146932438Y-113090714D01*
X146932438Y-113090714D02*
X146884819Y-113185952D01*
X146884819Y-113185952D02*
X146884819Y-113376428D01*
X146884819Y-113376428D02*
X146932438Y-113471666D01*
X146932438Y-113471666D02*
X146980057Y-113519285D01*
X146980057Y-113519285D02*
X147075295Y-113566904D01*
X147075295Y-113566904D02*
X147313390Y-113566904D01*
X147313390Y-113566904D02*
X147408628Y-113519285D01*
X147408628Y-113519285D02*
X147456247Y-113471666D01*
X147456247Y-113471666D02*
X147503866Y-113376428D01*
X147503866Y-113376428D02*
X147503866Y-113185952D01*
X147503866Y-113185952D02*
X147456247Y-113090714D01*
X147456247Y-113090714D02*
X147408628Y-113043095D01*
X147408628Y-113043095D02*
X147313390Y-112995476D01*
X135752819Y-110123266D02*
X135276628Y-110456599D01*
X135752819Y-110694694D02*
X134752819Y-110694694D01*
X134752819Y-110694694D02*
X134752819Y-110313742D01*
X134752819Y-110313742D02*
X134800438Y-110218504D01*
X134800438Y-110218504D02*
X134848057Y-110170885D01*
X134848057Y-110170885D02*
X134943295Y-110123266D01*
X134943295Y-110123266D02*
X135086152Y-110123266D01*
X135086152Y-110123266D02*
X135181390Y-110170885D01*
X135181390Y-110170885D02*
X135229009Y-110218504D01*
X135229009Y-110218504D02*
X135276628Y-110313742D01*
X135276628Y-110313742D02*
X135276628Y-110694694D01*
X134848057Y-109742313D02*
X134800438Y-109694694D01*
X134800438Y-109694694D02*
X134752819Y-109599456D01*
X134752819Y-109599456D02*
X134752819Y-109361361D01*
X134752819Y-109361361D02*
X134800438Y-109266123D01*
X134800438Y-109266123D02*
X134848057Y-109218504D01*
X134848057Y-109218504D02*
X134943295Y-109170885D01*
X134943295Y-109170885D02*
X135038533Y-109170885D01*
X135038533Y-109170885D02*
X135181390Y-109218504D01*
X135181390Y-109218504D02*
X135752819Y-109789932D01*
X135752819Y-109789932D02*
X135752819Y-109170885D01*
X50714133Y-71304380D02*
X50666514Y-71352000D01*
X50666514Y-71352000D02*
X50523657Y-71399619D01*
X50523657Y-71399619D02*
X50428419Y-71399619D01*
X50428419Y-71399619D02*
X50285562Y-71352000D01*
X50285562Y-71352000D02*
X50190324Y-71256761D01*
X50190324Y-71256761D02*
X50142705Y-71161523D01*
X50142705Y-71161523D02*
X50095086Y-70971047D01*
X50095086Y-70971047D02*
X50095086Y-70828190D01*
X50095086Y-70828190D02*
X50142705Y-70637714D01*
X50142705Y-70637714D02*
X50190324Y-70542476D01*
X50190324Y-70542476D02*
X50285562Y-70447238D01*
X50285562Y-70447238D02*
X50428419Y-70399619D01*
X50428419Y-70399619D02*
X50523657Y-70399619D01*
X50523657Y-70399619D02*
X50666514Y-70447238D01*
X50666514Y-70447238D02*
X50714133Y-70494857D01*
X51618895Y-70399619D02*
X51142705Y-70399619D01*
X51142705Y-70399619D02*
X51095086Y-70875809D01*
X51095086Y-70875809D02*
X51142705Y-70828190D01*
X51142705Y-70828190D02*
X51237943Y-70780571D01*
X51237943Y-70780571D02*
X51476038Y-70780571D01*
X51476038Y-70780571D02*
X51571276Y-70828190D01*
X51571276Y-70828190D02*
X51618895Y-70875809D01*
X51618895Y-70875809D02*
X51666514Y-70971047D01*
X51666514Y-70971047D02*
X51666514Y-71209142D01*
X51666514Y-71209142D02*
X51618895Y-71304380D01*
X51618895Y-71304380D02*
X51571276Y-71352000D01*
X51571276Y-71352000D02*
X51476038Y-71399619D01*
X51476038Y-71399619D02*
X51237943Y-71399619D01*
X51237943Y-71399619D02*
X51142705Y-71352000D01*
X51142705Y-71352000D02*
X51095086Y-71304380D01*
X94530057Y-73120238D02*
X94482438Y-73215476D01*
X94482438Y-73215476D02*
X94387200Y-73310714D01*
X94387200Y-73310714D02*
X94244342Y-73453571D01*
X94244342Y-73453571D02*
X94196723Y-73548809D01*
X94196723Y-73548809D02*
X94196723Y-73644047D01*
X94434819Y-73596428D02*
X94387200Y-73691666D01*
X94387200Y-73691666D02*
X94291961Y-73786904D01*
X94291961Y-73786904D02*
X94101485Y-73834523D01*
X94101485Y-73834523D02*
X93768152Y-73834523D01*
X93768152Y-73834523D02*
X93577676Y-73786904D01*
X93577676Y-73786904D02*
X93482438Y-73691666D01*
X93482438Y-73691666D02*
X93434819Y-73596428D01*
X93434819Y-73596428D02*
X93434819Y-73405952D01*
X93434819Y-73405952D02*
X93482438Y-73310714D01*
X93482438Y-73310714D02*
X93577676Y-73215476D01*
X93577676Y-73215476D02*
X93768152Y-73167857D01*
X93768152Y-73167857D02*
X94101485Y-73167857D01*
X94101485Y-73167857D02*
X94291961Y-73215476D01*
X94291961Y-73215476D02*
X94387200Y-73310714D01*
X94387200Y-73310714D02*
X94434819Y-73405952D01*
X94434819Y-73405952D02*
X94434819Y-73596428D01*
X93434819Y-72310714D02*
X93434819Y-72501190D01*
X93434819Y-72501190D02*
X93482438Y-72596428D01*
X93482438Y-72596428D02*
X93530057Y-72644047D01*
X93530057Y-72644047D02*
X93672914Y-72739285D01*
X93672914Y-72739285D02*
X93863390Y-72786904D01*
X93863390Y-72786904D02*
X94244342Y-72786904D01*
X94244342Y-72786904D02*
X94339580Y-72739285D01*
X94339580Y-72739285D02*
X94387200Y-72691666D01*
X94387200Y-72691666D02*
X94434819Y-72596428D01*
X94434819Y-72596428D02*
X94434819Y-72405952D01*
X94434819Y-72405952D02*
X94387200Y-72310714D01*
X94387200Y-72310714D02*
X94339580Y-72263095D01*
X94339580Y-72263095D02*
X94244342Y-72215476D01*
X94244342Y-72215476D02*
X94006247Y-72215476D01*
X94006247Y-72215476D02*
X93911009Y-72263095D01*
X93911009Y-72263095D02*
X93863390Y-72310714D01*
X93863390Y-72310714D02*
X93815771Y-72405952D01*
X93815771Y-72405952D02*
X93815771Y-72596428D01*
X93815771Y-72596428D02*
X93863390Y-72691666D01*
X93863390Y-72691666D02*
X93911009Y-72739285D01*
X93911009Y-72739285D02*
X94006247Y-72786904D01*
X85924819Y-88373094D02*
X84924819Y-88373094D01*
X84924819Y-88373094D02*
X84924819Y-88134999D01*
X84924819Y-88134999D02*
X84972438Y-87992142D01*
X84972438Y-87992142D02*
X85067676Y-87896904D01*
X85067676Y-87896904D02*
X85162914Y-87849285D01*
X85162914Y-87849285D02*
X85353390Y-87801666D01*
X85353390Y-87801666D02*
X85496247Y-87801666D01*
X85496247Y-87801666D02*
X85686723Y-87849285D01*
X85686723Y-87849285D02*
X85781961Y-87896904D01*
X85781961Y-87896904D02*
X85877200Y-87992142D01*
X85877200Y-87992142D02*
X85924819Y-88134999D01*
X85924819Y-88134999D02*
X85924819Y-88373094D01*
X84924819Y-87468332D02*
X84924819Y-86849285D01*
X84924819Y-86849285D02*
X85305771Y-87182618D01*
X85305771Y-87182618D02*
X85305771Y-87039761D01*
X85305771Y-87039761D02*
X85353390Y-86944523D01*
X85353390Y-86944523D02*
X85401009Y-86896904D01*
X85401009Y-86896904D02*
X85496247Y-86849285D01*
X85496247Y-86849285D02*
X85734342Y-86849285D01*
X85734342Y-86849285D02*
X85829580Y-86896904D01*
X85829580Y-86896904D02*
X85877200Y-86944523D01*
X85877200Y-86944523D02*
X85924819Y-87039761D01*
X85924819Y-87039761D02*
X85924819Y-87325475D01*
X85924819Y-87325475D02*
X85877200Y-87420713D01*
X85877200Y-87420713D02*
X85829580Y-87468332D01*
X85554819Y-82816904D02*
X84554819Y-82816904D01*
X85554819Y-82245476D02*
X84983390Y-82674047D01*
X84554819Y-82245476D02*
X85126247Y-82816904D01*
X105059580Y-72331666D02*
X105107200Y-72379285D01*
X105107200Y-72379285D02*
X105154819Y-72522142D01*
X105154819Y-72522142D02*
X105154819Y-72617380D01*
X105154819Y-72617380D02*
X105107200Y-72760237D01*
X105107200Y-72760237D02*
X105011961Y-72855475D01*
X105011961Y-72855475D02*
X104916723Y-72903094D01*
X104916723Y-72903094D02*
X104726247Y-72950713D01*
X104726247Y-72950713D02*
X104583390Y-72950713D01*
X104583390Y-72950713D02*
X104392914Y-72903094D01*
X104392914Y-72903094D02*
X104297676Y-72855475D01*
X104297676Y-72855475D02*
X104202438Y-72760237D01*
X104202438Y-72760237D02*
X104154819Y-72617380D01*
X104154819Y-72617380D02*
X104154819Y-72522142D01*
X104154819Y-72522142D02*
X104202438Y-72379285D01*
X104202438Y-72379285D02*
X104250057Y-72331666D01*
X104154819Y-71474523D02*
X104154819Y-71664999D01*
X104154819Y-71664999D02*
X104202438Y-71760237D01*
X104202438Y-71760237D02*
X104250057Y-71807856D01*
X104250057Y-71807856D02*
X104392914Y-71903094D01*
X104392914Y-71903094D02*
X104583390Y-71950713D01*
X104583390Y-71950713D02*
X104964342Y-71950713D01*
X104964342Y-71950713D02*
X105059580Y-71903094D01*
X105059580Y-71903094D02*
X105107200Y-71855475D01*
X105107200Y-71855475D02*
X105154819Y-71760237D01*
X105154819Y-71760237D02*
X105154819Y-71569761D01*
X105154819Y-71569761D02*
X105107200Y-71474523D01*
X105107200Y-71474523D02*
X105059580Y-71426904D01*
X105059580Y-71426904D02*
X104964342Y-71379285D01*
X104964342Y-71379285D02*
X104726247Y-71379285D01*
X104726247Y-71379285D02*
X104631009Y-71426904D01*
X104631009Y-71426904D02*
X104583390Y-71474523D01*
X104583390Y-71474523D02*
X104535771Y-71569761D01*
X104535771Y-71569761D02*
X104535771Y-71760237D01*
X104535771Y-71760237D02*
X104583390Y-71855475D01*
X104583390Y-71855475D02*
X104631009Y-71903094D01*
X104631009Y-71903094D02*
X104726247Y-71950713D01*
X57757142Y-84189819D02*
X57423809Y-83713628D01*
X57185714Y-84189819D02*
X57185714Y-83189819D01*
X57185714Y-83189819D02*
X57566666Y-83189819D01*
X57566666Y-83189819D02*
X57661904Y-83237438D01*
X57661904Y-83237438D02*
X57709523Y-83285057D01*
X57709523Y-83285057D02*
X57757142Y-83380295D01*
X57757142Y-83380295D02*
X57757142Y-83523152D01*
X57757142Y-83523152D02*
X57709523Y-83618390D01*
X57709523Y-83618390D02*
X57661904Y-83666009D01*
X57661904Y-83666009D02*
X57566666Y-83713628D01*
X57566666Y-83713628D02*
X57185714Y-83713628D01*
X58709523Y-84189819D02*
X58138095Y-84189819D01*
X58423809Y-84189819D02*
X58423809Y-83189819D01*
X58423809Y-83189819D02*
X58328571Y-83332676D01*
X58328571Y-83332676D02*
X58233333Y-83427914D01*
X58233333Y-83427914D02*
X58138095Y-83475533D01*
X59328571Y-83189819D02*
X59423809Y-83189819D01*
X59423809Y-83189819D02*
X59519047Y-83237438D01*
X59519047Y-83237438D02*
X59566666Y-83285057D01*
X59566666Y-83285057D02*
X59614285Y-83380295D01*
X59614285Y-83380295D02*
X59661904Y-83570771D01*
X59661904Y-83570771D02*
X59661904Y-83808866D01*
X59661904Y-83808866D02*
X59614285Y-83999342D01*
X59614285Y-83999342D02*
X59566666Y-84094580D01*
X59566666Y-84094580D02*
X59519047Y-84142200D01*
X59519047Y-84142200D02*
X59423809Y-84189819D01*
X59423809Y-84189819D02*
X59328571Y-84189819D01*
X59328571Y-84189819D02*
X59233333Y-84142200D01*
X59233333Y-84142200D02*
X59185714Y-84094580D01*
X59185714Y-84094580D02*
X59138095Y-83999342D01*
X59138095Y-83999342D02*
X59090476Y-83808866D01*
X59090476Y-83808866D02*
X59090476Y-83570771D01*
X59090476Y-83570771D02*
X59138095Y-83380295D01*
X59138095Y-83380295D02*
X59185714Y-83285057D01*
X59185714Y-83285057D02*
X59233333Y-83237438D01*
X59233333Y-83237438D02*
X59328571Y-83189819D01*
X143142857Y-130600438D02*
X143095238Y-130695676D01*
X143095238Y-130695676D02*
X143000000Y-130790914D01*
X143000000Y-130790914D02*
X142857142Y-130933771D01*
X142857142Y-130933771D02*
X142809523Y-131029009D01*
X142809523Y-131029009D02*
X142809523Y-131124247D01*
X143047619Y-131076628D02*
X143000000Y-131171866D01*
X143000000Y-131171866D02*
X142904761Y-131267104D01*
X142904761Y-131267104D02*
X142714285Y-131314723D01*
X142714285Y-131314723D02*
X142380952Y-131314723D01*
X142380952Y-131314723D02*
X142190476Y-131267104D01*
X142190476Y-131267104D02*
X142095238Y-131171866D01*
X142095238Y-131171866D02*
X142047619Y-131076628D01*
X142047619Y-131076628D02*
X142047619Y-130886152D01*
X142047619Y-130886152D02*
X142095238Y-130790914D01*
X142095238Y-130790914D02*
X142190476Y-130695676D01*
X142190476Y-130695676D02*
X142380952Y-130648057D01*
X142380952Y-130648057D02*
X142714285Y-130648057D01*
X142714285Y-130648057D02*
X142904761Y-130695676D01*
X142904761Y-130695676D02*
X143000000Y-130790914D01*
X143000000Y-130790914D02*
X143047619Y-130886152D01*
X143047619Y-130886152D02*
X143047619Y-131076628D01*
X142047619Y-129743295D02*
X142047619Y-130219485D01*
X142047619Y-130219485D02*
X142523809Y-130267104D01*
X142523809Y-130267104D02*
X142476190Y-130219485D01*
X142476190Y-130219485D02*
X142428571Y-130124247D01*
X142428571Y-130124247D02*
X142428571Y-129886152D01*
X142428571Y-129886152D02*
X142476190Y-129790914D01*
X142476190Y-129790914D02*
X142523809Y-129743295D01*
X142523809Y-129743295D02*
X142619047Y-129695676D01*
X142619047Y-129695676D02*
X142857142Y-129695676D01*
X142857142Y-129695676D02*
X142952380Y-129743295D01*
X142952380Y-129743295D02*
X143000000Y-129790914D01*
X143000000Y-129790914D02*
X143047619Y-129886152D01*
X143047619Y-129886152D02*
X143047619Y-130124247D01*
X143047619Y-130124247D02*
X143000000Y-130219485D01*
X143000000Y-130219485D02*
X142952380Y-130267104D01*
X110509580Y-125731666D02*
X110557200Y-125779285D01*
X110557200Y-125779285D02*
X110604819Y-125922142D01*
X110604819Y-125922142D02*
X110604819Y-126017380D01*
X110604819Y-126017380D02*
X110557200Y-126160237D01*
X110557200Y-126160237D02*
X110461961Y-126255475D01*
X110461961Y-126255475D02*
X110366723Y-126303094D01*
X110366723Y-126303094D02*
X110176247Y-126350713D01*
X110176247Y-126350713D02*
X110033390Y-126350713D01*
X110033390Y-126350713D02*
X109842914Y-126303094D01*
X109842914Y-126303094D02*
X109747676Y-126255475D01*
X109747676Y-126255475D02*
X109652438Y-126160237D01*
X109652438Y-126160237D02*
X109604819Y-126017380D01*
X109604819Y-126017380D02*
X109604819Y-125922142D01*
X109604819Y-125922142D02*
X109652438Y-125779285D01*
X109652438Y-125779285D02*
X109700057Y-125731666D01*
X109938152Y-124874523D02*
X110604819Y-124874523D01*
X109557200Y-125112618D02*
X110271485Y-125350713D01*
X110271485Y-125350713D02*
X110271485Y-124731666D01*
X62833333Y-135289819D02*
X62500000Y-134813628D01*
X62261905Y-135289819D02*
X62261905Y-134289819D01*
X62261905Y-134289819D02*
X62642857Y-134289819D01*
X62642857Y-134289819D02*
X62738095Y-134337438D01*
X62738095Y-134337438D02*
X62785714Y-134385057D01*
X62785714Y-134385057D02*
X62833333Y-134480295D01*
X62833333Y-134480295D02*
X62833333Y-134623152D01*
X62833333Y-134623152D02*
X62785714Y-134718390D01*
X62785714Y-134718390D02*
X62738095Y-134766009D01*
X62738095Y-134766009D02*
X62642857Y-134813628D01*
X62642857Y-134813628D02*
X62261905Y-134813628D01*
X63690476Y-134289819D02*
X63500000Y-134289819D01*
X63500000Y-134289819D02*
X63404762Y-134337438D01*
X63404762Y-134337438D02*
X63357143Y-134385057D01*
X63357143Y-134385057D02*
X63261905Y-134527914D01*
X63261905Y-134527914D02*
X63214286Y-134718390D01*
X63214286Y-134718390D02*
X63214286Y-135099342D01*
X63214286Y-135099342D02*
X63261905Y-135194580D01*
X63261905Y-135194580D02*
X63309524Y-135242200D01*
X63309524Y-135242200D02*
X63404762Y-135289819D01*
X63404762Y-135289819D02*
X63595238Y-135289819D01*
X63595238Y-135289819D02*
X63690476Y-135242200D01*
X63690476Y-135242200D02*
X63738095Y-135194580D01*
X63738095Y-135194580D02*
X63785714Y-135099342D01*
X63785714Y-135099342D02*
X63785714Y-134861247D01*
X63785714Y-134861247D02*
X63738095Y-134766009D01*
X63738095Y-134766009D02*
X63690476Y-134718390D01*
X63690476Y-134718390D02*
X63595238Y-134670771D01*
X63595238Y-134670771D02*
X63404762Y-134670771D01*
X63404762Y-134670771D02*
X63309524Y-134718390D01*
X63309524Y-134718390D02*
X63261905Y-134766009D01*
X63261905Y-134766009D02*
X63214286Y-134861247D01*
X150057257Y-72047028D02*
X150009638Y-72142266D01*
X150009638Y-72142266D02*
X149914400Y-72237504D01*
X149914400Y-72237504D02*
X149771542Y-72380361D01*
X149771542Y-72380361D02*
X149723923Y-72475599D01*
X149723923Y-72475599D02*
X149723923Y-72570837D01*
X149962019Y-72523218D02*
X149914400Y-72618456D01*
X149914400Y-72618456D02*
X149819161Y-72713694D01*
X149819161Y-72713694D02*
X149628685Y-72761313D01*
X149628685Y-72761313D02*
X149295352Y-72761313D01*
X149295352Y-72761313D02*
X149104876Y-72713694D01*
X149104876Y-72713694D02*
X149009638Y-72618456D01*
X149009638Y-72618456D02*
X148962019Y-72523218D01*
X148962019Y-72523218D02*
X148962019Y-72332742D01*
X148962019Y-72332742D02*
X149009638Y-72237504D01*
X149009638Y-72237504D02*
X149104876Y-72142266D01*
X149104876Y-72142266D02*
X149295352Y-72094647D01*
X149295352Y-72094647D02*
X149628685Y-72094647D01*
X149628685Y-72094647D02*
X149819161Y-72142266D01*
X149819161Y-72142266D02*
X149914400Y-72237504D01*
X149914400Y-72237504D02*
X149962019Y-72332742D01*
X149962019Y-72332742D02*
X149962019Y-72523218D01*
X149962019Y-71142266D02*
X149962019Y-71713694D01*
X149962019Y-71427980D02*
X148962019Y-71427980D01*
X148962019Y-71427980D02*
X149104876Y-71523218D01*
X149104876Y-71523218D02*
X149200114Y-71618456D01*
X149200114Y-71618456D02*
X149247733Y-71713694D01*
X148962019Y-70523218D02*
X148962019Y-70427980D01*
X148962019Y-70427980D02*
X149009638Y-70332742D01*
X149009638Y-70332742D02*
X149057257Y-70285123D01*
X149057257Y-70285123D02*
X149152495Y-70237504D01*
X149152495Y-70237504D02*
X149342971Y-70189885D01*
X149342971Y-70189885D02*
X149581066Y-70189885D01*
X149581066Y-70189885D02*
X149771542Y-70237504D01*
X149771542Y-70237504D02*
X149866780Y-70285123D01*
X149866780Y-70285123D02*
X149914400Y-70332742D01*
X149914400Y-70332742D02*
X149962019Y-70427980D01*
X149962019Y-70427980D02*
X149962019Y-70523218D01*
X149962019Y-70523218D02*
X149914400Y-70618456D01*
X149914400Y-70618456D02*
X149866780Y-70666075D01*
X149866780Y-70666075D02*
X149771542Y-70713694D01*
X149771542Y-70713694D02*
X149581066Y-70761313D01*
X149581066Y-70761313D02*
X149342971Y-70761313D01*
X149342971Y-70761313D02*
X149152495Y-70713694D01*
X149152495Y-70713694D02*
X149057257Y-70666075D01*
X149057257Y-70666075D02*
X149009638Y-70618456D01*
X149009638Y-70618456D02*
X148962019Y-70523218D01*
X68018819Y-70572238D02*
X67542628Y-70905571D01*
X68018819Y-71143666D02*
X67018819Y-71143666D01*
X67018819Y-71143666D02*
X67018819Y-70762714D01*
X67018819Y-70762714D02*
X67066438Y-70667476D01*
X67066438Y-70667476D02*
X67114057Y-70619857D01*
X67114057Y-70619857D02*
X67209295Y-70572238D01*
X67209295Y-70572238D02*
X67352152Y-70572238D01*
X67352152Y-70572238D02*
X67447390Y-70619857D01*
X67447390Y-70619857D02*
X67495009Y-70667476D01*
X67495009Y-70667476D02*
X67542628Y-70762714D01*
X67542628Y-70762714D02*
X67542628Y-71143666D01*
X67018819Y-70286523D02*
X68018819Y-69953190D01*
X68018819Y-69953190D02*
X67018819Y-69619857D01*
X68018819Y-68762714D02*
X68018819Y-69334142D01*
X68018819Y-69048428D02*
X67018819Y-69048428D01*
X67018819Y-69048428D02*
X67161676Y-69143666D01*
X67161676Y-69143666D02*
X67256914Y-69238904D01*
X67256914Y-69238904D02*
X67304533Y-69334142D01*
X166105180Y-103084867D02*
X166152800Y-103132486D01*
X166152800Y-103132486D02*
X166200419Y-103275343D01*
X166200419Y-103275343D02*
X166200419Y-103370581D01*
X166200419Y-103370581D02*
X166152800Y-103513438D01*
X166152800Y-103513438D02*
X166057561Y-103608676D01*
X166057561Y-103608676D02*
X165962323Y-103656295D01*
X165962323Y-103656295D02*
X165771847Y-103703914D01*
X165771847Y-103703914D02*
X165628990Y-103703914D01*
X165628990Y-103703914D02*
X165438514Y-103656295D01*
X165438514Y-103656295D02*
X165343276Y-103608676D01*
X165343276Y-103608676D02*
X165248038Y-103513438D01*
X165248038Y-103513438D02*
X165200419Y-103370581D01*
X165200419Y-103370581D02*
X165200419Y-103275343D01*
X165200419Y-103275343D02*
X165248038Y-103132486D01*
X165248038Y-103132486D02*
X165295657Y-103084867D01*
X165200419Y-102751533D02*
X165200419Y-102084867D01*
X165200419Y-102084867D02*
X166200419Y-102513438D01*
X133951742Y-74191019D02*
X133618409Y-73714828D01*
X133380314Y-74191019D02*
X133380314Y-73191019D01*
X133380314Y-73191019D02*
X133761266Y-73191019D01*
X133761266Y-73191019D02*
X133856504Y-73238638D01*
X133856504Y-73238638D02*
X133904123Y-73286257D01*
X133904123Y-73286257D02*
X133951742Y-73381495D01*
X133951742Y-73381495D02*
X133951742Y-73524352D01*
X133951742Y-73524352D02*
X133904123Y-73619590D01*
X133904123Y-73619590D02*
X133856504Y-73667209D01*
X133856504Y-73667209D02*
X133761266Y-73714828D01*
X133761266Y-73714828D02*
X133380314Y-73714828D01*
X134904123Y-74191019D02*
X134332695Y-74191019D01*
X134618409Y-74191019D02*
X134618409Y-73191019D01*
X134618409Y-73191019D02*
X134523171Y-73333876D01*
X134523171Y-73333876D02*
X134427933Y-73429114D01*
X134427933Y-73429114D02*
X134332695Y-73476733D01*
X135761266Y-73191019D02*
X135570790Y-73191019D01*
X135570790Y-73191019D02*
X135475552Y-73238638D01*
X135475552Y-73238638D02*
X135427933Y-73286257D01*
X135427933Y-73286257D02*
X135332695Y-73429114D01*
X135332695Y-73429114D02*
X135285076Y-73619590D01*
X135285076Y-73619590D02*
X135285076Y-74000542D01*
X135285076Y-74000542D02*
X135332695Y-74095780D01*
X135332695Y-74095780D02*
X135380314Y-74143400D01*
X135380314Y-74143400D02*
X135475552Y-74191019D01*
X135475552Y-74191019D02*
X135666028Y-74191019D01*
X135666028Y-74191019D02*
X135761266Y-74143400D01*
X135761266Y-74143400D02*
X135808885Y-74095780D01*
X135808885Y-74095780D02*
X135856504Y-74000542D01*
X135856504Y-74000542D02*
X135856504Y-73762447D01*
X135856504Y-73762447D02*
X135808885Y-73667209D01*
X135808885Y-73667209D02*
X135761266Y-73619590D01*
X135761266Y-73619590D02*
X135666028Y-73571971D01*
X135666028Y-73571971D02*
X135475552Y-73571971D01*
X135475552Y-73571971D02*
X135380314Y-73619590D01*
X135380314Y-73619590D02*
X135332695Y-73667209D01*
X135332695Y-73667209D02*
X135285076Y-73762447D01*
X80284819Y-118233094D02*
X79284819Y-118233094D01*
X79284819Y-118233094D02*
X79284819Y-117994999D01*
X79284819Y-117994999D02*
X79332438Y-117852142D01*
X79332438Y-117852142D02*
X79427676Y-117756904D01*
X79427676Y-117756904D02*
X79522914Y-117709285D01*
X79522914Y-117709285D02*
X79713390Y-117661666D01*
X79713390Y-117661666D02*
X79856247Y-117661666D01*
X79856247Y-117661666D02*
X80046723Y-117709285D01*
X80046723Y-117709285D02*
X80141961Y-117756904D01*
X80141961Y-117756904D02*
X80237200Y-117852142D01*
X80237200Y-117852142D02*
X80284819Y-117994999D01*
X80284819Y-117994999D02*
X80284819Y-118233094D01*
X80284819Y-116709285D02*
X80284819Y-117280713D01*
X80284819Y-116994999D02*
X79284819Y-116994999D01*
X79284819Y-116994999D02*
X79427676Y-117090237D01*
X79427676Y-117090237D02*
X79522914Y-117185475D01*
X79522914Y-117185475D02*
X79570533Y-117280713D01*
X80654819Y-122836904D02*
X79654819Y-122836904D01*
X80654819Y-122265476D02*
X80083390Y-122694047D01*
X79654819Y-122265476D02*
X80226247Y-122836904D01*
X120033333Y-129989819D02*
X119700000Y-129513628D01*
X119461905Y-129989819D02*
X119461905Y-128989819D01*
X119461905Y-128989819D02*
X119842857Y-128989819D01*
X119842857Y-128989819D02*
X119938095Y-129037438D01*
X119938095Y-129037438D02*
X119985714Y-129085057D01*
X119985714Y-129085057D02*
X120033333Y-129180295D01*
X120033333Y-129180295D02*
X120033333Y-129323152D01*
X120033333Y-129323152D02*
X119985714Y-129418390D01*
X119985714Y-129418390D02*
X119938095Y-129466009D01*
X119938095Y-129466009D02*
X119842857Y-129513628D01*
X119842857Y-129513628D02*
X119461905Y-129513628D01*
X120509524Y-129989819D02*
X120700000Y-129989819D01*
X120700000Y-129989819D02*
X120795238Y-129942200D01*
X120795238Y-129942200D02*
X120842857Y-129894580D01*
X120842857Y-129894580D02*
X120938095Y-129751723D01*
X120938095Y-129751723D02*
X120985714Y-129561247D01*
X120985714Y-129561247D02*
X120985714Y-129180295D01*
X120985714Y-129180295D02*
X120938095Y-129085057D01*
X120938095Y-129085057D02*
X120890476Y-129037438D01*
X120890476Y-129037438D02*
X120795238Y-128989819D01*
X120795238Y-128989819D02*
X120604762Y-128989819D01*
X120604762Y-128989819D02*
X120509524Y-129037438D01*
X120509524Y-129037438D02*
X120461905Y-129085057D01*
X120461905Y-129085057D02*
X120414286Y-129180295D01*
X120414286Y-129180295D02*
X120414286Y-129418390D01*
X120414286Y-129418390D02*
X120461905Y-129513628D01*
X120461905Y-129513628D02*
X120509524Y-129561247D01*
X120509524Y-129561247D02*
X120604762Y-129608866D01*
X120604762Y-129608866D02*
X120795238Y-129608866D01*
X120795238Y-129608866D02*
X120890476Y-129561247D01*
X120890476Y-129561247D02*
X120938095Y-129513628D01*
X120938095Y-129513628D02*
X120985714Y-129418390D01*
X171158819Y-101298333D02*
X171873104Y-101298333D01*
X171873104Y-101298333D02*
X172015961Y-101345952D01*
X172015961Y-101345952D02*
X172111200Y-101441190D01*
X172111200Y-101441190D02*
X172158819Y-101584047D01*
X172158819Y-101584047D02*
X172158819Y-101679285D01*
X172158819Y-100298333D02*
X172158819Y-100869761D01*
X172158819Y-100584047D02*
X171158819Y-100584047D01*
X171158819Y-100584047D02*
X171301676Y-100679285D01*
X171301676Y-100679285D02*
X171396914Y-100774523D01*
X171396914Y-100774523D02*
X171444533Y-100869761D01*
X109632761Y-83735057D02*
X109537523Y-83687438D01*
X109537523Y-83687438D02*
X109442285Y-83592200D01*
X109442285Y-83592200D02*
X109299428Y-83449342D01*
X109299428Y-83449342D02*
X109204190Y-83401723D01*
X109204190Y-83401723D02*
X109108952Y-83401723D01*
X109156571Y-83639819D02*
X109061333Y-83592200D01*
X109061333Y-83592200D02*
X108966095Y-83496961D01*
X108966095Y-83496961D02*
X108918476Y-83306485D01*
X108918476Y-83306485D02*
X108918476Y-82973152D01*
X108918476Y-82973152D02*
X108966095Y-82782676D01*
X108966095Y-82782676D02*
X109061333Y-82687438D01*
X109061333Y-82687438D02*
X109156571Y-82639819D01*
X109156571Y-82639819D02*
X109347047Y-82639819D01*
X109347047Y-82639819D02*
X109442285Y-82687438D01*
X109442285Y-82687438D02*
X109537523Y-82782676D01*
X109537523Y-82782676D02*
X109585142Y-82973152D01*
X109585142Y-82973152D02*
X109585142Y-83306485D01*
X109585142Y-83306485D02*
X109537523Y-83496961D01*
X109537523Y-83496961D02*
X109442285Y-83592200D01*
X109442285Y-83592200D02*
X109347047Y-83639819D01*
X109347047Y-83639819D02*
X109156571Y-83639819D01*
X110156571Y-83068390D02*
X110061333Y-83020771D01*
X110061333Y-83020771D02*
X110013714Y-82973152D01*
X110013714Y-82973152D02*
X109966095Y-82877914D01*
X109966095Y-82877914D02*
X109966095Y-82830295D01*
X109966095Y-82830295D02*
X110013714Y-82735057D01*
X110013714Y-82735057D02*
X110061333Y-82687438D01*
X110061333Y-82687438D02*
X110156571Y-82639819D01*
X110156571Y-82639819D02*
X110347047Y-82639819D01*
X110347047Y-82639819D02*
X110442285Y-82687438D01*
X110442285Y-82687438D02*
X110489904Y-82735057D01*
X110489904Y-82735057D02*
X110537523Y-82830295D01*
X110537523Y-82830295D02*
X110537523Y-82877914D01*
X110537523Y-82877914D02*
X110489904Y-82973152D01*
X110489904Y-82973152D02*
X110442285Y-83020771D01*
X110442285Y-83020771D02*
X110347047Y-83068390D01*
X110347047Y-83068390D02*
X110156571Y-83068390D01*
X110156571Y-83068390D02*
X110061333Y-83116009D01*
X110061333Y-83116009D02*
X110013714Y-83163628D01*
X110013714Y-83163628D02*
X109966095Y-83258866D01*
X109966095Y-83258866D02*
X109966095Y-83449342D01*
X109966095Y-83449342D02*
X110013714Y-83544580D01*
X110013714Y-83544580D02*
X110061333Y-83592200D01*
X110061333Y-83592200D02*
X110156571Y-83639819D01*
X110156571Y-83639819D02*
X110347047Y-83639819D01*
X110347047Y-83639819D02*
X110442285Y-83592200D01*
X110442285Y-83592200D02*
X110489904Y-83544580D01*
X110489904Y-83544580D02*
X110537523Y-83449342D01*
X110537523Y-83449342D02*
X110537523Y-83258866D01*
X110537523Y-83258866D02*
X110489904Y-83163628D01*
X110489904Y-83163628D02*
X110442285Y-83116009D01*
X110442285Y-83116009D02*
X110347047Y-83068390D01*
X119684819Y-73607857D02*
X119208628Y-73941190D01*
X119684819Y-74179285D02*
X118684819Y-74179285D01*
X118684819Y-74179285D02*
X118684819Y-73798333D01*
X118684819Y-73798333D02*
X118732438Y-73703095D01*
X118732438Y-73703095D02*
X118780057Y-73655476D01*
X118780057Y-73655476D02*
X118875295Y-73607857D01*
X118875295Y-73607857D02*
X119018152Y-73607857D01*
X119018152Y-73607857D02*
X119113390Y-73655476D01*
X119113390Y-73655476D02*
X119161009Y-73703095D01*
X119161009Y-73703095D02*
X119208628Y-73798333D01*
X119208628Y-73798333D02*
X119208628Y-74179285D01*
X119684819Y-72655476D02*
X119684819Y-73226904D01*
X119684819Y-72941190D02*
X118684819Y-72941190D01*
X118684819Y-72941190D02*
X118827676Y-73036428D01*
X118827676Y-73036428D02*
X118922914Y-73131666D01*
X118922914Y-73131666D02*
X118970533Y-73226904D01*
X119113390Y-72084047D02*
X119065771Y-72179285D01*
X119065771Y-72179285D02*
X119018152Y-72226904D01*
X119018152Y-72226904D02*
X118922914Y-72274523D01*
X118922914Y-72274523D02*
X118875295Y-72274523D01*
X118875295Y-72274523D02*
X118780057Y-72226904D01*
X118780057Y-72226904D02*
X118732438Y-72179285D01*
X118732438Y-72179285D02*
X118684819Y-72084047D01*
X118684819Y-72084047D02*
X118684819Y-71893571D01*
X118684819Y-71893571D02*
X118732438Y-71798333D01*
X118732438Y-71798333D02*
X118780057Y-71750714D01*
X118780057Y-71750714D02*
X118875295Y-71703095D01*
X118875295Y-71703095D02*
X118922914Y-71703095D01*
X118922914Y-71703095D02*
X119018152Y-71750714D01*
X119018152Y-71750714D02*
X119065771Y-71798333D01*
X119065771Y-71798333D02*
X119113390Y-71893571D01*
X119113390Y-71893571D02*
X119113390Y-72084047D01*
X119113390Y-72084047D02*
X119161009Y-72179285D01*
X119161009Y-72179285D02*
X119208628Y-72226904D01*
X119208628Y-72226904D02*
X119303866Y-72274523D01*
X119303866Y-72274523D02*
X119494342Y-72274523D01*
X119494342Y-72274523D02*
X119589580Y-72226904D01*
X119589580Y-72226904D02*
X119637200Y-72179285D01*
X119637200Y-72179285D02*
X119684819Y-72084047D01*
X119684819Y-72084047D02*
X119684819Y-71893571D01*
X119684819Y-71893571D02*
X119637200Y-71798333D01*
X119637200Y-71798333D02*
X119589580Y-71750714D01*
X119589580Y-71750714D02*
X119494342Y-71703095D01*
X119494342Y-71703095D02*
X119303866Y-71703095D01*
X119303866Y-71703095D02*
X119208628Y-71750714D01*
X119208628Y-71750714D02*
X119161009Y-71798333D01*
X119161009Y-71798333D02*
X119113390Y-71893571D01*
X68526819Y-117816238D02*
X68050628Y-118149571D01*
X68526819Y-118387666D02*
X67526819Y-118387666D01*
X67526819Y-118387666D02*
X67526819Y-118006714D01*
X67526819Y-118006714D02*
X67574438Y-117911476D01*
X67574438Y-117911476D02*
X67622057Y-117863857D01*
X67622057Y-117863857D02*
X67717295Y-117816238D01*
X67717295Y-117816238D02*
X67860152Y-117816238D01*
X67860152Y-117816238D02*
X67955390Y-117863857D01*
X67955390Y-117863857D02*
X68003009Y-117911476D01*
X68003009Y-117911476D02*
X68050628Y-118006714D01*
X68050628Y-118006714D02*
X68050628Y-118387666D01*
X67526819Y-117530523D02*
X68526819Y-117197190D01*
X68526819Y-117197190D02*
X67526819Y-116863857D01*
X67622057Y-116578142D02*
X67574438Y-116530523D01*
X67574438Y-116530523D02*
X67526819Y-116435285D01*
X67526819Y-116435285D02*
X67526819Y-116197190D01*
X67526819Y-116197190D02*
X67574438Y-116101952D01*
X67574438Y-116101952D02*
X67622057Y-116054333D01*
X67622057Y-116054333D02*
X67717295Y-116006714D01*
X67717295Y-116006714D02*
X67812533Y-116006714D01*
X67812533Y-116006714D02*
X67955390Y-116054333D01*
X67955390Y-116054333D02*
X68526819Y-116625761D01*
X68526819Y-116625761D02*
X68526819Y-116006714D01*
X100762057Y-109188238D02*
X100714438Y-109283476D01*
X100714438Y-109283476D02*
X100619200Y-109378714D01*
X100619200Y-109378714D02*
X100476342Y-109521571D01*
X100476342Y-109521571D02*
X100428723Y-109616809D01*
X100428723Y-109616809D02*
X100428723Y-109712047D01*
X100666819Y-109664428D02*
X100619200Y-109759666D01*
X100619200Y-109759666D02*
X100523961Y-109854904D01*
X100523961Y-109854904D02*
X100333485Y-109902523D01*
X100333485Y-109902523D02*
X100000152Y-109902523D01*
X100000152Y-109902523D02*
X99809676Y-109854904D01*
X99809676Y-109854904D02*
X99714438Y-109759666D01*
X99714438Y-109759666D02*
X99666819Y-109664428D01*
X99666819Y-109664428D02*
X99666819Y-109473952D01*
X99666819Y-109473952D02*
X99714438Y-109378714D01*
X99714438Y-109378714D02*
X99809676Y-109283476D01*
X99809676Y-109283476D02*
X100000152Y-109235857D01*
X100000152Y-109235857D02*
X100333485Y-109235857D01*
X100333485Y-109235857D02*
X100523961Y-109283476D01*
X100523961Y-109283476D02*
X100619200Y-109378714D01*
X100619200Y-109378714D02*
X100666819Y-109473952D01*
X100666819Y-109473952D02*
X100666819Y-109664428D01*
X100666819Y-108283476D02*
X100666819Y-108854904D01*
X100666819Y-108569190D02*
X99666819Y-108569190D01*
X99666819Y-108569190D02*
X99809676Y-108664428D01*
X99809676Y-108664428D02*
X99904914Y-108759666D01*
X99904914Y-108759666D02*
X99952533Y-108854904D01*
X133593819Y-82583257D02*
X133117628Y-82916590D01*
X133593819Y-83154685D02*
X132593819Y-83154685D01*
X132593819Y-83154685D02*
X132593819Y-82773733D01*
X132593819Y-82773733D02*
X132641438Y-82678495D01*
X132641438Y-82678495D02*
X132689057Y-82630876D01*
X132689057Y-82630876D02*
X132784295Y-82583257D01*
X132784295Y-82583257D02*
X132927152Y-82583257D01*
X132927152Y-82583257D02*
X133022390Y-82630876D01*
X133022390Y-82630876D02*
X133070009Y-82678495D01*
X133070009Y-82678495D02*
X133117628Y-82773733D01*
X133117628Y-82773733D02*
X133117628Y-83154685D01*
X133593819Y-81630876D02*
X133593819Y-82202304D01*
X133593819Y-81916590D02*
X132593819Y-81916590D01*
X132593819Y-81916590D02*
X132736676Y-82011828D01*
X132736676Y-82011828D02*
X132831914Y-82107066D01*
X132831914Y-82107066D02*
X132879533Y-82202304D01*
X132593819Y-81297542D02*
X132593819Y-80630876D01*
X132593819Y-80630876D02*
X133593819Y-81059447D01*
X157203895Y-78001619D02*
X157775323Y-78001619D01*
X157489609Y-79001619D02*
X157489609Y-78001619D01*
X158108657Y-79001619D02*
X158108657Y-78001619D01*
X158108657Y-78001619D02*
X158489609Y-78001619D01*
X158489609Y-78001619D02*
X158584847Y-78049238D01*
X158584847Y-78049238D02*
X158632466Y-78096857D01*
X158632466Y-78096857D02*
X158680085Y-78192095D01*
X158680085Y-78192095D02*
X158680085Y-78334952D01*
X158680085Y-78334952D02*
X158632466Y-78430190D01*
X158632466Y-78430190D02*
X158584847Y-78477809D01*
X158584847Y-78477809D02*
X158489609Y-78525428D01*
X158489609Y-78525428D02*
X158108657Y-78525428D01*
X159061038Y-78096857D02*
X159108657Y-78049238D01*
X159108657Y-78049238D02*
X159203895Y-78001619D01*
X159203895Y-78001619D02*
X159441990Y-78001619D01*
X159441990Y-78001619D02*
X159537228Y-78049238D01*
X159537228Y-78049238D02*
X159584847Y-78096857D01*
X159584847Y-78096857D02*
X159632466Y-78192095D01*
X159632466Y-78192095D02*
X159632466Y-78287333D01*
X159632466Y-78287333D02*
X159584847Y-78430190D01*
X159584847Y-78430190D02*
X159013419Y-79001619D01*
X159013419Y-79001619D02*
X159632466Y-79001619D01*
X92710619Y-110421466D02*
X92234428Y-110754799D01*
X92710619Y-110992894D02*
X91710619Y-110992894D01*
X91710619Y-110992894D02*
X91710619Y-110611942D01*
X91710619Y-110611942D02*
X91758238Y-110516704D01*
X91758238Y-110516704D02*
X91805857Y-110469085D01*
X91805857Y-110469085D02*
X91901095Y-110421466D01*
X91901095Y-110421466D02*
X92043952Y-110421466D01*
X92043952Y-110421466D02*
X92139190Y-110469085D01*
X92139190Y-110469085D02*
X92186809Y-110516704D01*
X92186809Y-110516704D02*
X92234428Y-110611942D01*
X92234428Y-110611942D02*
X92234428Y-110992894D01*
X92710619Y-109469085D02*
X92710619Y-110040513D01*
X92710619Y-109754799D02*
X91710619Y-109754799D01*
X91710619Y-109754799D02*
X91853476Y-109850037D01*
X91853476Y-109850037D02*
X91948714Y-109945275D01*
X91948714Y-109945275D02*
X91996333Y-110040513D01*
X113960057Y-95990238D02*
X113912438Y-96085476D01*
X113912438Y-96085476D02*
X113817200Y-96180714D01*
X113817200Y-96180714D02*
X113674342Y-96323571D01*
X113674342Y-96323571D02*
X113626723Y-96418809D01*
X113626723Y-96418809D02*
X113626723Y-96514047D01*
X113864819Y-96466428D02*
X113817200Y-96561666D01*
X113817200Y-96561666D02*
X113721961Y-96656904D01*
X113721961Y-96656904D02*
X113531485Y-96704523D01*
X113531485Y-96704523D02*
X113198152Y-96704523D01*
X113198152Y-96704523D02*
X113007676Y-96656904D01*
X113007676Y-96656904D02*
X112912438Y-96561666D01*
X112912438Y-96561666D02*
X112864819Y-96466428D01*
X112864819Y-96466428D02*
X112864819Y-96275952D01*
X112864819Y-96275952D02*
X112912438Y-96180714D01*
X112912438Y-96180714D02*
X113007676Y-96085476D01*
X113007676Y-96085476D02*
X113198152Y-96037857D01*
X113198152Y-96037857D02*
X113531485Y-96037857D01*
X113531485Y-96037857D02*
X113721961Y-96085476D01*
X113721961Y-96085476D02*
X113817200Y-96180714D01*
X113817200Y-96180714D02*
X113864819Y-96275952D01*
X113864819Y-96275952D02*
X113864819Y-96466428D01*
X112864819Y-95704523D02*
X112864819Y-95037857D01*
X112864819Y-95037857D02*
X113864819Y-95466428D01*
X43142819Y-117046333D02*
X43857104Y-117046333D01*
X43857104Y-117046333D02*
X43999961Y-117093952D01*
X43999961Y-117093952D02*
X44095200Y-117189190D01*
X44095200Y-117189190D02*
X44142819Y-117332047D01*
X44142819Y-117332047D02*
X44142819Y-117427285D01*
X43238057Y-116617761D02*
X43190438Y-116570142D01*
X43190438Y-116570142D02*
X43142819Y-116474904D01*
X43142819Y-116474904D02*
X43142819Y-116236809D01*
X43142819Y-116236809D02*
X43190438Y-116141571D01*
X43190438Y-116141571D02*
X43238057Y-116093952D01*
X43238057Y-116093952D02*
X43333295Y-116046333D01*
X43333295Y-116046333D02*
X43428533Y-116046333D01*
X43428533Y-116046333D02*
X43571390Y-116093952D01*
X43571390Y-116093952D02*
X44142819Y-116665380D01*
X44142819Y-116665380D02*
X44142819Y-116046333D01*
X88324819Y-74373094D02*
X87324819Y-74373094D01*
X87324819Y-74373094D02*
X87324819Y-74134999D01*
X87324819Y-74134999D02*
X87372438Y-73992142D01*
X87372438Y-73992142D02*
X87467676Y-73896904D01*
X87467676Y-73896904D02*
X87562914Y-73849285D01*
X87562914Y-73849285D02*
X87753390Y-73801666D01*
X87753390Y-73801666D02*
X87896247Y-73801666D01*
X87896247Y-73801666D02*
X88086723Y-73849285D01*
X88086723Y-73849285D02*
X88181961Y-73896904D01*
X88181961Y-73896904D02*
X88277200Y-73992142D01*
X88277200Y-73992142D02*
X88324819Y-74134999D01*
X88324819Y-74134999D02*
X88324819Y-74373094D01*
X87658152Y-72944523D02*
X88324819Y-72944523D01*
X87277200Y-73182618D02*
X87991485Y-73420713D01*
X87991485Y-73420713D02*
X87991485Y-72801666D01*
X87954819Y-68816904D02*
X86954819Y-68816904D01*
X87954819Y-68245476D02*
X87383390Y-68674047D01*
X86954819Y-68245476D02*
X87526247Y-68816904D01*
X96562057Y-128492238D02*
X96514438Y-128587476D01*
X96514438Y-128587476D02*
X96419200Y-128682714D01*
X96419200Y-128682714D02*
X96276342Y-128825571D01*
X96276342Y-128825571D02*
X96228723Y-128920809D01*
X96228723Y-128920809D02*
X96228723Y-129016047D01*
X96466819Y-128968428D02*
X96419200Y-129063666D01*
X96419200Y-129063666D02*
X96323961Y-129158904D01*
X96323961Y-129158904D02*
X96133485Y-129206523D01*
X96133485Y-129206523D02*
X95800152Y-129206523D01*
X95800152Y-129206523D02*
X95609676Y-129158904D01*
X95609676Y-129158904D02*
X95514438Y-129063666D01*
X95514438Y-129063666D02*
X95466819Y-128968428D01*
X95466819Y-128968428D02*
X95466819Y-128777952D01*
X95466819Y-128777952D02*
X95514438Y-128682714D01*
X95514438Y-128682714D02*
X95609676Y-128587476D01*
X95609676Y-128587476D02*
X95800152Y-128539857D01*
X95800152Y-128539857D02*
X96133485Y-128539857D01*
X96133485Y-128539857D02*
X96323961Y-128587476D01*
X96323961Y-128587476D02*
X96419200Y-128682714D01*
X96419200Y-128682714D02*
X96466819Y-128777952D01*
X96466819Y-128777952D02*
X96466819Y-128968428D01*
X95466819Y-128206523D02*
X95466819Y-127587476D01*
X95466819Y-127587476D02*
X95847771Y-127920809D01*
X95847771Y-127920809D02*
X95847771Y-127777952D01*
X95847771Y-127777952D02*
X95895390Y-127682714D01*
X95895390Y-127682714D02*
X95943009Y-127635095D01*
X95943009Y-127635095D02*
X96038247Y-127587476D01*
X96038247Y-127587476D02*
X96276342Y-127587476D01*
X96276342Y-127587476D02*
X96371580Y-127635095D01*
X96371580Y-127635095D02*
X96419200Y-127682714D01*
X96419200Y-127682714D02*
X96466819Y-127777952D01*
X96466819Y-127777952D02*
X96466819Y-128063666D01*
X96466819Y-128063666D02*
X96419200Y-128158904D01*
X96419200Y-128158904D02*
X96371580Y-128206523D01*
X168959374Y-73924580D02*
X168911755Y-73972200D01*
X168911755Y-73972200D02*
X168768898Y-74019819D01*
X168768898Y-74019819D02*
X168673660Y-74019819D01*
X168673660Y-74019819D02*
X168530803Y-73972200D01*
X168530803Y-73972200D02*
X168435565Y-73876961D01*
X168435565Y-73876961D02*
X168387946Y-73781723D01*
X168387946Y-73781723D02*
X168340327Y-73591247D01*
X168340327Y-73591247D02*
X168340327Y-73448390D01*
X168340327Y-73448390D02*
X168387946Y-73257914D01*
X168387946Y-73257914D02*
X168435565Y-73162676D01*
X168435565Y-73162676D02*
X168530803Y-73067438D01*
X168530803Y-73067438D02*
X168673660Y-73019819D01*
X168673660Y-73019819D02*
X168768898Y-73019819D01*
X168768898Y-73019819D02*
X168911755Y-73067438D01*
X168911755Y-73067438D02*
X168959374Y-73115057D01*
X169530803Y-73448390D02*
X169435565Y-73400771D01*
X169435565Y-73400771D02*
X169387946Y-73353152D01*
X169387946Y-73353152D02*
X169340327Y-73257914D01*
X169340327Y-73257914D02*
X169340327Y-73210295D01*
X169340327Y-73210295D02*
X169387946Y-73115057D01*
X169387946Y-73115057D02*
X169435565Y-73067438D01*
X169435565Y-73067438D02*
X169530803Y-73019819D01*
X169530803Y-73019819D02*
X169721279Y-73019819D01*
X169721279Y-73019819D02*
X169816517Y-73067438D01*
X169816517Y-73067438D02*
X169864136Y-73115057D01*
X169864136Y-73115057D02*
X169911755Y-73210295D01*
X169911755Y-73210295D02*
X169911755Y-73257914D01*
X169911755Y-73257914D02*
X169864136Y-73353152D01*
X169864136Y-73353152D02*
X169816517Y-73400771D01*
X169816517Y-73400771D02*
X169721279Y-73448390D01*
X169721279Y-73448390D02*
X169530803Y-73448390D01*
X169530803Y-73448390D02*
X169435565Y-73496009D01*
X169435565Y-73496009D02*
X169387946Y-73543628D01*
X169387946Y-73543628D02*
X169340327Y-73638866D01*
X169340327Y-73638866D02*
X169340327Y-73829342D01*
X169340327Y-73829342D02*
X169387946Y-73924580D01*
X169387946Y-73924580D02*
X169435565Y-73972200D01*
X169435565Y-73972200D02*
X169530803Y-74019819D01*
X169530803Y-74019819D02*
X169721279Y-74019819D01*
X169721279Y-74019819D02*
X169816517Y-73972200D01*
X169816517Y-73972200D02*
X169864136Y-73924580D01*
X169864136Y-73924580D02*
X169911755Y-73829342D01*
X169911755Y-73829342D02*
X169911755Y-73638866D01*
X169911755Y-73638866D02*
X169864136Y-73543628D01*
X169864136Y-73543628D02*
X169816517Y-73496009D01*
X169816517Y-73496009D02*
X169721279Y-73448390D01*
X112818057Y-120872238D02*
X112770438Y-120967476D01*
X112770438Y-120967476D02*
X112675200Y-121062714D01*
X112675200Y-121062714D02*
X112532342Y-121205571D01*
X112532342Y-121205571D02*
X112484723Y-121300809D01*
X112484723Y-121300809D02*
X112484723Y-121396047D01*
X112722819Y-121348428D02*
X112675200Y-121443666D01*
X112675200Y-121443666D02*
X112579961Y-121538904D01*
X112579961Y-121538904D02*
X112389485Y-121586523D01*
X112389485Y-121586523D02*
X112056152Y-121586523D01*
X112056152Y-121586523D02*
X111865676Y-121538904D01*
X111865676Y-121538904D02*
X111770438Y-121443666D01*
X111770438Y-121443666D02*
X111722819Y-121348428D01*
X111722819Y-121348428D02*
X111722819Y-121157952D01*
X111722819Y-121157952D02*
X111770438Y-121062714D01*
X111770438Y-121062714D02*
X111865676Y-120967476D01*
X111865676Y-120967476D02*
X112056152Y-120919857D01*
X112056152Y-120919857D02*
X112389485Y-120919857D01*
X112389485Y-120919857D02*
X112579961Y-120967476D01*
X112579961Y-120967476D02*
X112675200Y-121062714D01*
X112675200Y-121062714D02*
X112722819Y-121157952D01*
X112722819Y-121157952D02*
X112722819Y-121348428D01*
X112056152Y-120062714D02*
X112722819Y-120062714D01*
X111675200Y-120300809D02*
X112389485Y-120538904D01*
X112389485Y-120538904D02*
X112389485Y-119919857D01*
X94376219Y-100718857D02*
X93900028Y-101052190D01*
X94376219Y-101290285D02*
X93376219Y-101290285D01*
X93376219Y-101290285D02*
X93376219Y-100909333D01*
X93376219Y-100909333D02*
X93423838Y-100814095D01*
X93423838Y-100814095D02*
X93471457Y-100766476D01*
X93471457Y-100766476D02*
X93566695Y-100718857D01*
X93566695Y-100718857D02*
X93709552Y-100718857D01*
X93709552Y-100718857D02*
X93804790Y-100766476D01*
X93804790Y-100766476D02*
X93852409Y-100814095D01*
X93852409Y-100814095D02*
X93900028Y-100909333D01*
X93900028Y-100909333D02*
X93900028Y-101290285D01*
X94376219Y-99766476D02*
X94376219Y-100337904D01*
X94376219Y-100052190D02*
X93376219Y-100052190D01*
X93376219Y-100052190D02*
X93519076Y-100147428D01*
X93519076Y-100147428D02*
X93614314Y-100242666D01*
X93614314Y-100242666D02*
X93661933Y-100337904D01*
X93376219Y-99433142D02*
X93376219Y-98814095D01*
X93376219Y-98814095D02*
X93757171Y-99147428D01*
X93757171Y-99147428D02*
X93757171Y-99004571D01*
X93757171Y-99004571D02*
X93804790Y-98909333D01*
X93804790Y-98909333D02*
X93852409Y-98861714D01*
X93852409Y-98861714D02*
X93947647Y-98814095D01*
X93947647Y-98814095D02*
X94185742Y-98814095D01*
X94185742Y-98814095D02*
X94280980Y-98861714D01*
X94280980Y-98861714D02*
X94328600Y-98909333D01*
X94328600Y-98909333D02*
X94376219Y-99004571D01*
X94376219Y-99004571D02*
X94376219Y-99290285D01*
X94376219Y-99290285D02*
X94328600Y-99385523D01*
X94328600Y-99385523D02*
X94280980Y-99433142D01*
X132715619Y-128836466D02*
X132239428Y-129169799D01*
X132715619Y-129407894D02*
X131715619Y-129407894D01*
X131715619Y-129407894D02*
X131715619Y-129026942D01*
X131715619Y-129026942D02*
X131763238Y-128931704D01*
X131763238Y-128931704D02*
X131810857Y-128884085D01*
X131810857Y-128884085D02*
X131906095Y-128836466D01*
X131906095Y-128836466D02*
X132048952Y-128836466D01*
X132048952Y-128836466D02*
X132144190Y-128884085D01*
X132144190Y-128884085D02*
X132191809Y-128931704D01*
X132191809Y-128931704D02*
X132239428Y-129026942D01*
X132239428Y-129026942D02*
X132239428Y-129407894D01*
X131715619Y-127931704D02*
X131715619Y-128407894D01*
X131715619Y-128407894D02*
X132191809Y-128455513D01*
X132191809Y-128455513D02*
X132144190Y-128407894D01*
X132144190Y-128407894D02*
X132096571Y-128312656D01*
X132096571Y-128312656D02*
X132096571Y-128074561D01*
X132096571Y-128074561D02*
X132144190Y-127979323D01*
X132144190Y-127979323D02*
X132191809Y-127931704D01*
X132191809Y-127931704D02*
X132287047Y-127884085D01*
X132287047Y-127884085D02*
X132525142Y-127884085D01*
X132525142Y-127884085D02*
X132620380Y-127931704D01*
X132620380Y-127931704D02*
X132668000Y-127979323D01*
X132668000Y-127979323D02*
X132715619Y-128074561D01*
X132715619Y-128074561D02*
X132715619Y-128312656D01*
X132715619Y-128312656D02*
X132668000Y-128407894D01*
X132668000Y-128407894D02*
X132620380Y-128455513D01*
X97974133Y-121334619D02*
X97640800Y-120858428D01*
X97402705Y-121334619D02*
X97402705Y-120334619D01*
X97402705Y-120334619D02*
X97783657Y-120334619D01*
X97783657Y-120334619D02*
X97878895Y-120382238D01*
X97878895Y-120382238D02*
X97926514Y-120429857D01*
X97926514Y-120429857D02*
X97974133Y-120525095D01*
X97974133Y-120525095D02*
X97974133Y-120667952D01*
X97974133Y-120667952D02*
X97926514Y-120763190D01*
X97926514Y-120763190D02*
X97878895Y-120810809D01*
X97878895Y-120810809D02*
X97783657Y-120858428D01*
X97783657Y-120858428D02*
X97402705Y-120858428D01*
X98831276Y-120667952D02*
X98831276Y-121334619D01*
X98593181Y-120287000D02*
X98355086Y-121001285D01*
X98355086Y-121001285D02*
X98974133Y-121001285D01*
X87484819Y-128533094D02*
X86484819Y-128533094D01*
X86484819Y-128533094D02*
X86484819Y-128294999D01*
X86484819Y-128294999D02*
X86532438Y-128152142D01*
X86532438Y-128152142D02*
X86627676Y-128056904D01*
X86627676Y-128056904D02*
X86722914Y-128009285D01*
X86722914Y-128009285D02*
X86913390Y-127961666D01*
X86913390Y-127961666D02*
X87056247Y-127961666D01*
X87056247Y-127961666D02*
X87246723Y-128009285D01*
X87246723Y-128009285D02*
X87341961Y-128056904D01*
X87341961Y-128056904D02*
X87437200Y-128152142D01*
X87437200Y-128152142D02*
X87484819Y-128294999D01*
X87484819Y-128294999D02*
X87484819Y-128533094D01*
X86580057Y-127580713D02*
X86532438Y-127533094D01*
X86532438Y-127533094D02*
X86484819Y-127437856D01*
X86484819Y-127437856D02*
X86484819Y-127199761D01*
X86484819Y-127199761D02*
X86532438Y-127104523D01*
X86532438Y-127104523D02*
X86580057Y-127056904D01*
X86580057Y-127056904D02*
X86675295Y-127009285D01*
X86675295Y-127009285D02*
X86770533Y-127009285D01*
X86770533Y-127009285D02*
X86913390Y-127056904D01*
X86913390Y-127056904D02*
X87484819Y-127628332D01*
X87484819Y-127628332D02*
X87484819Y-127009285D01*
X87854819Y-133136904D02*
X86854819Y-133136904D01*
X87854819Y-132565476D02*
X87283390Y-132994047D01*
X86854819Y-132565476D02*
X87426247Y-133136904D01*
X145550057Y-91060238D02*
X145502438Y-91155476D01*
X145502438Y-91155476D02*
X145407200Y-91250714D01*
X145407200Y-91250714D02*
X145264342Y-91393571D01*
X145264342Y-91393571D02*
X145216723Y-91488809D01*
X145216723Y-91488809D02*
X145216723Y-91584047D01*
X145454819Y-91536428D02*
X145407200Y-91631666D01*
X145407200Y-91631666D02*
X145311961Y-91726904D01*
X145311961Y-91726904D02*
X145121485Y-91774523D01*
X145121485Y-91774523D02*
X144788152Y-91774523D01*
X144788152Y-91774523D02*
X144597676Y-91726904D01*
X144597676Y-91726904D02*
X144502438Y-91631666D01*
X144502438Y-91631666D02*
X144454819Y-91536428D01*
X144454819Y-91536428D02*
X144454819Y-91345952D01*
X144454819Y-91345952D02*
X144502438Y-91250714D01*
X144502438Y-91250714D02*
X144597676Y-91155476D01*
X144597676Y-91155476D02*
X144788152Y-91107857D01*
X144788152Y-91107857D02*
X145121485Y-91107857D01*
X145121485Y-91107857D02*
X145311961Y-91155476D01*
X145311961Y-91155476D02*
X145407200Y-91250714D01*
X145407200Y-91250714D02*
X145454819Y-91345952D01*
X145454819Y-91345952D02*
X145454819Y-91536428D01*
X144550057Y-90726904D02*
X144502438Y-90679285D01*
X144502438Y-90679285D02*
X144454819Y-90584047D01*
X144454819Y-90584047D02*
X144454819Y-90345952D01*
X144454819Y-90345952D02*
X144502438Y-90250714D01*
X144502438Y-90250714D02*
X144550057Y-90203095D01*
X144550057Y-90203095D02*
X144645295Y-90155476D01*
X144645295Y-90155476D02*
X144740533Y-90155476D01*
X144740533Y-90155476D02*
X144883390Y-90203095D01*
X144883390Y-90203095D02*
X145454819Y-90774523D01*
X145454819Y-90774523D02*
X145454819Y-90155476D01*
D11*
%TO.C,R8*%
X69160000Y-127265000D02*
X69930000Y-127265000D01*
X69930000Y-125895000D02*
X69930000Y-128635000D01*
X69930000Y-128635000D02*
X76470000Y-128635000D01*
X76470000Y-125895000D02*
X69930000Y-125895000D01*
X76470000Y-128635000D02*
X76470000Y-125895000D01*
X77240000Y-127265000D02*
X76470000Y-127265000D01*
%TO.C,R14*%
X94860000Y-83665000D02*
X95630000Y-83665000D01*
X95630000Y-82295000D02*
X95630000Y-85035000D01*
X95630000Y-85035000D02*
X102170000Y-85035000D01*
X102170000Y-82295000D02*
X95630000Y-82295000D01*
X102170000Y-85035000D02*
X102170000Y-82295000D01*
X102940000Y-83665000D02*
X102170000Y-83665000D01*
%TO.C,TP1*%
X160165800Y-126764800D02*
G75*
G02*
X156765800Y-126764800I-1700000J0D01*
G01*
X156765800Y-126764800D02*
G75*
G02*
X160165800Y-126764800I1700000J0D01*
G01*
%TO.C,R12*%
X71172400Y-84461600D02*
X71172400Y-91001600D01*
X71172400Y-91001600D02*
X73912400Y-91001600D01*
X72542400Y-83691600D02*
X72542400Y-84461600D01*
X72542400Y-91771600D02*
X72542400Y-91001600D01*
X73912400Y-84461600D02*
X71172400Y-84461600D01*
X73912400Y-91001600D02*
X73912400Y-84461600D01*
%TO.C,C1*%
X153476400Y-99478001D02*
X153476400Y-106718001D01*
X157216400Y-99478001D02*
X153476400Y-99478001D01*
X157216400Y-99478001D02*
X157216400Y-106718001D01*
X157216400Y-106718001D02*
X153476400Y-106718001D01*
%TO.C,R15*%
X125530000Y-88675000D02*
X125530000Y-95215000D01*
X125530000Y-95215000D02*
X128270000Y-95215000D01*
X126900000Y-87905000D02*
X126900000Y-88675000D01*
X126900000Y-95985000D02*
X126900000Y-95215000D01*
X128270000Y-88675000D02*
X125530000Y-88675000D01*
X128270000Y-95215000D02*
X128270000Y-88675000D01*
D12*
%TO.C,J3*%
X71623799Y-97452800D02*
X71623799Y-107706800D01*
X71623799Y-107706800D02*
X80877799Y-107706800D01*
X80877799Y-97452800D02*
X71623799Y-97452800D01*
X80877799Y-107706800D02*
X80877799Y-97452800D01*
D13*
X76631800Y-109484800D02*
G75*
G02*
X75869800Y-109484800I-381000J0D01*
G01*
X75869800Y-109484800D02*
G75*
G02*
X76631800Y-109484800I381000J0D01*
G01*
D11*
%TO.C,R3*%
X126030000Y-112495000D02*
X126030000Y-119035000D01*
X126030000Y-119035000D02*
X128770000Y-119035000D01*
X127400000Y-111725000D02*
X127400000Y-112495000D01*
X127400000Y-119805000D02*
X127400000Y-119035000D01*
X128770000Y-112495000D02*
X126030000Y-112495000D01*
X128770000Y-119035000D02*
X128770000Y-112495000D01*
%TO.C,C3*%
X49027225Y-127430000D02*
X49527225Y-127430000D01*
X49277225Y-127180000D02*
X49277225Y-127680000D01*
X51832000Y-126325000D02*
X51832000Y-127865000D01*
X51832000Y-129945000D02*
X51832000Y-131485000D01*
X51872000Y-126325000D02*
X51872000Y-127865000D01*
X51872000Y-129945000D02*
X51872000Y-131485000D01*
X51912000Y-126326000D02*
X51912000Y-127865000D01*
X51912000Y-129945000D02*
X51912000Y-131484000D01*
X51952000Y-126327000D02*
X51952000Y-127865000D01*
X51952000Y-129945000D02*
X51952000Y-131483000D01*
X51992000Y-126329000D02*
X51992000Y-127865000D01*
X51992000Y-129945000D02*
X51992000Y-131481000D01*
X52032000Y-126332000D02*
X52032000Y-127865000D01*
X52032000Y-129945000D02*
X52032000Y-131478000D01*
X52072000Y-126336000D02*
X52072000Y-127865000D01*
X52072000Y-129945000D02*
X52072000Y-131474000D01*
X52112000Y-126340000D02*
X52112000Y-127865000D01*
X52112000Y-129945000D02*
X52112000Y-131470000D01*
X52152000Y-126344000D02*
X52152000Y-127865000D01*
X52152000Y-129945000D02*
X52152000Y-131466000D01*
X52192000Y-126349000D02*
X52192000Y-127865000D01*
X52192000Y-129945000D02*
X52192000Y-131461000D01*
X52232000Y-126355000D02*
X52232000Y-127865000D01*
X52232000Y-129945000D02*
X52232000Y-131455000D01*
X52272000Y-126362000D02*
X52272000Y-127865000D01*
X52272000Y-129945000D02*
X52272000Y-131448000D01*
X52312000Y-126369000D02*
X52312000Y-127865000D01*
X52312000Y-129945000D02*
X52312000Y-131441000D01*
X52352000Y-126377000D02*
X52352000Y-127865000D01*
X52352000Y-129945000D02*
X52352000Y-131433000D01*
X52392000Y-126385000D02*
X52392000Y-127865000D01*
X52392000Y-129945000D02*
X52392000Y-131425000D01*
X52432000Y-126394000D02*
X52432000Y-127865000D01*
X52432000Y-129945000D02*
X52432000Y-131416000D01*
X52472000Y-126404000D02*
X52472000Y-127865000D01*
X52472000Y-129945000D02*
X52472000Y-131406000D01*
X52512000Y-126414000D02*
X52512000Y-127865000D01*
X52512000Y-129945000D02*
X52512000Y-131396000D01*
X52553000Y-126425000D02*
X52553000Y-127865000D01*
X52553000Y-129945000D02*
X52553000Y-131385000D01*
X52593000Y-126437000D02*
X52593000Y-127865000D01*
X52593000Y-129945000D02*
X52593000Y-131373000D01*
X52633000Y-126450000D02*
X52633000Y-127865000D01*
X52633000Y-129945000D02*
X52633000Y-131360000D01*
X52673000Y-126463000D02*
X52673000Y-127865000D01*
X52673000Y-129945000D02*
X52673000Y-131347000D01*
X52713000Y-126477000D02*
X52713000Y-127865000D01*
X52713000Y-129945000D02*
X52713000Y-131333000D01*
X52753000Y-126491000D02*
X52753000Y-127865000D01*
X52753000Y-129945000D02*
X52753000Y-131319000D01*
X52793000Y-126507000D02*
X52793000Y-127865000D01*
X52793000Y-129945000D02*
X52793000Y-131303000D01*
X52833000Y-126523000D02*
X52833000Y-127865000D01*
X52833000Y-129945000D02*
X52833000Y-131287000D01*
X52873000Y-126540000D02*
X52873000Y-127865000D01*
X52873000Y-129945000D02*
X52873000Y-131270000D01*
X52913000Y-126557000D02*
X52913000Y-127865000D01*
X52913000Y-129945000D02*
X52913000Y-131253000D01*
X52953000Y-126576000D02*
X52953000Y-127865000D01*
X52953000Y-129945000D02*
X52953000Y-131234000D01*
X52993000Y-126595000D02*
X52993000Y-127865000D01*
X52993000Y-129945000D02*
X52993000Y-131215000D01*
X53033000Y-126615000D02*
X53033000Y-127865000D01*
X53033000Y-129945000D02*
X53033000Y-131195000D01*
X53073000Y-126637000D02*
X53073000Y-127865000D01*
X53073000Y-129945000D02*
X53073000Y-131173000D01*
X53113000Y-126658000D02*
X53113000Y-127865000D01*
X53113000Y-129945000D02*
X53113000Y-131152000D01*
X53153000Y-126681000D02*
X53153000Y-127865000D01*
X53153000Y-129945000D02*
X53153000Y-131129000D01*
X53193000Y-126705000D02*
X53193000Y-127865000D01*
X53193000Y-129945000D02*
X53193000Y-131105000D01*
X53233000Y-126730000D02*
X53233000Y-127865000D01*
X53233000Y-129945000D02*
X53233000Y-131080000D01*
X53273000Y-126756000D02*
X53273000Y-127865000D01*
X53273000Y-129945000D02*
X53273000Y-131054000D01*
X53313000Y-126783000D02*
X53313000Y-127865000D01*
X53313000Y-129945000D02*
X53313000Y-131027000D01*
X53353000Y-126810000D02*
X53353000Y-127865000D01*
X53353000Y-129945000D02*
X53353000Y-131000000D01*
X53393000Y-126840000D02*
X53393000Y-127865000D01*
X53393000Y-129945000D02*
X53393000Y-130970000D01*
X53433000Y-126870000D02*
X53433000Y-127865000D01*
X53433000Y-129945000D02*
X53433000Y-130940000D01*
X53473000Y-126901000D02*
X53473000Y-127865000D01*
X53473000Y-129945000D02*
X53473000Y-130909000D01*
X53513000Y-126934000D02*
X53513000Y-127865000D01*
X53513000Y-129945000D02*
X53513000Y-130876000D01*
X53553000Y-126968000D02*
X53553000Y-127865000D01*
X53553000Y-129945000D02*
X53553000Y-130842000D01*
X53593000Y-127004000D02*
X53593000Y-127865000D01*
X53593000Y-129945000D02*
X53593000Y-130806000D01*
X53633000Y-127041000D02*
X53633000Y-127865000D01*
X53633000Y-129945000D02*
X53633000Y-130769000D01*
X53673000Y-127079000D02*
X53673000Y-127865000D01*
X53673000Y-129945000D02*
X53673000Y-130731000D01*
X53713000Y-127120000D02*
X53713000Y-127865000D01*
X53713000Y-129945000D02*
X53713000Y-130690000D01*
X53753000Y-127162000D02*
X53753000Y-127865000D01*
X53753000Y-129945000D02*
X53753000Y-130648000D01*
X53793000Y-127206000D02*
X53793000Y-127865000D01*
X53793000Y-129945000D02*
X53793000Y-130604000D01*
X53833000Y-127252000D02*
X53833000Y-127865000D01*
X53833000Y-129945000D02*
X53833000Y-130558000D01*
X53873000Y-127300000D02*
X53873000Y-130510000D01*
X53913000Y-127351000D02*
X53913000Y-130459000D01*
X53953000Y-127405000D02*
X53953000Y-130405000D01*
X53993000Y-127462000D02*
X53993000Y-130348000D01*
X54033000Y-127522000D02*
X54033000Y-130288000D01*
X54073000Y-127586000D02*
X54073000Y-130224000D01*
X54113000Y-127654000D02*
X54113000Y-130156000D01*
X54153000Y-127727000D02*
X54153000Y-130083000D01*
X54193000Y-127807000D02*
X54193000Y-130003000D01*
X54233000Y-127894000D02*
X54233000Y-129916000D01*
X54273000Y-127990000D02*
X54273000Y-129820000D01*
X54313000Y-128100000D02*
X54313000Y-129710000D01*
X54353000Y-128228000D02*
X54353000Y-129582000D01*
X54393000Y-128387000D02*
X54393000Y-129423000D01*
X54433000Y-128621000D02*
X54433000Y-129189000D01*
X54452000Y-128905000D02*
G75*
G02*
X49212000Y-128905000I-2620000J0D01*
G01*
X49212000Y-128905000D02*
G75*
G02*
X54452000Y-128905000I2620000J0D01*
G01*
%TO.C,Q9*%
X148430000Y-108685000D02*
X153071000Y-108685000D01*
X148430000Y-111954000D02*
X149940000Y-111954000D01*
X148430000Y-115655000D02*
X149940000Y-115655000D01*
X148430000Y-118925000D02*
X148430000Y-108685000D01*
X148430000Y-118925000D02*
X153071000Y-118925000D01*
X149940000Y-118925000D02*
X149940000Y-108685000D01*
X153071000Y-118925000D02*
X153071000Y-108685000D01*
%TO.C,R2*%
X136298000Y-106686600D02*
X136298000Y-113226600D01*
X136298000Y-113226600D02*
X139038000Y-113226600D01*
X137668000Y-105916600D02*
X137668000Y-106686600D01*
X137668000Y-113996600D02*
X137668000Y-113226600D01*
X139038000Y-106686600D02*
X136298000Y-106686600D01*
X139038000Y-113226600D02*
X139038000Y-106686600D01*
%TO.C,C5*%
X48076025Y-73219800D02*
X48576025Y-73219800D01*
X48326025Y-72969800D02*
X48326025Y-73469800D01*
X50880800Y-72114800D02*
X50880800Y-73654800D01*
X50880800Y-75734800D02*
X50880800Y-77274800D01*
X50920800Y-72114800D02*
X50920800Y-73654800D01*
X50920800Y-75734800D02*
X50920800Y-77274800D01*
X50960800Y-72115800D02*
X50960800Y-73654800D01*
X50960800Y-75734800D02*
X50960800Y-77273800D01*
X51000800Y-72116800D02*
X51000800Y-73654800D01*
X51000800Y-75734800D02*
X51000800Y-77272800D01*
X51040800Y-72118800D02*
X51040800Y-73654800D01*
X51040800Y-75734800D02*
X51040800Y-77270800D01*
X51080800Y-72121800D02*
X51080800Y-73654800D01*
X51080800Y-75734800D02*
X51080800Y-77267800D01*
X51120800Y-72125800D02*
X51120800Y-73654800D01*
X51120800Y-75734800D02*
X51120800Y-77263800D01*
X51160800Y-72129800D02*
X51160800Y-73654800D01*
X51160800Y-75734800D02*
X51160800Y-77259800D01*
X51200800Y-72133800D02*
X51200800Y-73654800D01*
X51200800Y-75734800D02*
X51200800Y-77255800D01*
X51240800Y-72138800D02*
X51240800Y-73654800D01*
X51240800Y-75734800D02*
X51240800Y-77250800D01*
X51280800Y-72144800D02*
X51280800Y-73654800D01*
X51280800Y-75734800D02*
X51280800Y-77244800D01*
X51320800Y-72151800D02*
X51320800Y-73654800D01*
X51320800Y-75734800D02*
X51320800Y-77237800D01*
X51360800Y-72158800D02*
X51360800Y-73654800D01*
X51360800Y-75734800D02*
X51360800Y-77230800D01*
X51400800Y-72166800D02*
X51400800Y-73654800D01*
X51400800Y-75734800D02*
X51400800Y-77222800D01*
X51440800Y-72174800D02*
X51440800Y-73654800D01*
X51440800Y-75734800D02*
X51440800Y-77214800D01*
X51480800Y-72183800D02*
X51480800Y-73654800D01*
X51480800Y-75734800D02*
X51480800Y-77205800D01*
X51520800Y-72193800D02*
X51520800Y-73654800D01*
X51520800Y-75734800D02*
X51520800Y-77195800D01*
X51560800Y-72203800D02*
X51560800Y-73654800D01*
X51560800Y-75734800D02*
X51560800Y-77185800D01*
X51601800Y-72214800D02*
X51601800Y-73654800D01*
X51601800Y-75734800D02*
X51601800Y-77174800D01*
X51641800Y-72226800D02*
X51641800Y-73654800D01*
X51641800Y-75734800D02*
X51641800Y-77162800D01*
X51681800Y-72239800D02*
X51681800Y-73654800D01*
X51681800Y-75734800D02*
X51681800Y-77149800D01*
X51721800Y-72252800D02*
X51721800Y-73654800D01*
X51721800Y-75734800D02*
X51721800Y-77136800D01*
X51761800Y-72266800D02*
X51761800Y-73654800D01*
X51761800Y-75734800D02*
X51761800Y-77122800D01*
X51801800Y-72280800D02*
X51801800Y-73654800D01*
X51801800Y-75734800D02*
X51801800Y-77108800D01*
X51841800Y-72296800D02*
X51841800Y-73654800D01*
X51841800Y-75734800D02*
X51841800Y-77092800D01*
X51881800Y-72312800D02*
X51881800Y-73654800D01*
X51881800Y-75734800D02*
X51881800Y-77076800D01*
X51921800Y-72329800D02*
X51921800Y-73654800D01*
X51921800Y-75734800D02*
X51921800Y-77059800D01*
X51961800Y-72346800D02*
X51961800Y-73654800D01*
X51961800Y-75734800D02*
X51961800Y-77042800D01*
X52001800Y-72365800D02*
X52001800Y-73654800D01*
X52001800Y-75734800D02*
X52001800Y-77023800D01*
X52041800Y-72384800D02*
X52041800Y-73654800D01*
X52041800Y-75734800D02*
X52041800Y-77004800D01*
X52081800Y-72404800D02*
X52081800Y-73654800D01*
X52081800Y-75734800D02*
X52081800Y-76984800D01*
X52121800Y-72426800D02*
X52121800Y-73654800D01*
X52121800Y-75734800D02*
X52121800Y-76962800D01*
X52161800Y-72447800D02*
X52161800Y-73654800D01*
X52161800Y-75734800D02*
X52161800Y-76941800D01*
X52201800Y-72470800D02*
X52201800Y-73654800D01*
X52201800Y-75734800D02*
X52201800Y-76918800D01*
X52241800Y-72494800D02*
X52241800Y-73654800D01*
X52241800Y-75734800D02*
X52241800Y-76894800D01*
X52281800Y-72519800D02*
X52281800Y-73654800D01*
X52281800Y-75734800D02*
X52281800Y-76869800D01*
X52321800Y-72545800D02*
X52321800Y-73654800D01*
X52321800Y-75734800D02*
X52321800Y-76843800D01*
X52361800Y-72572800D02*
X52361800Y-73654800D01*
X52361800Y-75734800D02*
X52361800Y-76816800D01*
X52401800Y-72599800D02*
X52401800Y-73654800D01*
X52401800Y-75734800D02*
X52401800Y-76789800D01*
X52441800Y-72629800D02*
X52441800Y-73654800D01*
X52441800Y-75734800D02*
X52441800Y-76759800D01*
X52481800Y-72659800D02*
X52481800Y-73654800D01*
X52481800Y-75734800D02*
X52481800Y-76729800D01*
X52521800Y-72690800D02*
X52521800Y-73654800D01*
X52521800Y-75734800D02*
X52521800Y-76698800D01*
X52561800Y-72723800D02*
X52561800Y-73654800D01*
X52561800Y-75734800D02*
X52561800Y-76665800D01*
X52601800Y-72757800D02*
X52601800Y-73654800D01*
X52601800Y-75734800D02*
X52601800Y-76631800D01*
X52641800Y-72793800D02*
X52641800Y-73654800D01*
X52641800Y-75734800D02*
X52641800Y-76595800D01*
X52681800Y-72830800D02*
X52681800Y-73654800D01*
X52681800Y-75734800D02*
X52681800Y-76558800D01*
X52721800Y-72868800D02*
X52721800Y-73654800D01*
X52721800Y-75734800D02*
X52721800Y-76520800D01*
X52761800Y-72909800D02*
X52761800Y-73654800D01*
X52761800Y-75734800D02*
X52761800Y-76479800D01*
X52801800Y-72951800D02*
X52801800Y-73654800D01*
X52801800Y-75734800D02*
X52801800Y-76437800D01*
X52841800Y-72995800D02*
X52841800Y-73654800D01*
X52841800Y-75734800D02*
X52841800Y-76393800D01*
X52881800Y-73041800D02*
X52881800Y-73654800D01*
X52881800Y-75734800D02*
X52881800Y-76347800D01*
X52921800Y-73089800D02*
X52921800Y-76299800D01*
X52961800Y-73140800D02*
X52961800Y-76248800D01*
X53001800Y-73194800D02*
X53001800Y-76194800D01*
X53041800Y-73251800D02*
X53041800Y-76137800D01*
X53081800Y-73311800D02*
X53081800Y-76077800D01*
X53121800Y-73375800D02*
X53121800Y-76013800D01*
X53161800Y-73443800D02*
X53161800Y-75945800D01*
X53201800Y-73516800D02*
X53201800Y-75872800D01*
X53241800Y-73596800D02*
X53241800Y-75792800D01*
X53281800Y-73683800D02*
X53281800Y-75705800D01*
X53321800Y-73779800D02*
X53321800Y-75609800D01*
X53361800Y-73889800D02*
X53361800Y-75499800D01*
X53401800Y-74017800D02*
X53401800Y-75371800D01*
X53441800Y-74176800D02*
X53441800Y-75212800D01*
X53481800Y-74410800D02*
X53481800Y-74978800D01*
X53500800Y-74694800D02*
G75*
G02*
X48260800Y-74694800I-2620000J0D01*
G01*
X48260800Y-74694800D02*
G75*
G02*
X53500800Y-74694800I2620000J0D01*
G01*
%TO.C,Q6*%
X100350000Y-75925000D02*
X100350000Y-72325000D01*
X96150000Y-73015000D02*
G75*
G02*
X97401629Y-71769542I2350000J-1110000D01*
G01*
X97396158Y-76492199D02*
G75*
G02*
X96150000Y-75265000I1103842J2367199D01*
G01*
X99622795Y-71800816D02*
G75*
G02*
X100350000Y-72325000I-1122795J-2324184D01*
G01*
X100350000Y-75925000D02*
G75*
G02*
X99622795Y-76449184I-1850000J1800000D01*
G01*
%TO.C,D3*%
X81530000Y-84915000D02*
X81530000Y-90355000D01*
X81530000Y-90355000D02*
X84470000Y-90355000D01*
X83000000Y-83895000D02*
X83000000Y-84915000D01*
X83000000Y-91375000D02*
X83000000Y-90355000D01*
X84470000Y-84915000D02*
X81530000Y-84915000D01*
X84470000Y-85695000D02*
X81530000Y-85695000D01*
X84470000Y-85815000D02*
X81530000Y-85815000D01*
X84470000Y-85935000D02*
X81530000Y-85935000D01*
X84470000Y-90355000D02*
X84470000Y-84915000D01*
%TO.C,C6*%
X105879000Y-69495000D02*
X105879000Y-74835000D01*
X106545000Y-69495000D02*
X105879000Y-69495000D01*
X106545000Y-74835000D02*
X105879000Y-74835000D01*
X109321000Y-69495000D02*
X108655000Y-69495000D01*
X109321000Y-69495000D02*
X109321000Y-74835000D01*
X109321000Y-74835000D02*
X108655000Y-74835000D01*
%TO.C,R10*%
X54360000Y-81365000D02*
X55130000Y-81365000D01*
X55130000Y-79995000D02*
X55130000Y-82735000D01*
X55130000Y-82735000D02*
X61670000Y-82735000D01*
X61670000Y-79995000D02*
X55130000Y-79995000D01*
X61670000Y-82735000D02*
X61670000Y-79995000D01*
X62440000Y-81365000D02*
X61670000Y-81365000D01*
%TO.C,Q5*%
X143592800Y-125385200D02*
X148233800Y-125385200D01*
X143592800Y-128654200D02*
X145102800Y-128654200D01*
X143592800Y-132355200D02*
X145102800Y-132355200D01*
X143592800Y-135625200D02*
X143592800Y-125385200D01*
X143592800Y-135625200D02*
X148233800Y-135625200D01*
X145102800Y-135625200D02*
X145102800Y-125385200D01*
X148233800Y-135625200D02*
X148233800Y-125385200D01*
%TO.C,C4*%
X105579000Y-122895000D02*
X105579000Y-128235000D01*
X106245000Y-122895000D02*
X105579000Y-122895000D01*
X106245000Y-128235000D02*
X105579000Y-128235000D01*
X109021000Y-122895000D02*
X108355000Y-122895000D01*
X109021000Y-122895000D02*
X109021000Y-128235000D01*
X109021000Y-128235000D02*
X108355000Y-128235000D01*
%TO.C,R6*%
X58960000Y-132465000D02*
X59730000Y-132465000D01*
X59730000Y-131095000D02*
X59730000Y-133835000D01*
X59730000Y-133835000D02*
X66270000Y-133835000D01*
X66270000Y-131095000D02*
X59730000Y-131095000D01*
X66270000Y-133835000D02*
X66270000Y-131095000D01*
X67040000Y-132465000D02*
X66270000Y-132465000D01*
%TO.C,Q10*%
X143866200Y-66355600D02*
X143866200Y-76595600D01*
X146997200Y-66355600D02*
X146997200Y-76595600D01*
X148507200Y-66355600D02*
X143866200Y-66355600D01*
X148507200Y-66355600D02*
X148507200Y-76595600D01*
X148507200Y-69625600D02*
X146997200Y-69625600D01*
X148507200Y-73326600D02*
X146997200Y-73326600D01*
X148507200Y-76595600D02*
X143866200Y-76595600D01*
D12*
%TO.C,RV1*%
X69088000Y-67056000D02*
X69088000Y-73914000D01*
X69088000Y-73914000D02*
X71743114Y-73914000D01*
X72198876Y-67056000D02*
X69088000Y-67056000D01*
X73595686Y-73914000D02*
X76327000Y-73914000D01*
X76327000Y-67056000D02*
X73139924Y-67056000D01*
X76327000Y-73914000D02*
X76327000Y-67056000D01*
X77597000Y-73025000D02*
G75*
G02*
X77343000Y-73025000I-127000J0D01*
G01*
X77343000Y-73025000D02*
G75*
G02*
X77597000Y-73025000I127000J0D01*
G01*
D11*
%TO.C,C7*%
X160875600Y-99298201D02*
X160875600Y-106538201D01*
X164615600Y-99298201D02*
X160875600Y-99298201D01*
X164615600Y-99298201D02*
X164615600Y-106538201D01*
X164615600Y-106538201D02*
X160875600Y-106538201D01*
%TO.C,R16*%
X130360000Y-71365000D02*
X131130000Y-71365000D01*
X131130000Y-69995000D02*
X131130000Y-72735000D01*
X131130000Y-72735000D02*
X137670000Y-72735000D01*
X137670000Y-69995000D02*
X131130000Y-69995000D01*
X137670000Y-72735000D02*
X137670000Y-69995000D01*
X138440000Y-71365000D02*
X137670000Y-71365000D01*
%TO.C,D1*%
X80830000Y-114775000D02*
X80830000Y-120215000D01*
X80830000Y-119195000D02*
X83770000Y-119195000D01*
X80830000Y-119315000D02*
X83770000Y-119315000D01*
X80830000Y-119435000D02*
X83770000Y-119435000D01*
X80830000Y-120215000D02*
X83770000Y-120215000D01*
X82300000Y-113755000D02*
X82300000Y-114775000D01*
X82300000Y-121235000D02*
X82300000Y-120215000D01*
X83770000Y-114775000D02*
X80830000Y-114775000D01*
X83770000Y-120215000D02*
X83770000Y-114775000D01*
%TO.C,R9*%
X116160000Y-127165000D02*
X116930000Y-127165000D01*
X116930000Y-125795000D02*
X116930000Y-128535000D01*
X116930000Y-128535000D02*
X123470000Y-128535000D01*
X123470000Y-125795000D02*
X116930000Y-125795000D01*
X123470000Y-128535000D02*
X123470000Y-125795000D01*
X124240000Y-127165000D02*
X123470000Y-127165000D01*
D12*
%TO.C,J1*%
X173020600Y-95774500D02*
X173020600Y-106028500D01*
X173020600Y-106028500D02*
X182274600Y-106028500D01*
X182274600Y-95774500D02*
X173020600Y-95774500D01*
X182274600Y-106028500D02*
X182274600Y-95774500D01*
D13*
X178028599Y-93996500D02*
G75*
G02*
X177266599Y-93996500I-381000J0D01*
G01*
X177266599Y-93996500D02*
G75*
G02*
X178028599Y-93996500I381000J0D01*
G01*
D11*
%TO.C,Q8*%
X114576000Y-83613000D02*
X110976000Y-83613000D01*
X110451816Y-84340205D02*
G75*
G02*
X110976000Y-83613000I2324184J-1122795D01*
G01*
X111666000Y-87813000D02*
G75*
G02*
X110420542Y-86561371I1110000J2350000D01*
G01*
X114576000Y-83613000D02*
G75*
G02*
X115100184Y-84340205I-1800000J-1850000D01*
G01*
X115143199Y-86566842D02*
G75*
G02*
X113916000Y-87813000I-2367199J1103842D01*
G01*
%TO.C,R18*%
X120230000Y-69695000D02*
X120230000Y-76235000D01*
X120230000Y-76235000D02*
X122970000Y-76235000D01*
X121600000Y-68925000D02*
X121600000Y-69695000D01*
X121600000Y-77005000D02*
X121600000Y-76235000D01*
X122970000Y-69695000D02*
X120230000Y-69695000D01*
X122970000Y-76235000D02*
X122970000Y-69695000D01*
D12*
%TO.C,RV2*%
X69596000Y-113792000D02*
X69596000Y-120650000D01*
X69596000Y-120650000D02*
X72251114Y-120650000D01*
X72706876Y-113792000D02*
X69596000Y-113792000D01*
X74103686Y-120650000D02*
X76835000Y-120650000D01*
X76835000Y-113792000D02*
X73647924Y-113792000D01*
X76835000Y-120650000D02*
X76835000Y-113792000D01*
X78105000Y-119761000D02*
G75*
G02*
X77851000Y-119761000I-127000J0D01*
G01*
X77851000Y-119761000D02*
G75*
G02*
X78105000Y-119761000I127000J0D01*
G01*
D11*
%TO.C,Q1*%
X106252000Y-112925000D02*
X106252000Y-109325000D01*
X102052000Y-110015000D02*
G75*
G02*
X103303629Y-108769542I2350000J-1110000D01*
G01*
X103298158Y-113492199D02*
G75*
G02*
X102052000Y-112265000I1103842J2367199D01*
G01*
X105524795Y-108800816D02*
G75*
G02*
X106252000Y-109325000I-1122795J-2324184D01*
G01*
X106252000Y-112925000D02*
G75*
G02*
X105524795Y-113449184I-1850000J1800000D01*
G01*
%TO.C,R17*%
X134139000Y-78670400D02*
X134139000Y-85210400D01*
X134139000Y-85210400D02*
X136879000Y-85210400D01*
X135509000Y-77900400D02*
X135509000Y-78670400D01*
X135509000Y-85980400D02*
X135509000Y-85210400D01*
X136879000Y-78670400D02*
X134139000Y-78670400D01*
X136879000Y-85210400D02*
X136879000Y-78670400D01*
%TO.C,TP2*%
X160165800Y-81044800D02*
G75*
G02*
X156765800Y-81044800I-1700000J0D01*
G01*
X156765800Y-81044800D02*
G75*
G02*
X160165800Y-81044800I1700000J0D01*
G01*
%TO.C,R1*%
X88515800Y-106984800D02*
X88515800Y-113524800D01*
X88515800Y-113524800D02*
X91255800Y-113524800D01*
X89885800Y-106214800D02*
X89885800Y-106984800D01*
X89885800Y-114294800D02*
X89885800Y-113524800D01*
X91255800Y-106984800D02*
X88515800Y-106984800D01*
X91255800Y-113524800D02*
X91255800Y-106984800D01*
%TO.C,Q7*%
X107370000Y-94085000D02*
X107370000Y-97685000D01*
X107370000Y-94085000D02*
G75*
G02*
X108097205Y-93560816I1850000J-1800000D01*
G01*
X108097205Y-98209184D02*
G75*
G02*
X107370000Y-97685000I1122795J2324184D01*
G01*
X110323842Y-93517801D02*
G75*
G02*
X111570000Y-94745000I-1103842J-2367199D01*
G01*
X111570000Y-96995000D02*
G75*
G02*
X110318371Y-98240458I-2350000J1110000D01*
G01*
D12*
%TO.C,J2*%
X45380799Y-112469400D02*
X45380799Y-122723400D01*
X45380799Y-122723400D02*
X54634799Y-122723400D01*
X54634799Y-112469400D02*
X45380799Y-112469400D01*
X54634799Y-122723400D02*
X54634799Y-112469400D01*
D13*
X50388800Y-124501400D02*
G75*
G02*
X49626800Y-124501400I-381000J0D01*
G01*
X49626800Y-124501400D02*
G75*
G02*
X50388800Y-124501400I381000J0D01*
G01*
D11*
%TO.C,D4*%
X83930000Y-70915000D02*
X83930000Y-76355000D01*
X83930000Y-76355000D02*
X86870000Y-76355000D01*
X85400000Y-69895000D02*
X85400000Y-70915000D01*
X85400000Y-77375000D02*
X85400000Y-76355000D01*
X86870000Y-70915000D02*
X83930000Y-70915000D01*
X86870000Y-71695000D02*
X83930000Y-71695000D01*
X86870000Y-71815000D02*
X83930000Y-71815000D01*
X86870000Y-71935000D02*
X83930000Y-71935000D01*
X86870000Y-76355000D02*
X86870000Y-70915000D01*
%TO.C,Q3*%
X97150000Y-124805000D02*
X97150000Y-128405000D01*
X97150000Y-124805000D02*
G75*
G02*
X97877205Y-124280816I1850000J-1800000D01*
G01*
X97877205Y-128929184D02*
G75*
G02*
X97150000Y-128405000I1122795J2324184D01*
G01*
X100103842Y-124237801D02*
G75*
G02*
X101350000Y-125465000I-1103842J-2367199D01*
G01*
X101350000Y-127715000D02*
G75*
G02*
X100098371Y-128960458I-2350000J1110000D01*
G01*
%TO.C,C8*%
X162308959Y-77490000D02*
X163558959Y-77490000D01*
X162933959Y-76865000D02*
X162933959Y-78115000D01*
X169126041Y-74735000D02*
X169126041Y-87395000D01*
X169166041Y-74735000D02*
X169166041Y-87395000D01*
X169206041Y-74735000D02*
X169206041Y-87395000D01*
X169246041Y-74736000D02*
X169246041Y-87394000D01*
X169286041Y-74737000D02*
X169286041Y-87393000D01*
X169326041Y-74738000D02*
X169326041Y-87392000D01*
X169366041Y-74739000D02*
X169366041Y-87391000D01*
X169406041Y-74741000D02*
X169406041Y-87389000D01*
X169446041Y-74743000D02*
X169446041Y-87387000D01*
X169486041Y-74745000D02*
X169486041Y-87385000D01*
X169526041Y-74747000D02*
X169526041Y-87383000D01*
X169566041Y-74750000D02*
X169566041Y-87380000D01*
X169606041Y-74753000D02*
X169606041Y-87377000D01*
X169646041Y-74756000D02*
X169646041Y-87374000D01*
X169686041Y-74759000D02*
X169686041Y-87371000D01*
X169726041Y-74763000D02*
X169726041Y-87367000D01*
X169766041Y-74767000D02*
X169766041Y-87363000D01*
X169806041Y-74771000D02*
X169806041Y-87359000D01*
X169847041Y-74775000D02*
X169847041Y-87355000D01*
X169887041Y-74780000D02*
X169887041Y-87350000D01*
X169927041Y-74785000D02*
X169927041Y-87345000D01*
X169967041Y-74790000D02*
X169967041Y-87340000D01*
X170007041Y-74796000D02*
X170007041Y-87334000D01*
X170047041Y-74801000D02*
X170047041Y-87329000D01*
X170087041Y-74807000D02*
X170087041Y-87323000D01*
X170127041Y-74813000D02*
X170127041Y-87317000D01*
X170167041Y-74820000D02*
X170167041Y-87310000D01*
X170207041Y-74827000D02*
X170207041Y-79625000D01*
X170207041Y-82505000D02*
X170207041Y-87303000D01*
X170247041Y-74834000D02*
X170247041Y-79625000D01*
X170247041Y-82505000D02*
X170247041Y-87296000D01*
X170287041Y-74841000D02*
X170287041Y-79625000D01*
X170287041Y-82505000D02*
X170287041Y-87289000D01*
X170327041Y-74849000D02*
X170327041Y-79625000D01*
X170327041Y-82505000D02*
X170327041Y-87281000D01*
X170367041Y-74856000D02*
X170367041Y-79625000D01*
X170367041Y-82505000D02*
X170367041Y-87274000D01*
X170407041Y-74864000D02*
X170407041Y-79625000D01*
X170407041Y-82505000D02*
X170407041Y-87266000D01*
X170447041Y-74873000D02*
X170447041Y-79625000D01*
X170447041Y-82505000D02*
X170447041Y-87257000D01*
X170487041Y-74881000D02*
X170487041Y-79625000D01*
X170487041Y-82505000D02*
X170487041Y-87249000D01*
X170527041Y-74890000D02*
X170527041Y-79625000D01*
X170527041Y-82505000D02*
X170527041Y-87240000D01*
X170567041Y-74899000D02*
X170567041Y-79625000D01*
X170567041Y-82505000D02*
X170567041Y-87231000D01*
X170607041Y-74909000D02*
X170607041Y-79625000D01*
X170607041Y-82505000D02*
X170607041Y-87221000D01*
X170647041Y-74919000D02*
X170647041Y-79625000D01*
X170647041Y-82505000D02*
X170647041Y-87211000D01*
X170687041Y-74928000D02*
X170687041Y-79625000D01*
X170687041Y-82505000D02*
X170687041Y-87202000D01*
X170727041Y-74939000D02*
X170727041Y-79625000D01*
X170727041Y-82505000D02*
X170727041Y-87191000D01*
X170767041Y-74949000D02*
X170767041Y-79625000D01*
X170767041Y-82505000D02*
X170767041Y-87181000D01*
X170807041Y-74960000D02*
X170807041Y-79625000D01*
X170807041Y-82505000D02*
X170807041Y-87170000D01*
X170847041Y-74971000D02*
X170847041Y-79625000D01*
X170847041Y-82505000D02*
X170847041Y-87159000D01*
X170887041Y-74982000D02*
X170887041Y-79625000D01*
X170887041Y-82505000D02*
X170887041Y-87148000D01*
X170927041Y-74994000D02*
X170927041Y-79625000D01*
X170927041Y-82505000D02*
X170927041Y-87136000D01*
X170967041Y-75006000D02*
X170967041Y-79625000D01*
X170967041Y-82505000D02*
X170967041Y-87124000D01*
X171007041Y-75018000D02*
X171007041Y-79625000D01*
X171007041Y-82505000D02*
X171007041Y-87112000D01*
X171047041Y-75031000D02*
X171047041Y-79625000D01*
X171047041Y-82505000D02*
X171047041Y-87099000D01*
X171087041Y-75044000D02*
X171087041Y-79625000D01*
X171087041Y-82505000D02*
X171087041Y-87086000D01*
X171127041Y-75057000D02*
X171127041Y-79625000D01*
X171127041Y-82505000D02*
X171127041Y-87073000D01*
X171167041Y-75070000D02*
X171167041Y-79625000D01*
X171167041Y-82505000D02*
X171167041Y-87060000D01*
X171207041Y-75084000D02*
X171207041Y-79625000D01*
X171207041Y-82505000D02*
X171207041Y-87046000D01*
X171247041Y-75098000D02*
X171247041Y-79625000D01*
X171247041Y-82505000D02*
X171247041Y-87032000D01*
X171287041Y-75112000D02*
X171287041Y-79625000D01*
X171287041Y-82505000D02*
X171287041Y-87018000D01*
X171327041Y-75126000D02*
X171327041Y-79625000D01*
X171327041Y-82505000D02*
X171327041Y-87004000D01*
X171367041Y-75141000D02*
X171367041Y-79625000D01*
X171367041Y-82505000D02*
X171367041Y-86989000D01*
X171407041Y-75157000D02*
X171407041Y-79625000D01*
X171407041Y-82505000D02*
X171407041Y-86973000D01*
X171447041Y-75172000D02*
X171447041Y-79625000D01*
X171447041Y-82505000D02*
X171447041Y-86958000D01*
X171487041Y-75188000D02*
X171487041Y-79625000D01*
X171487041Y-82505000D02*
X171487041Y-86942000D01*
X171527041Y-75204000D02*
X171527041Y-79625000D01*
X171527041Y-82505000D02*
X171527041Y-86926000D01*
X171567041Y-75220000D02*
X171567041Y-79625000D01*
X171567041Y-82505000D02*
X171567041Y-86910000D01*
X171607041Y-75237000D02*
X171607041Y-79625000D01*
X171607041Y-82505000D02*
X171607041Y-86893000D01*
X171647041Y-75254000D02*
X171647041Y-79625000D01*
X171647041Y-82505000D02*
X171647041Y-86876000D01*
X171687041Y-75272000D02*
X171687041Y-79625000D01*
X171687041Y-82505000D02*
X171687041Y-86858000D01*
X171727041Y-75289000D02*
X171727041Y-79625000D01*
X171727041Y-82505000D02*
X171727041Y-86841000D01*
X171767041Y-75307000D02*
X171767041Y-79625000D01*
X171767041Y-82505000D02*
X171767041Y-86823000D01*
X171807041Y-75326000D02*
X171807041Y-79625000D01*
X171807041Y-82505000D02*
X171807041Y-86804000D01*
X171847041Y-75344000D02*
X171847041Y-79625000D01*
X171847041Y-82505000D02*
X171847041Y-86786000D01*
X171887041Y-75363000D02*
X171887041Y-79625000D01*
X171887041Y-82505000D02*
X171887041Y-86767000D01*
X171927041Y-75383000D02*
X171927041Y-79625000D01*
X171927041Y-82505000D02*
X171927041Y-86747000D01*
X171967041Y-75403000D02*
X171967041Y-79625000D01*
X171967041Y-82505000D02*
X171967041Y-86727000D01*
X172007041Y-75423000D02*
X172007041Y-79625000D01*
X172007041Y-82505000D02*
X172007041Y-86707000D01*
X172047041Y-75443000D02*
X172047041Y-79625000D01*
X172047041Y-82505000D02*
X172047041Y-86687000D01*
X172087041Y-75464000D02*
X172087041Y-79625000D01*
X172087041Y-82505000D02*
X172087041Y-86666000D01*
X172127041Y-75485000D02*
X172127041Y-79625000D01*
X172127041Y-82505000D02*
X172127041Y-86645000D01*
X172167041Y-75507000D02*
X172167041Y-79625000D01*
X172167041Y-82505000D02*
X172167041Y-86623000D01*
X172207041Y-75529000D02*
X172207041Y-79625000D01*
X172207041Y-82505000D02*
X172207041Y-86601000D01*
X172247041Y-75551000D02*
X172247041Y-79625000D01*
X172247041Y-82505000D02*
X172247041Y-86579000D01*
X172287041Y-75574000D02*
X172287041Y-79625000D01*
X172287041Y-82505000D02*
X172287041Y-86556000D01*
X172327041Y-75597000D02*
X172327041Y-79625000D01*
X172327041Y-82505000D02*
X172327041Y-86533000D01*
X172367041Y-75620000D02*
X172367041Y-79625000D01*
X172367041Y-82505000D02*
X172367041Y-86510000D01*
X172407041Y-75644000D02*
X172407041Y-79625000D01*
X172407041Y-82505000D02*
X172407041Y-86486000D01*
X172447041Y-75668000D02*
X172447041Y-79625000D01*
X172447041Y-82505000D02*
X172447041Y-86462000D01*
X172487041Y-75693000D02*
X172487041Y-79625000D01*
X172487041Y-82505000D02*
X172487041Y-86437000D01*
X172527041Y-75718000D02*
X172527041Y-79625000D01*
X172527041Y-82505000D02*
X172527041Y-86412000D01*
X172567041Y-75743000D02*
X172567041Y-79625000D01*
X172567041Y-82505000D02*
X172567041Y-86387000D01*
X172607041Y-75769000D02*
X172607041Y-79625000D01*
X172607041Y-82505000D02*
X172607041Y-86361000D01*
X172647041Y-75795000D02*
X172647041Y-79625000D01*
X172647041Y-82505000D02*
X172647041Y-86335000D01*
X172687041Y-75822000D02*
X172687041Y-79625000D01*
X172687041Y-82505000D02*
X172687041Y-86308000D01*
X172727041Y-75849000D02*
X172727041Y-79625000D01*
X172727041Y-82505000D02*
X172727041Y-86281000D01*
X172767041Y-75877000D02*
X172767041Y-79625000D01*
X172767041Y-82505000D02*
X172767041Y-86253000D01*
X172807041Y-75905000D02*
X172807041Y-79625000D01*
X172807041Y-82505000D02*
X172807041Y-86225000D01*
X172847041Y-75934000D02*
X172847041Y-79625000D01*
X172847041Y-82505000D02*
X172847041Y-86196000D01*
X172887041Y-75963000D02*
X172887041Y-79625000D01*
X172887041Y-82505000D02*
X172887041Y-86167000D01*
X172927041Y-75992000D02*
X172927041Y-79625000D01*
X172927041Y-82505000D02*
X172927041Y-86138000D01*
X172967041Y-76022000D02*
X172967041Y-79625000D01*
X172967041Y-82505000D02*
X172967041Y-86108000D01*
X173007041Y-76053000D02*
X173007041Y-79625000D01*
X173007041Y-82505000D02*
X173007041Y-86077000D01*
X173047041Y-76083000D02*
X173047041Y-79625000D01*
X173047041Y-82505000D02*
X173047041Y-86047000D01*
X173087041Y-76115000D02*
X173087041Y-86015000D01*
X173127041Y-76147000D02*
X173127041Y-85983000D01*
X173167041Y-76180000D02*
X173167041Y-85950000D01*
X173207041Y-76213000D02*
X173207041Y-85917000D01*
X173247041Y-76246000D02*
X173247041Y-85884000D01*
X173287041Y-76280000D02*
X173287041Y-85850000D01*
X173327041Y-76315000D02*
X173327041Y-85815000D01*
X173367041Y-76351000D02*
X173367041Y-85779000D01*
X173407041Y-76387000D02*
X173407041Y-85743000D01*
X173447041Y-76423000D02*
X173447041Y-85707000D01*
X173487041Y-76460000D02*
X173487041Y-85670000D01*
X173527041Y-76498000D02*
X173527041Y-85632000D01*
X173567041Y-76537000D02*
X173567041Y-85593000D01*
X173607041Y-76576000D02*
X173607041Y-85554000D01*
X173647041Y-76616000D02*
X173647041Y-85514000D01*
X173687041Y-76657000D02*
X173687041Y-85473000D01*
X173727041Y-76698000D02*
X173727041Y-85432000D01*
X173767041Y-76740000D02*
X173767041Y-85390000D01*
X173807041Y-76783000D02*
X173807041Y-85347000D01*
X173847041Y-76827000D02*
X173847041Y-85303000D01*
X173887041Y-76871000D02*
X173887041Y-85259000D01*
X173927041Y-76917000D02*
X173927041Y-85213000D01*
X173967041Y-76963000D02*
X173967041Y-85167000D01*
X174007041Y-77010000D02*
X174007041Y-85120000D01*
X174047041Y-77058000D02*
X174047041Y-85072000D01*
X174087041Y-77108000D02*
X174087041Y-85022000D01*
X174127041Y-77158000D02*
X174127041Y-84972000D01*
X174167041Y-77209000D02*
X174167041Y-84921000D01*
X174207041Y-77261000D02*
X174207041Y-84869000D01*
X174247041Y-77315000D02*
X174247041Y-84815000D01*
X174287041Y-77369000D02*
X174287041Y-84761000D01*
X174327041Y-77425000D02*
X174327041Y-84705000D01*
X174367041Y-77482000D02*
X174367041Y-84648000D01*
X174407041Y-77541000D02*
X174407041Y-84589000D01*
X174447041Y-77601000D02*
X174447041Y-84529000D01*
X174487041Y-77663000D02*
X174487041Y-84467000D01*
X174527041Y-77726000D02*
X174527041Y-84404000D01*
X174567041Y-77790000D02*
X174567041Y-84340000D01*
X174607041Y-77857000D02*
X174607041Y-84273000D01*
X174647041Y-77925000D02*
X174647041Y-84205000D01*
X174687041Y-77996000D02*
X174687041Y-84134000D01*
X174727041Y-78069000D02*
X174727041Y-84061000D01*
X174767041Y-78144000D02*
X174767041Y-83986000D01*
X174807041Y-78221000D02*
X174807041Y-83909000D01*
X174847041Y-78301000D02*
X174847041Y-83829000D01*
X174887041Y-78384000D02*
X174887041Y-83746000D01*
X174927041Y-78471000D02*
X174927041Y-83659000D01*
X174967041Y-78561000D02*
X174967041Y-83569000D01*
X175007041Y-78655000D02*
X175007041Y-83475000D01*
X175047041Y-78753000D02*
X175047041Y-83377000D01*
X175087041Y-78856000D02*
X175087041Y-83274000D01*
X175127041Y-78965000D02*
X175127041Y-83165000D01*
X175167041Y-79081000D02*
X175167041Y-83049000D01*
X175207041Y-79204000D02*
X175207041Y-82926000D01*
X175247041Y-79337000D02*
X175247041Y-82793000D01*
X175287041Y-79482000D02*
X175287041Y-82648000D01*
X175327041Y-79643000D02*
X175327041Y-82487000D01*
X175367041Y-79824000D02*
X175367041Y-82306000D01*
X175407041Y-80037000D02*
X175407041Y-82093000D01*
X175447041Y-80308000D02*
X175447041Y-81822000D01*
X175487041Y-80748000D02*
X175487041Y-81382000D01*
X175496041Y-81065000D02*
G75*
G02*
X162756041Y-81065000I-6370000J0D01*
G01*
X162756041Y-81065000D02*
G75*
G02*
X175496041Y-81065000I6370000J0D01*
G01*
%TO.C,Q4*%
X118510000Y-120195000D02*
X118510000Y-116595000D01*
X114310000Y-117285000D02*
G75*
G02*
X115561629Y-116039542I2350000J-1110000D01*
G01*
X115556158Y-120762199D02*
G75*
G02*
X114310000Y-119535000I1103842J2367199D01*
G01*
X117782795Y-116070816D02*
G75*
G02*
X118510000Y-116595000I-1122795J-2324184D01*
G01*
X118510000Y-120195000D02*
G75*
G02*
X117782795Y-120719184I-1850000J1800000D01*
G01*
%TO.C,R13*%
X94921400Y-96806000D02*
X94921400Y-103346000D01*
X94921400Y-103346000D02*
X97661400Y-103346000D01*
X96291400Y-96036000D02*
X96291400Y-96806000D01*
X96291400Y-104116000D02*
X96291400Y-103346000D01*
X97661400Y-96806000D02*
X94921400Y-96806000D01*
X97661400Y-103346000D02*
X97661400Y-96806000D01*
%TO.C,R5*%
X128520800Y-125399800D02*
X128520800Y-131939800D01*
X128520800Y-131939800D02*
X131260800Y-131939800D01*
X129890800Y-124629800D02*
X129890800Y-125399800D01*
X129890800Y-132709800D02*
X129890800Y-131939800D01*
X131260800Y-125399800D02*
X128520800Y-125399800D01*
X131260800Y-131939800D02*
X131260800Y-125399800D01*
%TO.C,R4*%
X94100800Y-118509800D02*
X94870800Y-118509800D01*
X94870800Y-117139800D02*
X94870800Y-119879800D01*
X94870800Y-119879800D02*
X101410800Y-119879800D01*
X101410800Y-117139800D02*
X94870800Y-117139800D01*
X101410800Y-119879800D02*
X101410800Y-117139800D01*
X102180800Y-118509800D02*
X101410800Y-118509800D01*
%TO.C,D2*%
X88030000Y-125075000D02*
X88030000Y-130515000D01*
X88030000Y-129495000D02*
X90970000Y-129495000D01*
X88030000Y-129615000D02*
X90970000Y-129615000D01*
X88030000Y-129735000D02*
X90970000Y-129735000D01*
X88030000Y-130515000D02*
X90970000Y-130515000D01*
X89500000Y-124055000D02*
X89500000Y-125075000D01*
X89500000Y-131535000D02*
X89500000Y-130515000D01*
X90970000Y-125075000D02*
X88030000Y-125075000D01*
X90970000Y-130515000D02*
X90970000Y-125075000D01*
%TO.C,Q2*%
X146284000Y-85845000D02*
X146284000Y-96085000D01*
X149415000Y-85845000D02*
X149415000Y-96085000D01*
X150925000Y-85845000D02*
X146284000Y-85845000D01*
X150925000Y-85845000D02*
X150925000Y-96085000D01*
X150925000Y-89115000D02*
X149415000Y-89115000D01*
X150925000Y-92816000D02*
X149415000Y-92816000D01*
X150925000Y-96085000D02*
X146284000Y-96085000D01*
%TD*%
M02*
