M48
; DRILL file {KiCad 8.0.4} date 2024-09-17T21:29:03-0700
; FORMAT={-:-/ absolute / inch / decimal}
; #@! TF.CreationDate,2024-09-17T21:29:03-07:00
; #@! TF.GenerationSoftware,Kicad,Pcbnew,8.0.4
; #@! TF.FileFunction,Plated,1,2,PTH
FMAT,2
INCH
; #@! TA.AperFunction,Plated,PTH,ViaDrill
T1C0.0118
; #@! TA.AperFunction,Plated,PTH,ComponentDrill
T2C0.0315
; #@! TA.AperFunction,Plated,PTH,ComponentDrill
T3C0.0330
; #@! TA.AperFunction,Plated,PTH,ComponentDrill
T4C0.0433
; #@! TA.AperFunction,Plated,PTH,ComponentDrill
T5C0.0472
; #@! TA.AperFunction,Plated,PTH,ComponentDrill
T6C0.0510
; #@! TA.AperFunction,Plated,PTH,ComponentDrill
T7C0.0787
; #@! TA.AperFunction,Plated,PTH,ComponentDrill
T8C0.1378
%
G90
G05
T1
X2.3307Y-3.8648
X2.4488Y-2.8963
X6.3937Y-2.6915
X6.8898Y-4.8766
T2
X1.9638Y-2.9407
X2.0013Y-5.075
X2.0426Y-2.9407
X2.08Y-5.075
X2.0992Y-3.2033
X2.2803Y-5.2152
X2.4992Y-3.2033
X2.6803Y-5.2152
X2.6819Y-5.0104
X2.856Y-3.254
X2.856Y-3.654
X3.0819Y-5.0104
X3.5388Y-4.1407
X3.5388Y-4.5407
X3.6638Y-4.6657
X3.6937Y-3.2939
X3.778Y-2.9183
X3.791Y-3.74
X3.791Y-4.14
X3.878Y-2.8183
X3.878Y-3.0183
X3.8976Y-4.8844
X3.8976Y-5.0844
X3.9976Y-4.9844
X4.0103Y-4.375
X4.0638Y-4.6657
X4.0937Y-3.2939
X4.1103Y-4.275
X4.1103Y-4.475
X4.2244Y-4.8451
X4.2244Y-5.0419
X4.2362Y-2.7427
X4.2362Y-2.9396
X4.3Y-3.675
X4.3Y-3.875
X4.34Y-3.3647
X4.4Y-3.775
X4.44Y-3.4647
X4.4929Y-4.6612
X4.5323Y-5.0065
X4.54Y-3.3647
X4.5929Y-4.5612
X4.5929Y-4.7612
X4.7874Y-2.6726
X4.7874Y-3.0726
X4.9323Y-5.0065
X4.9961Y-3.4199
X4.9961Y-3.8199
X5.0157Y-4.3577
X5.0157Y-4.7577
X5.0913Y-2.8096
X5.1138Y-4.8657
X5.1138Y-5.2657
X5.335Y-3.026
X5.335Y-3.426
X5.42Y-4.129
X5.42Y-4.529
X5.4913Y-2.8096
X6.116Y-3.9606
X6.116Y-4.1574
X6.4073Y-3.9535
X6.4073Y-4.1503
T3
X2.761Y-2.775
X2.781Y-4.615
X2.861Y-2.675
X2.861Y-2.875
X2.881Y-4.515
X2.881Y-4.715
T4
X3.2402Y-4.4258
X3.2402Y-4.8258
X3.2677Y-3.2502
X3.2677Y-3.6502
X3.3622Y-2.699
X3.3622Y-3.099
X3.5236Y-4.8313
X3.5236Y-5.2313
X5.718Y-2.714
X5.718Y-2.814
X5.718Y-2.914
X5.782Y-5.038
X5.782Y-5.138
X5.782Y-5.238
X5.8132Y-3.4813
X5.8132Y-3.5813
X5.8132Y-3.6813
X5.9724Y-4.3805
X5.9724Y-4.4805
X5.9724Y-4.5805
T5
X6.5601Y-3.1915
X6.7569Y-3.1915
T6
X1.9688Y-4.5314
X1.9688Y-4.7282
X3.002Y-3.9401
X3.002Y-4.137
X6.994Y-3.8741
X6.994Y-4.0709
T7
X6.2388Y-3.1907
X6.2388Y-4.9907
T8
X1.695Y-2.645
X1.695Y-5.29
X7.345Y-2.645
X7.345Y-5.29
M30
