M48
; DRILL file {KiCad 8.0.1} date 2024-09-17T13:25:49-0700
; FORMAT={-:-/ absolute / inch / decimal}
; #@! TF.CreationDate,2024-09-17T13:25:49-07:00
; #@! TF.GenerationSoftware,Kicad,Pcbnew,8.0.1
; #@! TF.FileFunction,Plated,1,2,PTH
FMAT,2
INCH
; #@! TA.AperFunction,Plated,PTH,ViaDrill
T1C0.0118
; #@! TA.AperFunction,Plated,PTH,ComponentDrill
T2C0.0295
; #@! TA.AperFunction,Plated,PTH,ComponentDrill
T3C0.0315
; #@! TA.AperFunction,Plated,PTH,ComponentDrill
T4C0.0330
; #@! TA.AperFunction,Plated,PTH,ComponentDrill
T5C0.0433
; #@! TA.AperFunction,Plated,PTH,ComponentDrill
T6C0.0472
; #@! TA.AperFunction,Plated,PTH,ComponentDrill
T7C0.0510
; #@! TA.AperFunction,Plated,PTH,ComponentDrill
T8C0.0787
; #@! TA.AperFunction,Plated,PTH,ComponentDrill
T9C0.1378
%
G90
G05
T1
X2.3307Y-3.8648
X2.4488Y-2.8963
X5.5906Y-4.6404
X5.685Y-3.4041
X6.3937Y-2.6915
X6.8898Y-4.8766
T2
X3.878Y-2.9183
X3.878Y-2.9683
X3.878Y-3.0183
X3.8976Y-4.8844
X3.8976Y-4.9344
X3.8976Y-4.9844
X4.3708Y-3.689
X4.3708Y-3.739
X4.3708Y-3.789
X4.45Y-3.36
X4.5Y-3.36
X4.5122Y-4.266
X4.5122Y-4.316
X4.5122Y-4.366
X4.55Y-3.36
X4.5929Y-4.6612
X4.5929Y-4.7112
X4.5929Y-4.7612
T3
X1.7963Y-5.04
X1.875Y-5.04
X1.9638Y-2.9407
X2.0426Y-2.9407
X2.0441Y-5.223
X2.0992Y-3.2033
X2.4441Y-5.223
X2.4992Y-3.2033
X2.6819Y-5.0104
X2.856Y-3.254
X2.856Y-3.654
X3.0819Y-5.0104
X3.2402Y-4.5258
X3.2402Y-4.8258
X3.2677Y-3.2502
X3.2677Y-3.5502
X3.3622Y-2.699
X3.3622Y-2.999
X3.5236Y-4.9313
X3.5236Y-5.2313
X3.5388Y-4.1407
X3.5388Y-4.5407
X3.6638Y-4.6657
X3.6937Y-3.2939
X3.791Y-3.74
X3.791Y-4.14
X4.0638Y-4.6657
X4.0937Y-3.2939
X4.2244Y-4.8451
X4.2244Y-5.0419
X4.2362Y-2.7427
X4.2362Y-2.9396
X4.5323Y-5.0065
X4.7874Y-2.6726
X4.7874Y-3.0726
X4.9323Y-5.0065
X4.9961Y-3.4199
X4.9961Y-3.8199
X5.0157Y-4.3577
X5.0157Y-4.7577
X5.0913Y-2.8096
X5.1138Y-4.8657
X5.1138Y-5.2657
X5.335Y-3.026
X5.335Y-3.426
X5.42Y-4.129
X5.42Y-4.529
X5.4913Y-2.8096
X6.116Y-3.9606
X6.116Y-4.1574
X6.4073Y-3.9535
X6.4073Y-4.1503
T4
X2.7826Y-4.6167
X2.8567Y-2.8654
X2.8826Y-4.5167
X2.8826Y-4.7167
X2.9567Y-2.7654
X3.0567Y-2.8654
T5
X5.718Y-2.714
X5.718Y-2.814
X5.718Y-2.914
X5.782Y-5.038
X5.782Y-5.138
X5.782Y-5.238
X5.8132Y-3.4813
X5.8132Y-3.5813
X5.8132Y-3.6813
X5.9724Y-4.3805
X5.9724Y-4.4805
X5.9724Y-4.5805
T6
X6.5601Y-3.1915
X6.7569Y-3.1915
T7
X1.9688Y-4.5314
X1.9688Y-4.7282
X3.002Y-3.9401
X3.002Y-4.137
X6.994Y-3.8741
X6.994Y-4.0709
T8
X6.2388Y-3.1907
X6.2388Y-4.9907
T9
X1.695Y-2.645
X1.695Y-5.29
X7.345Y-2.645
X7.345Y-5.29
M30
