%TF.GenerationSoftware,KiCad,Pcbnew,8.0.1*%
%TF.CreationDate,2024-09-17T13:26:04-07:00*%
%TF.ProjectId,Dorr_Amp_REV-,446f7272-5f41-46d7-905f-5245562d2e6b,-*%
%TF.SameCoordinates,Original*%
%TF.FileFunction,Copper,L1,Top*%
%TF.FilePolarity,Positive*%
%FSLAX46Y46*%
G04 Gerber Fmt 4.6, Leading zero omitted, Abs format (unit mm)*
G04 Created by KiCad (PCBNEW 8.0.1) date 2024-09-17 13:26:04*
%MOMM*%
%LPD*%
G01*
G04 APERTURE LIST*
%TA.AperFunction,ComponentPad*%
%ADD10R,1.050000X1.500000*%
%TD*%
%TA.AperFunction,ComponentPad*%
%ADD11O,1.050000X1.500000*%
%TD*%
%TA.AperFunction,ComponentPad*%
%ADD12C,1.600000*%
%TD*%
%TA.AperFunction,ComponentPad*%
%ADD13O,1.600000X1.600000*%
%TD*%
%TA.AperFunction,ComponentPad*%
%ADD14C,3.000000*%
%TD*%
%TA.AperFunction,ComponentPad*%
%ADD15C,7.000000*%
%TD*%
%TA.AperFunction,ComponentPad*%
%ADD16C,1.803400*%
%TD*%
%TA.AperFunction,ComponentPad*%
%ADD17R,1.600000X1.600000*%
%TD*%
%TA.AperFunction,ComponentPad*%
%ADD18R,2.000000X1.905000*%
%TD*%
%TA.AperFunction,ComponentPad*%
%ADD19O,2.000000X1.905000*%
%TD*%
%TA.AperFunction,ComponentPad*%
%ADD20R,1.346200X1.346200*%
%TD*%
%TA.AperFunction,ComponentPad*%
%ADD21C,1.346200*%
%TD*%
%TA.AperFunction,ComponentPad*%
%ADD22R,1.500000X1.050000*%
%TD*%
%TA.AperFunction,ComponentPad*%
%ADD23O,1.500000X1.050000*%
%TD*%
%TA.AperFunction,ComponentPad*%
%ADD24R,2.400000X2.400000*%
%TD*%
%TA.AperFunction,ComponentPad*%
%ADD25C,2.400000*%
%TD*%
%TA.AperFunction,ViaPad*%
%ADD26C,0.600000*%
%TD*%
%TA.AperFunction,Conductor*%
%ADD27C,0.200000*%
%TD*%
G04 APERTURE END LIST*
D10*
%TO.P,Q8,1,E*%
%TO.N,Net-(Q10-C)*%
X115570000Y-85344000D03*
D11*
%TO.P,Q8,2,B*%
%TO.N,Net-(D4-K)*%
X114300000Y-85344000D03*
%TO.P,Q8,3,C*%
%TO.N,Net-(Q10-B)*%
X113030000Y-85344000D03*
%TD*%
D12*
%TO.P,R8,1*%
%TO.N,Net-(D1-K)*%
X68120000Y-127265000D03*
D13*
%TO.P,R8,2*%
%TO.N,GND*%
X78280000Y-127265000D03*
%TD*%
D12*
%TO.P,R14,1*%
%TO.N,Net-(C8-Pad1)*%
X103980000Y-83665000D03*
D13*
%TO.P,R14,2*%
%TO.N,Net-(D3-K)*%
X93820000Y-83665000D03*
%TD*%
D14*
%TO.P,TP1,1,1*%
%TO.N,Net-(J1-Pin_2)*%
X158465800Y-126764800D03*
%TD*%
D12*
%TO.P,R12,1*%
%TO.N,Net-(D3-K)*%
X72542400Y-82651600D03*
D13*
%TO.P,R12,2*%
%TO.N,GND*%
X72542400Y-92811600D03*
%TD*%
D12*
%TO.P,C1,1*%
%TO.N,/18V*%
X155346400Y-100598001D03*
%TO.P,C1,2*%
%TO.N,GND*%
X155346400Y-105598001D03*
%TD*%
D15*
%TO.P,H1,1,1*%
%TO.N,GND*%
X43053000Y-67183000D03*
%TD*%
%TO.P,H3,1,1*%
%TO.N,GND*%
X43053000Y-134366000D03*
%TD*%
D12*
%TO.P,R15,1*%
%TO.N,Net-(Q2-B)*%
X126900000Y-86865000D03*
D13*
%TO.P,R15,2*%
%TO.N,/18V*%
X126900000Y-97025000D03*
%TD*%
D16*
%TO.P,J3,1,Pin_1*%
%TO.N,/18V*%
X76250800Y-105079800D03*
%TO.P,J3,2,Pin_2*%
%TO.N,GND*%
X76250800Y-100079800D03*
%TD*%
D15*
%TO.P,H4,1,1*%
%TO.N,GND*%
X186563000Y-134366000D03*
%TD*%
%TO.P,H2,1,1*%
%TO.N,GND*%
X186563000Y-67183000D03*
%TD*%
D12*
%TO.P,R3,1*%
%TO.N,Net-(Q1-E)*%
X127400000Y-110685000D03*
D13*
%TO.P,R3,2*%
%TO.N,Net-(J1-Pin_2)*%
X127400000Y-120845000D03*
%TD*%
D17*
%TO.P,C3,1*%
%TO.N,Net-(J2-Pin_1)*%
X45625000Y-128016000D03*
D12*
%TO.P,C3,2*%
%TO.N,Net-(C3-Pad2)*%
X47625000Y-128016000D03*
%TD*%
D18*
%TO.P,Q9,1,B*%
%TO.N,Net-(Q1-C)*%
X151700000Y-116345000D03*
D19*
%TO.P,Q9,2,C*%
%TO.N,Net-(Q1-E)*%
X151700000Y-113805000D03*
%TO.P,Q9,3,E*%
%TO.N,/18V*%
X151700000Y-111265000D03*
%TD*%
D20*
%TO.P,R11,1*%
%TO.N,Net-(D3-K)*%
X72560000Y-72782400D03*
D21*
%TO.P,R11,2*%
%TO.N,GND*%
X75100000Y-70242400D03*
%TO.P,R11,3*%
%TO.N,N/C*%
X77640000Y-72782400D03*
%TD*%
D12*
%TO.P,R2,1*%
%TO.N,Net-(Q1-C)*%
X137668000Y-115036600D03*
D13*
%TO.P,R2,2*%
%TO.N,/18V*%
X137668000Y-104876600D03*
%TD*%
D17*
%TO.P,C5,1*%
%TO.N,Net-(J2-Pin_2)*%
X49880800Y-74694800D03*
D12*
%TO.P,C5,2*%
%TO.N,Net-(C5-Pad2)*%
X51880800Y-74694800D03*
%TD*%
D22*
%TO.P,Q6,1,E*%
%TO.N,GND*%
X98500000Y-76665000D03*
D23*
%TO.P,Q6,2,B*%
%TO.N,Net-(D3-K)*%
X98500000Y-75395000D03*
%TO.P,Q6,3,C*%
%TO.N,Net-(D4-K)*%
X98500000Y-74125000D03*
%TD*%
D17*
%TO.P,D3,1,K*%
%TO.N,Net-(D3-K)*%
X83000000Y-82555000D03*
D13*
%TO.P,D3,2,A*%
%TO.N,Net-(D3-A)*%
X83000000Y-90175000D03*
%TD*%
D12*
%TO.P,C6,1*%
%TO.N,Net-(D4-K)*%
X107600000Y-69665000D03*
%TO.P,C6,2*%
%TO.N,GND*%
X107600000Y-74665000D03*
%TD*%
%TO.P,R10,1*%
%TO.N,Net-(D3-K)*%
X63480000Y-81365000D03*
D13*
%TO.P,R10,2*%
%TO.N,Net-(C5-Pad2)*%
X53320000Y-81365000D03*
%TD*%
D18*
%TO.P,Q5,1,B*%
%TO.N,Net-(Q4-C)*%
X146862800Y-133045200D03*
D19*
%TO.P,Q5,2,C*%
%TO.N,Net-(Q4-E)*%
X146862800Y-130505200D03*
%TO.P,Q5,3,E*%
%TO.N,GND*%
X146862800Y-127965200D03*
%TD*%
D12*
%TO.P,C4,1*%
%TO.N,Net-(D2-K)*%
X107300000Y-123065000D03*
%TO.P,C4,2*%
%TO.N,GND*%
X107300000Y-128065000D03*
%TD*%
%TO.P,R6,1*%
%TO.N,Net-(D1-K)*%
X62080000Y-132665000D03*
D13*
%TO.P,R6,2*%
%TO.N,Net-(C3-Pad2)*%
X51920000Y-132665000D03*
%TD*%
D18*
%TO.P,Q10,1,B*%
%TO.N,Net-(Q10-B)*%
X145237200Y-68935600D03*
D19*
%TO.P,Q10,2,C*%
%TO.N,Net-(Q10-C)*%
X145237200Y-71475600D03*
%TO.P,Q10,3,E*%
%TO.N,GND*%
X145237200Y-74015600D03*
%TD*%
D12*
%TO.P,C7,1*%
%TO.N,/18V*%
X162745600Y-100418201D03*
%TO.P,C7,2*%
%TO.N,GND*%
X162745600Y-105418201D03*
%TD*%
%TO.P,R16,1*%
%TO.N,Net-(Q10-B)*%
X129320000Y-71365000D03*
D13*
%TO.P,R16,2*%
%TO.N,GND*%
X139480000Y-71365000D03*
%TD*%
D17*
%TO.P,D1,1,K*%
%TO.N,Net-(D1-K)*%
X82300000Y-122575000D03*
D13*
%TO.P,D1,2,A*%
%TO.N,Net-(D1-A)*%
X82300000Y-114955000D03*
%TD*%
D12*
%TO.P,R9,1*%
%TO.N,Net-(Q4-C)*%
X125280000Y-127165000D03*
D13*
%TO.P,R9,2*%
%TO.N,GND*%
X115120000Y-127165000D03*
%TD*%
D16*
%TO.P,J1,1,Pin_1*%
%TO.N,Net-(J1-Pin_1)*%
X177647599Y-98401500D03*
%TO.P,J1,2,Pin_2*%
%TO.N,Net-(J1-Pin_2)*%
X177647599Y-103401500D03*
%TD*%
D12*
%TO.P,R18,1*%
%TO.N,Net-(C8-Pad1)*%
X121600000Y-78045000D03*
D13*
%TO.P,R18,2*%
%TO.N,Net-(Q10-C)*%
X121600000Y-67885000D03*
%TD*%
D20*
%TO.P,R7,1*%
%TO.N,Net-(D1-K)*%
X73217400Y-119805000D03*
D21*
%TO.P,R7,2*%
%TO.N,GND*%
X70677400Y-117265000D03*
%TO.P,R7,3*%
%TO.N,N/C*%
X73217400Y-114725000D03*
%TD*%
D22*
%TO.P,Q1,1,E*%
%TO.N,Net-(Q1-E)*%
X114609200Y-110896400D03*
D23*
%TO.P,Q1,2,B*%
%TO.N,Net-(D1-A)*%
X114609200Y-109626400D03*
%TO.P,Q1,3,C*%
%TO.N,Net-(Q1-C)*%
X114609200Y-108356400D03*
%TD*%
D12*
%TO.P,R17,1*%
%TO.N,Net-(Q2-C)*%
X135509000Y-87020400D03*
D13*
%TO.P,R17,2*%
%TO.N,Net-(C8-Pad1)*%
X135509000Y-76860400D03*
%TD*%
D14*
%TO.P,TP2,1,1*%
%TO.N,Net-(C8-Pad1)*%
X158465800Y-81044800D03*
%TD*%
D12*
%TO.P,R1,1*%
%TO.N,/18V*%
X89885800Y-105174800D03*
D13*
%TO.P,R1,2*%
%TO.N,Net-(D1-A)*%
X89885800Y-115334800D03*
%TD*%
D22*
%TO.P,Q7,1,E*%
%TO.N,Net-(Q2-C)*%
X111019000Y-93700600D03*
D23*
%TO.P,Q7,2,B*%
%TO.N,Net-(D3-A)*%
X111019000Y-94970600D03*
%TO.P,Q7,3,C*%
%TO.N,Net-(Q2-B)*%
X111019000Y-96240600D03*
%TD*%
D16*
%TO.P,J2,1,Pin_1*%
%TO.N,Net-(J2-Pin_1)*%
X50007800Y-120096400D03*
%TO.P,J2,2,Pin_2*%
%TO.N,Net-(J2-Pin_2)*%
X50007800Y-115096400D03*
%TD*%
D17*
%TO.P,D4,1,K*%
%TO.N,Net-(D4-K)*%
X85400000Y-68555000D03*
D13*
%TO.P,D4,2,A*%
%TO.N,Net-(D3-K)*%
X85400000Y-76175000D03*
%TD*%
D22*
%TO.P,Q3,1,E*%
%TO.N,GND*%
X99000000Y-124065000D03*
D23*
%TO.P,Q3,2,B*%
%TO.N,Net-(D1-K)*%
X99000000Y-125335000D03*
%TO.P,Q3,3,C*%
%TO.N,Net-(D2-K)*%
X99000000Y-126605000D03*
%TD*%
D24*
%TO.P,C8,1*%
%TO.N,Net-(C8-Pad1)*%
X166626041Y-81065000D03*
D25*
%TO.P,C8,2*%
%TO.N,Net-(J1-Pin_1)*%
X171626041Y-81065000D03*
%TD*%
D23*
%TO.P,Q4,3,C*%
%TO.N,Net-(Q4-C)*%
X116660000Y-118395000D03*
%TO.P,Q4,2,B*%
%TO.N,Net-(D2-K)*%
X116660000Y-119665000D03*
D22*
%TO.P,Q4,1,E*%
%TO.N,Net-(Q4-E)*%
X116660000Y-120935000D03*
%TD*%
D12*
%TO.P,R13,1*%
%TO.N,/18V*%
X96291400Y-105156000D03*
D13*
%TO.P,R13,2*%
%TO.N,Net-(D3-A)*%
X96291400Y-94996000D03*
%TD*%
D12*
%TO.P,R5,1*%
%TO.N,Net-(J1-Pin_2)*%
X129890800Y-123589800D03*
D13*
%TO.P,R5,2*%
%TO.N,Net-(Q4-E)*%
X129890800Y-133749800D03*
%TD*%
D12*
%TO.P,R4,1*%
%TO.N,Net-(J1-Pin_2)*%
X103220800Y-118509800D03*
D13*
%TO.P,R4,2*%
%TO.N,Net-(D1-K)*%
X93060800Y-118509800D03*
%TD*%
D17*
%TO.P,D2,1,K*%
%TO.N,Net-(D2-K)*%
X89500000Y-132875000D03*
D13*
%TO.P,D2,2,A*%
%TO.N,Net-(D1-K)*%
X89500000Y-125255000D03*
%TD*%
D18*
%TO.P,Q2,1,B*%
%TO.N,Net-(Q2-B)*%
X147655000Y-88425000D03*
D19*
%TO.P,Q2,2,C*%
%TO.N,Net-(Q2-C)*%
X147655000Y-90965000D03*
%TO.P,Q2,3,E*%
%TO.N,/18V*%
X147655000Y-93505000D03*
%TD*%
D26*
%TO.N,GND*%
X62200000Y-73565000D03*
X162400000Y-68365000D03*
X175000000Y-123865000D03*
X59200000Y-98165000D03*
X142000000Y-117865000D03*
X144400000Y-86465000D03*
%TD*%
D27*
%TO.N,Net-(Q2-B)*%
X139662200Y-90665000D02*
X141909800Y-88417400D01*
X134048200Y-90665000D02*
X139662200Y-90665000D01*
X130248200Y-86865000D02*
X134048200Y-90665000D01*
X126900000Y-86865000D02*
X130248200Y-86865000D01*
%TO.N,Net-(D4-K)*%
X98500000Y-74125000D02*
X98500000Y-72007800D01*
X98500000Y-72007800D02*
X95021400Y-68529200D01*
X95021400Y-68529200D02*
X85425800Y-68529200D01*
X85425800Y-68529200D02*
X85400000Y-68555000D01*
%TO.N,Net-(D1-K)*%
X73217400Y-121118000D02*
X73217400Y-119805000D01*
X71831200Y-122504200D02*
X73217400Y-121118000D01*
%TO.N,Net-(Q10-B)*%
X116300000Y-88165000D02*
X114300000Y-88165000D01*
X123400000Y-81065000D02*
X116300000Y-88165000D01*
X126400000Y-81065000D02*
X123400000Y-81065000D01*
X114300000Y-88165000D02*
X113030000Y-86895000D01*
X129320000Y-78145000D02*
X126400000Y-81065000D01*
X113030000Y-86895000D02*
X113030000Y-85344000D01*
X129320000Y-71365000D02*
X129320000Y-78145000D01*
%TO.N,Net-(Q2-C)*%
X133223000Y-87020400D02*
X135509000Y-87020400D01*
X129438400Y-83235800D02*
X133223000Y-87020400D01*
X125229200Y-83235800D02*
X129438400Y-83235800D01*
X114764400Y-93700600D02*
X125229200Y-83235800D01*
X111019000Y-93700600D02*
X114764400Y-93700600D01*
%TO.N,Net-(D4-K)*%
X110600000Y-81165000D02*
X110600000Y-72665000D01*
X114300000Y-84865000D02*
X110600000Y-81165000D01*
X110600000Y-72665000D02*
X107600000Y-69665000D01*
X114300000Y-85344000D02*
X114300000Y-84865000D01*
%TO.N,Net-(Q4-E)*%
X112500000Y-132365000D02*
X113884800Y-133749800D01*
X113884800Y-133749800D02*
X129890800Y-133749800D01*
X116660000Y-120935000D02*
X112500000Y-125095000D01*
X112500000Y-125095000D02*
X112500000Y-132365000D01*
%TO.N,Net-(Q4-C)*%
X125280000Y-124145000D02*
X125280000Y-127165000D01*
X119530000Y-118395000D02*
X125280000Y-124145000D01*
X116660000Y-118395000D02*
X119530000Y-118395000D01*
%TO.N,Net-(D2-K)*%
X110700000Y-119665000D02*
X116660000Y-119665000D01*
X107300000Y-123065000D02*
X110700000Y-119665000D01*
%TO.N,Net-(Q1-C)*%
X114609200Y-108356400D02*
X114736200Y-108483400D01*
X135305800Y-115036600D02*
X137668000Y-115036600D01*
X114736200Y-108483400D02*
X130327400Y-108483400D01*
X130327400Y-108483400D02*
X133248400Y-111404400D01*
X133248400Y-111404400D02*
X133248400Y-112979200D01*
X133248400Y-112979200D02*
X135305800Y-115036600D01*
%TO.N,Net-(J2-Pin_1)*%
X41910000Y-125230112D02*
X44695888Y-128016000D01*
X50007800Y-120096400D02*
X44876600Y-120096400D01*
X44876600Y-120096400D02*
X41910000Y-123063000D01*
X41910000Y-123063000D02*
X41910000Y-125230112D01*
X44695888Y-128016000D02*
X45625000Y-128016000D01*
%TO.N,Net-(D1-K)*%
X95870000Y-125335000D02*
X93060800Y-122525800D01*
X99000000Y-125335000D02*
X95870000Y-125335000D01*
X93060800Y-122525800D02*
X93060800Y-118509800D01*
X91355200Y-118509800D02*
X93060800Y-118509800D01*
X89500000Y-125255000D02*
X89500000Y-120365000D01*
X89500000Y-120365000D02*
X91355200Y-118509800D01*
%TO.N,Net-(Q10-B)*%
X145237200Y-68935600D02*
X131749400Y-68935600D01*
X131749400Y-68935600D02*
X129320000Y-71365000D01*
%TO.N,Net-(D4-K)*%
X102960000Y-69665000D02*
X98500000Y-74125000D01*
X107600000Y-69665000D02*
X102960000Y-69665000D01*
%TO.N,Net-(Q10-C)*%
X115570000Y-85344000D02*
X115570000Y-73915000D01*
X115570000Y-73915000D02*
X121600000Y-67885000D01*
%TO.N,Net-(D3-K)*%
X85400000Y-76175000D02*
X85400000Y-80155000D01*
X85400000Y-80155000D02*
X83000000Y-82555000D01*
X83000000Y-82555000D02*
X72639000Y-82555000D01*
X93820000Y-78283000D02*
X90932000Y-75395000D01*
X72542400Y-82651600D02*
X64766600Y-82651600D01*
X98500000Y-75395000D02*
X90932000Y-75395000D01*
X72639000Y-82555000D02*
X72542400Y-82651600D01*
X93820000Y-83665000D02*
X93820000Y-78283000D01*
X72542400Y-82651600D02*
X72542400Y-72800000D01*
X90932000Y-75395000D02*
X86180000Y-75395000D01*
X86180000Y-75395000D02*
X85400000Y-76175000D01*
X64766600Y-82651600D02*
X63480000Y-81365000D01*
X72542400Y-72800000D02*
X72560000Y-72782400D01*
%TO.N,Net-(D3-A)*%
X96291400Y-94996000D02*
X110993600Y-94996000D01*
X96291400Y-94996000D02*
X91470400Y-90175000D01*
X110993600Y-94996000D02*
X111019000Y-94970600D01*
X91470400Y-90175000D02*
X83000000Y-90175000D01*
%TO.N,Net-(C5-Pad2)*%
X53320000Y-76134000D02*
X51880800Y-74694800D01*
X53320000Y-81365000D02*
X53320000Y-76134000D01*
%TO.N,Net-(D1-K)*%
X82300000Y-122575000D02*
X86820000Y-122575000D01*
X86820000Y-122575000D02*
X89500000Y-125255000D01*
X68120000Y-126215400D02*
X71831200Y-122504200D01*
X62080000Y-132665000D02*
X62720000Y-132665000D01*
X71831200Y-122504200D02*
X82229200Y-122504200D01*
X68120000Y-127265000D02*
X68120000Y-126215400D01*
X82229200Y-122504200D02*
X82300000Y-122575000D01*
X62720000Y-132665000D02*
X68120000Y-127265000D01*
%TO.N,Net-(C3-Pad2)*%
X51920000Y-130279000D02*
X51920000Y-132665000D01*
X47625000Y-128016000D02*
X49657000Y-128016000D01*
X49657000Y-128016000D02*
X51920000Y-130279000D01*
%TO.N,Net-(D1-A)*%
X106553000Y-109550200D02*
X114533000Y-109550200D01*
X82679800Y-115334800D02*
X89885800Y-115334800D01*
X100768400Y-115334800D02*
X106553000Y-109550200D01*
X82300000Y-114955000D02*
X82679800Y-115334800D01*
X114533000Y-109550200D02*
X114609200Y-109626400D01*
X89885800Y-115334800D02*
X100768400Y-115334800D01*
%TO.N,Net-(Q1-C)*%
X151687000Y-116332000D02*
X151700000Y-116345000D01*
X143586200Y-115036600D02*
X144881600Y-116332000D01*
X137668000Y-115036600D02*
X143586200Y-115036600D01*
X144881600Y-116332000D02*
X151687000Y-116332000D01*
%TO.N,Net-(Q1-E)*%
X151712400Y-113817400D02*
X151700000Y-113805000D01*
X114609200Y-110896400D02*
X127188600Y-110896400D01*
X127188600Y-110896400D02*
X127400000Y-110685000D01*
%TO.N,Net-(Q2-B)*%
X141909800Y-88417400D02*
X147647400Y-88417400D01*
X147647400Y-88417400D02*
X147655000Y-88425000D01*
X111019000Y-96240600D02*
X115824000Y-96240600D01*
X115824000Y-96240600D02*
X125247400Y-86817200D01*
X126852200Y-86817200D02*
X126900000Y-86865000D01*
X125247400Y-86817200D02*
X126852200Y-86817200D01*
%TO.N,Net-(D4-K)*%
X114669600Y-84836000D02*
X114650800Y-84854800D01*
%TO.N,Net-(D2-K)*%
X103760000Y-126605000D02*
X107300000Y-123065000D01*
X89500000Y-132875000D02*
X92730000Y-132875000D01*
X99000000Y-126605000D02*
X103760000Y-126605000D01*
X92730000Y-132875000D02*
X99000000Y-126605000D01*
%TO.N,Net-(J2-Pin_2)*%
X49880800Y-114969400D02*
X50007800Y-115096400D01*
X49880800Y-74694800D02*
X49880800Y-114969400D01*
%TO.N,Net-(J1-Pin_2)*%
X107710000Y-114020600D02*
X120345200Y-114020600D01*
X103220800Y-118509800D02*
X107710000Y-114020600D01*
X127169600Y-120845000D02*
X127400000Y-120845000D01*
X120345200Y-114020600D02*
X127169600Y-120845000D01*
%TD*%
%TA.AperFunction,Conductor*%
%TO.N,GND*%
G36*
X39156503Y-135364996D02*
G01*
X39194277Y-135423774D01*
X39195584Y-135428580D01*
X39220623Y-135528545D01*
X39220624Y-135528548D01*
X39353016Y-135898559D01*
X39353023Y-135898575D01*
X39521062Y-136253864D01*
X39723109Y-136590958D01*
X39957228Y-136906632D01*
X40053068Y-137012376D01*
X40053069Y-137012376D01*
X41651381Y-135414064D01*
X41734457Y-135522331D01*
X41896669Y-135684543D01*
X42004934Y-135767617D01*
X40406622Y-137365929D01*
X40406622Y-137365930D01*
X40512367Y-137461771D01*
X40828041Y-137695890D01*
X41165135Y-137897937D01*
X41520423Y-138065976D01*
X41583508Y-138088548D01*
X41639997Y-138129667D01*
X41665289Y-138194799D01*
X41651352Y-138263264D01*
X41602613Y-138313327D01*
X41541734Y-138329300D01*
X39075300Y-138329300D01*
X39008261Y-138309615D01*
X38962506Y-138256811D01*
X38951300Y-138205300D01*
X38951300Y-135458709D01*
X38970985Y-135391670D01*
X39023789Y-135345915D01*
X39092947Y-135335971D01*
X39156503Y-135364996D01*
G37*
%TD.AperFunction*%
%TA.AperFunction,Conductor*%
G36*
X185368629Y-63149985D02*
G01*
X185414384Y-63202789D01*
X185424328Y-63271947D01*
X185395303Y-63335503D01*
X185343364Y-63371051D01*
X185030440Y-63483016D01*
X185030424Y-63483023D01*
X184675135Y-63651062D01*
X184338041Y-63853109D01*
X184022368Y-64087228D01*
X183916622Y-64183069D01*
X185514934Y-65781381D01*
X185406669Y-65864457D01*
X185244457Y-66026669D01*
X185161381Y-66134934D01*
X183563069Y-64536622D01*
X183467228Y-64642368D01*
X183233109Y-64958041D01*
X183031062Y-65295135D01*
X182863023Y-65650424D01*
X182863016Y-65650440D01*
X182730625Y-66020450D01*
X182635129Y-66401691D01*
X182577461Y-66790449D01*
X182558176Y-67183000D01*
X182577461Y-67575550D01*
X182635129Y-67964308D01*
X182730625Y-68345549D01*
X182863016Y-68715559D01*
X182863023Y-68715575D01*
X183031062Y-69070864D01*
X183233109Y-69407958D01*
X183467228Y-69723632D01*
X183563068Y-69829376D01*
X183563069Y-69829376D01*
X185161380Y-68231064D01*
X185244457Y-68339331D01*
X185406669Y-68501543D01*
X185514934Y-68584617D01*
X183916622Y-70182929D01*
X183916622Y-70182930D01*
X184022367Y-70278771D01*
X184338041Y-70512890D01*
X184675135Y-70714937D01*
X185030424Y-70882976D01*
X185030440Y-70882983D01*
X185400450Y-71015374D01*
X185781691Y-71110870D01*
X186170449Y-71168538D01*
X186563000Y-71187823D01*
X186955550Y-71168538D01*
X187344308Y-71110870D01*
X187725549Y-71015374D01*
X188095559Y-70882983D01*
X188095575Y-70882976D01*
X188450864Y-70714937D01*
X188787958Y-70512890D01*
X189103632Y-70278770D01*
X189209376Y-70182929D01*
X187611065Y-68584618D01*
X187719331Y-68501543D01*
X187881543Y-68339331D01*
X187964618Y-68231065D01*
X189562929Y-69829376D01*
X189658770Y-69723632D01*
X189892890Y-69407958D01*
X190094937Y-69070864D01*
X190262976Y-68715575D01*
X190262983Y-68715559D01*
X190395375Y-68345548D01*
X190395376Y-68345545D01*
X190436016Y-68183301D01*
X190471400Y-68123053D01*
X190533739Y-68091500D01*
X190603241Y-68098658D01*
X190657839Y-68142256D01*
X190680200Y-68208451D01*
X190680300Y-68213430D01*
X190680300Y-133335569D01*
X190660615Y-133402608D01*
X190607811Y-133448363D01*
X190538653Y-133458307D01*
X190475097Y-133429282D01*
X190437323Y-133370504D01*
X190436016Y-133365699D01*
X190395374Y-133203450D01*
X190262983Y-132833440D01*
X190262976Y-132833424D01*
X190094937Y-132478135D01*
X189892890Y-132141041D01*
X189658771Y-131825367D01*
X189562930Y-131719622D01*
X189562929Y-131719622D01*
X187964617Y-133317934D01*
X187881543Y-133209669D01*
X187719331Y-133047457D01*
X187611065Y-132964381D01*
X189209376Y-131366069D01*
X189209376Y-131366068D01*
X189103632Y-131270228D01*
X188787958Y-131036109D01*
X188450864Y-130834062D01*
X188095575Y-130666023D01*
X188095559Y-130666016D01*
X187725549Y-130533625D01*
X187344308Y-130438129D01*
X186955550Y-130380461D01*
X186563000Y-130361176D01*
X186170449Y-130380461D01*
X185781691Y-130438129D01*
X185400450Y-130533625D01*
X185030440Y-130666016D01*
X185030424Y-130666023D01*
X184675135Y-130834062D01*
X184338041Y-131036109D01*
X184022368Y-131270228D01*
X183916622Y-131366069D01*
X185514934Y-132964381D01*
X185406669Y-133047457D01*
X185244457Y-133209669D01*
X185161381Y-133317934D01*
X183563069Y-131719622D01*
X183467228Y-131825368D01*
X183233109Y-132141041D01*
X183031062Y-132478135D01*
X182863023Y-132833424D01*
X182863016Y-132833440D01*
X182730625Y-133203450D01*
X182635129Y-133584691D01*
X182577461Y-133973449D01*
X182558176Y-134366000D01*
X182577461Y-134758550D01*
X182635129Y-135147308D01*
X182730625Y-135528549D01*
X182863016Y-135898559D01*
X182863023Y-135898575D01*
X183031062Y-136253864D01*
X183233109Y-136590958D01*
X183467228Y-136906632D01*
X183563068Y-137012376D01*
X183563069Y-137012376D01*
X185161380Y-135414064D01*
X185244457Y-135522331D01*
X185406669Y-135684543D01*
X185514934Y-135767617D01*
X183916622Y-137365929D01*
X183916622Y-137365930D01*
X184022367Y-137461771D01*
X184338041Y-137695890D01*
X184675135Y-137897937D01*
X185030423Y-138065976D01*
X185093508Y-138088548D01*
X185149997Y-138129667D01*
X185175289Y-138194799D01*
X185161352Y-138263264D01*
X185112613Y-138313327D01*
X185051734Y-138329300D01*
X44564266Y-138329300D01*
X44497227Y-138309615D01*
X44451472Y-138256811D01*
X44441528Y-138187653D01*
X44470553Y-138124097D01*
X44522492Y-138088548D01*
X44585576Y-138065976D01*
X44940864Y-137897937D01*
X45277958Y-137695890D01*
X45593632Y-137461770D01*
X45699376Y-137365929D01*
X44101065Y-135767618D01*
X44209331Y-135684543D01*
X44371543Y-135522331D01*
X44454618Y-135414065D01*
X46052929Y-137012376D01*
X46148770Y-136906632D01*
X46382890Y-136590958D01*
X46584937Y-136253864D01*
X46752976Y-135898575D01*
X46752983Y-135898559D01*
X46885374Y-135528549D01*
X46980870Y-135147308D01*
X47038538Y-134758550D01*
X47057823Y-134366000D01*
X47038538Y-133973449D01*
X46980870Y-133584691D01*
X46885374Y-133203450D01*
X46752983Y-132833440D01*
X46752976Y-132833424D01*
X46584937Y-132478135D01*
X46382890Y-132141041D01*
X46148771Y-131825367D01*
X46052930Y-131719622D01*
X46052929Y-131719622D01*
X44454617Y-133317934D01*
X44371543Y-133209669D01*
X44209331Y-133047457D01*
X44101065Y-132964381D01*
X45699376Y-131366069D01*
X45699376Y-131366068D01*
X45593632Y-131270228D01*
X45277958Y-131036109D01*
X44940864Y-130834062D01*
X44585575Y-130666023D01*
X44585559Y-130666016D01*
X44215549Y-130533625D01*
X43834308Y-130438129D01*
X43445550Y-130380461D01*
X43053000Y-130361176D01*
X42660449Y-130380461D01*
X42271691Y-130438129D01*
X41890450Y-130533625D01*
X41520440Y-130666016D01*
X41520424Y-130666023D01*
X41165135Y-130834062D01*
X40828041Y-131036109D01*
X40512368Y-131270228D01*
X40406622Y-131366069D01*
X42004934Y-132964381D01*
X41896669Y-133047457D01*
X41734457Y-133209669D01*
X41651381Y-133317934D01*
X40053069Y-131719622D01*
X39957228Y-131825368D01*
X39723109Y-132141041D01*
X39521062Y-132478135D01*
X39353023Y-132833424D01*
X39353016Y-132833440D01*
X39220625Y-133203450D01*
X39195584Y-133303420D01*
X39160200Y-133363667D01*
X39097861Y-133395220D01*
X39028359Y-133388062D01*
X38973760Y-133344464D01*
X38951400Y-133278269D01*
X38951300Y-133273290D01*
X38951300Y-125309166D01*
X41309498Y-125309166D01*
X41309499Y-125309169D01*
X41332523Y-125395096D01*
X41350424Y-125461899D01*
X41361715Y-125481455D01*
X41361716Y-125481457D01*
X41429477Y-125598824D01*
X41429481Y-125598829D01*
X41548349Y-125717697D01*
X41548355Y-125717702D01*
X44288181Y-128457529D01*
X44321666Y-128518852D01*
X44324500Y-128545210D01*
X44324500Y-128863869D01*
X44324501Y-128863876D01*
X44330908Y-128923483D01*
X44381202Y-129058328D01*
X44381206Y-129058335D01*
X44467452Y-129173544D01*
X44467455Y-129173547D01*
X44582664Y-129259793D01*
X44582671Y-129259797D01*
X44717517Y-129310091D01*
X44717516Y-129310091D01*
X44724444Y-129310835D01*
X44777127Y-129316500D01*
X46472872Y-129316499D01*
X46532483Y-129310091D01*
X46667331Y-129259796D01*
X46782546Y-129173546D01*
X46789051Y-129164856D01*
X46844982Y-129122984D01*
X46914673Y-129117997D01*
X46959442Y-129137589D01*
X46972264Y-129146567D01*
X46972266Y-129146568D01*
X47178504Y-129242739D01*
X47398308Y-129301635D01*
X47560230Y-129315801D01*
X47624998Y-129321468D01*
X47625000Y-129321468D01*
X47625002Y-129321468D01*
X47681807Y-129316498D01*
X47851692Y-129301635D01*
X48071496Y-129242739D01*
X48277734Y-129146568D01*
X48464139Y-129016047D01*
X48625047Y-128855139D01*
X48755118Y-128669375D01*
X48809693Y-128625752D01*
X48856692Y-128616500D01*
X49356903Y-128616500D01*
X49423942Y-128636185D01*
X49444584Y-128652819D01*
X51283181Y-130491416D01*
X51316666Y-130552739D01*
X51319500Y-130579097D01*
X51319500Y-131433306D01*
X51299815Y-131500345D01*
X51266623Y-131534881D01*
X51080859Y-131664953D01*
X50919954Y-131825858D01*
X50789432Y-132012265D01*
X50789431Y-132012267D01*
X50693261Y-132218502D01*
X50693258Y-132218511D01*
X50634366Y-132438302D01*
X50634364Y-132438313D01*
X50614532Y-132664998D01*
X50614532Y-132665001D01*
X50634364Y-132891686D01*
X50634366Y-132891697D01*
X50693258Y-133111488D01*
X50693261Y-133111497D01*
X50789431Y-133317732D01*
X50789432Y-133317734D01*
X50919954Y-133504141D01*
X51080858Y-133665045D01*
X51080861Y-133665047D01*
X51267266Y-133795568D01*
X51473504Y-133891739D01*
X51693308Y-133950635D01*
X51855230Y-133964801D01*
X51919998Y-133970468D01*
X51920000Y-133970468D01*
X51920002Y-133970468D01*
X51976673Y-133965509D01*
X52146692Y-133950635D01*
X52366496Y-133891739D01*
X52572734Y-133795568D01*
X52759139Y-133665047D01*
X52920047Y-133504139D01*
X53050568Y-133317734D01*
X53146739Y-133111496D01*
X53205635Y-132891692D01*
X53225468Y-132665001D01*
X60774532Y-132665001D01*
X60794364Y-132891686D01*
X60794366Y-132891697D01*
X60853258Y-133111488D01*
X60853261Y-133111497D01*
X60949431Y-133317732D01*
X60949432Y-133317734D01*
X61079954Y-133504141D01*
X61240858Y-133665045D01*
X61240861Y-133665047D01*
X61427266Y-133795568D01*
X61633504Y-133891739D01*
X61853308Y-133950635D01*
X62015230Y-133964801D01*
X62079998Y-133970468D01*
X62080000Y-133970468D01*
X62080002Y-133970468D01*
X62136673Y-133965509D01*
X62306692Y-133950635D01*
X62526496Y-133891739D01*
X62732734Y-133795568D01*
X62919139Y-133665047D01*
X63080047Y-133504139D01*
X63210568Y-133317734D01*
X63306739Y-133111496D01*
X63365489Y-132892236D01*
X63397579Y-132836654D01*
X67677294Y-128556939D01*
X67738615Y-128523456D01*
X67797066Y-128524847D01*
X67816604Y-128530082D01*
X67893308Y-128550635D01*
X68055230Y-128564801D01*
X68119998Y-128570468D01*
X68120000Y-128570468D01*
X68120002Y-128570468D01*
X68176673Y-128565509D01*
X68346692Y-128550635D01*
X68566496Y-128491739D01*
X68772734Y-128395568D01*
X68959139Y-128265047D01*
X69120047Y-128104139D01*
X69250568Y-127917734D01*
X69346739Y-127711496D01*
X69405635Y-127491692D01*
X69425468Y-127265000D01*
X69424918Y-127258718D01*
X69416682Y-127164576D01*
X69405635Y-127038308D01*
X69399389Y-127014999D01*
X77001127Y-127014999D01*
X77001128Y-127015000D01*
X77964314Y-127015000D01*
X77959920Y-127019394D01*
X77907259Y-127110606D01*
X77880000Y-127212339D01*
X77880000Y-127317661D01*
X77907259Y-127419394D01*
X77959920Y-127510606D01*
X77964314Y-127515000D01*
X77001128Y-127515000D01*
X77053730Y-127711317D01*
X77053734Y-127711326D01*
X77149865Y-127917482D01*
X77280342Y-128103820D01*
X77441179Y-128264657D01*
X77627517Y-128395134D01*
X77833673Y-128491265D01*
X77833682Y-128491269D01*
X78029999Y-128543872D01*
X78030000Y-128543871D01*
X78030000Y-127580686D01*
X78034394Y-127585080D01*
X78125606Y-127637741D01*
X78227339Y-127665000D01*
X78332661Y-127665000D01*
X78434394Y-127637741D01*
X78525606Y-127585080D01*
X78530000Y-127580686D01*
X78530000Y-128543872D01*
X78726317Y-128491269D01*
X78726326Y-128491265D01*
X78932482Y-128395134D01*
X79118820Y-128264657D01*
X79279657Y-128103820D01*
X79410134Y-127917482D01*
X79506265Y-127711326D01*
X79506269Y-127711317D01*
X79558872Y-127515000D01*
X78595686Y-127515000D01*
X78600080Y-127510606D01*
X78652741Y-127419394D01*
X78680000Y-127317661D01*
X78680000Y-127212339D01*
X78652741Y-127110606D01*
X78600080Y-127019394D01*
X78595686Y-127015000D01*
X79558872Y-127015000D01*
X79558872Y-127014999D01*
X79506269Y-126818682D01*
X79506265Y-126818673D01*
X79410134Y-126612517D01*
X79279657Y-126426179D01*
X79118820Y-126265342D01*
X78932482Y-126134865D01*
X78726328Y-126038734D01*
X78530000Y-125986127D01*
X78530000Y-126949314D01*
X78525606Y-126944920D01*
X78434394Y-126892259D01*
X78332661Y-126865000D01*
X78227339Y-126865000D01*
X78125606Y-126892259D01*
X78034394Y-126944920D01*
X78030000Y-126949314D01*
X78030000Y-125986127D01*
X77833671Y-126038734D01*
X77627517Y-126134865D01*
X77441179Y-126265342D01*
X77280342Y-126426179D01*
X77149865Y-126612517D01*
X77053734Y-126818673D01*
X77053730Y-126818682D01*
X77001127Y-127014999D01*
X69399389Y-127014999D01*
X69357443Y-126858452D01*
X69346741Y-126818511D01*
X69346738Y-126818502D01*
X69325148Y-126772202D01*
X69250568Y-126612266D01*
X69120047Y-126425861D01*
X69120045Y-126425858D01*
X69027091Y-126332904D01*
X68993606Y-126271581D01*
X68998590Y-126201889D01*
X69027089Y-126157544D01*
X72043616Y-123141019D01*
X72104939Y-123107534D01*
X72131297Y-123104700D01*
X80875501Y-123104700D01*
X80942540Y-123124385D01*
X80988295Y-123177189D01*
X80999501Y-123228700D01*
X80999501Y-123422876D01*
X81005908Y-123482483D01*
X81056202Y-123617328D01*
X81056206Y-123617335D01*
X81142452Y-123732544D01*
X81142455Y-123732547D01*
X81257664Y-123818793D01*
X81257671Y-123818797D01*
X81392517Y-123869091D01*
X81392516Y-123869091D01*
X81399444Y-123869835D01*
X81452127Y-123875500D01*
X83147872Y-123875499D01*
X83207483Y-123869091D01*
X83342331Y-123818796D01*
X83457546Y-123732546D01*
X83543796Y-123617331D01*
X83594091Y-123482483D01*
X83600500Y-123422873D01*
X83600500Y-123299500D01*
X83620185Y-123232461D01*
X83672989Y-123186706D01*
X83724500Y-123175500D01*
X86519903Y-123175500D01*
X86586942Y-123195185D01*
X86607584Y-123211819D01*
X88208058Y-124812293D01*
X88241543Y-124873616D01*
X88240152Y-124932067D01*
X88214366Y-125028302D01*
X88214364Y-125028313D01*
X88194532Y-125254998D01*
X88194532Y-125255001D01*
X88214364Y-125481686D01*
X88214366Y-125481697D01*
X88273258Y-125701488D01*
X88273261Y-125701497D01*
X88359356Y-125886127D01*
X88369432Y-125907734D01*
X88411757Y-125968181D01*
X88499954Y-126094141D01*
X88660858Y-126255045D01*
X88660861Y-126255047D01*
X88847266Y-126385568D01*
X89053504Y-126481739D01*
X89273308Y-126540635D01*
X89435230Y-126554801D01*
X89499998Y-126560468D01*
X89500000Y-126560468D01*
X89500002Y-126560468D01*
X89556673Y-126555509D01*
X89726692Y-126540635D01*
X89946496Y-126481739D01*
X90152734Y-126385568D01*
X90339139Y-126255047D01*
X90500047Y-126094139D01*
X90630568Y-125907734D01*
X90726739Y-125701496D01*
X90785635Y-125481692D01*
X90805468Y-125255000D01*
X90804948Y-125249061D01*
X90796374Y-125151051D01*
X90785635Y-125028308D01*
X90733059Y-124832089D01*
X90726741Y-124808511D01*
X90726738Y-124808502D01*
X90630568Y-124602266D01*
X90500047Y-124415861D01*
X90500045Y-124415858D01*
X90339140Y-124254953D01*
X90153377Y-124124881D01*
X90109752Y-124070304D01*
X90100500Y-124023306D01*
X90100500Y-120665097D01*
X90120185Y-120598058D01*
X90136819Y-120577416D01*
X91567616Y-119146619D01*
X91628939Y-119113134D01*
X91655297Y-119110300D01*
X91829108Y-119110300D01*
X91896147Y-119129985D01*
X91930680Y-119163174D01*
X91979010Y-119232197D01*
X92060754Y-119348941D01*
X92221658Y-119509845D01*
X92221661Y-119509847D01*
X92407424Y-119639918D01*
X92451048Y-119694493D01*
X92460300Y-119741492D01*
X92460300Y-122439130D01*
X92460299Y-122439148D01*
X92460299Y-122604854D01*
X92460298Y-122604854D01*
X92499367Y-122750661D01*
X92501223Y-122757585D01*
X92514798Y-122781096D01*
X92520969Y-122791785D01*
X92520971Y-122791788D01*
X92580279Y-122894514D01*
X92580281Y-122894517D01*
X92699149Y-123013385D01*
X92699154Y-123013389D01*
X95501284Y-125815520D01*
X95501286Y-125815521D01*
X95501290Y-125815524D01*
X95623580Y-125886127D01*
X95638216Y-125894577D01*
X95790943Y-125935501D01*
X95790945Y-125935501D01*
X95956654Y-125935501D01*
X95956670Y-125935500D01*
X97757546Y-125935500D01*
X97824585Y-125955185D01*
X97870340Y-126007989D01*
X97880284Y-126077147D01*
X97868350Y-126113535D01*
X97868545Y-126113616D01*
X97867486Y-126116171D01*
X97866900Y-126117960D01*
X97866214Y-126119242D01*
X97788909Y-126305872D01*
X97788907Y-126305880D01*
X97749500Y-126503992D01*
X97749500Y-126706007D01*
X97786385Y-126891442D01*
X97780158Y-126961034D01*
X97752449Y-127003314D01*
X92517584Y-132238181D01*
X92456261Y-132271666D01*
X92429903Y-132274500D01*
X90924499Y-132274500D01*
X90857460Y-132254815D01*
X90811705Y-132202011D01*
X90800499Y-132150500D01*
X90800499Y-132027129D01*
X90800498Y-132027123D01*
X90800497Y-132027116D01*
X90794091Y-131967517D01*
X90750398Y-131850371D01*
X90743797Y-131832671D01*
X90743793Y-131832664D01*
X90657547Y-131717455D01*
X90657544Y-131717452D01*
X90542335Y-131631206D01*
X90542328Y-131631202D01*
X90407482Y-131580908D01*
X90407483Y-131580908D01*
X90347883Y-131574501D01*
X90347881Y-131574500D01*
X90347873Y-131574500D01*
X90347864Y-131574500D01*
X88652129Y-131574500D01*
X88652123Y-131574501D01*
X88592516Y-131580908D01*
X88457671Y-131631202D01*
X88457664Y-131631206D01*
X88342455Y-131717452D01*
X88342452Y-131717455D01*
X88256206Y-131832664D01*
X88256202Y-131832671D01*
X88205908Y-131967517D01*
X88199501Y-132027116D01*
X88199501Y-132027123D01*
X88199500Y-132027135D01*
X88199500Y-133722870D01*
X88199501Y-133722876D01*
X88205908Y-133782483D01*
X88256202Y-133917328D01*
X88256206Y-133917335D01*
X88342452Y-134032544D01*
X88342455Y-134032547D01*
X88457664Y-134118793D01*
X88457671Y-134118797D01*
X88592517Y-134169091D01*
X88592516Y-134169091D01*
X88599444Y-134169835D01*
X88652127Y-134175500D01*
X90347872Y-134175499D01*
X90407483Y-134169091D01*
X90542331Y-134118796D01*
X90657546Y-134032546D01*
X90743796Y-133917331D01*
X90794091Y-133782483D01*
X90800500Y-133722873D01*
X90800500Y-133599500D01*
X90820185Y-133532461D01*
X90872989Y-133486706D01*
X90924500Y-133475500D01*
X92643331Y-133475500D01*
X92643347Y-133475501D01*
X92650943Y-133475501D01*
X92809054Y-133475501D01*
X92809057Y-133475501D01*
X92961785Y-133434577D01*
X93054437Y-133381084D01*
X93098716Y-133355520D01*
X93210520Y-133243716D01*
X93210520Y-133243714D01*
X93220724Y-133233511D01*
X93220727Y-133233506D01*
X98389233Y-128065002D01*
X105995034Y-128065002D01*
X106014858Y-128291599D01*
X106014860Y-128291610D01*
X106073730Y-128511317D01*
X106073735Y-128511331D01*
X106169863Y-128717478D01*
X106220974Y-128790472D01*
X106900000Y-128111446D01*
X106900000Y-128117661D01*
X106927259Y-128219394D01*
X106979920Y-128310606D01*
X107054394Y-128385080D01*
X107145606Y-128437741D01*
X107247339Y-128465000D01*
X107253553Y-128465000D01*
X106574526Y-129144025D01*
X106647513Y-129195132D01*
X106647521Y-129195136D01*
X106853668Y-129291264D01*
X106853682Y-129291269D01*
X107073389Y-129350139D01*
X107073400Y-129350141D01*
X107299998Y-129369966D01*
X107300002Y-129369966D01*
X107526599Y-129350141D01*
X107526610Y-129350139D01*
X107746317Y-129291269D01*
X107746331Y-129291264D01*
X107952478Y-129195136D01*
X108025471Y-129144024D01*
X107346447Y-128465000D01*
X107352661Y-128465000D01*
X107454394Y-128437741D01*
X107545606Y-128385080D01*
X107620080Y-128310606D01*
X107672741Y-128219394D01*
X107700000Y-128117661D01*
X107700000Y-128111447D01*
X108379024Y-128790471D01*
X108430136Y-128717478D01*
X108526264Y-128511331D01*
X108526269Y-128511317D01*
X108585139Y-128291610D01*
X108585141Y-128291599D01*
X108604966Y-128065002D01*
X108604966Y-128064997D01*
X108585141Y-127838400D01*
X108585139Y-127838389D01*
X108526269Y-127618682D01*
X108526264Y-127618668D01*
X108430136Y-127412521D01*
X108430132Y-127412513D01*
X108379025Y-127339526D01*
X107700000Y-128018551D01*
X107700000Y-128012339D01*
X107672741Y-127910606D01*
X107620080Y-127819394D01*
X107545606Y-127744920D01*
X107454394Y-127692259D01*
X107352661Y-127665000D01*
X107346448Y-127665000D01*
X108025472Y-126985974D01*
X107952478Y-126934863D01*
X107746331Y-126838735D01*
X107746317Y-126838730D01*
X107526610Y-126779860D01*
X107526599Y-126779858D01*
X107300002Y-126760034D01*
X107299998Y-126760034D01*
X107073400Y-126779858D01*
X107073389Y-126779860D01*
X106853682Y-126838730D01*
X106853673Y-126838734D01*
X106647516Y-126934866D01*
X106647512Y-126934868D01*
X106574526Y-126985973D01*
X106574526Y-126985974D01*
X107253553Y-127665000D01*
X107247339Y-127665000D01*
X107145606Y-127692259D01*
X107054394Y-127744920D01*
X106979920Y-127819394D01*
X106927259Y-127910606D01*
X106900000Y-128012339D01*
X106900000Y-128018552D01*
X106220974Y-127339526D01*
X106220973Y-127339526D01*
X106169868Y-127412512D01*
X106169866Y-127412516D01*
X106073734Y-127618673D01*
X106073730Y-127618682D01*
X106014860Y-127838389D01*
X106014858Y-127838400D01*
X105995034Y-128064997D01*
X105995034Y-128065002D01*
X98389233Y-128065002D01*
X98787416Y-127666819D01*
X98848739Y-127633334D01*
X98875097Y-127630500D01*
X99326004Y-127630500D01*
X99326005Y-127630499D01*
X99524127Y-127591091D01*
X99710756Y-127513786D01*
X99878718Y-127401558D01*
X100021558Y-127258718D01*
X100021560Y-127258714D01*
X100025422Y-127254010D01*
X100026818Y-127255156D01*
X100073912Y-127215802D01*
X100123397Y-127205500D01*
X103673331Y-127205500D01*
X103673347Y-127205501D01*
X103680943Y-127205501D01*
X103839054Y-127205501D01*
X103839057Y-127205501D01*
X103991785Y-127164577D01*
X104041904Y-127135639D01*
X104128716Y-127085520D01*
X104240520Y-126973716D01*
X104240520Y-126973714D01*
X104250728Y-126963507D01*
X104250730Y-126963504D01*
X106857294Y-124356939D01*
X106918615Y-124323456D01*
X106977066Y-124324847D01*
X106996604Y-124330082D01*
X107073308Y-124350635D01*
X107235230Y-124364801D01*
X107299998Y-124370468D01*
X107300000Y-124370468D01*
X107300002Y-124370468D01*
X107361642Y-124365075D01*
X107526692Y-124350635D01*
X107746496Y-124291739D01*
X107952734Y-124195568D01*
X108139139Y-124065047D01*
X108300047Y-123904139D01*
X108430568Y-123717734D01*
X108526739Y-123511496D01*
X108585635Y-123291692D01*
X108605468Y-123065000D01*
X108585635Y-122838308D01*
X108559847Y-122742066D01*
X108561510Y-122672217D01*
X108591939Y-122622294D01*
X110912416Y-120301819D01*
X110973739Y-120268334D01*
X111000097Y-120265500D01*
X115285500Y-120265500D01*
X115352539Y-120285185D01*
X115398294Y-120337989D01*
X115409500Y-120389500D01*
X115409500Y-121284902D01*
X115389815Y-121351941D01*
X115373181Y-121372583D01*
X112019481Y-124726282D01*
X112019479Y-124726284D01*
X112000482Y-124759190D01*
X111991110Y-124775423D01*
X111958394Y-124832089D01*
X111940596Y-124862916D01*
X111940423Y-124863215D01*
X111899499Y-125015943D01*
X111899499Y-125015945D01*
X111899499Y-125184046D01*
X111899500Y-125184059D01*
X111899500Y-132278330D01*
X111899499Y-132278348D01*
X111899499Y-132444054D01*
X111899498Y-132444054D01*
X111904887Y-132464164D01*
X111940423Y-132596785D01*
X111940424Y-132596786D01*
X111953382Y-132619232D01*
X111953383Y-132619233D01*
X112019475Y-132733709D01*
X112019481Y-132733717D01*
X112138349Y-132852585D01*
X112138355Y-132852590D01*
X113399939Y-134114174D01*
X113399949Y-134114185D01*
X113404279Y-134118515D01*
X113404280Y-134118516D01*
X113516084Y-134230320D01*
X113552422Y-134251299D01*
X113602895Y-134280439D01*
X113602897Y-134280441D01*
X113640951Y-134302411D01*
X113653015Y-134309377D01*
X113805743Y-134350301D01*
X113805746Y-134350301D01*
X113971453Y-134350301D01*
X113971469Y-134350300D01*
X128659108Y-134350300D01*
X128726147Y-134369985D01*
X128760680Y-134403174D01*
X128846280Y-134525424D01*
X128890754Y-134588941D01*
X129051658Y-134749845D01*
X129051661Y-134749847D01*
X129238066Y-134880368D01*
X129444304Y-134976539D01*
X129664108Y-135035435D01*
X129826030Y-135049601D01*
X129890798Y-135055268D01*
X129890800Y-135055268D01*
X129890802Y-135055268D01*
X129947473Y-135050309D01*
X130117492Y-135035435D01*
X130337296Y-134976539D01*
X130543534Y-134880368D01*
X130729939Y-134749847D01*
X130890847Y-134588939D01*
X131021368Y-134402534D01*
X131117539Y-134196296D01*
X131157926Y-134045570D01*
X145362300Y-134045570D01*
X145362301Y-134045576D01*
X145368708Y-134105183D01*
X145419002Y-134240028D01*
X145419006Y-134240035D01*
X145505252Y-134355244D01*
X145505255Y-134355247D01*
X145620464Y-134441493D01*
X145620471Y-134441497D01*
X145755317Y-134491791D01*
X145755316Y-134491791D01*
X145762244Y-134492535D01*
X145814927Y-134498200D01*
X147910672Y-134498199D01*
X147970283Y-134491791D01*
X148105131Y-134441496D01*
X148220346Y-134355246D01*
X148306596Y-134240031D01*
X148356891Y-134105183D01*
X148363300Y-134045573D01*
X148363299Y-132044828D01*
X148356891Y-131985217D01*
X148350289Y-131967517D01*
X148306597Y-131850371D01*
X148306593Y-131850364D01*
X148220347Y-131735155D01*
X148220344Y-131735152D01*
X148105135Y-131648906D01*
X148105128Y-131648902D01*
X148077259Y-131638508D01*
X148021325Y-131596637D01*
X147996908Y-131531173D01*
X148011760Y-131462900D01*
X148020260Y-131449460D01*
X148153017Y-131266738D01*
X148256848Y-131062958D01*
X148327522Y-130845445D01*
X148363300Y-130619554D01*
X148363300Y-130390846D01*
X148327522Y-130164955D01*
X148327521Y-130164951D01*
X148327521Y-130164950D01*
X148256849Y-129947444D01*
X148256848Y-129947442D01*
X148153017Y-129743662D01*
X148018586Y-129558634D01*
X147856866Y-129396914D01*
X147771934Y-129335207D01*
X147729270Y-129279878D01*
X147723291Y-129210264D01*
X147755897Y-129148469D01*
X147771937Y-129134571D01*
X147856539Y-129073105D01*
X148018202Y-128911442D01*
X148152588Y-128726476D01*
X148256382Y-128522770D01*
X148327034Y-128305328D01*
X148341309Y-128215200D01*
X147353548Y-128215200D01*
X147375318Y-128177492D01*
X147412800Y-128037609D01*
X147412800Y-127892791D01*
X147375318Y-127752908D01*
X147353548Y-127715200D01*
X148341309Y-127715200D01*
X148327034Y-127625071D01*
X148256382Y-127407629D01*
X148152588Y-127203923D01*
X148018202Y-127018957D01*
X147856542Y-126857297D01*
X147729232Y-126764801D01*
X156460190Y-126764801D01*
X156480604Y-127050233D01*
X156541428Y-127329837D01*
X156541430Y-127329843D01*
X156541431Y-127329846D01*
X156618129Y-127535480D01*
X156641435Y-127597966D01*
X156778570Y-127849109D01*
X156778575Y-127849117D01*
X156950054Y-128078187D01*
X156950070Y-128078205D01*
X157152394Y-128280529D01*
X157152412Y-128280545D01*
X157381482Y-128452024D01*
X157381490Y-128452029D01*
X157632633Y-128589164D01*
X157632632Y-128589164D01*
X157632636Y-128589165D01*
X157632639Y-128589167D01*
X157900754Y-128689169D01*
X157900760Y-128689170D01*
X157900762Y-128689171D01*
X158180366Y-128749995D01*
X158180368Y-128749995D01*
X158180372Y-128749996D01*
X158434020Y-128768137D01*
X158465799Y-128770410D01*
X158465800Y-128770410D01*
X158465801Y-128770410D01*
X158494395Y-128768364D01*
X158751228Y-128749996D01*
X158900712Y-128717478D01*
X159030837Y-128689171D01*
X159030837Y-128689170D01*
X159030846Y-128689169D01*
X159298961Y-128589167D01*
X159550115Y-128452026D01*
X159779195Y-128280539D01*
X159981539Y-128078195D01*
X160153026Y-127849115D01*
X160290167Y-127597961D01*
X160390169Y-127329846D01*
X160450996Y-127050228D01*
X160470880Y-126772206D01*
X160471410Y-126764801D01*
X160471410Y-126764798D01*
X160467205Y-126706003D01*
X160450996Y-126479372D01*
X160439355Y-126425861D01*
X160390171Y-126199762D01*
X160390170Y-126199760D01*
X160390169Y-126199754D01*
X160290167Y-125931639D01*
X160277114Y-125907735D01*
X160153029Y-125680490D01*
X160153024Y-125680482D01*
X159981545Y-125451412D01*
X159981529Y-125451394D01*
X159779205Y-125249070D01*
X159779187Y-125249054D01*
X159550117Y-125077575D01*
X159550109Y-125077570D01*
X159298966Y-124940435D01*
X159298967Y-124940435D01*
X159124695Y-124875435D01*
X159030846Y-124840431D01*
X159030843Y-124840430D01*
X159030837Y-124840428D01*
X158751233Y-124779604D01*
X158465801Y-124759190D01*
X158465799Y-124759190D01*
X158180366Y-124779604D01*
X157900762Y-124840428D01*
X157632633Y-124940435D01*
X157381490Y-125077570D01*
X157381482Y-125077575D01*
X157152412Y-125249054D01*
X157152394Y-125249070D01*
X156950070Y-125451394D01*
X156950054Y-125451412D01*
X156778575Y-125680482D01*
X156778570Y-125680490D01*
X156641435Y-125931633D01*
X156541428Y-126199762D01*
X156480604Y-126479366D01*
X156460190Y-126764798D01*
X156460190Y-126764801D01*
X147729232Y-126764801D01*
X147671576Y-126722911D01*
X147467868Y-126619117D01*
X147250425Y-126548465D01*
X147250426Y-126548465D01*
X147112800Y-126526667D01*
X147112800Y-127474452D01*
X147075092Y-127452682D01*
X146935209Y-127415200D01*
X146790391Y-127415200D01*
X146650508Y-127452682D01*
X146612800Y-127474452D01*
X146612800Y-126526667D01*
X146475174Y-126548465D01*
X146257731Y-126619117D01*
X146054023Y-126722911D01*
X145869057Y-126857297D01*
X145707397Y-127018957D01*
X145573011Y-127203923D01*
X145469217Y-127407629D01*
X145398565Y-127625071D01*
X145384291Y-127715200D01*
X146372052Y-127715200D01*
X146350282Y-127752908D01*
X146312800Y-127892791D01*
X146312800Y-128037609D01*
X146350282Y-128177492D01*
X146372052Y-128215200D01*
X145384291Y-128215200D01*
X145398565Y-128305328D01*
X145469217Y-128522770D01*
X145573011Y-128726476D01*
X145707397Y-128911442D01*
X145869057Y-129073102D01*
X145869063Y-129073107D01*
X145953663Y-129134572D01*
X145996329Y-129189901D01*
X146002308Y-129259515D01*
X145969703Y-129321310D01*
X145953664Y-129335207D01*
X145868740Y-129396909D01*
X145868731Y-129396916D01*
X145707016Y-129558631D01*
X145707016Y-129558632D01*
X145707014Y-129558634D01*
X145649280Y-129638096D01*
X145572583Y-129743661D01*
X145468750Y-129947444D01*
X145398078Y-130164950D01*
X145398078Y-130164953D01*
X145362300Y-130390846D01*
X145362300Y-130619553D01*
X145398078Y-130845446D01*
X145398078Y-130845449D01*
X145468750Y-131062955D01*
X145468752Y-131062958D01*
X145572583Y-131266738D01*
X145705325Y-131449442D01*
X145728805Y-131515246D01*
X145712980Y-131583300D01*
X145662874Y-131631995D01*
X145648341Y-131638508D01*
X145620470Y-131648903D01*
X145620464Y-131648906D01*
X145505255Y-131735152D01*
X145505252Y-131735155D01*
X145419006Y-131850364D01*
X145419002Y-131850371D01*
X145368708Y-131985217D01*
X145364202Y-132027135D01*
X145362301Y-132044823D01*
X145362300Y-132044835D01*
X145362300Y-134045570D01*
X131157926Y-134045570D01*
X131176435Y-133976492D01*
X131196268Y-133749800D01*
X131193912Y-133722876D01*
X131183118Y-133599500D01*
X131176435Y-133523108D01*
X131126184Y-133335569D01*
X131117541Y-133303311D01*
X131117538Y-133303302D01*
X131028097Y-133111497D01*
X131021368Y-133097066D01*
X130890847Y-132910661D01*
X130890845Y-132910658D01*
X130729941Y-132749754D01*
X130543534Y-132619232D01*
X130543532Y-132619231D01*
X130337297Y-132523061D01*
X130337288Y-132523058D01*
X130117497Y-132464166D01*
X130117493Y-132464165D01*
X130117492Y-132464165D01*
X130117491Y-132464164D01*
X130117486Y-132464164D01*
X129890802Y-132444332D01*
X129890798Y-132444332D01*
X129664113Y-132464164D01*
X129664102Y-132464166D01*
X129444311Y-132523058D01*
X129444302Y-132523061D01*
X129238067Y-132619231D01*
X129238065Y-132619232D01*
X129051658Y-132749754D01*
X128890754Y-132910658D01*
X128814250Y-133019918D01*
X128760681Y-133096424D01*
X128706107Y-133140048D01*
X128659108Y-133149300D01*
X114184897Y-133149300D01*
X114117858Y-133129615D01*
X114097216Y-133112981D01*
X113136819Y-132152584D01*
X113103334Y-132091261D01*
X113100500Y-132064903D01*
X113100500Y-126914999D01*
X113841127Y-126914999D01*
X113841128Y-126915000D01*
X114804314Y-126915000D01*
X114799920Y-126919394D01*
X114747259Y-127010606D01*
X114720000Y-127112339D01*
X114720000Y-127217661D01*
X114747259Y-127319394D01*
X114799920Y-127410606D01*
X114804314Y-127415000D01*
X113841128Y-127415000D01*
X113893730Y-127611317D01*
X113893734Y-127611326D01*
X113989865Y-127817482D01*
X114120342Y-128003820D01*
X114281179Y-128164657D01*
X114467517Y-128295134D01*
X114673673Y-128391265D01*
X114673682Y-128391269D01*
X114869999Y-128443872D01*
X114870000Y-128443871D01*
X114870000Y-127480686D01*
X114874394Y-127485080D01*
X114965606Y-127537741D01*
X115067339Y-127565000D01*
X115172661Y-127565000D01*
X115274394Y-127537741D01*
X115365606Y-127485080D01*
X115370000Y-127480686D01*
X115370000Y-128443872D01*
X115566317Y-128391269D01*
X115566326Y-128391265D01*
X115772482Y-128295134D01*
X115958820Y-128164657D01*
X116119657Y-128003820D01*
X116250134Y-127817482D01*
X116346265Y-127611326D01*
X116346269Y-127611317D01*
X116398872Y-127415000D01*
X115435686Y-127415000D01*
X115440080Y-127410606D01*
X115492741Y-127319394D01*
X115520000Y-127217661D01*
X115520000Y-127112339D01*
X115492741Y-127010606D01*
X115440080Y-126919394D01*
X115435686Y-126915000D01*
X116398872Y-126915000D01*
X116398872Y-126914999D01*
X116346269Y-126718682D01*
X116346265Y-126718673D01*
X116250134Y-126512517D01*
X116119657Y-126326179D01*
X115958820Y-126165342D01*
X115772482Y-126034865D01*
X115566328Y-125938734D01*
X115370000Y-125886127D01*
X115370000Y-126849314D01*
X115365606Y-126844920D01*
X115274394Y-126792259D01*
X115172661Y-126765000D01*
X115067339Y-126765000D01*
X114965606Y-126792259D01*
X114874394Y-126844920D01*
X114870000Y-126849314D01*
X114870000Y-125886127D01*
X114673671Y-125938734D01*
X114467517Y-126034865D01*
X114281179Y-126165342D01*
X114120342Y-126326179D01*
X113989865Y-126512517D01*
X113893734Y-126718673D01*
X113893730Y-126718682D01*
X113841127Y-126914999D01*
X113100500Y-126914999D01*
X113100500Y-125395096D01*
X113120185Y-125328057D01*
X113136814Y-125307420D01*
X116447416Y-121996817D01*
X116508739Y-121963333D01*
X116535097Y-121960499D01*
X117457871Y-121960499D01*
X117457872Y-121960499D01*
X117517483Y-121954091D01*
X117652331Y-121903796D01*
X117767546Y-121817546D01*
X117853796Y-121702331D01*
X117904091Y-121567483D01*
X117910500Y-121507873D01*
X117910499Y-120362128D01*
X117904091Y-120302517D01*
X117897909Y-120285943D01*
X117853797Y-120167671D01*
X117853796Y-120167670D01*
X117853796Y-120167669D01*
X117852967Y-120166562D01*
X117852485Y-120165268D01*
X117849546Y-120159886D01*
X117850319Y-120159463D01*
X117828551Y-120101099D01*
X117837675Y-120044798D01*
X117871089Y-119964132D01*
X117871089Y-119964131D01*
X117871091Y-119964127D01*
X117910500Y-119766003D01*
X117910500Y-119563997D01*
X117871091Y-119365873D01*
X117793786Y-119179244D01*
X117793785Y-119179242D01*
X117793100Y-119177960D01*
X117792943Y-119177210D01*
X117791455Y-119173616D01*
X117792136Y-119173333D01*
X117778853Y-119109558D01*
X117803849Y-119044313D01*
X117860152Y-119002939D01*
X117902454Y-118995500D01*
X119229903Y-118995500D01*
X119296942Y-119015185D01*
X119317584Y-119031819D01*
X124643181Y-124357416D01*
X124676666Y-124418739D01*
X124679500Y-124445097D01*
X124679500Y-125933306D01*
X124659815Y-126000345D01*
X124626623Y-126034881D01*
X124440859Y-126164953D01*
X124279954Y-126325858D01*
X124149432Y-126512265D01*
X124149431Y-126512267D01*
X124053261Y-126718502D01*
X124053258Y-126718511D01*
X123994366Y-126938302D01*
X123994364Y-126938313D01*
X123974532Y-127164998D01*
X123974532Y-127165001D01*
X123994364Y-127391686D01*
X123994366Y-127391697D01*
X124053258Y-127611488D01*
X124053261Y-127611497D01*
X124149431Y-127817732D01*
X124149432Y-127817734D01*
X124279954Y-128004141D01*
X124440858Y-128165045D01*
X124440861Y-128165047D01*
X124627266Y-128295568D01*
X124833504Y-128391739D01*
X125053308Y-128450635D01*
X125215230Y-128464801D01*
X125279998Y-128470468D01*
X125280000Y-128470468D01*
X125280002Y-128470468D01*
X125342499Y-128465000D01*
X125506692Y-128450635D01*
X125726496Y-128391739D01*
X125932734Y-128295568D01*
X126119139Y-128165047D01*
X126280047Y-128004139D01*
X126410568Y-127817734D01*
X126506739Y-127611496D01*
X126565635Y-127391692D01*
X126585468Y-127165000D01*
X126565635Y-126938308D01*
X126506739Y-126718504D01*
X126410568Y-126512266D01*
X126280047Y-126325861D01*
X126280045Y-126325858D01*
X126119140Y-126164953D01*
X125933377Y-126034881D01*
X125889752Y-125980304D01*
X125880500Y-125933306D01*
X125880500Y-124234059D01*
X125880501Y-124234046D01*
X125880501Y-124065945D01*
X125880501Y-124065943D01*
X125839577Y-123913215D01*
X125785064Y-123818796D01*
X125760520Y-123776284D01*
X125648716Y-123664480D01*
X125644385Y-123660149D01*
X125644374Y-123660139D01*
X125574036Y-123589801D01*
X128585332Y-123589801D01*
X128605164Y-123816486D01*
X128605166Y-123816497D01*
X128664058Y-124036288D01*
X128664061Y-124036297D01*
X128760231Y-124242532D01*
X128760232Y-124242534D01*
X128890754Y-124428941D01*
X129051658Y-124589845D01*
X129051661Y-124589847D01*
X129238066Y-124720368D01*
X129444304Y-124816539D01*
X129664108Y-124875435D01*
X129826030Y-124889601D01*
X129890798Y-124895268D01*
X129890800Y-124895268D01*
X129890802Y-124895268D01*
X129947473Y-124890309D01*
X130117492Y-124875435D01*
X130337296Y-124816539D01*
X130543534Y-124720368D01*
X130729939Y-124589847D01*
X130890847Y-124428939D01*
X131021368Y-124242534D01*
X131117539Y-124036296D01*
X131176435Y-123816492D01*
X131196268Y-123589800D01*
X131176435Y-123363108D01*
X131119885Y-123152059D01*
X131117541Y-123143311D01*
X131117538Y-123143302D01*
X131116959Y-123142060D01*
X131021368Y-122937066D01*
X130890847Y-122750661D01*
X130890845Y-122750658D01*
X130729941Y-122589754D01*
X130543534Y-122459232D01*
X130543532Y-122459231D01*
X130337297Y-122363061D01*
X130337288Y-122363058D01*
X130117497Y-122304166D01*
X130117493Y-122304165D01*
X130117492Y-122304165D01*
X130117491Y-122304164D01*
X130117486Y-122304164D01*
X129890802Y-122284332D01*
X129890798Y-122284332D01*
X129664113Y-122304164D01*
X129664102Y-122304166D01*
X129444311Y-122363058D01*
X129444302Y-122363061D01*
X129238067Y-122459231D01*
X129238065Y-122459232D01*
X129051658Y-122589754D01*
X128890754Y-122750658D01*
X128760232Y-122937065D01*
X128760231Y-122937067D01*
X128664061Y-123143302D01*
X128664058Y-123143311D01*
X128605166Y-123363102D01*
X128605164Y-123363113D01*
X128585332Y-123589798D01*
X128585332Y-123589801D01*
X125574036Y-123589801D01*
X120017590Y-118033355D01*
X120017588Y-118033352D01*
X119898717Y-117914481D01*
X119898716Y-117914480D01*
X119799271Y-117857066D01*
X119799270Y-117857065D01*
X119761783Y-117835422D01*
X119705881Y-117820443D01*
X119609057Y-117794499D01*
X119450943Y-117794499D01*
X119443347Y-117794499D01*
X119443331Y-117794500D01*
X117783397Y-117794500D01*
X117716358Y-117774815D01*
X117686288Y-117745279D01*
X117685422Y-117745990D01*
X117681555Y-117741278D01*
X117538718Y-117598441D01*
X117370762Y-117486217D01*
X117370752Y-117486212D01*
X117184127Y-117408909D01*
X117184119Y-117408907D01*
X116986007Y-117369500D01*
X116986003Y-117369500D01*
X116333997Y-117369500D01*
X116333992Y-117369500D01*
X116135880Y-117408907D01*
X116135872Y-117408909D01*
X115949247Y-117486212D01*
X115949237Y-117486217D01*
X115781281Y-117598441D01*
X115638441Y-117741281D01*
X115526217Y-117909237D01*
X115526212Y-117909247D01*
X115448909Y-118095872D01*
X115448907Y-118095880D01*
X115409500Y-118293992D01*
X115409500Y-118496007D01*
X115448907Y-118694119D01*
X115448909Y-118694127D01*
X115526214Y-118880757D01*
X115526900Y-118882040D01*
X115527056Y-118882789D01*
X115528545Y-118886384D01*
X115527863Y-118886666D01*
X115541147Y-118950442D01*
X115516151Y-119015687D01*
X115459848Y-119057061D01*
X115417546Y-119064500D01*
X110779057Y-119064500D01*
X110620943Y-119064500D01*
X110468215Y-119105423D01*
X110468214Y-119105423D01*
X110468212Y-119105424D01*
X110468209Y-119105425D01*
X110418096Y-119134359D01*
X110418095Y-119134360D01*
X110396862Y-119146619D01*
X110331285Y-119184479D01*
X110331282Y-119184481D01*
X110219478Y-119296286D01*
X107742705Y-121773058D01*
X107681382Y-121806543D01*
X107622931Y-121805152D01*
X107526697Y-121779366D01*
X107526693Y-121779365D01*
X107526692Y-121779365D01*
X107526691Y-121779364D01*
X107526686Y-121779364D01*
X107300002Y-121759532D01*
X107299998Y-121759532D01*
X107073313Y-121779364D01*
X107073302Y-121779366D01*
X106853511Y-121838258D01*
X106853502Y-121838261D01*
X106647267Y-121934431D01*
X106647265Y-121934432D01*
X106460858Y-122064954D01*
X106299954Y-122225858D01*
X106169432Y-122412265D01*
X106169431Y-122412267D01*
X106073261Y-122618502D01*
X106073258Y-122618511D01*
X106014366Y-122838302D01*
X106014364Y-122838313D01*
X105994532Y-123064998D01*
X105994532Y-123065001D01*
X106014364Y-123291686D01*
X106014366Y-123291697D01*
X106040152Y-123387931D01*
X106038489Y-123457781D01*
X106008058Y-123507705D01*
X103547584Y-125968181D01*
X103486261Y-126001666D01*
X103459903Y-126004500D01*
X100242454Y-126004500D01*
X100175415Y-125984815D01*
X100129660Y-125932011D01*
X100119716Y-125862853D01*
X100131649Y-125826464D01*
X100131455Y-125826384D01*
X100132513Y-125823828D01*
X100133100Y-125822040D01*
X100133785Y-125820757D01*
X100133786Y-125820756D01*
X100211091Y-125634127D01*
X100250500Y-125436003D01*
X100250500Y-125233997D01*
X100211091Y-125035873D01*
X100177451Y-124954661D01*
X100169983Y-124885194D01*
X100189592Y-124840144D01*
X100189101Y-124839876D01*
X100192102Y-124834379D01*
X100192748Y-124832896D01*
X100193352Y-124832089D01*
X100243597Y-124697376D01*
X100243598Y-124697372D01*
X100249999Y-124637844D01*
X100250000Y-124637827D01*
X100250000Y-124315000D01*
X99365866Y-124315000D01*
X99341674Y-124312617D01*
X99326004Y-124309500D01*
X99326003Y-124309500D01*
X99285830Y-124309500D01*
X99300075Y-124295255D01*
X99349444Y-124209745D01*
X99375000Y-124114370D01*
X99375000Y-124015630D01*
X99349444Y-123920255D01*
X99300075Y-123834745D01*
X99280330Y-123815000D01*
X100250000Y-123815000D01*
X100250000Y-123492172D01*
X100249999Y-123492155D01*
X100243598Y-123432627D01*
X100243596Y-123432620D01*
X100193354Y-123297913D01*
X100193350Y-123297906D01*
X100107190Y-123182812D01*
X100107187Y-123182809D01*
X99992093Y-123096649D01*
X99992086Y-123096645D01*
X99857379Y-123046403D01*
X99857372Y-123046401D01*
X99797844Y-123040000D01*
X99250000Y-123040000D01*
X99250000Y-123784670D01*
X99230255Y-123764925D01*
X99144745Y-123715556D01*
X99049370Y-123690000D01*
X98950630Y-123690000D01*
X98855255Y-123715556D01*
X98769745Y-123764925D01*
X98750000Y-123784670D01*
X98750000Y-123040000D01*
X98202155Y-123040000D01*
X98142627Y-123046401D01*
X98142620Y-123046403D01*
X98007913Y-123096645D01*
X98007906Y-123096649D01*
X97892812Y-123182809D01*
X97892809Y-123182812D01*
X97806649Y-123297906D01*
X97806645Y-123297913D01*
X97756403Y-123432620D01*
X97756401Y-123432627D01*
X97750000Y-123492155D01*
X97750000Y-123815000D01*
X98719670Y-123815000D01*
X98699925Y-123834745D01*
X98650556Y-123920255D01*
X98625000Y-124015630D01*
X98625000Y-124114370D01*
X98650556Y-124209745D01*
X98699925Y-124295255D01*
X98714170Y-124309500D01*
X98673997Y-124309500D01*
X98673996Y-124309500D01*
X98658326Y-124312617D01*
X98634134Y-124315000D01*
X97750000Y-124315000D01*
X97750000Y-124610500D01*
X97730315Y-124677539D01*
X97677511Y-124723294D01*
X97626000Y-124734500D01*
X96170098Y-124734500D01*
X96103059Y-124714815D01*
X96082417Y-124698181D01*
X93697619Y-122313383D01*
X93664134Y-122252060D01*
X93661300Y-122225702D01*
X93661300Y-119741492D01*
X93680985Y-119674453D01*
X93714174Y-119639919D01*
X93899939Y-119509847D01*
X94060847Y-119348939D01*
X94191368Y-119162534D01*
X94287539Y-118956296D01*
X94346435Y-118736492D01*
X94366268Y-118509801D01*
X101915332Y-118509801D01*
X101935164Y-118736486D01*
X101935166Y-118736497D01*
X101994058Y-118956288D01*
X101994061Y-118956297D01*
X102090231Y-119162532D01*
X102090232Y-119162534D01*
X102220754Y-119348941D01*
X102381658Y-119509845D01*
X102381661Y-119509847D01*
X102568066Y-119640368D01*
X102774304Y-119736539D01*
X102994108Y-119795435D01*
X103156030Y-119809601D01*
X103220798Y-119815268D01*
X103220800Y-119815268D01*
X103220802Y-119815268D01*
X103277473Y-119810309D01*
X103447492Y-119795435D01*
X103667296Y-119736539D01*
X103873534Y-119640368D01*
X104059939Y-119509847D01*
X104220847Y-119348939D01*
X104351368Y-119162534D01*
X104447539Y-118956296D01*
X104506435Y-118736492D01*
X104526268Y-118509800D01*
X104506435Y-118283108D01*
X104480647Y-118186866D01*
X104482310Y-118117017D01*
X104512739Y-118067094D01*
X107922417Y-114657419D01*
X107983740Y-114623934D01*
X108010098Y-114621100D01*
X120045103Y-114621100D01*
X120112142Y-114640785D01*
X120132784Y-114657419D01*
X126071813Y-120596448D01*
X126105298Y-120657771D01*
X126107660Y-120694936D01*
X126094532Y-120844997D01*
X126094532Y-120845001D01*
X126114364Y-121071686D01*
X126114366Y-121071697D01*
X126173258Y-121291488D01*
X126173261Y-121291497D01*
X126269431Y-121497732D01*
X126269432Y-121497734D01*
X126399954Y-121684141D01*
X126560858Y-121845045D01*
X126560861Y-121845047D01*
X126747266Y-121975568D01*
X126953504Y-122071739D01*
X127173308Y-122130635D01*
X127335230Y-122144801D01*
X127399998Y-122150468D01*
X127400000Y-122150468D01*
X127400002Y-122150468D01*
X127456673Y-122145509D01*
X127626692Y-122130635D01*
X127846496Y-122071739D01*
X128052734Y-121975568D01*
X128239139Y-121845047D01*
X128400047Y-121684139D01*
X128530568Y-121497734D01*
X128626739Y-121291496D01*
X128685635Y-121071692D01*
X128705468Y-120845000D01*
X128704649Y-120835644D01*
X128694570Y-120720435D01*
X128685635Y-120618308D01*
X128626739Y-120398504D01*
X128530568Y-120192266D01*
X128400047Y-120005861D01*
X128400045Y-120005858D01*
X128239141Y-119844954D01*
X128052734Y-119714432D01*
X128052732Y-119714431D01*
X127846497Y-119618261D01*
X127846488Y-119618258D01*
X127626697Y-119559366D01*
X127626693Y-119559365D01*
X127626692Y-119559365D01*
X127626691Y-119559364D01*
X127626686Y-119559364D01*
X127400002Y-119539532D01*
X127399998Y-119539532D01*
X127173313Y-119559364D01*
X127173302Y-119559366D01*
X126953511Y-119618258D01*
X126953497Y-119618263D01*
X126922116Y-119632897D01*
X126853039Y-119643389D01*
X126789255Y-119614869D01*
X126782031Y-119608196D01*
X120832790Y-113658955D01*
X120832788Y-113658952D01*
X120713917Y-113540081D01*
X120713916Y-113540080D01*
X120627104Y-113489960D01*
X120627104Y-113489959D01*
X120627100Y-113489958D01*
X120576985Y-113461023D01*
X120424257Y-113420099D01*
X120266143Y-113420099D01*
X120258547Y-113420099D01*
X120258531Y-113420100D01*
X107796670Y-113420100D01*
X107796654Y-113420099D01*
X107789058Y-113420099D01*
X107630943Y-113420099D01*
X107554579Y-113440561D01*
X107478214Y-113461023D01*
X107478209Y-113461026D01*
X107341290Y-113540075D01*
X107341282Y-113540081D01*
X103663505Y-117217858D01*
X103602182Y-117251343D01*
X103543731Y-117249952D01*
X103447497Y-117224166D01*
X103447493Y-117224165D01*
X103447492Y-117224165D01*
X103447491Y-117224164D01*
X103447486Y-117224164D01*
X103220802Y-117204332D01*
X103220798Y-117204332D01*
X102994113Y-117224164D01*
X102994102Y-117224166D01*
X102774311Y-117283058D01*
X102774302Y-117283061D01*
X102568067Y-117379231D01*
X102568065Y-117379232D01*
X102381658Y-117509754D01*
X102220754Y-117670658D01*
X102090232Y-117857065D01*
X102090231Y-117857067D01*
X101994061Y-118063302D01*
X101994058Y-118063311D01*
X101935166Y-118283102D01*
X101935164Y-118283113D01*
X101915332Y-118509798D01*
X101915332Y-118509801D01*
X94366268Y-118509801D01*
X94366268Y-118509800D01*
X94346435Y-118283108D01*
X94287539Y-118063304D01*
X94191368Y-117857066D01*
X94060847Y-117670661D01*
X94060845Y-117670658D01*
X93899941Y-117509754D01*
X93713534Y-117379232D01*
X93713532Y-117379231D01*
X93507297Y-117283061D01*
X93507288Y-117283058D01*
X93287497Y-117224166D01*
X93287493Y-117224165D01*
X93287492Y-117224165D01*
X93287491Y-117224164D01*
X93287486Y-117224164D01*
X93060802Y-117204332D01*
X93060798Y-117204332D01*
X92834113Y-117224164D01*
X92834102Y-117224166D01*
X92614311Y-117283058D01*
X92614302Y-117283061D01*
X92408067Y-117379231D01*
X92408065Y-117379232D01*
X92221658Y-117509754D01*
X92060754Y-117670658D01*
X91987824Y-117774815D01*
X91930681Y-117856424D01*
X91876107Y-117900048D01*
X91829108Y-117909300D01*
X91441869Y-117909300D01*
X91441853Y-117909299D01*
X91434257Y-117909299D01*
X91276143Y-117909299D01*
X91168787Y-117938065D01*
X91123410Y-117950224D01*
X91123409Y-117950225D01*
X91073296Y-117979159D01*
X91073295Y-117979160D01*
X91029889Y-118004220D01*
X90986485Y-118029279D01*
X90986482Y-118029281D01*
X90020264Y-118995500D01*
X89131286Y-119884478D01*
X89131284Y-119884480D01*
X89075382Y-119940381D01*
X89019481Y-119996282D01*
X89019480Y-119996284D01*
X89007322Y-120017343D01*
X88940423Y-120133215D01*
X88899499Y-120285943D01*
X88899499Y-120285945D01*
X88899499Y-120454046D01*
X88899500Y-120454059D01*
X88899500Y-123505903D01*
X88879815Y-123572942D01*
X88827011Y-123618697D01*
X88757853Y-123628641D01*
X88694297Y-123599616D01*
X88687819Y-123593584D01*
X87307590Y-122213355D01*
X87307588Y-122213352D01*
X87188717Y-122094481D01*
X87188716Y-122094480D01*
X87101904Y-122044360D01*
X87101904Y-122044359D01*
X87101900Y-122044358D01*
X87051785Y-122015423D01*
X86899057Y-121974499D01*
X86740943Y-121974499D01*
X86733347Y-121974499D01*
X86733331Y-121974500D01*
X83724499Y-121974500D01*
X83657460Y-121954815D01*
X83611705Y-121902011D01*
X83600499Y-121850500D01*
X83600499Y-121727129D01*
X83600498Y-121727123D01*
X83600497Y-121727116D01*
X83594091Y-121667517D01*
X83556780Y-121567482D01*
X83543797Y-121532671D01*
X83543793Y-121532664D01*
X83457547Y-121417455D01*
X83457544Y-121417452D01*
X83342335Y-121331206D01*
X83342328Y-121331202D01*
X83207482Y-121280908D01*
X83207483Y-121280908D01*
X83147883Y-121274501D01*
X83147881Y-121274500D01*
X83147873Y-121274500D01*
X83147864Y-121274500D01*
X81452129Y-121274500D01*
X81452123Y-121274501D01*
X81392516Y-121280908D01*
X81257671Y-121331202D01*
X81257664Y-121331206D01*
X81142455Y-121417452D01*
X81142452Y-121417455D01*
X81056206Y-121532664D01*
X81056202Y-121532671D01*
X81005908Y-121667517D01*
X80999501Y-121727116D01*
X80999501Y-121727123D01*
X80999500Y-121727135D01*
X80999500Y-121779700D01*
X80979815Y-121846739D01*
X80927011Y-121892494D01*
X80875500Y-121903700D01*
X73580296Y-121903700D01*
X73513257Y-121884015D01*
X73467502Y-121831211D01*
X73457558Y-121762053D01*
X73486583Y-121698497D01*
X73492596Y-121692037D01*
X73575909Y-121608724D01*
X73575914Y-121608721D01*
X73586114Y-121598520D01*
X73586116Y-121598520D01*
X73697920Y-121486716D01*
X73756704Y-121384899D01*
X73776977Y-121349785D01*
X73817901Y-121197057D01*
X73817901Y-121102587D01*
X73837586Y-121035548D01*
X73890390Y-120989793D01*
X73935289Y-120978763D01*
X73938349Y-120978599D01*
X73938372Y-120978599D01*
X73997983Y-120972191D01*
X74132831Y-120921896D01*
X74248046Y-120835646D01*
X74334296Y-120720431D01*
X74384591Y-120585583D01*
X74391000Y-120525973D01*
X74390999Y-119084028D01*
X74384591Y-119024417D01*
X74376580Y-119002939D01*
X74334297Y-118889571D01*
X74334293Y-118889564D01*
X74248047Y-118774355D01*
X74248044Y-118774352D01*
X74132835Y-118688106D01*
X74132828Y-118688102D01*
X73997982Y-118637808D01*
X73997983Y-118637808D01*
X73938383Y-118631401D01*
X73938381Y-118631400D01*
X73938373Y-118631400D01*
X73938364Y-118631400D01*
X72496429Y-118631400D01*
X72496423Y-118631401D01*
X72436816Y-118637808D01*
X72301971Y-118688102D01*
X72301964Y-118688106D01*
X72186755Y-118774352D01*
X72186752Y-118774355D01*
X72100506Y-118889564D01*
X72100502Y-118889571D01*
X72050208Y-119024417D01*
X72045899Y-119064500D01*
X72043801Y-119084023D01*
X72043800Y-119084035D01*
X72043800Y-120525970D01*
X72043801Y-120525976D01*
X72050208Y-120585583D01*
X72100502Y-120720428D01*
X72100506Y-120720435D01*
X72186752Y-120835644D01*
X72186755Y-120835647D01*
X72301964Y-120921893D01*
X72301973Y-120921898D01*
X72312228Y-120925723D01*
X72368162Y-120967593D01*
X72392580Y-121033057D01*
X72377729Y-121101331D01*
X72356577Y-121129586D01*
X71462486Y-122023678D01*
X67639481Y-125846682D01*
X67639480Y-125846684D01*
X67604233Y-125907734D01*
X67590435Y-125931633D01*
X67560422Y-125983615D01*
X67542506Y-126050475D01*
X67506140Y-126110134D01*
X67475148Y-126130755D01*
X67467270Y-126134429D01*
X67467264Y-126134432D01*
X67280858Y-126264954D01*
X67119954Y-126425858D01*
X66989432Y-126612265D01*
X66989431Y-126612267D01*
X66893261Y-126818502D01*
X66893258Y-126818511D01*
X66834366Y-127038302D01*
X66834364Y-127038313D01*
X66814532Y-127264998D01*
X66814532Y-127265001D01*
X66834364Y-127491686D01*
X66834366Y-127491697D01*
X66860152Y-127587931D01*
X66858489Y-127657781D01*
X66828058Y-127707705D01*
X62964286Y-131571477D01*
X62902963Y-131604962D01*
X62833271Y-131599978D01*
X62805485Y-131585373D01*
X62732734Y-131534432D01*
X62691590Y-131515246D01*
X62526497Y-131438261D01*
X62526488Y-131438258D01*
X62306697Y-131379366D01*
X62306693Y-131379365D01*
X62306692Y-131379365D01*
X62306691Y-131379364D01*
X62306686Y-131379364D01*
X62080002Y-131359532D01*
X62079998Y-131359532D01*
X61853313Y-131379364D01*
X61853302Y-131379366D01*
X61633511Y-131438258D01*
X61633502Y-131438261D01*
X61427267Y-131534431D01*
X61427265Y-131534432D01*
X61240858Y-131664954D01*
X61079954Y-131825858D01*
X60949432Y-132012265D01*
X60949431Y-132012267D01*
X60853261Y-132218502D01*
X60853258Y-132218511D01*
X60794366Y-132438302D01*
X60794364Y-132438313D01*
X60774532Y-132664998D01*
X60774532Y-132665001D01*
X53225468Y-132665001D01*
X53225468Y-132665000D01*
X53205635Y-132438308D01*
X53146739Y-132218504D01*
X53050568Y-132012266D01*
X52924814Y-131832669D01*
X52920045Y-131825858D01*
X52759140Y-131664953D01*
X52573377Y-131534881D01*
X52529752Y-131480304D01*
X52520500Y-131433306D01*
X52520500Y-130199946D01*
X52520500Y-130199943D01*
X52520189Y-130198780D01*
X52479577Y-130047215D01*
X52450639Y-129997095D01*
X52400520Y-129910284D01*
X52288716Y-129798480D01*
X52288715Y-129798479D01*
X52284385Y-129794149D01*
X52284374Y-129794139D01*
X50144590Y-127654355D01*
X50144588Y-127654352D01*
X50025717Y-127535481D01*
X50025716Y-127535480D01*
X49930487Y-127480500D01*
X49888785Y-127456423D01*
X49736057Y-127415499D01*
X49577943Y-127415499D01*
X49570347Y-127415499D01*
X49570331Y-127415500D01*
X48856692Y-127415500D01*
X48789653Y-127395815D01*
X48755119Y-127362625D01*
X48625047Y-127176861D01*
X48625045Y-127176858D01*
X48464141Y-127015954D01*
X48277734Y-126885432D01*
X48277732Y-126885431D01*
X48071497Y-126789261D01*
X48071488Y-126789258D01*
X47851697Y-126730366D01*
X47851693Y-126730365D01*
X47851692Y-126730365D01*
X47851691Y-126730364D01*
X47851686Y-126730364D01*
X47625002Y-126710532D01*
X47624998Y-126710532D01*
X47398313Y-126730364D01*
X47398302Y-126730366D01*
X47178511Y-126789258D01*
X47178502Y-126789261D01*
X46972267Y-126885431D01*
X46972262Y-126885434D01*
X46959435Y-126894415D01*
X46893227Y-126916738D01*
X46825461Y-126899722D01*
X46789052Y-126867145D01*
X46782545Y-126858453D01*
X46782544Y-126858452D01*
X46667335Y-126772206D01*
X46667328Y-126772202D01*
X46532482Y-126721908D01*
X46532483Y-126721908D01*
X46472883Y-126715501D01*
X46472881Y-126715500D01*
X46472873Y-126715500D01*
X46472864Y-126715500D01*
X44777129Y-126715500D01*
X44777123Y-126715501D01*
X44717516Y-126721908D01*
X44582671Y-126772202D01*
X44582664Y-126772206D01*
X44507787Y-126828259D01*
X44442323Y-126852676D01*
X44374050Y-126837824D01*
X44345796Y-126816673D01*
X43467857Y-125938734D01*
X42546819Y-125017695D01*
X42513334Y-124956372D01*
X42510500Y-124930014D01*
X42510500Y-123363097D01*
X42530185Y-123296058D01*
X42546819Y-123275416D01*
X45089016Y-120733219D01*
X45150339Y-120699734D01*
X45176697Y-120696900D01*
X48659059Y-120696900D01*
X48726098Y-120716585D01*
X48768115Y-120761885D01*
X48770376Y-120766064D01*
X48872188Y-120921897D01*
X48897475Y-120960601D01*
X49054861Y-121131568D01*
X49054864Y-121131570D01*
X49054867Y-121131573D01*
X49238232Y-121274292D01*
X49238238Y-121274296D01*
X49238241Y-121274298D01*
X49442612Y-121384899D01*
X49662400Y-121460352D01*
X49891610Y-121498600D01*
X50123990Y-121498600D01*
X50353200Y-121460352D01*
X50572988Y-121384899D01*
X50777359Y-121274298D01*
X50960739Y-121131568D01*
X51118125Y-120960601D01*
X51245225Y-120766061D01*
X51338571Y-120553254D01*
X51395616Y-120327986D01*
X51408900Y-120167671D01*
X51414806Y-120096405D01*
X51414806Y-120096394D01*
X51402012Y-119942009D01*
X51395616Y-119864814D01*
X51338571Y-119639546D01*
X51245225Y-119426739D01*
X51245222Y-119426735D01*
X51118126Y-119232201D01*
X51118125Y-119232199D01*
X50960739Y-119061232D01*
X50960734Y-119061228D01*
X50960732Y-119061226D01*
X50777367Y-118918507D01*
X50777361Y-118918503D01*
X50572988Y-118807901D01*
X50572980Y-118807898D01*
X50353202Y-118732448D01*
X50123990Y-118694200D01*
X49891610Y-118694200D01*
X49662397Y-118732448D01*
X49442619Y-118807898D01*
X49442611Y-118807901D01*
X49238238Y-118918503D01*
X49238232Y-118918507D01*
X49054867Y-119061226D01*
X49054864Y-119061229D01*
X49054861Y-119061231D01*
X49054861Y-119061232D01*
X49033877Y-119084027D01*
X48897476Y-119232197D01*
X48897473Y-119232201D01*
X48770376Y-119426735D01*
X48768115Y-119430915D01*
X48718897Y-119480507D01*
X48659059Y-119495900D01*
X44963269Y-119495900D01*
X44963253Y-119495899D01*
X44955657Y-119495899D01*
X44797543Y-119495899D01*
X44717610Y-119517317D01*
X44644816Y-119536822D01*
X44605770Y-119559366D01*
X44605769Y-119559365D01*
X44507887Y-119615877D01*
X44507882Y-119615881D01*
X41429481Y-122694282D01*
X41429480Y-122694284D01*
X41392934Y-122757585D01*
X41379361Y-122781094D01*
X41379359Y-122781096D01*
X41350425Y-122831209D01*
X41350424Y-122831210D01*
X41348522Y-122838308D01*
X41309499Y-122983943D01*
X41309499Y-122983945D01*
X41309499Y-123152046D01*
X41309500Y-123152059D01*
X41309500Y-125143442D01*
X41309499Y-125143460D01*
X41309499Y-125309166D01*
X41309498Y-125309166D01*
X38951300Y-125309166D01*
X38951300Y-117265000D01*
X69499274Y-117265000D01*
X69519333Y-117481475D01*
X69578831Y-117690591D01*
X69675738Y-117885205D01*
X69687743Y-117901101D01*
X70260491Y-117328355D01*
X70286861Y-117426766D01*
X70342037Y-117522333D01*
X70420067Y-117600363D01*
X70515634Y-117655539D01*
X70614044Y-117681908D01*
X70043611Y-118252339D01*
X70152263Y-118319614D01*
X70152264Y-118319615D01*
X70354988Y-118398150D01*
X70568698Y-118438100D01*
X70786102Y-118438100D01*
X70999816Y-118398149D01*
X71202535Y-118319615D01*
X71202539Y-118319613D01*
X71311186Y-118252340D01*
X71311186Y-118252339D01*
X70740756Y-117681908D01*
X70839166Y-117655539D01*
X70934733Y-117600363D01*
X71012763Y-117522333D01*
X71067939Y-117426766D01*
X71094308Y-117328356D01*
X71667053Y-117901101D01*
X71667055Y-117901101D01*
X71679062Y-117885203D01*
X71775968Y-117690591D01*
X71835466Y-117481475D01*
X71855526Y-117265000D01*
X71855526Y-117264999D01*
X71835466Y-117048524D01*
X71775968Y-116839408D01*
X71679062Y-116644796D01*
X71679059Y-116644792D01*
X71667054Y-116628896D01*
X71094308Y-117201643D01*
X71067939Y-117103234D01*
X71012763Y-117007667D01*
X70934733Y-116929637D01*
X70839166Y-116874461D01*
X70740755Y-116848091D01*
X71311187Y-116277659D01*
X71202537Y-116210385D01*
X71202535Y-116210384D01*
X70999811Y-116131849D01*
X70786102Y-116091900D01*
X70568698Y-116091900D01*
X70354988Y-116131849D01*
X70152266Y-116210383D01*
X70152260Y-116210386D01*
X70043612Y-116277658D01*
X70043611Y-116277659D01*
X70614044Y-116848091D01*
X70515634Y-116874461D01*
X70420067Y-116929637D01*
X70342037Y-117007667D01*
X70286861Y-117103234D01*
X70260491Y-117201643D01*
X69687744Y-116628896D01*
X69675741Y-116644790D01*
X69675733Y-116644803D01*
X69578831Y-116839408D01*
X69519333Y-117048524D01*
X69499274Y-117264999D01*
X69499274Y-117265000D01*
X38951300Y-117265000D01*
X38951300Y-75542670D01*
X48580300Y-75542670D01*
X48580301Y-75542676D01*
X48586708Y-75602283D01*
X48637002Y-75737128D01*
X48637006Y-75737135D01*
X48723252Y-75852344D01*
X48723255Y-75852347D01*
X48838464Y-75938593D01*
X48838471Y-75938597D01*
X48869417Y-75950139D01*
X48973317Y-75988891D01*
X49032927Y-75995300D01*
X49156300Y-75995299D01*
X49223339Y-76014983D01*
X49269094Y-76067787D01*
X49280300Y-76119299D01*
X49280300Y-113825146D01*
X49260615Y-113892185D01*
X49232462Y-113922999D01*
X49054867Y-114061226D01*
X49054864Y-114061229D01*
X48897476Y-114232197D01*
X48897473Y-114232201D01*
X48770375Y-114426737D01*
X48677029Y-114639545D01*
X48619983Y-114864817D01*
X48600794Y-115096394D01*
X48600794Y-115096405D01*
X48619983Y-115327982D01*
X48677029Y-115553254D01*
X48770375Y-115766062D01*
X48881009Y-115935398D01*
X48897475Y-115960601D01*
X49054861Y-116131568D01*
X49054864Y-116131570D01*
X49054867Y-116131573D01*
X49238232Y-116274292D01*
X49238238Y-116274296D01*
X49238241Y-116274298D01*
X49442612Y-116384899D01*
X49662400Y-116460352D01*
X49891610Y-116498600D01*
X50123990Y-116498600D01*
X50353200Y-116460352D01*
X50572988Y-116384899D01*
X50777359Y-116274298D01*
X50791441Y-116263338D01*
X50859477Y-116210383D01*
X50960739Y-116131568D01*
X51118125Y-115960601D01*
X51245225Y-115766061D01*
X51338571Y-115553254D01*
X51395616Y-115327986D01*
X51407738Y-115181697D01*
X51414806Y-115096405D01*
X51414806Y-115096394D01*
X51395616Y-114864817D01*
X51395616Y-114864814D01*
X51360211Y-114725000D01*
X72038772Y-114725000D01*
X72058839Y-114941571D01*
X72058840Y-114941574D01*
X72118359Y-115150765D01*
X72118362Y-115150771D01*
X72185209Y-115285017D01*
X72215310Y-115345468D01*
X72346383Y-115519037D01*
X72507118Y-115665565D01*
X72692040Y-115780065D01*
X72894853Y-115858635D01*
X73108650Y-115898600D01*
X73108653Y-115898600D01*
X73326147Y-115898600D01*
X73326150Y-115898600D01*
X73539947Y-115858635D01*
X73742760Y-115780065D01*
X73927682Y-115665565D01*
X74088417Y-115519037D01*
X74219490Y-115345468D01*
X74316438Y-115150770D01*
X74316438Y-115150767D01*
X74316440Y-115150765D01*
X74372139Y-114955001D01*
X80994532Y-114955001D01*
X81014364Y-115181686D01*
X81014366Y-115181697D01*
X81073258Y-115401488D01*
X81073261Y-115401497D01*
X81169431Y-115607732D01*
X81169432Y-115607734D01*
X81299954Y-115794141D01*
X81460858Y-115955045D01*
X81468789Y-115960598D01*
X81647266Y-116085568D01*
X81853504Y-116181739D01*
X82073308Y-116240635D01*
X82235230Y-116254801D01*
X82299998Y-116260468D01*
X82300000Y-116260468D01*
X82300002Y-116260468D01*
X82356673Y-116255509D01*
X82526692Y-116240635D01*
X82746496Y-116181739D01*
X82952734Y-116085568D01*
X83131206Y-115960602D01*
X83135315Y-115957725D01*
X83201522Y-115935398D01*
X83206438Y-115935300D01*
X88654108Y-115935300D01*
X88721147Y-115954985D01*
X88755680Y-115988174D01*
X88789620Y-116036645D01*
X88885754Y-116173941D01*
X89046658Y-116334845D01*
X89046661Y-116334847D01*
X89233066Y-116465368D01*
X89439304Y-116561539D01*
X89659108Y-116620435D01*
X89821030Y-116634601D01*
X89885798Y-116640268D01*
X89885800Y-116640268D01*
X89885802Y-116640268D01*
X89942473Y-116635309D01*
X90112492Y-116620435D01*
X90332296Y-116561539D01*
X90538534Y-116465368D01*
X90724939Y-116334847D01*
X90885847Y-116173939D01*
X91015918Y-115988175D01*
X91070493Y-115944552D01*
X91117492Y-115935300D01*
X100681731Y-115935300D01*
X100681747Y-115935301D01*
X100689343Y-115935301D01*
X100847454Y-115935301D01*
X100847457Y-115935301D01*
X101000185Y-115894377D01*
X101050304Y-115865439D01*
X101137116Y-115815320D01*
X101248920Y-115703516D01*
X101248920Y-115703514D01*
X101259128Y-115693307D01*
X101259129Y-115693304D01*
X106765417Y-110187019D01*
X106826740Y-110153534D01*
X106853098Y-110150700D01*
X113239235Y-110150700D01*
X113306274Y-110170385D01*
X113352029Y-110223189D01*
X113362524Y-110287952D01*
X113358700Y-110323527D01*
X113358700Y-110323531D01*
X113358700Y-110323532D01*
X113358700Y-111469270D01*
X113358701Y-111469276D01*
X113365108Y-111528883D01*
X113415402Y-111663728D01*
X113415406Y-111663735D01*
X113501652Y-111778944D01*
X113501655Y-111778947D01*
X113616864Y-111865193D01*
X113616871Y-111865197D01*
X113751717Y-111915491D01*
X113751716Y-111915491D01*
X113758644Y-111916235D01*
X113811327Y-111921900D01*
X115407072Y-111921899D01*
X115466683Y-111915491D01*
X115601531Y-111865196D01*
X115716746Y-111778946D01*
X115802996Y-111663731D01*
X115820494Y-111616816D01*
X115835134Y-111577566D01*
X115877006Y-111521633D01*
X115942470Y-111497216D01*
X115951316Y-111496900D01*
X126321352Y-111496900D01*
X126388391Y-111516585D01*
X126409028Y-111533214D01*
X126492630Y-111616816D01*
X126560862Y-111685048D01*
X126654063Y-111750307D01*
X126747266Y-111815568D01*
X126953504Y-111911739D01*
X126953509Y-111911740D01*
X126953511Y-111911741D01*
X127006415Y-111925916D01*
X127173308Y-111970635D01*
X127335230Y-111984801D01*
X127399998Y-111990468D01*
X127400000Y-111990468D01*
X127400002Y-111990468D01*
X127456673Y-111985509D01*
X127626692Y-111970635D01*
X127846496Y-111911739D01*
X128052734Y-111815568D01*
X128239139Y-111685047D01*
X128400047Y-111524139D01*
X128530568Y-111337734D01*
X128626739Y-111131496D01*
X128685635Y-110911692D01*
X128705468Y-110685000D01*
X128685635Y-110458308D01*
X128626739Y-110238504D01*
X128530568Y-110032266D01*
X128400047Y-109845861D01*
X128400045Y-109845858D01*
X128239141Y-109684954D01*
X128052734Y-109554432D01*
X128052732Y-109554431D01*
X127846497Y-109458261D01*
X127846488Y-109458258D01*
X127626697Y-109399366D01*
X127626693Y-109399365D01*
X127626692Y-109399365D01*
X127626691Y-109399364D01*
X127626686Y-109399364D01*
X127400002Y-109379532D01*
X127399998Y-109379532D01*
X127173313Y-109399364D01*
X127173302Y-109399366D01*
X126953511Y-109458258D01*
X126953502Y-109458261D01*
X126747267Y-109554431D01*
X126747265Y-109554432D01*
X126560858Y-109684954D01*
X126399954Y-109845858D01*
X126269432Y-110032265D01*
X126269431Y-110032267D01*
X126179882Y-110224305D01*
X126133709Y-110276744D01*
X126067500Y-110295900D01*
X115951315Y-110295900D01*
X115884276Y-110276215D01*
X115838521Y-110223411D01*
X115835133Y-110215233D01*
X115802997Y-110129071D01*
X115802996Y-110129070D01*
X115802996Y-110129069D01*
X115802167Y-110127962D01*
X115801685Y-110126668D01*
X115798746Y-110121286D01*
X115799519Y-110120863D01*
X115777751Y-110062499D01*
X115786875Y-110006198D01*
X115820289Y-109925532D01*
X115820289Y-109925531D01*
X115820291Y-109925527D01*
X115859700Y-109727403D01*
X115859700Y-109525397D01*
X115820291Y-109327273D01*
X115790499Y-109255351D01*
X115783031Y-109185884D01*
X115814306Y-109123405D01*
X115874394Y-109087752D01*
X115905061Y-109083900D01*
X130027303Y-109083900D01*
X130094342Y-109103585D01*
X130114984Y-109120219D01*
X132611581Y-111616816D01*
X132645066Y-111678139D01*
X132647900Y-111704497D01*
X132647900Y-112892530D01*
X132647899Y-112892548D01*
X132647899Y-113058254D01*
X132647898Y-113058254D01*
X132688823Y-113210987D01*
X132708705Y-113245421D01*
X132708706Y-113245424D01*
X132767875Y-113347909D01*
X132767881Y-113347917D01*
X132886749Y-113466785D01*
X132886755Y-113466790D01*
X134820939Y-115400974D01*
X134820949Y-115400985D01*
X134825279Y-115405315D01*
X134825280Y-115405316D01*
X134937084Y-115517120D01*
X135013939Y-115561492D01*
X135074015Y-115596177D01*
X135226743Y-115637101D01*
X135226746Y-115637101D01*
X135392453Y-115637101D01*
X135392469Y-115637100D01*
X136436308Y-115637100D01*
X136503347Y-115656785D01*
X136537880Y-115689974D01*
X136591157Y-115766062D01*
X136667954Y-115875741D01*
X136828858Y-116036645D01*
X136828861Y-116036647D01*
X137015266Y-116167168D01*
X137221504Y-116263339D01*
X137441308Y-116322235D01*
X137585441Y-116334845D01*
X137667998Y-116342068D01*
X137668000Y-116342068D01*
X137668002Y-116342068D01*
X137724673Y-116337109D01*
X137894692Y-116322235D01*
X138114496Y-116263339D01*
X138320734Y-116167168D01*
X138507139Y-116036647D01*
X138668047Y-115875739D01*
X138798118Y-115689975D01*
X138852693Y-115646352D01*
X138899692Y-115637100D01*
X143286103Y-115637100D01*
X143353142Y-115656785D01*
X143373784Y-115673419D01*
X144396739Y-116696374D01*
X144396749Y-116696385D01*
X144401079Y-116700715D01*
X144401080Y-116700716D01*
X144512884Y-116812520D01*
X144599695Y-116862639D01*
X144599697Y-116862641D01*
X144649813Y-116891576D01*
X144649815Y-116891577D01*
X144802542Y-116932500D01*
X144802543Y-116932500D01*
X150075501Y-116932500D01*
X150142540Y-116952185D01*
X150188295Y-117004989D01*
X150199501Y-117056500D01*
X150199501Y-117345376D01*
X150205908Y-117404983D01*
X150256202Y-117539828D01*
X150256206Y-117539835D01*
X150342452Y-117655044D01*
X150342455Y-117655047D01*
X150457664Y-117741293D01*
X150457671Y-117741297D01*
X150592517Y-117791591D01*
X150592516Y-117791591D01*
X150599444Y-117792335D01*
X150652127Y-117798000D01*
X152747872Y-117797999D01*
X152807483Y-117791591D01*
X152942331Y-117741296D01*
X153057546Y-117655046D01*
X153143796Y-117539831D01*
X153194091Y-117404983D01*
X153200500Y-117345373D01*
X153200499Y-115344628D01*
X153194091Y-115285017D01*
X153155553Y-115181692D01*
X153143797Y-115150171D01*
X153143793Y-115150164D01*
X153057547Y-115034955D01*
X153057544Y-115034952D01*
X152942335Y-114948706D01*
X152942328Y-114948702D01*
X152914459Y-114938308D01*
X152858525Y-114896437D01*
X152834108Y-114830973D01*
X152848960Y-114762700D01*
X152857460Y-114749260D01*
X152990217Y-114566538D01*
X153094048Y-114362758D01*
X153114688Y-114299234D01*
X153164721Y-114145249D01*
X153164721Y-114145248D01*
X153164722Y-114145245D01*
X153200500Y-113919354D01*
X153200500Y-113690646D01*
X153164722Y-113464755D01*
X153164721Y-113464751D01*
X153164721Y-113464750D01*
X153094049Y-113247244D01*
X152997755Y-113058257D01*
X152990217Y-113043462D01*
X152855786Y-112858434D01*
X152694066Y-112696714D01*
X152609559Y-112635316D01*
X152566896Y-112579988D01*
X152560917Y-112510375D01*
X152593523Y-112448580D01*
X152609556Y-112434685D01*
X152694066Y-112373286D01*
X152855786Y-112211566D01*
X152990217Y-112026538D01*
X153094048Y-111822758D01*
X153096384Y-111815568D01*
X153164721Y-111605249D01*
X153164721Y-111605248D01*
X153164722Y-111605245D01*
X153200500Y-111379354D01*
X153200500Y-111150646D01*
X153164722Y-110924755D01*
X153164721Y-110924751D01*
X153164721Y-110924750D01*
X153094049Y-110707244D01*
X152990216Y-110503461D01*
X152957414Y-110458313D01*
X152855786Y-110318434D01*
X152694066Y-110156714D01*
X152509038Y-110022283D01*
X152305255Y-109918450D01*
X152087748Y-109847778D01*
X151918326Y-109820944D01*
X151861854Y-109812000D01*
X151538146Y-109812000D01*
X151462849Y-109823926D01*
X151312253Y-109847778D01*
X151312250Y-109847778D01*
X151094744Y-109918450D01*
X150890961Y-110022283D01*
X150785396Y-110098980D01*
X150705934Y-110156714D01*
X150705932Y-110156716D01*
X150705931Y-110156716D01*
X150544216Y-110318431D01*
X150544216Y-110318432D01*
X150544214Y-110318434D01*
X150486480Y-110397896D01*
X150409783Y-110503461D01*
X150305950Y-110707244D01*
X150235278Y-110924750D01*
X150235278Y-110924753D01*
X150199500Y-111150646D01*
X150199500Y-111379353D01*
X150235278Y-111605246D01*
X150235278Y-111605249D01*
X150305950Y-111822755D01*
X150351290Y-111911739D01*
X150409783Y-112026538D01*
X150544214Y-112211566D01*
X150705934Y-112373286D01*
X150775423Y-112423773D01*
X150790438Y-112434682D01*
X150833103Y-112490013D01*
X150839082Y-112559626D01*
X150806476Y-112621421D01*
X150790438Y-112635318D01*
X150705932Y-112696715D01*
X150544216Y-112858431D01*
X150544216Y-112858432D01*
X150544214Y-112858434D01*
X150513911Y-112900143D01*
X150409783Y-113043461D01*
X150305950Y-113247244D01*
X150235278Y-113464750D01*
X150235278Y-113464753D01*
X150199500Y-113690646D01*
X150199500Y-113919353D01*
X150235278Y-114145246D01*
X150235278Y-114145249D01*
X150305950Y-114362755D01*
X150380212Y-114508502D01*
X150409783Y-114566538D01*
X150542525Y-114749242D01*
X150566005Y-114815046D01*
X150550180Y-114883100D01*
X150500074Y-114931795D01*
X150485541Y-114938308D01*
X150457670Y-114948703D01*
X150457664Y-114948706D01*
X150342455Y-115034952D01*
X150342452Y-115034955D01*
X150256206Y-115150164D01*
X150256202Y-115150171D01*
X150205908Y-115285017D01*
X150201289Y-115327986D01*
X150199501Y-115344623D01*
X150199500Y-115344635D01*
X150199500Y-115607500D01*
X150179815Y-115674539D01*
X150127011Y-115720294D01*
X150075500Y-115731500D01*
X145181697Y-115731500D01*
X145114658Y-115711815D01*
X145094016Y-115695181D01*
X144073790Y-114674955D01*
X144073788Y-114674952D01*
X143954917Y-114556081D01*
X143954909Y-114556075D01*
X143859723Y-114501120D01*
X143859721Y-114501119D01*
X143817990Y-114477025D01*
X143817989Y-114477024D01*
X143805463Y-114473667D01*
X143665257Y-114436099D01*
X143507143Y-114436099D01*
X143499547Y-114436099D01*
X143499531Y-114436100D01*
X138899692Y-114436100D01*
X138832653Y-114416415D01*
X138798119Y-114383225D01*
X138668047Y-114197461D01*
X138668045Y-114197458D01*
X138507141Y-114036554D01*
X138320734Y-113906032D01*
X138320732Y-113906031D01*
X138114497Y-113809861D01*
X138114488Y-113809858D01*
X137894697Y-113750966D01*
X137894693Y-113750965D01*
X137894692Y-113750965D01*
X137894691Y-113750964D01*
X137894686Y-113750964D01*
X137668002Y-113731132D01*
X137667998Y-113731132D01*
X137441313Y-113750964D01*
X137441302Y-113750966D01*
X137221511Y-113809858D01*
X137221502Y-113809861D01*
X137015267Y-113906031D01*
X137015265Y-113906032D01*
X136828858Y-114036554D01*
X136667954Y-114197458D01*
X136596696Y-114299228D01*
X136537881Y-114383224D01*
X136483307Y-114426848D01*
X136436308Y-114436100D01*
X135605897Y-114436100D01*
X135538858Y-114416415D01*
X135518216Y-114399781D01*
X133885219Y-112766784D01*
X133851734Y-112705461D01*
X133848900Y-112679103D01*
X133848900Y-111493459D01*
X133848901Y-111493446D01*
X133848901Y-111325345D01*
X133848901Y-111325343D01*
X133807977Y-111172615D01*
X133807976Y-111172614D01*
X133807976Y-111172612D01*
X133807974Y-111172609D01*
X133772720Y-111111548D01*
X133772719Y-111111547D01*
X133728920Y-111035684D01*
X133617116Y-110923880D01*
X133617115Y-110923879D01*
X133612785Y-110919549D01*
X133612774Y-110919539D01*
X130814990Y-108121755D01*
X130814988Y-108121752D01*
X130696117Y-108002881D01*
X130696116Y-108002880D01*
X130609304Y-107952760D01*
X130609304Y-107952759D01*
X130609300Y-107952758D01*
X130559185Y-107923823D01*
X130406457Y-107882899D01*
X130248343Y-107882899D01*
X130240747Y-107882899D01*
X130240731Y-107882900D01*
X115817455Y-107882900D01*
X115750416Y-107863215D01*
X115714353Y-107827790D01*
X115630761Y-107702686D01*
X115630755Y-107702678D01*
X115487918Y-107559841D01*
X115319962Y-107447617D01*
X115319952Y-107447612D01*
X115133327Y-107370309D01*
X115133319Y-107370307D01*
X114935207Y-107330900D01*
X114935203Y-107330900D01*
X114283197Y-107330900D01*
X114283192Y-107330900D01*
X114085080Y-107370307D01*
X114085072Y-107370309D01*
X113898447Y-107447612D01*
X113898437Y-107447617D01*
X113730481Y-107559841D01*
X113587641Y-107702681D01*
X113475417Y-107870637D01*
X113475412Y-107870647D01*
X113398109Y-108057272D01*
X113398107Y-108057280D01*
X113358700Y-108255392D01*
X113358700Y-108457407D01*
X113398107Y-108655519D01*
X113398109Y-108655527D01*
X113448942Y-108778247D01*
X113456411Y-108847716D01*
X113425136Y-108910196D01*
X113365047Y-108945848D01*
X113334381Y-108949700D01*
X106639670Y-108949700D01*
X106639654Y-108949699D01*
X106632058Y-108949699D01*
X106473943Y-108949699D01*
X106397579Y-108970161D01*
X106321214Y-108990623D01*
X106321209Y-108990626D01*
X106184290Y-109069675D01*
X106184282Y-109069681D01*
X100555984Y-114697981D01*
X100494661Y-114731466D01*
X100468303Y-114734300D01*
X91117492Y-114734300D01*
X91050453Y-114714615D01*
X91015919Y-114681425D01*
X90894838Y-114508502D01*
X90885845Y-114495658D01*
X90724941Y-114334754D01*
X90538534Y-114204232D01*
X90538532Y-114204231D01*
X90332297Y-114108061D01*
X90332288Y-114108058D01*
X90112497Y-114049166D01*
X90112493Y-114049165D01*
X90112492Y-114049165D01*
X90112491Y-114049164D01*
X90112486Y-114049164D01*
X89885802Y-114029332D01*
X89885798Y-114029332D01*
X89659113Y-114049164D01*
X89659102Y-114049166D01*
X89439311Y-114108058D01*
X89439302Y-114108061D01*
X89233067Y-114204231D01*
X89233065Y-114204232D01*
X89046658Y-114334754D01*
X88885754Y-114495658D01*
X88809250Y-114604918D01*
X88755681Y-114681424D01*
X88701107Y-114725048D01*
X88654108Y-114734300D01*
X83682389Y-114734300D01*
X83615350Y-114714615D01*
X83569595Y-114661811D01*
X83562614Y-114642393D01*
X83526741Y-114508511D01*
X83526738Y-114508502D01*
X83430568Y-114302266D01*
X83300047Y-114115861D01*
X83300045Y-114115858D01*
X83139141Y-113954954D01*
X82952734Y-113824432D01*
X82952732Y-113824431D01*
X82746497Y-113728261D01*
X82746488Y-113728258D01*
X82526697Y-113669366D01*
X82526693Y-113669365D01*
X82526692Y-113669365D01*
X82526691Y-113669364D01*
X82526686Y-113669364D01*
X82300002Y-113649532D01*
X82299998Y-113649532D01*
X82073313Y-113669364D01*
X82073302Y-113669366D01*
X81853511Y-113728258D01*
X81853502Y-113728261D01*
X81647267Y-113824431D01*
X81647265Y-113824432D01*
X81460858Y-113954954D01*
X81299954Y-114115858D01*
X81169432Y-114302265D01*
X81169431Y-114302267D01*
X81073261Y-114508502D01*
X81073258Y-114508511D01*
X81014366Y-114728302D01*
X81014364Y-114728313D01*
X80994532Y-114954998D01*
X80994532Y-114955001D01*
X74372139Y-114955001D01*
X74373930Y-114948706D01*
X74375960Y-114941572D01*
X74396028Y-114725000D01*
X74391390Y-114674952D01*
X74375960Y-114508428D01*
X74375959Y-114508425D01*
X74316440Y-114299234D01*
X74316437Y-114299228D01*
X74219490Y-114104532D01*
X74088417Y-113930963D01*
X73927682Y-113784435D01*
X73742760Y-113669935D01*
X73742759Y-113669934D01*
X73539950Y-113591366D01*
X73539949Y-113591365D01*
X73539947Y-113591365D01*
X73326150Y-113551400D01*
X73108650Y-113551400D01*
X72894853Y-113591365D01*
X72894851Y-113591365D01*
X72894849Y-113591366D01*
X72692040Y-113669934D01*
X72692039Y-113669935D01*
X72507122Y-113784432D01*
X72507120Y-113784433D01*
X72507118Y-113784435D01*
X72373731Y-113906032D01*
X72346382Y-113930964D01*
X72215310Y-114104531D01*
X72118362Y-114299228D01*
X72118359Y-114299234D01*
X72058840Y-114508425D01*
X72058839Y-114508428D01*
X72038772Y-114724999D01*
X72038772Y-114725000D01*
X51360211Y-114725000D01*
X51338571Y-114639546D01*
X51245225Y-114426739D01*
X51227612Y-114399781D01*
X51118126Y-114232201D01*
X51118125Y-114232199D01*
X50960739Y-114061232D01*
X50960734Y-114061228D01*
X50960732Y-114061226D01*
X50777367Y-113918507D01*
X50777361Y-113918503D01*
X50572988Y-113807901D01*
X50572980Y-113807898D01*
X50565037Y-113805171D01*
X50508021Y-113764785D01*
X50481891Y-113699986D01*
X50481300Y-113687890D01*
X50481300Y-105079805D01*
X74843794Y-105079805D01*
X74862983Y-105311382D01*
X74920029Y-105536654D01*
X75013375Y-105749462D01*
X75140473Y-105943998D01*
X75140475Y-105944001D01*
X75297861Y-106114968D01*
X75297864Y-106114970D01*
X75297867Y-106114973D01*
X75481232Y-106257692D01*
X75481238Y-106257696D01*
X75481241Y-106257698D01*
X75685612Y-106368299D01*
X75890221Y-106438541D01*
X75899227Y-106441633D01*
X75905400Y-106443752D01*
X76134610Y-106482000D01*
X76366990Y-106482000D01*
X76596200Y-106443752D01*
X76815988Y-106368299D01*
X77020359Y-106257698D01*
X77203739Y-106114968D01*
X77361125Y-105944001D01*
X77488225Y-105749461D01*
X77581571Y-105536654D01*
X77638616Y-105311386D01*
X77649934Y-105174801D01*
X88580332Y-105174801D01*
X88600164Y-105401486D01*
X88600166Y-105401497D01*
X88659058Y-105621288D01*
X88659061Y-105621297D01*
X88755231Y-105827532D01*
X88755232Y-105827534D01*
X88885754Y-106013941D01*
X89046658Y-106174845D01*
X89046661Y-106174847D01*
X89233066Y-106305368D01*
X89439304Y-106401539D01*
X89659108Y-106460435D01*
X89821030Y-106474601D01*
X89885798Y-106480268D01*
X89885800Y-106480268D01*
X89885802Y-106480268D01*
X89942473Y-106475309D01*
X90112492Y-106460435D01*
X90332296Y-106401539D01*
X90538534Y-106305368D01*
X90724939Y-106174847D01*
X90885847Y-106013939D01*
X91016368Y-105827534D01*
X91112539Y-105621296D01*
X91171435Y-105401492D01*
X91191268Y-105174800D01*
X91189623Y-105156001D01*
X94985932Y-105156001D01*
X95005764Y-105382686D01*
X95005766Y-105382697D01*
X95064658Y-105602488D01*
X95064661Y-105602497D01*
X95160831Y-105808732D01*
X95160832Y-105808734D01*
X95291354Y-105995141D01*
X95452258Y-106156045D01*
X95461098Y-106162235D01*
X95638666Y-106286568D01*
X95844904Y-106382739D01*
X96064708Y-106441635D01*
X96226630Y-106455801D01*
X96291398Y-106461468D01*
X96291400Y-106461468D01*
X96291402Y-106461468D01*
X96348073Y-106456509D01*
X96518092Y-106441635D01*
X96737896Y-106382739D01*
X96944134Y-106286568D01*
X97130539Y-106156047D01*
X97291447Y-105995139D01*
X97421968Y-105808734D01*
X97518139Y-105602496D01*
X97577035Y-105382692D01*
X97596868Y-105156000D01*
X97577035Y-104929308D01*
X97562912Y-104876601D01*
X136362532Y-104876601D01*
X136382364Y-105103286D01*
X136382366Y-105103297D01*
X136441258Y-105323088D01*
X136441261Y-105323097D01*
X136537431Y-105529332D01*
X136537432Y-105529334D01*
X136667954Y-105715741D01*
X136828858Y-105876645D01*
X136828861Y-105876647D01*
X137015266Y-106007168D01*
X137221504Y-106103339D01*
X137441308Y-106162235D01*
X137585441Y-106174845D01*
X137667998Y-106182068D01*
X137668000Y-106182068D01*
X137668002Y-106182068D01*
X137724673Y-106177109D01*
X137894692Y-106162235D01*
X138114496Y-106103339D01*
X138320734Y-106007168D01*
X138507139Y-105876647D01*
X138668047Y-105715739D01*
X138750486Y-105598003D01*
X154041434Y-105598003D01*
X154061258Y-105824600D01*
X154061260Y-105824611D01*
X154120130Y-106044318D01*
X154120135Y-106044332D01*
X154216263Y-106250479D01*
X154267374Y-106323473D01*
X154946400Y-105644447D01*
X154946400Y-105650662D01*
X154973659Y-105752395D01*
X155026320Y-105843607D01*
X155100794Y-105918081D01*
X155192006Y-105970742D01*
X155293739Y-105998001D01*
X155299953Y-105998001D01*
X154620926Y-106677026D01*
X154693913Y-106728133D01*
X154693921Y-106728137D01*
X154900068Y-106824265D01*
X154900082Y-106824270D01*
X155119789Y-106883140D01*
X155119800Y-106883142D01*
X155346398Y-106902967D01*
X155346402Y-106902967D01*
X155572999Y-106883142D01*
X155573010Y-106883140D01*
X155792717Y-106824270D01*
X155792731Y-106824265D01*
X155998878Y-106728137D01*
X156071871Y-106677025D01*
X155392847Y-105998001D01*
X155399061Y-105998001D01*
X155500794Y-105970742D01*
X155592006Y-105918081D01*
X155666480Y-105843607D01*
X155719141Y-105752395D01*
X155746400Y-105650662D01*
X155746400Y-105644448D01*
X156425424Y-106323472D01*
X156476536Y-106250479D01*
X156572664Y-106044332D01*
X156572669Y-106044318D01*
X156631539Y-105824611D01*
X156631541Y-105824600D01*
X156651366Y-105598003D01*
X156651366Y-105597998D01*
X156635636Y-105418203D01*
X161440634Y-105418203D01*
X161460458Y-105644800D01*
X161460460Y-105644811D01*
X161519330Y-105864518D01*
X161519335Y-105864532D01*
X161615463Y-106070679D01*
X161666574Y-106143673D01*
X162345600Y-105464647D01*
X162345600Y-105470862D01*
X162372859Y-105572595D01*
X162425520Y-105663807D01*
X162499994Y-105738281D01*
X162591206Y-105790942D01*
X162692939Y-105818201D01*
X162699153Y-105818201D01*
X162020126Y-106497226D01*
X162093113Y-106548333D01*
X162093121Y-106548337D01*
X162299268Y-106644465D01*
X162299282Y-106644470D01*
X162518989Y-106703340D01*
X162519000Y-106703342D01*
X162745598Y-106723167D01*
X162745602Y-106723167D01*
X162972199Y-106703342D01*
X162972210Y-106703340D01*
X163191917Y-106644470D01*
X163191931Y-106644465D01*
X163398078Y-106548337D01*
X163471071Y-106497225D01*
X162792047Y-105818201D01*
X162798261Y-105818201D01*
X162899994Y-105790942D01*
X162991206Y-105738281D01*
X163065680Y-105663807D01*
X163118341Y-105572595D01*
X163145600Y-105470862D01*
X163145600Y-105464648D01*
X163824624Y-106143672D01*
X163875736Y-106070679D01*
X163971864Y-105864532D01*
X163971869Y-105864518D01*
X164030739Y-105644811D01*
X164030741Y-105644800D01*
X164050566Y-105418203D01*
X164050566Y-105418198D01*
X164030741Y-105191601D01*
X164030739Y-105191590D01*
X163971869Y-104971883D01*
X163971864Y-104971869D01*
X163875736Y-104765722D01*
X163875732Y-104765714D01*
X163824625Y-104692727D01*
X163145600Y-105371752D01*
X163145600Y-105365540D01*
X163118341Y-105263807D01*
X163065680Y-105172595D01*
X162991206Y-105098121D01*
X162899994Y-105045460D01*
X162798261Y-105018201D01*
X162792048Y-105018201D01*
X163471072Y-104339175D01*
X163398078Y-104288064D01*
X163191931Y-104191936D01*
X163191917Y-104191931D01*
X162972210Y-104133061D01*
X162972199Y-104133059D01*
X162745602Y-104113235D01*
X162745598Y-104113235D01*
X162519000Y-104133059D01*
X162518989Y-104133061D01*
X162299282Y-104191931D01*
X162299273Y-104191935D01*
X162093116Y-104288067D01*
X162093112Y-104288069D01*
X162020126Y-104339174D01*
X162020126Y-104339175D01*
X162699153Y-105018201D01*
X162692939Y-105018201D01*
X162591206Y-105045460D01*
X162499994Y-105098121D01*
X162425520Y-105172595D01*
X162372859Y-105263807D01*
X162345600Y-105365540D01*
X162345600Y-105371753D01*
X161666574Y-104692727D01*
X161666573Y-104692727D01*
X161615468Y-104765713D01*
X161615466Y-104765717D01*
X161519334Y-104971874D01*
X161519330Y-104971883D01*
X161460460Y-105191590D01*
X161460458Y-105191601D01*
X161440634Y-105418198D01*
X161440634Y-105418203D01*
X156635636Y-105418203D01*
X156631541Y-105371401D01*
X156631539Y-105371390D01*
X156572669Y-105151683D01*
X156572664Y-105151669D01*
X156476536Y-104945522D01*
X156476532Y-104945514D01*
X156425425Y-104872527D01*
X155746400Y-105551552D01*
X155746400Y-105545340D01*
X155719141Y-105443607D01*
X155666480Y-105352395D01*
X155592006Y-105277921D01*
X155500794Y-105225260D01*
X155399061Y-105198001D01*
X155392848Y-105198001D01*
X156071872Y-104518975D01*
X155998878Y-104467864D01*
X155792731Y-104371736D01*
X155792717Y-104371731D01*
X155573010Y-104312861D01*
X155572999Y-104312859D01*
X155346402Y-104293035D01*
X155346398Y-104293035D01*
X155119800Y-104312859D01*
X155119789Y-104312861D01*
X154900082Y-104371731D01*
X154900073Y-104371735D01*
X154693916Y-104467867D01*
X154693912Y-104467869D01*
X154620926Y-104518974D01*
X154620926Y-104518975D01*
X155299953Y-105198001D01*
X155293739Y-105198001D01*
X155192006Y-105225260D01*
X155100794Y-105277921D01*
X155026320Y-105352395D01*
X154973659Y-105443607D01*
X154946400Y-105545340D01*
X154946400Y-105551553D01*
X154267374Y-104872527D01*
X154267373Y-104872527D01*
X154216268Y-104945513D01*
X154216266Y-104945517D01*
X154120134Y-105151674D01*
X154120130Y-105151683D01*
X154061260Y-105371390D01*
X154061258Y-105371401D01*
X154041434Y-105597998D01*
X154041434Y-105598003D01*
X138750486Y-105598003D01*
X138798568Y-105529334D01*
X138894739Y-105323096D01*
X138953635Y-105103292D01*
X138973468Y-104876600D01*
X138953635Y-104649908D01*
X138894739Y-104430104D01*
X138798568Y-104223866D01*
X138700839Y-104084293D01*
X138668045Y-104037458D01*
X138507141Y-103876554D01*
X138320734Y-103746032D01*
X138320732Y-103746031D01*
X138114497Y-103649861D01*
X138114488Y-103649858D01*
X137894697Y-103590966D01*
X137894693Y-103590965D01*
X137894692Y-103590965D01*
X137894691Y-103590964D01*
X137894686Y-103590964D01*
X137668002Y-103571132D01*
X137667998Y-103571132D01*
X137441313Y-103590964D01*
X137441302Y-103590966D01*
X137221511Y-103649858D01*
X137221502Y-103649861D01*
X137015267Y-103746031D01*
X137015265Y-103746032D01*
X136828858Y-103876554D01*
X136667954Y-104037458D01*
X136537432Y-104223865D01*
X136537431Y-104223867D01*
X136441261Y-104430102D01*
X136441258Y-104430111D01*
X136382366Y-104649902D01*
X136382364Y-104649913D01*
X136362532Y-104876598D01*
X136362532Y-104876601D01*
X97562912Y-104876601D01*
X97518139Y-104709504D01*
X97421968Y-104503266D01*
X97291447Y-104316861D01*
X97291445Y-104316858D01*
X97130541Y-104155954D01*
X96944134Y-104025432D01*
X96944132Y-104025431D01*
X96737897Y-103929261D01*
X96737888Y-103929258D01*
X96518097Y-103870366D01*
X96518093Y-103870365D01*
X96518092Y-103870365D01*
X96518091Y-103870364D01*
X96518086Y-103870364D01*
X96291402Y-103850532D01*
X96291398Y-103850532D01*
X96064713Y-103870364D01*
X96064702Y-103870366D01*
X95844911Y-103929258D01*
X95844902Y-103929261D01*
X95638667Y-104025431D01*
X95638665Y-104025432D01*
X95452258Y-104155954D01*
X95291354Y-104316858D01*
X95160832Y-104503265D01*
X95160831Y-104503267D01*
X95064661Y-104709502D01*
X95064658Y-104709511D01*
X95005766Y-104929302D01*
X95005764Y-104929313D01*
X94985932Y-105155998D01*
X94985932Y-105156001D01*
X91189623Y-105156001D01*
X91171435Y-104948108D01*
X91112539Y-104728304D01*
X91016368Y-104522066D01*
X90885847Y-104335661D01*
X90885845Y-104335658D01*
X90724941Y-104174754D01*
X90538534Y-104044232D01*
X90538532Y-104044231D01*
X90332297Y-103948061D01*
X90332288Y-103948058D01*
X90112497Y-103889166D01*
X90112493Y-103889165D01*
X90112492Y-103889165D01*
X90112491Y-103889164D01*
X90112486Y-103889164D01*
X89885802Y-103869332D01*
X89885798Y-103869332D01*
X89659113Y-103889164D01*
X89659102Y-103889166D01*
X89439311Y-103948058D01*
X89439302Y-103948061D01*
X89233067Y-104044231D01*
X89233065Y-104044232D01*
X89046658Y-104174754D01*
X88885754Y-104335658D01*
X88755232Y-104522065D01*
X88755231Y-104522067D01*
X88659061Y-104728302D01*
X88659058Y-104728311D01*
X88600166Y-104948102D01*
X88600164Y-104948113D01*
X88580332Y-105174798D01*
X88580332Y-105174801D01*
X77649934Y-105174801D01*
X77655859Y-105103297D01*
X77657806Y-105079805D01*
X77657806Y-105079794D01*
X77640968Y-104876598D01*
X77638616Y-104848214D01*
X77581571Y-104622946D01*
X77488225Y-104410139D01*
X77361125Y-104215599D01*
X77203739Y-104044632D01*
X77203734Y-104044628D01*
X77203732Y-104044626D01*
X77020367Y-103901907D01*
X77020361Y-103901903D01*
X76815988Y-103791301D01*
X76815980Y-103791298D01*
X76596202Y-103715848D01*
X76366990Y-103677600D01*
X76134610Y-103677600D01*
X75905397Y-103715848D01*
X75685619Y-103791298D01*
X75685611Y-103791301D01*
X75481238Y-103901903D01*
X75481232Y-103901907D01*
X75297867Y-104044626D01*
X75297864Y-104044629D01*
X75297861Y-104044631D01*
X75297861Y-104044632D01*
X75263117Y-104082373D01*
X75140476Y-104215597D01*
X75140473Y-104215601D01*
X75013375Y-104410137D01*
X74920029Y-104622945D01*
X74862983Y-104848217D01*
X74843794Y-105079794D01*
X74843794Y-105079805D01*
X50481300Y-105079805D01*
X50481300Y-103401505D01*
X176240593Y-103401505D01*
X176259782Y-103633082D01*
X176316828Y-103858354D01*
X176410174Y-104071162D01*
X176504542Y-104215601D01*
X176537274Y-104265701D01*
X176694660Y-104436668D01*
X176694663Y-104436670D01*
X176694666Y-104436673D01*
X176878031Y-104579392D01*
X176878037Y-104579396D01*
X176878040Y-104579398D01*
X177082411Y-104689999D01*
X177302199Y-104765452D01*
X177531409Y-104803700D01*
X177763789Y-104803700D01*
X177992999Y-104765452D01*
X178212787Y-104689999D01*
X178417158Y-104579398D01*
X178600538Y-104436668D01*
X178757924Y-104265701D01*
X178885024Y-104071161D01*
X178978370Y-103858354D01*
X179035415Y-103633086D01*
X179054605Y-103401500D01*
X179035415Y-103169914D01*
X178978370Y-102944646D01*
X178885024Y-102731839D01*
X178757924Y-102537299D01*
X178600538Y-102366332D01*
X178600533Y-102366328D01*
X178600531Y-102366326D01*
X178417166Y-102223607D01*
X178417160Y-102223603D01*
X178212787Y-102113001D01*
X178212779Y-102112998D01*
X177993001Y-102037548D01*
X177763789Y-101999300D01*
X177531409Y-101999300D01*
X177302196Y-102037548D01*
X177082418Y-102112998D01*
X177082410Y-102113001D01*
X176878037Y-102223603D01*
X176878031Y-102223607D01*
X176694666Y-102366326D01*
X176694663Y-102366329D01*
X176537275Y-102537297D01*
X176537272Y-102537301D01*
X176410174Y-102731837D01*
X176316828Y-102944645D01*
X176259782Y-103169917D01*
X176240593Y-103401494D01*
X176240593Y-103401505D01*
X50481300Y-103401505D01*
X50481300Y-100079805D01*
X74844296Y-100079805D01*
X74863478Y-100311299D01*
X74920504Y-100536491D01*
X75013815Y-100749218D01*
X75098384Y-100878661D01*
X75651518Y-100325527D01*
X75676816Y-100386601D01*
X75747699Y-100492685D01*
X75837915Y-100582901D01*
X75943999Y-100653784D01*
X76005071Y-100679081D01*
X75450789Y-101233362D01*
X75450790Y-101233363D01*
X75481512Y-101257275D01*
X75481518Y-101257280D01*
X75685807Y-101367835D01*
X75685817Y-101367840D01*
X75905521Y-101443264D01*
X76134653Y-101481500D01*
X76366947Y-101481500D01*
X76596078Y-101443264D01*
X76815782Y-101367840D01*
X76815787Y-101367838D01*
X77020088Y-101257275D01*
X77050808Y-101233363D01*
X77050808Y-101233362D01*
X76496528Y-100679081D01*
X76557601Y-100653784D01*
X76663685Y-100582901D01*
X76753901Y-100492685D01*
X76824784Y-100386601D01*
X76850081Y-100325528D01*
X77403214Y-100878661D01*
X77487780Y-100749225D01*
X77487785Y-100749217D01*
X77554114Y-100598002D01*
X154040932Y-100598002D01*
X154060764Y-100824687D01*
X154060766Y-100824698D01*
X154119658Y-101044489D01*
X154119661Y-101044498D01*
X154215831Y-101250733D01*
X154215832Y-101250735D01*
X154346354Y-101437142D01*
X154507258Y-101598046D01*
X154507261Y-101598048D01*
X154693666Y-101728569D01*
X154899904Y-101824740D01*
X155119708Y-101883636D01*
X155281630Y-101897802D01*
X155346398Y-101903469D01*
X155346400Y-101903469D01*
X155346402Y-101903469D01*
X155403073Y-101898510D01*
X155573092Y-101883636D01*
X155792896Y-101824740D01*
X155999134Y-101728569D01*
X156185539Y-101598048D01*
X156346447Y-101437140D01*
X156476968Y-101250735D01*
X156573139Y-101044497D01*
X156632035Y-100824693D01*
X156651868Y-100598001D01*
X156636138Y-100418202D01*
X161440132Y-100418202D01*
X161459964Y-100644887D01*
X161459966Y-100644898D01*
X161518858Y-100864689D01*
X161518861Y-100864698D01*
X161615031Y-101070933D01*
X161615032Y-101070935D01*
X161745554Y-101257342D01*
X161906458Y-101418246D01*
X161906461Y-101418248D01*
X162092866Y-101548769D01*
X162299104Y-101644940D01*
X162518908Y-101703836D01*
X162680830Y-101718002D01*
X162745598Y-101723669D01*
X162745600Y-101723669D01*
X162745602Y-101723669D01*
X162802273Y-101718710D01*
X162972292Y-101703836D01*
X163192096Y-101644940D01*
X163398334Y-101548769D01*
X163584739Y-101418248D01*
X163745647Y-101257340D01*
X163876168Y-101070935D01*
X163972339Y-100864697D01*
X164031235Y-100644893D01*
X164051068Y-100418201D01*
X164046965Y-100371309D01*
X164041715Y-100311299D01*
X164031235Y-100191509D01*
X163972339Y-99971705D01*
X163876168Y-99765467D01*
X163745647Y-99579062D01*
X163745645Y-99579059D01*
X163584741Y-99418155D01*
X163398334Y-99287633D01*
X163398332Y-99287632D01*
X163192097Y-99191462D01*
X163192088Y-99191459D01*
X162972297Y-99132567D01*
X162972293Y-99132566D01*
X162972292Y-99132566D01*
X162972291Y-99132565D01*
X162972286Y-99132565D01*
X162745602Y-99112733D01*
X162745598Y-99112733D01*
X162518913Y-99132565D01*
X162518902Y-99132567D01*
X162299111Y-99191459D01*
X162299102Y-99191462D01*
X162092867Y-99287632D01*
X162092865Y-99287633D01*
X161906458Y-99418155D01*
X161745554Y-99579059D01*
X161615032Y-99765466D01*
X161615031Y-99765468D01*
X161518861Y-99971703D01*
X161518858Y-99971712D01*
X161459966Y-100191503D01*
X161459964Y-100191514D01*
X161440132Y-100418199D01*
X161440132Y-100418202D01*
X156636138Y-100418202D01*
X156632035Y-100371309D01*
X156573139Y-100151505D01*
X156476968Y-99945267D01*
X156346447Y-99758862D01*
X156346445Y-99758859D01*
X156185541Y-99597955D01*
X155999134Y-99467433D01*
X155999132Y-99467432D01*
X155792897Y-99371262D01*
X155792888Y-99371259D01*
X155573097Y-99312367D01*
X155573093Y-99312366D01*
X155573092Y-99312366D01*
X155573091Y-99312365D01*
X155573086Y-99312365D01*
X155346402Y-99292533D01*
X155346398Y-99292533D01*
X155119713Y-99312365D01*
X155119702Y-99312367D01*
X154899911Y-99371259D01*
X154899902Y-99371262D01*
X154693667Y-99467432D01*
X154693665Y-99467433D01*
X154507258Y-99597955D01*
X154346354Y-99758859D01*
X154215832Y-99945266D01*
X154215831Y-99945268D01*
X154119661Y-100151503D01*
X154119658Y-100151512D01*
X154060766Y-100371303D01*
X154060764Y-100371314D01*
X154040932Y-100597999D01*
X154040932Y-100598002D01*
X77554114Y-100598002D01*
X77581095Y-100536491D01*
X77638121Y-100311299D01*
X77657304Y-100079805D01*
X77657304Y-100079794D01*
X77638121Y-99848300D01*
X77581095Y-99623108D01*
X77487782Y-99410376D01*
X77403214Y-99280937D01*
X76850080Y-99834070D01*
X76824784Y-99772999D01*
X76753901Y-99666915D01*
X76663685Y-99576699D01*
X76557601Y-99505816D01*
X76496527Y-99480518D01*
X77050809Y-98926236D01*
X77050809Y-98926235D01*
X77020086Y-98902323D01*
X77020081Y-98902319D01*
X76815792Y-98791764D01*
X76815782Y-98791759D01*
X76596078Y-98716335D01*
X76366947Y-98678100D01*
X76134653Y-98678100D01*
X75905521Y-98716335D01*
X75685817Y-98791759D01*
X75685807Y-98791764D01*
X75481517Y-98902320D01*
X75481506Y-98902327D01*
X75450790Y-98926234D01*
X75450790Y-98926236D01*
X76005072Y-99480518D01*
X75943999Y-99505816D01*
X75837915Y-99576699D01*
X75747699Y-99666915D01*
X75676816Y-99772999D01*
X75651518Y-99834071D01*
X75098384Y-99280937D01*
X75013816Y-99410378D01*
X74920504Y-99623108D01*
X74863478Y-99848300D01*
X74844296Y-100079794D01*
X74844296Y-100079805D01*
X50481300Y-100079805D01*
X50481300Y-98401505D01*
X176240593Y-98401505D01*
X176259782Y-98633082D01*
X176316828Y-98858354D01*
X176410174Y-99071162D01*
X176488769Y-99191459D01*
X176537274Y-99265701D01*
X176694660Y-99436668D01*
X176694663Y-99436670D01*
X176694666Y-99436673D01*
X176878031Y-99579392D01*
X176878037Y-99579396D01*
X176878040Y-99579398D01*
X177082411Y-99689999D01*
X177302199Y-99765452D01*
X177531409Y-99803700D01*
X177763789Y-99803700D01*
X177992999Y-99765452D01*
X178212787Y-99689999D01*
X178417158Y-99579398D01*
X178600538Y-99436668D01*
X178757924Y-99265701D01*
X178885024Y-99071161D01*
X178978370Y-98858354D01*
X179035415Y-98633086D01*
X179054605Y-98401500D01*
X179047075Y-98310633D01*
X179035415Y-98169917D01*
X179035415Y-98169914D01*
X178978370Y-97944646D01*
X178885024Y-97731839D01*
X178757924Y-97537299D01*
X178600538Y-97366332D01*
X178600533Y-97366328D01*
X178600531Y-97366326D01*
X178417166Y-97223607D01*
X178417160Y-97223603D01*
X178212787Y-97113001D01*
X178212779Y-97112998D01*
X177993001Y-97037548D01*
X177763789Y-96999300D01*
X177531409Y-96999300D01*
X177302196Y-97037548D01*
X177082418Y-97112998D01*
X177082410Y-97113001D01*
X176878037Y-97223603D01*
X176878031Y-97223607D01*
X176694666Y-97366326D01*
X176694663Y-97366329D01*
X176537275Y-97537297D01*
X176537272Y-97537301D01*
X176410174Y-97731837D01*
X176316828Y-97944645D01*
X176259782Y-98169917D01*
X176240593Y-98401494D01*
X176240593Y-98401505D01*
X50481300Y-98401505D01*
X50481300Y-92561599D01*
X71263527Y-92561599D01*
X71263528Y-92561600D01*
X72226714Y-92561600D01*
X72222320Y-92565994D01*
X72169659Y-92657206D01*
X72142400Y-92758939D01*
X72142400Y-92864261D01*
X72169659Y-92965994D01*
X72222320Y-93057206D01*
X72226714Y-93061600D01*
X71263528Y-93061600D01*
X71316130Y-93257917D01*
X71316134Y-93257926D01*
X71412265Y-93464082D01*
X71542742Y-93650420D01*
X71703579Y-93811257D01*
X71889917Y-93941734D01*
X72096073Y-94037865D01*
X72096082Y-94037869D01*
X72292399Y-94090472D01*
X72292400Y-94090471D01*
X72292400Y-93127286D01*
X72296794Y-93131680D01*
X72388006Y-93184341D01*
X72489739Y-93211600D01*
X72595061Y-93211600D01*
X72696794Y-93184341D01*
X72788006Y-93131680D01*
X72792400Y-93127286D01*
X72792400Y-94090472D01*
X72988717Y-94037869D01*
X72988726Y-94037865D01*
X73194882Y-93941734D01*
X73381220Y-93811257D01*
X73542057Y-93650420D01*
X73672534Y-93464082D01*
X73768665Y-93257926D01*
X73768669Y-93257917D01*
X73821272Y-93061600D01*
X72858086Y-93061600D01*
X72862480Y-93057206D01*
X72915141Y-92965994D01*
X72942400Y-92864261D01*
X72942400Y-92758939D01*
X72915141Y-92657206D01*
X72862480Y-92565994D01*
X72858086Y-92561600D01*
X73821272Y-92561600D01*
X73821272Y-92561599D01*
X73768669Y-92365282D01*
X73768665Y-92365273D01*
X73672534Y-92159117D01*
X73542057Y-91972779D01*
X73381220Y-91811942D01*
X73194882Y-91681465D01*
X72988728Y-91585334D01*
X72792400Y-91532727D01*
X72792400Y-92495914D01*
X72788006Y-92491520D01*
X72696794Y-92438859D01*
X72595061Y-92411600D01*
X72489739Y-92411600D01*
X72388006Y-92438859D01*
X72296794Y-92491520D01*
X72292400Y-92495914D01*
X72292400Y-91532727D01*
X72096071Y-91585334D01*
X71889917Y-91681465D01*
X71703579Y-91811942D01*
X71542742Y-91972779D01*
X71412265Y-92159117D01*
X71316134Y-92365273D01*
X71316130Y-92365282D01*
X71263527Y-92561599D01*
X50481300Y-92561599D01*
X50481300Y-90175001D01*
X81694532Y-90175001D01*
X81714364Y-90401686D01*
X81714366Y-90401697D01*
X81773258Y-90621488D01*
X81773261Y-90621497D01*
X81869431Y-90827732D01*
X81869432Y-90827734D01*
X81999954Y-91014141D01*
X82160858Y-91175045D01*
X82160861Y-91175047D01*
X82347266Y-91305568D01*
X82553504Y-91401739D01*
X82773308Y-91460635D01*
X82935230Y-91474801D01*
X82999998Y-91480468D01*
X83000000Y-91480468D01*
X83000002Y-91480468D01*
X83056673Y-91475509D01*
X83226692Y-91460635D01*
X83446496Y-91401739D01*
X83652734Y-91305568D01*
X83839139Y-91175047D01*
X84000047Y-91014139D01*
X84130118Y-90828375D01*
X84184693Y-90784752D01*
X84231692Y-90775500D01*
X91170303Y-90775500D01*
X91237342Y-90795185D01*
X91257984Y-90811819D01*
X94999458Y-94553293D01*
X95032943Y-94614616D01*
X95031552Y-94673067D01*
X95005766Y-94769302D01*
X95005764Y-94769313D01*
X94985932Y-94995998D01*
X94985932Y-94996001D01*
X95005764Y-95222686D01*
X95005766Y-95222697D01*
X95064658Y-95442488D01*
X95064661Y-95442497D01*
X95160831Y-95648732D01*
X95160832Y-95648734D01*
X95291354Y-95835141D01*
X95452258Y-95996045D01*
X95452261Y-95996047D01*
X95638666Y-96126568D01*
X95844904Y-96222739D01*
X96064708Y-96281635D01*
X96226630Y-96295801D01*
X96291398Y-96301468D01*
X96291400Y-96301468D01*
X96291402Y-96301468D01*
X96348073Y-96296509D01*
X96518092Y-96281635D01*
X96737896Y-96222739D01*
X96944134Y-96126568D01*
X97130539Y-95996047D01*
X97291447Y-95835139D01*
X97421518Y-95649375D01*
X97476093Y-95605752D01*
X97523092Y-95596500D01*
X109765223Y-95596500D01*
X109832262Y-95616185D01*
X109878017Y-95668989D01*
X109887961Y-95738147D01*
X109879784Y-95767953D01*
X109807909Y-95941472D01*
X109807907Y-95941480D01*
X109768500Y-96139592D01*
X109768500Y-96341607D01*
X109807907Y-96539719D01*
X109807909Y-96539727D01*
X109885212Y-96726352D01*
X109885217Y-96726362D01*
X109997441Y-96894318D01*
X110140281Y-97037158D01*
X110308237Y-97149382D01*
X110308241Y-97149384D01*
X110308244Y-97149386D01*
X110494873Y-97226691D01*
X110620563Y-97251692D01*
X110692992Y-97266099D01*
X110692996Y-97266100D01*
X110692997Y-97266100D01*
X111345004Y-97266100D01*
X111345005Y-97266099D01*
X111543127Y-97226691D01*
X111729756Y-97149386D01*
X111897718Y-97037158D01*
X111909875Y-97025001D01*
X125594532Y-97025001D01*
X125614364Y-97251686D01*
X125614366Y-97251697D01*
X125673258Y-97471488D01*
X125673261Y-97471497D01*
X125769431Y-97677732D01*
X125769432Y-97677734D01*
X125899954Y-97864141D01*
X126060858Y-98025045D01*
X126060861Y-98025047D01*
X126247266Y-98155568D01*
X126453504Y-98251739D01*
X126673308Y-98310635D01*
X126835230Y-98324801D01*
X126899998Y-98330468D01*
X126900000Y-98330468D01*
X126900002Y-98330468D01*
X126956673Y-98325509D01*
X127126692Y-98310635D01*
X127346496Y-98251739D01*
X127552734Y-98155568D01*
X127739139Y-98025047D01*
X127900047Y-97864139D01*
X128030568Y-97677734D01*
X128126739Y-97471496D01*
X128185635Y-97251692D01*
X128205468Y-97025000D01*
X128185635Y-96798308D01*
X128126739Y-96578504D01*
X128030568Y-96372266D01*
X127900047Y-96185861D01*
X127900045Y-96185858D01*
X127739141Y-96024954D01*
X127552734Y-95894432D01*
X127552732Y-95894431D01*
X127346497Y-95798261D01*
X127346488Y-95798258D01*
X127126697Y-95739366D01*
X127126693Y-95739365D01*
X127126692Y-95739365D01*
X127126691Y-95739364D01*
X127126686Y-95739364D01*
X126900002Y-95719532D01*
X126899998Y-95719532D01*
X126673313Y-95739364D01*
X126673302Y-95739366D01*
X126453511Y-95798258D01*
X126453502Y-95798261D01*
X126247267Y-95894431D01*
X126247265Y-95894432D01*
X126060858Y-96024954D01*
X125899954Y-96185858D01*
X125769432Y-96372265D01*
X125769431Y-96372267D01*
X125673261Y-96578502D01*
X125673258Y-96578511D01*
X125614366Y-96798302D01*
X125614364Y-96798313D01*
X125594532Y-97024998D01*
X125594532Y-97025001D01*
X111909875Y-97025001D01*
X112040558Y-96894318D01*
X112040560Y-96894314D01*
X112044422Y-96889610D01*
X112045818Y-96890756D01*
X112092912Y-96851402D01*
X112142397Y-96841100D01*
X115737331Y-96841100D01*
X115737347Y-96841101D01*
X115744943Y-96841101D01*
X115903054Y-96841101D01*
X115903057Y-96841101D01*
X116055785Y-96800177D01*
X116105904Y-96771239D01*
X116192716Y-96721120D01*
X116304520Y-96609316D01*
X116304520Y-96609314D01*
X116314728Y-96599107D01*
X116314729Y-96599104D01*
X125459816Y-87454019D01*
X125521139Y-87420534D01*
X125547497Y-87417700D01*
X125643788Y-87417700D01*
X125710827Y-87437385D01*
X125756170Y-87489294D01*
X125769431Y-87517733D01*
X125899954Y-87704141D01*
X126060858Y-87865045D01*
X126060861Y-87865047D01*
X126247266Y-87995568D01*
X126453504Y-88091739D01*
X126673308Y-88150635D01*
X126835230Y-88164801D01*
X126899998Y-88170468D01*
X126900000Y-88170468D01*
X126900002Y-88170468D01*
X126956673Y-88165509D01*
X127126692Y-88150635D01*
X127346496Y-88091739D01*
X127552734Y-87995568D01*
X127739139Y-87865047D01*
X127900047Y-87704139D01*
X128030118Y-87518375D01*
X128084693Y-87474752D01*
X128131692Y-87465500D01*
X129948103Y-87465500D01*
X130015142Y-87485185D01*
X130035783Y-87501818D01*
X133679484Y-91145520D01*
X133679486Y-91145521D01*
X133679490Y-91145524D01*
X133816409Y-91224573D01*
X133816412Y-91224575D01*
X133816416Y-91224577D01*
X133969143Y-91265501D01*
X133969145Y-91265501D01*
X134134854Y-91265501D01*
X134134870Y-91265500D01*
X139575531Y-91265500D01*
X139575547Y-91265501D01*
X139583143Y-91265501D01*
X139741254Y-91265501D01*
X139741257Y-91265501D01*
X139893985Y-91224577D01*
X139979773Y-91175047D01*
X139979777Y-91175045D01*
X140030909Y-91145524D01*
X140030908Y-91145524D01*
X140030916Y-91145520D01*
X140142720Y-91033716D01*
X140142720Y-91033714D01*
X140152924Y-91023511D01*
X140152927Y-91023506D01*
X142122216Y-89054219D01*
X142183539Y-89020734D01*
X142209897Y-89017900D01*
X146030501Y-89017900D01*
X146097540Y-89037585D01*
X146143295Y-89090389D01*
X146154501Y-89141900D01*
X146154501Y-89425376D01*
X146160908Y-89484983D01*
X146211202Y-89619828D01*
X146211206Y-89619835D01*
X146297452Y-89735044D01*
X146297455Y-89735047D01*
X146412664Y-89821293D01*
X146412669Y-89821296D01*
X146440539Y-89831690D01*
X146496473Y-89873561D01*
X146520891Y-89939024D01*
X146506040Y-90007298D01*
X146497526Y-90020756D01*
X146480047Y-90044815D01*
X146364783Y-90203461D01*
X146260950Y-90407244D01*
X146190278Y-90624750D01*
X146190278Y-90624753D01*
X146190278Y-90624755D01*
X146154500Y-90850646D01*
X146154500Y-91079354D01*
X146164980Y-91145520D01*
X146190278Y-91305246D01*
X146190278Y-91305249D01*
X146260950Y-91522755D01*
X146260952Y-91522758D01*
X146364783Y-91726538D01*
X146499214Y-91911566D01*
X146660934Y-92073286D01*
X146730423Y-92123773D01*
X146745438Y-92134682D01*
X146788103Y-92190013D01*
X146794082Y-92259626D01*
X146761476Y-92321421D01*
X146745438Y-92335318D01*
X146660932Y-92396715D01*
X146499216Y-92558431D01*
X146499216Y-92558432D01*
X146499214Y-92558434D01*
X146441480Y-92637896D01*
X146364783Y-92743461D01*
X146260950Y-92947244D01*
X146190278Y-93164750D01*
X146190278Y-93164753D01*
X146190278Y-93164755D01*
X146154500Y-93390646D01*
X146154500Y-93619354D01*
X146165774Y-93690532D01*
X146190278Y-93845246D01*
X146190278Y-93845249D01*
X146260950Y-94062755D01*
X146264293Y-94069316D01*
X146364783Y-94266538D01*
X146499214Y-94451566D01*
X146660934Y-94613286D01*
X146845962Y-94747717D01*
X146888347Y-94769313D01*
X147049744Y-94851549D01*
X147267251Y-94922221D01*
X147267252Y-94922221D01*
X147267255Y-94922222D01*
X147493146Y-94958000D01*
X147493147Y-94958000D01*
X147816853Y-94958000D01*
X147816854Y-94958000D01*
X148042745Y-94922222D01*
X148042748Y-94922221D01*
X148042749Y-94922221D01*
X148260255Y-94851549D01*
X148260255Y-94851548D01*
X148260258Y-94851548D01*
X148464038Y-94747717D01*
X148649066Y-94613286D01*
X148810786Y-94451566D01*
X148945217Y-94266538D01*
X149049048Y-94062758D01*
X149119722Y-93845245D01*
X149155500Y-93619354D01*
X149155500Y-93390646D01*
X149119722Y-93164755D01*
X149119721Y-93164751D01*
X149119721Y-93164750D01*
X149049049Y-92947244D01*
X148983222Y-92818052D01*
X148945217Y-92743462D01*
X148810786Y-92558434D01*
X148649066Y-92396714D01*
X148564559Y-92335316D01*
X148521896Y-92279988D01*
X148515917Y-92210375D01*
X148548523Y-92148580D01*
X148564556Y-92134685D01*
X148649066Y-92073286D01*
X148810786Y-91911566D01*
X148945217Y-91726538D01*
X149049048Y-91522758D01*
X149119617Y-91305568D01*
X149119721Y-91305249D01*
X149119721Y-91305248D01*
X149119722Y-91305245D01*
X149155500Y-91079354D01*
X149155500Y-90850646D01*
X149119722Y-90624755D01*
X149119721Y-90624751D01*
X149119721Y-90624750D01*
X149049049Y-90407244D01*
X148945216Y-90203461D01*
X148812472Y-90020755D01*
X148788994Y-89954953D01*
X148804819Y-89886899D01*
X148854925Y-89838204D01*
X148869455Y-89831692D01*
X148897331Y-89821296D01*
X149012546Y-89735046D01*
X149098796Y-89619831D01*
X149149091Y-89484983D01*
X149155500Y-89425373D01*
X149155499Y-87424628D01*
X149149091Y-87365017D01*
X149098796Y-87230169D01*
X149098795Y-87230168D01*
X149098793Y-87230164D01*
X149012547Y-87114955D01*
X149012544Y-87114952D01*
X148897335Y-87028706D01*
X148897328Y-87028702D01*
X148762482Y-86978408D01*
X148762483Y-86978408D01*
X148702883Y-86972001D01*
X148702881Y-86972000D01*
X148702873Y-86972000D01*
X148702864Y-86972000D01*
X146607129Y-86972000D01*
X146607123Y-86972001D01*
X146547516Y-86978408D01*
X146412671Y-87028702D01*
X146412664Y-87028706D01*
X146297455Y-87114952D01*
X146297452Y-87114955D01*
X146211206Y-87230164D01*
X146211202Y-87230171D01*
X146160908Y-87365017D01*
X146154940Y-87420534D01*
X146154501Y-87424623D01*
X146154500Y-87424635D01*
X146154500Y-87692900D01*
X146134815Y-87759939D01*
X146082011Y-87805694D01*
X146030500Y-87816900D01*
X141830740Y-87816900D01*
X141825098Y-87818412D01*
X141825096Y-87818413D01*
X141678014Y-87857823D01*
X141678009Y-87857826D01*
X141541090Y-87936875D01*
X141541082Y-87936881D01*
X141482397Y-87995567D01*
X141429280Y-88048684D01*
X141429278Y-88048686D01*
X140423746Y-89054219D01*
X139449784Y-90028181D01*
X139388461Y-90061666D01*
X139362103Y-90064500D01*
X134348298Y-90064500D01*
X134281259Y-90044815D01*
X134260617Y-90028181D01*
X130735790Y-86503355D01*
X130735788Y-86503352D01*
X130616917Y-86384481D01*
X130616912Y-86384477D01*
X130506854Y-86320936D01*
X130506852Y-86320934D01*
X130479988Y-86305424D01*
X130479987Y-86305423D01*
X130409588Y-86286560D01*
X130327257Y-86264499D01*
X130169143Y-86264499D01*
X130161547Y-86264499D01*
X130161531Y-86264500D01*
X128131692Y-86264500D01*
X128064653Y-86244815D01*
X128030119Y-86211625D01*
X127900047Y-86025861D01*
X127900045Y-86025858D01*
X127739141Y-85864954D01*
X127552734Y-85734432D01*
X127552732Y-85734431D01*
X127346497Y-85638261D01*
X127346488Y-85638258D01*
X127126697Y-85579366D01*
X127126693Y-85579365D01*
X127126692Y-85579365D01*
X127126691Y-85579364D01*
X127126686Y-85579364D01*
X126900002Y-85559532D01*
X126899998Y-85559532D01*
X126673313Y-85579364D01*
X126673302Y-85579366D01*
X126453511Y-85638258D01*
X126453502Y-85638261D01*
X126247267Y-85734431D01*
X126247265Y-85734432D01*
X126060858Y-85864954D01*
X125899954Y-86025858D01*
X125803352Y-86163823D01*
X125748776Y-86207448D01*
X125701777Y-86216700D01*
X125326457Y-86216700D01*
X125168343Y-86216700D01*
X125015615Y-86257623D01*
X125015614Y-86257623D01*
X125015612Y-86257624D01*
X125015609Y-86257625D01*
X124965496Y-86286559D01*
X124965495Y-86286560D01*
X124922089Y-86311620D01*
X124878685Y-86336679D01*
X124878682Y-86336681D01*
X124815149Y-86400215D01*
X124766880Y-86448484D01*
X124766878Y-86448486D01*
X120181649Y-91033716D01*
X115611584Y-95603781D01*
X115550261Y-95637266D01*
X115523903Y-95640100D01*
X112261454Y-95640100D01*
X112194415Y-95620415D01*
X112148660Y-95567611D01*
X112138716Y-95498453D01*
X112150649Y-95462064D01*
X112150455Y-95461984D01*
X112151513Y-95459428D01*
X112152100Y-95457640D01*
X112152785Y-95456357D01*
X112152786Y-95456356D01*
X112230091Y-95269727D01*
X112269500Y-95071603D01*
X112269500Y-94869597D01*
X112230091Y-94671473D01*
X112196673Y-94590798D01*
X112189205Y-94521330D01*
X112208964Y-94475940D01*
X112208547Y-94475712D01*
X112211095Y-94471044D01*
X112211972Y-94469031D01*
X112212796Y-94467931D01*
X112243991Y-94384294D01*
X112244934Y-94381766D01*
X112286806Y-94325833D01*
X112352270Y-94301416D01*
X112361116Y-94301100D01*
X114677731Y-94301100D01*
X114677747Y-94301101D01*
X114685343Y-94301101D01*
X114843454Y-94301101D01*
X114843457Y-94301101D01*
X114996185Y-94260177D01*
X115046304Y-94231239D01*
X115133116Y-94181120D01*
X115244920Y-94069316D01*
X115244920Y-94069314D01*
X115255128Y-94059107D01*
X115255129Y-94059104D01*
X125441616Y-83872619D01*
X125502939Y-83839134D01*
X125529297Y-83836300D01*
X129138303Y-83836300D01*
X129205342Y-83855985D01*
X129225983Y-83872618D01*
X132854284Y-87500920D01*
X132854286Y-87500921D01*
X132854290Y-87500924D01*
X132930313Y-87544815D01*
X132991216Y-87579977D01*
X133143943Y-87620901D01*
X133143945Y-87620901D01*
X133309654Y-87620901D01*
X133309670Y-87620900D01*
X134277308Y-87620900D01*
X134344347Y-87640585D01*
X134378880Y-87673774D01*
X134439213Y-87759939D01*
X134508954Y-87859541D01*
X134669858Y-88020445D01*
X134669861Y-88020447D01*
X134856266Y-88150968D01*
X135062504Y-88247139D01*
X135282308Y-88306035D01*
X135444230Y-88320201D01*
X135508998Y-88325868D01*
X135509000Y-88325868D01*
X135509002Y-88325868D01*
X135565673Y-88320909D01*
X135735692Y-88306035D01*
X135955496Y-88247139D01*
X136161734Y-88150968D01*
X136348139Y-88020447D01*
X136509047Y-87859539D01*
X136639568Y-87673134D01*
X136735739Y-87466896D01*
X136794635Y-87247092D01*
X136813741Y-87028706D01*
X136814468Y-87020401D01*
X136814468Y-87020398D01*
X136796580Y-86815939D01*
X136794635Y-86793708D01*
X136735739Y-86573904D01*
X136639568Y-86367666D01*
X136527383Y-86207448D01*
X136509045Y-86181258D01*
X136348141Y-86020354D01*
X136161734Y-85889832D01*
X136161732Y-85889831D01*
X135955497Y-85793661D01*
X135955488Y-85793658D01*
X135735697Y-85734766D01*
X135735693Y-85734765D01*
X135735692Y-85734765D01*
X135735691Y-85734764D01*
X135735686Y-85734764D01*
X135509002Y-85714932D01*
X135508998Y-85714932D01*
X135282313Y-85734764D01*
X135282302Y-85734766D01*
X135062511Y-85793658D01*
X135062502Y-85793661D01*
X134856267Y-85889831D01*
X134856265Y-85889832D01*
X134669858Y-86020354D01*
X134508954Y-86181258D01*
X134435222Y-86286561D01*
X134378881Y-86367024D01*
X134324307Y-86410648D01*
X134277308Y-86419900D01*
X133523098Y-86419900D01*
X133456059Y-86400215D01*
X133435417Y-86383581D01*
X129925990Y-82874155D01*
X129925988Y-82874152D01*
X129807117Y-82755281D01*
X129807116Y-82755280D01*
X129720304Y-82705160D01*
X129720304Y-82705159D01*
X129720300Y-82705158D01*
X129670185Y-82676223D01*
X129517457Y-82635299D01*
X129359343Y-82635299D01*
X129351747Y-82635299D01*
X129351731Y-82635300D01*
X125308257Y-82635300D01*
X125150143Y-82635300D01*
X124997415Y-82676223D01*
X124997414Y-82676223D01*
X124997412Y-82676224D01*
X124997409Y-82676225D01*
X124947296Y-82705159D01*
X124947295Y-82705160D01*
X124908583Y-82727510D01*
X124860485Y-82755279D01*
X124860482Y-82755281D01*
X124748678Y-82867086D01*
X114551984Y-93063781D01*
X114490661Y-93097266D01*
X114464303Y-93100100D01*
X112361115Y-93100100D01*
X112294076Y-93080415D01*
X112248321Y-93027611D01*
X112244933Y-93019433D01*
X112212797Y-92933271D01*
X112212793Y-92933264D01*
X112126547Y-92818055D01*
X112126544Y-92818052D01*
X112011335Y-92731806D01*
X112011328Y-92731802D01*
X111876482Y-92681508D01*
X111876483Y-92681508D01*
X111816883Y-92675101D01*
X111816881Y-92675100D01*
X111816873Y-92675100D01*
X111816864Y-92675100D01*
X110221129Y-92675100D01*
X110221123Y-92675101D01*
X110161516Y-92681508D01*
X110026671Y-92731802D01*
X110026664Y-92731806D01*
X109911455Y-92818052D01*
X109911452Y-92818055D01*
X109825206Y-92933264D01*
X109825202Y-92933271D01*
X109774908Y-93068117D01*
X109768501Y-93127716D01*
X109768500Y-93127735D01*
X109768501Y-94271500D01*
X109748816Y-94338539D01*
X109696013Y-94384294D01*
X109644501Y-94395500D01*
X97523092Y-94395500D01*
X97456053Y-94375815D01*
X97421519Y-94342625D01*
X97291447Y-94156861D01*
X97291445Y-94156858D01*
X97130541Y-93995954D01*
X96944134Y-93865432D01*
X96944132Y-93865431D01*
X96737897Y-93769261D01*
X96737888Y-93769258D01*
X96518097Y-93710366D01*
X96518093Y-93710365D01*
X96518092Y-93710365D01*
X96518091Y-93710364D01*
X96518086Y-93710364D01*
X96291402Y-93690532D01*
X96291398Y-93690532D01*
X96064713Y-93710364D01*
X96064702Y-93710366D01*
X95968467Y-93736152D01*
X95898617Y-93734489D01*
X95848693Y-93704058D01*
X91957990Y-89813355D01*
X91957988Y-89813352D01*
X91839117Y-89694481D01*
X91839116Y-89694480D01*
X91752304Y-89644360D01*
X91752304Y-89644359D01*
X91752300Y-89644358D01*
X91702185Y-89615423D01*
X91549457Y-89574499D01*
X91391343Y-89574499D01*
X91383747Y-89574499D01*
X91383731Y-89574500D01*
X84231692Y-89574500D01*
X84164653Y-89554815D01*
X84130119Y-89521625D01*
X84000047Y-89335861D01*
X84000045Y-89335858D01*
X83839141Y-89174954D01*
X83652734Y-89044432D01*
X83652732Y-89044431D01*
X83446497Y-88948261D01*
X83446488Y-88948258D01*
X83226697Y-88889366D01*
X83226693Y-88889365D01*
X83226692Y-88889365D01*
X83226691Y-88889364D01*
X83226686Y-88889364D01*
X83000002Y-88869532D01*
X82999998Y-88869532D01*
X82773313Y-88889364D01*
X82773302Y-88889366D01*
X82553511Y-88948258D01*
X82553502Y-88948261D01*
X82347267Y-89044431D01*
X82347265Y-89044432D01*
X82160858Y-89174954D01*
X81999954Y-89335858D01*
X81869432Y-89522265D01*
X81869431Y-89522267D01*
X81773261Y-89728502D01*
X81773258Y-89728511D01*
X81714366Y-89948302D01*
X81714364Y-89948313D01*
X81694532Y-90174998D01*
X81694532Y-90175001D01*
X50481300Y-90175001D01*
X50481300Y-76119299D01*
X50500985Y-76052260D01*
X50553789Y-76006505D01*
X50605300Y-75995299D01*
X50728671Y-75995299D01*
X50728672Y-75995299D01*
X50788283Y-75988891D01*
X50923131Y-75938596D01*
X51038346Y-75852346D01*
X51044851Y-75843656D01*
X51100782Y-75801784D01*
X51170473Y-75796797D01*
X51215242Y-75816389D01*
X51228064Y-75825367D01*
X51228066Y-75825368D01*
X51434304Y-75921539D01*
X51654108Y-75980435D01*
X51816030Y-75994601D01*
X51880798Y-76000268D01*
X51880800Y-76000268D01*
X51880802Y-76000268D01*
X51937607Y-75995298D01*
X52107492Y-75980435D01*
X52203732Y-75954647D01*
X52273581Y-75956310D01*
X52323506Y-75986741D01*
X52683181Y-76346416D01*
X52716666Y-76407739D01*
X52719500Y-76434097D01*
X52719500Y-80133306D01*
X52699815Y-80200345D01*
X52666623Y-80234881D01*
X52480859Y-80364953D01*
X52319954Y-80525858D01*
X52189432Y-80712265D01*
X52189431Y-80712267D01*
X52093261Y-80918502D01*
X52093258Y-80918511D01*
X52034366Y-81138302D01*
X52034364Y-81138313D01*
X52014532Y-81364998D01*
X52014532Y-81365001D01*
X52034364Y-81591686D01*
X52034366Y-81591697D01*
X52093258Y-81811488D01*
X52093261Y-81811497D01*
X52189431Y-82017732D01*
X52189432Y-82017734D01*
X52319954Y-82204141D01*
X52480858Y-82365045D01*
X52480861Y-82365047D01*
X52667266Y-82495568D01*
X52873504Y-82591739D01*
X53093308Y-82650635D01*
X53255230Y-82664801D01*
X53319998Y-82670468D01*
X53320000Y-82670468D01*
X53320002Y-82670468D01*
X53383025Y-82664954D01*
X53546692Y-82650635D01*
X53766496Y-82591739D01*
X53972734Y-82495568D01*
X54159139Y-82365047D01*
X54320047Y-82204139D01*
X54450568Y-82017734D01*
X54546739Y-81811496D01*
X54605635Y-81591692D01*
X54625468Y-81365001D01*
X62174532Y-81365001D01*
X62194364Y-81591686D01*
X62194366Y-81591697D01*
X62253258Y-81811488D01*
X62253261Y-81811497D01*
X62349431Y-82017732D01*
X62349432Y-82017734D01*
X62479954Y-82204141D01*
X62640858Y-82365045D01*
X62640861Y-82365047D01*
X62827266Y-82495568D01*
X63033504Y-82591739D01*
X63253308Y-82650635D01*
X63415230Y-82664801D01*
X63479998Y-82670468D01*
X63480000Y-82670468D01*
X63480002Y-82670468D01*
X63543025Y-82664954D01*
X63706692Y-82650635D01*
X63802932Y-82624847D01*
X63872781Y-82626510D01*
X63922706Y-82656941D01*
X64281739Y-83015974D01*
X64281749Y-83015985D01*
X64286079Y-83020315D01*
X64286080Y-83020316D01*
X64397884Y-83132120D01*
X64471561Y-83174656D01*
X64484695Y-83182239D01*
X64484697Y-83182241D01*
X64522751Y-83204211D01*
X64534815Y-83211177D01*
X64687543Y-83252100D01*
X64845657Y-83252100D01*
X71310708Y-83252100D01*
X71377747Y-83271785D01*
X71412280Y-83304974D01*
X71480829Y-83402873D01*
X71542354Y-83490741D01*
X71703258Y-83651645D01*
X71703261Y-83651647D01*
X71889666Y-83782168D01*
X72095904Y-83878339D01*
X72315708Y-83937235D01*
X72477630Y-83951401D01*
X72542398Y-83957068D01*
X72542400Y-83957068D01*
X72542402Y-83957068D01*
X72599073Y-83952109D01*
X72769092Y-83937235D01*
X72988896Y-83878339D01*
X73195134Y-83782168D01*
X73381539Y-83651647D01*
X73542447Y-83490739D01*
X73672968Y-83304334D01*
X73688146Y-83271785D01*
X73708986Y-83227095D01*
X73755159Y-83174656D01*
X73821368Y-83155500D01*
X81575501Y-83155500D01*
X81642540Y-83175185D01*
X81688295Y-83227989D01*
X81699501Y-83279500D01*
X81699501Y-83402876D01*
X81705908Y-83462483D01*
X81756202Y-83597328D01*
X81756206Y-83597335D01*
X81842452Y-83712544D01*
X81842455Y-83712547D01*
X81957664Y-83798793D01*
X81957671Y-83798797D01*
X82092517Y-83849091D01*
X82092516Y-83849091D01*
X82099444Y-83849835D01*
X82152127Y-83855500D01*
X83847872Y-83855499D01*
X83907483Y-83849091D01*
X84042331Y-83798796D01*
X84157546Y-83712546D01*
X84243796Y-83597331D01*
X84294091Y-83462483D01*
X84300500Y-83402873D01*
X84300499Y-82155096D01*
X84320184Y-82088058D01*
X84336813Y-82067421D01*
X85880520Y-80523716D01*
X85959577Y-80386784D01*
X86000501Y-80234057D01*
X86000501Y-80075942D01*
X86000501Y-80068347D01*
X86000500Y-80068329D01*
X86000500Y-77406692D01*
X86020185Y-77339653D01*
X86053374Y-77305119D01*
X86239139Y-77175047D01*
X86400047Y-77014139D01*
X86530568Y-76827734D01*
X86626739Y-76621496D01*
X86685635Y-76401692D01*
X86705468Y-76175000D01*
X86702918Y-76145858D01*
X86701558Y-76130307D01*
X86715325Y-76061807D01*
X86763940Y-76011624D01*
X86825086Y-75995500D01*
X90631903Y-75995500D01*
X90698942Y-76015185D01*
X90719584Y-76031819D01*
X93183181Y-78495416D01*
X93216666Y-78556739D01*
X93219500Y-78583097D01*
X93219500Y-82433306D01*
X93199815Y-82500345D01*
X93166623Y-82534881D01*
X92980859Y-82664953D01*
X92819954Y-82825858D01*
X92689432Y-83012265D01*
X92689431Y-83012267D01*
X92593261Y-83218502D01*
X92593258Y-83218511D01*
X92534366Y-83438302D01*
X92534364Y-83438313D01*
X92514532Y-83664998D01*
X92514532Y-83665001D01*
X92534364Y-83891686D01*
X92534366Y-83891697D01*
X92593258Y-84111488D01*
X92593261Y-84111497D01*
X92689431Y-84317732D01*
X92689432Y-84317734D01*
X92819954Y-84504141D01*
X92980858Y-84665045D01*
X92980861Y-84665047D01*
X93167266Y-84795568D01*
X93373504Y-84891739D01*
X93593308Y-84950635D01*
X93755230Y-84964801D01*
X93819998Y-84970468D01*
X93820000Y-84970468D01*
X93820002Y-84970468D01*
X93876673Y-84965509D01*
X94046692Y-84950635D01*
X94266496Y-84891739D01*
X94472734Y-84795568D01*
X94659139Y-84665047D01*
X94820047Y-84504139D01*
X94950568Y-84317734D01*
X95046739Y-84111496D01*
X95105635Y-83891692D01*
X95125468Y-83665001D01*
X102674532Y-83665001D01*
X102694364Y-83891686D01*
X102694366Y-83891697D01*
X102753258Y-84111488D01*
X102753261Y-84111497D01*
X102849431Y-84317732D01*
X102849432Y-84317734D01*
X102979954Y-84504141D01*
X103140858Y-84665045D01*
X103140861Y-84665047D01*
X103327266Y-84795568D01*
X103533504Y-84891739D01*
X103753308Y-84950635D01*
X103915230Y-84964801D01*
X103979998Y-84970468D01*
X103980000Y-84970468D01*
X103980002Y-84970468D01*
X104036673Y-84965509D01*
X104206692Y-84950635D01*
X104426496Y-84891739D01*
X104632734Y-84795568D01*
X104819139Y-84665047D01*
X104980047Y-84504139D01*
X105110568Y-84317734D01*
X105206739Y-84111496D01*
X105265635Y-83891692D01*
X105285468Y-83665000D01*
X105265635Y-83438308D01*
X105215741Y-83252099D01*
X105206741Y-83218511D01*
X105206738Y-83218502D01*
X105186292Y-83174656D01*
X105110568Y-83012266D01*
X104980047Y-82825861D01*
X104980045Y-82825858D01*
X104819141Y-82664954D01*
X104632734Y-82534432D01*
X104632732Y-82534431D01*
X104426497Y-82438261D01*
X104426488Y-82438258D01*
X104206697Y-82379366D01*
X104206693Y-82379365D01*
X104206692Y-82379365D01*
X104206691Y-82379364D01*
X104206686Y-82379364D01*
X103980002Y-82359532D01*
X103979998Y-82359532D01*
X103753313Y-82379364D01*
X103753302Y-82379366D01*
X103533511Y-82438258D01*
X103533502Y-82438261D01*
X103327267Y-82534431D01*
X103327265Y-82534432D01*
X103140858Y-82664954D01*
X102979954Y-82825858D01*
X102849432Y-83012265D01*
X102849431Y-83012267D01*
X102753261Y-83218502D01*
X102753258Y-83218511D01*
X102694366Y-83438302D01*
X102694364Y-83438313D01*
X102674532Y-83664998D01*
X102674532Y-83665001D01*
X95125468Y-83665001D01*
X95125468Y-83665000D01*
X95105635Y-83438308D01*
X95055741Y-83252099D01*
X95046741Y-83218511D01*
X95046738Y-83218502D01*
X95026292Y-83174656D01*
X94950568Y-83012266D01*
X94820047Y-82825861D01*
X94820045Y-82825858D01*
X94659140Y-82664953D01*
X94473377Y-82534881D01*
X94429752Y-82480304D01*
X94420500Y-82433306D01*
X94420500Y-78372060D01*
X94420501Y-78372047D01*
X94420501Y-78203944D01*
X94420501Y-78203943D01*
X94379577Y-78051216D01*
X94311085Y-77932583D01*
X94300524Y-77914290D01*
X94300518Y-77914282D01*
X93473322Y-77087086D01*
X92593415Y-76207180D01*
X92559931Y-76145858D01*
X92564915Y-76076166D01*
X92606787Y-76020233D01*
X92672251Y-75995816D01*
X92681097Y-75995500D01*
X97126000Y-75995500D01*
X97193039Y-76015185D01*
X97238794Y-76067989D01*
X97250000Y-76119500D01*
X97250000Y-76415000D01*
X98134134Y-76415000D01*
X98158326Y-76417383D01*
X98161123Y-76417939D01*
X98173995Y-76420499D01*
X98173996Y-76420500D01*
X98173997Y-76420500D01*
X98214170Y-76420500D01*
X98199925Y-76434745D01*
X98150556Y-76520255D01*
X98125000Y-76615630D01*
X98125000Y-76714370D01*
X98150556Y-76809745D01*
X98199925Y-76895255D01*
X98219670Y-76915000D01*
X97250000Y-76915000D01*
X97250000Y-77237844D01*
X97256401Y-77297372D01*
X97256403Y-77297379D01*
X97306645Y-77432086D01*
X97306649Y-77432093D01*
X97392809Y-77547187D01*
X97392812Y-77547190D01*
X97507906Y-77633350D01*
X97507913Y-77633354D01*
X97642620Y-77683596D01*
X97642627Y-77683598D01*
X97702155Y-77689999D01*
X97702172Y-77690000D01*
X98250000Y-77690000D01*
X98250000Y-76945330D01*
X98269745Y-76965075D01*
X98355255Y-77014444D01*
X98450630Y-77040000D01*
X98549370Y-77040000D01*
X98644745Y-77014444D01*
X98730255Y-76965075D01*
X98750000Y-76945330D01*
X98750000Y-77690000D01*
X99297828Y-77690000D01*
X99297844Y-77689999D01*
X99357372Y-77683598D01*
X99357379Y-77683596D01*
X99492086Y-77633354D01*
X99492093Y-77633350D01*
X99607187Y-77547190D01*
X99607190Y-77547187D01*
X99693350Y-77432093D01*
X99693354Y-77432086D01*
X99743596Y-77297379D01*
X99743598Y-77297372D01*
X99749999Y-77237844D01*
X99750000Y-77237827D01*
X99750000Y-76915000D01*
X98780330Y-76915000D01*
X98800075Y-76895255D01*
X98849444Y-76809745D01*
X98875000Y-76714370D01*
X98875000Y-76615630D01*
X98849444Y-76520255D01*
X98800075Y-76434745D01*
X98785830Y-76420500D01*
X98826004Y-76420500D01*
X98826004Y-76420499D01*
X98839473Y-76417820D01*
X98841674Y-76417383D01*
X98865866Y-76415000D01*
X99750000Y-76415000D01*
X99750000Y-76092172D01*
X99749999Y-76092155D01*
X99743598Y-76032627D01*
X99743596Y-76032620D01*
X99693354Y-75897913D01*
X99693353Y-75897911D01*
X99692745Y-75897099D01*
X99692390Y-75896148D01*
X99689103Y-75890128D01*
X99689968Y-75889655D01*
X99668329Y-75831634D01*
X99677451Y-75775339D01*
X99711091Y-75694127D01*
X99750500Y-75496003D01*
X99750500Y-75293997D01*
X99711091Y-75095873D01*
X99633786Y-74909244D01*
X99580094Y-74828889D01*
X99559217Y-74762214D01*
X99577701Y-74694834D01*
X99580078Y-74691134D01*
X99597539Y-74665002D01*
X106295034Y-74665002D01*
X106314858Y-74891599D01*
X106314860Y-74891610D01*
X106373730Y-75111317D01*
X106373735Y-75111331D01*
X106469863Y-75317478D01*
X106520974Y-75390472D01*
X107200000Y-74711446D01*
X107200000Y-74717661D01*
X107227259Y-74819394D01*
X107279920Y-74910606D01*
X107354394Y-74985080D01*
X107445606Y-75037741D01*
X107547339Y-75065000D01*
X107553553Y-75065000D01*
X106874526Y-75744025D01*
X106947513Y-75795132D01*
X106947521Y-75795136D01*
X107153668Y-75891264D01*
X107153682Y-75891269D01*
X107373389Y-75950139D01*
X107373400Y-75950141D01*
X107599998Y-75969966D01*
X107600002Y-75969966D01*
X107826599Y-75950141D01*
X107826610Y-75950139D01*
X108046317Y-75891269D01*
X108046331Y-75891264D01*
X108252478Y-75795136D01*
X108325471Y-75744024D01*
X107646447Y-75065000D01*
X107652661Y-75065000D01*
X107754394Y-75037741D01*
X107845606Y-74985080D01*
X107920080Y-74910606D01*
X107972741Y-74819394D01*
X108000000Y-74717661D01*
X108000000Y-74711447D01*
X108679024Y-75390471D01*
X108730136Y-75317478D01*
X108826264Y-75111331D01*
X108826269Y-75111317D01*
X108885139Y-74891610D01*
X108885141Y-74891599D01*
X108904966Y-74665002D01*
X108904966Y-74664997D01*
X108885141Y-74438400D01*
X108885139Y-74438389D01*
X108826269Y-74218682D01*
X108826264Y-74218668D01*
X108730136Y-74012521D01*
X108730132Y-74012513D01*
X108679025Y-73939526D01*
X108000000Y-74618551D01*
X108000000Y-74612339D01*
X107972741Y-74510606D01*
X107920080Y-74419394D01*
X107845606Y-74344920D01*
X107754394Y-74292259D01*
X107652661Y-74265000D01*
X107646448Y-74265000D01*
X108325472Y-73585974D01*
X108252478Y-73534863D01*
X108046331Y-73438735D01*
X108046317Y-73438730D01*
X107826610Y-73379860D01*
X107826599Y-73379858D01*
X107600002Y-73360034D01*
X107599998Y-73360034D01*
X107373400Y-73379858D01*
X107373389Y-73379860D01*
X107153682Y-73438730D01*
X107153673Y-73438734D01*
X106947516Y-73534866D01*
X106947512Y-73534868D01*
X106874526Y-73585973D01*
X106874526Y-73585974D01*
X107553553Y-74265000D01*
X107547339Y-74265000D01*
X107445606Y-74292259D01*
X107354394Y-74344920D01*
X107279920Y-74419394D01*
X107227259Y-74510606D01*
X107200000Y-74612339D01*
X107200000Y-74618552D01*
X106520974Y-73939526D01*
X106520973Y-73939526D01*
X106469868Y-74012512D01*
X106469866Y-74012516D01*
X106373734Y-74218673D01*
X106373730Y-74218682D01*
X106314860Y-74438389D01*
X106314858Y-74438400D01*
X106295034Y-74664997D01*
X106295034Y-74665002D01*
X99597539Y-74665002D01*
X99633786Y-74610756D01*
X99711091Y-74424127D01*
X99750500Y-74226003D01*
X99750500Y-74023997D01*
X99742125Y-73981892D01*
X99713614Y-73838555D01*
X99719841Y-73768963D01*
X99747548Y-73726685D01*
X103172416Y-70301819D01*
X103233739Y-70268334D01*
X103260097Y-70265500D01*
X106368308Y-70265500D01*
X106435347Y-70285185D01*
X106469880Y-70318374D01*
X106525284Y-70397499D01*
X106599954Y-70504141D01*
X106760858Y-70665045D01*
X106807693Y-70697839D01*
X106947266Y-70795568D01*
X107153504Y-70891739D01*
X107373308Y-70950635D01*
X107535230Y-70964801D01*
X107599998Y-70970468D01*
X107600000Y-70970468D01*
X107600002Y-70970468D01*
X107662499Y-70965000D01*
X107826692Y-70950635D01*
X107922932Y-70924847D01*
X107992781Y-70926510D01*
X108042706Y-70956941D01*
X109963181Y-72877416D01*
X109996666Y-72938739D01*
X109999500Y-72965097D01*
X109999500Y-81078330D01*
X109999499Y-81078348D01*
X109999499Y-81244054D01*
X109999498Y-81244054D01*
X110040422Y-81396783D01*
X110067715Y-81444055D01*
X110067717Y-81444058D01*
X110119479Y-81533714D01*
X110119481Y-81533717D01*
X110238349Y-81652585D01*
X110238355Y-81652590D01*
X112591023Y-84005258D01*
X112624508Y-84066581D01*
X112619524Y-84136273D01*
X112577652Y-84192206D01*
X112550797Y-84207499D01*
X112544249Y-84210211D01*
X112544237Y-84210217D01*
X112376281Y-84322441D01*
X112233441Y-84465281D01*
X112121217Y-84633237D01*
X112121212Y-84633247D01*
X112043909Y-84819872D01*
X112043907Y-84819880D01*
X112004500Y-85017992D01*
X112004500Y-85670007D01*
X112043907Y-85868119D01*
X112043909Y-85868127D01*
X112121212Y-86054752D01*
X112121217Y-86054762D01*
X112233440Y-86222716D01*
X112233441Y-86222717D01*
X112233442Y-86222718D01*
X112376282Y-86365558D01*
X112376285Y-86365560D01*
X112376287Y-86365562D01*
X112380997Y-86369428D01*
X112379848Y-86370826D01*
X112419194Y-86417904D01*
X112429500Y-86467397D01*
X112429500Y-86808330D01*
X112429499Y-86808348D01*
X112429499Y-86974054D01*
X112429498Y-86974054D01*
X112429499Y-86974057D01*
X112470423Y-87126785D01*
X112470910Y-87127628D01*
X112470922Y-87127672D01*
X112470932Y-87127667D01*
X112549475Y-87263709D01*
X112549481Y-87263717D01*
X112668349Y-87382585D01*
X112668355Y-87382590D01*
X113815139Y-88529374D01*
X113815149Y-88529385D01*
X113819479Y-88533715D01*
X113819480Y-88533716D01*
X113931284Y-88645520D01*
X114018095Y-88695639D01*
X114018097Y-88695641D01*
X114068213Y-88724576D01*
X114068215Y-88724577D01*
X114220942Y-88765500D01*
X114220943Y-88765500D01*
X116213331Y-88765500D01*
X116213347Y-88765501D01*
X116220943Y-88765501D01*
X116379054Y-88765501D01*
X116379057Y-88765501D01*
X116531785Y-88724577D01*
X116581904Y-88695639D01*
X116668716Y-88645520D01*
X116780520Y-88533716D01*
X116780520Y-88533714D01*
X116790728Y-88523507D01*
X116790729Y-88523504D01*
X123612416Y-81701819D01*
X123673739Y-81668334D01*
X123700097Y-81665500D01*
X126313331Y-81665500D01*
X126313347Y-81665501D01*
X126320943Y-81665501D01*
X126479054Y-81665501D01*
X126479057Y-81665501D01*
X126631785Y-81624577D01*
X126688743Y-81591692D01*
X126768716Y-81545520D01*
X126880520Y-81433716D01*
X126880520Y-81433714D01*
X126890724Y-81423511D01*
X126890727Y-81423506D01*
X127269432Y-81044801D01*
X156460190Y-81044801D01*
X156480604Y-81330233D01*
X156541428Y-81609837D01*
X156541430Y-81609843D01*
X156541431Y-81609846D01*
X156577711Y-81707116D01*
X156641435Y-81877966D01*
X156778570Y-82129109D01*
X156778575Y-82129117D01*
X156950054Y-82358187D01*
X156950070Y-82358205D01*
X157152394Y-82560529D01*
X157152412Y-82560545D01*
X157381482Y-82732024D01*
X157381490Y-82732029D01*
X157632633Y-82869164D01*
X157632632Y-82869164D01*
X157632636Y-82869165D01*
X157632639Y-82869167D01*
X157900754Y-82969169D01*
X157900760Y-82969170D01*
X157900762Y-82969171D01*
X158180366Y-83029995D01*
X158180368Y-83029995D01*
X158180372Y-83029996D01*
X158434020Y-83048137D01*
X158465799Y-83050410D01*
X158465800Y-83050410D01*
X158465801Y-83050410D01*
X158494395Y-83048364D01*
X158751228Y-83029996D01*
X158795727Y-83020316D01*
X159030837Y-82969171D01*
X159030837Y-82969170D01*
X159030846Y-82969169D01*
X159298961Y-82869167D01*
X159550115Y-82732026D01*
X159779195Y-82560539D01*
X159981539Y-82358195D01*
X160015469Y-82312870D01*
X164925541Y-82312870D01*
X164925542Y-82312876D01*
X164931949Y-82372483D01*
X164982243Y-82507328D01*
X164982247Y-82507335D01*
X165068493Y-82622544D01*
X165068496Y-82622547D01*
X165183705Y-82708793D01*
X165183712Y-82708797D01*
X165318558Y-82759091D01*
X165318557Y-82759091D01*
X165325485Y-82759835D01*
X165378168Y-82765500D01*
X167873913Y-82765499D01*
X167933524Y-82759091D01*
X168068372Y-82708796D01*
X168183587Y-82622546D01*
X168269837Y-82507331D01*
X168320132Y-82372483D01*
X168326541Y-82312873D01*
X168326541Y-81065004D01*
X169920773Y-81065004D01*
X169939818Y-81319154D01*
X169988790Y-81533716D01*
X169996533Y-81567637D01*
X170051282Y-81707135D01*
X170089649Y-81804890D01*
X170094019Y-81812459D01*
X170217082Y-82025612D01*
X170375991Y-82224877D01*
X170562824Y-82398232D01*
X170773407Y-82541805D01*
X170773412Y-82541807D01*
X170773413Y-82541808D01*
X170773414Y-82541809D01*
X170877094Y-82591738D01*
X171003033Y-82652387D01*
X171003034Y-82652387D01*
X171003037Y-82652389D01*
X171246583Y-82727513D01*
X171498606Y-82765500D01*
X171753476Y-82765500D01*
X172005499Y-82727513D01*
X172249045Y-82652389D01*
X172439761Y-82560545D01*
X172478667Y-82541809D01*
X172478667Y-82541808D01*
X172478675Y-82541805D01*
X172689258Y-82398232D01*
X172876091Y-82224877D01*
X173035000Y-82025612D01*
X173162434Y-81804888D01*
X173255549Y-81567637D01*
X173312263Y-81319157D01*
X173325815Y-81138313D01*
X173331309Y-81065004D01*
X173331309Y-81064995D01*
X173312263Y-80810845D01*
X173300513Y-80759366D01*
X173255549Y-80562363D01*
X173162434Y-80325112D01*
X173035000Y-80104388D01*
X172876091Y-79905123D01*
X172689258Y-79731768D01*
X172478675Y-79588195D01*
X172478671Y-79588193D01*
X172478668Y-79588191D01*
X172478667Y-79588190D01*
X172249047Y-79477612D01*
X172249049Y-79477612D01*
X172005507Y-79402489D01*
X172005503Y-79402488D01*
X172005499Y-79402487D01*
X171884272Y-79384214D01*
X171753481Y-79364500D01*
X171753476Y-79364500D01*
X171498606Y-79364500D01*
X171498600Y-79364500D01*
X171341650Y-79388157D01*
X171246583Y-79402487D01*
X171246580Y-79402488D01*
X171246574Y-79402489D01*
X171003033Y-79477612D01*
X170773414Y-79588190D01*
X170773413Y-79588191D01*
X170562823Y-79731768D01*
X170375993Y-79905121D01*
X170375991Y-79905123D01*
X170217082Y-80104388D01*
X170089649Y-80325109D01*
X169996533Y-80562362D01*
X169996531Y-80562369D01*
X169939818Y-80810845D01*
X169920773Y-81064995D01*
X169920773Y-81065004D01*
X168326541Y-81065004D01*
X168326540Y-79817128D01*
X168320132Y-79757517D01*
X168310528Y-79731768D01*
X168269838Y-79622671D01*
X168269834Y-79622664D01*
X168183588Y-79507455D01*
X168183585Y-79507452D01*
X168068376Y-79421206D01*
X168068369Y-79421202D01*
X167933523Y-79370908D01*
X167933524Y-79370908D01*
X167873924Y-79364501D01*
X167873922Y-79364500D01*
X167873914Y-79364500D01*
X167873905Y-79364500D01*
X165378170Y-79364500D01*
X165378164Y-79364501D01*
X165318557Y-79370908D01*
X165183712Y-79421202D01*
X165183705Y-79421206D01*
X165068496Y-79507452D01*
X165068493Y-79507455D01*
X164982247Y-79622664D01*
X164982243Y-79622671D01*
X164931949Y-79757517D01*
X164925542Y-79817116D01*
X164925542Y-79817123D01*
X164925541Y-79817135D01*
X164925541Y-82312870D01*
X160015469Y-82312870D01*
X160153026Y-82129115D01*
X160290167Y-81877961D01*
X160390169Y-81609846D01*
X160394118Y-81591691D01*
X160450995Y-81330233D01*
X160450995Y-81330232D01*
X160450996Y-81330228D01*
X160471410Y-81044800D01*
X160450996Y-80759372D01*
X160408139Y-80562363D01*
X160390171Y-80479762D01*
X160390170Y-80479760D01*
X160390169Y-80479754D01*
X160290167Y-80211639D01*
X160289312Y-80210074D01*
X160153029Y-79960490D01*
X160153024Y-79960482D01*
X159981545Y-79731412D01*
X159981529Y-79731394D01*
X159779205Y-79529070D01*
X159779187Y-79529054D01*
X159550117Y-79357575D01*
X159550109Y-79357570D01*
X159298966Y-79220435D01*
X159298967Y-79220435D01*
X159178671Y-79175567D01*
X159030846Y-79120431D01*
X159030843Y-79120430D01*
X159030837Y-79120428D01*
X158751233Y-79059604D01*
X158465801Y-79039190D01*
X158465799Y-79039190D01*
X158180366Y-79059604D01*
X157900762Y-79120428D01*
X157632633Y-79220435D01*
X157381490Y-79357570D01*
X157381482Y-79357575D01*
X157152412Y-79529054D01*
X157152394Y-79529070D01*
X156950070Y-79731394D01*
X156950054Y-79731412D01*
X156778575Y-79960482D01*
X156778570Y-79960490D01*
X156641435Y-80211633D01*
X156541428Y-80479762D01*
X156480604Y-80759366D01*
X156460190Y-81044798D01*
X156460190Y-81044801D01*
X127269432Y-81044801D01*
X129800520Y-78513716D01*
X129879577Y-78376784D01*
X129920501Y-78224057D01*
X129920501Y-78065942D01*
X129920501Y-78058347D01*
X129920500Y-78058329D01*
X129920500Y-76860401D01*
X134203532Y-76860401D01*
X134223364Y-77087086D01*
X134223366Y-77087097D01*
X134282258Y-77306888D01*
X134282261Y-77306897D01*
X134378431Y-77513132D01*
X134378432Y-77513134D01*
X134508954Y-77699541D01*
X134669858Y-77860445D01*
X134669861Y-77860447D01*
X134856266Y-77990968D01*
X135062504Y-78087139D01*
X135282308Y-78146035D01*
X135444230Y-78160201D01*
X135508998Y-78165868D01*
X135509000Y-78165868D01*
X135509002Y-78165868D01*
X135565673Y-78160909D01*
X135735692Y-78146035D01*
X135955496Y-78087139D01*
X136161734Y-77990968D01*
X136348139Y-77860447D01*
X136509047Y-77699539D01*
X136639568Y-77513134D01*
X136735739Y-77306896D01*
X136794635Y-77087092D01*
X136814468Y-76860400D01*
X136794635Y-76633708D01*
X136735739Y-76413904D01*
X136639568Y-76207666D01*
X136528272Y-76048718D01*
X136509045Y-76021258D01*
X136348141Y-75860354D01*
X136161734Y-75729832D01*
X136161732Y-75729831D01*
X135955497Y-75633661D01*
X135955488Y-75633658D01*
X135735697Y-75574766D01*
X135735693Y-75574765D01*
X135735692Y-75574765D01*
X135735691Y-75574764D01*
X135735686Y-75574764D01*
X135509002Y-75554932D01*
X135508998Y-75554932D01*
X135282313Y-75574764D01*
X135282302Y-75574766D01*
X135062511Y-75633658D01*
X135062502Y-75633661D01*
X134856267Y-75729831D01*
X134856265Y-75729832D01*
X134669858Y-75860354D01*
X134508954Y-76021258D01*
X134378432Y-76207665D01*
X134378431Y-76207667D01*
X134282261Y-76413902D01*
X134282258Y-76413911D01*
X134223366Y-76633702D01*
X134223364Y-76633713D01*
X134203532Y-76860398D01*
X134203532Y-76860401D01*
X129920500Y-76860401D01*
X129920500Y-72596692D01*
X129940185Y-72529653D01*
X129973374Y-72495119D01*
X130159139Y-72365047D01*
X130320047Y-72204139D01*
X130450568Y-72017734D01*
X130546739Y-71811496D01*
X130605635Y-71591692D01*
X130625468Y-71365000D01*
X130605635Y-71138308D01*
X130599389Y-71114999D01*
X138201127Y-71114999D01*
X138201128Y-71115000D01*
X139164314Y-71115000D01*
X139159920Y-71119394D01*
X139107259Y-71210606D01*
X139080000Y-71312339D01*
X139080000Y-71417661D01*
X139107259Y-71519394D01*
X139159920Y-71610606D01*
X139164314Y-71615000D01*
X138201128Y-71615000D01*
X138253730Y-71811317D01*
X138253734Y-71811326D01*
X138349865Y-72017482D01*
X138480342Y-72203820D01*
X138641179Y-72364657D01*
X138827517Y-72495134D01*
X139033673Y-72591265D01*
X139033682Y-72591269D01*
X139229999Y-72643872D01*
X139230000Y-72643871D01*
X139230000Y-71680686D01*
X139234394Y-71685080D01*
X139325606Y-71737741D01*
X139427339Y-71765000D01*
X139532661Y-71765000D01*
X139634394Y-71737741D01*
X139725606Y-71685080D01*
X139730000Y-71680686D01*
X139730000Y-72643872D01*
X139926317Y-72591269D01*
X139926326Y-72591265D01*
X140132482Y-72495134D01*
X140318820Y-72364657D01*
X140479657Y-72203820D01*
X140610134Y-72017482D01*
X140706265Y-71811326D01*
X140706269Y-71811317D01*
X140758872Y-71615000D01*
X139795686Y-71615000D01*
X139800080Y-71610606D01*
X139852741Y-71519394D01*
X139880000Y-71417661D01*
X139880000Y-71312339D01*
X139852741Y-71210606D01*
X139800080Y-71119394D01*
X139795686Y-71115000D01*
X140758872Y-71115000D01*
X140758872Y-71114999D01*
X140706269Y-70918682D01*
X140706265Y-70918673D01*
X140610134Y-70712517D01*
X140479657Y-70526179D01*
X140318820Y-70365342D01*
X140132482Y-70234865D01*
X139926328Y-70138734D01*
X139730000Y-70086127D01*
X139730000Y-71049314D01*
X139725606Y-71044920D01*
X139634394Y-70992259D01*
X139532661Y-70965000D01*
X139427339Y-70965000D01*
X139325606Y-70992259D01*
X139234394Y-71044920D01*
X139230000Y-71049314D01*
X139230000Y-70086127D01*
X139033671Y-70138734D01*
X138827517Y-70234865D01*
X138641179Y-70365342D01*
X138480342Y-70526179D01*
X138349865Y-70712517D01*
X138253734Y-70918673D01*
X138253730Y-70918682D01*
X138201127Y-71114999D01*
X130599389Y-71114999D01*
X130579847Y-71042066D01*
X130581510Y-70972217D01*
X130611939Y-70922294D01*
X131961816Y-69572419D01*
X132023139Y-69538934D01*
X132049497Y-69536100D01*
X143612701Y-69536100D01*
X143679740Y-69555785D01*
X143725495Y-69608589D01*
X143736701Y-69660100D01*
X143736701Y-69935976D01*
X143743108Y-69995583D01*
X143793402Y-70130428D01*
X143793406Y-70130435D01*
X143879652Y-70245644D01*
X143879655Y-70245647D01*
X143994864Y-70331893D01*
X143994869Y-70331896D01*
X144022739Y-70342290D01*
X144078673Y-70384161D01*
X144103091Y-70449624D01*
X144088240Y-70517898D01*
X144079725Y-70531359D01*
X143946983Y-70714061D01*
X143843150Y-70917844D01*
X143772478Y-71135350D01*
X143772478Y-71135353D01*
X143736700Y-71361246D01*
X143736700Y-71589953D01*
X143772478Y-71815846D01*
X143772478Y-71815849D01*
X143843150Y-72033355D01*
X143930007Y-72203820D01*
X143946983Y-72237138D01*
X144081414Y-72422166D01*
X144243134Y-72583886D01*
X144328064Y-72645591D01*
X144370729Y-72700921D01*
X144376708Y-72770535D01*
X144344102Y-72832330D01*
X144328064Y-72846227D01*
X144243457Y-72907697D01*
X144081797Y-73069357D01*
X143947411Y-73254323D01*
X143843617Y-73458029D01*
X143772965Y-73675471D01*
X143758691Y-73765600D01*
X144746452Y-73765600D01*
X144724682Y-73803308D01*
X144687200Y-73943191D01*
X144687200Y-74088009D01*
X144724682Y-74227892D01*
X144746452Y-74265600D01*
X143758691Y-74265600D01*
X143772965Y-74355728D01*
X143843617Y-74573170D01*
X143947411Y-74776876D01*
X144081797Y-74961842D01*
X144243457Y-75123502D01*
X144428423Y-75257888D01*
X144632129Y-75361682D01*
X144849571Y-75432334D01*
X144987200Y-75454132D01*
X144987200Y-74506347D01*
X145024908Y-74528118D01*
X145164791Y-74565600D01*
X145309609Y-74565600D01*
X145449492Y-74528118D01*
X145487200Y-74506347D01*
X145487200Y-75454131D01*
X145624828Y-75432334D01*
X145842270Y-75361682D01*
X146045976Y-75257888D01*
X146230942Y-75123502D01*
X146392602Y-74961842D01*
X146526988Y-74776876D01*
X146630782Y-74573170D01*
X146701434Y-74355728D01*
X146715709Y-74265600D01*
X145727948Y-74265600D01*
X145749718Y-74227892D01*
X145787200Y-74088009D01*
X145787200Y-73943191D01*
X145749718Y-73803308D01*
X145727948Y-73765600D01*
X146715709Y-73765600D01*
X146701434Y-73675471D01*
X146630782Y-73458029D01*
X146526988Y-73254323D01*
X146392602Y-73069357D01*
X146230942Y-72907697D01*
X146146335Y-72846226D01*
X146103670Y-72790896D01*
X146097691Y-72721282D01*
X146130297Y-72659487D01*
X146146325Y-72645599D01*
X146231266Y-72583886D01*
X146392986Y-72422166D01*
X146527417Y-72237138D01*
X146631248Y-72033358D01*
X146645868Y-71988363D01*
X146701921Y-71815849D01*
X146701921Y-71815848D01*
X146701922Y-71815845D01*
X146737700Y-71589954D01*
X146737700Y-71361246D01*
X146701922Y-71135355D01*
X146701921Y-71135351D01*
X146701921Y-71135350D01*
X146631249Y-70917844D01*
X146568946Y-70795567D01*
X146527417Y-70714062D01*
X146394672Y-70531355D01*
X146371194Y-70465553D01*
X146387019Y-70397499D01*
X146437125Y-70348804D01*
X146451655Y-70342292D01*
X146479531Y-70331896D01*
X146594746Y-70245646D01*
X146680996Y-70130431D01*
X146731291Y-69995583D01*
X146737700Y-69935973D01*
X146737699Y-67935228D01*
X146731291Y-67875617D01*
X146680996Y-67740769D01*
X146680995Y-67740768D01*
X146680993Y-67740764D01*
X146594747Y-67625555D01*
X146594744Y-67625552D01*
X146479535Y-67539306D01*
X146479528Y-67539302D01*
X146344682Y-67489008D01*
X146344683Y-67489008D01*
X146285083Y-67482601D01*
X146285081Y-67482600D01*
X146285073Y-67482600D01*
X146285064Y-67482600D01*
X144189329Y-67482600D01*
X144189323Y-67482601D01*
X144129716Y-67489008D01*
X143994871Y-67539302D01*
X143994864Y-67539306D01*
X143879655Y-67625552D01*
X143879652Y-67625555D01*
X143793406Y-67740764D01*
X143793402Y-67740771D01*
X143743108Y-67875617D01*
X143736701Y-67935216D01*
X143736701Y-67935223D01*
X143736700Y-67935235D01*
X143736700Y-68211100D01*
X143717015Y-68278139D01*
X143664211Y-68323894D01*
X143612700Y-68335100D01*
X131670340Y-68335100D01*
X131629419Y-68346064D01*
X131629419Y-68346065D01*
X131592151Y-68356051D01*
X131517614Y-68376023D01*
X131517609Y-68376026D01*
X131380690Y-68455075D01*
X131380682Y-68455081D01*
X131268878Y-68566886D01*
X129762705Y-70073058D01*
X129701382Y-70106543D01*
X129642931Y-70105152D01*
X129546697Y-70079366D01*
X129546693Y-70079365D01*
X129546692Y-70079365D01*
X129546691Y-70079364D01*
X129546686Y-70079364D01*
X129320002Y-70059532D01*
X129319998Y-70059532D01*
X129093313Y-70079364D01*
X129093302Y-70079366D01*
X128873511Y-70138258D01*
X128873502Y-70138261D01*
X128667267Y-70234431D01*
X128667265Y-70234432D01*
X128480858Y-70364954D01*
X128319954Y-70525858D01*
X128189432Y-70712265D01*
X128189431Y-70712267D01*
X128093261Y-70918502D01*
X128093258Y-70918511D01*
X128034366Y-71138302D01*
X128034364Y-71138313D01*
X128014532Y-71364998D01*
X128014532Y-71365001D01*
X128034364Y-71591686D01*
X128034366Y-71591697D01*
X128093258Y-71811488D01*
X128093261Y-71811497D01*
X128189431Y-72017732D01*
X128189432Y-72017734D01*
X128319954Y-72204141D01*
X128480858Y-72365045D01*
X128480861Y-72365047D01*
X128666624Y-72495118D01*
X128710248Y-72549693D01*
X128719500Y-72596692D01*
X128719500Y-77844902D01*
X128699815Y-77911941D01*
X128683181Y-77932583D01*
X126187584Y-80428181D01*
X126126261Y-80461666D01*
X126099903Y-80464500D01*
X123320942Y-80464500D01*
X123168213Y-80505423D01*
X123136531Y-80523716D01*
X123136530Y-80523716D01*
X123031287Y-80584477D01*
X123031282Y-80584481D01*
X122919480Y-80696284D01*
X122919478Y-80696286D01*
X119497699Y-84118066D01*
X116087584Y-87528181D01*
X116026261Y-87561666D01*
X115999903Y-87564500D01*
X114600097Y-87564500D01*
X114533058Y-87544815D01*
X114512416Y-87528181D01*
X113666819Y-86682584D01*
X113633334Y-86621261D01*
X113630500Y-86594903D01*
X113630500Y-86586454D01*
X113650185Y-86519415D01*
X113702989Y-86473660D01*
X113772147Y-86463716D01*
X113808535Y-86475649D01*
X113808616Y-86475455D01*
X113811171Y-86476513D01*
X113812960Y-86477100D01*
X113814242Y-86477785D01*
X113814243Y-86477785D01*
X113814244Y-86477786D01*
X114000873Y-86555091D01*
X114158547Y-86586454D01*
X114198992Y-86594499D01*
X114198996Y-86594500D01*
X114198997Y-86594500D01*
X114401004Y-86594500D01*
X114401005Y-86594499D01*
X114599127Y-86555091D01*
X114679798Y-86521674D01*
X114749267Y-86514205D01*
X114794658Y-86533962D01*
X114794886Y-86533546D01*
X114799540Y-86536087D01*
X114801562Y-86536967D01*
X114802669Y-86537796D01*
X114802670Y-86537796D01*
X114802671Y-86537797D01*
X114937517Y-86588091D01*
X114937516Y-86588091D01*
X114944444Y-86588835D01*
X114997127Y-86594500D01*
X116142872Y-86594499D01*
X116202483Y-86588091D01*
X116337331Y-86537796D01*
X116452546Y-86451546D01*
X116538796Y-86336331D01*
X116589091Y-86201483D01*
X116595500Y-86141873D01*
X116595499Y-84546128D01*
X116589091Y-84486517D01*
X116581170Y-84465281D01*
X116538797Y-84351671D01*
X116538793Y-84351664D01*
X116452547Y-84236455D01*
X116452544Y-84236452D01*
X116337335Y-84150206D01*
X116337330Y-84150203D01*
X116251166Y-84118066D01*
X116195233Y-84076194D01*
X116170816Y-84010730D01*
X116170500Y-84001884D01*
X116170500Y-78045001D01*
X120294532Y-78045001D01*
X120314364Y-78271686D01*
X120314366Y-78271697D01*
X120373258Y-78491488D01*
X120373261Y-78491497D01*
X120469431Y-78697732D01*
X120469432Y-78697734D01*
X120599954Y-78884141D01*
X120760858Y-79045045D01*
X120760861Y-79045047D01*
X120947266Y-79175568D01*
X121153504Y-79271739D01*
X121373308Y-79330635D01*
X121535230Y-79344801D01*
X121599998Y-79350468D01*
X121600000Y-79350468D01*
X121600002Y-79350468D01*
X121656673Y-79345509D01*
X121826692Y-79330635D01*
X122046496Y-79271739D01*
X122252734Y-79175568D01*
X122439139Y-79045047D01*
X122600047Y-78884139D01*
X122730568Y-78697734D01*
X122826739Y-78491496D01*
X122885635Y-78271692D01*
X122905468Y-78045000D01*
X122885635Y-77818308D01*
X122826739Y-77598504D01*
X122730568Y-77392266D01*
X122600047Y-77205861D01*
X122600045Y-77205858D01*
X122439141Y-77044954D01*
X122252734Y-76914432D01*
X122252732Y-76914431D01*
X122046497Y-76818261D01*
X122046488Y-76818258D01*
X121826697Y-76759366D01*
X121826693Y-76759365D01*
X121826692Y-76759365D01*
X121826691Y-76759364D01*
X121826686Y-76759364D01*
X121600002Y-76739532D01*
X121599998Y-76739532D01*
X121373313Y-76759364D01*
X121373302Y-76759366D01*
X121153511Y-76818258D01*
X121153502Y-76818261D01*
X120947267Y-76914431D01*
X120947265Y-76914432D01*
X120760858Y-77044954D01*
X120599954Y-77205858D01*
X120469432Y-77392265D01*
X120469431Y-77392267D01*
X120373261Y-77598502D01*
X120373258Y-77598511D01*
X120314366Y-77818302D01*
X120314364Y-77818313D01*
X120294532Y-78044998D01*
X120294532Y-78045001D01*
X116170500Y-78045001D01*
X116170500Y-74215097D01*
X116190185Y-74148058D01*
X116206819Y-74127416D01*
X118668733Y-71665502D01*
X121157295Y-69176939D01*
X121218616Y-69143456D01*
X121277067Y-69144846D01*
X121373308Y-69170635D01*
X121531500Y-69184475D01*
X121599998Y-69190468D01*
X121600000Y-69190468D01*
X121600002Y-69190468D01*
X121656673Y-69185509D01*
X121826692Y-69170635D01*
X122046496Y-69111739D01*
X122252734Y-69015568D01*
X122439139Y-68885047D01*
X122600047Y-68724139D01*
X122730568Y-68537734D01*
X122826739Y-68331496D01*
X122885635Y-68111692D01*
X122905468Y-67885000D01*
X122885635Y-67658308D01*
X122826739Y-67438504D01*
X122730568Y-67232266D01*
X122600047Y-67045861D01*
X122600045Y-67045858D01*
X122439141Y-66884954D01*
X122252734Y-66754432D01*
X122252732Y-66754431D01*
X122046497Y-66658261D01*
X122046488Y-66658258D01*
X121826697Y-66599366D01*
X121826693Y-66599365D01*
X121826692Y-66599365D01*
X121826691Y-66599364D01*
X121826686Y-66599364D01*
X121600002Y-66579532D01*
X121599998Y-66579532D01*
X121373313Y-66599364D01*
X121373302Y-66599366D01*
X121153511Y-66658258D01*
X121153502Y-66658261D01*
X120947267Y-66754431D01*
X120947265Y-66754432D01*
X120760858Y-66884954D01*
X120599954Y-67045858D01*
X120469432Y-67232265D01*
X120469431Y-67232267D01*
X120373261Y-67438502D01*
X120373258Y-67438511D01*
X120314366Y-67658302D01*
X120314364Y-67658313D01*
X120294532Y-67884998D01*
X120294532Y-67885001D01*
X120314364Y-68111686D01*
X120314365Y-68111694D01*
X120340152Y-68207929D01*
X120338489Y-68277779D01*
X120308058Y-68327704D01*
X115201286Y-73434478D01*
X115089481Y-73546282D01*
X115089479Y-73546284D01*
X115070868Y-73578522D01*
X115060004Y-73597339D01*
X115010423Y-73683215D01*
X114969499Y-73835943D01*
X114969499Y-73835945D01*
X114969499Y-74004046D01*
X114969500Y-74004059D01*
X114969500Y-84001884D01*
X114949815Y-84068923D01*
X114897011Y-84114678D01*
X114888834Y-84118066D01*
X114802671Y-84150203D01*
X114802665Y-84150206D01*
X114801556Y-84151037D01*
X114800258Y-84151520D01*
X114794887Y-84154454D01*
X114794465Y-84153681D01*
X114736090Y-84175449D01*
X114679800Y-84166325D01*
X114599127Y-84132909D01*
X114599119Y-84132907D01*
X114408849Y-84095060D01*
X114346938Y-84062675D01*
X114345359Y-84061124D01*
X111236819Y-80952584D01*
X111203334Y-80891261D01*
X111200500Y-80864903D01*
X111200500Y-72754060D01*
X111200501Y-72754047D01*
X111200501Y-72585944D01*
X111195110Y-72565825D01*
X111159577Y-72433216D01*
X111159573Y-72433209D01*
X111080524Y-72296290D01*
X111080518Y-72296282D01*
X109994842Y-71210606D01*
X108891940Y-70107705D01*
X108858456Y-70046383D01*
X108859847Y-69987931D01*
X108885635Y-69891692D01*
X108905468Y-69665000D01*
X108885635Y-69438308D01*
X108826739Y-69218504D01*
X108730568Y-69012266D01*
X108600047Y-68825861D01*
X108600045Y-68825858D01*
X108439141Y-68664954D01*
X108252734Y-68534432D01*
X108252732Y-68534431D01*
X108046497Y-68438261D01*
X108046488Y-68438258D01*
X107826697Y-68379366D01*
X107826693Y-68379365D01*
X107826692Y-68379365D01*
X107826691Y-68379364D01*
X107826686Y-68379364D01*
X107600002Y-68359532D01*
X107599998Y-68359532D01*
X107373313Y-68379364D01*
X107373302Y-68379366D01*
X107153511Y-68438258D01*
X107153502Y-68438261D01*
X106947267Y-68534431D01*
X106947265Y-68534432D01*
X106760858Y-68664954D01*
X106599954Y-68825858D01*
X106545900Y-68903057D01*
X106469881Y-69011624D01*
X106415307Y-69055248D01*
X106368308Y-69064500D01*
X102880940Y-69064500D01*
X102840019Y-69075464D01*
X102840019Y-69075465D01*
X102802751Y-69085451D01*
X102728214Y-69105423D01*
X102728209Y-69105426D01*
X102591290Y-69184475D01*
X102591282Y-69184481D01*
X99312181Y-72463583D01*
X99250858Y-72497068D01*
X99181166Y-72492084D01*
X99125233Y-72450212D01*
X99100816Y-72384748D01*
X99100500Y-72375902D01*
X99100500Y-71928746D01*
X99100500Y-71928743D01*
X99078201Y-71845519D01*
X99059577Y-71776015D01*
X98995773Y-71665504D01*
X98980520Y-71639084D01*
X98980518Y-71639082D01*
X98980517Y-71639080D01*
X98864397Y-71522960D01*
X98864374Y-71522939D01*
X95508990Y-68167555D01*
X95508988Y-68167552D01*
X95390117Y-68048681D01*
X95390116Y-68048680D01*
X95303304Y-67998560D01*
X95303304Y-67998559D01*
X95303300Y-67998558D01*
X95253185Y-67969623D01*
X95100457Y-67928699D01*
X94942343Y-67928699D01*
X94934747Y-67928699D01*
X94934731Y-67928700D01*
X86824499Y-67928700D01*
X86757460Y-67909015D01*
X86711705Y-67856211D01*
X86700499Y-67804700D01*
X86700499Y-67707129D01*
X86700498Y-67707123D01*
X86700497Y-67707116D01*
X86694091Y-67647517D01*
X86685899Y-67625554D01*
X86643797Y-67512671D01*
X86643793Y-67512664D01*
X86557547Y-67397455D01*
X86557544Y-67397452D01*
X86442335Y-67311206D01*
X86442328Y-67311202D01*
X86307482Y-67260908D01*
X86307483Y-67260908D01*
X86247883Y-67254501D01*
X86247881Y-67254500D01*
X86247873Y-67254500D01*
X86247864Y-67254500D01*
X84552129Y-67254500D01*
X84552123Y-67254501D01*
X84492516Y-67260908D01*
X84357671Y-67311202D01*
X84357664Y-67311206D01*
X84242455Y-67397452D01*
X84242452Y-67397455D01*
X84156206Y-67512664D01*
X84156202Y-67512671D01*
X84105908Y-67647517D01*
X84099501Y-67707116D01*
X84099501Y-67707123D01*
X84099500Y-67707135D01*
X84099500Y-69402870D01*
X84099501Y-69402876D01*
X84105908Y-69462483D01*
X84156202Y-69597328D01*
X84156206Y-69597335D01*
X84242452Y-69712544D01*
X84242455Y-69712547D01*
X84357664Y-69798793D01*
X84357671Y-69798797D01*
X84492517Y-69849091D01*
X84492516Y-69849091D01*
X84499444Y-69849835D01*
X84552127Y-69855500D01*
X86247872Y-69855499D01*
X86307483Y-69849091D01*
X86442331Y-69798796D01*
X86557546Y-69712546D01*
X86643796Y-69597331D01*
X86694091Y-69462483D01*
X86700500Y-69402873D01*
X86700500Y-69253700D01*
X86720185Y-69186661D01*
X86772989Y-69140906D01*
X86824500Y-69129700D01*
X94721303Y-69129700D01*
X94788342Y-69149385D01*
X94808984Y-69166019D01*
X97863181Y-72220216D01*
X97896666Y-72281539D01*
X97899500Y-72307897D01*
X97899500Y-73087689D01*
X97879815Y-73154728D01*
X97827011Y-73200483D01*
X97822955Y-73202249D01*
X97789249Y-73216211D01*
X97789237Y-73216217D01*
X97621281Y-73328441D01*
X97478441Y-73471281D01*
X97366217Y-73639237D01*
X97366212Y-73639247D01*
X97288909Y-73825872D01*
X97288907Y-73825880D01*
X97249500Y-74023992D01*
X97249500Y-74226007D01*
X97288907Y-74424119D01*
X97288909Y-74424127D01*
X97366214Y-74610757D01*
X97366900Y-74612040D01*
X97367056Y-74612789D01*
X97368545Y-74616384D01*
X97367863Y-74616666D01*
X97381147Y-74680442D01*
X97356151Y-74745687D01*
X97299848Y-74787061D01*
X97257546Y-74794500D01*
X91018669Y-74794500D01*
X91018653Y-74794499D01*
X91011057Y-74794499D01*
X90852943Y-74794499D01*
X90845347Y-74794499D01*
X90845331Y-74794500D01*
X86266670Y-74794500D01*
X86266654Y-74794499D01*
X86259058Y-74794499D01*
X86100943Y-74794499D01*
X86008036Y-74819394D01*
X85948215Y-74835423D01*
X85826962Y-74905428D01*
X85759062Y-74921900D01*
X85732870Y-74917815D01*
X85626697Y-74889366D01*
X85626693Y-74889365D01*
X85626692Y-74889365D01*
X85626691Y-74889364D01*
X85626686Y-74889364D01*
X85400002Y-74869532D01*
X85399998Y-74869532D01*
X85173313Y-74889364D01*
X85173302Y-74889366D01*
X84953511Y-74948258D01*
X84953502Y-74948261D01*
X84747267Y-75044431D01*
X84747265Y-75044432D01*
X84560858Y-75174954D01*
X84399954Y-75335858D01*
X84269432Y-75522265D01*
X84269431Y-75522267D01*
X84173261Y-75728502D01*
X84173258Y-75728511D01*
X84114366Y-75948302D01*
X84114364Y-75948313D01*
X84094532Y-76174998D01*
X84094532Y-76175001D01*
X84114364Y-76401686D01*
X84114366Y-76401697D01*
X84173258Y-76621488D01*
X84173261Y-76621497D01*
X84269431Y-76827732D01*
X84269432Y-76827734D01*
X84399954Y-77014141D01*
X84560858Y-77175045D01*
X84560861Y-77175047D01*
X84746624Y-77305118D01*
X84790248Y-77359693D01*
X84799500Y-77406692D01*
X84799500Y-79854902D01*
X84779815Y-79921941D01*
X84763181Y-79942583D01*
X83487582Y-81218181D01*
X83426259Y-81251666D01*
X83399901Y-81254500D01*
X82152129Y-81254500D01*
X82152123Y-81254501D01*
X82092516Y-81260908D01*
X81957671Y-81311202D01*
X81957664Y-81311206D01*
X81842455Y-81397452D01*
X81842452Y-81397455D01*
X81756206Y-81512664D01*
X81756202Y-81512671D01*
X81705908Y-81647517D01*
X81699501Y-81707116D01*
X81699500Y-81707135D01*
X81699500Y-81830500D01*
X81679815Y-81897539D01*
X81627011Y-81943294D01*
X81575500Y-81954500D01*
X73706454Y-81954500D01*
X73639415Y-81934815D01*
X73604879Y-81901623D01*
X73542446Y-81812459D01*
X73381540Y-81651553D01*
X73195777Y-81521481D01*
X73152152Y-81466904D01*
X73142900Y-81419906D01*
X73142900Y-74079999D01*
X73162585Y-74012960D01*
X73215389Y-73967205D01*
X73266900Y-73955999D01*
X73280971Y-73955999D01*
X73280972Y-73955999D01*
X73340583Y-73949591D01*
X73475431Y-73899296D01*
X73590646Y-73813046D01*
X73676896Y-73697831D01*
X73727191Y-73562983D01*
X73733600Y-73503373D01*
X73733599Y-72782400D01*
X76461372Y-72782400D01*
X76481439Y-72998971D01*
X76481440Y-72998974D01*
X76540959Y-73208165D01*
X76540962Y-73208171D01*
X76563943Y-73254323D01*
X76637910Y-73402868D01*
X76768983Y-73576437D01*
X76929718Y-73722965D01*
X77114640Y-73837465D01*
X77317453Y-73916035D01*
X77531250Y-73956000D01*
X77531253Y-73956000D01*
X77748747Y-73956000D01*
X77748750Y-73956000D01*
X77962547Y-73916035D01*
X78165360Y-73837465D01*
X78350282Y-73722965D01*
X78511017Y-73576437D01*
X78642090Y-73402868D01*
X78739038Y-73208170D01*
X78739038Y-73208167D01*
X78739040Y-73208165D01*
X78798559Y-72998974D01*
X78798560Y-72998971D01*
X78818628Y-72782400D01*
X78818628Y-72782399D01*
X78798560Y-72565828D01*
X78798559Y-72565825D01*
X78739040Y-72356634D01*
X78739037Y-72356628D01*
X78701647Y-72281539D01*
X78642090Y-72161932D01*
X78511017Y-71988363D01*
X78350282Y-71841835D01*
X78165360Y-71727335D01*
X78165359Y-71727334D01*
X77962550Y-71648766D01*
X77962549Y-71648765D01*
X77962547Y-71648765D01*
X77748750Y-71608800D01*
X77531250Y-71608800D01*
X77317453Y-71648765D01*
X77317451Y-71648765D01*
X77317449Y-71648766D01*
X77114640Y-71727334D01*
X77114639Y-71727335D01*
X76929722Y-71841832D01*
X76929720Y-71841833D01*
X76929718Y-71841835D01*
X76768983Y-71988363D01*
X76768982Y-71988364D01*
X76637910Y-72161931D01*
X76540962Y-72356628D01*
X76540959Y-72356634D01*
X76481440Y-72565825D01*
X76481439Y-72565828D01*
X76461372Y-72782399D01*
X76461372Y-72782400D01*
X73733599Y-72782400D01*
X73733599Y-72061428D01*
X73727191Y-72001817D01*
X73722173Y-71988364D01*
X73676897Y-71866971D01*
X73676893Y-71866964D01*
X73590647Y-71751755D01*
X73590644Y-71751752D01*
X73475435Y-71665506D01*
X73475428Y-71665502D01*
X73340582Y-71615208D01*
X73340583Y-71615208D01*
X73280983Y-71608801D01*
X73280981Y-71608800D01*
X73280973Y-71608800D01*
X73280964Y-71608800D01*
X71839029Y-71608800D01*
X71839023Y-71608801D01*
X71779416Y-71615208D01*
X71644571Y-71665502D01*
X71644564Y-71665506D01*
X71529355Y-71751752D01*
X71529352Y-71751755D01*
X71443106Y-71866964D01*
X71443102Y-71866971D01*
X71392808Y-72001817D01*
X71386401Y-72061416D01*
X71386401Y-72061423D01*
X71386400Y-72061435D01*
X71386400Y-73503370D01*
X71386401Y-73503376D01*
X71392808Y-73562983D01*
X71443102Y-73697828D01*
X71443106Y-73697835D01*
X71529352Y-73813044D01*
X71529355Y-73813047D01*
X71644564Y-73899293D01*
X71644571Y-73899297D01*
X71779417Y-73949591D01*
X71779415Y-73949591D01*
X71831156Y-73955154D01*
X71895707Y-73981892D01*
X71935555Y-74039285D01*
X71941900Y-74078443D01*
X71941900Y-81419906D01*
X71922215Y-81486945D01*
X71889023Y-81521481D01*
X71703259Y-81651553D01*
X71542354Y-81812458D01*
X71465850Y-81921718D01*
X71412281Y-81998224D01*
X71357707Y-82041848D01*
X71310708Y-82051100D01*
X65066697Y-82051100D01*
X64999658Y-82031415D01*
X64979016Y-82014781D01*
X64771941Y-81807706D01*
X64738456Y-81746383D01*
X64739847Y-81687931D01*
X64765635Y-81591692D01*
X64785468Y-81365000D01*
X64765635Y-81138308D01*
X64706739Y-80918504D01*
X64610568Y-80712266D01*
X64480047Y-80525861D01*
X64480045Y-80525858D01*
X64319141Y-80364954D01*
X64132734Y-80234432D01*
X64132732Y-80234431D01*
X63926497Y-80138261D01*
X63926488Y-80138258D01*
X63706697Y-80079366D01*
X63706693Y-80079365D01*
X63706692Y-80079365D01*
X63706691Y-80079364D01*
X63706686Y-80079364D01*
X63480002Y-80059532D01*
X63479998Y-80059532D01*
X63253313Y-80079364D01*
X63253302Y-80079366D01*
X63033511Y-80138258D01*
X63033502Y-80138261D01*
X62827267Y-80234431D01*
X62827265Y-80234432D01*
X62640858Y-80364954D01*
X62479954Y-80525858D01*
X62349432Y-80712265D01*
X62349431Y-80712267D01*
X62253261Y-80918502D01*
X62253258Y-80918511D01*
X62194366Y-81138302D01*
X62194364Y-81138313D01*
X62174532Y-81364998D01*
X62174532Y-81365001D01*
X54625468Y-81365001D01*
X54625468Y-81365000D01*
X54605635Y-81138308D01*
X54546739Y-80918504D01*
X54450568Y-80712266D01*
X54320047Y-80525861D01*
X54320045Y-80525858D01*
X54159140Y-80364953D01*
X53973377Y-80234881D01*
X53929752Y-80180304D01*
X53920500Y-80133306D01*
X53920500Y-76054945D01*
X53920499Y-76054941D01*
X53914520Y-76032627D01*
X53904519Y-75995300D01*
X53879577Y-75902215D01*
X53824191Y-75806284D01*
X53800520Y-75765284D01*
X53688716Y-75653480D01*
X53688715Y-75653479D01*
X53684385Y-75649149D01*
X53684374Y-75649139D01*
X53172741Y-75137506D01*
X53139256Y-75076183D01*
X53140647Y-75017731D01*
X53149396Y-74985080D01*
X53166435Y-74921492D01*
X53186268Y-74694800D01*
X53166435Y-74468108D01*
X53119317Y-74292259D01*
X53107541Y-74248311D01*
X53107538Y-74248302D01*
X53092054Y-74215097D01*
X53011368Y-74042066D01*
X52880847Y-73855661D01*
X52880845Y-73855658D01*
X52719941Y-73694754D01*
X52533534Y-73564232D01*
X52533532Y-73564231D01*
X52327297Y-73468061D01*
X52327288Y-73468058D01*
X52107497Y-73409166D01*
X52107493Y-73409165D01*
X52107492Y-73409165D01*
X52107491Y-73409164D01*
X52107486Y-73409164D01*
X51880802Y-73389332D01*
X51880798Y-73389332D01*
X51654113Y-73409164D01*
X51654102Y-73409166D01*
X51434311Y-73468058D01*
X51434302Y-73468061D01*
X51228067Y-73564231D01*
X51228062Y-73564234D01*
X51215235Y-73573215D01*
X51149027Y-73595538D01*
X51081261Y-73578522D01*
X51044852Y-73545945D01*
X51038346Y-73537254D01*
X51038345Y-73537253D01*
X51038344Y-73537252D01*
X50923135Y-73451006D01*
X50923128Y-73451002D01*
X50788282Y-73400708D01*
X50788283Y-73400708D01*
X50728683Y-73394301D01*
X50728681Y-73394300D01*
X50728673Y-73394300D01*
X50728664Y-73394300D01*
X49032929Y-73394300D01*
X49032923Y-73394301D01*
X48973316Y-73400708D01*
X48838471Y-73451002D01*
X48838464Y-73451006D01*
X48723255Y-73537252D01*
X48723252Y-73537255D01*
X48637006Y-73652464D01*
X48637002Y-73652471D01*
X48586708Y-73787317D01*
X48580301Y-73846916D01*
X48580300Y-73846935D01*
X48580300Y-75542670D01*
X38951300Y-75542670D01*
X38951300Y-68275709D01*
X38970985Y-68208670D01*
X39023789Y-68162915D01*
X39092947Y-68152971D01*
X39156503Y-68181996D01*
X39194277Y-68240774D01*
X39195584Y-68245580D01*
X39220623Y-68345545D01*
X39220624Y-68345548D01*
X39353016Y-68715559D01*
X39353023Y-68715575D01*
X39521062Y-69070864D01*
X39723109Y-69407958D01*
X39957228Y-69723632D01*
X40053068Y-69829376D01*
X40053069Y-69829376D01*
X41651381Y-68231064D01*
X41734457Y-68339331D01*
X41896669Y-68501543D01*
X42004934Y-68584617D01*
X40406622Y-70182929D01*
X40406622Y-70182930D01*
X40512367Y-70278771D01*
X40828041Y-70512890D01*
X41165135Y-70714937D01*
X41520424Y-70882976D01*
X41520440Y-70882983D01*
X41890450Y-71015374D01*
X42271691Y-71110870D01*
X42660449Y-71168538D01*
X43053000Y-71187823D01*
X43445550Y-71168538D01*
X43834308Y-71110870D01*
X44215549Y-71015374D01*
X44585559Y-70882983D01*
X44585575Y-70882976D01*
X44940864Y-70714937D01*
X45277958Y-70512890D01*
X45593632Y-70278770D01*
X45633760Y-70242400D01*
X73921874Y-70242400D01*
X73941933Y-70458875D01*
X74001431Y-70667991D01*
X74098338Y-70862605D01*
X74110343Y-70878501D01*
X74683091Y-70305755D01*
X74709461Y-70404166D01*
X74764637Y-70499733D01*
X74842667Y-70577763D01*
X74938234Y-70632939D01*
X75036644Y-70659308D01*
X74466211Y-71229739D01*
X74574863Y-71297014D01*
X74574864Y-71297015D01*
X74777588Y-71375550D01*
X74991298Y-71415500D01*
X75208702Y-71415500D01*
X75422416Y-71375549D01*
X75625135Y-71297015D01*
X75625139Y-71297013D01*
X75733786Y-71229740D01*
X75733786Y-71229739D01*
X75163356Y-70659308D01*
X75261766Y-70632939D01*
X75357333Y-70577763D01*
X75435363Y-70499733D01*
X75490539Y-70404166D01*
X75516908Y-70305756D01*
X76089653Y-70878501D01*
X76089655Y-70878501D01*
X76101662Y-70862603D01*
X76198568Y-70667991D01*
X76258066Y-70458875D01*
X76278126Y-70242400D01*
X76278126Y-70242399D01*
X76258066Y-70025924D01*
X76198568Y-69816808D01*
X76101662Y-69622196D01*
X76101659Y-69622192D01*
X76089654Y-69606296D01*
X75516908Y-70179043D01*
X75490539Y-70080634D01*
X75435363Y-69985067D01*
X75357333Y-69907037D01*
X75261766Y-69851861D01*
X75163355Y-69825491D01*
X75733787Y-69255059D01*
X75625137Y-69187785D01*
X75625135Y-69187784D01*
X75422411Y-69109249D01*
X75208702Y-69069300D01*
X74991298Y-69069300D01*
X74777588Y-69109249D01*
X74574866Y-69187783D01*
X74574860Y-69187786D01*
X74466212Y-69255058D01*
X74466211Y-69255059D01*
X75036644Y-69825491D01*
X74938234Y-69851861D01*
X74842667Y-69907037D01*
X74764637Y-69985067D01*
X74709461Y-70080634D01*
X74683091Y-70179043D01*
X74110344Y-69606296D01*
X74098341Y-69622190D01*
X74098333Y-69622203D01*
X74001431Y-69816808D01*
X73941933Y-70025924D01*
X73921874Y-70242399D01*
X73921874Y-70242400D01*
X45633760Y-70242400D01*
X45699376Y-70182929D01*
X44101065Y-68584618D01*
X44209331Y-68501543D01*
X44371543Y-68339331D01*
X44454618Y-68231065D01*
X46052929Y-69829376D01*
X46148770Y-69723632D01*
X46382890Y-69407958D01*
X46584937Y-69070864D01*
X46752976Y-68715575D01*
X46752983Y-68715559D01*
X46885374Y-68345549D01*
X46980870Y-67964308D01*
X47038538Y-67575550D01*
X47057823Y-67183000D01*
X47038538Y-66790449D01*
X46980870Y-66401691D01*
X46885374Y-66020450D01*
X46752983Y-65650440D01*
X46752976Y-65650424D01*
X46584937Y-65295135D01*
X46382890Y-64958041D01*
X46148771Y-64642367D01*
X46052930Y-64536622D01*
X46052929Y-64536622D01*
X44454617Y-66134934D01*
X44371543Y-66026669D01*
X44209331Y-65864457D01*
X44101065Y-65781381D01*
X45699376Y-64183069D01*
X45699376Y-64183068D01*
X45593632Y-64087228D01*
X45277958Y-63853109D01*
X44940864Y-63651062D01*
X44585575Y-63483023D01*
X44585559Y-63483016D01*
X44272636Y-63371051D01*
X44216147Y-63329933D01*
X44190855Y-63264801D01*
X44204792Y-63196335D01*
X44253532Y-63146273D01*
X44314410Y-63130300D01*
X185301590Y-63130300D01*
X185368629Y-63149985D01*
G37*
%TD.AperFunction*%
%TA.AperFunction,Conductor*%
G36*
X190603241Y-135281658D02*
G01*
X190657839Y-135325256D01*
X190680200Y-135391451D01*
X190680300Y-135396430D01*
X190680300Y-138205300D01*
X190660615Y-138272339D01*
X190607811Y-138318094D01*
X190556300Y-138329300D01*
X188074266Y-138329300D01*
X188007227Y-138309615D01*
X187961472Y-138256811D01*
X187951528Y-138187653D01*
X187980553Y-138124097D01*
X188032492Y-138088548D01*
X188095576Y-138065976D01*
X188450864Y-137897937D01*
X188787958Y-137695890D01*
X189103632Y-137461770D01*
X189209376Y-137365929D01*
X187611065Y-135767618D01*
X187719331Y-135684543D01*
X187881543Y-135522331D01*
X187964618Y-135414065D01*
X189562929Y-137012376D01*
X189658770Y-136906632D01*
X189892890Y-136590958D01*
X190094937Y-136253864D01*
X190262976Y-135898575D01*
X190262983Y-135898559D01*
X190395375Y-135528548D01*
X190395376Y-135528545D01*
X190436016Y-135366301D01*
X190471400Y-135306053D01*
X190533739Y-135274500D01*
X190603241Y-135281658D01*
G37*
%TD.AperFunction*%
%TA.AperFunction,Conductor*%
G36*
X190623339Y-63149985D02*
G01*
X190669094Y-63202789D01*
X190680300Y-63254300D01*
X190680300Y-66152569D01*
X190660615Y-66219608D01*
X190607811Y-66265363D01*
X190538653Y-66275307D01*
X190475097Y-66246282D01*
X190437323Y-66187504D01*
X190436016Y-66182699D01*
X190395374Y-66020450D01*
X190262983Y-65650440D01*
X190262976Y-65650424D01*
X190094937Y-65295135D01*
X189892890Y-64958041D01*
X189658771Y-64642367D01*
X189562930Y-64536622D01*
X189562929Y-64536622D01*
X187964617Y-66134934D01*
X187881543Y-66026669D01*
X187719331Y-65864457D01*
X187611065Y-65781381D01*
X189209376Y-64183069D01*
X189209376Y-64183068D01*
X189103632Y-64087228D01*
X188787958Y-63853109D01*
X188450864Y-63651062D01*
X188095575Y-63483023D01*
X188095559Y-63483016D01*
X187782636Y-63371051D01*
X187726147Y-63329933D01*
X187700855Y-63264801D01*
X187714792Y-63196335D01*
X187763532Y-63146273D01*
X187824410Y-63130300D01*
X190556300Y-63130300D01*
X190623339Y-63149985D01*
G37*
%TD.AperFunction*%
%TA.AperFunction,Conductor*%
G36*
X41858629Y-63149985D02*
G01*
X41904384Y-63202789D01*
X41914328Y-63271947D01*
X41885303Y-63335503D01*
X41833364Y-63371051D01*
X41520440Y-63483016D01*
X41520424Y-63483023D01*
X41165135Y-63651062D01*
X40828041Y-63853109D01*
X40512368Y-64087228D01*
X40406622Y-64183069D01*
X42004934Y-65781381D01*
X41896669Y-65864457D01*
X41734457Y-66026669D01*
X41651381Y-66134934D01*
X40053069Y-64536622D01*
X39957228Y-64642368D01*
X39723109Y-64958041D01*
X39521062Y-65295135D01*
X39353023Y-65650424D01*
X39353016Y-65650440D01*
X39220625Y-66020450D01*
X39195584Y-66120420D01*
X39160200Y-66180667D01*
X39097861Y-66212220D01*
X39028359Y-66205062D01*
X38973760Y-66161464D01*
X38951400Y-66095269D01*
X38951300Y-66090290D01*
X38951300Y-63254300D01*
X38970985Y-63187261D01*
X39023789Y-63141506D01*
X39075300Y-63130300D01*
X41791590Y-63130300D01*
X41858629Y-63149985D01*
G37*
%TD.AperFunction*%
%TD*%
M02*
