M48
; DRILL file {KiCad 8.0.6} date 2024-11-12T22:05:36-0800
; FORMAT={-:-/ absolute / inch / decimal}
; #@! TF.CreationDate,2024-11-12T22:05:36-08:00
; #@! TF.GenerationSoftware,Kicad,Pcbnew,8.0.6
; #@! TF.FileFunction,Plated,1,2,PTH
FMAT,2
INCH
; #@! TA.AperFunction,Plated,PTH,ComponentDrill
T1C0.0315
; #@! TA.AperFunction,Plated,PTH,ComponentDrill
T2C0.0354
; #@! TA.AperFunction,Plated,PTH,ComponentDrill
T3C0.0394
; #@! TA.AperFunction,Plated,PTH,ComponentDrill
T4C0.0512
; #@! TA.AperFunction,Plated,PTH,ComponentDrill
T5C0.1378
%
G90
G05
T1
X5.407Y-3.25
X5.407Y-3.65
X5.707Y-3.25
X5.707Y-3.65
T2
X4.9159Y-3.1589
X4.9159Y-3.2589
T4
X6.45Y-3.5031
X6.45Y-3.7
X6.45Y-3.8969
X6.462Y-4.2531
X6.462Y-4.45
X6.462Y-4.6469
T5
X4.9Y-2.85
X4.9Y-5.15
X6.5Y-2.8581
X6.5Y-5.1581
T3
G00X5.05Y-3.8729
M15
G01X5.05Y-3.9517
M16
G05
G00X5.1287Y-4.0973
M15
G01X5.2075Y-4.0973
M16
G05
G00X5.2862Y-3.8729
M15
G01X5.2862Y-3.9517
M16
G05
M30
