%TF.GenerationSoftware,KiCad,Pcbnew,8.0.6*%
%TF.CreationDate,2024-11-12T22:05:41-08:00*%
%TF.ProjectId,PD Jack_RevA,5044204a-6163-46b5-9f52-6576412e6b69,rev?*%
%TF.SameCoordinates,Original*%
%TF.FileFunction,Copper,L1,Top*%
%TF.FilePolarity,Positive*%
%FSLAX46Y46*%
G04 Gerber Fmt 4.6, Leading zero omitted, Abs format (unit mm)*
G04 Created by KiCad (PCBNEW 8.0.6) date 2024-11-12 22:05:41*
%MOMM*%
%LPD*%
G01*
G04 APERTURE LIST*
G04 Aperture macros list*
%AMRoundRect*
0 Rectangle with rounded corners*
0 $1 Rounding radius*
0 $2 $3 $4 $5 $6 $7 $8 $9 X,Y pos of 4 corners*
0 Add a 4 corners polygon primitive as box body*
4,1,4,$2,$3,$4,$5,$6,$7,$8,$9,$2,$3,0*
0 Add four circle primitives for the rounded corners*
1,1,$1+$1,$2,$3*
1,1,$1+$1,$4,$5*
1,1,$1+$1,$6,$7*
1,1,$1+$1,$8,$9*
0 Add four rect primitives between the rounded corners*
20,1,$1+$1,$2,$3,$4,$5,0*
20,1,$1+$1,$4,$5,$6,$7,0*
20,1,$1+$1,$6,$7,$8,$9,0*
20,1,$1+$1,$8,$9,$2,$3,0*%
G04 Aperture macros list end*
%TA.AperFunction,ComponentPad*%
%ADD10C,7.000000*%
%TD*%
%TA.AperFunction,ComponentPad*%
%ADD11R,1.800000X1.800000*%
%TD*%
%TA.AperFunction,ComponentPad*%
%ADD12C,1.800000*%
%TD*%
%TA.AperFunction,ComponentPad*%
%ADD13R,3.500000X3.500000*%
%TD*%
%TA.AperFunction,ComponentPad*%
%ADD14RoundRect,0.750000X-0.750000X-1.000000X0.750000X-1.000000X0.750000X1.000000X-0.750000X1.000000X0*%
%TD*%
%TA.AperFunction,ComponentPad*%
%ADD15RoundRect,0.875000X-0.875000X-0.875000X0.875000X-0.875000X0.875000X0.875000X-0.875000X0.875000X0*%
%TD*%
%TA.AperFunction,ComponentPad*%
%ADD16C,1.600000*%
%TD*%
%TA.AperFunction,ComponentPad*%
%ADD17O,1.600000X1.600000*%
%TD*%
%TA.AperFunction,ComponentPad*%
%ADD18R,2.600000X2.600000*%
%TD*%
%TA.AperFunction,ComponentPad*%
%ADD19C,2.600000*%
%TD*%
G04 APERTURE END LIST*
D10*
%TO.P,H4,1,1*%
%TO.N,GND*%
X124460000Y-130810000D03*
%TD*%
D11*
%TO.P,D1,1,K*%
%TO.N,GND*%
X124865000Y-80237000D03*
D12*
%TO.P,D1,2,A*%
%TO.N,Net-(D1-A)*%
X124865000Y-82777000D03*
%TD*%
D13*
%TO.P,J1,1*%
%TO.N,18V*%
X134270000Y-99372500D03*
D14*
%TO.P,J1,2*%
%TO.N,GND*%
X128270000Y-99372500D03*
D15*
%TO.P,J1,3*%
X131270000Y-104072500D03*
%TD*%
D16*
%TO.P,R1,1*%
%TO.N,18V*%
X144958000Y-92710000D03*
D17*
%TO.P,R1,2*%
%TO.N,Net-(R1-Pad2)*%
X144958000Y-82550000D03*
%TD*%
D18*
%TO.P,(-)J3,1,Pin_1*%
%TO.N,GND*%
X164135000Y-118030000D03*
D19*
%TO.P,(-)J3,2,Pin_2*%
X164135000Y-113030000D03*
%TO.P,(-)J3,3,Pin_3*%
X164135000Y-108030000D03*
%TD*%
D10*
%TO.P,H2,1,1*%
%TO.N,GND*%
X165100000Y-131017000D03*
%TD*%
%TO.P,H1,1,1*%
%TO.N,GND*%
X165100000Y-72597000D03*
%TD*%
%TO.P,H3,1,1*%
%TO.N,GND*%
X124460000Y-72390000D03*
%TD*%
D18*
%TO.P,(+)J2,1,Pin_1*%
%TO.N,18V*%
X163830000Y-98980000D03*
D19*
%TO.P,(+)J2,2,Pin_2*%
X163830000Y-93980000D03*
%TO.P,(+)J2,3,Pin_3*%
X163830000Y-88980000D03*
%TD*%
D16*
%TO.P,R2,1*%
%TO.N,Net-(R1-Pad2)*%
X137338000Y-82550000D03*
D17*
%TO.P,R2,2*%
%TO.N,Net-(D1-A)*%
X137338000Y-92710000D03*
%TD*%
%TA.AperFunction,Conductor*%
%TO.N,GND*%
G36*
X169488039Y-67329685D02*
G01*
X169533794Y-67382489D01*
X169545000Y-67434000D01*
X169545000Y-135766000D01*
X169525315Y-135833039D01*
X169472511Y-135878794D01*
X169421000Y-135890000D01*
X120139000Y-135890000D01*
X120071961Y-135870315D01*
X120026206Y-135817511D01*
X120015000Y-135766000D01*
X120015000Y-130810000D01*
X120455176Y-130810000D01*
X120474461Y-131202550D01*
X120532129Y-131591308D01*
X120627625Y-131972549D01*
X120760016Y-132342559D01*
X120760023Y-132342575D01*
X120928062Y-132697864D01*
X121130109Y-133034958D01*
X121364228Y-133350632D01*
X121460068Y-133456376D01*
X121460069Y-133456376D01*
X123058381Y-131858064D01*
X123141457Y-131966331D01*
X123303669Y-132128543D01*
X123411934Y-132211617D01*
X121813622Y-133809929D01*
X121813622Y-133809930D01*
X121919367Y-133905771D01*
X122235041Y-134139890D01*
X122572135Y-134341937D01*
X122927424Y-134509976D01*
X122927440Y-134509983D01*
X123297450Y-134642374D01*
X123678691Y-134737870D01*
X124067449Y-134795538D01*
X124460000Y-134814823D01*
X124852550Y-134795538D01*
X125241308Y-134737870D01*
X125622549Y-134642374D01*
X125992559Y-134509983D01*
X125992575Y-134509976D01*
X126347864Y-134341937D01*
X126684958Y-134139890D01*
X127000632Y-133905770D01*
X127106376Y-133809929D01*
X125508065Y-132211618D01*
X125616331Y-132128543D01*
X125778543Y-131966331D01*
X125861618Y-131858065D01*
X127459929Y-133456376D01*
X127555770Y-133350632D01*
X127789890Y-133034958D01*
X127991937Y-132697864D01*
X128159976Y-132342575D01*
X128159983Y-132342559D01*
X128292374Y-131972549D01*
X128387870Y-131591308D01*
X128445538Y-131202550D01*
X128454654Y-131017000D01*
X161095176Y-131017000D01*
X161114461Y-131409550D01*
X161172129Y-131798308D01*
X161267625Y-132179549D01*
X161400016Y-132549559D01*
X161400023Y-132549575D01*
X161568062Y-132904864D01*
X161770109Y-133241958D01*
X162004228Y-133557632D01*
X162100068Y-133663376D01*
X162100069Y-133663376D01*
X163698381Y-132065064D01*
X163781457Y-132173331D01*
X163943669Y-132335543D01*
X164051934Y-132418617D01*
X162453622Y-134016929D01*
X162453622Y-134016930D01*
X162559367Y-134112771D01*
X162875041Y-134346890D01*
X163212135Y-134548937D01*
X163567424Y-134716976D01*
X163567440Y-134716983D01*
X163937450Y-134849374D01*
X164318691Y-134944870D01*
X164707449Y-135002538D01*
X165100000Y-135021823D01*
X165492550Y-135002538D01*
X165881308Y-134944870D01*
X166262549Y-134849374D01*
X166632559Y-134716983D01*
X166632575Y-134716976D01*
X166987864Y-134548937D01*
X167324958Y-134346890D01*
X167640632Y-134112770D01*
X167746376Y-134016929D01*
X166148065Y-132418618D01*
X166256331Y-132335543D01*
X166418543Y-132173331D01*
X166501618Y-132065065D01*
X168099929Y-133663376D01*
X168195770Y-133557632D01*
X168429890Y-133241958D01*
X168631937Y-132904864D01*
X168799976Y-132549575D01*
X168799983Y-132549559D01*
X168932374Y-132179549D01*
X169027870Y-131798308D01*
X169085538Y-131409550D01*
X169104823Y-131017000D01*
X169085538Y-130624449D01*
X169027870Y-130235691D01*
X168932374Y-129854450D01*
X168799983Y-129484440D01*
X168799976Y-129484424D01*
X168631937Y-129129135D01*
X168429890Y-128792041D01*
X168195771Y-128476367D01*
X168099930Y-128370622D01*
X168099929Y-128370622D01*
X166501617Y-129968934D01*
X166418543Y-129860669D01*
X166256331Y-129698457D01*
X166148065Y-129615381D01*
X167746376Y-128017069D01*
X167746376Y-128017068D01*
X167640632Y-127921228D01*
X167324958Y-127687109D01*
X166987864Y-127485062D01*
X166632575Y-127317023D01*
X166632559Y-127317016D01*
X166262549Y-127184625D01*
X165881308Y-127089129D01*
X165492550Y-127031461D01*
X165100000Y-127012176D01*
X164707449Y-127031461D01*
X164318691Y-127089129D01*
X163937450Y-127184625D01*
X163567440Y-127317016D01*
X163567424Y-127317023D01*
X163212135Y-127485062D01*
X162875041Y-127687109D01*
X162559368Y-127921228D01*
X162453622Y-128017069D01*
X164051934Y-129615381D01*
X163943669Y-129698457D01*
X163781457Y-129860669D01*
X163698382Y-129968934D01*
X162100069Y-128370622D01*
X162004228Y-128476368D01*
X161770109Y-128792041D01*
X161568062Y-129129135D01*
X161400023Y-129484424D01*
X161400016Y-129484440D01*
X161267625Y-129854450D01*
X161172129Y-130235691D01*
X161114461Y-130624449D01*
X161095176Y-131017000D01*
X128454654Y-131017000D01*
X128464823Y-130810000D01*
X128445538Y-130417449D01*
X128387870Y-130028691D01*
X128292374Y-129647450D01*
X128159983Y-129277440D01*
X128159976Y-129277424D01*
X127991937Y-128922135D01*
X127789890Y-128585041D01*
X127555771Y-128269367D01*
X127459930Y-128163622D01*
X127459929Y-128163622D01*
X125861617Y-129761934D01*
X125778543Y-129653669D01*
X125616331Y-129491457D01*
X125508065Y-129408381D01*
X127106376Y-127810069D01*
X127106376Y-127810068D01*
X127000632Y-127714228D01*
X126684958Y-127480109D01*
X126347864Y-127278062D01*
X125992575Y-127110023D01*
X125992559Y-127110016D01*
X125622549Y-126977625D01*
X125241308Y-126882129D01*
X124852550Y-126824461D01*
X124460000Y-126805176D01*
X124067449Y-126824461D01*
X123678691Y-126882129D01*
X123297450Y-126977625D01*
X122927440Y-127110016D01*
X122927424Y-127110023D01*
X122572135Y-127278062D01*
X122235041Y-127480109D01*
X121919368Y-127714228D01*
X121813622Y-127810069D01*
X123411934Y-129408381D01*
X123303669Y-129491457D01*
X123141457Y-129653669D01*
X123058381Y-129761934D01*
X121460069Y-128163622D01*
X121364228Y-128269368D01*
X121130109Y-128585041D01*
X120928062Y-128922135D01*
X120760023Y-129277424D01*
X120760016Y-129277440D01*
X120627625Y-129647450D01*
X120532129Y-130028691D01*
X120474461Y-130417449D01*
X120455176Y-130810000D01*
X120015000Y-130810000D01*
X120015000Y-116682155D01*
X162335000Y-116682155D01*
X162335000Y-117780000D01*
X163534999Y-117780000D01*
X163509979Y-117840402D01*
X163485000Y-117965981D01*
X163485000Y-118094019D01*
X163509979Y-118219598D01*
X163534999Y-118280000D01*
X162335000Y-118280000D01*
X162335000Y-119377844D01*
X162341401Y-119437372D01*
X162341403Y-119437379D01*
X162391645Y-119572086D01*
X162391649Y-119572093D01*
X162477809Y-119687187D01*
X162477812Y-119687190D01*
X162592906Y-119773350D01*
X162592913Y-119773354D01*
X162727620Y-119823596D01*
X162727627Y-119823598D01*
X162787155Y-119829999D01*
X162787172Y-119830000D01*
X163885000Y-119830000D01*
X163885000Y-118630001D01*
X163945402Y-118655021D01*
X164070981Y-118680000D01*
X164199019Y-118680000D01*
X164324598Y-118655021D01*
X164385000Y-118630001D01*
X164385000Y-119830000D01*
X165482828Y-119830000D01*
X165482844Y-119829999D01*
X165542372Y-119823598D01*
X165542379Y-119823596D01*
X165677086Y-119773354D01*
X165677093Y-119773350D01*
X165792187Y-119687190D01*
X165792190Y-119687187D01*
X165878350Y-119572093D01*
X165878354Y-119572086D01*
X165928596Y-119437379D01*
X165928598Y-119437372D01*
X165934999Y-119377844D01*
X165935000Y-119377827D01*
X165935000Y-118280000D01*
X164735001Y-118280000D01*
X164760021Y-118219598D01*
X164785000Y-118094019D01*
X164785000Y-117965981D01*
X164760021Y-117840402D01*
X164735001Y-117780000D01*
X165935000Y-117780000D01*
X165935000Y-116682172D01*
X165934999Y-116682155D01*
X165928598Y-116622627D01*
X165928596Y-116622620D01*
X165878354Y-116487913D01*
X165878350Y-116487906D01*
X165792190Y-116372812D01*
X165792187Y-116372809D01*
X165677093Y-116286649D01*
X165677086Y-116286645D01*
X165542379Y-116236403D01*
X165542372Y-116236401D01*
X165482844Y-116230000D01*
X164385000Y-116230000D01*
X164385000Y-117429998D01*
X164324598Y-117404979D01*
X164199019Y-117380000D01*
X164070981Y-117380000D01*
X163945402Y-117404979D01*
X163885000Y-117429998D01*
X163885000Y-116230000D01*
X162787155Y-116230000D01*
X162727627Y-116236401D01*
X162727620Y-116236403D01*
X162592913Y-116286645D01*
X162592906Y-116286649D01*
X162477812Y-116372809D01*
X162477809Y-116372812D01*
X162391649Y-116487906D01*
X162391645Y-116487913D01*
X162341403Y-116622620D01*
X162341401Y-116622627D01*
X162335000Y-116682155D01*
X120015000Y-116682155D01*
X120015000Y-113029995D01*
X162329953Y-113029995D01*
X162329953Y-113030004D01*
X162350113Y-113299026D01*
X162350113Y-113299028D01*
X162410142Y-113562033D01*
X162410148Y-113562052D01*
X162508709Y-113813181D01*
X162508708Y-113813181D01*
X162643602Y-114046822D01*
X162697294Y-114114151D01*
X162697295Y-114114151D01*
X163533958Y-113277488D01*
X163558978Y-113337890D01*
X163630112Y-113444351D01*
X163720649Y-113534888D01*
X163827110Y-113606022D01*
X163887510Y-113631041D01*
X163049848Y-114468702D01*
X163232483Y-114593220D01*
X163232485Y-114593221D01*
X163475539Y-114710269D01*
X163475537Y-114710269D01*
X163733337Y-114789790D01*
X163733343Y-114789792D01*
X164000101Y-114829999D01*
X164000110Y-114830000D01*
X164269890Y-114830000D01*
X164269898Y-114829999D01*
X164536656Y-114789792D01*
X164536662Y-114789790D01*
X164794461Y-114710269D01*
X165037521Y-114593218D01*
X165220150Y-114468702D01*
X164382488Y-113631041D01*
X164442890Y-113606022D01*
X164549351Y-113534888D01*
X164639888Y-113444351D01*
X164711022Y-113337890D01*
X164736041Y-113277489D01*
X165572703Y-114114151D01*
X165572704Y-114114150D01*
X165626393Y-114046828D01*
X165626400Y-114046817D01*
X165761290Y-113813181D01*
X165859851Y-113562052D01*
X165859857Y-113562033D01*
X165919886Y-113299028D01*
X165919886Y-113299026D01*
X165940047Y-113030004D01*
X165940047Y-113029995D01*
X165919886Y-112760973D01*
X165919886Y-112760971D01*
X165859857Y-112497966D01*
X165859851Y-112497947D01*
X165761290Y-112246818D01*
X165761291Y-112246818D01*
X165626397Y-112013177D01*
X165572704Y-111945847D01*
X164736041Y-112782510D01*
X164711022Y-112722110D01*
X164639888Y-112615649D01*
X164549351Y-112525112D01*
X164442890Y-112453978D01*
X164382488Y-112428958D01*
X165220150Y-111591296D01*
X165037517Y-111466779D01*
X165037516Y-111466778D01*
X164794460Y-111349730D01*
X164794462Y-111349730D01*
X164536662Y-111270209D01*
X164536656Y-111270207D01*
X164269898Y-111230000D01*
X164000101Y-111230000D01*
X163733343Y-111270207D01*
X163733337Y-111270209D01*
X163475538Y-111349730D01*
X163232485Y-111466778D01*
X163232476Y-111466783D01*
X163049848Y-111591296D01*
X163887511Y-112428958D01*
X163827110Y-112453978D01*
X163720649Y-112525112D01*
X163630112Y-112615649D01*
X163558978Y-112722110D01*
X163533958Y-112782511D01*
X162697295Y-111945848D01*
X162643600Y-112013180D01*
X162508709Y-112246818D01*
X162410148Y-112497947D01*
X162410142Y-112497966D01*
X162350113Y-112760971D01*
X162350113Y-112760973D01*
X162329953Y-113029995D01*
X120015000Y-113029995D01*
X120015000Y-108029995D01*
X162329953Y-108029995D01*
X162329953Y-108030004D01*
X162350113Y-108299026D01*
X162350113Y-108299028D01*
X162410142Y-108562033D01*
X162410148Y-108562052D01*
X162508709Y-108813181D01*
X162508708Y-108813181D01*
X162643602Y-109046822D01*
X162697294Y-109114151D01*
X162697295Y-109114151D01*
X163533958Y-108277488D01*
X163558978Y-108337890D01*
X163630112Y-108444351D01*
X163720649Y-108534888D01*
X163827110Y-108606022D01*
X163887510Y-108631041D01*
X163049848Y-109468702D01*
X163232483Y-109593220D01*
X163232485Y-109593221D01*
X163475539Y-109710269D01*
X163475537Y-109710269D01*
X163733337Y-109789790D01*
X163733343Y-109789792D01*
X164000101Y-109829999D01*
X164000110Y-109830000D01*
X164269890Y-109830000D01*
X164269898Y-109829999D01*
X164536656Y-109789792D01*
X164536662Y-109789790D01*
X164794461Y-109710269D01*
X165037521Y-109593218D01*
X165220150Y-109468702D01*
X164382488Y-108631041D01*
X164442890Y-108606022D01*
X164549351Y-108534888D01*
X164639888Y-108444351D01*
X164711022Y-108337890D01*
X164736041Y-108277489D01*
X165572703Y-109114151D01*
X165572704Y-109114150D01*
X165626393Y-109046828D01*
X165626400Y-109046817D01*
X165761290Y-108813181D01*
X165859851Y-108562052D01*
X165859857Y-108562033D01*
X165919886Y-108299028D01*
X165919886Y-108299026D01*
X165940047Y-108030004D01*
X165940047Y-108029995D01*
X165919886Y-107760973D01*
X165919886Y-107760971D01*
X165859857Y-107497966D01*
X165859851Y-107497947D01*
X165761290Y-107246818D01*
X165761291Y-107246818D01*
X165626397Y-107013177D01*
X165572704Y-106945847D01*
X164736041Y-107782510D01*
X164711022Y-107722110D01*
X164639888Y-107615649D01*
X164549351Y-107525112D01*
X164442890Y-107453978D01*
X164382488Y-107428958D01*
X165220150Y-106591296D01*
X165037517Y-106466779D01*
X165037516Y-106466778D01*
X164794460Y-106349730D01*
X164794462Y-106349730D01*
X164536662Y-106270209D01*
X164536656Y-106270207D01*
X164269898Y-106230000D01*
X164000101Y-106230000D01*
X163733343Y-106270207D01*
X163733337Y-106270209D01*
X163475538Y-106349730D01*
X163232485Y-106466778D01*
X163232476Y-106466783D01*
X163049848Y-106591296D01*
X163887511Y-107428958D01*
X163827110Y-107453978D01*
X163720649Y-107525112D01*
X163630112Y-107615649D01*
X163558978Y-107722110D01*
X163533958Y-107782511D01*
X162697295Y-106945848D01*
X162643600Y-107013180D01*
X162508709Y-107246818D01*
X162410148Y-107497947D01*
X162410142Y-107497966D01*
X162350113Y-107760971D01*
X162350113Y-107760973D01*
X162329953Y-108029995D01*
X120015000Y-108029995D01*
X120015000Y-103103921D01*
X129020000Y-103103921D01*
X129020000Y-103822500D01*
X129836988Y-103822500D01*
X129804075Y-103879507D01*
X129770000Y-104006674D01*
X129770000Y-104138326D01*
X129804075Y-104265493D01*
X129836988Y-104322500D01*
X129020001Y-104322500D01*
X129020001Y-105041088D01*
X129022794Y-105093691D01*
X129067237Y-105323487D01*
X129149879Y-105542475D01*
X129268339Y-105744341D01*
X129268344Y-105744348D01*
X129419211Y-105923286D01*
X129419213Y-105923288D01*
X129598151Y-106074155D01*
X129598158Y-106074160D01*
X129800024Y-106192620D01*
X130019012Y-106275262D01*
X130248809Y-106319705D01*
X130301382Y-106322498D01*
X130301421Y-106322499D01*
X131019999Y-106322499D01*
X131020000Y-106322498D01*
X131020000Y-104572500D01*
X131520000Y-104572500D01*
X131520000Y-106322499D01*
X132238576Y-106322499D01*
X132238588Y-106322498D01*
X132291191Y-106319705D01*
X132520987Y-106275262D01*
X132739975Y-106192620D01*
X132941841Y-106074160D01*
X132941848Y-106074155D01*
X133120786Y-105923288D01*
X133120788Y-105923286D01*
X133271655Y-105744348D01*
X133271660Y-105744341D01*
X133390120Y-105542475D01*
X133472762Y-105323487D01*
X133517205Y-105093691D01*
X133517205Y-105093690D01*
X133519998Y-105041117D01*
X133520000Y-105041078D01*
X133520000Y-104322500D01*
X132703012Y-104322500D01*
X132735925Y-104265493D01*
X132770000Y-104138326D01*
X132770000Y-104006674D01*
X132735925Y-103879507D01*
X132703012Y-103822500D01*
X133519999Y-103822500D01*
X133519999Y-103103923D01*
X133519998Y-103103911D01*
X133517205Y-103051308D01*
X133472762Y-102821512D01*
X133390120Y-102602524D01*
X133271660Y-102400658D01*
X133271655Y-102400651D01*
X133120790Y-102221715D01*
X133026007Y-102141802D01*
X132987442Y-102083539D01*
X132986498Y-102013676D01*
X133023474Y-101954393D01*
X133086632Y-101924512D01*
X133105936Y-101923000D01*
X136064957Y-101923000D01*
X136064958Y-101922999D01*
X136132104Y-101915434D01*
X136199249Y-101907869D01*
X136199252Y-101907868D01*
X136199255Y-101907868D01*
X136369522Y-101848289D01*
X136522262Y-101752316D01*
X136649816Y-101624762D01*
X136745789Y-101472022D01*
X136805368Y-101301755D01*
X136820500Y-101167454D01*
X136820500Y-97635039D01*
X161729500Y-97635039D01*
X161729500Y-100324960D01*
X161744630Y-100459249D01*
X161744631Y-100459254D01*
X161804211Y-100629523D01*
X161894112Y-100772599D01*
X161900184Y-100782262D01*
X162027738Y-100909816D01*
X162180478Y-101005789D01*
X162350745Y-101065368D01*
X162350750Y-101065369D01*
X162441246Y-101075565D01*
X162485040Y-101080499D01*
X162485043Y-101080500D01*
X162485046Y-101080500D01*
X165174957Y-101080500D01*
X165174958Y-101080499D01*
X165242104Y-101072934D01*
X165309249Y-101065369D01*
X165309252Y-101065368D01*
X165309255Y-101065368D01*
X165479522Y-101005789D01*
X165632262Y-100909816D01*
X165759816Y-100782262D01*
X165855789Y-100629522D01*
X165915368Y-100459255D01*
X165930500Y-100324954D01*
X165930500Y-97635046D01*
X165915368Y-97500745D01*
X165855789Y-97330478D01*
X165759816Y-97177738D01*
X165632262Y-97050184D01*
X165479523Y-96954211D01*
X165309254Y-96894631D01*
X165309249Y-96894630D01*
X165174960Y-96879500D01*
X165174954Y-96879500D01*
X162485046Y-96879500D01*
X162485039Y-96879500D01*
X162350750Y-96894630D01*
X162350745Y-96894631D01*
X162180476Y-96954211D01*
X162027737Y-97050184D01*
X161900184Y-97177737D01*
X161804211Y-97330476D01*
X161744631Y-97500745D01*
X161744630Y-97500750D01*
X161729500Y-97635039D01*
X136820500Y-97635039D01*
X136820500Y-97577546D01*
X136805368Y-97443245D01*
X136745789Y-97272978D01*
X136649816Y-97120238D01*
X136522262Y-96992684D01*
X136461033Y-96954211D01*
X136369523Y-96896711D01*
X136199254Y-96837131D01*
X136199249Y-96837130D01*
X136064960Y-96822000D01*
X136064954Y-96822000D01*
X132475046Y-96822000D01*
X132475039Y-96822000D01*
X132340750Y-96837130D01*
X132340745Y-96837131D01*
X132170476Y-96896711D01*
X132017737Y-96992684D01*
X131890184Y-97120237D01*
X131794211Y-97272976D01*
X131734631Y-97443245D01*
X131734630Y-97443250D01*
X131719500Y-97577539D01*
X131719500Y-101167460D01*
X131734630Y-101301749D01*
X131734631Y-101301754D01*
X131794211Y-101472023D01*
X131847683Y-101557122D01*
X131888761Y-101622498D01*
X131893889Y-101630658D01*
X131891750Y-101632001D01*
X131913743Y-101685885D01*
X131900980Y-101754579D01*
X131853105Y-101805469D01*
X131790386Y-101822500D01*
X131520000Y-101822500D01*
X131520000Y-103572500D01*
X131020000Y-103572500D01*
X131020000Y-101822500D01*
X130301423Y-101822500D01*
X130301411Y-101822501D01*
X130248808Y-101825294D01*
X130019012Y-101869737D01*
X129800024Y-101952379D01*
X129598158Y-102070839D01*
X129598151Y-102070844D01*
X129419213Y-102221711D01*
X129419211Y-102221713D01*
X129268344Y-102400651D01*
X129268339Y-102400658D01*
X129149879Y-102602524D01*
X129067237Y-102821512D01*
X129022794Y-103051308D01*
X129022794Y-103051309D01*
X129020001Y-103103882D01*
X129020000Y-103103921D01*
X120015000Y-103103921D01*
X120015000Y-98308303D01*
X126270000Y-98308303D01*
X126270000Y-99122500D01*
X127770000Y-99122500D01*
X127770000Y-99622500D01*
X126270001Y-99622500D01*
X126270001Y-100436697D01*
X126280400Y-100568832D01*
X126335377Y-100787019D01*
X126428428Y-100991874D01*
X126428431Y-100991880D01*
X126556559Y-101176823D01*
X126556569Y-101176835D01*
X126715664Y-101335930D01*
X126715676Y-101335940D01*
X126900619Y-101464068D01*
X126900625Y-101464071D01*
X127105480Y-101557122D01*
X127323667Y-101612099D01*
X127455810Y-101622499D01*
X128019999Y-101622499D01*
X128020000Y-101622498D01*
X128020000Y-100805512D01*
X128077007Y-100838425D01*
X128204174Y-100872500D01*
X128335826Y-100872500D01*
X128462993Y-100838425D01*
X128520000Y-100805512D01*
X128520000Y-101622499D01*
X129084182Y-101622499D01*
X129084197Y-101622498D01*
X129216332Y-101612099D01*
X129434519Y-101557122D01*
X129639374Y-101464071D01*
X129639380Y-101464068D01*
X129824323Y-101335940D01*
X129824335Y-101335930D01*
X129983430Y-101176835D01*
X129983440Y-101176823D01*
X130111568Y-100991880D01*
X130111571Y-100991874D01*
X130204622Y-100787019D01*
X130259599Y-100568832D01*
X130269999Y-100436696D01*
X130270000Y-100436684D01*
X130270000Y-99622500D01*
X128770000Y-99622500D01*
X128770000Y-99122500D01*
X130269999Y-99122500D01*
X130269999Y-98308317D01*
X130269998Y-98308302D01*
X130259599Y-98176167D01*
X130204622Y-97957980D01*
X130111571Y-97753125D01*
X130111568Y-97753119D01*
X129983440Y-97568176D01*
X129983430Y-97568164D01*
X129824335Y-97409069D01*
X129824323Y-97409059D01*
X129639380Y-97280931D01*
X129639374Y-97280928D01*
X129434519Y-97187877D01*
X129216332Y-97132900D01*
X129084196Y-97122500D01*
X128520000Y-97122500D01*
X128520000Y-97939488D01*
X128462993Y-97906575D01*
X128335826Y-97872500D01*
X128204174Y-97872500D01*
X128077007Y-97906575D01*
X128020000Y-97939488D01*
X128020000Y-97122500D01*
X127455817Y-97122500D01*
X127455802Y-97122501D01*
X127323667Y-97132900D01*
X127105480Y-97187877D01*
X126900625Y-97280928D01*
X126900619Y-97280931D01*
X126715676Y-97409059D01*
X126715664Y-97409069D01*
X126556569Y-97568164D01*
X126556559Y-97568176D01*
X126428431Y-97753119D01*
X126428428Y-97753125D01*
X126335377Y-97957980D01*
X126280400Y-98176167D01*
X126270000Y-98308303D01*
X120015000Y-98308303D01*
X120015000Y-92710000D01*
X135732551Y-92710000D01*
X135752317Y-92961151D01*
X135811126Y-93206110D01*
X135907533Y-93438859D01*
X136039160Y-93653653D01*
X136039161Y-93653656D01*
X136073037Y-93693319D01*
X136202776Y-93845224D01*
X136351066Y-93971875D01*
X136394343Y-94008838D01*
X136394346Y-94008839D01*
X136609140Y-94140466D01*
X136841889Y-94236873D01*
X137086852Y-94295683D01*
X137338000Y-94315449D01*
X137589148Y-94295683D01*
X137834111Y-94236873D01*
X138066859Y-94140466D01*
X138281659Y-94008836D01*
X138473224Y-93845224D01*
X138636836Y-93653659D01*
X138768466Y-93438859D01*
X138864873Y-93206111D01*
X138923683Y-92961148D01*
X138943449Y-92710000D01*
X143352551Y-92710000D01*
X143372317Y-92961151D01*
X143431126Y-93206110D01*
X143527533Y-93438859D01*
X143659160Y-93653653D01*
X143659161Y-93653656D01*
X143693037Y-93693319D01*
X143822776Y-93845224D01*
X143971066Y-93971875D01*
X144014343Y-94008838D01*
X144014346Y-94008839D01*
X144229140Y-94140466D01*
X144461889Y-94236873D01*
X144706852Y-94295683D01*
X144958000Y-94315449D01*
X145209148Y-94295683D01*
X145454111Y-94236873D01*
X145686859Y-94140466D01*
X145901659Y-94008836D01*
X145935422Y-93980000D01*
X161724592Y-93980000D01*
X161744201Y-94266680D01*
X161744201Y-94266684D01*
X161744202Y-94266686D01*
X161750228Y-94295683D01*
X161802666Y-94548034D01*
X161802667Y-94548037D01*
X161898894Y-94818793D01*
X161898893Y-94818793D01*
X162031098Y-95073935D01*
X162196812Y-95308700D01*
X162281923Y-95399831D01*
X162392947Y-95518708D01*
X162615853Y-95700055D01*
X162861382Y-95849365D01*
X163048237Y-95930526D01*
X163124942Y-95963844D01*
X163401642Y-96041371D01*
X163651920Y-96075771D01*
X163686321Y-96080500D01*
X163686322Y-96080500D01*
X163973679Y-96080500D01*
X164004370Y-96076281D01*
X164258358Y-96041371D01*
X164535058Y-95963844D01*
X164648015Y-95914779D01*
X164798617Y-95849365D01*
X164798620Y-95849363D01*
X164798625Y-95849361D01*
X165044147Y-95700055D01*
X165267053Y-95518708D01*
X165463189Y-95308698D01*
X165628901Y-95073936D01*
X165761104Y-94818797D01*
X165857334Y-94548032D01*
X165915798Y-94266686D01*
X165935408Y-93980000D01*
X165915798Y-93693314D01*
X165857334Y-93411968D01*
X165761105Y-93141206D01*
X165761106Y-93141206D01*
X165628901Y-92886064D01*
X165463187Y-92651299D01*
X165384554Y-92567105D01*
X165267053Y-92441292D01*
X165044147Y-92259945D01*
X165044146Y-92259944D01*
X164798617Y-92110634D01*
X164535063Y-91996158D01*
X164535061Y-91996157D01*
X164535058Y-91996156D01*
X164405578Y-91959877D01*
X164258364Y-91918630D01*
X164258359Y-91918629D01*
X164258358Y-91918629D01*
X164116018Y-91899064D01*
X163973679Y-91879500D01*
X163973678Y-91879500D01*
X163686322Y-91879500D01*
X163686321Y-91879500D01*
X163401642Y-91918629D01*
X163401635Y-91918630D01*
X163193861Y-91976845D01*
X163124942Y-91996156D01*
X163124939Y-91996156D01*
X163124936Y-91996158D01*
X163124935Y-91996158D01*
X162861382Y-92110634D01*
X162615853Y-92259944D01*
X162392950Y-92441289D01*
X162196812Y-92651299D01*
X162031098Y-92886064D01*
X161898894Y-93141206D01*
X161802667Y-93411962D01*
X161802666Y-93411965D01*
X161744201Y-93693319D01*
X161724592Y-93980000D01*
X145935422Y-93980000D01*
X146093224Y-93845224D01*
X146256836Y-93653659D01*
X146388466Y-93438859D01*
X146484873Y-93206111D01*
X146543683Y-92961148D01*
X146563449Y-92710000D01*
X146543683Y-92458852D01*
X146484873Y-92213889D01*
X146442104Y-92110634D01*
X146388466Y-91981140D01*
X146256839Y-91766346D01*
X146256838Y-91766343D01*
X146219875Y-91723066D01*
X146093224Y-91574776D01*
X145966571Y-91466604D01*
X145901656Y-91411161D01*
X145901653Y-91411160D01*
X145686859Y-91279533D01*
X145454110Y-91183126D01*
X145209151Y-91124317D01*
X144958000Y-91104551D01*
X144706848Y-91124317D01*
X144461889Y-91183126D01*
X144229140Y-91279533D01*
X144014346Y-91411160D01*
X144014343Y-91411161D01*
X143822776Y-91574776D01*
X143659161Y-91766343D01*
X143659160Y-91766346D01*
X143527533Y-91981140D01*
X143431126Y-92213889D01*
X143372317Y-92458848D01*
X143352551Y-92710000D01*
X138943449Y-92710000D01*
X138923683Y-92458852D01*
X138864873Y-92213889D01*
X138822104Y-92110634D01*
X138768466Y-91981140D01*
X138636839Y-91766346D01*
X138636838Y-91766343D01*
X138599875Y-91723066D01*
X138473224Y-91574776D01*
X138346571Y-91466604D01*
X138281656Y-91411161D01*
X138281653Y-91411160D01*
X138066859Y-91279533D01*
X137834110Y-91183126D01*
X137589151Y-91124317D01*
X137338000Y-91104551D01*
X137086848Y-91124317D01*
X136841889Y-91183126D01*
X136609140Y-91279533D01*
X136394346Y-91411160D01*
X136394343Y-91411161D01*
X136202776Y-91574776D01*
X136039161Y-91766343D01*
X136039160Y-91766346D01*
X135907533Y-91981140D01*
X135811126Y-92213889D01*
X135752317Y-92458848D01*
X135732551Y-92710000D01*
X120015000Y-92710000D01*
X120015000Y-88980000D01*
X161724592Y-88980000D01*
X161744201Y-89266680D01*
X161802666Y-89548034D01*
X161802667Y-89548037D01*
X161898894Y-89818793D01*
X161898893Y-89818793D01*
X162031098Y-90073935D01*
X162196812Y-90308700D01*
X162281923Y-90399831D01*
X162392947Y-90518708D01*
X162615853Y-90700055D01*
X162861382Y-90849365D01*
X163048237Y-90930526D01*
X163124942Y-90963844D01*
X163401642Y-91041371D01*
X163651920Y-91075771D01*
X163686321Y-91080500D01*
X163686322Y-91080500D01*
X163973679Y-91080500D01*
X164004370Y-91076281D01*
X164258358Y-91041371D01*
X164535058Y-90963844D01*
X164648015Y-90914779D01*
X164798617Y-90849365D01*
X164798620Y-90849363D01*
X164798625Y-90849361D01*
X165044147Y-90700055D01*
X165267053Y-90518708D01*
X165463189Y-90308698D01*
X165628901Y-90073936D01*
X165761104Y-89818797D01*
X165857334Y-89548032D01*
X165915798Y-89266686D01*
X165935408Y-88980000D01*
X165915798Y-88693314D01*
X165857334Y-88411968D01*
X165761105Y-88141206D01*
X165761106Y-88141206D01*
X165628901Y-87886064D01*
X165463187Y-87651299D01*
X165384554Y-87567105D01*
X165267053Y-87441292D01*
X165044147Y-87259945D01*
X165044146Y-87259944D01*
X164798617Y-87110634D01*
X164535063Y-86996158D01*
X164535061Y-86996157D01*
X164535058Y-86996156D01*
X164405578Y-86959877D01*
X164258364Y-86918630D01*
X164258359Y-86918629D01*
X164258358Y-86918629D01*
X164116018Y-86899064D01*
X163973679Y-86879500D01*
X163973678Y-86879500D01*
X163686322Y-86879500D01*
X163686321Y-86879500D01*
X163401642Y-86918629D01*
X163401635Y-86918630D01*
X163193861Y-86976845D01*
X163124942Y-86996156D01*
X163124939Y-86996156D01*
X163124936Y-86996158D01*
X163124935Y-86996158D01*
X162861382Y-87110634D01*
X162615853Y-87259944D01*
X162392950Y-87441289D01*
X162196812Y-87651299D01*
X162031098Y-87886064D01*
X161898894Y-88141206D01*
X161802667Y-88411962D01*
X161802666Y-88411965D01*
X161744201Y-88693319D01*
X161724592Y-88980000D01*
X120015000Y-88980000D01*
X120015000Y-82776995D01*
X123159732Y-82776995D01*
X123159732Y-82777004D01*
X123178777Y-83031154D01*
X123178778Y-83031157D01*
X123235492Y-83279637D01*
X123328607Y-83516888D01*
X123456041Y-83737612D01*
X123614950Y-83936877D01*
X123801783Y-84110232D01*
X124012366Y-84253805D01*
X124012371Y-84253807D01*
X124012372Y-84253808D01*
X124012373Y-84253809D01*
X124134328Y-84312538D01*
X124241992Y-84364387D01*
X124241993Y-84364387D01*
X124241996Y-84364389D01*
X124485542Y-84439513D01*
X124737565Y-84477500D01*
X124992435Y-84477500D01*
X125244458Y-84439513D01*
X125488004Y-84364389D01*
X125717634Y-84253805D01*
X125928217Y-84110232D01*
X126115050Y-83936877D01*
X126273959Y-83737612D01*
X126401393Y-83516888D01*
X126494508Y-83279637D01*
X126551222Y-83031157D01*
X126568458Y-82801151D01*
X126570268Y-82777004D01*
X126570268Y-82776995D01*
X126553257Y-82550000D01*
X135732551Y-82550000D01*
X135752317Y-82801151D01*
X135811126Y-83046110D01*
X135907533Y-83278859D01*
X136039160Y-83493653D01*
X136039161Y-83493656D01*
X136039164Y-83493659D01*
X136202776Y-83685224D01*
X136351066Y-83811875D01*
X136394343Y-83848838D01*
X136394346Y-83848839D01*
X136609140Y-83980466D01*
X136841889Y-84076873D01*
X137086852Y-84135683D01*
X137338000Y-84155449D01*
X137589148Y-84135683D01*
X137834111Y-84076873D01*
X138066859Y-83980466D01*
X138281659Y-83848836D01*
X138473224Y-83685224D01*
X138636836Y-83493659D01*
X138768466Y-83278859D01*
X138864873Y-83046111D01*
X138923683Y-82801148D01*
X138943449Y-82550000D01*
X143352551Y-82550000D01*
X143372317Y-82801151D01*
X143431126Y-83046110D01*
X143527533Y-83278859D01*
X143659160Y-83493653D01*
X143659161Y-83493656D01*
X143659164Y-83493659D01*
X143822776Y-83685224D01*
X143971066Y-83811875D01*
X144014343Y-83848838D01*
X144014346Y-83848839D01*
X144229140Y-83980466D01*
X144461889Y-84076873D01*
X144706852Y-84135683D01*
X144958000Y-84155449D01*
X145209148Y-84135683D01*
X145454111Y-84076873D01*
X145686859Y-83980466D01*
X145901659Y-83848836D01*
X146093224Y-83685224D01*
X146256836Y-83493659D01*
X146388466Y-83278859D01*
X146484873Y-83046111D01*
X146543683Y-82801148D01*
X146563449Y-82550000D01*
X146543683Y-82298852D01*
X146484873Y-82053889D01*
X146388466Y-81821141D01*
X146388466Y-81821140D01*
X146256839Y-81606346D01*
X146256838Y-81606343D01*
X146169215Y-81503750D01*
X146093224Y-81414776D01*
X145959067Y-81300195D01*
X145901656Y-81251161D01*
X145901653Y-81251160D01*
X145686859Y-81119533D01*
X145454110Y-81023126D01*
X145209151Y-80964317D01*
X144958000Y-80944551D01*
X144706848Y-80964317D01*
X144461889Y-81023126D01*
X144229140Y-81119533D01*
X144014346Y-81251160D01*
X144014343Y-81251161D01*
X143822776Y-81414776D01*
X143659161Y-81606343D01*
X143659160Y-81606346D01*
X143527533Y-81821140D01*
X143431126Y-82053889D01*
X143372317Y-82298848D01*
X143352551Y-82550000D01*
X138943449Y-82550000D01*
X138923683Y-82298852D01*
X138864873Y-82053889D01*
X138768466Y-81821141D01*
X138768466Y-81821140D01*
X138636839Y-81606346D01*
X138636838Y-81606343D01*
X138549215Y-81503750D01*
X138473224Y-81414776D01*
X138339067Y-81300195D01*
X138281656Y-81251161D01*
X138281653Y-81251160D01*
X138066859Y-81119533D01*
X137834110Y-81023126D01*
X137589151Y-80964317D01*
X137338000Y-80944551D01*
X137086848Y-80964317D01*
X136841889Y-81023126D01*
X136609140Y-81119533D01*
X136394346Y-81251160D01*
X136394343Y-81251161D01*
X136202776Y-81414776D01*
X136039161Y-81606343D01*
X136039160Y-81606346D01*
X135907533Y-81821140D01*
X135811126Y-82053889D01*
X135752317Y-82298848D01*
X135732551Y-82550000D01*
X126553257Y-82550000D01*
X126551222Y-82522845D01*
X126500096Y-82298848D01*
X126494508Y-82274363D01*
X126401393Y-82037112D01*
X126273959Y-81816388D01*
X126131005Y-81637130D01*
X126104598Y-81572445D01*
X126117353Y-81503750D01*
X126128687Y-81485507D01*
X126208352Y-81379089D01*
X126208354Y-81379086D01*
X126258596Y-81244379D01*
X126258598Y-81244372D01*
X126264999Y-81184844D01*
X126265000Y-81184827D01*
X126265000Y-80487000D01*
X125240278Y-80487000D01*
X125284333Y-80410694D01*
X125315000Y-80296244D01*
X125315000Y-80177756D01*
X125284333Y-80063306D01*
X125240278Y-79987000D01*
X126265000Y-79987000D01*
X126265000Y-79289172D01*
X126264999Y-79289155D01*
X126258598Y-79229627D01*
X126258596Y-79229620D01*
X126208354Y-79094913D01*
X126208350Y-79094906D01*
X126122190Y-78979812D01*
X126122187Y-78979809D01*
X126007093Y-78893649D01*
X126007086Y-78893645D01*
X125872379Y-78843403D01*
X125872372Y-78843401D01*
X125812844Y-78837000D01*
X125115000Y-78837000D01*
X125115000Y-79861722D01*
X125038694Y-79817667D01*
X124924244Y-79787000D01*
X124805756Y-79787000D01*
X124691306Y-79817667D01*
X124615000Y-79861722D01*
X124615000Y-78837000D01*
X123917155Y-78837000D01*
X123857627Y-78843401D01*
X123857620Y-78843403D01*
X123722913Y-78893645D01*
X123722906Y-78893649D01*
X123607812Y-78979809D01*
X123607809Y-78979812D01*
X123521649Y-79094906D01*
X123521645Y-79094913D01*
X123471403Y-79229620D01*
X123471401Y-79229627D01*
X123465000Y-79289155D01*
X123465000Y-79987000D01*
X124489722Y-79987000D01*
X124445667Y-80063306D01*
X124415000Y-80177756D01*
X124415000Y-80296244D01*
X124445667Y-80410694D01*
X124489722Y-80487000D01*
X123465000Y-80487000D01*
X123465000Y-81184844D01*
X123471401Y-81244372D01*
X123471403Y-81244379D01*
X123521645Y-81379086D01*
X123521649Y-81379093D01*
X123601312Y-81485508D01*
X123625730Y-81550972D01*
X123610879Y-81619245D01*
X123598993Y-81637132D01*
X123456041Y-81816388D01*
X123328608Y-82037109D01*
X123235492Y-82274362D01*
X123235490Y-82274369D01*
X123178777Y-82522845D01*
X123159732Y-82776995D01*
X120015000Y-82776995D01*
X120015000Y-72390000D01*
X120455176Y-72390000D01*
X120474461Y-72782550D01*
X120532129Y-73171308D01*
X120627625Y-73552549D01*
X120760016Y-73922559D01*
X120760023Y-73922575D01*
X120928062Y-74277864D01*
X121130109Y-74614958D01*
X121364228Y-74930632D01*
X121460068Y-75036376D01*
X121460069Y-75036376D01*
X123058381Y-73438064D01*
X123141457Y-73546331D01*
X123303669Y-73708543D01*
X123411934Y-73791617D01*
X121813622Y-75389929D01*
X121813622Y-75389930D01*
X121919367Y-75485771D01*
X122235041Y-75719890D01*
X122572135Y-75921937D01*
X122927424Y-76089976D01*
X122927440Y-76089983D01*
X123297450Y-76222374D01*
X123678691Y-76317870D01*
X124067449Y-76375538D01*
X124460000Y-76394823D01*
X124852550Y-76375538D01*
X125241308Y-76317870D01*
X125622549Y-76222374D01*
X125992559Y-76089983D01*
X125992575Y-76089976D01*
X126347864Y-75921937D01*
X126684958Y-75719890D01*
X127000632Y-75485770D01*
X127106376Y-75389929D01*
X125508065Y-73791618D01*
X125616331Y-73708543D01*
X125778543Y-73546331D01*
X125861618Y-73438065D01*
X127459929Y-75036376D01*
X127555770Y-74930632D01*
X127789890Y-74614958D01*
X127991937Y-74277864D01*
X128159976Y-73922575D01*
X128159983Y-73922559D01*
X128292374Y-73552549D01*
X128387870Y-73171308D01*
X128445538Y-72782550D01*
X128454654Y-72597000D01*
X161095176Y-72597000D01*
X161114461Y-72989550D01*
X161172129Y-73378308D01*
X161267625Y-73759549D01*
X161400016Y-74129559D01*
X161400023Y-74129575D01*
X161568062Y-74484864D01*
X161770109Y-74821958D01*
X162004228Y-75137632D01*
X162100068Y-75243376D01*
X162100069Y-75243376D01*
X163698381Y-73645064D01*
X163781457Y-73753331D01*
X163943669Y-73915543D01*
X164051934Y-73998617D01*
X162453622Y-75596929D01*
X162453622Y-75596930D01*
X162559367Y-75692771D01*
X162875041Y-75926890D01*
X163212135Y-76128937D01*
X163567424Y-76296976D01*
X163567440Y-76296983D01*
X163937450Y-76429374D01*
X164318691Y-76524870D01*
X164707449Y-76582538D01*
X165100000Y-76601823D01*
X165492550Y-76582538D01*
X165881308Y-76524870D01*
X166262549Y-76429374D01*
X166632559Y-76296983D01*
X166632575Y-76296976D01*
X166987864Y-76128937D01*
X167324958Y-75926890D01*
X167640632Y-75692770D01*
X167746376Y-75596929D01*
X166148065Y-73998618D01*
X166256331Y-73915543D01*
X166418543Y-73753331D01*
X166501618Y-73645065D01*
X168099929Y-75243376D01*
X168195770Y-75137632D01*
X168429890Y-74821958D01*
X168631937Y-74484864D01*
X168799976Y-74129575D01*
X168799983Y-74129559D01*
X168932374Y-73759549D01*
X169027870Y-73378308D01*
X169085538Y-72989550D01*
X169104823Y-72597000D01*
X169085538Y-72204449D01*
X169027870Y-71815691D01*
X168932374Y-71434450D01*
X168799983Y-71064440D01*
X168799976Y-71064424D01*
X168631937Y-70709135D01*
X168429890Y-70372041D01*
X168195771Y-70056367D01*
X168099930Y-69950622D01*
X168099929Y-69950622D01*
X166501617Y-71548934D01*
X166418543Y-71440669D01*
X166256331Y-71278457D01*
X166148065Y-71195381D01*
X167746376Y-69597069D01*
X167746376Y-69597068D01*
X167640632Y-69501228D01*
X167324958Y-69267109D01*
X166987864Y-69065062D01*
X166632575Y-68897023D01*
X166632559Y-68897016D01*
X166262549Y-68764625D01*
X165881308Y-68669129D01*
X165492550Y-68611461D01*
X165100000Y-68592176D01*
X164707449Y-68611461D01*
X164318691Y-68669129D01*
X163937450Y-68764625D01*
X163567440Y-68897016D01*
X163567424Y-68897023D01*
X163212135Y-69065062D01*
X162875041Y-69267109D01*
X162559368Y-69501228D01*
X162453622Y-69597069D01*
X164051934Y-71195381D01*
X163943669Y-71278457D01*
X163781457Y-71440669D01*
X163698382Y-71548934D01*
X162100069Y-69950622D01*
X162004228Y-70056368D01*
X161770109Y-70372041D01*
X161568062Y-70709135D01*
X161400023Y-71064424D01*
X161400016Y-71064440D01*
X161267625Y-71434450D01*
X161172129Y-71815691D01*
X161114461Y-72204449D01*
X161095176Y-72597000D01*
X128454654Y-72597000D01*
X128464823Y-72390000D01*
X128445538Y-71997449D01*
X128387870Y-71608691D01*
X128292374Y-71227450D01*
X128159983Y-70857440D01*
X128159976Y-70857424D01*
X127991937Y-70502135D01*
X127789890Y-70165041D01*
X127555771Y-69849367D01*
X127459930Y-69743622D01*
X127459929Y-69743622D01*
X125861617Y-71341934D01*
X125778543Y-71233669D01*
X125616331Y-71071457D01*
X125508065Y-70988381D01*
X127106376Y-69390069D01*
X127106376Y-69390068D01*
X127000632Y-69294228D01*
X126684958Y-69060109D01*
X126347864Y-68858062D01*
X125992575Y-68690023D01*
X125992559Y-68690016D01*
X125622549Y-68557625D01*
X125241308Y-68462129D01*
X124852550Y-68404461D01*
X124460000Y-68385176D01*
X124067449Y-68404461D01*
X123678691Y-68462129D01*
X123297450Y-68557625D01*
X122927440Y-68690016D01*
X122927424Y-68690023D01*
X122572135Y-68858062D01*
X122235041Y-69060109D01*
X121919368Y-69294228D01*
X121813622Y-69390069D01*
X123411934Y-70988381D01*
X123303669Y-71071457D01*
X123141457Y-71233669D01*
X123058381Y-71341934D01*
X121460069Y-69743622D01*
X121364228Y-69849368D01*
X121130109Y-70165041D01*
X120928062Y-70502135D01*
X120760023Y-70857424D01*
X120760016Y-70857440D01*
X120627625Y-71227450D01*
X120532129Y-71608691D01*
X120474461Y-71997449D01*
X120455176Y-72390000D01*
X120015000Y-72390000D01*
X120015000Y-67434000D01*
X120034685Y-67366961D01*
X120087489Y-67321206D01*
X120139000Y-67310000D01*
X169421000Y-67310000D01*
X169488039Y-67329685D01*
G37*
%TD.AperFunction*%
%TD*%
M02*
