%TF.GenerationSoftware,KiCad,Pcbnew,8.0.6*%
%TF.CreationDate,2024-11-12T22:05:41-08:00*%
%TF.ProjectId,PD Jack_RevA,5044204a-6163-46b5-9f52-6576412e6b69,rev?*%
%TF.SameCoordinates,Original*%
%TF.FileFunction,Legend,Top*%
%TF.FilePolarity,Positive*%
%FSLAX46Y46*%
G04 Gerber Fmt 4.6, Leading zero omitted, Abs format (unit mm)*
G04 Created by KiCad (PCBNEW 8.0.6) date 2024-11-12 22:05:41*
%MOMM*%
%LPD*%
G01*
G04 APERTURE LIST*
%ADD10C,0.300000*%
%ADD11C,0.150000*%
%ADD12C,0.120000*%
G04 APERTURE END LIST*
D10*
X142449292Y-113762788D02*
X143820381Y-113762788D01*
X142449292Y-114595736D02*
G75*
G02*
X142449322Y-113762849I202908J416436D01*
G01*
X137679027Y-115188292D02*
X135929552Y-115188292D01*
X141559879Y-120894364D02*
G75*
G02*
X138113937Y-120894364I-1722971J0D01*
G01*
X138113937Y-120894364D02*
G75*
G02*
X141559879Y-120894364I1722971J0D01*
G01*
X140667709Y-120894364D02*
G75*
G02*
X139006107Y-120894364I-830801J0D01*
G01*
X139006107Y-120894364D02*
G75*
G02*
X140667709Y-120894364I830801J0D01*
G01*
X145933849Y-112111801D02*
G75*
G02*
X144966095Y-112111801I-483877J0D01*
G01*
X144966095Y-112111801D02*
G75*
G02*
X145933849Y-112111801I483877J0D01*
G01*
X133180580Y-113880304D02*
G75*
G02*
X133756377Y-114452434I154920J-419896D01*
G01*
X142383533Y-120894364D02*
G75*
G02*
X137290283Y-120894364I-2546625J0D01*
G01*
X137290283Y-120894364D02*
G75*
G02*
X142383533Y-120894364I2546625J0D01*
G01*
X138224505Y-110953755D02*
G75*
G02*
X137658773Y-110395566I-282905J279055D01*
G01*
X137658791Y-110395584D02*
G75*
G02*
X142082980Y-110468056I2163909J-2977816D01*
G01*
X145198960Y-115947659D02*
G75*
G02*
X145795436Y-115484732I432740J58159D01*
G01*
X135929552Y-112170782D02*
X143820381Y-112170782D01*
X143820381Y-115183266D02*
X142988158Y-115183266D01*
X142449292Y-114595736D02*
X143820381Y-114595736D01*
X135929552Y-122490542D02*
X135929552Y-116037225D01*
X145795438Y-115484728D02*
G75*
G02*
X145693683Y-121119695I-3001498J-2764202D01*
G01*
X144327898Y-117159331D02*
G75*
G02*
X144296542Y-119381338I-1399998J-1091469D01*
G01*
X135390686Y-119342451D02*
G75*
G02*
X135378690Y-117120297I1378514J1118551D01*
G01*
X141293838Y-115612661D02*
G75*
G02*
X138426062Y-115612661I-1433888J0D01*
G01*
X138426062Y-115612661D02*
G75*
G02*
X141293838Y-115612661I1433888J0D01*
G01*
X143820381Y-113762788D02*
X142449292Y-113762788D01*
X144784362Y-119911872D02*
G75*
G02*
X144296508Y-119381308I-168462J334672D01*
G01*
X145198960Y-115947659D02*
G75*
G02*
X145147756Y-120578189I-2614160J-2286641D01*
G01*
X143820381Y-114595736D02*
X143820381Y-115183266D01*
X133925805Y-115432944D02*
G75*
G02*
X134518188Y-115901057I160195J-406156D01*
G01*
X134529041Y-120531844D02*
G75*
G02*
X133978367Y-121068629I-380941J-160056D01*
G01*
X143820381Y-116016214D02*
X143820381Y-122289768D01*
X142082966Y-110468074D02*
G75*
G02*
X141509972Y-110990033I-319066J-225226D01*
G01*
X145693687Y-121119699D02*
G75*
G02*
X145147764Y-120578183I-166487J378099D01*
G01*
X137679027Y-115188292D02*
G75*
G02*
X137679050Y-116037228I2180873J-424408D01*
G01*
X146419415Y-122691634D02*
G75*
G02*
X145856416Y-122106953I-152315J416734D01*
G01*
X142988158Y-116016214D02*
X143820381Y-116016214D01*
X133807095Y-122054366D02*
G75*
G02*
X133238965Y-122634142I-412295J-164234D01*
G01*
X144327898Y-117159331D02*
G75*
G02*
X144876422Y-116659118I344002J173631D01*
G01*
X145973402Y-114505738D02*
G75*
G02*
X145856365Y-122106930I-3832842J-3742482D01*
G01*
X133807095Y-122054366D02*
G75*
G02*
X133756385Y-114452434I3749335J3826146D01*
G01*
X133238969Y-122634131D02*
G75*
G02*
X133180575Y-113880299I4317461J4405911D01*
G01*
X135929552Y-115188292D02*
X135929552Y-112170782D01*
X143820381Y-122289768D02*
G75*
G02*
X135929537Y-122490548I-3983481J1395368D01*
G01*
X146554182Y-113938650D02*
G75*
G02*
X146419411Y-122691630I-4413622J-4309570D01*
G01*
X142449292Y-114595736D02*
X143820381Y-114595736D01*
X144876462Y-116659053D02*
G75*
G02*
X144784353Y-119911864I-1813862J-1576347D01*
G01*
X135390686Y-119342451D02*
G75*
G02*
X134898186Y-119868796I-321086J-193149D01*
G01*
X140418468Y-115612661D02*
G75*
G02*
X139301432Y-115612661I-558518J0D01*
G01*
X139301432Y-115612661D02*
G75*
G02*
X140418468Y-115612661I558518J0D01*
G01*
X134784565Y-112063160D02*
G75*
G02*
X133816811Y-112063160I-483877J0D01*
G01*
X133816811Y-112063160D02*
G75*
G02*
X134784565Y-112063160I483877J0D01*
G01*
X135929552Y-116037225D02*
X137679065Y-116037225D01*
X143820381Y-112170782D02*
X143820381Y-113762788D01*
X134898214Y-119868741D02*
G75*
G02*
X134834537Y-116615275I1736386J1661341D01*
G01*
X134529041Y-120531844D02*
G75*
G02*
X134518217Y-115901058I2583359J2321444D01*
G01*
X133978385Y-121068588D02*
G75*
G02*
X133925801Y-115432941I2924695J2845358D01*
G01*
X134834500Y-116615242D02*
G75*
G02*
X135378660Y-117120278I201600J-328458D01*
G01*
X142988158Y-116016214D02*
G75*
G02*
X142988127Y-115183201I202742J416514D01*
G01*
X145973402Y-114505738D02*
G75*
G02*
X146554174Y-113938671I422098J148638D01*
G01*
X138224505Y-110953755D02*
G75*
G02*
X141509976Y-110990038I1613995J-2620645D01*
G01*
D11*
X131099160Y-129272424D02*
X131242017Y-129320043D01*
X131242017Y-129320043D02*
X131480112Y-129320043D01*
X131480112Y-129320043D02*
X131575350Y-129272424D01*
X131575350Y-129272424D02*
X131622969Y-129224804D01*
X131622969Y-129224804D02*
X131670588Y-129129566D01*
X131670588Y-129129566D02*
X131670588Y-129034328D01*
X131670588Y-129034328D02*
X131622969Y-128939090D01*
X131622969Y-128939090D02*
X131575350Y-128891471D01*
X131575350Y-128891471D02*
X131480112Y-128843852D01*
X131480112Y-128843852D02*
X131289636Y-128796233D01*
X131289636Y-128796233D02*
X131194398Y-128748614D01*
X131194398Y-128748614D02*
X131146779Y-128700995D01*
X131146779Y-128700995D02*
X131099160Y-128605757D01*
X131099160Y-128605757D02*
X131099160Y-128510519D01*
X131099160Y-128510519D02*
X131146779Y-128415281D01*
X131146779Y-128415281D02*
X131194398Y-128367662D01*
X131194398Y-128367662D02*
X131289636Y-128320043D01*
X131289636Y-128320043D02*
X131527731Y-128320043D01*
X131527731Y-128320043D02*
X131670588Y-128367662D01*
X132051541Y-129034328D02*
X132527731Y-129034328D01*
X131956303Y-129320043D02*
X132289636Y-128320043D01*
X132289636Y-128320043D02*
X132622969Y-129320043D01*
X132956303Y-129320043D02*
X132956303Y-128320043D01*
X132956303Y-128320043D02*
X133527731Y-129320043D01*
X133527731Y-129320043D02*
X133527731Y-128320043D01*
X134765827Y-129320043D02*
X134765827Y-128320043D01*
X134765827Y-128320043D02*
X135003922Y-128320043D01*
X135003922Y-128320043D02*
X135146779Y-128367662D01*
X135146779Y-128367662D02*
X135242017Y-128462900D01*
X135242017Y-128462900D02*
X135289636Y-128558138D01*
X135289636Y-128558138D02*
X135337255Y-128748614D01*
X135337255Y-128748614D02*
X135337255Y-128891471D01*
X135337255Y-128891471D02*
X135289636Y-129081947D01*
X135289636Y-129081947D02*
X135242017Y-129177185D01*
X135242017Y-129177185D02*
X135146779Y-129272424D01*
X135146779Y-129272424D02*
X135003922Y-129320043D01*
X135003922Y-129320043D02*
X134765827Y-129320043D01*
X135765827Y-129320043D02*
X135765827Y-128320043D01*
X136242017Y-128796233D02*
X136575350Y-128796233D01*
X136718207Y-129320043D02*
X136242017Y-129320043D01*
X136242017Y-129320043D02*
X136242017Y-128320043D01*
X136242017Y-128320043D02*
X136718207Y-128320043D01*
X137670588Y-128367662D02*
X137575350Y-128320043D01*
X137575350Y-128320043D02*
X137432493Y-128320043D01*
X137432493Y-128320043D02*
X137289636Y-128367662D01*
X137289636Y-128367662D02*
X137194398Y-128462900D01*
X137194398Y-128462900D02*
X137146779Y-128558138D01*
X137146779Y-128558138D02*
X137099160Y-128748614D01*
X137099160Y-128748614D02*
X137099160Y-128891471D01*
X137099160Y-128891471D02*
X137146779Y-129081947D01*
X137146779Y-129081947D02*
X137194398Y-129177185D01*
X137194398Y-129177185D02*
X137289636Y-129272424D01*
X137289636Y-129272424D02*
X137432493Y-129320043D01*
X137432493Y-129320043D02*
X137527731Y-129320043D01*
X137527731Y-129320043D02*
X137670588Y-129272424D01*
X137670588Y-129272424D02*
X137718207Y-129224804D01*
X137718207Y-129224804D02*
X137718207Y-128891471D01*
X137718207Y-128891471D02*
X137527731Y-128891471D01*
X138337255Y-128320043D02*
X138527731Y-128320043D01*
X138527731Y-128320043D02*
X138622969Y-128367662D01*
X138622969Y-128367662D02*
X138718207Y-128462900D01*
X138718207Y-128462900D02*
X138765826Y-128653376D01*
X138765826Y-128653376D02*
X138765826Y-128986709D01*
X138765826Y-128986709D02*
X138718207Y-129177185D01*
X138718207Y-129177185D02*
X138622969Y-129272424D01*
X138622969Y-129272424D02*
X138527731Y-129320043D01*
X138527731Y-129320043D02*
X138337255Y-129320043D01*
X138337255Y-129320043D02*
X138242017Y-129272424D01*
X138242017Y-129272424D02*
X138146779Y-129177185D01*
X138146779Y-129177185D02*
X138099160Y-128986709D01*
X138099160Y-128986709D02*
X138099160Y-128653376D01*
X138099160Y-128653376D02*
X138146779Y-128462900D01*
X138146779Y-128462900D02*
X138242017Y-128367662D01*
X138242017Y-128367662D02*
X138337255Y-128320043D01*
X139908684Y-129272424D02*
X140051541Y-129320043D01*
X140051541Y-129320043D02*
X140289636Y-129320043D01*
X140289636Y-129320043D02*
X140384874Y-129272424D01*
X140384874Y-129272424D02*
X140432493Y-129224804D01*
X140432493Y-129224804D02*
X140480112Y-129129566D01*
X140480112Y-129129566D02*
X140480112Y-129034328D01*
X140480112Y-129034328D02*
X140432493Y-128939090D01*
X140432493Y-128939090D02*
X140384874Y-128891471D01*
X140384874Y-128891471D02*
X140289636Y-128843852D01*
X140289636Y-128843852D02*
X140099160Y-128796233D01*
X140099160Y-128796233D02*
X140003922Y-128748614D01*
X140003922Y-128748614D02*
X139956303Y-128700995D01*
X139956303Y-128700995D02*
X139908684Y-128605757D01*
X139908684Y-128605757D02*
X139908684Y-128510519D01*
X139908684Y-128510519D02*
X139956303Y-128415281D01*
X139956303Y-128415281D02*
X140003922Y-128367662D01*
X140003922Y-128367662D02*
X140099160Y-128320043D01*
X140099160Y-128320043D02*
X140337255Y-128320043D01*
X140337255Y-128320043D02*
X140480112Y-128367662D01*
X140765827Y-128320043D02*
X141337255Y-128320043D01*
X141051541Y-129320043D02*
X141051541Y-128320043D01*
X141622970Y-129034328D02*
X142099160Y-129034328D01*
X141527732Y-129320043D02*
X141861065Y-128320043D01*
X141861065Y-128320043D02*
X142194398Y-129320043D01*
X142384875Y-128320043D02*
X142956303Y-128320043D01*
X142670589Y-129320043D02*
X142670589Y-128320043D01*
X143289637Y-128796233D02*
X143622970Y-128796233D01*
X143765827Y-129320043D02*
X143289637Y-129320043D01*
X143289637Y-129320043D02*
X143289637Y-128320043D01*
X143289637Y-128320043D02*
X143765827Y-128320043D01*
X144956304Y-128320043D02*
X144956304Y-129129566D01*
X144956304Y-129129566D02*
X145003923Y-129224804D01*
X145003923Y-129224804D02*
X145051542Y-129272424D01*
X145051542Y-129272424D02*
X145146780Y-129320043D01*
X145146780Y-129320043D02*
X145337256Y-129320043D01*
X145337256Y-129320043D02*
X145432494Y-129272424D01*
X145432494Y-129272424D02*
X145480113Y-129224804D01*
X145480113Y-129224804D02*
X145527732Y-129129566D01*
X145527732Y-129129566D02*
X145527732Y-128320043D01*
X146003923Y-129320043D02*
X146003923Y-128320043D01*
X146003923Y-128320043D02*
X146575351Y-129320043D01*
X146575351Y-129320043D02*
X146575351Y-128320043D01*
X147051542Y-129320043D02*
X147051542Y-128320043D01*
X147384875Y-128320043D02*
X147718208Y-129320043D01*
X147718208Y-129320043D02*
X148051541Y-128320043D01*
X148384875Y-128796233D02*
X148718208Y-128796233D01*
X148861065Y-129320043D02*
X148384875Y-129320043D01*
X148384875Y-129320043D02*
X148384875Y-128320043D01*
X148384875Y-128320043D02*
X148861065Y-128320043D01*
X149861065Y-129320043D02*
X149527732Y-128843852D01*
X149289637Y-129320043D02*
X149289637Y-128320043D01*
X149289637Y-128320043D02*
X149670589Y-128320043D01*
X149670589Y-128320043D02*
X149765827Y-128367662D01*
X149765827Y-128367662D02*
X149813446Y-128415281D01*
X149813446Y-128415281D02*
X149861065Y-128510519D01*
X149861065Y-128510519D02*
X149861065Y-128653376D01*
X149861065Y-128653376D02*
X149813446Y-128748614D01*
X149813446Y-128748614D02*
X149765827Y-128796233D01*
X149765827Y-128796233D02*
X149670589Y-128843852D01*
X149670589Y-128843852D02*
X149289637Y-128843852D01*
X150242018Y-129272424D02*
X150384875Y-129320043D01*
X150384875Y-129320043D02*
X150622970Y-129320043D01*
X150622970Y-129320043D02*
X150718208Y-129272424D01*
X150718208Y-129272424D02*
X150765827Y-129224804D01*
X150765827Y-129224804D02*
X150813446Y-129129566D01*
X150813446Y-129129566D02*
X150813446Y-129034328D01*
X150813446Y-129034328D02*
X150765827Y-128939090D01*
X150765827Y-128939090D02*
X150718208Y-128891471D01*
X150718208Y-128891471D02*
X150622970Y-128843852D01*
X150622970Y-128843852D02*
X150432494Y-128796233D01*
X150432494Y-128796233D02*
X150337256Y-128748614D01*
X150337256Y-128748614D02*
X150289637Y-128700995D01*
X150289637Y-128700995D02*
X150242018Y-128605757D01*
X150242018Y-128605757D02*
X150242018Y-128510519D01*
X150242018Y-128510519D02*
X150289637Y-128415281D01*
X150289637Y-128415281D02*
X150337256Y-128367662D01*
X150337256Y-128367662D02*
X150432494Y-128320043D01*
X150432494Y-128320043D02*
X150670589Y-128320043D01*
X150670589Y-128320043D02*
X150813446Y-128367662D01*
X151242018Y-129320043D02*
X151242018Y-128320043D01*
X151575351Y-128320043D02*
X152146779Y-128320043D01*
X151861065Y-129320043D02*
X151861065Y-128320043D01*
X152670589Y-128843852D02*
X152670589Y-129320043D01*
X152337256Y-128320043D02*
X152670589Y-128843852D01*
X152670589Y-128843852D02*
X153003922Y-128320043D01*
X131718207Y-130834748D02*
X131670588Y-130882368D01*
X131670588Y-130882368D02*
X131527731Y-130929987D01*
X131527731Y-130929987D02*
X131432493Y-130929987D01*
X131432493Y-130929987D02*
X131289636Y-130882368D01*
X131289636Y-130882368D02*
X131194398Y-130787129D01*
X131194398Y-130787129D02*
X131146779Y-130691891D01*
X131146779Y-130691891D02*
X131099160Y-130501415D01*
X131099160Y-130501415D02*
X131099160Y-130358558D01*
X131099160Y-130358558D02*
X131146779Y-130168082D01*
X131146779Y-130168082D02*
X131194398Y-130072844D01*
X131194398Y-130072844D02*
X131289636Y-129977606D01*
X131289636Y-129977606D02*
X131432493Y-129929987D01*
X131432493Y-129929987D02*
X131527731Y-129929987D01*
X131527731Y-129929987D02*
X131670588Y-129977606D01*
X131670588Y-129977606D02*
X131718207Y-130025225D01*
X132337255Y-129929987D02*
X132527731Y-129929987D01*
X132527731Y-129929987D02*
X132622969Y-129977606D01*
X132622969Y-129977606D02*
X132718207Y-130072844D01*
X132718207Y-130072844D02*
X132765826Y-130263320D01*
X132765826Y-130263320D02*
X132765826Y-130596653D01*
X132765826Y-130596653D02*
X132718207Y-130787129D01*
X132718207Y-130787129D02*
X132622969Y-130882368D01*
X132622969Y-130882368D02*
X132527731Y-130929987D01*
X132527731Y-130929987D02*
X132337255Y-130929987D01*
X132337255Y-130929987D02*
X132242017Y-130882368D01*
X132242017Y-130882368D02*
X132146779Y-130787129D01*
X132146779Y-130787129D02*
X132099160Y-130596653D01*
X132099160Y-130596653D02*
X132099160Y-130263320D01*
X132099160Y-130263320D02*
X132146779Y-130072844D01*
X132146779Y-130072844D02*
X132242017Y-129977606D01*
X132242017Y-129977606D02*
X132337255Y-129929987D01*
X133670588Y-130929987D02*
X133194398Y-130929987D01*
X133194398Y-130929987D02*
X133194398Y-129929987D01*
X134480112Y-130929987D02*
X134003922Y-130929987D01*
X134003922Y-130929987D02*
X134003922Y-129929987D01*
X134813446Y-130406177D02*
X135146779Y-130406177D01*
X135289636Y-130929987D02*
X134813446Y-130929987D01*
X134813446Y-130929987D02*
X134813446Y-129929987D01*
X134813446Y-129929987D02*
X135289636Y-129929987D01*
X136242017Y-129977606D02*
X136146779Y-129929987D01*
X136146779Y-129929987D02*
X136003922Y-129929987D01*
X136003922Y-129929987D02*
X135861065Y-129977606D01*
X135861065Y-129977606D02*
X135765827Y-130072844D01*
X135765827Y-130072844D02*
X135718208Y-130168082D01*
X135718208Y-130168082D02*
X135670589Y-130358558D01*
X135670589Y-130358558D02*
X135670589Y-130501415D01*
X135670589Y-130501415D02*
X135718208Y-130691891D01*
X135718208Y-130691891D02*
X135765827Y-130787129D01*
X135765827Y-130787129D02*
X135861065Y-130882368D01*
X135861065Y-130882368D02*
X136003922Y-130929987D01*
X136003922Y-130929987D02*
X136099160Y-130929987D01*
X136099160Y-130929987D02*
X136242017Y-130882368D01*
X136242017Y-130882368D02*
X136289636Y-130834748D01*
X136289636Y-130834748D02*
X136289636Y-130501415D01*
X136289636Y-130501415D02*
X136099160Y-130501415D01*
X136718208Y-130406177D02*
X137051541Y-130406177D01*
X137194398Y-130929987D02*
X136718208Y-130929987D01*
X136718208Y-130929987D02*
X136718208Y-129929987D01*
X136718208Y-129929987D02*
X137194398Y-129929987D01*
X138575351Y-129929987D02*
X138765827Y-129929987D01*
X138765827Y-129929987D02*
X138861065Y-129977606D01*
X138861065Y-129977606D02*
X138956303Y-130072844D01*
X138956303Y-130072844D02*
X139003922Y-130263320D01*
X139003922Y-130263320D02*
X139003922Y-130596653D01*
X139003922Y-130596653D02*
X138956303Y-130787129D01*
X138956303Y-130787129D02*
X138861065Y-130882368D01*
X138861065Y-130882368D02*
X138765827Y-130929987D01*
X138765827Y-130929987D02*
X138575351Y-130929987D01*
X138575351Y-130929987D02*
X138480113Y-130882368D01*
X138480113Y-130882368D02*
X138384875Y-130787129D01*
X138384875Y-130787129D02*
X138337256Y-130596653D01*
X138337256Y-130596653D02*
X138337256Y-130263320D01*
X138337256Y-130263320D02*
X138384875Y-130072844D01*
X138384875Y-130072844D02*
X138480113Y-129977606D01*
X138480113Y-129977606D02*
X138575351Y-129929987D01*
X139765827Y-130406177D02*
X139432494Y-130406177D01*
X139432494Y-130929987D02*
X139432494Y-129929987D01*
X139432494Y-129929987D02*
X139908684Y-129929987D01*
X141051542Y-130406177D02*
X141384875Y-130406177D01*
X141527732Y-130929987D02*
X141051542Y-130929987D01*
X141051542Y-130929987D02*
X141051542Y-129929987D01*
X141051542Y-129929987D02*
X141527732Y-129929987D01*
X141956304Y-130929987D02*
X141956304Y-129929987D01*
X141956304Y-129929987D02*
X142527732Y-130929987D01*
X142527732Y-130929987D02*
X142527732Y-129929987D01*
X143527732Y-129977606D02*
X143432494Y-129929987D01*
X143432494Y-129929987D02*
X143289637Y-129929987D01*
X143289637Y-129929987D02*
X143146780Y-129977606D01*
X143146780Y-129977606D02*
X143051542Y-130072844D01*
X143051542Y-130072844D02*
X143003923Y-130168082D01*
X143003923Y-130168082D02*
X142956304Y-130358558D01*
X142956304Y-130358558D02*
X142956304Y-130501415D01*
X142956304Y-130501415D02*
X143003923Y-130691891D01*
X143003923Y-130691891D02*
X143051542Y-130787129D01*
X143051542Y-130787129D02*
X143146780Y-130882368D01*
X143146780Y-130882368D02*
X143289637Y-130929987D01*
X143289637Y-130929987D02*
X143384875Y-130929987D01*
X143384875Y-130929987D02*
X143527732Y-130882368D01*
X143527732Y-130882368D02*
X143575351Y-130834748D01*
X143575351Y-130834748D02*
X143575351Y-130501415D01*
X143575351Y-130501415D02*
X143384875Y-130501415D01*
X144003923Y-130929987D02*
X144003923Y-129929987D01*
X144480113Y-130929987D02*
X144480113Y-129929987D01*
X144480113Y-129929987D02*
X145051541Y-130929987D01*
X145051541Y-130929987D02*
X145051541Y-129929987D01*
X145527732Y-130406177D02*
X145861065Y-130406177D01*
X146003922Y-130929987D02*
X145527732Y-130929987D01*
X145527732Y-130929987D02*
X145527732Y-129929987D01*
X145527732Y-129929987D02*
X146003922Y-129929987D01*
X146432494Y-130406177D02*
X146765827Y-130406177D01*
X146908684Y-130929987D02*
X146432494Y-130929987D01*
X146432494Y-130929987D02*
X146432494Y-129929987D01*
X146432494Y-129929987D02*
X146908684Y-129929987D01*
X147908684Y-130929987D02*
X147575351Y-130453796D01*
X147337256Y-130929987D02*
X147337256Y-129929987D01*
X147337256Y-129929987D02*
X147718208Y-129929987D01*
X147718208Y-129929987D02*
X147813446Y-129977606D01*
X147813446Y-129977606D02*
X147861065Y-130025225D01*
X147861065Y-130025225D02*
X147908684Y-130120463D01*
X147908684Y-130120463D02*
X147908684Y-130263320D01*
X147908684Y-130263320D02*
X147861065Y-130358558D01*
X147861065Y-130358558D02*
X147813446Y-130406177D01*
X147813446Y-130406177D02*
X147718208Y-130453796D01*
X147718208Y-130453796D02*
X147337256Y-130453796D01*
X148337256Y-130929987D02*
X148337256Y-129929987D01*
X148813446Y-130929987D02*
X148813446Y-129929987D01*
X148813446Y-129929987D02*
X149384874Y-130929987D01*
X149384874Y-130929987D02*
X149384874Y-129929987D01*
X150384874Y-129977606D02*
X150289636Y-129929987D01*
X150289636Y-129929987D02*
X150146779Y-129929987D01*
X150146779Y-129929987D02*
X150003922Y-129977606D01*
X150003922Y-129977606D02*
X149908684Y-130072844D01*
X149908684Y-130072844D02*
X149861065Y-130168082D01*
X149861065Y-130168082D02*
X149813446Y-130358558D01*
X149813446Y-130358558D02*
X149813446Y-130501415D01*
X149813446Y-130501415D02*
X149861065Y-130691891D01*
X149861065Y-130691891D02*
X149908684Y-130787129D01*
X149908684Y-130787129D02*
X150003922Y-130882368D01*
X150003922Y-130882368D02*
X150146779Y-130929987D01*
X150146779Y-130929987D02*
X150242017Y-130929987D01*
X150242017Y-130929987D02*
X150384874Y-130882368D01*
X150384874Y-130882368D02*
X150432493Y-130834748D01*
X150432493Y-130834748D02*
X150432493Y-130501415D01*
X150432493Y-130501415D02*
X150242017Y-130501415D01*
X131146779Y-132016121D02*
X131480112Y-132016121D01*
X131622969Y-132539931D02*
X131146779Y-132539931D01*
X131146779Y-132539931D02*
X131146779Y-131539931D01*
X131146779Y-131539931D02*
X131622969Y-131539931D01*
X132527731Y-132539931D02*
X132051541Y-132539931D01*
X132051541Y-132539931D02*
X132051541Y-131539931D01*
X132861065Y-132016121D02*
X133194398Y-132016121D01*
X133337255Y-132539931D02*
X132861065Y-132539931D01*
X132861065Y-132539931D02*
X132861065Y-131539931D01*
X132861065Y-131539931D02*
X133337255Y-131539931D01*
X134337255Y-132444692D02*
X134289636Y-132492312D01*
X134289636Y-132492312D02*
X134146779Y-132539931D01*
X134146779Y-132539931D02*
X134051541Y-132539931D01*
X134051541Y-132539931D02*
X133908684Y-132492312D01*
X133908684Y-132492312D02*
X133813446Y-132397073D01*
X133813446Y-132397073D02*
X133765827Y-132301835D01*
X133765827Y-132301835D02*
X133718208Y-132111359D01*
X133718208Y-132111359D02*
X133718208Y-131968502D01*
X133718208Y-131968502D02*
X133765827Y-131778026D01*
X133765827Y-131778026D02*
X133813446Y-131682788D01*
X133813446Y-131682788D02*
X133908684Y-131587550D01*
X133908684Y-131587550D02*
X134051541Y-131539931D01*
X134051541Y-131539931D02*
X134146779Y-131539931D01*
X134146779Y-131539931D02*
X134289636Y-131587550D01*
X134289636Y-131587550D02*
X134337255Y-131635169D01*
X134622970Y-131539931D02*
X135194398Y-131539931D01*
X134908684Y-132539931D02*
X134908684Y-131539931D01*
X136099160Y-132539931D02*
X135765827Y-132063740D01*
X135527732Y-132539931D02*
X135527732Y-131539931D01*
X135527732Y-131539931D02*
X135908684Y-131539931D01*
X135908684Y-131539931D02*
X136003922Y-131587550D01*
X136003922Y-131587550D02*
X136051541Y-131635169D01*
X136051541Y-131635169D02*
X136099160Y-131730407D01*
X136099160Y-131730407D02*
X136099160Y-131873264D01*
X136099160Y-131873264D02*
X136051541Y-131968502D01*
X136051541Y-131968502D02*
X136003922Y-132016121D01*
X136003922Y-132016121D02*
X135908684Y-132063740D01*
X135908684Y-132063740D02*
X135527732Y-132063740D01*
X136527732Y-132539931D02*
X136527732Y-131539931D01*
X137575350Y-132444692D02*
X137527731Y-132492312D01*
X137527731Y-132492312D02*
X137384874Y-132539931D01*
X137384874Y-132539931D02*
X137289636Y-132539931D01*
X137289636Y-132539931D02*
X137146779Y-132492312D01*
X137146779Y-132492312D02*
X137051541Y-132397073D01*
X137051541Y-132397073D02*
X137003922Y-132301835D01*
X137003922Y-132301835D02*
X136956303Y-132111359D01*
X136956303Y-132111359D02*
X136956303Y-131968502D01*
X136956303Y-131968502D02*
X137003922Y-131778026D01*
X137003922Y-131778026D02*
X137051541Y-131682788D01*
X137051541Y-131682788D02*
X137146779Y-131587550D01*
X137146779Y-131587550D02*
X137289636Y-131539931D01*
X137289636Y-131539931D02*
X137384874Y-131539931D01*
X137384874Y-131539931D02*
X137527731Y-131587550D01*
X137527731Y-131587550D02*
X137575350Y-131635169D01*
X137956303Y-132254216D02*
X138432493Y-132254216D01*
X137861065Y-132539931D02*
X138194398Y-131539931D01*
X138194398Y-131539931D02*
X138527731Y-132539931D01*
X139337255Y-132539931D02*
X138861065Y-132539931D01*
X138861065Y-132539931D02*
X138861065Y-131539931D01*
X141242018Y-132539931D02*
X141194399Y-132539931D01*
X141194399Y-132539931D02*
X141099160Y-132492312D01*
X141099160Y-132492312D02*
X140956303Y-132349454D01*
X140956303Y-132349454D02*
X140718208Y-132063740D01*
X140718208Y-132063740D02*
X140622970Y-131920883D01*
X140622970Y-131920883D02*
X140575351Y-131778026D01*
X140575351Y-131778026D02*
X140575351Y-131682788D01*
X140575351Y-131682788D02*
X140622970Y-131587550D01*
X140622970Y-131587550D02*
X140718208Y-131539931D01*
X140718208Y-131539931D02*
X140765827Y-131539931D01*
X140765827Y-131539931D02*
X140861065Y-131587550D01*
X140861065Y-131587550D02*
X140908684Y-131682788D01*
X140908684Y-131682788D02*
X140908684Y-131730407D01*
X140908684Y-131730407D02*
X140861065Y-131825645D01*
X140861065Y-131825645D02*
X140813446Y-131873264D01*
X140813446Y-131873264D02*
X140527732Y-132063740D01*
X140527732Y-132063740D02*
X140480113Y-132111359D01*
X140480113Y-132111359D02*
X140432494Y-132206597D01*
X140432494Y-132206597D02*
X140432494Y-132349454D01*
X140432494Y-132349454D02*
X140480113Y-132444692D01*
X140480113Y-132444692D02*
X140527732Y-132492312D01*
X140527732Y-132492312D02*
X140622970Y-132539931D01*
X140622970Y-132539931D02*
X140765827Y-132539931D01*
X140765827Y-132539931D02*
X140861065Y-132492312D01*
X140861065Y-132492312D02*
X140908684Y-132444692D01*
X140908684Y-132444692D02*
X141051541Y-132254216D01*
X141051541Y-132254216D02*
X141099160Y-132111359D01*
X141099160Y-132111359D02*
X141099160Y-132016121D01*
X143003922Y-132444692D02*
X142956303Y-132492312D01*
X142956303Y-132492312D02*
X142813446Y-132539931D01*
X142813446Y-132539931D02*
X142718208Y-132539931D01*
X142718208Y-132539931D02*
X142575351Y-132492312D01*
X142575351Y-132492312D02*
X142480113Y-132397073D01*
X142480113Y-132397073D02*
X142432494Y-132301835D01*
X142432494Y-132301835D02*
X142384875Y-132111359D01*
X142384875Y-132111359D02*
X142384875Y-131968502D01*
X142384875Y-131968502D02*
X142432494Y-131778026D01*
X142432494Y-131778026D02*
X142480113Y-131682788D01*
X142480113Y-131682788D02*
X142575351Y-131587550D01*
X142575351Y-131587550D02*
X142718208Y-131539931D01*
X142718208Y-131539931D02*
X142813446Y-131539931D01*
X142813446Y-131539931D02*
X142956303Y-131587550D01*
X142956303Y-131587550D02*
X143003922Y-131635169D01*
X143622970Y-131539931D02*
X143813446Y-131539931D01*
X143813446Y-131539931D02*
X143908684Y-131587550D01*
X143908684Y-131587550D02*
X144003922Y-131682788D01*
X144003922Y-131682788D02*
X144051541Y-131873264D01*
X144051541Y-131873264D02*
X144051541Y-132206597D01*
X144051541Y-132206597D02*
X144003922Y-132397073D01*
X144003922Y-132397073D02*
X143908684Y-132492312D01*
X143908684Y-132492312D02*
X143813446Y-132539931D01*
X143813446Y-132539931D02*
X143622970Y-132539931D01*
X143622970Y-132539931D02*
X143527732Y-132492312D01*
X143527732Y-132492312D02*
X143432494Y-132397073D01*
X143432494Y-132397073D02*
X143384875Y-132206597D01*
X143384875Y-132206597D02*
X143384875Y-131873264D01*
X143384875Y-131873264D02*
X143432494Y-131682788D01*
X143432494Y-131682788D02*
X143527732Y-131587550D01*
X143527732Y-131587550D02*
X143622970Y-131539931D01*
X144480113Y-132539931D02*
X144480113Y-131539931D01*
X144480113Y-131539931D02*
X144813446Y-132254216D01*
X144813446Y-132254216D02*
X145146779Y-131539931D01*
X145146779Y-131539931D02*
X145146779Y-132539931D01*
X145622970Y-132539931D02*
X145622970Y-131539931D01*
X145622970Y-131539931D02*
X146003922Y-131539931D01*
X146003922Y-131539931D02*
X146099160Y-131587550D01*
X146099160Y-131587550D02*
X146146779Y-131635169D01*
X146146779Y-131635169D02*
X146194398Y-131730407D01*
X146194398Y-131730407D02*
X146194398Y-131873264D01*
X146194398Y-131873264D02*
X146146779Y-131968502D01*
X146146779Y-131968502D02*
X146099160Y-132016121D01*
X146099160Y-132016121D02*
X146003922Y-132063740D01*
X146003922Y-132063740D02*
X145622970Y-132063740D01*
X146622970Y-131539931D02*
X146622970Y-132349454D01*
X146622970Y-132349454D02*
X146670589Y-132444692D01*
X146670589Y-132444692D02*
X146718208Y-132492312D01*
X146718208Y-132492312D02*
X146813446Y-132539931D01*
X146813446Y-132539931D02*
X147003922Y-132539931D01*
X147003922Y-132539931D02*
X147099160Y-132492312D01*
X147099160Y-132492312D02*
X147146779Y-132444692D01*
X147146779Y-132444692D02*
X147194398Y-132349454D01*
X147194398Y-132349454D02*
X147194398Y-131539931D01*
X147527732Y-131539931D02*
X148099160Y-131539931D01*
X147813446Y-132539931D02*
X147813446Y-131539931D01*
X148432494Y-132016121D02*
X148765827Y-132016121D01*
X148908684Y-132539931D02*
X148432494Y-132539931D01*
X148432494Y-132539931D02*
X148432494Y-131539931D01*
X148432494Y-131539931D02*
X148908684Y-131539931D01*
X149908684Y-132539931D02*
X149575351Y-132063740D01*
X149337256Y-132539931D02*
X149337256Y-131539931D01*
X149337256Y-131539931D02*
X149718208Y-131539931D01*
X149718208Y-131539931D02*
X149813446Y-131587550D01*
X149813446Y-131587550D02*
X149861065Y-131635169D01*
X149861065Y-131635169D02*
X149908684Y-131730407D01*
X149908684Y-131730407D02*
X149908684Y-131873264D01*
X149908684Y-131873264D02*
X149861065Y-131968502D01*
X149861065Y-131968502D02*
X149813446Y-132016121D01*
X149813446Y-132016121D02*
X149718208Y-132063740D01*
X149718208Y-132063740D02*
X149337256Y-132063740D01*
X151099161Y-132016121D02*
X151432494Y-132016121D01*
X151575351Y-132539931D02*
X151099161Y-132539931D01*
X151099161Y-132539931D02*
X151099161Y-131539931D01*
X151099161Y-131539931D02*
X151575351Y-131539931D01*
X152003923Y-132539931D02*
X152003923Y-131539931D01*
X152003923Y-131539931D02*
X152575351Y-132539931D01*
X152575351Y-132539931D02*
X152575351Y-131539931D01*
X153575351Y-131587550D02*
X153480113Y-131539931D01*
X153480113Y-131539931D02*
X153337256Y-131539931D01*
X153337256Y-131539931D02*
X153194399Y-131587550D01*
X153194399Y-131587550D02*
X153099161Y-131682788D01*
X153099161Y-131682788D02*
X153051542Y-131778026D01*
X153051542Y-131778026D02*
X153003923Y-131968502D01*
X153003923Y-131968502D02*
X153003923Y-132111359D01*
X153003923Y-132111359D02*
X153051542Y-132301835D01*
X153051542Y-132301835D02*
X153099161Y-132397073D01*
X153099161Y-132397073D02*
X153194399Y-132492312D01*
X153194399Y-132492312D02*
X153337256Y-132539931D01*
X153337256Y-132539931D02*
X153432494Y-132539931D01*
X153432494Y-132539931D02*
X153575351Y-132492312D01*
X153575351Y-132492312D02*
X153622970Y-132444692D01*
X153622970Y-132444692D02*
X153622970Y-132111359D01*
X153622970Y-132111359D02*
X153432494Y-132111359D01*
X154051542Y-132539931D02*
X154051542Y-131539931D01*
X154527732Y-132539931D02*
X154527732Y-131539931D01*
X154527732Y-131539931D02*
X155099160Y-132539931D01*
X155099160Y-132539931D02*
X155099160Y-131539931D01*
X155575351Y-132016121D02*
X155908684Y-132016121D01*
X156051541Y-132539931D02*
X155575351Y-132539931D01*
X155575351Y-132539931D02*
X155575351Y-131539931D01*
X155575351Y-131539931D02*
X156051541Y-131539931D01*
X156480113Y-132016121D02*
X156813446Y-132016121D01*
X156956303Y-132539931D02*
X156480113Y-132539931D01*
X156480113Y-132539931D02*
X156480113Y-131539931D01*
X156480113Y-131539931D02*
X156956303Y-131539931D01*
X157956303Y-132539931D02*
X157622970Y-132063740D01*
X157384875Y-132539931D02*
X157384875Y-131539931D01*
X157384875Y-131539931D02*
X157765827Y-131539931D01*
X157765827Y-131539931D02*
X157861065Y-131587550D01*
X157861065Y-131587550D02*
X157908684Y-131635169D01*
X157908684Y-131635169D02*
X157956303Y-131730407D01*
X157956303Y-131730407D02*
X157956303Y-131873264D01*
X157956303Y-131873264D02*
X157908684Y-131968502D01*
X157908684Y-131968502D02*
X157861065Y-132016121D01*
X157861065Y-132016121D02*
X157765827Y-132063740D01*
X157765827Y-132063740D02*
X157384875Y-132063740D01*
X158384875Y-132539931D02*
X158384875Y-131539931D01*
X158861065Y-132539931D02*
X158861065Y-131539931D01*
X158861065Y-131539931D02*
X159432493Y-132539931D01*
X159432493Y-132539931D02*
X159432493Y-131539931D01*
X160432493Y-131587550D02*
X160337255Y-131539931D01*
X160337255Y-131539931D02*
X160194398Y-131539931D01*
X160194398Y-131539931D02*
X160051541Y-131587550D01*
X160051541Y-131587550D02*
X159956303Y-131682788D01*
X159956303Y-131682788D02*
X159908684Y-131778026D01*
X159908684Y-131778026D02*
X159861065Y-131968502D01*
X159861065Y-131968502D02*
X159861065Y-132111359D01*
X159861065Y-132111359D02*
X159908684Y-132301835D01*
X159908684Y-132301835D02*
X159956303Y-132397073D01*
X159956303Y-132397073D02*
X160051541Y-132492312D01*
X160051541Y-132492312D02*
X160194398Y-132539931D01*
X160194398Y-132539931D02*
X160289636Y-132539931D01*
X160289636Y-132539931D02*
X160432493Y-132492312D01*
X160432493Y-132492312D02*
X160480112Y-132444692D01*
X160480112Y-132444692D02*
X160480112Y-132111359D01*
X160480112Y-132111359D02*
X160289636Y-132111359D01*
X131003922Y-133149875D02*
X131575350Y-133149875D01*
X131289636Y-134149875D02*
X131289636Y-133149875D01*
X131908684Y-133626065D02*
X132242017Y-133626065D01*
X132384874Y-134149875D02*
X131908684Y-134149875D01*
X131908684Y-134149875D02*
X131908684Y-133149875D01*
X131908684Y-133149875D02*
X132384874Y-133149875D01*
X132765827Y-133864160D02*
X133242017Y-133864160D01*
X132670589Y-134149875D02*
X133003922Y-133149875D01*
X133003922Y-133149875D02*
X133337255Y-134149875D01*
X133670589Y-134149875D02*
X133670589Y-133149875D01*
X133670589Y-133149875D02*
X134003922Y-133864160D01*
X134003922Y-133864160D02*
X134337255Y-133149875D01*
X134337255Y-133149875D02*
X134337255Y-134149875D01*
X135908684Y-133626065D02*
X136051541Y-133673684D01*
X136051541Y-133673684D02*
X136099160Y-133721303D01*
X136099160Y-133721303D02*
X136146779Y-133816541D01*
X136146779Y-133816541D02*
X136146779Y-133959398D01*
X136146779Y-133959398D02*
X136099160Y-134054636D01*
X136099160Y-134054636D02*
X136051541Y-134102256D01*
X136051541Y-134102256D02*
X135956303Y-134149875D01*
X135956303Y-134149875D02*
X135575351Y-134149875D01*
X135575351Y-134149875D02*
X135575351Y-133149875D01*
X135575351Y-133149875D02*
X135908684Y-133149875D01*
X135908684Y-133149875D02*
X136003922Y-133197494D01*
X136003922Y-133197494D02*
X136051541Y-133245113D01*
X136051541Y-133245113D02*
X136099160Y-133340351D01*
X136099160Y-133340351D02*
X136099160Y-133435589D01*
X136099160Y-133435589D02*
X136051541Y-133530827D01*
X136051541Y-133530827D02*
X136003922Y-133578446D01*
X136003922Y-133578446D02*
X135908684Y-133626065D01*
X135908684Y-133626065D02*
X135575351Y-133626065D01*
X136765827Y-133149875D02*
X136956303Y-133149875D01*
X136956303Y-133149875D02*
X137051541Y-133197494D01*
X137051541Y-133197494D02*
X137146779Y-133292732D01*
X137146779Y-133292732D02*
X137194398Y-133483208D01*
X137194398Y-133483208D02*
X137194398Y-133816541D01*
X137194398Y-133816541D02*
X137146779Y-134007017D01*
X137146779Y-134007017D02*
X137051541Y-134102256D01*
X137051541Y-134102256D02*
X136956303Y-134149875D01*
X136956303Y-134149875D02*
X136765827Y-134149875D01*
X136765827Y-134149875D02*
X136670589Y-134102256D01*
X136670589Y-134102256D02*
X136575351Y-134007017D01*
X136575351Y-134007017D02*
X136527732Y-133816541D01*
X136527732Y-133816541D02*
X136527732Y-133483208D01*
X136527732Y-133483208D02*
X136575351Y-133292732D01*
X136575351Y-133292732D02*
X136670589Y-133197494D01*
X136670589Y-133197494D02*
X136765827Y-133149875D01*
X137813446Y-133149875D02*
X138003922Y-133149875D01*
X138003922Y-133149875D02*
X138099160Y-133197494D01*
X138099160Y-133197494D02*
X138194398Y-133292732D01*
X138194398Y-133292732D02*
X138242017Y-133483208D01*
X138242017Y-133483208D02*
X138242017Y-133816541D01*
X138242017Y-133816541D02*
X138194398Y-134007017D01*
X138194398Y-134007017D02*
X138099160Y-134102256D01*
X138099160Y-134102256D02*
X138003922Y-134149875D01*
X138003922Y-134149875D02*
X137813446Y-134149875D01*
X137813446Y-134149875D02*
X137718208Y-134102256D01*
X137718208Y-134102256D02*
X137622970Y-134007017D01*
X137622970Y-134007017D02*
X137575351Y-133816541D01*
X137575351Y-133816541D02*
X137575351Y-133483208D01*
X137575351Y-133483208D02*
X137622970Y-133292732D01*
X137622970Y-133292732D02*
X137718208Y-133197494D01*
X137718208Y-133197494D02*
X137813446Y-133149875D01*
X138670589Y-134149875D02*
X138670589Y-133149875D01*
X138670589Y-133149875D02*
X139003922Y-133864160D01*
X139003922Y-133864160D02*
X139337255Y-133149875D01*
X139337255Y-133149875D02*
X139337255Y-134149875D01*
X131146779Y-135759819D02*
X131146779Y-134759819D01*
X131146779Y-134759819D02*
X131527731Y-134759819D01*
X131527731Y-134759819D02*
X131622969Y-134807438D01*
X131622969Y-134807438D02*
X131670588Y-134855057D01*
X131670588Y-134855057D02*
X131718207Y-134950295D01*
X131718207Y-134950295D02*
X131718207Y-135093152D01*
X131718207Y-135093152D02*
X131670588Y-135188390D01*
X131670588Y-135188390D02*
X131622969Y-135236009D01*
X131622969Y-135236009D02*
X131527731Y-135283628D01*
X131527731Y-135283628D02*
X131146779Y-135283628D01*
X132337255Y-134759819D02*
X132527731Y-134759819D01*
X132527731Y-134759819D02*
X132622969Y-134807438D01*
X132622969Y-134807438D02*
X132718207Y-134902676D01*
X132718207Y-134902676D02*
X132765826Y-135093152D01*
X132765826Y-135093152D02*
X132765826Y-135426485D01*
X132765826Y-135426485D02*
X132718207Y-135616961D01*
X132718207Y-135616961D02*
X132622969Y-135712200D01*
X132622969Y-135712200D02*
X132527731Y-135759819D01*
X132527731Y-135759819D02*
X132337255Y-135759819D01*
X132337255Y-135759819D02*
X132242017Y-135712200D01*
X132242017Y-135712200D02*
X132146779Y-135616961D01*
X132146779Y-135616961D02*
X132099160Y-135426485D01*
X132099160Y-135426485D02*
X132099160Y-135093152D01*
X132099160Y-135093152D02*
X132146779Y-134902676D01*
X132146779Y-134902676D02*
X132242017Y-134807438D01*
X132242017Y-134807438D02*
X132337255Y-134759819D01*
X133099160Y-134759819D02*
X133337255Y-135759819D01*
X133337255Y-135759819D02*
X133527731Y-135045533D01*
X133527731Y-135045533D02*
X133718207Y-135759819D01*
X133718207Y-135759819D02*
X133956303Y-134759819D01*
X134337255Y-135236009D02*
X134670588Y-135236009D01*
X134813445Y-135759819D02*
X134337255Y-135759819D01*
X134337255Y-135759819D02*
X134337255Y-134759819D01*
X134337255Y-134759819D02*
X134813445Y-134759819D01*
X135813445Y-135759819D02*
X135480112Y-135283628D01*
X135242017Y-135759819D02*
X135242017Y-134759819D01*
X135242017Y-134759819D02*
X135622969Y-134759819D01*
X135622969Y-134759819D02*
X135718207Y-134807438D01*
X135718207Y-134807438D02*
X135765826Y-134855057D01*
X135765826Y-134855057D02*
X135813445Y-134950295D01*
X135813445Y-134950295D02*
X135813445Y-135093152D01*
X135813445Y-135093152D02*
X135765826Y-135188390D01*
X135765826Y-135188390D02*
X135718207Y-135236009D01*
X135718207Y-135236009D02*
X135622969Y-135283628D01*
X135622969Y-135283628D02*
X135242017Y-135283628D01*
X137003922Y-135759819D02*
X137003922Y-134759819D01*
X137003922Y-134759819D02*
X137242017Y-134759819D01*
X137242017Y-134759819D02*
X137384874Y-134807438D01*
X137384874Y-134807438D02*
X137480112Y-134902676D01*
X137480112Y-134902676D02*
X137527731Y-134997914D01*
X137527731Y-134997914D02*
X137575350Y-135188390D01*
X137575350Y-135188390D02*
X137575350Y-135331247D01*
X137575350Y-135331247D02*
X137527731Y-135521723D01*
X137527731Y-135521723D02*
X137480112Y-135616961D01*
X137480112Y-135616961D02*
X137384874Y-135712200D01*
X137384874Y-135712200D02*
X137242017Y-135759819D01*
X137242017Y-135759819D02*
X137003922Y-135759819D01*
X138003922Y-135759819D02*
X138003922Y-134759819D01*
X138432493Y-135712200D02*
X138575350Y-135759819D01*
X138575350Y-135759819D02*
X138813445Y-135759819D01*
X138813445Y-135759819D02*
X138908683Y-135712200D01*
X138908683Y-135712200D02*
X138956302Y-135664580D01*
X138956302Y-135664580D02*
X139003921Y-135569342D01*
X139003921Y-135569342D02*
X139003921Y-135474104D01*
X139003921Y-135474104D02*
X138956302Y-135378866D01*
X138956302Y-135378866D02*
X138908683Y-135331247D01*
X138908683Y-135331247D02*
X138813445Y-135283628D01*
X138813445Y-135283628D02*
X138622969Y-135236009D01*
X138622969Y-135236009D02*
X138527731Y-135188390D01*
X138527731Y-135188390D02*
X138480112Y-135140771D01*
X138480112Y-135140771D02*
X138432493Y-135045533D01*
X138432493Y-135045533D02*
X138432493Y-134950295D01*
X138432493Y-134950295D02*
X138480112Y-134855057D01*
X138480112Y-134855057D02*
X138527731Y-134807438D01*
X138527731Y-134807438D02*
X138622969Y-134759819D01*
X138622969Y-134759819D02*
X138861064Y-134759819D01*
X138861064Y-134759819D02*
X139003921Y-134807438D01*
X139289636Y-134759819D02*
X139861064Y-134759819D01*
X139575350Y-135759819D02*
X139575350Y-134759819D01*
X140765826Y-135759819D02*
X140432493Y-135283628D01*
X140194398Y-135759819D02*
X140194398Y-134759819D01*
X140194398Y-134759819D02*
X140575350Y-134759819D01*
X140575350Y-134759819D02*
X140670588Y-134807438D01*
X140670588Y-134807438D02*
X140718207Y-134855057D01*
X140718207Y-134855057D02*
X140765826Y-134950295D01*
X140765826Y-134950295D02*
X140765826Y-135093152D01*
X140765826Y-135093152D02*
X140718207Y-135188390D01*
X140718207Y-135188390D02*
X140670588Y-135236009D01*
X140670588Y-135236009D02*
X140575350Y-135283628D01*
X140575350Y-135283628D02*
X140194398Y-135283628D01*
X141194398Y-135759819D02*
X141194398Y-134759819D01*
X142003921Y-135236009D02*
X142146778Y-135283628D01*
X142146778Y-135283628D02*
X142194397Y-135331247D01*
X142194397Y-135331247D02*
X142242016Y-135426485D01*
X142242016Y-135426485D02*
X142242016Y-135569342D01*
X142242016Y-135569342D02*
X142194397Y-135664580D01*
X142194397Y-135664580D02*
X142146778Y-135712200D01*
X142146778Y-135712200D02*
X142051540Y-135759819D01*
X142051540Y-135759819D02*
X141670588Y-135759819D01*
X141670588Y-135759819D02*
X141670588Y-134759819D01*
X141670588Y-134759819D02*
X142003921Y-134759819D01*
X142003921Y-134759819D02*
X142099159Y-134807438D01*
X142099159Y-134807438D02*
X142146778Y-134855057D01*
X142146778Y-134855057D02*
X142194397Y-134950295D01*
X142194397Y-134950295D02*
X142194397Y-135045533D01*
X142194397Y-135045533D02*
X142146778Y-135140771D01*
X142146778Y-135140771D02*
X142099159Y-135188390D01*
X142099159Y-135188390D02*
X142003921Y-135236009D01*
X142003921Y-135236009D02*
X141670588Y-135236009D01*
X142670588Y-134759819D02*
X142670588Y-135569342D01*
X142670588Y-135569342D02*
X142718207Y-135664580D01*
X142718207Y-135664580D02*
X142765826Y-135712200D01*
X142765826Y-135712200D02*
X142861064Y-135759819D01*
X142861064Y-135759819D02*
X143051540Y-135759819D01*
X143051540Y-135759819D02*
X143146778Y-135712200D01*
X143146778Y-135712200D02*
X143194397Y-135664580D01*
X143194397Y-135664580D02*
X143242016Y-135569342D01*
X143242016Y-135569342D02*
X143242016Y-134759819D01*
X143575350Y-134759819D02*
X144146778Y-134759819D01*
X143861064Y-135759819D02*
X143861064Y-134759819D01*
X144480112Y-135759819D02*
X144480112Y-134759819D01*
X145146778Y-134759819D02*
X145337254Y-134759819D01*
X145337254Y-134759819D02*
X145432492Y-134807438D01*
X145432492Y-134807438D02*
X145527730Y-134902676D01*
X145527730Y-134902676D02*
X145575349Y-135093152D01*
X145575349Y-135093152D02*
X145575349Y-135426485D01*
X145575349Y-135426485D02*
X145527730Y-135616961D01*
X145527730Y-135616961D02*
X145432492Y-135712200D01*
X145432492Y-135712200D02*
X145337254Y-135759819D01*
X145337254Y-135759819D02*
X145146778Y-135759819D01*
X145146778Y-135759819D02*
X145051540Y-135712200D01*
X145051540Y-135712200D02*
X144956302Y-135616961D01*
X144956302Y-135616961D02*
X144908683Y-135426485D01*
X144908683Y-135426485D02*
X144908683Y-135093152D01*
X144908683Y-135093152D02*
X144956302Y-134902676D01*
X144956302Y-134902676D02*
X145051540Y-134807438D01*
X145051540Y-134807438D02*
X145146778Y-134759819D01*
X146003921Y-135759819D02*
X146003921Y-134759819D01*
X146003921Y-134759819D02*
X146575349Y-135759819D01*
X146575349Y-135759819D02*
X146575349Y-134759819D01*
X148099159Y-134759819D02*
X148099159Y-135474104D01*
X148099159Y-135474104D02*
X148051540Y-135616961D01*
X148051540Y-135616961D02*
X147956302Y-135712200D01*
X147956302Y-135712200D02*
X147813445Y-135759819D01*
X147813445Y-135759819D02*
X147718207Y-135759819D01*
X148527731Y-135474104D02*
X149003921Y-135474104D01*
X148432493Y-135759819D02*
X148765826Y-134759819D01*
X148765826Y-134759819D02*
X149099159Y-135759819D01*
X150003921Y-135664580D02*
X149956302Y-135712200D01*
X149956302Y-135712200D02*
X149813445Y-135759819D01*
X149813445Y-135759819D02*
X149718207Y-135759819D01*
X149718207Y-135759819D02*
X149575350Y-135712200D01*
X149575350Y-135712200D02*
X149480112Y-135616961D01*
X149480112Y-135616961D02*
X149432493Y-135521723D01*
X149432493Y-135521723D02*
X149384874Y-135331247D01*
X149384874Y-135331247D02*
X149384874Y-135188390D01*
X149384874Y-135188390D02*
X149432493Y-134997914D01*
X149432493Y-134997914D02*
X149480112Y-134902676D01*
X149480112Y-134902676D02*
X149575350Y-134807438D01*
X149575350Y-134807438D02*
X149718207Y-134759819D01*
X149718207Y-134759819D02*
X149813445Y-134759819D01*
X149813445Y-134759819D02*
X149956302Y-134807438D01*
X149956302Y-134807438D02*
X150003921Y-134855057D01*
X150432493Y-135759819D02*
X150432493Y-134759819D01*
X151003921Y-135759819D02*
X150575350Y-135188390D01*
X151003921Y-134759819D02*
X150432493Y-135331247D01*
X151480112Y-135712200D02*
X151480112Y-135759819D01*
X151480112Y-135759819D02*
X151432493Y-135855057D01*
X151432493Y-135855057D02*
X151384874Y-135902676D01*
X153242016Y-135759819D02*
X152908683Y-135283628D01*
X152670588Y-135759819D02*
X152670588Y-134759819D01*
X152670588Y-134759819D02*
X153051540Y-134759819D01*
X153051540Y-134759819D02*
X153146778Y-134807438D01*
X153146778Y-134807438D02*
X153194397Y-134855057D01*
X153194397Y-134855057D02*
X153242016Y-134950295D01*
X153242016Y-134950295D02*
X153242016Y-135093152D01*
X153242016Y-135093152D02*
X153194397Y-135188390D01*
X153194397Y-135188390D02*
X153146778Y-135236009D01*
X153146778Y-135236009D02*
X153051540Y-135283628D01*
X153051540Y-135283628D02*
X152670588Y-135283628D01*
X153670588Y-135236009D02*
X154003921Y-135236009D01*
X154146778Y-135759819D02*
X153670588Y-135759819D01*
X153670588Y-135759819D02*
X153670588Y-134759819D01*
X153670588Y-134759819D02*
X154146778Y-134759819D01*
X154432493Y-134759819D02*
X154765826Y-135759819D01*
X154765826Y-135759819D02*
X155099159Y-134759819D01*
X155432493Y-135664580D02*
X155480112Y-135712200D01*
X155480112Y-135712200D02*
X155432493Y-135759819D01*
X155432493Y-135759819D02*
X155384874Y-135712200D01*
X155384874Y-135712200D02*
X155432493Y-135664580D01*
X155432493Y-135664580D02*
X155432493Y-135759819D01*
X157003921Y-135236009D02*
X157146778Y-135283628D01*
X157146778Y-135283628D02*
X157194397Y-135331247D01*
X157194397Y-135331247D02*
X157242016Y-135426485D01*
X157242016Y-135426485D02*
X157242016Y-135569342D01*
X157242016Y-135569342D02*
X157194397Y-135664580D01*
X157194397Y-135664580D02*
X157146778Y-135712200D01*
X157146778Y-135712200D02*
X157051540Y-135759819D01*
X157051540Y-135759819D02*
X156670588Y-135759819D01*
X156670588Y-135759819D02*
X156670588Y-134759819D01*
X156670588Y-134759819D02*
X157003921Y-134759819D01*
X157003921Y-134759819D02*
X157099159Y-134807438D01*
X157099159Y-134807438D02*
X157146778Y-134855057D01*
X157146778Y-134855057D02*
X157194397Y-134950295D01*
X157194397Y-134950295D02*
X157194397Y-135045533D01*
X157194397Y-135045533D02*
X157146778Y-135140771D01*
X157146778Y-135140771D02*
X157099159Y-135188390D01*
X157099159Y-135188390D02*
X157003921Y-135236009D01*
X157003921Y-135236009D02*
X156670588Y-135236009D01*
X123698095Y-126764819D02*
X123698095Y-125764819D01*
X123698095Y-126241009D02*
X124269523Y-126241009D01*
X124269523Y-126764819D02*
X124269523Y-125764819D01*
X125174285Y-126098152D02*
X125174285Y-126764819D01*
X124936190Y-125717200D02*
X124698095Y-126431485D01*
X124698095Y-126431485D02*
X125317142Y-126431485D01*
X127279819Y-82245094D02*
X126279819Y-82245094D01*
X126279819Y-82245094D02*
X126279819Y-82006999D01*
X126279819Y-82006999D02*
X126327438Y-81864142D01*
X126327438Y-81864142D02*
X126422676Y-81768904D01*
X126422676Y-81768904D02*
X126517914Y-81721285D01*
X126517914Y-81721285D02*
X126708390Y-81673666D01*
X126708390Y-81673666D02*
X126851247Y-81673666D01*
X126851247Y-81673666D02*
X127041723Y-81721285D01*
X127041723Y-81721285D02*
X127136961Y-81768904D01*
X127136961Y-81768904D02*
X127232200Y-81864142D01*
X127232200Y-81864142D02*
X127279819Y-82006999D01*
X127279819Y-82006999D02*
X127279819Y-82245094D01*
X127279819Y-80721285D02*
X127279819Y-81292713D01*
X127279819Y-81006999D02*
X126279819Y-81006999D01*
X126279819Y-81006999D02*
X126422676Y-81102237D01*
X126422676Y-81102237D02*
X126517914Y-81197475D01*
X126517914Y-81197475D02*
X126565533Y-81292713D01*
X125486666Y-104577319D02*
X125486666Y-105291604D01*
X125486666Y-105291604D02*
X125439047Y-105434461D01*
X125439047Y-105434461D02*
X125343809Y-105529700D01*
X125343809Y-105529700D02*
X125200952Y-105577319D01*
X125200952Y-105577319D02*
X125105714Y-105577319D01*
X126486666Y-105577319D02*
X125915238Y-105577319D01*
X126200952Y-105577319D02*
X126200952Y-104577319D01*
X126200952Y-104577319D02*
X126105714Y-104720176D01*
X126105714Y-104720176D02*
X126010476Y-104815414D01*
X126010476Y-104815414D02*
X125915238Y-104863033D01*
X143042819Y-87796666D02*
X142566628Y-88129999D01*
X143042819Y-88368094D02*
X142042819Y-88368094D01*
X142042819Y-88368094D02*
X142042819Y-87987142D01*
X142042819Y-87987142D02*
X142090438Y-87891904D01*
X142090438Y-87891904D02*
X142138057Y-87844285D01*
X142138057Y-87844285D02*
X142233295Y-87796666D01*
X142233295Y-87796666D02*
X142376152Y-87796666D01*
X142376152Y-87796666D02*
X142471390Y-87844285D01*
X142471390Y-87844285D02*
X142519009Y-87891904D01*
X142519009Y-87891904D02*
X142566628Y-87987142D01*
X142566628Y-87987142D02*
X142566628Y-88368094D01*
X143042819Y-86844285D02*
X143042819Y-87415713D01*
X143042819Y-87129999D02*
X142042819Y-87129999D01*
X142042819Y-87129999D02*
X142185676Y-87225237D01*
X142185676Y-87225237D02*
X142280914Y-87320475D01*
X142280914Y-87320475D02*
X142328533Y-87415713D01*
X162210952Y-124025771D02*
X162163333Y-123978152D01*
X162163333Y-123978152D02*
X162068095Y-123835295D01*
X162068095Y-123835295D02*
X162020476Y-123740057D01*
X162020476Y-123740057D02*
X161972857Y-123597200D01*
X161972857Y-123597200D02*
X161925238Y-123359104D01*
X161925238Y-123359104D02*
X161925238Y-123168628D01*
X161925238Y-123168628D02*
X161972857Y-122930533D01*
X161972857Y-122930533D02*
X162020476Y-122787676D01*
X162020476Y-122787676D02*
X162068095Y-122692438D01*
X162068095Y-122692438D02*
X162163333Y-122549580D01*
X162163333Y-122549580D02*
X162210952Y-122501961D01*
X162591905Y-123263866D02*
X163353810Y-123263866D01*
X163734762Y-124025771D02*
X163782381Y-123978152D01*
X163782381Y-123978152D02*
X163877619Y-123835295D01*
X163877619Y-123835295D02*
X163925238Y-123740057D01*
X163925238Y-123740057D02*
X163972857Y-123597200D01*
X163972857Y-123597200D02*
X164020476Y-123359104D01*
X164020476Y-123359104D02*
X164020476Y-123168628D01*
X164020476Y-123168628D02*
X163972857Y-122930533D01*
X163972857Y-122930533D02*
X163925238Y-122787676D01*
X163925238Y-122787676D02*
X163877619Y-122692438D01*
X163877619Y-122692438D02*
X163782381Y-122549580D01*
X163782381Y-122549580D02*
X163734762Y-122501961D01*
X164782381Y-122644819D02*
X164782381Y-123359104D01*
X164782381Y-123359104D02*
X164734762Y-123501961D01*
X164734762Y-123501961D02*
X164639524Y-123597200D01*
X164639524Y-123597200D02*
X164496667Y-123644819D01*
X164496667Y-123644819D02*
X164401429Y-123644819D01*
X165163334Y-122644819D02*
X165782381Y-122644819D01*
X165782381Y-122644819D02*
X165449048Y-123025771D01*
X165449048Y-123025771D02*
X165591905Y-123025771D01*
X165591905Y-123025771D02*
X165687143Y-123073390D01*
X165687143Y-123073390D02*
X165734762Y-123121009D01*
X165734762Y-123121009D02*
X165782381Y-123216247D01*
X165782381Y-123216247D02*
X165782381Y-123454342D01*
X165782381Y-123454342D02*
X165734762Y-123549580D01*
X165734762Y-123549580D02*
X165687143Y-123597200D01*
X165687143Y-123597200D02*
X165591905Y-123644819D01*
X165591905Y-123644819D02*
X165306191Y-123644819D01*
X165306191Y-123644819D02*
X165210953Y-123597200D01*
X165210953Y-123597200D02*
X165163334Y-123549580D01*
X164338095Y-126971819D02*
X164338095Y-125971819D01*
X164338095Y-126448009D02*
X164909523Y-126448009D01*
X164909523Y-126971819D02*
X164909523Y-125971819D01*
X165338095Y-126067057D02*
X165385714Y-126019438D01*
X165385714Y-126019438D02*
X165480952Y-125971819D01*
X165480952Y-125971819D02*
X165719047Y-125971819D01*
X165719047Y-125971819D02*
X165814285Y-126019438D01*
X165814285Y-126019438D02*
X165861904Y-126067057D01*
X165861904Y-126067057D02*
X165909523Y-126162295D01*
X165909523Y-126162295D02*
X165909523Y-126257533D01*
X165909523Y-126257533D02*
X165861904Y-126400390D01*
X165861904Y-126400390D02*
X165290476Y-126971819D01*
X165290476Y-126971819D02*
X165909523Y-126971819D01*
X164338095Y-68551819D02*
X164338095Y-67551819D01*
X164338095Y-68028009D02*
X164909523Y-68028009D01*
X164909523Y-68551819D02*
X164909523Y-67551819D01*
X165909523Y-68551819D02*
X165338095Y-68551819D01*
X165623809Y-68551819D02*
X165623809Y-67551819D01*
X165623809Y-67551819D02*
X165528571Y-67694676D01*
X165528571Y-67694676D02*
X165433333Y-67789914D01*
X165433333Y-67789914D02*
X165338095Y-67837533D01*
X123698095Y-68344819D02*
X123698095Y-67344819D01*
X123698095Y-67821009D02*
X124269523Y-67821009D01*
X124269523Y-68344819D02*
X124269523Y-67344819D01*
X124650476Y-67344819D02*
X125269523Y-67344819D01*
X125269523Y-67344819D02*
X124936190Y-67725771D01*
X124936190Y-67725771D02*
X125079047Y-67725771D01*
X125079047Y-67725771D02*
X125174285Y-67773390D01*
X125174285Y-67773390D02*
X125221904Y-67821009D01*
X125221904Y-67821009D02*
X125269523Y-67916247D01*
X125269523Y-67916247D02*
X125269523Y-68154342D01*
X125269523Y-68154342D02*
X125221904Y-68249580D01*
X125221904Y-68249580D02*
X125174285Y-68297200D01*
X125174285Y-68297200D02*
X125079047Y-68344819D01*
X125079047Y-68344819D02*
X124793333Y-68344819D01*
X124793333Y-68344819D02*
X124698095Y-68297200D01*
X124698095Y-68297200D02*
X124650476Y-68249580D01*
X162210952Y-84655771D02*
X162163333Y-84608152D01*
X162163333Y-84608152D02*
X162068095Y-84465295D01*
X162068095Y-84465295D02*
X162020476Y-84370057D01*
X162020476Y-84370057D02*
X161972857Y-84227200D01*
X161972857Y-84227200D02*
X161925238Y-83989104D01*
X161925238Y-83989104D02*
X161925238Y-83798628D01*
X161925238Y-83798628D02*
X161972857Y-83560533D01*
X161972857Y-83560533D02*
X162020476Y-83417676D01*
X162020476Y-83417676D02*
X162068095Y-83322438D01*
X162068095Y-83322438D02*
X162163333Y-83179580D01*
X162163333Y-83179580D02*
X162210952Y-83131961D01*
X162591905Y-83893866D02*
X163353810Y-83893866D01*
X162972857Y-84274819D02*
X162972857Y-83512914D01*
X163734762Y-84655771D02*
X163782381Y-84608152D01*
X163782381Y-84608152D02*
X163877619Y-84465295D01*
X163877619Y-84465295D02*
X163925238Y-84370057D01*
X163925238Y-84370057D02*
X163972857Y-84227200D01*
X163972857Y-84227200D02*
X164020476Y-83989104D01*
X164020476Y-83989104D02*
X164020476Y-83798628D01*
X164020476Y-83798628D02*
X163972857Y-83560533D01*
X163972857Y-83560533D02*
X163925238Y-83417676D01*
X163925238Y-83417676D02*
X163877619Y-83322438D01*
X163877619Y-83322438D02*
X163782381Y-83179580D01*
X163782381Y-83179580D02*
X163734762Y-83131961D01*
X164782381Y-83274819D02*
X164782381Y-83989104D01*
X164782381Y-83989104D02*
X164734762Y-84131961D01*
X164734762Y-84131961D02*
X164639524Y-84227200D01*
X164639524Y-84227200D02*
X164496667Y-84274819D01*
X164496667Y-84274819D02*
X164401429Y-84274819D01*
X165210953Y-83370057D02*
X165258572Y-83322438D01*
X165258572Y-83322438D02*
X165353810Y-83274819D01*
X165353810Y-83274819D02*
X165591905Y-83274819D01*
X165591905Y-83274819D02*
X165687143Y-83322438D01*
X165687143Y-83322438D02*
X165734762Y-83370057D01*
X165734762Y-83370057D02*
X165782381Y-83465295D01*
X165782381Y-83465295D02*
X165782381Y-83560533D01*
X165782381Y-83560533D02*
X165734762Y-83703390D01*
X165734762Y-83703390D02*
X165163334Y-84274819D01*
X165163334Y-84274819D02*
X165782381Y-84274819D01*
X140162819Y-87796666D02*
X139686628Y-88129999D01*
X140162819Y-88368094D02*
X139162819Y-88368094D01*
X139162819Y-88368094D02*
X139162819Y-87987142D01*
X139162819Y-87987142D02*
X139210438Y-87891904D01*
X139210438Y-87891904D02*
X139258057Y-87844285D01*
X139258057Y-87844285D02*
X139353295Y-87796666D01*
X139353295Y-87796666D02*
X139496152Y-87796666D01*
X139496152Y-87796666D02*
X139591390Y-87844285D01*
X139591390Y-87844285D02*
X139639009Y-87891904D01*
X139639009Y-87891904D02*
X139686628Y-87987142D01*
X139686628Y-87987142D02*
X139686628Y-88368094D01*
X139258057Y-87415713D02*
X139210438Y-87368094D01*
X139210438Y-87368094D02*
X139162819Y-87272856D01*
X139162819Y-87272856D02*
X139162819Y-87034761D01*
X139162819Y-87034761D02*
X139210438Y-86939523D01*
X139210438Y-86939523D02*
X139258057Y-86891904D01*
X139258057Y-86891904D02*
X139353295Y-86844285D01*
X139353295Y-86844285D02*
X139448533Y-86844285D01*
X139448533Y-86844285D02*
X139591390Y-86891904D01*
X139591390Y-86891904D02*
X140162819Y-87463332D01*
X140162819Y-87463332D02*
X140162819Y-86844285D01*
D12*
%TO.C,D1*%
X120535000Y-80547000D02*
X120535000Y-82467000D01*
X120535000Y-82467000D02*
X121935000Y-82467000D01*
X121935000Y-79797000D02*
X121935000Y-83217000D01*
X121935000Y-80547000D02*
X120535000Y-80547000D01*
X121935000Y-82467000D02*
X121935000Y-80547000D01*
X121935000Y-83217000D02*
X123655000Y-83217000D01*
X123655000Y-79797000D02*
X121935000Y-79797000D01*
X123655000Y-79917000D02*
X121935000Y-79917000D01*
X123655000Y-80037000D02*
X121935000Y-80037000D01*
X123655000Y-80237000D02*
X123655000Y-80237000D01*
X123655000Y-80237000D02*
X123785000Y-80237000D01*
X123655000Y-82777000D02*
X123655000Y-82777000D01*
X123655000Y-82777000D02*
X123785000Y-82777000D01*
X123655000Y-83217000D02*
X123655000Y-79797000D01*
X123785000Y-80237000D02*
X123655000Y-80237000D01*
X123785000Y-80237000D02*
X123785000Y-80237000D01*
X123785000Y-82777000D02*
X123655000Y-82777000D01*
X123785000Y-82777000D02*
X123785000Y-82777000D01*
%TO.C,J1*%
X120470000Y-94772500D02*
X135170000Y-94772500D01*
X120470000Y-103972500D02*
X120470000Y-94772500D01*
X129270000Y-103972500D02*
X120470000Y-103972500D01*
X134320000Y-94572500D02*
X135370000Y-94572500D01*
X135170000Y-94772500D02*
X135170000Y-97372500D01*
X135170000Y-101272500D02*
X135170000Y-103972500D01*
X135170000Y-103972500D02*
X133270000Y-103972500D01*
X135370000Y-95622500D02*
X135370000Y-94572500D01*
%TO.C,R1*%
X143588000Y-84360000D02*
X143588000Y-90900000D01*
X143588000Y-90900000D02*
X146328000Y-90900000D01*
X144958000Y-83590000D02*
X144958000Y-84360000D01*
X144958000Y-91670000D02*
X144958000Y-90900000D01*
X146328000Y-84360000D02*
X143588000Y-84360000D01*
X146328000Y-90900000D02*
X146328000Y-84360000D01*
%TO.C,(-)J3*%
X158874000Y-105470000D02*
X168795000Y-105470000D01*
X158874000Y-120590000D02*
X158874000Y-105470000D01*
X158874000Y-120590000D02*
X168795000Y-120590000D01*
X161834000Y-120590000D02*
X161834000Y-105470000D01*
X162860000Y-106960000D02*
X162896000Y-106995000D01*
X162860000Y-111960000D02*
X162896000Y-111995000D01*
X163066000Y-106755000D02*
X163112000Y-106802000D01*
X163066000Y-111755000D02*
X163112000Y-111802000D01*
X165158000Y-109257000D02*
X165204000Y-109304000D01*
X165158000Y-114257000D02*
X165204000Y-114304000D01*
X165374000Y-109064000D02*
X165409000Y-109099000D01*
X165374000Y-114064000D02*
X165409000Y-114099000D01*
X166735000Y-120590000D02*
X166735000Y-105470000D01*
X168235000Y-120590000D02*
X168235000Y-105470000D01*
X168295000Y-120830000D02*
X169035000Y-120830000D01*
X168795000Y-120590000D02*
X168795000Y-105470000D01*
X169035000Y-120830000D02*
X169035000Y-120330000D01*
X162599573Y-118713042D02*
G75*
G02*
X162600000Y-117346000I1535420J683041D01*
G01*
X163451958Y-116494573D02*
G75*
G02*
X164819000Y-116495000I683042J-1535427D01*
G01*
X164818042Y-119565427D02*
G75*
G02*
X163451000Y-119565000I-683041J1535420D01*
G01*
X165669756Y-117346682D02*
G75*
G02*
X165815000Y-118030000I-1534756J-683318D01*
G01*
X165815253Y-118001195D02*
G75*
G02*
X165670000Y-118714000I-1680254J-28806D01*
G01*
X165815000Y-108030000D02*
G75*
G02*
X162455000Y-108030000I-1680000J0D01*
G01*
X162455000Y-108030000D02*
G75*
G02*
X165815000Y-108030000I1680000J0D01*
G01*
X165815000Y-113030000D02*
G75*
G02*
X162455000Y-113030000I-1680000J0D01*
G01*
X162455000Y-113030000D02*
G75*
G02*
X165815000Y-113030000I1680000J0D01*
G01*
%TO.C,(+)J2*%
X158569000Y-86420000D02*
X168490000Y-86420000D01*
X158569000Y-101540000D02*
X158569000Y-86420000D01*
X158569000Y-101540000D02*
X168490000Y-101540000D01*
X161529000Y-101540000D02*
X161529000Y-86420000D01*
X162555000Y-87910000D02*
X162591000Y-87945000D01*
X162555000Y-92910000D02*
X162591000Y-92945000D01*
X162761000Y-87705000D02*
X162807000Y-87752000D01*
X162761000Y-92705000D02*
X162807000Y-92752000D01*
X164853000Y-90207000D02*
X164899000Y-90254000D01*
X164853000Y-95207000D02*
X164899000Y-95254000D01*
X165069000Y-90014000D02*
X165104000Y-90049000D01*
X165069000Y-95014000D02*
X165104000Y-95049000D01*
X166430000Y-101540000D02*
X166430000Y-86420000D01*
X167930000Y-101540000D02*
X167930000Y-86420000D01*
X167990000Y-101780000D02*
X168730000Y-101780000D01*
X168490000Y-101540000D02*
X168490000Y-86420000D01*
X168730000Y-101780000D02*
X168730000Y-101280000D01*
X162294573Y-99663042D02*
G75*
G02*
X162295000Y-98296000I1535420J683041D01*
G01*
X163146958Y-97444573D02*
G75*
G02*
X164514000Y-97445000I683042J-1535427D01*
G01*
X164513042Y-100515427D02*
G75*
G02*
X163146000Y-100515000I-683041J1535420D01*
G01*
X165364756Y-98296682D02*
G75*
G02*
X165510000Y-98980000I-1534756J-683318D01*
G01*
X165510253Y-98951195D02*
G75*
G02*
X165365000Y-99664000I-1680254J-28806D01*
G01*
X165510000Y-88980000D02*
G75*
G02*
X162150000Y-88980000I-1680000J0D01*
G01*
X162150000Y-88980000D02*
G75*
G02*
X165510000Y-88980000I1680000J0D01*
G01*
X165510000Y-93980000D02*
G75*
G02*
X162150000Y-93980000I-1680000J0D01*
G01*
X162150000Y-93980000D02*
G75*
G02*
X165510000Y-93980000I1680000J0D01*
G01*
%TO.C,R2*%
X135968000Y-84360000D02*
X135968000Y-90900000D01*
X135968000Y-90900000D02*
X138708000Y-90900000D01*
X137338000Y-83590000D02*
X137338000Y-84360000D01*
X137338000Y-91670000D02*
X137338000Y-90900000D01*
X138708000Y-84360000D02*
X135968000Y-84360000D01*
X138708000Y-90900000D02*
X138708000Y-84360000D01*
%TD*%
M02*
