M48
; DRILL file {KiCad 8.0.5} date 2024-10-14T07:35:13-0700
; FORMAT={-:-/ absolute / inch / decimal}
; #@! TF.CreationDate,2024-10-14T07:35:13-07:00
; #@! TF.GenerationSoftware,Kicad,Pcbnew,8.0.5
; #@! TF.FileFunction,Plated,1,2,PTH
FMAT,2
INCH
; #@! TA.AperFunction,Plated,PTH,ViaDrill
T1C0.0118
; #@! TA.AperFunction,Plated,PTH,ComponentDrill
T2C0.0315
; #@! TA.AperFunction,Plated,PTH,ComponentDrill
T3C0.0394
; #@! TA.AperFunction,Plated,PTH,ComponentDrill
T4C0.0433
; #@! TA.AperFunction,Plated,PTH,ComponentDrill
T5C0.0472
; #@! TA.AperFunction,Plated,PTH,ComponentDrill
T6C0.0512
; #@! TA.AperFunction,Plated,PTH,ComponentDrill
T7C0.1378
%
G90
G05
T1
X2.2638Y-3.9356
X2.4488Y-2.8963
X6.24Y-3.17
X6.275Y-4.7
T2
X1.9374Y-5.005
X1.9638Y-2.9407
X2.0161Y-5.005
X2.0426Y-2.9407
X2.0441Y-3.2388
X2.2803Y-5.2152
X2.4441Y-3.2388
X2.661Y-2.875
X2.6677Y-4.5768
X2.6803Y-5.2152
X2.6819Y-5.0104
X2.761Y-2.775
X2.7677Y-4.4768
X2.856Y-3.254
X2.856Y-3.654
X2.861Y-2.875
X2.8677Y-4.5768
X3.0819Y-5.0104
X3.5388Y-4.1407
X3.5388Y-4.5407
X3.6638Y-4.6657
X3.6937Y-3.2939
X3.778Y-2.9183
X3.791Y-3.74
X3.791Y-4.14
X3.8043Y-5.0301
X3.878Y-2.8183
X3.878Y-3.0183
X3.9043Y-4.9301
X3.9043Y-5.1301
X4.0103Y-4.375
X4.0638Y-4.6657
X4.0937Y-3.2939
X4.1103Y-4.275
X4.1103Y-4.475
X4.2244Y-4.8451
X4.2244Y-5.0419
X4.2362Y-2.7427
X4.2362Y-2.9396
X4.3Y-3.675
X4.3Y-3.875
X4.34Y-3.3647
X4.4Y-3.775
X4.44Y-3.4647
X4.4929Y-4.6612
X4.5323Y-5.0065
X4.54Y-3.3647
X4.5929Y-4.5612
X4.5929Y-4.7612
X4.7874Y-2.6726
X4.7874Y-3.0726
X4.9323Y-5.0065
X4.9961Y-3.4199
X4.9961Y-3.8199
X5.0157Y-4.3577
X5.0157Y-4.7577
X5.0913Y-2.8096
X5.235Y-4.89
X5.235Y-5.29
X5.33Y-4.145
X5.33Y-4.545
X5.335Y-3.026
X5.335Y-3.426
X5.4913Y-2.8096
X6.8887Y-3.9571
X6.8887Y-4.1539
X7.18Y-3.955
X7.18Y-4.1519
T3
X7.12Y-3.535
X7.13Y-4.615
T4
X3.2402Y-4.4258
X3.2402Y-4.8258
X3.2677Y-3.2502
X3.2677Y-3.6502
X3.3622Y-2.699
X3.3622Y-3.099
X3.5236Y-4.8313
X3.5236Y-5.2313
X5.73Y-3.28
X5.73Y-3.38
X5.73Y-3.48
X5.73Y-4.46
X5.73Y-4.56
X5.73Y-4.66
X6.715Y-2.98
X6.715Y-3.08
X6.715Y-3.18
X6.73Y-4.76
X6.73Y-4.86
X6.73Y-4.96
T5
X7.44Y-3.215
X7.6369Y-3.215
T6
X1.9291Y-3.5144
X1.9291Y-3.7112
X1.938Y-4.4716
X1.938Y-4.6684
X7.762Y-3.9066
X7.762Y-4.1034
T7
X1.7Y-2.67
X1.7Y-5.26
X8.3Y-2.69
X8.3Y-5.28
M30
