%TF.GenerationSoftware,KiCad,Pcbnew,8.0.5*%
%TF.CreationDate,2024-10-14T07:35:35-07:00*%
%TF.ProjectId,Power_Amp_RevB,506f7765-725f-4416-9d70-5f526576422e,A*%
%TF.SameCoordinates,Original*%
%TF.FileFunction,Soldermask,Bot*%
%TF.FilePolarity,Negative*%
%FSLAX46Y46*%
G04 Gerber Fmt 4.6, Leading zero omitted, Abs format (unit mm)*
G04 Created by KiCad (PCBNEW 8.0.5) date 2024-10-14 07:35:35*
%MOMM*%
%LPD*%
G01*
G04 APERTURE LIST*
%ADD10C,1.600000*%
%ADD11O,1.600000X1.600000*%
%ADD12C,2.000000*%
%ADD13C,7.000000*%
%ADD14R,2.600000X2.600000*%
%ADD15C,2.600000*%
%ADD16R,1.600000X1.600000*%
%ADD17R,2.000000X1.905000*%
%ADD18O,2.000000X1.905000*%
%ADD19R,1.500000X1.500000*%
%ADD20C,1.500000*%
%ADD21R,2.200000X2.200000*%
%ADD22O,2.200000X2.200000*%
%ADD23C,1.440000*%
%ADD24R,2.400000X2.400000*%
%ADD25C,2.400000*%
G04 APERTURE END LIST*
D10*
%TO.C,R8*%
X68120000Y-127265000D03*
D11*
X78280000Y-127265000D03*
%TD*%
D10*
%TO.C,R14*%
X103980000Y-83665000D03*
D11*
X93820000Y-83665000D03*
%TD*%
D12*
%TO.C,TP1*%
X181102000Y-117221000D03*
%TD*%
D10*
%TO.C,R12*%
X72542400Y-82651600D03*
D11*
X72542400Y-92811600D03*
%TD*%
D10*
%TO.C,C1*%
X174972800Y-100509800D03*
X174972800Y-105509800D03*
%TD*%
D13*
%TO.C,H1*%
X43180000Y-67818000D03*
%TD*%
%TO.C,H3*%
X43180000Y-133604000D03*
%TD*%
D10*
%TO.C,R15*%
X126900000Y-86865000D03*
D11*
X126900000Y-97025000D03*
%TD*%
D14*
%TO.C,J3*%
X49000000Y-89265000D03*
D15*
X49000000Y-94265000D03*
%TD*%
D13*
%TO.C,H4*%
X210820000Y-134112000D03*
%TD*%
%TO.C,H2*%
X210820000Y-68326000D03*
%TD*%
D10*
%TO.C,R3*%
X127400000Y-110685000D03*
D11*
X127400000Y-120845000D03*
%TD*%
D16*
%TO.C,C3*%
X49209888Y-127127000D03*
D10*
X51209888Y-127127000D03*
%TD*%
D17*
%TO.C,Q9*%
X145542000Y-118364000D03*
D18*
X145542000Y-115824000D03*
X145542000Y-113284000D03*
%TD*%
D10*
%TO.C,R2*%
X135382000Y-115443000D03*
D11*
X135382000Y-105283000D03*
%TD*%
D16*
%TO.C,C5*%
X49880800Y-74694800D03*
D10*
X51880800Y-74694800D03*
%TD*%
D19*
%TO.C,Q6*%
X98500000Y-76665000D03*
D20*
X95960000Y-74125000D03*
X98500000Y-71585000D03*
%TD*%
D21*
%TO.C,D3*%
X83000000Y-82555000D03*
D22*
X83000000Y-92715000D03*
%TD*%
D10*
%TO.C,C6*%
X107600000Y-69665000D03*
X107600000Y-74665000D03*
%TD*%
%TO.C,R10*%
X62080000Y-82265000D03*
D11*
X51920000Y-82265000D03*
%TD*%
D17*
%TO.C,Q5*%
X170942000Y-120904000D03*
D18*
X170942000Y-123444000D03*
X170942000Y-125984000D03*
%TD*%
D10*
%TO.C,C4*%
X107300000Y-123065000D03*
X107300000Y-128065000D03*
%TD*%
%TO.C,R6*%
X68080000Y-132465000D03*
D11*
X57920000Y-132465000D03*
%TD*%
D17*
%TO.C,Q10*%
X170561000Y-75692000D03*
D18*
X170561000Y-78232000D03*
X170561000Y-80772000D03*
%TD*%
D23*
%TO.C,RV1*%
X72669400Y-73025000D03*
X70129400Y-70485000D03*
X67589400Y-73025000D03*
%TD*%
D10*
%TO.C,C7*%
X182372000Y-100457000D03*
X182372000Y-105457000D03*
%TD*%
%TO.C,R16*%
X129320000Y-71365000D03*
D11*
X139480000Y-71365000D03*
%TD*%
D21*
%TO.C,D1*%
X82300000Y-122575000D03*
D22*
X82300000Y-112415000D03*
%TD*%
D10*
%TO.C,R9*%
X125280000Y-127165000D03*
D11*
X115120000Y-127165000D03*
%TD*%
D14*
%TO.C,J1*%
X197155000Y-104227000D03*
D15*
X197155000Y-99227000D03*
%TD*%
D19*
%TO.C,Q8*%
X115316000Y-85463000D03*
D20*
X112776000Y-88003000D03*
X110236000Y-85463000D03*
%TD*%
D10*
%TO.C,R18*%
X121600000Y-78045000D03*
D11*
X121600000Y-67885000D03*
%TD*%
D23*
%TO.C,RV2*%
X72840000Y-116250000D03*
X70300000Y-113710000D03*
X67760000Y-116250000D03*
%TD*%
D19*
%TO.C,Q1*%
X104402000Y-113665000D03*
D20*
X101862000Y-111125000D03*
X104402000Y-108585000D03*
%TD*%
D10*
%TO.C,R17*%
X135509000Y-87020400D03*
D11*
X135509000Y-76860400D03*
%TD*%
D12*
%TO.C,TP2*%
X180848000Y-89789000D03*
%TD*%
D10*
%TO.C,R1*%
X89885800Y-105174800D03*
D11*
X89885800Y-115334800D03*
%TD*%
D19*
%TO.C,Q7*%
X109220000Y-93345000D03*
D20*
X111760000Y-95885000D03*
X109220000Y-98425000D03*
%TD*%
D14*
%TO.C,J2*%
X49225000Y-113578000D03*
D15*
X49225000Y-118578000D03*
%TD*%
D21*
%TO.C,D4*%
X85400000Y-68555000D03*
D22*
X85400000Y-78715000D03*
%TD*%
D19*
%TO.C,Q3*%
X99170000Y-130305000D03*
D20*
X96630000Y-127765000D03*
X99170000Y-125225000D03*
%TD*%
D24*
%TO.C,C8*%
X188976000Y-81661000D03*
D25*
X193976000Y-81661000D03*
%TD*%
D19*
%TO.C,Q4*%
X116660000Y-120935000D03*
D20*
X114120000Y-118395000D03*
X116660000Y-115855000D03*
%TD*%
D10*
%TO.C,R13*%
X96291400Y-105156000D03*
D11*
X96291400Y-94996000D03*
%TD*%
D10*
%TO.C,R5*%
X132969000Y-124206000D03*
D11*
X132969000Y-134366000D03*
%TD*%
D10*
%TO.C,R4*%
X103220800Y-118509800D03*
D11*
X93060800Y-118509800D03*
%TD*%
D21*
%TO.C,D2*%
X89500000Y-132875000D03*
D22*
X89500000Y-122715000D03*
%TD*%
D17*
%TO.C,Q2*%
X145542000Y-88392000D03*
D18*
X145542000Y-85852000D03*
X145542000Y-83312000D03*
%TD*%
M02*
