%TF.GenerationSoftware,KiCad,Pcbnew,8.0.5*%
%TF.CreationDate,2024-10-14T07:35:35-07:00*%
%TF.ProjectId,Power_Amp_RevB,506f7765-725f-4416-9d70-5f526576422e,A*%
%TF.SameCoordinates,Original*%
%TF.FileFunction,Legend,Top*%
%TF.FilePolarity,Positive*%
%FSLAX46Y46*%
G04 Gerber Fmt 4.6, Leading zero omitted, Abs format (unit mm)*
G04 Created by KiCad (PCBNEW 8.0.5) date 2024-10-14 07:35:35*
%MOMM*%
%LPD*%
G01*
G04 APERTURE LIST*
%ADD10C,0.400000*%
%ADD11C,0.150000*%
%ADD12C,0.100000*%
%ADD13C,0.120000*%
G04 APERTURE END LIST*
D10*
X201571670Y-133388750D02*
G75*
G02*
X191435719Y-133456406I-5101570J4999150D01*
G01*
X192410203Y-120037702D02*
X192410203Y-121147441D01*
X193429394Y-118199597D02*
G75*
G02*
X199603392Y-118267915I3048806J-3485703D01*
G01*
X191506832Y-117167007D02*
G75*
G02*
X201641747Y-117323064I4989968J-5110493D01*
G01*
X193520800Y-120037702D02*
X201885537Y-120037702D01*
X201571670Y-133388750D02*
G75*
G02*
X202344678Y-134146247I219130J-549550D01*
G01*
X199541641Y-132426156D02*
G75*
G02*
X200257317Y-133160372I213559J-507744D01*
G01*
X193520800Y-121147332D02*
X193520800Y-120037702D01*
X195044956Y-119361012D02*
G75*
G02*
X194377889Y-118629576I-231456J458812D01*
G01*
X186026627Y-128253156D02*
G75*
G02*
X186123309Y-122354277I3970473J2885156D01*
G01*
X191626829Y-121865820D02*
X191626829Y-120037702D01*
X190672920Y-134224104D02*
G75*
G02*
X191435744Y-133456420I559880J206504D01*
G01*
X193727421Y-125318277D02*
G75*
G02*
X192238039Y-125318277I-744691J0D01*
G01*
X192238039Y-125318277D02*
G75*
G02*
X193727421Y-125318277I744691J0D01*
G01*
X190516232Y-120037702D02*
X190516232Y-121865821D01*
X188393558Y-120037702D02*
X190516232Y-120037702D01*
X192416905Y-130558808D02*
X188393558Y-130558808D01*
X192416905Y-128226174D02*
X192416905Y-130558808D01*
X186770855Y-127498870D02*
G75*
G02*
X186819163Y-123118199I3494145J2152070D01*
G01*
X200325448Y-117539960D02*
G75*
G02*
X199603388Y-118267946I-504148J-222040D01*
G01*
X191626829Y-121865821D02*
X191626829Y-120037702D01*
X201132735Y-125349000D02*
G75*
G02*
X198917265Y-125349000I-1107735J0D01*
G01*
X198917265Y-125349000D02*
G75*
G02*
X201132735Y-125349000I1107735J0D01*
G01*
X186123280Y-122354255D02*
G75*
G02*
X186819169Y-123118199I300220J-425445D01*
G01*
X194319505Y-132018877D02*
G75*
G02*
X194992907Y-131293291I437895J268877D01*
G01*
X191506832Y-117167007D02*
G75*
G02*
X190750790Y-116392663I-198032J562907D01*
G01*
X188960087Y-117864915D02*
G75*
G02*
X187669747Y-117864915I-645170J0D01*
G01*
X187669747Y-117864915D02*
G75*
G02*
X188960087Y-117864915I645170J0D01*
G01*
X198715011Y-118752394D02*
G75*
G02*
X198007608Y-119402843I-446311J-224506D01*
G01*
X186770855Y-127498870D02*
G75*
G02*
X186026600Y-128253184I-372155J-377130D01*
G01*
X191626829Y-121865820D02*
G75*
G02*
X190516183Y-121865845I-555329J270520D01*
G01*
X190750715Y-116392635D02*
G75*
G02*
X202421346Y-116572337I5746085J-5884865D01*
G01*
X199541641Y-132426156D02*
G75*
G02*
X193367275Y-132440570I-3095241J3444556D01*
G01*
X192416905Y-128226174D02*
G75*
G02*
X193548816Y-128226143I565875J2907914D01*
G01*
X203420501Y-125349000D02*
G75*
G02*
X196629499Y-125349000I-3395501J0D01*
G01*
X196629499Y-125349000D02*
G75*
G02*
X203420501Y-125349000I3395501J0D01*
G01*
X201885537Y-120037702D02*
G75*
G02*
X202153236Y-130558808I-1860537J-5311298D01*
G01*
X192743107Y-133230471D02*
G75*
G02*
X193367250Y-132440680I541393J213671D01*
G01*
X188895231Y-132730626D02*
G75*
G02*
X187604893Y-132730626I-645169J0D01*
G01*
X187604893Y-132730626D02*
G75*
G02*
X188895231Y-132730626I645169J0D01*
G01*
X197955782Y-131277295D02*
G75*
G02*
X194992927Y-131293271I-1491382J1838095D01*
G01*
X193548816Y-130558808D02*
X193548816Y-128226141D01*
X202421360Y-116572324D02*
G75*
G02*
X201641734Y-117323116I-555760J-203076D01*
G01*
X194377919Y-118629595D02*
G75*
G02*
X198714983Y-118752423I2101781J-2418405D01*
G01*
X193429394Y-118199597D02*
G75*
G02*
X192812224Y-117404322I-77594J576897D01*
G01*
X202322295Y-125349000D02*
G75*
G02*
X197727705Y-125349000I-2297295J0D01*
G01*
X197727705Y-125349000D02*
G75*
G02*
X202322295Y-125349000I2297295J0D01*
G01*
X194894580Y-125318277D02*
G75*
G02*
X191070880Y-125318277I-1911850J0D01*
G01*
X191070880Y-125318277D02*
G75*
G02*
X194894580Y-125318277I1911850J0D01*
G01*
X191626829Y-121865820D02*
X191626829Y-121865821D01*
X188393558Y-130558808D02*
X188393558Y-120037702D01*
X197955782Y-131277295D02*
G75*
G02*
X198657539Y-131933943I257418J-428205D01*
G01*
X192812152Y-117404293D02*
G75*
G02*
X200325486Y-117539922I3685648J-4002007D01*
G01*
X190516232Y-121865821D02*
X190516232Y-120037702D01*
X198657503Y-131933925D02*
G75*
G02*
X194319472Y-132018914I-2215203J2315025D01*
G01*
X200257300Y-133160364D02*
G75*
G02*
X192743113Y-133230465I-3793800J3899564D01*
G01*
X202153236Y-130558808D02*
X193548816Y-130558808D01*
X202344689Y-134146251D02*
G75*
G02*
X190672923Y-134224101I-5874539J5756601D01*
G01*
X191626829Y-120037702D02*
X192410203Y-120037702D01*
X193520800Y-121147332D02*
G75*
G02*
X192410243Y-121147421I-555300J270432D01*
G01*
X195044956Y-119361012D02*
G75*
G02*
X198007597Y-119402865I1455244J-1866788D01*
G01*
D11*
X210343312Y-121630639D02*
X210390931Y-121487782D01*
X210390931Y-121487782D02*
X210390931Y-121249687D01*
X210390931Y-121249687D02*
X210343312Y-121154449D01*
X210343312Y-121154449D02*
X210295692Y-121106830D01*
X210295692Y-121106830D02*
X210200454Y-121059211D01*
X210200454Y-121059211D02*
X210105216Y-121059211D01*
X210105216Y-121059211D02*
X210009978Y-121106830D01*
X210009978Y-121106830D02*
X209962359Y-121154449D01*
X209962359Y-121154449D02*
X209914740Y-121249687D01*
X209914740Y-121249687D02*
X209867121Y-121440163D01*
X209867121Y-121440163D02*
X209819502Y-121535401D01*
X209819502Y-121535401D02*
X209771883Y-121583020D01*
X209771883Y-121583020D02*
X209676645Y-121630639D01*
X209676645Y-121630639D02*
X209581407Y-121630639D01*
X209581407Y-121630639D02*
X209486169Y-121583020D01*
X209486169Y-121583020D02*
X209438550Y-121535401D01*
X209438550Y-121535401D02*
X209390931Y-121440163D01*
X209390931Y-121440163D02*
X209390931Y-121202068D01*
X209390931Y-121202068D02*
X209438550Y-121059211D01*
X210105216Y-120678258D02*
X210105216Y-120202068D01*
X210390931Y-120773496D02*
X209390931Y-120440163D01*
X209390931Y-120440163D02*
X210390931Y-120106830D01*
X210390931Y-119773496D02*
X209390931Y-119773496D01*
X209390931Y-119773496D02*
X210390931Y-119202068D01*
X210390931Y-119202068D02*
X209390931Y-119202068D01*
X210390931Y-117963972D02*
X209390931Y-117963972D01*
X209390931Y-117963972D02*
X209390931Y-117725877D01*
X209390931Y-117725877D02*
X209438550Y-117583020D01*
X209438550Y-117583020D02*
X209533788Y-117487782D01*
X209533788Y-117487782D02*
X209629026Y-117440163D01*
X209629026Y-117440163D02*
X209819502Y-117392544D01*
X209819502Y-117392544D02*
X209962359Y-117392544D01*
X209962359Y-117392544D02*
X210152835Y-117440163D01*
X210152835Y-117440163D02*
X210248073Y-117487782D01*
X210248073Y-117487782D02*
X210343312Y-117583020D01*
X210343312Y-117583020D02*
X210390931Y-117725877D01*
X210390931Y-117725877D02*
X210390931Y-117963972D01*
X210390931Y-116963972D02*
X209390931Y-116963972D01*
X209867121Y-116487782D02*
X209867121Y-116154449D01*
X210390931Y-116011592D02*
X210390931Y-116487782D01*
X210390931Y-116487782D02*
X209390931Y-116487782D01*
X209390931Y-116487782D02*
X209390931Y-116011592D01*
X209438550Y-115059211D02*
X209390931Y-115154449D01*
X209390931Y-115154449D02*
X209390931Y-115297306D01*
X209390931Y-115297306D02*
X209438550Y-115440163D01*
X209438550Y-115440163D02*
X209533788Y-115535401D01*
X209533788Y-115535401D02*
X209629026Y-115583020D01*
X209629026Y-115583020D02*
X209819502Y-115630639D01*
X209819502Y-115630639D02*
X209962359Y-115630639D01*
X209962359Y-115630639D02*
X210152835Y-115583020D01*
X210152835Y-115583020D02*
X210248073Y-115535401D01*
X210248073Y-115535401D02*
X210343312Y-115440163D01*
X210343312Y-115440163D02*
X210390931Y-115297306D01*
X210390931Y-115297306D02*
X210390931Y-115202068D01*
X210390931Y-115202068D02*
X210343312Y-115059211D01*
X210343312Y-115059211D02*
X210295692Y-115011592D01*
X210295692Y-115011592D02*
X209962359Y-115011592D01*
X209962359Y-115011592D02*
X209962359Y-115202068D01*
X209390931Y-114392544D02*
X209390931Y-114202068D01*
X209390931Y-114202068D02*
X209438550Y-114106830D01*
X209438550Y-114106830D02*
X209533788Y-114011592D01*
X209533788Y-114011592D02*
X209724264Y-113963973D01*
X209724264Y-113963973D02*
X210057597Y-113963973D01*
X210057597Y-113963973D02*
X210248073Y-114011592D01*
X210248073Y-114011592D02*
X210343312Y-114106830D01*
X210343312Y-114106830D02*
X210390931Y-114202068D01*
X210390931Y-114202068D02*
X210390931Y-114392544D01*
X210390931Y-114392544D02*
X210343312Y-114487782D01*
X210343312Y-114487782D02*
X210248073Y-114583020D01*
X210248073Y-114583020D02*
X210057597Y-114630639D01*
X210057597Y-114630639D02*
X209724264Y-114630639D01*
X209724264Y-114630639D02*
X209533788Y-114583020D01*
X209533788Y-114583020D02*
X209438550Y-114487782D01*
X209438550Y-114487782D02*
X209390931Y-114392544D01*
X210343312Y-112821115D02*
X210390931Y-112678258D01*
X210390931Y-112678258D02*
X210390931Y-112440163D01*
X210390931Y-112440163D02*
X210343312Y-112344925D01*
X210343312Y-112344925D02*
X210295692Y-112297306D01*
X210295692Y-112297306D02*
X210200454Y-112249687D01*
X210200454Y-112249687D02*
X210105216Y-112249687D01*
X210105216Y-112249687D02*
X210009978Y-112297306D01*
X210009978Y-112297306D02*
X209962359Y-112344925D01*
X209962359Y-112344925D02*
X209914740Y-112440163D01*
X209914740Y-112440163D02*
X209867121Y-112630639D01*
X209867121Y-112630639D02*
X209819502Y-112725877D01*
X209819502Y-112725877D02*
X209771883Y-112773496D01*
X209771883Y-112773496D02*
X209676645Y-112821115D01*
X209676645Y-112821115D02*
X209581407Y-112821115D01*
X209581407Y-112821115D02*
X209486169Y-112773496D01*
X209486169Y-112773496D02*
X209438550Y-112725877D01*
X209438550Y-112725877D02*
X209390931Y-112630639D01*
X209390931Y-112630639D02*
X209390931Y-112392544D01*
X209390931Y-112392544D02*
X209438550Y-112249687D01*
X209390931Y-111963972D02*
X209390931Y-111392544D01*
X210390931Y-111678258D02*
X209390931Y-111678258D01*
X210105216Y-111106829D02*
X210105216Y-110630639D01*
X210390931Y-111202067D02*
X209390931Y-110868734D01*
X209390931Y-110868734D02*
X210390931Y-110535401D01*
X209390931Y-110344924D02*
X209390931Y-109773496D01*
X210390931Y-110059210D02*
X209390931Y-110059210D01*
X209867121Y-109440162D02*
X209867121Y-109106829D01*
X210390931Y-108963972D02*
X210390931Y-109440162D01*
X210390931Y-109440162D02*
X209390931Y-109440162D01*
X209390931Y-109440162D02*
X209390931Y-108963972D01*
X209390931Y-107773495D02*
X210200454Y-107773495D01*
X210200454Y-107773495D02*
X210295692Y-107725876D01*
X210295692Y-107725876D02*
X210343312Y-107678257D01*
X210343312Y-107678257D02*
X210390931Y-107583019D01*
X210390931Y-107583019D02*
X210390931Y-107392543D01*
X210390931Y-107392543D02*
X210343312Y-107297305D01*
X210343312Y-107297305D02*
X210295692Y-107249686D01*
X210295692Y-107249686D02*
X210200454Y-107202067D01*
X210200454Y-107202067D02*
X209390931Y-107202067D01*
X210390931Y-106725876D02*
X209390931Y-106725876D01*
X209390931Y-106725876D02*
X210390931Y-106154448D01*
X210390931Y-106154448D02*
X209390931Y-106154448D01*
X210390931Y-105678257D02*
X209390931Y-105678257D01*
X209390931Y-105344924D02*
X210390931Y-105011591D01*
X210390931Y-105011591D02*
X209390931Y-104678258D01*
X209867121Y-104344924D02*
X209867121Y-104011591D01*
X210390931Y-103868734D02*
X210390931Y-104344924D01*
X210390931Y-104344924D02*
X209390931Y-104344924D01*
X209390931Y-104344924D02*
X209390931Y-103868734D01*
X210390931Y-102868734D02*
X209914740Y-103202067D01*
X210390931Y-103440162D02*
X209390931Y-103440162D01*
X209390931Y-103440162D02*
X209390931Y-103059210D01*
X209390931Y-103059210D02*
X209438550Y-102963972D01*
X209438550Y-102963972D02*
X209486169Y-102916353D01*
X209486169Y-102916353D02*
X209581407Y-102868734D01*
X209581407Y-102868734D02*
X209724264Y-102868734D01*
X209724264Y-102868734D02*
X209819502Y-102916353D01*
X209819502Y-102916353D02*
X209867121Y-102963972D01*
X209867121Y-102963972D02*
X209914740Y-103059210D01*
X209914740Y-103059210D02*
X209914740Y-103440162D01*
X210343312Y-102487781D02*
X210390931Y-102344924D01*
X210390931Y-102344924D02*
X210390931Y-102106829D01*
X210390931Y-102106829D02*
X210343312Y-102011591D01*
X210343312Y-102011591D02*
X210295692Y-101963972D01*
X210295692Y-101963972D02*
X210200454Y-101916353D01*
X210200454Y-101916353D02*
X210105216Y-101916353D01*
X210105216Y-101916353D02*
X210009978Y-101963972D01*
X210009978Y-101963972D02*
X209962359Y-102011591D01*
X209962359Y-102011591D02*
X209914740Y-102106829D01*
X209914740Y-102106829D02*
X209867121Y-102297305D01*
X209867121Y-102297305D02*
X209819502Y-102392543D01*
X209819502Y-102392543D02*
X209771883Y-102440162D01*
X209771883Y-102440162D02*
X209676645Y-102487781D01*
X209676645Y-102487781D02*
X209581407Y-102487781D01*
X209581407Y-102487781D02*
X209486169Y-102440162D01*
X209486169Y-102440162D02*
X209438550Y-102392543D01*
X209438550Y-102392543D02*
X209390931Y-102297305D01*
X209390931Y-102297305D02*
X209390931Y-102059210D01*
X209390931Y-102059210D02*
X209438550Y-101916353D01*
X210390931Y-101487781D02*
X209390931Y-101487781D01*
X209390931Y-101154448D02*
X209390931Y-100583020D01*
X210390931Y-100868734D02*
X209390931Y-100868734D01*
X209914740Y-100059210D02*
X210390931Y-100059210D01*
X209390931Y-100392543D02*
X209914740Y-100059210D01*
X209914740Y-100059210D02*
X209390931Y-99725877D01*
X210295692Y-98059210D02*
X210343312Y-98106829D01*
X210343312Y-98106829D02*
X210390931Y-98249686D01*
X210390931Y-98249686D02*
X210390931Y-98344924D01*
X210390931Y-98344924D02*
X210343312Y-98487781D01*
X210343312Y-98487781D02*
X210248073Y-98583019D01*
X210248073Y-98583019D02*
X210152835Y-98630638D01*
X210152835Y-98630638D02*
X209962359Y-98678257D01*
X209962359Y-98678257D02*
X209819502Y-98678257D01*
X209819502Y-98678257D02*
X209629026Y-98630638D01*
X209629026Y-98630638D02*
X209533788Y-98583019D01*
X209533788Y-98583019D02*
X209438550Y-98487781D01*
X209438550Y-98487781D02*
X209390931Y-98344924D01*
X209390931Y-98344924D02*
X209390931Y-98249686D01*
X209390931Y-98249686D02*
X209438550Y-98106829D01*
X209438550Y-98106829D02*
X209486169Y-98059210D01*
X209390931Y-97440162D02*
X209390931Y-97249686D01*
X209390931Y-97249686D02*
X209438550Y-97154448D01*
X209438550Y-97154448D02*
X209533788Y-97059210D01*
X209533788Y-97059210D02*
X209724264Y-97011591D01*
X209724264Y-97011591D02*
X210057597Y-97011591D01*
X210057597Y-97011591D02*
X210248073Y-97059210D01*
X210248073Y-97059210D02*
X210343312Y-97154448D01*
X210343312Y-97154448D02*
X210390931Y-97249686D01*
X210390931Y-97249686D02*
X210390931Y-97440162D01*
X210390931Y-97440162D02*
X210343312Y-97535400D01*
X210343312Y-97535400D02*
X210248073Y-97630638D01*
X210248073Y-97630638D02*
X210057597Y-97678257D01*
X210057597Y-97678257D02*
X209724264Y-97678257D01*
X209724264Y-97678257D02*
X209533788Y-97630638D01*
X209533788Y-97630638D02*
X209438550Y-97535400D01*
X209438550Y-97535400D02*
X209390931Y-97440162D01*
X210390931Y-96106829D02*
X210390931Y-96583019D01*
X210390931Y-96583019D02*
X209390931Y-96583019D01*
X210390931Y-95297305D02*
X210390931Y-95773495D01*
X210390931Y-95773495D02*
X209390931Y-95773495D01*
X209867121Y-94963971D02*
X209867121Y-94630638D01*
X210390931Y-94487781D02*
X210390931Y-94963971D01*
X210390931Y-94963971D02*
X209390931Y-94963971D01*
X209390931Y-94963971D02*
X209390931Y-94487781D01*
X209438550Y-93535400D02*
X209390931Y-93630638D01*
X209390931Y-93630638D02*
X209390931Y-93773495D01*
X209390931Y-93773495D02*
X209438550Y-93916352D01*
X209438550Y-93916352D02*
X209533788Y-94011590D01*
X209533788Y-94011590D02*
X209629026Y-94059209D01*
X209629026Y-94059209D02*
X209819502Y-94106828D01*
X209819502Y-94106828D02*
X209962359Y-94106828D01*
X209962359Y-94106828D02*
X210152835Y-94059209D01*
X210152835Y-94059209D02*
X210248073Y-94011590D01*
X210248073Y-94011590D02*
X210343312Y-93916352D01*
X210343312Y-93916352D02*
X210390931Y-93773495D01*
X210390931Y-93773495D02*
X210390931Y-93678257D01*
X210390931Y-93678257D02*
X210343312Y-93535400D01*
X210343312Y-93535400D02*
X210295692Y-93487781D01*
X210295692Y-93487781D02*
X209962359Y-93487781D01*
X209962359Y-93487781D02*
X209962359Y-93678257D01*
X209867121Y-93059209D02*
X209867121Y-92725876D01*
X210390931Y-92583019D02*
X210390931Y-93059209D01*
X210390931Y-93059209D02*
X209390931Y-93059209D01*
X209390931Y-93059209D02*
X209390931Y-92583019D01*
X209390931Y-91202066D02*
X209390931Y-91011590D01*
X209390931Y-91011590D02*
X209438550Y-90916352D01*
X209438550Y-90916352D02*
X209533788Y-90821114D01*
X209533788Y-90821114D02*
X209724264Y-90773495D01*
X209724264Y-90773495D02*
X210057597Y-90773495D01*
X210057597Y-90773495D02*
X210248073Y-90821114D01*
X210248073Y-90821114D02*
X210343312Y-90916352D01*
X210343312Y-90916352D02*
X210390931Y-91011590D01*
X210390931Y-91011590D02*
X210390931Y-91202066D01*
X210390931Y-91202066D02*
X210343312Y-91297304D01*
X210343312Y-91297304D02*
X210248073Y-91392542D01*
X210248073Y-91392542D02*
X210057597Y-91440161D01*
X210057597Y-91440161D02*
X209724264Y-91440161D01*
X209724264Y-91440161D02*
X209533788Y-91392542D01*
X209533788Y-91392542D02*
X209438550Y-91297304D01*
X209438550Y-91297304D02*
X209390931Y-91202066D01*
X209867121Y-90011590D02*
X209867121Y-90344923D01*
X210390931Y-90344923D02*
X209390931Y-90344923D01*
X209390931Y-90344923D02*
X209390931Y-89868733D01*
X209867121Y-88725875D02*
X209867121Y-88392542D01*
X210390931Y-88249685D02*
X210390931Y-88725875D01*
X210390931Y-88725875D02*
X209390931Y-88725875D01*
X209390931Y-88725875D02*
X209390931Y-88249685D01*
X210390931Y-87821113D02*
X209390931Y-87821113D01*
X209390931Y-87821113D02*
X210390931Y-87249685D01*
X210390931Y-87249685D02*
X209390931Y-87249685D01*
X209438550Y-86249685D02*
X209390931Y-86344923D01*
X209390931Y-86344923D02*
X209390931Y-86487780D01*
X209390931Y-86487780D02*
X209438550Y-86630637D01*
X209438550Y-86630637D02*
X209533788Y-86725875D01*
X209533788Y-86725875D02*
X209629026Y-86773494D01*
X209629026Y-86773494D02*
X209819502Y-86821113D01*
X209819502Y-86821113D02*
X209962359Y-86821113D01*
X209962359Y-86821113D02*
X210152835Y-86773494D01*
X210152835Y-86773494D02*
X210248073Y-86725875D01*
X210248073Y-86725875D02*
X210343312Y-86630637D01*
X210343312Y-86630637D02*
X210390931Y-86487780D01*
X210390931Y-86487780D02*
X210390931Y-86392542D01*
X210390931Y-86392542D02*
X210343312Y-86249685D01*
X210343312Y-86249685D02*
X210295692Y-86202066D01*
X210295692Y-86202066D02*
X209962359Y-86202066D01*
X209962359Y-86202066D02*
X209962359Y-86392542D01*
X210390931Y-85773494D02*
X209390931Y-85773494D01*
X210390931Y-85297304D02*
X209390931Y-85297304D01*
X209390931Y-85297304D02*
X210390931Y-84725876D01*
X210390931Y-84725876D02*
X209390931Y-84725876D01*
X209867121Y-84249685D02*
X209867121Y-83916352D01*
X210390931Y-83773495D02*
X210390931Y-84249685D01*
X210390931Y-84249685D02*
X209390931Y-84249685D01*
X209390931Y-84249685D02*
X209390931Y-83773495D01*
X209867121Y-83344923D02*
X209867121Y-83011590D01*
X210390931Y-82868733D02*
X210390931Y-83344923D01*
X210390931Y-83344923D02*
X209390931Y-83344923D01*
X209390931Y-83344923D02*
X209390931Y-82868733D01*
X210390931Y-81868733D02*
X209914740Y-82202066D01*
X210390931Y-82440161D02*
X209390931Y-82440161D01*
X209390931Y-82440161D02*
X209390931Y-82059209D01*
X209390931Y-82059209D02*
X209438550Y-81963971D01*
X209438550Y-81963971D02*
X209486169Y-81916352D01*
X209486169Y-81916352D02*
X209581407Y-81868733D01*
X209581407Y-81868733D02*
X209724264Y-81868733D01*
X209724264Y-81868733D02*
X209819502Y-81916352D01*
X209819502Y-81916352D02*
X209867121Y-81963971D01*
X209867121Y-81963971D02*
X209914740Y-82059209D01*
X209914740Y-82059209D02*
X209914740Y-82440161D01*
X210390931Y-81440161D02*
X209390931Y-81440161D01*
X210390931Y-80963971D02*
X209390931Y-80963971D01*
X209390931Y-80963971D02*
X210390931Y-80392543D01*
X210390931Y-80392543D02*
X209390931Y-80392543D01*
X209438550Y-79392543D02*
X209390931Y-79487781D01*
X209390931Y-79487781D02*
X209390931Y-79630638D01*
X209390931Y-79630638D02*
X209438550Y-79773495D01*
X209438550Y-79773495D02*
X209533788Y-79868733D01*
X209533788Y-79868733D02*
X209629026Y-79916352D01*
X209629026Y-79916352D02*
X209819502Y-79963971D01*
X209819502Y-79963971D02*
X209962359Y-79963971D01*
X209962359Y-79963971D02*
X210152835Y-79916352D01*
X210152835Y-79916352D02*
X210248073Y-79868733D01*
X210248073Y-79868733D02*
X210343312Y-79773495D01*
X210343312Y-79773495D02*
X210390931Y-79630638D01*
X210390931Y-79630638D02*
X210390931Y-79535400D01*
X210390931Y-79535400D02*
X210343312Y-79392543D01*
X210343312Y-79392543D02*
X210295692Y-79344924D01*
X210295692Y-79344924D02*
X209962359Y-79344924D01*
X209962359Y-79344924D02*
X209962359Y-79535400D01*
X212000875Y-121583020D02*
X211000875Y-121583020D01*
X211000875Y-121583020D02*
X211000875Y-121344925D01*
X211000875Y-121344925D02*
X211048494Y-121202068D01*
X211048494Y-121202068D02*
X211143732Y-121106830D01*
X211143732Y-121106830D02*
X211238970Y-121059211D01*
X211238970Y-121059211D02*
X211429446Y-121011592D01*
X211429446Y-121011592D02*
X211572303Y-121011592D01*
X211572303Y-121011592D02*
X211762779Y-121059211D01*
X211762779Y-121059211D02*
X211858017Y-121106830D01*
X211858017Y-121106830D02*
X211953256Y-121202068D01*
X211953256Y-121202068D02*
X212000875Y-121344925D01*
X212000875Y-121344925D02*
X212000875Y-121583020D01*
X211477065Y-120583020D02*
X211477065Y-120249687D01*
X212000875Y-120106830D02*
X212000875Y-120583020D01*
X212000875Y-120583020D02*
X211000875Y-120583020D01*
X211000875Y-120583020D02*
X211000875Y-120106830D01*
X212000875Y-119678258D02*
X211000875Y-119678258D01*
X211000875Y-119678258D02*
X211000875Y-119297306D01*
X211000875Y-119297306D02*
X211048494Y-119202068D01*
X211048494Y-119202068D02*
X211096113Y-119154449D01*
X211096113Y-119154449D02*
X211191351Y-119106830D01*
X211191351Y-119106830D02*
X211334208Y-119106830D01*
X211334208Y-119106830D02*
X211429446Y-119154449D01*
X211429446Y-119154449D02*
X211477065Y-119202068D01*
X211477065Y-119202068D02*
X211524684Y-119297306D01*
X211524684Y-119297306D02*
X211524684Y-119678258D01*
X211715160Y-118725877D02*
X211715160Y-118249687D01*
X212000875Y-118821115D02*
X211000875Y-118487782D01*
X211000875Y-118487782D02*
X212000875Y-118154449D01*
X212000875Y-117249687D02*
X211524684Y-117583020D01*
X212000875Y-117821115D02*
X211000875Y-117821115D01*
X211000875Y-117821115D02*
X211000875Y-117440163D01*
X211000875Y-117440163D02*
X211048494Y-117344925D01*
X211048494Y-117344925D02*
X211096113Y-117297306D01*
X211096113Y-117297306D02*
X211191351Y-117249687D01*
X211191351Y-117249687D02*
X211334208Y-117249687D01*
X211334208Y-117249687D02*
X211429446Y-117297306D01*
X211429446Y-117297306D02*
X211477065Y-117344925D01*
X211477065Y-117344925D02*
X211524684Y-117440163D01*
X211524684Y-117440163D02*
X211524684Y-117821115D01*
X211000875Y-116963972D02*
X211000875Y-116392544D01*
X212000875Y-116678258D02*
X211000875Y-116678258D01*
X212000875Y-116059210D02*
X211000875Y-116059210D01*
X211000875Y-116059210D02*
X211715160Y-115725877D01*
X211715160Y-115725877D02*
X211000875Y-115392544D01*
X211000875Y-115392544D02*
X212000875Y-115392544D01*
X211477065Y-114916353D02*
X211477065Y-114583020D01*
X212000875Y-114440163D02*
X212000875Y-114916353D01*
X212000875Y-114916353D02*
X211000875Y-114916353D01*
X211000875Y-114916353D02*
X211000875Y-114440163D01*
X212000875Y-114011591D02*
X211000875Y-114011591D01*
X211000875Y-114011591D02*
X212000875Y-113440163D01*
X212000875Y-113440163D02*
X211000875Y-113440163D01*
X211000875Y-113106829D02*
X211000875Y-112535401D01*
X212000875Y-112821115D02*
X211000875Y-112821115D01*
X211000875Y-111249686D02*
X211000875Y-111059210D01*
X211000875Y-111059210D02*
X211048494Y-110963972D01*
X211048494Y-110963972D02*
X211143732Y-110868734D01*
X211143732Y-110868734D02*
X211334208Y-110821115D01*
X211334208Y-110821115D02*
X211667541Y-110821115D01*
X211667541Y-110821115D02*
X211858017Y-110868734D01*
X211858017Y-110868734D02*
X211953256Y-110963972D01*
X211953256Y-110963972D02*
X212000875Y-111059210D01*
X212000875Y-111059210D02*
X212000875Y-111249686D01*
X212000875Y-111249686D02*
X211953256Y-111344924D01*
X211953256Y-111344924D02*
X211858017Y-111440162D01*
X211858017Y-111440162D02*
X211667541Y-111487781D01*
X211667541Y-111487781D02*
X211334208Y-111487781D01*
X211334208Y-111487781D02*
X211143732Y-111440162D01*
X211143732Y-111440162D02*
X211048494Y-111344924D01*
X211048494Y-111344924D02*
X211000875Y-111249686D01*
X211477065Y-110059210D02*
X211477065Y-110392543D01*
X212000875Y-110392543D02*
X211000875Y-110392543D01*
X211000875Y-110392543D02*
X211000875Y-109916353D01*
X211477065Y-108773495D02*
X211477065Y-108440162D01*
X212000875Y-108297305D02*
X212000875Y-108773495D01*
X212000875Y-108773495D02*
X211000875Y-108773495D01*
X211000875Y-108773495D02*
X211000875Y-108297305D01*
X212000875Y-107392543D02*
X212000875Y-107868733D01*
X212000875Y-107868733D02*
X211000875Y-107868733D01*
X211477065Y-107059209D02*
X211477065Y-106725876D01*
X212000875Y-106583019D02*
X212000875Y-107059209D01*
X212000875Y-107059209D02*
X211000875Y-107059209D01*
X211000875Y-107059209D02*
X211000875Y-106583019D01*
X211905636Y-105583019D02*
X211953256Y-105630638D01*
X211953256Y-105630638D02*
X212000875Y-105773495D01*
X212000875Y-105773495D02*
X212000875Y-105868733D01*
X212000875Y-105868733D02*
X211953256Y-106011590D01*
X211953256Y-106011590D02*
X211858017Y-106106828D01*
X211858017Y-106106828D02*
X211762779Y-106154447D01*
X211762779Y-106154447D02*
X211572303Y-106202066D01*
X211572303Y-106202066D02*
X211429446Y-106202066D01*
X211429446Y-106202066D02*
X211238970Y-106154447D01*
X211238970Y-106154447D02*
X211143732Y-106106828D01*
X211143732Y-106106828D02*
X211048494Y-106011590D01*
X211048494Y-106011590D02*
X211000875Y-105868733D01*
X211000875Y-105868733D02*
X211000875Y-105773495D01*
X211000875Y-105773495D02*
X211048494Y-105630638D01*
X211048494Y-105630638D02*
X211096113Y-105583019D01*
X211000875Y-105297304D02*
X211000875Y-104725876D01*
X212000875Y-105011590D02*
X211000875Y-105011590D01*
X212000875Y-103821114D02*
X211524684Y-104154447D01*
X212000875Y-104392542D02*
X211000875Y-104392542D01*
X211000875Y-104392542D02*
X211000875Y-104011590D01*
X211000875Y-104011590D02*
X211048494Y-103916352D01*
X211048494Y-103916352D02*
X211096113Y-103868733D01*
X211096113Y-103868733D02*
X211191351Y-103821114D01*
X211191351Y-103821114D02*
X211334208Y-103821114D01*
X211334208Y-103821114D02*
X211429446Y-103868733D01*
X211429446Y-103868733D02*
X211477065Y-103916352D01*
X211477065Y-103916352D02*
X211524684Y-104011590D01*
X211524684Y-104011590D02*
X211524684Y-104392542D01*
X212000875Y-103392542D02*
X211000875Y-103392542D01*
X211905636Y-102344924D02*
X211953256Y-102392543D01*
X211953256Y-102392543D02*
X212000875Y-102535400D01*
X212000875Y-102535400D02*
X212000875Y-102630638D01*
X212000875Y-102630638D02*
X211953256Y-102773495D01*
X211953256Y-102773495D02*
X211858017Y-102868733D01*
X211858017Y-102868733D02*
X211762779Y-102916352D01*
X211762779Y-102916352D02*
X211572303Y-102963971D01*
X211572303Y-102963971D02*
X211429446Y-102963971D01*
X211429446Y-102963971D02*
X211238970Y-102916352D01*
X211238970Y-102916352D02*
X211143732Y-102868733D01*
X211143732Y-102868733D02*
X211048494Y-102773495D01*
X211048494Y-102773495D02*
X211000875Y-102630638D01*
X211000875Y-102630638D02*
X211000875Y-102535400D01*
X211000875Y-102535400D02*
X211048494Y-102392543D01*
X211048494Y-102392543D02*
X211096113Y-102344924D01*
X211715160Y-101963971D02*
X211715160Y-101487781D01*
X212000875Y-102059209D02*
X211000875Y-101725876D01*
X211000875Y-101725876D02*
X212000875Y-101392543D01*
X212000875Y-100583019D02*
X212000875Y-101059209D01*
X212000875Y-101059209D02*
X211000875Y-101059209D01*
X212000875Y-98678256D02*
X212000875Y-98725876D01*
X212000875Y-98725876D02*
X211953256Y-98821114D01*
X211953256Y-98821114D02*
X211810398Y-98963971D01*
X211810398Y-98963971D02*
X211524684Y-99202066D01*
X211524684Y-99202066D02*
X211381827Y-99297304D01*
X211381827Y-99297304D02*
X211238970Y-99344923D01*
X211238970Y-99344923D02*
X211143732Y-99344923D01*
X211143732Y-99344923D02*
X211048494Y-99297304D01*
X211048494Y-99297304D02*
X211000875Y-99202066D01*
X211000875Y-99202066D02*
X211000875Y-99154447D01*
X211000875Y-99154447D02*
X211048494Y-99059209D01*
X211048494Y-99059209D02*
X211143732Y-99011590D01*
X211143732Y-99011590D02*
X211191351Y-99011590D01*
X211191351Y-99011590D02*
X211286589Y-99059209D01*
X211286589Y-99059209D02*
X211334208Y-99106828D01*
X211334208Y-99106828D02*
X211524684Y-99392542D01*
X211524684Y-99392542D02*
X211572303Y-99440161D01*
X211572303Y-99440161D02*
X211667541Y-99487780D01*
X211667541Y-99487780D02*
X211810398Y-99487780D01*
X211810398Y-99487780D02*
X211905636Y-99440161D01*
X211905636Y-99440161D02*
X211953256Y-99392542D01*
X211953256Y-99392542D02*
X212000875Y-99297304D01*
X212000875Y-99297304D02*
X212000875Y-99154447D01*
X212000875Y-99154447D02*
X211953256Y-99059209D01*
X211953256Y-99059209D02*
X211905636Y-99011590D01*
X211905636Y-99011590D02*
X211715160Y-98868733D01*
X211715160Y-98868733D02*
X211572303Y-98821114D01*
X211572303Y-98821114D02*
X211477065Y-98821114D01*
X211905636Y-96916352D02*
X211953256Y-96963971D01*
X211953256Y-96963971D02*
X212000875Y-97106828D01*
X212000875Y-97106828D02*
X212000875Y-97202066D01*
X212000875Y-97202066D02*
X211953256Y-97344923D01*
X211953256Y-97344923D02*
X211858017Y-97440161D01*
X211858017Y-97440161D02*
X211762779Y-97487780D01*
X211762779Y-97487780D02*
X211572303Y-97535399D01*
X211572303Y-97535399D02*
X211429446Y-97535399D01*
X211429446Y-97535399D02*
X211238970Y-97487780D01*
X211238970Y-97487780D02*
X211143732Y-97440161D01*
X211143732Y-97440161D02*
X211048494Y-97344923D01*
X211048494Y-97344923D02*
X211000875Y-97202066D01*
X211000875Y-97202066D02*
X211000875Y-97106828D01*
X211000875Y-97106828D02*
X211048494Y-96963971D01*
X211048494Y-96963971D02*
X211096113Y-96916352D01*
X211000875Y-96297304D02*
X211000875Y-96106828D01*
X211000875Y-96106828D02*
X211048494Y-96011590D01*
X211048494Y-96011590D02*
X211143732Y-95916352D01*
X211143732Y-95916352D02*
X211334208Y-95868733D01*
X211334208Y-95868733D02*
X211667541Y-95868733D01*
X211667541Y-95868733D02*
X211858017Y-95916352D01*
X211858017Y-95916352D02*
X211953256Y-96011590D01*
X211953256Y-96011590D02*
X212000875Y-96106828D01*
X212000875Y-96106828D02*
X212000875Y-96297304D01*
X212000875Y-96297304D02*
X211953256Y-96392542D01*
X211953256Y-96392542D02*
X211858017Y-96487780D01*
X211858017Y-96487780D02*
X211667541Y-96535399D01*
X211667541Y-96535399D02*
X211334208Y-96535399D01*
X211334208Y-96535399D02*
X211143732Y-96487780D01*
X211143732Y-96487780D02*
X211048494Y-96392542D01*
X211048494Y-96392542D02*
X211000875Y-96297304D01*
X212000875Y-95440161D02*
X211000875Y-95440161D01*
X211000875Y-95440161D02*
X211715160Y-95106828D01*
X211715160Y-95106828D02*
X211000875Y-94773495D01*
X211000875Y-94773495D02*
X212000875Y-94773495D01*
X212000875Y-94297304D02*
X211000875Y-94297304D01*
X211000875Y-94297304D02*
X211000875Y-93916352D01*
X211000875Y-93916352D02*
X211048494Y-93821114D01*
X211048494Y-93821114D02*
X211096113Y-93773495D01*
X211096113Y-93773495D02*
X211191351Y-93725876D01*
X211191351Y-93725876D02*
X211334208Y-93725876D01*
X211334208Y-93725876D02*
X211429446Y-93773495D01*
X211429446Y-93773495D02*
X211477065Y-93821114D01*
X211477065Y-93821114D02*
X211524684Y-93916352D01*
X211524684Y-93916352D02*
X211524684Y-94297304D01*
X211000875Y-93297304D02*
X211810398Y-93297304D01*
X211810398Y-93297304D02*
X211905636Y-93249685D01*
X211905636Y-93249685D02*
X211953256Y-93202066D01*
X211953256Y-93202066D02*
X212000875Y-93106828D01*
X212000875Y-93106828D02*
X212000875Y-92916352D01*
X212000875Y-92916352D02*
X211953256Y-92821114D01*
X211953256Y-92821114D02*
X211905636Y-92773495D01*
X211905636Y-92773495D02*
X211810398Y-92725876D01*
X211810398Y-92725876D02*
X211000875Y-92725876D01*
X211000875Y-92392542D02*
X211000875Y-91821114D01*
X212000875Y-92106828D02*
X211000875Y-92106828D01*
X211477065Y-91487780D02*
X211477065Y-91154447D01*
X212000875Y-91011590D02*
X212000875Y-91487780D01*
X212000875Y-91487780D02*
X211000875Y-91487780D01*
X211000875Y-91487780D02*
X211000875Y-91011590D01*
X212000875Y-90011590D02*
X211524684Y-90344923D01*
X212000875Y-90583018D02*
X211000875Y-90583018D01*
X211000875Y-90583018D02*
X211000875Y-90202066D01*
X211000875Y-90202066D02*
X211048494Y-90106828D01*
X211048494Y-90106828D02*
X211096113Y-90059209D01*
X211096113Y-90059209D02*
X211191351Y-90011590D01*
X211191351Y-90011590D02*
X211334208Y-90011590D01*
X211334208Y-90011590D02*
X211429446Y-90059209D01*
X211429446Y-90059209D02*
X211477065Y-90106828D01*
X211477065Y-90106828D02*
X211524684Y-90202066D01*
X211524684Y-90202066D02*
X211524684Y-90583018D01*
X211477065Y-88821113D02*
X211477065Y-88487780D01*
X212000875Y-88344923D02*
X212000875Y-88821113D01*
X212000875Y-88821113D02*
X211000875Y-88821113D01*
X211000875Y-88821113D02*
X211000875Y-88344923D01*
X212000875Y-87916351D02*
X211000875Y-87916351D01*
X211000875Y-87916351D02*
X212000875Y-87344923D01*
X212000875Y-87344923D02*
X211000875Y-87344923D01*
X211048494Y-86344923D02*
X211000875Y-86440161D01*
X211000875Y-86440161D02*
X211000875Y-86583018D01*
X211000875Y-86583018D02*
X211048494Y-86725875D01*
X211048494Y-86725875D02*
X211143732Y-86821113D01*
X211143732Y-86821113D02*
X211238970Y-86868732D01*
X211238970Y-86868732D02*
X211429446Y-86916351D01*
X211429446Y-86916351D02*
X211572303Y-86916351D01*
X211572303Y-86916351D02*
X211762779Y-86868732D01*
X211762779Y-86868732D02*
X211858017Y-86821113D01*
X211858017Y-86821113D02*
X211953256Y-86725875D01*
X211953256Y-86725875D02*
X212000875Y-86583018D01*
X212000875Y-86583018D02*
X212000875Y-86487780D01*
X212000875Y-86487780D02*
X211953256Y-86344923D01*
X211953256Y-86344923D02*
X211905636Y-86297304D01*
X211905636Y-86297304D02*
X211572303Y-86297304D01*
X211572303Y-86297304D02*
X211572303Y-86487780D01*
X212000875Y-85868732D02*
X211000875Y-85868732D01*
X212000875Y-85392542D02*
X211000875Y-85392542D01*
X211000875Y-85392542D02*
X212000875Y-84821114D01*
X212000875Y-84821114D02*
X211000875Y-84821114D01*
X211477065Y-84344923D02*
X211477065Y-84011590D01*
X212000875Y-83868733D02*
X212000875Y-84344923D01*
X212000875Y-84344923D02*
X211000875Y-84344923D01*
X211000875Y-84344923D02*
X211000875Y-83868733D01*
X211477065Y-83440161D02*
X211477065Y-83106828D01*
X212000875Y-82963971D02*
X212000875Y-83440161D01*
X212000875Y-83440161D02*
X211000875Y-83440161D01*
X211000875Y-83440161D02*
X211000875Y-82963971D01*
X212000875Y-81963971D02*
X211524684Y-82297304D01*
X212000875Y-82535399D02*
X211000875Y-82535399D01*
X211000875Y-82535399D02*
X211000875Y-82154447D01*
X211000875Y-82154447D02*
X211048494Y-82059209D01*
X211048494Y-82059209D02*
X211096113Y-82011590D01*
X211096113Y-82011590D02*
X211191351Y-81963971D01*
X211191351Y-81963971D02*
X211334208Y-81963971D01*
X211334208Y-81963971D02*
X211429446Y-82011590D01*
X211429446Y-82011590D02*
X211477065Y-82059209D01*
X211477065Y-82059209D02*
X211524684Y-82154447D01*
X211524684Y-82154447D02*
X211524684Y-82535399D01*
X212000875Y-81535399D02*
X211000875Y-81535399D01*
X212000875Y-81059209D02*
X211000875Y-81059209D01*
X211000875Y-81059209D02*
X212000875Y-80487781D01*
X212000875Y-80487781D02*
X211000875Y-80487781D01*
X211048494Y-79487781D02*
X211000875Y-79583019D01*
X211000875Y-79583019D02*
X211000875Y-79725876D01*
X211000875Y-79725876D02*
X211048494Y-79868733D01*
X211048494Y-79868733D02*
X211143732Y-79963971D01*
X211143732Y-79963971D02*
X211238970Y-80011590D01*
X211238970Y-80011590D02*
X211429446Y-80059209D01*
X211429446Y-80059209D02*
X211572303Y-80059209D01*
X211572303Y-80059209D02*
X211762779Y-80011590D01*
X211762779Y-80011590D02*
X211858017Y-79963971D01*
X211858017Y-79963971D02*
X211953256Y-79868733D01*
X211953256Y-79868733D02*
X212000875Y-79725876D01*
X212000875Y-79725876D02*
X212000875Y-79630638D01*
X212000875Y-79630638D02*
X211953256Y-79487781D01*
X211953256Y-79487781D02*
X211905636Y-79440162D01*
X211905636Y-79440162D02*
X211572303Y-79440162D01*
X211572303Y-79440162D02*
X211572303Y-79630638D01*
X212610819Y-121725877D02*
X212610819Y-121154449D01*
X213610819Y-121440163D02*
X212610819Y-121440163D01*
X213087009Y-120821115D02*
X213087009Y-120487782D01*
X213610819Y-120344925D02*
X213610819Y-120821115D01*
X213610819Y-120821115D02*
X212610819Y-120821115D01*
X212610819Y-120821115D02*
X212610819Y-120344925D01*
X213325104Y-119963972D02*
X213325104Y-119487782D01*
X213610819Y-120059210D02*
X212610819Y-119725877D01*
X212610819Y-119725877D02*
X213610819Y-119392544D01*
X213610819Y-119059210D02*
X212610819Y-119059210D01*
X212610819Y-119059210D02*
X213325104Y-118725877D01*
X213325104Y-118725877D02*
X212610819Y-118392544D01*
X212610819Y-118392544D02*
X213610819Y-118392544D01*
X213087009Y-116821115D02*
X213134628Y-116678258D01*
X213134628Y-116678258D02*
X213182247Y-116630639D01*
X213182247Y-116630639D02*
X213277485Y-116583020D01*
X213277485Y-116583020D02*
X213420342Y-116583020D01*
X213420342Y-116583020D02*
X213515580Y-116630639D01*
X213515580Y-116630639D02*
X213563200Y-116678258D01*
X213563200Y-116678258D02*
X213610819Y-116773496D01*
X213610819Y-116773496D02*
X213610819Y-117154448D01*
X213610819Y-117154448D02*
X212610819Y-117154448D01*
X212610819Y-117154448D02*
X212610819Y-116821115D01*
X212610819Y-116821115D02*
X212658438Y-116725877D01*
X212658438Y-116725877D02*
X212706057Y-116678258D01*
X212706057Y-116678258D02*
X212801295Y-116630639D01*
X212801295Y-116630639D02*
X212896533Y-116630639D01*
X212896533Y-116630639D02*
X212991771Y-116678258D01*
X212991771Y-116678258D02*
X213039390Y-116725877D01*
X213039390Y-116725877D02*
X213087009Y-116821115D01*
X213087009Y-116821115D02*
X213087009Y-117154448D01*
X212610819Y-115963972D02*
X212610819Y-115773496D01*
X212610819Y-115773496D02*
X212658438Y-115678258D01*
X212658438Y-115678258D02*
X212753676Y-115583020D01*
X212753676Y-115583020D02*
X212944152Y-115535401D01*
X212944152Y-115535401D02*
X213277485Y-115535401D01*
X213277485Y-115535401D02*
X213467961Y-115583020D01*
X213467961Y-115583020D02*
X213563200Y-115678258D01*
X213563200Y-115678258D02*
X213610819Y-115773496D01*
X213610819Y-115773496D02*
X213610819Y-115963972D01*
X213610819Y-115963972D02*
X213563200Y-116059210D01*
X213563200Y-116059210D02*
X213467961Y-116154448D01*
X213467961Y-116154448D02*
X213277485Y-116202067D01*
X213277485Y-116202067D02*
X212944152Y-116202067D01*
X212944152Y-116202067D02*
X212753676Y-116154448D01*
X212753676Y-116154448D02*
X212658438Y-116059210D01*
X212658438Y-116059210D02*
X212610819Y-115963972D01*
X212610819Y-114916353D02*
X212610819Y-114725877D01*
X212610819Y-114725877D02*
X212658438Y-114630639D01*
X212658438Y-114630639D02*
X212753676Y-114535401D01*
X212753676Y-114535401D02*
X212944152Y-114487782D01*
X212944152Y-114487782D02*
X213277485Y-114487782D01*
X213277485Y-114487782D02*
X213467961Y-114535401D01*
X213467961Y-114535401D02*
X213563200Y-114630639D01*
X213563200Y-114630639D02*
X213610819Y-114725877D01*
X213610819Y-114725877D02*
X213610819Y-114916353D01*
X213610819Y-114916353D02*
X213563200Y-115011591D01*
X213563200Y-115011591D02*
X213467961Y-115106829D01*
X213467961Y-115106829D02*
X213277485Y-115154448D01*
X213277485Y-115154448D02*
X212944152Y-115154448D01*
X212944152Y-115154448D02*
X212753676Y-115106829D01*
X212753676Y-115106829D02*
X212658438Y-115011591D01*
X212658438Y-115011591D02*
X212610819Y-114916353D01*
X213610819Y-114059210D02*
X212610819Y-114059210D01*
X212610819Y-114059210D02*
X213325104Y-113725877D01*
X213325104Y-113725877D02*
X212610819Y-113392544D01*
X212610819Y-113392544D02*
X213610819Y-113392544D01*
X213515580Y-112916353D02*
X213563200Y-112868734D01*
X213563200Y-112868734D02*
X213610819Y-112916353D01*
X213610819Y-112916353D02*
X213563200Y-112963972D01*
X213563200Y-112963972D02*
X213515580Y-112916353D01*
X213515580Y-112916353D02*
X213610819Y-112916353D01*
X212991771Y-112916353D02*
X213039390Y-112868734D01*
X213039390Y-112868734D02*
X213087009Y-112916353D01*
X213087009Y-112916353D02*
X213039390Y-112963972D01*
X213039390Y-112963972D02*
X212991771Y-112916353D01*
X212991771Y-112916353D02*
X213087009Y-112916353D01*
X213325104Y-111725877D02*
X213325104Y-111249687D01*
X213610819Y-111821115D02*
X212610819Y-111487782D01*
X212610819Y-111487782D02*
X213610819Y-111154449D01*
X213610819Y-110821115D02*
X212610819Y-110821115D01*
X212610819Y-110821115D02*
X213325104Y-110487782D01*
X213325104Y-110487782D02*
X212610819Y-110154449D01*
X212610819Y-110154449D02*
X213610819Y-110154449D01*
X213610819Y-109678258D02*
X212610819Y-109678258D01*
X212610819Y-109678258D02*
X212610819Y-109297306D01*
X212610819Y-109297306D02*
X212658438Y-109202068D01*
X212658438Y-109202068D02*
X212706057Y-109154449D01*
X212706057Y-109154449D02*
X212801295Y-109106830D01*
X212801295Y-109106830D02*
X212944152Y-109106830D01*
X212944152Y-109106830D02*
X213039390Y-109154449D01*
X213039390Y-109154449D02*
X213087009Y-109202068D01*
X213087009Y-109202068D02*
X213134628Y-109297306D01*
X213134628Y-109297306D02*
X213134628Y-109678258D01*
X213610819Y-108202068D02*
X213610819Y-108678258D01*
X213610819Y-108678258D02*
X212610819Y-108678258D01*
X213610819Y-107868734D02*
X212610819Y-107868734D01*
X213087009Y-107059211D02*
X213087009Y-107392544D01*
X213610819Y-107392544D02*
X212610819Y-107392544D01*
X212610819Y-107392544D02*
X212610819Y-106916354D01*
X213610819Y-106535401D02*
X212610819Y-106535401D01*
X213087009Y-106059211D02*
X213087009Y-105725878D01*
X213610819Y-105583021D02*
X213610819Y-106059211D01*
X213610819Y-106059211D02*
X212610819Y-106059211D01*
X212610819Y-106059211D02*
X212610819Y-105583021D01*
X213610819Y-104583021D02*
X213134628Y-104916354D01*
X213610819Y-105154449D02*
X212610819Y-105154449D01*
X212610819Y-105154449D02*
X212610819Y-104773497D01*
X212610819Y-104773497D02*
X212658438Y-104678259D01*
X212658438Y-104678259D02*
X212706057Y-104630640D01*
X212706057Y-104630640D02*
X212801295Y-104583021D01*
X212801295Y-104583021D02*
X212944152Y-104583021D01*
X212944152Y-104583021D02*
X213039390Y-104630640D01*
X213039390Y-104630640D02*
X213087009Y-104678259D01*
X213087009Y-104678259D02*
X213134628Y-104773497D01*
X213134628Y-104773497D02*
X213134628Y-105154449D01*
X213610819Y-103392544D02*
X212610819Y-103392544D01*
X212610819Y-103392544D02*
X213325104Y-103059211D01*
X213325104Y-103059211D02*
X212610819Y-102725878D01*
X212610819Y-102725878D02*
X213610819Y-102725878D01*
X212610819Y-102059211D02*
X212610819Y-101868735D01*
X212610819Y-101868735D02*
X212658438Y-101773497D01*
X212658438Y-101773497D02*
X212753676Y-101678259D01*
X212753676Y-101678259D02*
X212944152Y-101630640D01*
X212944152Y-101630640D02*
X213277485Y-101630640D01*
X213277485Y-101630640D02*
X213467961Y-101678259D01*
X213467961Y-101678259D02*
X213563200Y-101773497D01*
X213563200Y-101773497D02*
X213610819Y-101868735D01*
X213610819Y-101868735D02*
X213610819Y-102059211D01*
X213610819Y-102059211D02*
X213563200Y-102154449D01*
X213563200Y-102154449D02*
X213467961Y-102249687D01*
X213467961Y-102249687D02*
X213277485Y-102297306D01*
X213277485Y-102297306D02*
X212944152Y-102297306D01*
X212944152Y-102297306D02*
X212753676Y-102249687D01*
X212753676Y-102249687D02*
X212658438Y-102154449D01*
X212658438Y-102154449D02*
X212610819Y-102059211D01*
X213610819Y-101202068D02*
X212610819Y-101202068D01*
X212610819Y-101202068D02*
X212610819Y-100963973D01*
X212610819Y-100963973D02*
X212658438Y-100821116D01*
X212658438Y-100821116D02*
X212753676Y-100725878D01*
X212753676Y-100725878D02*
X212848914Y-100678259D01*
X212848914Y-100678259D02*
X213039390Y-100630640D01*
X213039390Y-100630640D02*
X213182247Y-100630640D01*
X213182247Y-100630640D02*
X213372723Y-100678259D01*
X213372723Y-100678259D02*
X213467961Y-100725878D01*
X213467961Y-100725878D02*
X213563200Y-100821116D01*
X213563200Y-100821116D02*
X213610819Y-100963973D01*
X213610819Y-100963973D02*
X213610819Y-101202068D01*
X212610819Y-100202068D02*
X213420342Y-100202068D01*
X213420342Y-100202068D02*
X213515580Y-100154449D01*
X213515580Y-100154449D02*
X213563200Y-100106830D01*
X213563200Y-100106830D02*
X213610819Y-100011592D01*
X213610819Y-100011592D02*
X213610819Y-99821116D01*
X213610819Y-99821116D02*
X213563200Y-99725878D01*
X213563200Y-99725878D02*
X213515580Y-99678259D01*
X213515580Y-99678259D02*
X213420342Y-99630640D01*
X213420342Y-99630640D02*
X212610819Y-99630640D01*
X213610819Y-98678259D02*
X213610819Y-99154449D01*
X213610819Y-99154449D02*
X212610819Y-99154449D01*
X213087009Y-98344925D02*
X213087009Y-98011592D01*
X213610819Y-97868735D02*
X213610819Y-98344925D01*
X213610819Y-98344925D02*
X212610819Y-98344925D01*
X212610819Y-98344925D02*
X212610819Y-97868735D01*
X213563200Y-97392544D02*
X213610819Y-97392544D01*
X213610819Y-97392544D02*
X213706057Y-97440163D01*
X213706057Y-97440163D02*
X213753676Y-97487782D01*
X213610819Y-95630640D02*
X213134628Y-95963973D01*
X213610819Y-96202068D02*
X212610819Y-96202068D01*
X212610819Y-96202068D02*
X212610819Y-95821116D01*
X212610819Y-95821116D02*
X212658438Y-95725878D01*
X212658438Y-95725878D02*
X212706057Y-95678259D01*
X212706057Y-95678259D02*
X212801295Y-95630640D01*
X212801295Y-95630640D02*
X212944152Y-95630640D01*
X212944152Y-95630640D02*
X213039390Y-95678259D01*
X213039390Y-95678259D02*
X213087009Y-95725878D01*
X213087009Y-95725878D02*
X213134628Y-95821116D01*
X213134628Y-95821116D02*
X213134628Y-96202068D01*
X213087009Y-95202068D02*
X213087009Y-94868735D01*
X213610819Y-94725878D02*
X213610819Y-95202068D01*
X213610819Y-95202068D02*
X212610819Y-95202068D01*
X212610819Y-95202068D02*
X212610819Y-94725878D01*
X212610819Y-94440163D02*
X213610819Y-94106830D01*
X213610819Y-94106830D02*
X212610819Y-93773497D01*
X213515580Y-93440163D02*
X213563200Y-93392544D01*
X213563200Y-93392544D02*
X213610819Y-93440163D01*
X213610819Y-93440163D02*
X213563200Y-93487782D01*
X213563200Y-93487782D02*
X213515580Y-93440163D01*
X213515580Y-93440163D02*
X213610819Y-93440163D01*
X213087009Y-91868735D02*
X213134628Y-91725878D01*
X213134628Y-91725878D02*
X213182247Y-91678259D01*
X213182247Y-91678259D02*
X213277485Y-91630640D01*
X213277485Y-91630640D02*
X213420342Y-91630640D01*
X213420342Y-91630640D02*
X213515580Y-91678259D01*
X213515580Y-91678259D02*
X213563200Y-91725878D01*
X213563200Y-91725878D02*
X213610819Y-91821116D01*
X213610819Y-91821116D02*
X213610819Y-92202068D01*
X213610819Y-92202068D02*
X212610819Y-92202068D01*
X212610819Y-92202068D02*
X212610819Y-91868735D01*
X212610819Y-91868735D02*
X212658438Y-91773497D01*
X212658438Y-91773497D02*
X212706057Y-91725878D01*
X212706057Y-91725878D02*
X212801295Y-91678259D01*
X212801295Y-91678259D02*
X212896533Y-91678259D01*
X212896533Y-91678259D02*
X212991771Y-91725878D01*
X212991771Y-91725878D02*
X213039390Y-91773497D01*
X213039390Y-91773497D02*
X213087009Y-91868735D01*
X213087009Y-91868735D02*
X213087009Y-92202068D01*
D12*
X42637524Y-90792693D02*
X42637524Y-90221265D01*
X42637524Y-90506979D02*
X43637524Y-90506979D01*
X43637524Y-90506979D02*
X43494667Y-90411741D01*
X43494667Y-90411741D02*
X43399429Y-90316503D01*
X43399429Y-90316503D02*
X43351810Y-90221265D01*
X43208953Y-91364122D02*
X43256572Y-91268884D01*
X43256572Y-91268884D02*
X43304191Y-91221265D01*
X43304191Y-91221265D02*
X43399429Y-91173646D01*
X43399429Y-91173646D02*
X43447048Y-91173646D01*
X43447048Y-91173646D02*
X43542286Y-91221265D01*
X43542286Y-91221265D02*
X43589905Y-91268884D01*
X43589905Y-91268884D02*
X43637524Y-91364122D01*
X43637524Y-91364122D02*
X43637524Y-91554598D01*
X43637524Y-91554598D02*
X43589905Y-91649836D01*
X43589905Y-91649836D02*
X43542286Y-91697455D01*
X43542286Y-91697455D02*
X43447048Y-91745074D01*
X43447048Y-91745074D02*
X43399429Y-91745074D01*
X43399429Y-91745074D02*
X43304191Y-91697455D01*
X43304191Y-91697455D02*
X43256572Y-91649836D01*
X43256572Y-91649836D02*
X43208953Y-91554598D01*
X43208953Y-91554598D02*
X43208953Y-91364122D01*
X43208953Y-91364122D02*
X43161334Y-91268884D01*
X43161334Y-91268884D02*
X43113715Y-91221265D01*
X43113715Y-91221265D02*
X43018477Y-91173646D01*
X43018477Y-91173646D02*
X42828001Y-91173646D01*
X42828001Y-91173646D02*
X42732763Y-91221265D01*
X42732763Y-91221265D02*
X42685144Y-91268884D01*
X42685144Y-91268884D02*
X42637524Y-91364122D01*
X42637524Y-91364122D02*
X42637524Y-91554598D01*
X42637524Y-91554598D02*
X42685144Y-91649836D01*
X42685144Y-91649836D02*
X42732763Y-91697455D01*
X42732763Y-91697455D02*
X42828001Y-91745074D01*
X42828001Y-91745074D02*
X43018477Y-91745074D01*
X43018477Y-91745074D02*
X43113715Y-91697455D01*
X43113715Y-91697455D02*
X43161334Y-91649836D01*
X43161334Y-91649836D02*
X43208953Y-91554598D01*
X43637524Y-92030789D02*
X42637524Y-92364122D01*
X42637524Y-92364122D02*
X43637524Y-92697455D01*
X41408533Y-90268884D02*
X41408533Y-91030789D01*
X41027580Y-90649836D02*
X41789485Y-90649836D01*
X41408533Y-92268884D02*
X41408533Y-93030789D01*
X204474800Y-108770734D02*
X204522419Y-108627877D01*
X204522419Y-108627877D02*
X204522419Y-108389782D01*
X204522419Y-108389782D02*
X204474800Y-108294544D01*
X204474800Y-108294544D02*
X204427180Y-108246925D01*
X204427180Y-108246925D02*
X204331942Y-108199306D01*
X204331942Y-108199306D02*
X204236704Y-108199306D01*
X204236704Y-108199306D02*
X204141466Y-108246925D01*
X204141466Y-108246925D02*
X204093847Y-108294544D01*
X204093847Y-108294544D02*
X204046228Y-108389782D01*
X204046228Y-108389782D02*
X203998609Y-108580258D01*
X203998609Y-108580258D02*
X203950990Y-108675496D01*
X203950990Y-108675496D02*
X203903371Y-108723115D01*
X203903371Y-108723115D02*
X203808133Y-108770734D01*
X203808133Y-108770734D02*
X203712895Y-108770734D01*
X203712895Y-108770734D02*
X203617657Y-108723115D01*
X203617657Y-108723115D02*
X203570038Y-108675496D01*
X203570038Y-108675496D02*
X203522419Y-108580258D01*
X203522419Y-108580258D02*
X203522419Y-108342163D01*
X203522419Y-108342163D02*
X203570038Y-108199306D01*
X203855752Y-107770734D02*
X204855752Y-107770734D01*
X203903371Y-107770734D02*
X203855752Y-107675496D01*
X203855752Y-107675496D02*
X203855752Y-107485020D01*
X203855752Y-107485020D02*
X203903371Y-107389782D01*
X203903371Y-107389782D02*
X203950990Y-107342163D01*
X203950990Y-107342163D02*
X204046228Y-107294544D01*
X204046228Y-107294544D02*
X204331942Y-107294544D01*
X204331942Y-107294544D02*
X204427180Y-107342163D01*
X204427180Y-107342163D02*
X204474800Y-107389782D01*
X204474800Y-107389782D02*
X204522419Y-107485020D01*
X204522419Y-107485020D02*
X204522419Y-107675496D01*
X204522419Y-107675496D02*
X204474800Y-107770734D01*
X204474800Y-106485020D02*
X204522419Y-106580258D01*
X204522419Y-106580258D02*
X204522419Y-106770734D01*
X204522419Y-106770734D02*
X204474800Y-106865972D01*
X204474800Y-106865972D02*
X204379561Y-106913591D01*
X204379561Y-106913591D02*
X203998609Y-106913591D01*
X203998609Y-106913591D02*
X203903371Y-106865972D01*
X203903371Y-106865972D02*
X203855752Y-106770734D01*
X203855752Y-106770734D02*
X203855752Y-106580258D01*
X203855752Y-106580258D02*
X203903371Y-106485020D01*
X203903371Y-106485020D02*
X203998609Y-106437401D01*
X203998609Y-106437401D02*
X204093847Y-106437401D01*
X204093847Y-106437401D02*
X204189085Y-106913591D01*
X204522419Y-105580258D02*
X203998609Y-105580258D01*
X203998609Y-105580258D02*
X203903371Y-105627877D01*
X203903371Y-105627877D02*
X203855752Y-105723115D01*
X203855752Y-105723115D02*
X203855752Y-105913591D01*
X203855752Y-105913591D02*
X203903371Y-106008829D01*
X204474800Y-105580258D02*
X204522419Y-105675496D01*
X204522419Y-105675496D02*
X204522419Y-105913591D01*
X204522419Y-105913591D02*
X204474800Y-106008829D01*
X204474800Y-106008829D02*
X204379561Y-106056448D01*
X204379561Y-106056448D02*
X204284323Y-106056448D01*
X204284323Y-106056448D02*
X204189085Y-106008829D01*
X204189085Y-106008829D02*
X204141466Y-105913591D01*
X204141466Y-105913591D02*
X204141466Y-105675496D01*
X204141466Y-105675496D02*
X204093847Y-105580258D01*
X204522419Y-105104067D02*
X203522419Y-105104067D01*
X204141466Y-105008829D02*
X204522419Y-104723115D01*
X203855752Y-104723115D02*
X204236704Y-105104067D01*
X204474800Y-103913591D02*
X204522419Y-104008829D01*
X204522419Y-104008829D02*
X204522419Y-104199305D01*
X204522419Y-104199305D02*
X204474800Y-104294543D01*
X204474800Y-104294543D02*
X204379561Y-104342162D01*
X204379561Y-104342162D02*
X203998609Y-104342162D01*
X203998609Y-104342162D02*
X203903371Y-104294543D01*
X203903371Y-104294543D02*
X203855752Y-104199305D01*
X203855752Y-104199305D02*
X203855752Y-104008829D01*
X203855752Y-104008829D02*
X203903371Y-103913591D01*
X203903371Y-103913591D02*
X203998609Y-103865972D01*
X203998609Y-103865972D02*
X204093847Y-103865972D01*
X204093847Y-103865972D02*
X204189085Y-104342162D01*
X204522419Y-103437400D02*
X203855752Y-103437400D01*
X204046228Y-103437400D02*
X203950990Y-103389781D01*
X203950990Y-103389781D02*
X203903371Y-103342162D01*
X203903371Y-103342162D02*
X203855752Y-103246924D01*
X203855752Y-103246924D02*
X203855752Y-103151686D01*
X204903371Y-101770733D02*
X204855752Y-101818352D01*
X204855752Y-101818352D02*
X204712895Y-101913590D01*
X204712895Y-101913590D02*
X204617657Y-101961209D01*
X204617657Y-101961209D02*
X204474800Y-102008828D01*
X204474800Y-102008828D02*
X204236704Y-102056447D01*
X204236704Y-102056447D02*
X204046228Y-102056447D01*
X204046228Y-102056447D02*
X203808133Y-102008828D01*
X203808133Y-102008828D02*
X203665276Y-101961209D01*
X203665276Y-101961209D02*
X203570038Y-101913590D01*
X203570038Y-101913590D02*
X203427180Y-101818352D01*
X203427180Y-101818352D02*
X203379561Y-101770733D01*
X203950990Y-101246923D02*
X203903371Y-101342161D01*
X203903371Y-101342161D02*
X203855752Y-101389780D01*
X203855752Y-101389780D02*
X203760514Y-101437399D01*
X203760514Y-101437399D02*
X203712895Y-101437399D01*
X203712895Y-101437399D02*
X203617657Y-101389780D01*
X203617657Y-101389780D02*
X203570038Y-101342161D01*
X203570038Y-101342161D02*
X203522419Y-101246923D01*
X203522419Y-101246923D02*
X203522419Y-101056447D01*
X203522419Y-101056447D02*
X203570038Y-100961209D01*
X203570038Y-100961209D02*
X203617657Y-100913590D01*
X203617657Y-100913590D02*
X203712895Y-100865971D01*
X203712895Y-100865971D02*
X203760514Y-100865971D01*
X203760514Y-100865971D02*
X203855752Y-100913590D01*
X203855752Y-100913590D02*
X203903371Y-100961209D01*
X203903371Y-100961209D02*
X203950990Y-101056447D01*
X203950990Y-101056447D02*
X203950990Y-101246923D01*
X203950990Y-101246923D02*
X203998609Y-101342161D01*
X203998609Y-101342161D02*
X204046228Y-101389780D01*
X204046228Y-101389780D02*
X204141466Y-101437399D01*
X204141466Y-101437399D02*
X204331942Y-101437399D01*
X204331942Y-101437399D02*
X204427180Y-101389780D01*
X204427180Y-101389780D02*
X204474800Y-101342161D01*
X204474800Y-101342161D02*
X204522419Y-101246923D01*
X204522419Y-101246923D02*
X204522419Y-101056447D01*
X204522419Y-101056447D02*
X204474800Y-100961209D01*
X204474800Y-100961209D02*
X204427180Y-100913590D01*
X204427180Y-100913590D02*
X204331942Y-100865971D01*
X204331942Y-100865971D02*
X204141466Y-100865971D01*
X204141466Y-100865971D02*
X204046228Y-100913590D01*
X204046228Y-100913590D02*
X203998609Y-100961209D01*
X203998609Y-100961209D02*
X203950990Y-101056447D01*
X203522419Y-99485018D02*
X203522419Y-99294542D01*
X203522419Y-99294542D02*
X203570038Y-99199304D01*
X203570038Y-99199304D02*
X203665276Y-99104066D01*
X203665276Y-99104066D02*
X203855752Y-99056447D01*
X203855752Y-99056447D02*
X204189085Y-99056447D01*
X204189085Y-99056447D02*
X204379561Y-99104066D01*
X204379561Y-99104066D02*
X204474800Y-99199304D01*
X204474800Y-99199304D02*
X204522419Y-99294542D01*
X204522419Y-99294542D02*
X204522419Y-99485018D01*
X204522419Y-99485018D02*
X204474800Y-99580256D01*
X204474800Y-99580256D02*
X204379561Y-99675494D01*
X204379561Y-99675494D02*
X204189085Y-99723113D01*
X204189085Y-99723113D02*
X203855752Y-99723113D01*
X203855752Y-99723113D02*
X203665276Y-99675494D01*
X203665276Y-99675494D02*
X203570038Y-99580256D01*
X203570038Y-99580256D02*
X203522419Y-99485018D01*
X204522419Y-98627875D02*
X203522419Y-98627875D01*
X204522419Y-98199304D02*
X203998609Y-98199304D01*
X203998609Y-98199304D02*
X203903371Y-98246923D01*
X203903371Y-98246923D02*
X203855752Y-98342161D01*
X203855752Y-98342161D02*
X203855752Y-98485018D01*
X203855752Y-98485018D02*
X203903371Y-98580256D01*
X203903371Y-98580256D02*
X203950990Y-98627875D01*
X204522419Y-97723113D02*
X203855752Y-97723113D01*
X203950990Y-97723113D02*
X203903371Y-97675494D01*
X203903371Y-97675494D02*
X203855752Y-97580256D01*
X203855752Y-97580256D02*
X203855752Y-97437399D01*
X203855752Y-97437399D02*
X203903371Y-97342161D01*
X203903371Y-97342161D02*
X203998609Y-97294542D01*
X203998609Y-97294542D02*
X204522419Y-97294542D01*
X203998609Y-97294542D02*
X203903371Y-97246923D01*
X203903371Y-97246923D02*
X203855752Y-97151685D01*
X203855752Y-97151685D02*
X203855752Y-97008828D01*
X203855752Y-97008828D02*
X203903371Y-96913589D01*
X203903371Y-96913589D02*
X203998609Y-96865970D01*
X203998609Y-96865970D02*
X204522419Y-96865970D01*
X204474800Y-96437399D02*
X204522419Y-96342161D01*
X204522419Y-96342161D02*
X204522419Y-96151685D01*
X204522419Y-96151685D02*
X204474800Y-96056447D01*
X204474800Y-96056447D02*
X204379561Y-96008828D01*
X204379561Y-96008828D02*
X204331942Y-96008828D01*
X204331942Y-96008828D02*
X204236704Y-96056447D01*
X204236704Y-96056447D02*
X204189085Y-96151685D01*
X204189085Y-96151685D02*
X204189085Y-96294542D01*
X204189085Y-96294542D02*
X204141466Y-96389780D01*
X204141466Y-96389780D02*
X204046228Y-96437399D01*
X204046228Y-96437399D02*
X203998609Y-96437399D01*
X203998609Y-96437399D02*
X203903371Y-96389780D01*
X203903371Y-96389780D02*
X203855752Y-96294542D01*
X203855752Y-96294542D02*
X203855752Y-96151685D01*
X203855752Y-96151685D02*
X203903371Y-96056447D01*
X204903371Y-95675494D02*
X204855752Y-95627875D01*
X204855752Y-95627875D02*
X204712895Y-95532637D01*
X204712895Y-95532637D02*
X204617657Y-95485018D01*
X204617657Y-95485018D02*
X204474800Y-95437399D01*
X204474800Y-95437399D02*
X204236704Y-95389780D01*
X204236704Y-95389780D02*
X204046228Y-95389780D01*
X204046228Y-95389780D02*
X203808133Y-95437399D01*
X203808133Y-95437399D02*
X203665276Y-95485018D01*
X203665276Y-95485018D02*
X203570038Y-95532637D01*
X203570038Y-95532637D02*
X203427180Y-95627875D01*
X203427180Y-95627875D02*
X203379561Y-95675494D01*
X42545580Y-117905884D02*
X43545580Y-117905884D01*
X43212247Y-118382074D02*
X42545580Y-118382074D01*
X43117009Y-118382074D02*
X43164628Y-118429693D01*
X43164628Y-118429693D02*
X43212247Y-118524931D01*
X43212247Y-118524931D02*
X43212247Y-118667788D01*
X43212247Y-118667788D02*
X43164628Y-118763026D01*
X43164628Y-118763026D02*
X43069390Y-118810645D01*
X43069390Y-118810645D02*
X42545580Y-118810645D01*
X43212247Y-119286836D02*
X42212247Y-119286836D01*
X43164628Y-119286836D02*
X43212247Y-119382074D01*
X43212247Y-119382074D02*
X43212247Y-119572550D01*
X43212247Y-119572550D02*
X43164628Y-119667788D01*
X43164628Y-119667788D02*
X43117009Y-119715407D01*
X43117009Y-119715407D02*
X43021771Y-119763026D01*
X43021771Y-119763026D02*
X42736057Y-119763026D01*
X42736057Y-119763026D02*
X42640819Y-119715407D01*
X42640819Y-119715407D02*
X42593200Y-119667788D01*
X42593200Y-119667788D02*
X42545580Y-119572550D01*
X42545580Y-119572550D02*
X42545580Y-119382074D01*
X42545580Y-119382074D02*
X42593200Y-119286836D01*
X43212247Y-120620169D02*
X42545580Y-120620169D01*
X43212247Y-120191598D02*
X42688438Y-120191598D01*
X42688438Y-120191598D02*
X42593200Y-120239217D01*
X42593200Y-120239217D02*
X42545580Y-120334455D01*
X42545580Y-120334455D02*
X42545580Y-120477312D01*
X42545580Y-120477312D02*
X42593200Y-120572550D01*
X42593200Y-120572550D02*
X42640819Y-120620169D01*
X43212247Y-120953503D02*
X43212247Y-121334455D01*
X43545580Y-121096360D02*
X42688438Y-121096360D01*
X42688438Y-121096360D02*
X42593200Y-121143979D01*
X42593200Y-121143979D02*
X42545580Y-121239217D01*
X42545580Y-121239217D02*
X42545580Y-121334455D01*
D11*
X73033333Y-125349819D02*
X72700000Y-124873628D01*
X72461905Y-125349819D02*
X72461905Y-124349819D01*
X72461905Y-124349819D02*
X72842857Y-124349819D01*
X72842857Y-124349819D02*
X72938095Y-124397438D01*
X72938095Y-124397438D02*
X72985714Y-124445057D01*
X72985714Y-124445057D02*
X73033333Y-124540295D01*
X73033333Y-124540295D02*
X73033333Y-124683152D01*
X73033333Y-124683152D02*
X72985714Y-124778390D01*
X72985714Y-124778390D02*
X72938095Y-124826009D01*
X72938095Y-124826009D02*
X72842857Y-124873628D01*
X72842857Y-124873628D02*
X72461905Y-124873628D01*
X73604762Y-124778390D02*
X73509524Y-124730771D01*
X73509524Y-124730771D02*
X73461905Y-124683152D01*
X73461905Y-124683152D02*
X73414286Y-124587914D01*
X73414286Y-124587914D02*
X73414286Y-124540295D01*
X73414286Y-124540295D02*
X73461905Y-124445057D01*
X73461905Y-124445057D02*
X73509524Y-124397438D01*
X73509524Y-124397438D02*
X73604762Y-124349819D01*
X73604762Y-124349819D02*
X73795238Y-124349819D01*
X73795238Y-124349819D02*
X73890476Y-124397438D01*
X73890476Y-124397438D02*
X73938095Y-124445057D01*
X73938095Y-124445057D02*
X73985714Y-124540295D01*
X73985714Y-124540295D02*
X73985714Y-124587914D01*
X73985714Y-124587914D02*
X73938095Y-124683152D01*
X73938095Y-124683152D02*
X73890476Y-124730771D01*
X73890476Y-124730771D02*
X73795238Y-124778390D01*
X73795238Y-124778390D02*
X73604762Y-124778390D01*
X73604762Y-124778390D02*
X73509524Y-124826009D01*
X73509524Y-124826009D02*
X73461905Y-124873628D01*
X73461905Y-124873628D02*
X73414286Y-124968866D01*
X73414286Y-124968866D02*
X73414286Y-125159342D01*
X73414286Y-125159342D02*
X73461905Y-125254580D01*
X73461905Y-125254580D02*
X73509524Y-125302200D01*
X73509524Y-125302200D02*
X73604762Y-125349819D01*
X73604762Y-125349819D02*
X73795238Y-125349819D01*
X73795238Y-125349819D02*
X73890476Y-125302200D01*
X73890476Y-125302200D02*
X73938095Y-125254580D01*
X73938095Y-125254580D02*
X73985714Y-125159342D01*
X73985714Y-125159342D02*
X73985714Y-124968866D01*
X73985714Y-124968866D02*
X73938095Y-124873628D01*
X73938095Y-124873628D02*
X73890476Y-124826009D01*
X73890476Y-124826009D02*
X73795238Y-124778390D01*
X98257142Y-86489819D02*
X97923809Y-86013628D01*
X97685714Y-86489819D02*
X97685714Y-85489819D01*
X97685714Y-85489819D02*
X98066666Y-85489819D01*
X98066666Y-85489819D02*
X98161904Y-85537438D01*
X98161904Y-85537438D02*
X98209523Y-85585057D01*
X98209523Y-85585057D02*
X98257142Y-85680295D01*
X98257142Y-85680295D02*
X98257142Y-85823152D01*
X98257142Y-85823152D02*
X98209523Y-85918390D01*
X98209523Y-85918390D02*
X98161904Y-85966009D01*
X98161904Y-85966009D02*
X98066666Y-86013628D01*
X98066666Y-86013628D02*
X97685714Y-86013628D01*
X99209523Y-86489819D02*
X98638095Y-86489819D01*
X98923809Y-86489819D02*
X98923809Y-85489819D01*
X98923809Y-85489819D02*
X98828571Y-85632676D01*
X98828571Y-85632676D02*
X98733333Y-85727914D01*
X98733333Y-85727914D02*
X98638095Y-85775533D01*
X100066666Y-85823152D02*
X100066666Y-86489819D01*
X99828571Y-85442200D02*
X99590476Y-86156485D01*
X99590476Y-86156485D02*
X100209523Y-86156485D01*
X179840095Y-114677819D02*
X180411523Y-114677819D01*
X180125809Y-115677819D02*
X180125809Y-114677819D01*
X180744857Y-115677819D02*
X180744857Y-114677819D01*
X180744857Y-114677819D02*
X181125809Y-114677819D01*
X181125809Y-114677819D02*
X181221047Y-114725438D01*
X181221047Y-114725438D02*
X181268666Y-114773057D01*
X181268666Y-114773057D02*
X181316285Y-114868295D01*
X181316285Y-114868295D02*
X181316285Y-115011152D01*
X181316285Y-115011152D02*
X181268666Y-115106390D01*
X181268666Y-115106390D02*
X181221047Y-115154009D01*
X181221047Y-115154009D02*
X181125809Y-115201628D01*
X181125809Y-115201628D02*
X180744857Y-115201628D01*
X182268666Y-115677819D02*
X181697238Y-115677819D01*
X181982952Y-115677819D02*
X181982952Y-114677819D01*
X181982952Y-114677819D02*
X181887714Y-114820676D01*
X181887714Y-114820676D02*
X181792476Y-114915914D01*
X181792476Y-114915914D02*
X181697238Y-114963533D01*
X75367219Y-88374457D02*
X74891028Y-88707790D01*
X75367219Y-88945885D02*
X74367219Y-88945885D01*
X74367219Y-88945885D02*
X74367219Y-88564933D01*
X74367219Y-88564933D02*
X74414838Y-88469695D01*
X74414838Y-88469695D02*
X74462457Y-88422076D01*
X74462457Y-88422076D02*
X74557695Y-88374457D01*
X74557695Y-88374457D02*
X74700552Y-88374457D01*
X74700552Y-88374457D02*
X74795790Y-88422076D01*
X74795790Y-88422076D02*
X74843409Y-88469695D01*
X74843409Y-88469695D02*
X74891028Y-88564933D01*
X74891028Y-88564933D02*
X74891028Y-88945885D01*
X75367219Y-87422076D02*
X75367219Y-87993504D01*
X75367219Y-87707790D02*
X74367219Y-87707790D01*
X74367219Y-87707790D02*
X74510076Y-87803028D01*
X74510076Y-87803028D02*
X74605314Y-87898266D01*
X74605314Y-87898266D02*
X74652933Y-87993504D01*
X74462457Y-87041123D02*
X74414838Y-86993504D01*
X74414838Y-86993504D02*
X74367219Y-86898266D01*
X74367219Y-86898266D02*
X74367219Y-86660171D01*
X74367219Y-86660171D02*
X74414838Y-86564933D01*
X74414838Y-86564933D02*
X74462457Y-86517314D01*
X74462457Y-86517314D02*
X74557695Y-86469695D01*
X74557695Y-86469695D02*
X74652933Y-86469695D01*
X74652933Y-86469695D02*
X74795790Y-86517314D01*
X74795790Y-86517314D02*
X75367219Y-87088742D01*
X75367219Y-87088742D02*
X75367219Y-86469695D01*
X178332380Y-103176466D02*
X178380000Y-103224085D01*
X178380000Y-103224085D02*
X178427619Y-103366942D01*
X178427619Y-103366942D02*
X178427619Y-103462180D01*
X178427619Y-103462180D02*
X178380000Y-103605037D01*
X178380000Y-103605037D02*
X178284761Y-103700275D01*
X178284761Y-103700275D02*
X178189523Y-103747894D01*
X178189523Y-103747894D02*
X177999047Y-103795513D01*
X177999047Y-103795513D02*
X177856190Y-103795513D01*
X177856190Y-103795513D02*
X177665714Y-103747894D01*
X177665714Y-103747894D02*
X177570476Y-103700275D01*
X177570476Y-103700275D02*
X177475238Y-103605037D01*
X177475238Y-103605037D02*
X177427619Y-103462180D01*
X177427619Y-103462180D02*
X177427619Y-103366942D01*
X177427619Y-103366942D02*
X177475238Y-103224085D01*
X177475238Y-103224085D02*
X177522857Y-103176466D01*
X178427619Y-102224085D02*
X178427619Y-102795513D01*
X178427619Y-102509799D02*
X177427619Y-102509799D01*
X177427619Y-102509799D02*
X177570476Y-102605037D01*
X177570476Y-102605037D02*
X177665714Y-102700275D01*
X177665714Y-102700275D02*
X177713333Y-102795513D01*
X42418095Y-73225819D02*
X42418095Y-72225819D01*
X42418095Y-72702009D02*
X42989523Y-72702009D01*
X42989523Y-73225819D02*
X42989523Y-72225819D01*
X43989523Y-73225819D02*
X43418095Y-73225819D01*
X43703809Y-73225819D02*
X43703809Y-72225819D01*
X43703809Y-72225819D02*
X43608571Y-72368676D01*
X43608571Y-72368676D02*
X43513333Y-72463914D01*
X43513333Y-72463914D02*
X43418095Y-72511533D01*
X41783095Y-129558819D02*
X41783095Y-128558819D01*
X41783095Y-129035009D02*
X42354523Y-129035009D01*
X42354523Y-129558819D02*
X42354523Y-128558819D01*
X42735476Y-128558819D02*
X43354523Y-128558819D01*
X43354523Y-128558819D02*
X43021190Y-128939771D01*
X43021190Y-128939771D02*
X43164047Y-128939771D01*
X43164047Y-128939771D02*
X43259285Y-128987390D01*
X43259285Y-128987390D02*
X43306904Y-129035009D01*
X43306904Y-129035009D02*
X43354523Y-129130247D01*
X43354523Y-129130247D02*
X43354523Y-129368342D01*
X43354523Y-129368342D02*
X43306904Y-129463580D01*
X43306904Y-129463580D02*
X43259285Y-129511200D01*
X43259285Y-129511200D02*
X43164047Y-129558819D01*
X43164047Y-129558819D02*
X42878333Y-129558819D01*
X42878333Y-129558819D02*
X42783095Y-129511200D01*
X42783095Y-129511200D02*
X42735476Y-129463580D01*
X129724819Y-92587857D02*
X129248628Y-92921190D01*
X129724819Y-93159285D02*
X128724819Y-93159285D01*
X128724819Y-93159285D02*
X128724819Y-92778333D01*
X128724819Y-92778333D02*
X128772438Y-92683095D01*
X128772438Y-92683095D02*
X128820057Y-92635476D01*
X128820057Y-92635476D02*
X128915295Y-92587857D01*
X128915295Y-92587857D02*
X129058152Y-92587857D01*
X129058152Y-92587857D02*
X129153390Y-92635476D01*
X129153390Y-92635476D02*
X129201009Y-92683095D01*
X129201009Y-92683095D02*
X129248628Y-92778333D01*
X129248628Y-92778333D02*
X129248628Y-93159285D01*
X129724819Y-91635476D02*
X129724819Y-92206904D01*
X129724819Y-91921190D02*
X128724819Y-91921190D01*
X128724819Y-91921190D02*
X128867676Y-92016428D01*
X128867676Y-92016428D02*
X128962914Y-92111666D01*
X128962914Y-92111666D02*
X129010533Y-92206904D01*
X128724819Y-90730714D02*
X128724819Y-91206904D01*
X128724819Y-91206904D02*
X129201009Y-91254523D01*
X129201009Y-91254523D02*
X129153390Y-91206904D01*
X129153390Y-91206904D02*
X129105771Y-91111666D01*
X129105771Y-91111666D02*
X129105771Y-90873571D01*
X129105771Y-90873571D02*
X129153390Y-90778333D01*
X129153390Y-90778333D02*
X129201009Y-90730714D01*
X129201009Y-90730714D02*
X129296247Y-90683095D01*
X129296247Y-90683095D02*
X129534342Y-90683095D01*
X129534342Y-90683095D02*
X129629580Y-90730714D01*
X129629580Y-90730714D02*
X129677200Y-90778333D01*
X129677200Y-90778333D02*
X129724819Y-90873571D01*
X129724819Y-90873571D02*
X129724819Y-91111666D01*
X129724819Y-91111666D02*
X129677200Y-91206904D01*
X129677200Y-91206904D02*
X129629580Y-91254523D01*
X54714819Y-92098333D02*
X55429104Y-92098333D01*
X55429104Y-92098333D02*
X55571961Y-92145952D01*
X55571961Y-92145952D02*
X55667200Y-92241190D01*
X55667200Y-92241190D02*
X55714819Y-92384047D01*
X55714819Y-92384047D02*
X55714819Y-92479285D01*
X54714819Y-91717380D02*
X54714819Y-91098333D01*
X54714819Y-91098333D02*
X55095771Y-91431666D01*
X55095771Y-91431666D02*
X55095771Y-91288809D01*
X55095771Y-91288809D02*
X55143390Y-91193571D01*
X55143390Y-91193571D02*
X55191009Y-91145952D01*
X55191009Y-91145952D02*
X55286247Y-91098333D01*
X55286247Y-91098333D02*
X55524342Y-91098333D01*
X55524342Y-91098333D02*
X55619580Y-91145952D01*
X55619580Y-91145952D02*
X55667200Y-91193571D01*
X55667200Y-91193571D02*
X55714819Y-91288809D01*
X55714819Y-91288809D02*
X55714819Y-91574523D01*
X55714819Y-91574523D02*
X55667200Y-91669761D01*
X55667200Y-91669761D02*
X55619580Y-91717380D01*
X210058095Y-130066819D02*
X210058095Y-129066819D01*
X210058095Y-129543009D02*
X210629523Y-129543009D01*
X210629523Y-130066819D02*
X210629523Y-129066819D01*
X211534285Y-129400152D02*
X211534285Y-130066819D01*
X211296190Y-129019200D02*
X211058095Y-129733485D01*
X211058095Y-129733485D02*
X211677142Y-129733485D01*
X210058095Y-73479819D02*
X210058095Y-72479819D01*
X210058095Y-72956009D02*
X210629523Y-72956009D01*
X210629523Y-73479819D02*
X210629523Y-72479819D01*
X211058095Y-72575057D02*
X211105714Y-72527438D01*
X211105714Y-72527438D02*
X211200952Y-72479819D01*
X211200952Y-72479819D02*
X211439047Y-72479819D01*
X211439047Y-72479819D02*
X211534285Y-72527438D01*
X211534285Y-72527438D02*
X211581904Y-72575057D01*
X211581904Y-72575057D02*
X211629523Y-72670295D01*
X211629523Y-72670295D02*
X211629523Y-72765533D01*
X211629523Y-72765533D02*
X211581904Y-72908390D01*
X211581904Y-72908390D02*
X211010476Y-73479819D01*
X211010476Y-73479819D02*
X211629523Y-73479819D01*
X130224819Y-115931666D02*
X129748628Y-116264999D01*
X130224819Y-116503094D02*
X129224819Y-116503094D01*
X129224819Y-116503094D02*
X129224819Y-116122142D01*
X129224819Y-116122142D02*
X129272438Y-116026904D01*
X129272438Y-116026904D02*
X129320057Y-115979285D01*
X129320057Y-115979285D02*
X129415295Y-115931666D01*
X129415295Y-115931666D02*
X129558152Y-115931666D01*
X129558152Y-115931666D02*
X129653390Y-115979285D01*
X129653390Y-115979285D02*
X129701009Y-116026904D01*
X129701009Y-116026904D02*
X129748628Y-116122142D01*
X129748628Y-116122142D02*
X129748628Y-116503094D01*
X129224819Y-115598332D02*
X129224819Y-114979285D01*
X129224819Y-114979285D02*
X129605771Y-115312618D01*
X129605771Y-115312618D02*
X129605771Y-115169761D01*
X129605771Y-115169761D02*
X129653390Y-115074523D01*
X129653390Y-115074523D02*
X129701009Y-115026904D01*
X129701009Y-115026904D02*
X129796247Y-114979285D01*
X129796247Y-114979285D02*
X130034342Y-114979285D01*
X130034342Y-114979285D02*
X130129580Y-115026904D01*
X130129580Y-115026904D02*
X130177200Y-115074523D01*
X130177200Y-115074523D02*
X130224819Y-115169761D01*
X130224819Y-115169761D02*
X130224819Y-115455475D01*
X130224819Y-115455475D02*
X130177200Y-115550713D01*
X130177200Y-115550713D02*
X130129580Y-115598332D01*
X50043221Y-123736580D02*
X49995602Y-123784200D01*
X49995602Y-123784200D02*
X49852745Y-123831819D01*
X49852745Y-123831819D02*
X49757507Y-123831819D01*
X49757507Y-123831819D02*
X49614650Y-123784200D01*
X49614650Y-123784200D02*
X49519412Y-123688961D01*
X49519412Y-123688961D02*
X49471793Y-123593723D01*
X49471793Y-123593723D02*
X49424174Y-123403247D01*
X49424174Y-123403247D02*
X49424174Y-123260390D01*
X49424174Y-123260390D02*
X49471793Y-123069914D01*
X49471793Y-123069914D02*
X49519412Y-122974676D01*
X49519412Y-122974676D02*
X49614650Y-122879438D01*
X49614650Y-122879438D02*
X49757507Y-122831819D01*
X49757507Y-122831819D02*
X49852745Y-122831819D01*
X49852745Y-122831819D02*
X49995602Y-122879438D01*
X49995602Y-122879438D02*
X50043221Y-122927057D01*
X50376555Y-122831819D02*
X50995602Y-122831819D01*
X50995602Y-122831819D02*
X50662269Y-123212771D01*
X50662269Y-123212771D02*
X50805126Y-123212771D01*
X50805126Y-123212771D02*
X50900364Y-123260390D01*
X50900364Y-123260390D02*
X50947983Y-123308009D01*
X50947983Y-123308009D02*
X50995602Y-123403247D01*
X50995602Y-123403247D02*
X50995602Y-123641342D01*
X50995602Y-123641342D02*
X50947983Y-123736580D01*
X50947983Y-123736580D02*
X50900364Y-123784200D01*
X50900364Y-123784200D02*
X50805126Y-123831819D01*
X50805126Y-123831819D02*
X50519412Y-123831819D01*
X50519412Y-123831819D02*
X50424174Y-123784200D01*
X50424174Y-123784200D02*
X50376555Y-123736580D01*
X141822057Y-115919238D02*
X141774438Y-116014476D01*
X141774438Y-116014476D02*
X141679200Y-116109714D01*
X141679200Y-116109714D02*
X141536342Y-116252571D01*
X141536342Y-116252571D02*
X141488723Y-116347809D01*
X141488723Y-116347809D02*
X141488723Y-116443047D01*
X141726819Y-116395428D02*
X141679200Y-116490666D01*
X141679200Y-116490666D02*
X141583961Y-116585904D01*
X141583961Y-116585904D02*
X141393485Y-116633523D01*
X141393485Y-116633523D02*
X141060152Y-116633523D01*
X141060152Y-116633523D02*
X140869676Y-116585904D01*
X140869676Y-116585904D02*
X140774438Y-116490666D01*
X140774438Y-116490666D02*
X140726819Y-116395428D01*
X140726819Y-116395428D02*
X140726819Y-116204952D01*
X140726819Y-116204952D02*
X140774438Y-116109714D01*
X140774438Y-116109714D02*
X140869676Y-116014476D01*
X140869676Y-116014476D02*
X141060152Y-115966857D01*
X141060152Y-115966857D02*
X141393485Y-115966857D01*
X141393485Y-115966857D02*
X141583961Y-116014476D01*
X141583961Y-116014476D02*
X141679200Y-116109714D01*
X141679200Y-116109714D02*
X141726819Y-116204952D01*
X141726819Y-116204952D02*
X141726819Y-116395428D01*
X141726819Y-115490666D02*
X141726819Y-115300190D01*
X141726819Y-115300190D02*
X141679200Y-115204952D01*
X141679200Y-115204952D02*
X141631580Y-115157333D01*
X141631580Y-115157333D02*
X141488723Y-115062095D01*
X141488723Y-115062095D02*
X141298247Y-115014476D01*
X141298247Y-115014476D02*
X140917295Y-115014476D01*
X140917295Y-115014476D02*
X140822057Y-115062095D01*
X140822057Y-115062095D02*
X140774438Y-115109714D01*
X140774438Y-115109714D02*
X140726819Y-115204952D01*
X140726819Y-115204952D02*
X140726819Y-115395428D01*
X140726819Y-115395428D02*
X140774438Y-115490666D01*
X140774438Y-115490666D02*
X140822057Y-115538285D01*
X140822057Y-115538285D02*
X140917295Y-115585904D01*
X140917295Y-115585904D02*
X141155390Y-115585904D01*
X141155390Y-115585904D02*
X141250628Y-115538285D01*
X141250628Y-115538285D02*
X141298247Y-115490666D01*
X141298247Y-115490666D02*
X141345866Y-115395428D01*
X141345866Y-115395428D02*
X141345866Y-115204952D01*
X141345866Y-115204952D02*
X141298247Y-115109714D01*
X141298247Y-115109714D02*
X141250628Y-115062095D01*
X141250628Y-115062095D02*
X141155390Y-115014476D01*
X138268819Y-110638066D02*
X137792628Y-110971399D01*
X138268819Y-111209494D02*
X137268819Y-111209494D01*
X137268819Y-111209494D02*
X137268819Y-110828542D01*
X137268819Y-110828542D02*
X137316438Y-110733304D01*
X137316438Y-110733304D02*
X137364057Y-110685685D01*
X137364057Y-110685685D02*
X137459295Y-110638066D01*
X137459295Y-110638066D02*
X137602152Y-110638066D01*
X137602152Y-110638066D02*
X137697390Y-110685685D01*
X137697390Y-110685685D02*
X137745009Y-110733304D01*
X137745009Y-110733304D02*
X137792628Y-110828542D01*
X137792628Y-110828542D02*
X137792628Y-111209494D01*
X137364057Y-110257113D02*
X137316438Y-110209494D01*
X137316438Y-110209494D02*
X137268819Y-110114256D01*
X137268819Y-110114256D02*
X137268819Y-109876161D01*
X137268819Y-109876161D02*
X137316438Y-109780923D01*
X137316438Y-109780923D02*
X137364057Y-109733304D01*
X137364057Y-109733304D02*
X137459295Y-109685685D01*
X137459295Y-109685685D02*
X137554533Y-109685685D01*
X137554533Y-109685685D02*
X137697390Y-109733304D01*
X137697390Y-109733304D02*
X138268819Y-110304732D01*
X138268819Y-110304732D02*
X138268819Y-109685685D01*
X50714133Y-71304380D02*
X50666514Y-71352000D01*
X50666514Y-71352000D02*
X50523657Y-71399619D01*
X50523657Y-71399619D02*
X50428419Y-71399619D01*
X50428419Y-71399619D02*
X50285562Y-71352000D01*
X50285562Y-71352000D02*
X50190324Y-71256761D01*
X50190324Y-71256761D02*
X50142705Y-71161523D01*
X50142705Y-71161523D02*
X50095086Y-70971047D01*
X50095086Y-70971047D02*
X50095086Y-70828190D01*
X50095086Y-70828190D02*
X50142705Y-70637714D01*
X50142705Y-70637714D02*
X50190324Y-70542476D01*
X50190324Y-70542476D02*
X50285562Y-70447238D01*
X50285562Y-70447238D02*
X50428419Y-70399619D01*
X50428419Y-70399619D02*
X50523657Y-70399619D01*
X50523657Y-70399619D02*
X50666514Y-70447238D01*
X50666514Y-70447238D02*
X50714133Y-70494857D01*
X51618895Y-70399619D02*
X51142705Y-70399619D01*
X51142705Y-70399619D02*
X51095086Y-70875809D01*
X51095086Y-70875809D02*
X51142705Y-70828190D01*
X51142705Y-70828190D02*
X51237943Y-70780571D01*
X51237943Y-70780571D02*
X51476038Y-70780571D01*
X51476038Y-70780571D02*
X51571276Y-70828190D01*
X51571276Y-70828190D02*
X51618895Y-70875809D01*
X51618895Y-70875809D02*
X51666514Y-70971047D01*
X51666514Y-70971047D02*
X51666514Y-71209142D01*
X51666514Y-71209142D02*
X51618895Y-71304380D01*
X51618895Y-71304380D02*
X51571276Y-71352000D01*
X51571276Y-71352000D02*
X51476038Y-71399619D01*
X51476038Y-71399619D02*
X51237943Y-71399619D01*
X51237943Y-71399619D02*
X51142705Y-71352000D01*
X51142705Y-71352000D02*
X51095086Y-71304380D01*
X94530057Y-73120238D02*
X94482438Y-73215476D01*
X94482438Y-73215476D02*
X94387200Y-73310714D01*
X94387200Y-73310714D02*
X94244342Y-73453571D01*
X94244342Y-73453571D02*
X94196723Y-73548809D01*
X94196723Y-73548809D02*
X94196723Y-73644047D01*
X94434819Y-73596428D02*
X94387200Y-73691666D01*
X94387200Y-73691666D02*
X94291961Y-73786904D01*
X94291961Y-73786904D02*
X94101485Y-73834523D01*
X94101485Y-73834523D02*
X93768152Y-73834523D01*
X93768152Y-73834523D02*
X93577676Y-73786904D01*
X93577676Y-73786904D02*
X93482438Y-73691666D01*
X93482438Y-73691666D02*
X93434819Y-73596428D01*
X93434819Y-73596428D02*
X93434819Y-73405952D01*
X93434819Y-73405952D02*
X93482438Y-73310714D01*
X93482438Y-73310714D02*
X93577676Y-73215476D01*
X93577676Y-73215476D02*
X93768152Y-73167857D01*
X93768152Y-73167857D02*
X94101485Y-73167857D01*
X94101485Y-73167857D02*
X94291961Y-73215476D01*
X94291961Y-73215476D02*
X94387200Y-73310714D01*
X94387200Y-73310714D02*
X94434819Y-73405952D01*
X94434819Y-73405952D02*
X94434819Y-73596428D01*
X93434819Y-72310714D02*
X93434819Y-72501190D01*
X93434819Y-72501190D02*
X93482438Y-72596428D01*
X93482438Y-72596428D02*
X93530057Y-72644047D01*
X93530057Y-72644047D02*
X93672914Y-72739285D01*
X93672914Y-72739285D02*
X93863390Y-72786904D01*
X93863390Y-72786904D02*
X94244342Y-72786904D01*
X94244342Y-72786904D02*
X94339580Y-72739285D01*
X94339580Y-72739285D02*
X94387200Y-72691666D01*
X94387200Y-72691666D02*
X94434819Y-72596428D01*
X94434819Y-72596428D02*
X94434819Y-72405952D01*
X94434819Y-72405952D02*
X94387200Y-72310714D01*
X94387200Y-72310714D02*
X94339580Y-72263095D01*
X94339580Y-72263095D02*
X94244342Y-72215476D01*
X94244342Y-72215476D02*
X94006247Y-72215476D01*
X94006247Y-72215476D02*
X93911009Y-72263095D01*
X93911009Y-72263095D02*
X93863390Y-72310714D01*
X93863390Y-72310714D02*
X93815771Y-72405952D01*
X93815771Y-72405952D02*
X93815771Y-72596428D01*
X93815771Y-72596428D02*
X93863390Y-72691666D01*
X93863390Y-72691666D02*
X93911009Y-72739285D01*
X93911009Y-72739285D02*
X94006247Y-72786904D01*
X85924819Y-88373094D02*
X84924819Y-88373094D01*
X84924819Y-88373094D02*
X84924819Y-88134999D01*
X84924819Y-88134999D02*
X84972438Y-87992142D01*
X84972438Y-87992142D02*
X85067676Y-87896904D01*
X85067676Y-87896904D02*
X85162914Y-87849285D01*
X85162914Y-87849285D02*
X85353390Y-87801666D01*
X85353390Y-87801666D02*
X85496247Y-87801666D01*
X85496247Y-87801666D02*
X85686723Y-87849285D01*
X85686723Y-87849285D02*
X85781961Y-87896904D01*
X85781961Y-87896904D02*
X85877200Y-87992142D01*
X85877200Y-87992142D02*
X85924819Y-88134999D01*
X85924819Y-88134999D02*
X85924819Y-88373094D01*
X84924819Y-87468332D02*
X84924819Y-86849285D01*
X84924819Y-86849285D02*
X85305771Y-87182618D01*
X85305771Y-87182618D02*
X85305771Y-87039761D01*
X85305771Y-87039761D02*
X85353390Y-86944523D01*
X85353390Y-86944523D02*
X85401009Y-86896904D01*
X85401009Y-86896904D02*
X85496247Y-86849285D01*
X85496247Y-86849285D02*
X85734342Y-86849285D01*
X85734342Y-86849285D02*
X85829580Y-86896904D01*
X85829580Y-86896904D02*
X85877200Y-86944523D01*
X85877200Y-86944523D02*
X85924819Y-87039761D01*
X85924819Y-87039761D02*
X85924819Y-87325475D01*
X85924819Y-87325475D02*
X85877200Y-87420713D01*
X85877200Y-87420713D02*
X85829580Y-87468332D01*
X86154819Y-85326904D02*
X85154819Y-85326904D01*
X86154819Y-84755476D02*
X85583390Y-85184047D01*
X85154819Y-84755476D02*
X85726247Y-85326904D01*
X105059580Y-72331666D02*
X105107200Y-72379285D01*
X105107200Y-72379285D02*
X105154819Y-72522142D01*
X105154819Y-72522142D02*
X105154819Y-72617380D01*
X105154819Y-72617380D02*
X105107200Y-72760237D01*
X105107200Y-72760237D02*
X105011961Y-72855475D01*
X105011961Y-72855475D02*
X104916723Y-72903094D01*
X104916723Y-72903094D02*
X104726247Y-72950713D01*
X104726247Y-72950713D02*
X104583390Y-72950713D01*
X104583390Y-72950713D02*
X104392914Y-72903094D01*
X104392914Y-72903094D02*
X104297676Y-72855475D01*
X104297676Y-72855475D02*
X104202438Y-72760237D01*
X104202438Y-72760237D02*
X104154819Y-72617380D01*
X104154819Y-72617380D02*
X104154819Y-72522142D01*
X104154819Y-72522142D02*
X104202438Y-72379285D01*
X104202438Y-72379285D02*
X104250057Y-72331666D01*
X104154819Y-71474523D02*
X104154819Y-71664999D01*
X104154819Y-71664999D02*
X104202438Y-71760237D01*
X104202438Y-71760237D02*
X104250057Y-71807856D01*
X104250057Y-71807856D02*
X104392914Y-71903094D01*
X104392914Y-71903094D02*
X104583390Y-71950713D01*
X104583390Y-71950713D02*
X104964342Y-71950713D01*
X104964342Y-71950713D02*
X105059580Y-71903094D01*
X105059580Y-71903094D02*
X105107200Y-71855475D01*
X105107200Y-71855475D02*
X105154819Y-71760237D01*
X105154819Y-71760237D02*
X105154819Y-71569761D01*
X105154819Y-71569761D02*
X105107200Y-71474523D01*
X105107200Y-71474523D02*
X105059580Y-71426904D01*
X105059580Y-71426904D02*
X104964342Y-71379285D01*
X104964342Y-71379285D02*
X104726247Y-71379285D01*
X104726247Y-71379285D02*
X104631009Y-71426904D01*
X104631009Y-71426904D02*
X104583390Y-71474523D01*
X104583390Y-71474523D02*
X104535771Y-71569761D01*
X104535771Y-71569761D02*
X104535771Y-71760237D01*
X104535771Y-71760237D02*
X104583390Y-71855475D01*
X104583390Y-71855475D02*
X104631009Y-71903094D01*
X104631009Y-71903094D02*
X104726247Y-71950713D01*
X56357142Y-85089819D02*
X56023809Y-84613628D01*
X55785714Y-85089819D02*
X55785714Y-84089819D01*
X55785714Y-84089819D02*
X56166666Y-84089819D01*
X56166666Y-84089819D02*
X56261904Y-84137438D01*
X56261904Y-84137438D02*
X56309523Y-84185057D01*
X56309523Y-84185057D02*
X56357142Y-84280295D01*
X56357142Y-84280295D02*
X56357142Y-84423152D01*
X56357142Y-84423152D02*
X56309523Y-84518390D01*
X56309523Y-84518390D02*
X56261904Y-84566009D01*
X56261904Y-84566009D02*
X56166666Y-84613628D01*
X56166666Y-84613628D02*
X55785714Y-84613628D01*
X57309523Y-85089819D02*
X56738095Y-85089819D01*
X57023809Y-85089819D02*
X57023809Y-84089819D01*
X57023809Y-84089819D02*
X56928571Y-84232676D01*
X56928571Y-84232676D02*
X56833333Y-84327914D01*
X56833333Y-84327914D02*
X56738095Y-84375533D01*
X57928571Y-84089819D02*
X58023809Y-84089819D01*
X58023809Y-84089819D02*
X58119047Y-84137438D01*
X58119047Y-84137438D02*
X58166666Y-84185057D01*
X58166666Y-84185057D02*
X58214285Y-84280295D01*
X58214285Y-84280295D02*
X58261904Y-84470771D01*
X58261904Y-84470771D02*
X58261904Y-84708866D01*
X58261904Y-84708866D02*
X58214285Y-84899342D01*
X58214285Y-84899342D02*
X58166666Y-84994580D01*
X58166666Y-84994580D02*
X58119047Y-85042200D01*
X58119047Y-85042200D02*
X58023809Y-85089819D01*
X58023809Y-85089819D02*
X57928571Y-85089819D01*
X57928571Y-85089819D02*
X57833333Y-85042200D01*
X57833333Y-85042200D02*
X57785714Y-84994580D01*
X57785714Y-84994580D02*
X57738095Y-84899342D01*
X57738095Y-84899342D02*
X57690476Y-84708866D01*
X57690476Y-84708866D02*
X57690476Y-84470771D01*
X57690476Y-84470771D02*
X57738095Y-84280295D01*
X57738095Y-84280295D02*
X57785714Y-84185057D01*
X57785714Y-84185057D02*
X57833333Y-84137438D01*
X57833333Y-84137438D02*
X57928571Y-84089819D01*
X176064057Y-126333238D02*
X176016438Y-126428476D01*
X176016438Y-126428476D02*
X175921200Y-126523714D01*
X175921200Y-126523714D02*
X175778342Y-126666571D01*
X175778342Y-126666571D02*
X175730723Y-126761809D01*
X175730723Y-126761809D02*
X175730723Y-126857047D01*
X175968819Y-126809428D02*
X175921200Y-126904666D01*
X175921200Y-126904666D02*
X175825961Y-126999904D01*
X175825961Y-126999904D02*
X175635485Y-127047523D01*
X175635485Y-127047523D02*
X175302152Y-127047523D01*
X175302152Y-127047523D02*
X175111676Y-126999904D01*
X175111676Y-126999904D02*
X175016438Y-126904666D01*
X175016438Y-126904666D02*
X174968819Y-126809428D01*
X174968819Y-126809428D02*
X174968819Y-126618952D01*
X174968819Y-126618952D02*
X175016438Y-126523714D01*
X175016438Y-126523714D02*
X175111676Y-126428476D01*
X175111676Y-126428476D02*
X175302152Y-126380857D01*
X175302152Y-126380857D02*
X175635485Y-126380857D01*
X175635485Y-126380857D02*
X175825961Y-126428476D01*
X175825961Y-126428476D02*
X175921200Y-126523714D01*
X175921200Y-126523714D02*
X175968819Y-126618952D01*
X175968819Y-126618952D02*
X175968819Y-126809428D01*
X174968819Y-125476095D02*
X174968819Y-125952285D01*
X174968819Y-125952285D02*
X175445009Y-125999904D01*
X175445009Y-125999904D02*
X175397390Y-125952285D01*
X175397390Y-125952285D02*
X175349771Y-125857047D01*
X175349771Y-125857047D02*
X175349771Y-125618952D01*
X175349771Y-125618952D02*
X175397390Y-125523714D01*
X175397390Y-125523714D02*
X175445009Y-125476095D01*
X175445009Y-125476095D02*
X175540247Y-125428476D01*
X175540247Y-125428476D02*
X175778342Y-125428476D01*
X175778342Y-125428476D02*
X175873580Y-125476095D01*
X175873580Y-125476095D02*
X175921200Y-125523714D01*
X175921200Y-125523714D02*
X175968819Y-125618952D01*
X175968819Y-125618952D02*
X175968819Y-125857047D01*
X175968819Y-125857047D02*
X175921200Y-125952285D01*
X175921200Y-125952285D02*
X175873580Y-125999904D01*
X110509580Y-125731666D02*
X110557200Y-125779285D01*
X110557200Y-125779285D02*
X110604819Y-125922142D01*
X110604819Y-125922142D02*
X110604819Y-126017380D01*
X110604819Y-126017380D02*
X110557200Y-126160237D01*
X110557200Y-126160237D02*
X110461961Y-126255475D01*
X110461961Y-126255475D02*
X110366723Y-126303094D01*
X110366723Y-126303094D02*
X110176247Y-126350713D01*
X110176247Y-126350713D02*
X110033390Y-126350713D01*
X110033390Y-126350713D02*
X109842914Y-126303094D01*
X109842914Y-126303094D02*
X109747676Y-126255475D01*
X109747676Y-126255475D02*
X109652438Y-126160237D01*
X109652438Y-126160237D02*
X109604819Y-126017380D01*
X109604819Y-126017380D02*
X109604819Y-125922142D01*
X109604819Y-125922142D02*
X109652438Y-125779285D01*
X109652438Y-125779285D02*
X109700057Y-125731666D01*
X109938152Y-124874523D02*
X110604819Y-124874523D01*
X109557200Y-125112618D02*
X110271485Y-125350713D01*
X110271485Y-125350713D02*
X110271485Y-124731666D01*
X62833333Y-135289819D02*
X62500000Y-134813628D01*
X62261905Y-135289819D02*
X62261905Y-134289819D01*
X62261905Y-134289819D02*
X62642857Y-134289819D01*
X62642857Y-134289819D02*
X62738095Y-134337438D01*
X62738095Y-134337438D02*
X62785714Y-134385057D01*
X62785714Y-134385057D02*
X62833333Y-134480295D01*
X62833333Y-134480295D02*
X62833333Y-134623152D01*
X62833333Y-134623152D02*
X62785714Y-134718390D01*
X62785714Y-134718390D02*
X62738095Y-134766009D01*
X62738095Y-134766009D02*
X62642857Y-134813628D01*
X62642857Y-134813628D02*
X62261905Y-134813628D01*
X63690476Y-134289819D02*
X63500000Y-134289819D01*
X63500000Y-134289819D02*
X63404762Y-134337438D01*
X63404762Y-134337438D02*
X63357143Y-134385057D01*
X63357143Y-134385057D02*
X63261905Y-134527914D01*
X63261905Y-134527914D02*
X63214286Y-134718390D01*
X63214286Y-134718390D02*
X63214286Y-135099342D01*
X63214286Y-135099342D02*
X63261905Y-135194580D01*
X63261905Y-135194580D02*
X63309524Y-135242200D01*
X63309524Y-135242200D02*
X63404762Y-135289819D01*
X63404762Y-135289819D02*
X63595238Y-135289819D01*
X63595238Y-135289819D02*
X63690476Y-135242200D01*
X63690476Y-135242200D02*
X63738095Y-135194580D01*
X63738095Y-135194580D02*
X63785714Y-135099342D01*
X63785714Y-135099342D02*
X63785714Y-134861247D01*
X63785714Y-134861247D02*
X63738095Y-134766009D01*
X63738095Y-134766009D02*
X63690476Y-134718390D01*
X63690476Y-134718390D02*
X63595238Y-134670771D01*
X63595238Y-134670771D02*
X63404762Y-134670771D01*
X63404762Y-134670771D02*
X63309524Y-134718390D01*
X63309524Y-134718390D02*
X63261905Y-134766009D01*
X63261905Y-134766009D02*
X63214286Y-134861247D01*
X175683057Y-81343428D02*
X175635438Y-81438666D01*
X175635438Y-81438666D02*
X175540200Y-81533904D01*
X175540200Y-81533904D02*
X175397342Y-81676761D01*
X175397342Y-81676761D02*
X175349723Y-81771999D01*
X175349723Y-81771999D02*
X175349723Y-81867237D01*
X175587819Y-81819618D02*
X175540200Y-81914856D01*
X175540200Y-81914856D02*
X175444961Y-82010094D01*
X175444961Y-82010094D02*
X175254485Y-82057713D01*
X175254485Y-82057713D02*
X174921152Y-82057713D01*
X174921152Y-82057713D02*
X174730676Y-82010094D01*
X174730676Y-82010094D02*
X174635438Y-81914856D01*
X174635438Y-81914856D02*
X174587819Y-81819618D01*
X174587819Y-81819618D02*
X174587819Y-81629142D01*
X174587819Y-81629142D02*
X174635438Y-81533904D01*
X174635438Y-81533904D02*
X174730676Y-81438666D01*
X174730676Y-81438666D02*
X174921152Y-81391047D01*
X174921152Y-81391047D02*
X175254485Y-81391047D01*
X175254485Y-81391047D02*
X175444961Y-81438666D01*
X175444961Y-81438666D02*
X175540200Y-81533904D01*
X175540200Y-81533904D02*
X175587819Y-81629142D01*
X175587819Y-81629142D02*
X175587819Y-81819618D01*
X175587819Y-80438666D02*
X175587819Y-81010094D01*
X175587819Y-80724380D02*
X174587819Y-80724380D01*
X174587819Y-80724380D02*
X174730676Y-80819618D01*
X174730676Y-80819618D02*
X174825914Y-80914856D01*
X174825914Y-80914856D02*
X174873533Y-81010094D01*
X174587819Y-79819618D02*
X174587819Y-79724380D01*
X174587819Y-79724380D02*
X174635438Y-79629142D01*
X174635438Y-79629142D02*
X174683057Y-79581523D01*
X174683057Y-79581523D02*
X174778295Y-79533904D01*
X174778295Y-79533904D02*
X174968771Y-79486285D01*
X174968771Y-79486285D02*
X175206866Y-79486285D01*
X175206866Y-79486285D02*
X175397342Y-79533904D01*
X175397342Y-79533904D02*
X175492580Y-79581523D01*
X175492580Y-79581523D02*
X175540200Y-79629142D01*
X175540200Y-79629142D02*
X175587819Y-79724380D01*
X175587819Y-79724380D02*
X175587819Y-79819618D01*
X175587819Y-79819618D02*
X175540200Y-79914856D01*
X175540200Y-79914856D02*
X175492580Y-79962475D01*
X175492580Y-79962475D02*
X175397342Y-80010094D01*
X175397342Y-80010094D02*
X175206866Y-80057713D01*
X175206866Y-80057713D02*
X174968771Y-80057713D01*
X174968771Y-80057713D02*
X174778295Y-80010094D01*
X174778295Y-80010094D02*
X174683057Y-79962475D01*
X174683057Y-79962475D02*
X174635438Y-79914856D01*
X174635438Y-79914856D02*
X174587819Y-79819618D01*
X64569219Y-73635238D02*
X64093028Y-73968571D01*
X64569219Y-74206666D02*
X63569219Y-74206666D01*
X63569219Y-74206666D02*
X63569219Y-73825714D01*
X63569219Y-73825714D02*
X63616838Y-73730476D01*
X63616838Y-73730476D02*
X63664457Y-73682857D01*
X63664457Y-73682857D02*
X63759695Y-73635238D01*
X63759695Y-73635238D02*
X63902552Y-73635238D01*
X63902552Y-73635238D02*
X63997790Y-73682857D01*
X63997790Y-73682857D02*
X64045409Y-73730476D01*
X64045409Y-73730476D02*
X64093028Y-73825714D01*
X64093028Y-73825714D02*
X64093028Y-74206666D01*
X63569219Y-73349523D02*
X64569219Y-73016190D01*
X64569219Y-73016190D02*
X63569219Y-72682857D01*
X64569219Y-71825714D02*
X64569219Y-72397142D01*
X64569219Y-72111428D02*
X63569219Y-72111428D01*
X63569219Y-72111428D02*
X63712076Y-72206666D01*
X63712076Y-72206666D02*
X63807314Y-72301904D01*
X63807314Y-72301904D02*
X63854933Y-72397142D01*
X185731580Y-103123666D02*
X185779200Y-103171285D01*
X185779200Y-103171285D02*
X185826819Y-103314142D01*
X185826819Y-103314142D02*
X185826819Y-103409380D01*
X185826819Y-103409380D02*
X185779200Y-103552237D01*
X185779200Y-103552237D02*
X185683961Y-103647475D01*
X185683961Y-103647475D02*
X185588723Y-103695094D01*
X185588723Y-103695094D02*
X185398247Y-103742713D01*
X185398247Y-103742713D02*
X185255390Y-103742713D01*
X185255390Y-103742713D02*
X185064914Y-103695094D01*
X185064914Y-103695094D02*
X184969676Y-103647475D01*
X184969676Y-103647475D02*
X184874438Y-103552237D01*
X184874438Y-103552237D02*
X184826819Y-103409380D01*
X184826819Y-103409380D02*
X184826819Y-103314142D01*
X184826819Y-103314142D02*
X184874438Y-103171285D01*
X184874438Y-103171285D02*
X184922057Y-103123666D01*
X184826819Y-102790332D02*
X184826819Y-102123666D01*
X184826819Y-102123666D02*
X185826819Y-102552237D01*
X133951742Y-74191019D02*
X133618409Y-73714828D01*
X133380314Y-74191019D02*
X133380314Y-73191019D01*
X133380314Y-73191019D02*
X133761266Y-73191019D01*
X133761266Y-73191019D02*
X133856504Y-73238638D01*
X133856504Y-73238638D02*
X133904123Y-73286257D01*
X133904123Y-73286257D02*
X133951742Y-73381495D01*
X133951742Y-73381495D02*
X133951742Y-73524352D01*
X133951742Y-73524352D02*
X133904123Y-73619590D01*
X133904123Y-73619590D02*
X133856504Y-73667209D01*
X133856504Y-73667209D02*
X133761266Y-73714828D01*
X133761266Y-73714828D02*
X133380314Y-73714828D01*
X134904123Y-74191019D02*
X134332695Y-74191019D01*
X134618409Y-74191019D02*
X134618409Y-73191019D01*
X134618409Y-73191019D02*
X134523171Y-73333876D01*
X134523171Y-73333876D02*
X134427933Y-73429114D01*
X134427933Y-73429114D02*
X134332695Y-73476733D01*
X135761266Y-73191019D02*
X135570790Y-73191019D01*
X135570790Y-73191019D02*
X135475552Y-73238638D01*
X135475552Y-73238638D02*
X135427933Y-73286257D01*
X135427933Y-73286257D02*
X135332695Y-73429114D01*
X135332695Y-73429114D02*
X135285076Y-73619590D01*
X135285076Y-73619590D02*
X135285076Y-74000542D01*
X135285076Y-74000542D02*
X135332695Y-74095780D01*
X135332695Y-74095780D02*
X135380314Y-74143400D01*
X135380314Y-74143400D02*
X135475552Y-74191019D01*
X135475552Y-74191019D02*
X135666028Y-74191019D01*
X135666028Y-74191019D02*
X135761266Y-74143400D01*
X135761266Y-74143400D02*
X135808885Y-74095780D01*
X135808885Y-74095780D02*
X135856504Y-74000542D01*
X135856504Y-74000542D02*
X135856504Y-73762447D01*
X135856504Y-73762447D02*
X135808885Y-73667209D01*
X135808885Y-73667209D02*
X135761266Y-73619590D01*
X135761266Y-73619590D02*
X135666028Y-73571971D01*
X135666028Y-73571971D02*
X135475552Y-73571971D01*
X135475552Y-73571971D02*
X135380314Y-73619590D01*
X135380314Y-73619590D02*
X135332695Y-73667209D01*
X135332695Y-73667209D02*
X135285076Y-73762447D01*
X80284819Y-118233094D02*
X79284819Y-118233094D01*
X79284819Y-118233094D02*
X79284819Y-117994999D01*
X79284819Y-117994999D02*
X79332438Y-117852142D01*
X79332438Y-117852142D02*
X79427676Y-117756904D01*
X79427676Y-117756904D02*
X79522914Y-117709285D01*
X79522914Y-117709285D02*
X79713390Y-117661666D01*
X79713390Y-117661666D02*
X79856247Y-117661666D01*
X79856247Y-117661666D02*
X80046723Y-117709285D01*
X80046723Y-117709285D02*
X80141961Y-117756904D01*
X80141961Y-117756904D02*
X80237200Y-117852142D01*
X80237200Y-117852142D02*
X80284819Y-117994999D01*
X80284819Y-117994999D02*
X80284819Y-118233094D01*
X80284819Y-116709285D02*
X80284819Y-117280713D01*
X80284819Y-116994999D02*
X79284819Y-116994999D01*
X79284819Y-116994999D02*
X79427676Y-117090237D01*
X79427676Y-117090237D02*
X79522914Y-117185475D01*
X79522914Y-117185475D02*
X79570533Y-117280713D01*
X80154819Y-120826904D02*
X79154819Y-120826904D01*
X80154819Y-120255476D02*
X79583390Y-120684047D01*
X79154819Y-120255476D02*
X79726247Y-120826904D01*
X120033333Y-129989819D02*
X119700000Y-129513628D01*
X119461905Y-129989819D02*
X119461905Y-128989819D01*
X119461905Y-128989819D02*
X119842857Y-128989819D01*
X119842857Y-128989819D02*
X119938095Y-129037438D01*
X119938095Y-129037438D02*
X119985714Y-129085057D01*
X119985714Y-129085057D02*
X120033333Y-129180295D01*
X120033333Y-129180295D02*
X120033333Y-129323152D01*
X120033333Y-129323152D02*
X119985714Y-129418390D01*
X119985714Y-129418390D02*
X119938095Y-129466009D01*
X119938095Y-129466009D02*
X119842857Y-129513628D01*
X119842857Y-129513628D02*
X119461905Y-129513628D01*
X120509524Y-129989819D02*
X120700000Y-129989819D01*
X120700000Y-129989819D02*
X120795238Y-129942200D01*
X120795238Y-129942200D02*
X120842857Y-129894580D01*
X120842857Y-129894580D02*
X120938095Y-129751723D01*
X120938095Y-129751723D02*
X120985714Y-129561247D01*
X120985714Y-129561247D02*
X120985714Y-129180295D01*
X120985714Y-129180295D02*
X120938095Y-129085057D01*
X120938095Y-129085057D02*
X120890476Y-129037438D01*
X120890476Y-129037438D02*
X120795238Y-128989819D01*
X120795238Y-128989819D02*
X120604762Y-128989819D01*
X120604762Y-128989819D02*
X120509524Y-129037438D01*
X120509524Y-129037438D02*
X120461905Y-129085057D01*
X120461905Y-129085057D02*
X120414286Y-129180295D01*
X120414286Y-129180295D02*
X120414286Y-129418390D01*
X120414286Y-129418390D02*
X120461905Y-129513628D01*
X120461905Y-129513628D02*
X120509524Y-129561247D01*
X120509524Y-129561247D02*
X120604762Y-129608866D01*
X120604762Y-129608866D02*
X120795238Y-129608866D01*
X120795238Y-129608866D02*
X120890476Y-129561247D01*
X120890476Y-129561247D02*
X120938095Y-129513628D01*
X120938095Y-129513628D02*
X120985714Y-129418390D01*
X190349819Y-102060333D02*
X191064104Y-102060333D01*
X191064104Y-102060333D02*
X191206961Y-102107952D01*
X191206961Y-102107952D02*
X191302200Y-102203190D01*
X191302200Y-102203190D02*
X191349819Y-102346047D01*
X191349819Y-102346047D02*
X191349819Y-102441285D01*
X191349819Y-101060333D02*
X191349819Y-101631761D01*
X191349819Y-101346047D02*
X190349819Y-101346047D01*
X190349819Y-101346047D02*
X190492676Y-101441285D01*
X190492676Y-101441285D02*
X190587914Y-101536523D01*
X190587914Y-101536523D02*
X190635533Y-101631761D01*
X109632761Y-83735057D02*
X109537523Y-83687438D01*
X109537523Y-83687438D02*
X109442285Y-83592200D01*
X109442285Y-83592200D02*
X109299428Y-83449342D01*
X109299428Y-83449342D02*
X109204190Y-83401723D01*
X109204190Y-83401723D02*
X109108952Y-83401723D01*
X109156571Y-83639819D02*
X109061333Y-83592200D01*
X109061333Y-83592200D02*
X108966095Y-83496961D01*
X108966095Y-83496961D02*
X108918476Y-83306485D01*
X108918476Y-83306485D02*
X108918476Y-82973152D01*
X108918476Y-82973152D02*
X108966095Y-82782676D01*
X108966095Y-82782676D02*
X109061333Y-82687438D01*
X109061333Y-82687438D02*
X109156571Y-82639819D01*
X109156571Y-82639819D02*
X109347047Y-82639819D01*
X109347047Y-82639819D02*
X109442285Y-82687438D01*
X109442285Y-82687438D02*
X109537523Y-82782676D01*
X109537523Y-82782676D02*
X109585142Y-82973152D01*
X109585142Y-82973152D02*
X109585142Y-83306485D01*
X109585142Y-83306485D02*
X109537523Y-83496961D01*
X109537523Y-83496961D02*
X109442285Y-83592200D01*
X109442285Y-83592200D02*
X109347047Y-83639819D01*
X109347047Y-83639819D02*
X109156571Y-83639819D01*
X110156571Y-83068390D02*
X110061333Y-83020771D01*
X110061333Y-83020771D02*
X110013714Y-82973152D01*
X110013714Y-82973152D02*
X109966095Y-82877914D01*
X109966095Y-82877914D02*
X109966095Y-82830295D01*
X109966095Y-82830295D02*
X110013714Y-82735057D01*
X110013714Y-82735057D02*
X110061333Y-82687438D01*
X110061333Y-82687438D02*
X110156571Y-82639819D01*
X110156571Y-82639819D02*
X110347047Y-82639819D01*
X110347047Y-82639819D02*
X110442285Y-82687438D01*
X110442285Y-82687438D02*
X110489904Y-82735057D01*
X110489904Y-82735057D02*
X110537523Y-82830295D01*
X110537523Y-82830295D02*
X110537523Y-82877914D01*
X110537523Y-82877914D02*
X110489904Y-82973152D01*
X110489904Y-82973152D02*
X110442285Y-83020771D01*
X110442285Y-83020771D02*
X110347047Y-83068390D01*
X110347047Y-83068390D02*
X110156571Y-83068390D01*
X110156571Y-83068390D02*
X110061333Y-83116009D01*
X110061333Y-83116009D02*
X110013714Y-83163628D01*
X110013714Y-83163628D02*
X109966095Y-83258866D01*
X109966095Y-83258866D02*
X109966095Y-83449342D01*
X109966095Y-83449342D02*
X110013714Y-83544580D01*
X110013714Y-83544580D02*
X110061333Y-83592200D01*
X110061333Y-83592200D02*
X110156571Y-83639819D01*
X110156571Y-83639819D02*
X110347047Y-83639819D01*
X110347047Y-83639819D02*
X110442285Y-83592200D01*
X110442285Y-83592200D02*
X110489904Y-83544580D01*
X110489904Y-83544580D02*
X110537523Y-83449342D01*
X110537523Y-83449342D02*
X110537523Y-83258866D01*
X110537523Y-83258866D02*
X110489904Y-83163628D01*
X110489904Y-83163628D02*
X110442285Y-83116009D01*
X110442285Y-83116009D02*
X110347047Y-83068390D01*
X119684819Y-73607857D02*
X119208628Y-73941190D01*
X119684819Y-74179285D02*
X118684819Y-74179285D01*
X118684819Y-74179285D02*
X118684819Y-73798333D01*
X118684819Y-73798333D02*
X118732438Y-73703095D01*
X118732438Y-73703095D02*
X118780057Y-73655476D01*
X118780057Y-73655476D02*
X118875295Y-73607857D01*
X118875295Y-73607857D02*
X119018152Y-73607857D01*
X119018152Y-73607857D02*
X119113390Y-73655476D01*
X119113390Y-73655476D02*
X119161009Y-73703095D01*
X119161009Y-73703095D02*
X119208628Y-73798333D01*
X119208628Y-73798333D02*
X119208628Y-74179285D01*
X119684819Y-72655476D02*
X119684819Y-73226904D01*
X119684819Y-72941190D02*
X118684819Y-72941190D01*
X118684819Y-72941190D02*
X118827676Y-73036428D01*
X118827676Y-73036428D02*
X118922914Y-73131666D01*
X118922914Y-73131666D02*
X118970533Y-73226904D01*
X119113390Y-72084047D02*
X119065771Y-72179285D01*
X119065771Y-72179285D02*
X119018152Y-72226904D01*
X119018152Y-72226904D02*
X118922914Y-72274523D01*
X118922914Y-72274523D02*
X118875295Y-72274523D01*
X118875295Y-72274523D02*
X118780057Y-72226904D01*
X118780057Y-72226904D02*
X118732438Y-72179285D01*
X118732438Y-72179285D02*
X118684819Y-72084047D01*
X118684819Y-72084047D02*
X118684819Y-71893571D01*
X118684819Y-71893571D02*
X118732438Y-71798333D01*
X118732438Y-71798333D02*
X118780057Y-71750714D01*
X118780057Y-71750714D02*
X118875295Y-71703095D01*
X118875295Y-71703095D02*
X118922914Y-71703095D01*
X118922914Y-71703095D02*
X119018152Y-71750714D01*
X119018152Y-71750714D02*
X119065771Y-71798333D01*
X119065771Y-71798333D02*
X119113390Y-71893571D01*
X119113390Y-71893571D02*
X119113390Y-72084047D01*
X119113390Y-72084047D02*
X119161009Y-72179285D01*
X119161009Y-72179285D02*
X119208628Y-72226904D01*
X119208628Y-72226904D02*
X119303866Y-72274523D01*
X119303866Y-72274523D02*
X119494342Y-72274523D01*
X119494342Y-72274523D02*
X119589580Y-72226904D01*
X119589580Y-72226904D02*
X119637200Y-72179285D01*
X119637200Y-72179285D02*
X119684819Y-72084047D01*
X119684819Y-72084047D02*
X119684819Y-71893571D01*
X119684819Y-71893571D02*
X119637200Y-71798333D01*
X119637200Y-71798333D02*
X119589580Y-71750714D01*
X119589580Y-71750714D02*
X119494342Y-71703095D01*
X119494342Y-71703095D02*
X119303866Y-71703095D01*
X119303866Y-71703095D02*
X119208628Y-71750714D01*
X119208628Y-71750714D02*
X119161009Y-71798333D01*
X119161009Y-71798333D02*
X119113390Y-71893571D01*
X64739819Y-116860238D02*
X64263628Y-117193571D01*
X64739819Y-117431666D02*
X63739819Y-117431666D01*
X63739819Y-117431666D02*
X63739819Y-117050714D01*
X63739819Y-117050714D02*
X63787438Y-116955476D01*
X63787438Y-116955476D02*
X63835057Y-116907857D01*
X63835057Y-116907857D02*
X63930295Y-116860238D01*
X63930295Y-116860238D02*
X64073152Y-116860238D01*
X64073152Y-116860238D02*
X64168390Y-116907857D01*
X64168390Y-116907857D02*
X64216009Y-116955476D01*
X64216009Y-116955476D02*
X64263628Y-117050714D01*
X64263628Y-117050714D02*
X64263628Y-117431666D01*
X63739819Y-116574523D02*
X64739819Y-116241190D01*
X64739819Y-116241190D02*
X63739819Y-115907857D01*
X63835057Y-115622142D02*
X63787438Y-115574523D01*
X63787438Y-115574523D02*
X63739819Y-115479285D01*
X63739819Y-115479285D02*
X63739819Y-115241190D01*
X63739819Y-115241190D02*
X63787438Y-115145952D01*
X63787438Y-115145952D02*
X63835057Y-115098333D01*
X63835057Y-115098333D02*
X63930295Y-115050714D01*
X63930295Y-115050714D02*
X64025533Y-115050714D01*
X64025533Y-115050714D02*
X64168390Y-115098333D01*
X64168390Y-115098333D02*
X64739819Y-115669761D01*
X64739819Y-115669761D02*
X64739819Y-115050714D01*
X100762057Y-109188238D02*
X100714438Y-109283476D01*
X100714438Y-109283476D02*
X100619200Y-109378714D01*
X100619200Y-109378714D02*
X100476342Y-109521571D01*
X100476342Y-109521571D02*
X100428723Y-109616809D01*
X100428723Y-109616809D02*
X100428723Y-109712047D01*
X100666819Y-109664428D02*
X100619200Y-109759666D01*
X100619200Y-109759666D02*
X100523961Y-109854904D01*
X100523961Y-109854904D02*
X100333485Y-109902523D01*
X100333485Y-109902523D02*
X100000152Y-109902523D01*
X100000152Y-109902523D02*
X99809676Y-109854904D01*
X99809676Y-109854904D02*
X99714438Y-109759666D01*
X99714438Y-109759666D02*
X99666819Y-109664428D01*
X99666819Y-109664428D02*
X99666819Y-109473952D01*
X99666819Y-109473952D02*
X99714438Y-109378714D01*
X99714438Y-109378714D02*
X99809676Y-109283476D01*
X99809676Y-109283476D02*
X100000152Y-109235857D01*
X100000152Y-109235857D02*
X100333485Y-109235857D01*
X100333485Y-109235857D02*
X100523961Y-109283476D01*
X100523961Y-109283476D02*
X100619200Y-109378714D01*
X100619200Y-109378714D02*
X100666819Y-109473952D01*
X100666819Y-109473952D02*
X100666819Y-109664428D01*
X100666819Y-108283476D02*
X100666819Y-108854904D01*
X100666819Y-108569190D02*
X99666819Y-108569190D01*
X99666819Y-108569190D02*
X99809676Y-108664428D01*
X99809676Y-108664428D02*
X99904914Y-108759666D01*
X99904914Y-108759666D02*
X99952533Y-108854904D01*
X133593819Y-82583257D02*
X133117628Y-82916590D01*
X133593819Y-83154685D02*
X132593819Y-83154685D01*
X132593819Y-83154685D02*
X132593819Y-82773733D01*
X132593819Y-82773733D02*
X132641438Y-82678495D01*
X132641438Y-82678495D02*
X132689057Y-82630876D01*
X132689057Y-82630876D02*
X132784295Y-82583257D01*
X132784295Y-82583257D02*
X132927152Y-82583257D01*
X132927152Y-82583257D02*
X133022390Y-82630876D01*
X133022390Y-82630876D02*
X133070009Y-82678495D01*
X133070009Y-82678495D02*
X133117628Y-82773733D01*
X133117628Y-82773733D02*
X133117628Y-83154685D01*
X133593819Y-81630876D02*
X133593819Y-82202304D01*
X133593819Y-81916590D02*
X132593819Y-81916590D01*
X132593819Y-81916590D02*
X132736676Y-82011828D01*
X132736676Y-82011828D02*
X132831914Y-82107066D01*
X132831914Y-82107066D02*
X132879533Y-82202304D01*
X132593819Y-81297542D02*
X132593819Y-80630876D01*
X132593819Y-80630876D02*
X133593819Y-81059447D01*
X179586095Y-87245819D02*
X180157523Y-87245819D01*
X179871809Y-88245819D02*
X179871809Y-87245819D01*
X180490857Y-88245819D02*
X180490857Y-87245819D01*
X180490857Y-87245819D02*
X180871809Y-87245819D01*
X180871809Y-87245819D02*
X180967047Y-87293438D01*
X180967047Y-87293438D02*
X181014666Y-87341057D01*
X181014666Y-87341057D02*
X181062285Y-87436295D01*
X181062285Y-87436295D02*
X181062285Y-87579152D01*
X181062285Y-87579152D02*
X181014666Y-87674390D01*
X181014666Y-87674390D02*
X180967047Y-87722009D01*
X180967047Y-87722009D02*
X180871809Y-87769628D01*
X180871809Y-87769628D02*
X180490857Y-87769628D01*
X181443238Y-87341057D02*
X181490857Y-87293438D01*
X181490857Y-87293438D02*
X181586095Y-87245819D01*
X181586095Y-87245819D02*
X181824190Y-87245819D01*
X181824190Y-87245819D02*
X181919428Y-87293438D01*
X181919428Y-87293438D02*
X181967047Y-87341057D01*
X181967047Y-87341057D02*
X182014666Y-87436295D01*
X182014666Y-87436295D02*
X182014666Y-87531533D01*
X182014666Y-87531533D02*
X181967047Y-87674390D01*
X181967047Y-87674390D02*
X181395619Y-88245819D01*
X181395619Y-88245819D02*
X182014666Y-88245819D01*
X92710619Y-110421466D02*
X92234428Y-110754799D01*
X92710619Y-110992894D02*
X91710619Y-110992894D01*
X91710619Y-110992894D02*
X91710619Y-110611942D01*
X91710619Y-110611942D02*
X91758238Y-110516704D01*
X91758238Y-110516704D02*
X91805857Y-110469085D01*
X91805857Y-110469085D02*
X91901095Y-110421466D01*
X91901095Y-110421466D02*
X92043952Y-110421466D01*
X92043952Y-110421466D02*
X92139190Y-110469085D01*
X92139190Y-110469085D02*
X92186809Y-110516704D01*
X92186809Y-110516704D02*
X92234428Y-110611942D01*
X92234428Y-110611942D02*
X92234428Y-110992894D01*
X92710619Y-109469085D02*
X92710619Y-110040513D01*
X92710619Y-109754799D02*
X91710619Y-109754799D01*
X91710619Y-109754799D02*
X91853476Y-109850037D01*
X91853476Y-109850037D02*
X91948714Y-109945275D01*
X91948714Y-109945275D02*
X91996333Y-110040513D01*
X113960057Y-95990238D02*
X113912438Y-96085476D01*
X113912438Y-96085476D02*
X113817200Y-96180714D01*
X113817200Y-96180714D02*
X113674342Y-96323571D01*
X113674342Y-96323571D02*
X113626723Y-96418809D01*
X113626723Y-96418809D02*
X113626723Y-96514047D01*
X113864819Y-96466428D02*
X113817200Y-96561666D01*
X113817200Y-96561666D02*
X113721961Y-96656904D01*
X113721961Y-96656904D02*
X113531485Y-96704523D01*
X113531485Y-96704523D02*
X113198152Y-96704523D01*
X113198152Y-96704523D02*
X113007676Y-96656904D01*
X113007676Y-96656904D02*
X112912438Y-96561666D01*
X112912438Y-96561666D02*
X112864819Y-96466428D01*
X112864819Y-96466428D02*
X112864819Y-96275952D01*
X112864819Y-96275952D02*
X112912438Y-96180714D01*
X112912438Y-96180714D02*
X113007676Y-96085476D01*
X113007676Y-96085476D02*
X113198152Y-96037857D01*
X113198152Y-96037857D02*
X113531485Y-96037857D01*
X113531485Y-96037857D02*
X113721961Y-96085476D01*
X113721961Y-96085476D02*
X113817200Y-96180714D01*
X113817200Y-96180714D02*
X113864819Y-96275952D01*
X113864819Y-96275952D02*
X113864819Y-96466428D01*
X112864819Y-95704523D02*
X112864819Y-95037857D01*
X112864819Y-95037857D02*
X113864819Y-95466428D01*
X54939819Y-116411333D02*
X55654104Y-116411333D01*
X55654104Y-116411333D02*
X55796961Y-116458952D01*
X55796961Y-116458952D02*
X55892200Y-116554190D01*
X55892200Y-116554190D02*
X55939819Y-116697047D01*
X55939819Y-116697047D02*
X55939819Y-116792285D01*
X55035057Y-115982761D02*
X54987438Y-115935142D01*
X54987438Y-115935142D02*
X54939819Y-115839904D01*
X54939819Y-115839904D02*
X54939819Y-115601809D01*
X54939819Y-115601809D02*
X54987438Y-115506571D01*
X54987438Y-115506571D02*
X55035057Y-115458952D01*
X55035057Y-115458952D02*
X55130295Y-115411333D01*
X55130295Y-115411333D02*
X55225533Y-115411333D01*
X55225533Y-115411333D02*
X55368390Y-115458952D01*
X55368390Y-115458952D02*
X55939819Y-116030380D01*
X55939819Y-116030380D02*
X55939819Y-115411333D01*
X88324819Y-74373094D02*
X87324819Y-74373094D01*
X87324819Y-74373094D02*
X87324819Y-74134999D01*
X87324819Y-74134999D02*
X87372438Y-73992142D01*
X87372438Y-73992142D02*
X87467676Y-73896904D01*
X87467676Y-73896904D02*
X87562914Y-73849285D01*
X87562914Y-73849285D02*
X87753390Y-73801666D01*
X87753390Y-73801666D02*
X87896247Y-73801666D01*
X87896247Y-73801666D02*
X88086723Y-73849285D01*
X88086723Y-73849285D02*
X88181961Y-73896904D01*
X88181961Y-73896904D02*
X88277200Y-73992142D01*
X88277200Y-73992142D02*
X88324819Y-74134999D01*
X88324819Y-74134999D02*
X88324819Y-74373094D01*
X87658152Y-72944523D02*
X88324819Y-72944523D01*
X87277200Y-73182618D02*
X87991485Y-73420713D01*
X87991485Y-73420713D02*
X87991485Y-72801666D01*
X88354819Y-71426904D02*
X87354819Y-71426904D01*
X88354819Y-70855476D02*
X87783390Y-71284047D01*
X87354819Y-70855476D02*
X87926247Y-71426904D01*
X102708057Y-126068238D02*
X102660438Y-126163476D01*
X102660438Y-126163476D02*
X102565200Y-126258714D01*
X102565200Y-126258714D02*
X102422342Y-126401571D01*
X102422342Y-126401571D02*
X102374723Y-126496809D01*
X102374723Y-126496809D02*
X102374723Y-126592047D01*
X102612819Y-126544428D02*
X102565200Y-126639666D01*
X102565200Y-126639666D02*
X102469961Y-126734904D01*
X102469961Y-126734904D02*
X102279485Y-126782523D01*
X102279485Y-126782523D02*
X101946152Y-126782523D01*
X101946152Y-126782523D02*
X101755676Y-126734904D01*
X101755676Y-126734904D02*
X101660438Y-126639666D01*
X101660438Y-126639666D02*
X101612819Y-126544428D01*
X101612819Y-126544428D02*
X101612819Y-126353952D01*
X101612819Y-126353952D02*
X101660438Y-126258714D01*
X101660438Y-126258714D02*
X101755676Y-126163476D01*
X101755676Y-126163476D02*
X101946152Y-126115857D01*
X101946152Y-126115857D02*
X102279485Y-126115857D01*
X102279485Y-126115857D02*
X102469961Y-126163476D01*
X102469961Y-126163476D02*
X102565200Y-126258714D01*
X102565200Y-126258714D02*
X102612819Y-126353952D01*
X102612819Y-126353952D02*
X102612819Y-126544428D01*
X101612819Y-125782523D02*
X101612819Y-125163476D01*
X101612819Y-125163476D02*
X101993771Y-125496809D01*
X101993771Y-125496809D02*
X101993771Y-125353952D01*
X101993771Y-125353952D02*
X102041390Y-125258714D01*
X102041390Y-125258714D02*
X102089009Y-125211095D01*
X102089009Y-125211095D02*
X102184247Y-125163476D01*
X102184247Y-125163476D02*
X102422342Y-125163476D01*
X102422342Y-125163476D02*
X102517580Y-125211095D01*
X102517580Y-125211095D02*
X102565200Y-125258714D01*
X102565200Y-125258714D02*
X102612819Y-125353952D01*
X102612819Y-125353952D02*
X102612819Y-125639666D01*
X102612819Y-125639666D02*
X102565200Y-125734904D01*
X102565200Y-125734904D02*
X102517580Y-125782523D01*
X191309333Y-74520580D02*
X191261714Y-74568200D01*
X191261714Y-74568200D02*
X191118857Y-74615819D01*
X191118857Y-74615819D02*
X191023619Y-74615819D01*
X191023619Y-74615819D02*
X190880762Y-74568200D01*
X190880762Y-74568200D02*
X190785524Y-74472961D01*
X190785524Y-74472961D02*
X190737905Y-74377723D01*
X190737905Y-74377723D02*
X190690286Y-74187247D01*
X190690286Y-74187247D02*
X190690286Y-74044390D01*
X190690286Y-74044390D02*
X190737905Y-73853914D01*
X190737905Y-73853914D02*
X190785524Y-73758676D01*
X190785524Y-73758676D02*
X190880762Y-73663438D01*
X190880762Y-73663438D02*
X191023619Y-73615819D01*
X191023619Y-73615819D02*
X191118857Y-73615819D01*
X191118857Y-73615819D02*
X191261714Y-73663438D01*
X191261714Y-73663438D02*
X191309333Y-73711057D01*
X191880762Y-74044390D02*
X191785524Y-73996771D01*
X191785524Y-73996771D02*
X191737905Y-73949152D01*
X191737905Y-73949152D02*
X191690286Y-73853914D01*
X191690286Y-73853914D02*
X191690286Y-73806295D01*
X191690286Y-73806295D02*
X191737905Y-73711057D01*
X191737905Y-73711057D02*
X191785524Y-73663438D01*
X191785524Y-73663438D02*
X191880762Y-73615819D01*
X191880762Y-73615819D02*
X192071238Y-73615819D01*
X192071238Y-73615819D02*
X192166476Y-73663438D01*
X192166476Y-73663438D02*
X192214095Y-73711057D01*
X192214095Y-73711057D02*
X192261714Y-73806295D01*
X192261714Y-73806295D02*
X192261714Y-73853914D01*
X192261714Y-73853914D02*
X192214095Y-73949152D01*
X192214095Y-73949152D02*
X192166476Y-73996771D01*
X192166476Y-73996771D02*
X192071238Y-74044390D01*
X192071238Y-74044390D02*
X191880762Y-74044390D01*
X191880762Y-74044390D02*
X191785524Y-74092009D01*
X191785524Y-74092009D02*
X191737905Y-74139628D01*
X191737905Y-74139628D02*
X191690286Y-74234866D01*
X191690286Y-74234866D02*
X191690286Y-74425342D01*
X191690286Y-74425342D02*
X191737905Y-74520580D01*
X191737905Y-74520580D02*
X191785524Y-74568200D01*
X191785524Y-74568200D02*
X191880762Y-74615819D01*
X191880762Y-74615819D02*
X192071238Y-74615819D01*
X192071238Y-74615819D02*
X192166476Y-74568200D01*
X192166476Y-74568200D02*
X192214095Y-74520580D01*
X192214095Y-74520580D02*
X192261714Y-74425342D01*
X192261714Y-74425342D02*
X192261714Y-74234866D01*
X192261714Y-74234866D02*
X192214095Y-74139628D01*
X192214095Y-74139628D02*
X192166476Y-74092009D01*
X192166476Y-74092009D02*
X192071238Y-74044390D01*
X112818057Y-120872238D02*
X112770438Y-120967476D01*
X112770438Y-120967476D02*
X112675200Y-121062714D01*
X112675200Y-121062714D02*
X112532342Y-121205571D01*
X112532342Y-121205571D02*
X112484723Y-121300809D01*
X112484723Y-121300809D02*
X112484723Y-121396047D01*
X112722819Y-121348428D02*
X112675200Y-121443666D01*
X112675200Y-121443666D02*
X112579961Y-121538904D01*
X112579961Y-121538904D02*
X112389485Y-121586523D01*
X112389485Y-121586523D02*
X112056152Y-121586523D01*
X112056152Y-121586523D02*
X111865676Y-121538904D01*
X111865676Y-121538904D02*
X111770438Y-121443666D01*
X111770438Y-121443666D02*
X111722819Y-121348428D01*
X111722819Y-121348428D02*
X111722819Y-121157952D01*
X111722819Y-121157952D02*
X111770438Y-121062714D01*
X111770438Y-121062714D02*
X111865676Y-120967476D01*
X111865676Y-120967476D02*
X112056152Y-120919857D01*
X112056152Y-120919857D02*
X112389485Y-120919857D01*
X112389485Y-120919857D02*
X112579961Y-120967476D01*
X112579961Y-120967476D02*
X112675200Y-121062714D01*
X112675200Y-121062714D02*
X112722819Y-121157952D01*
X112722819Y-121157952D02*
X112722819Y-121348428D01*
X112056152Y-120062714D02*
X112722819Y-120062714D01*
X111675200Y-120300809D02*
X112389485Y-120538904D01*
X112389485Y-120538904D02*
X112389485Y-119919857D01*
X94376219Y-100718857D02*
X93900028Y-101052190D01*
X94376219Y-101290285D02*
X93376219Y-101290285D01*
X93376219Y-101290285D02*
X93376219Y-100909333D01*
X93376219Y-100909333D02*
X93423838Y-100814095D01*
X93423838Y-100814095D02*
X93471457Y-100766476D01*
X93471457Y-100766476D02*
X93566695Y-100718857D01*
X93566695Y-100718857D02*
X93709552Y-100718857D01*
X93709552Y-100718857D02*
X93804790Y-100766476D01*
X93804790Y-100766476D02*
X93852409Y-100814095D01*
X93852409Y-100814095D02*
X93900028Y-100909333D01*
X93900028Y-100909333D02*
X93900028Y-101290285D01*
X94376219Y-99766476D02*
X94376219Y-100337904D01*
X94376219Y-100052190D02*
X93376219Y-100052190D01*
X93376219Y-100052190D02*
X93519076Y-100147428D01*
X93519076Y-100147428D02*
X93614314Y-100242666D01*
X93614314Y-100242666D02*
X93661933Y-100337904D01*
X93376219Y-99433142D02*
X93376219Y-98814095D01*
X93376219Y-98814095D02*
X93757171Y-99147428D01*
X93757171Y-99147428D02*
X93757171Y-99004571D01*
X93757171Y-99004571D02*
X93804790Y-98909333D01*
X93804790Y-98909333D02*
X93852409Y-98861714D01*
X93852409Y-98861714D02*
X93947647Y-98814095D01*
X93947647Y-98814095D02*
X94185742Y-98814095D01*
X94185742Y-98814095D02*
X94280980Y-98861714D01*
X94280980Y-98861714D02*
X94328600Y-98909333D01*
X94328600Y-98909333D02*
X94376219Y-99004571D01*
X94376219Y-99004571D02*
X94376219Y-99290285D01*
X94376219Y-99290285D02*
X94328600Y-99385523D01*
X94328600Y-99385523D02*
X94280980Y-99433142D01*
X135793819Y-129452666D02*
X135317628Y-129785999D01*
X135793819Y-130024094D02*
X134793819Y-130024094D01*
X134793819Y-130024094D02*
X134793819Y-129643142D01*
X134793819Y-129643142D02*
X134841438Y-129547904D01*
X134841438Y-129547904D02*
X134889057Y-129500285D01*
X134889057Y-129500285D02*
X134984295Y-129452666D01*
X134984295Y-129452666D02*
X135127152Y-129452666D01*
X135127152Y-129452666D02*
X135222390Y-129500285D01*
X135222390Y-129500285D02*
X135270009Y-129547904D01*
X135270009Y-129547904D02*
X135317628Y-129643142D01*
X135317628Y-129643142D02*
X135317628Y-130024094D01*
X134793819Y-128547904D02*
X134793819Y-129024094D01*
X134793819Y-129024094D02*
X135270009Y-129071713D01*
X135270009Y-129071713D02*
X135222390Y-129024094D01*
X135222390Y-129024094D02*
X135174771Y-128928856D01*
X135174771Y-128928856D02*
X135174771Y-128690761D01*
X135174771Y-128690761D02*
X135222390Y-128595523D01*
X135222390Y-128595523D02*
X135270009Y-128547904D01*
X135270009Y-128547904D02*
X135365247Y-128500285D01*
X135365247Y-128500285D02*
X135603342Y-128500285D01*
X135603342Y-128500285D02*
X135698580Y-128547904D01*
X135698580Y-128547904D02*
X135746200Y-128595523D01*
X135746200Y-128595523D02*
X135793819Y-128690761D01*
X135793819Y-128690761D02*
X135793819Y-128928856D01*
X135793819Y-128928856D02*
X135746200Y-129024094D01*
X135746200Y-129024094D02*
X135698580Y-129071713D01*
X97974133Y-121334619D02*
X97640800Y-120858428D01*
X97402705Y-121334619D02*
X97402705Y-120334619D01*
X97402705Y-120334619D02*
X97783657Y-120334619D01*
X97783657Y-120334619D02*
X97878895Y-120382238D01*
X97878895Y-120382238D02*
X97926514Y-120429857D01*
X97926514Y-120429857D02*
X97974133Y-120525095D01*
X97974133Y-120525095D02*
X97974133Y-120667952D01*
X97974133Y-120667952D02*
X97926514Y-120763190D01*
X97926514Y-120763190D02*
X97878895Y-120810809D01*
X97878895Y-120810809D02*
X97783657Y-120858428D01*
X97783657Y-120858428D02*
X97402705Y-120858428D01*
X98831276Y-120667952D02*
X98831276Y-121334619D01*
X98593181Y-120287000D02*
X98355086Y-121001285D01*
X98355086Y-121001285D02*
X98974133Y-121001285D01*
X87484819Y-128533094D02*
X86484819Y-128533094D01*
X86484819Y-128533094D02*
X86484819Y-128294999D01*
X86484819Y-128294999D02*
X86532438Y-128152142D01*
X86532438Y-128152142D02*
X86627676Y-128056904D01*
X86627676Y-128056904D02*
X86722914Y-128009285D01*
X86722914Y-128009285D02*
X86913390Y-127961666D01*
X86913390Y-127961666D02*
X87056247Y-127961666D01*
X87056247Y-127961666D02*
X87246723Y-128009285D01*
X87246723Y-128009285D02*
X87341961Y-128056904D01*
X87341961Y-128056904D02*
X87437200Y-128152142D01*
X87437200Y-128152142D02*
X87484819Y-128294999D01*
X87484819Y-128294999D02*
X87484819Y-128533094D01*
X86580057Y-127580713D02*
X86532438Y-127533094D01*
X86532438Y-127533094D02*
X86484819Y-127437856D01*
X86484819Y-127437856D02*
X86484819Y-127199761D01*
X86484819Y-127199761D02*
X86532438Y-127104523D01*
X86532438Y-127104523D02*
X86580057Y-127056904D01*
X86580057Y-127056904D02*
X86675295Y-127009285D01*
X86675295Y-127009285D02*
X86770533Y-127009285D01*
X86770533Y-127009285D02*
X86913390Y-127056904D01*
X86913390Y-127056904D02*
X87484819Y-127628332D01*
X87484819Y-127628332D02*
X87484819Y-127009285D01*
X87154819Y-131526904D02*
X86154819Y-131526904D01*
X87154819Y-130955476D02*
X86583390Y-131384047D01*
X86154819Y-130955476D02*
X86726247Y-131526904D01*
X148747057Y-85947238D02*
X148699438Y-86042476D01*
X148699438Y-86042476D02*
X148604200Y-86137714D01*
X148604200Y-86137714D02*
X148461342Y-86280571D01*
X148461342Y-86280571D02*
X148413723Y-86375809D01*
X148413723Y-86375809D02*
X148413723Y-86471047D01*
X148651819Y-86423428D02*
X148604200Y-86518666D01*
X148604200Y-86518666D02*
X148508961Y-86613904D01*
X148508961Y-86613904D02*
X148318485Y-86661523D01*
X148318485Y-86661523D02*
X147985152Y-86661523D01*
X147985152Y-86661523D02*
X147794676Y-86613904D01*
X147794676Y-86613904D02*
X147699438Y-86518666D01*
X147699438Y-86518666D02*
X147651819Y-86423428D01*
X147651819Y-86423428D02*
X147651819Y-86232952D01*
X147651819Y-86232952D02*
X147699438Y-86137714D01*
X147699438Y-86137714D02*
X147794676Y-86042476D01*
X147794676Y-86042476D02*
X147985152Y-85994857D01*
X147985152Y-85994857D02*
X148318485Y-85994857D01*
X148318485Y-85994857D02*
X148508961Y-86042476D01*
X148508961Y-86042476D02*
X148604200Y-86137714D01*
X148604200Y-86137714D02*
X148651819Y-86232952D01*
X148651819Y-86232952D02*
X148651819Y-86423428D01*
X147747057Y-85613904D02*
X147699438Y-85566285D01*
X147699438Y-85566285D02*
X147651819Y-85471047D01*
X147651819Y-85471047D02*
X147651819Y-85232952D01*
X147651819Y-85232952D02*
X147699438Y-85137714D01*
X147699438Y-85137714D02*
X147747057Y-85090095D01*
X147747057Y-85090095D02*
X147842295Y-85042476D01*
X147842295Y-85042476D02*
X147937533Y-85042476D01*
X147937533Y-85042476D02*
X148080390Y-85090095D01*
X148080390Y-85090095D02*
X148651819Y-85661523D01*
X148651819Y-85661523D02*
X148651819Y-85042476D01*
D13*
%TO.C,R8*%
X69160000Y-127265000D02*
X69930000Y-127265000D01*
X69930000Y-125895000D02*
X69930000Y-128635000D01*
X69930000Y-128635000D02*
X76470000Y-128635000D01*
X76470000Y-125895000D02*
X69930000Y-125895000D01*
X76470000Y-128635000D02*
X76470000Y-125895000D01*
X77240000Y-127265000D02*
X76470000Y-127265000D01*
%TO.C,R14*%
X94860000Y-83665000D02*
X95630000Y-83665000D01*
X95630000Y-82295000D02*
X95630000Y-85035000D01*
X95630000Y-85035000D02*
X102170000Y-85035000D01*
X102170000Y-82295000D02*
X95630000Y-82295000D01*
X102170000Y-85035000D02*
X102170000Y-82295000D01*
X102940000Y-83665000D02*
X102170000Y-83665000D01*
%TO.C,TP1*%
X182302000Y-117221000D02*
G75*
G02*
X179902000Y-117221000I-1200000J0D01*
G01*
X179902000Y-117221000D02*
G75*
G02*
X182302000Y-117221000I1200000J0D01*
G01*
%TO.C,R12*%
X71172400Y-84461600D02*
X71172400Y-91001600D01*
X71172400Y-91001600D02*
X73912400Y-91001600D01*
X72542400Y-83691600D02*
X72542400Y-84461600D01*
X72542400Y-91771600D02*
X72542400Y-91001600D01*
X73912400Y-84461600D02*
X71172400Y-84461600D01*
X73912400Y-91001600D02*
X73912400Y-84461600D01*
%TO.C,C1*%
X173102800Y-99389800D02*
X173102800Y-106629800D01*
X176842800Y-99389800D02*
X173102800Y-99389800D01*
X176842800Y-99389800D02*
X176842800Y-106629800D01*
X176842800Y-106629800D02*
X173102800Y-106629800D01*
%TO.C,R15*%
X125530000Y-88675000D02*
X125530000Y-95215000D01*
X125530000Y-95215000D02*
X128270000Y-95215000D01*
X126900000Y-87905000D02*
X126900000Y-88675000D01*
X126900000Y-95985000D02*
X126900000Y-95215000D01*
X128270000Y-88675000D02*
X125530000Y-88675000D01*
X128270000Y-95215000D02*
X128270000Y-88675000D01*
%TO.C,J3*%
X44100000Y-86465000D02*
X44100000Y-86965000D01*
X44340000Y-86705000D02*
X44340000Y-96825000D01*
X44840000Y-86465000D02*
X44100000Y-86465000D01*
X44900000Y-86705000D02*
X44900000Y-96825000D01*
X46400000Y-86705000D02*
X46400000Y-96825000D01*
X47761000Y-93231000D02*
X47726000Y-93196000D01*
X47977000Y-93038000D02*
X47931000Y-92991000D01*
X50069000Y-95540000D02*
X50023000Y-95493000D01*
X50275000Y-95335000D02*
X50239000Y-95300000D01*
X51301000Y-86705000D02*
X51301000Y-96825000D01*
X54261000Y-86705000D02*
X44340000Y-86705000D01*
X54261000Y-86705000D02*
X54261000Y-96825000D01*
X54261000Y-96825000D02*
X44340000Y-96825000D01*
X47319747Y-89293805D02*
G75*
G02*
X47465000Y-88581000I1680254J28806D01*
G01*
X47465244Y-89948318D02*
G75*
G02*
X47320000Y-89265000I1534756J683318D01*
G01*
X48316958Y-87729573D02*
G75*
G02*
X49684000Y-87730000I683041J-1535420D01*
G01*
X49683042Y-90800427D02*
G75*
G02*
X48316000Y-90800000I-683042J1535427D01*
G01*
X50535427Y-88581958D02*
G75*
G02*
X50535000Y-89949000I-1535420J-683041D01*
G01*
X50680000Y-94265000D02*
G75*
G02*
X47320000Y-94265000I-1680000J0D01*
G01*
X47320000Y-94265000D02*
G75*
G02*
X50680000Y-94265000I1680000J0D01*
G01*
%TO.C,R3*%
X126030000Y-112495000D02*
X126030000Y-119035000D01*
X126030000Y-119035000D02*
X128770000Y-119035000D01*
X127400000Y-111725000D02*
X127400000Y-112495000D01*
X127400000Y-119805000D02*
X127400000Y-119035000D01*
X128770000Y-112495000D02*
X126030000Y-112495000D01*
X128770000Y-119035000D02*
X128770000Y-112495000D01*
%TO.C,C3*%
X47405113Y-125652000D02*
X47905113Y-125652000D01*
X47655113Y-125402000D02*
X47655113Y-125902000D01*
X50209888Y-124547000D02*
X50209888Y-126087000D01*
X50209888Y-128167000D02*
X50209888Y-129707000D01*
X50249888Y-124547000D02*
X50249888Y-126087000D01*
X50249888Y-128167000D02*
X50249888Y-129707000D01*
X50289888Y-124548000D02*
X50289888Y-126087000D01*
X50289888Y-128167000D02*
X50289888Y-129706000D01*
X50329888Y-124549000D02*
X50329888Y-126087000D01*
X50329888Y-128167000D02*
X50329888Y-129705000D01*
X50369888Y-124551000D02*
X50369888Y-126087000D01*
X50369888Y-128167000D02*
X50369888Y-129703000D01*
X50409888Y-124554000D02*
X50409888Y-126087000D01*
X50409888Y-128167000D02*
X50409888Y-129700000D01*
X50449888Y-124558000D02*
X50449888Y-126087000D01*
X50449888Y-128167000D02*
X50449888Y-129696000D01*
X50489888Y-124562000D02*
X50489888Y-126087000D01*
X50489888Y-128167000D02*
X50489888Y-129692000D01*
X50529888Y-124566000D02*
X50529888Y-126087000D01*
X50529888Y-128167000D02*
X50529888Y-129688000D01*
X50569888Y-124571000D02*
X50569888Y-126087000D01*
X50569888Y-128167000D02*
X50569888Y-129683000D01*
X50609888Y-124577000D02*
X50609888Y-126087000D01*
X50609888Y-128167000D02*
X50609888Y-129677000D01*
X50649888Y-124584000D02*
X50649888Y-126087000D01*
X50649888Y-128167000D02*
X50649888Y-129670000D01*
X50689888Y-124591000D02*
X50689888Y-126087000D01*
X50689888Y-128167000D02*
X50689888Y-129663000D01*
X50729888Y-124599000D02*
X50729888Y-126087000D01*
X50729888Y-128167000D02*
X50729888Y-129655000D01*
X50769888Y-124607000D02*
X50769888Y-126087000D01*
X50769888Y-128167000D02*
X50769888Y-129647000D01*
X50809888Y-124616000D02*
X50809888Y-126087000D01*
X50809888Y-128167000D02*
X50809888Y-129638000D01*
X50849888Y-124626000D02*
X50849888Y-126087000D01*
X50849888Y-128167000D02*
X50849888Y-129628000D01*
X50889888Y-124636000D02*
X50889888Y-126087000D01*
X50889888Y-128167000D02*
X50889888Y-129618000D01*
X50930888Y-124647000D02*
X50930888Y-126087000D01*
X50930888Y-128167000D02*
X50930888Y-129607000D01*
X50970888Y-124659000D02*
X50970888Y-126087000D01*
X50970888Y-128167000D02*
X50970888Y-129595000D01*
X51010888Y-124672000D02*
X51010888Y-126087000D01*
X51010888Y-128167000D02*
X51010888Y-129582000D01*
X51050888Y-124685000D02*
X51050888Y-126087000D01*
X51050888Y-128167000D02*
X51050888Y-129569000D01*
X51090888Y-124699000D02*
X51090888Y-126087000D01*
X51090888Y-128167000D02*
X51090888Y-129555000D01*
X51130888Y-124713000D02*
X51130888Y-126087000D01*
X51130888Y-128167000D02*
X51130888Y-129541000D01*
X51170888Y-124729000D02*
X51170888Y-126087000D01*
X51170888Y-128167000D02*
X51170888Y-129525000D01*
X51210888Y-124745000D02*
X51210888Y-126087000D01*
X51210888Y-128167000D02*
X51210888Y-129509000D01*
X51250888Y-124762000D02*
X51250888Y-126087000D01*
X51250888Y-128167000D02*
X51250888Y-129492000D01*
X51290888Y-124779000D02*
X51290888Y-126087000D01*
X51290888Y-128167000D02*
X51290888Y-129475000D01*
X51330888Y-124798000D02*
X51330888Y-126087000D01*
X51330888Y-128167000D02*
X51330888Y-129456000D01*
X51370888Y-124817000D02*
X51370888Y-126087000D01*
X51370888Y-128167000D02*
X51370888Y-129437000D01*
X51410888Y-124837000D02*
X51410888Y-126087000D01*
X51410888Y-128167000D02*
X51410888Y-129417000D01*
X51450888Y-124859000D02*
X51450888Y-126087000D01*
X51450888Y-128167000D02*
X51450888Y-129395000D01*
X51490888Y-124880000D02*
X51490888Y-126087000D01*
X51490888Y-128167000D02*
X51490888Y-129374000D01*
X51530888Y-124903000D02*
X51530888Y-126087000D01*
X51530888Y-128167000D02*
X51530888Y-129351000D01*
X51570888Y-124927000D02*
X51570888Y-126087000D01*
X51570888Y-128167000D02*
X51570888Y-129327000D01*
X51610888Y-124952000D02*
X51610888Y-126087000D01*
X51610888Y-128167000D02*
X51610888Y-129302000D01*
X51650888Y-124978000D02*
X51650888Y-126087000D01*
X51650888Y-128167000D02*
X51650888Y-129276000D01*
X51690888Y-125005000D02*
X51690888Y-126087000D01*
X51690888Y-128167000D02*
X51690888Y-129249000D01*
X51730888Y-125032000D02*
X51730888Y-126087000D01*
X51730888Y-128167000D02*
X51730888Y-129222000D01*
X51770888Y-125062000D02*
X51770888Y-126087000D01*
X51770888Y-128167000D02*
X51770888Y-129192000D01*
X51810888Y-125092000D02*
X51810888Y-126087000D01*
X51810888Y-128167000D02*
X51810888Y-129162000D01*
X51850888Y-125123000D02*
X51850888Y-126087000D01*
X51850888Y-128167000D02*
X51850888Y-129131000D01*
X51890888Y-125156000D02*
X51890888Y-126087000D01*
X51890888Y-128167000D02*
X51890888Y-129098000D01*
X51930888Y-125190000D02*
X51930888Y-126087000D01*
X51930888Y-128167000D02*
X51930888Y-129064000D01*
X51970888Y-125226000D02*
X51970888Y-126087000D01*
X51970888Y-128167000D02*
X51970888Y-129028000D01*
X52010888Y-125263000D02*
X52010888Y-126087000D01*
X52010888Y-128167000D02*
X52010888Y-128991000D01*
X52050888Y-125301000D02*
X52050888Y-126087000D01*
X52050888Y-128167000D02*
X52050888Y-128953000D01*
X52090888Y-125342000D02*
X52090888Y-126087000D01*
X52090888Y-128167000D02*
X52090888Y-128912000D01*
X52130888Y-125384000D02*
X52130888Y-126087000D01*
X52130888Y-128167000D02*
X52130888Y-128870000D01*
X52170888Y-125428000D02*
X52170888Y-126087000D01*
X52170888Y-128167000D02*
X52170888Y-128826000D01*
X52210888Y-125474000D02*
X52210888Y-126087000D01*
X52210888Y-128167000D02*
X52210888Y-128780000D01*
X52250888Y-125522000D02*
X52250888Y-128732000D01*
X52290888Y-125573000D02*
X52290888Y-128681000D01*
X52330888Y-125627000D02*
X52330888Y-128627000D01*
X52370888Y-125684000D02*
X52370888Y-128570000D01*
X52410888Y-125744000D02*
X52410888Y-128510000D01*
X52450888Y-125808000D02*
X52450888Y-128446000D01*
X52490888Y-125876000D02*
X52490888Y-128378000D01*
X52530888Y-125949000D02*
X52530888Y-128305000D01*
X52570888Y-126029000D02*
X52570888Y-128225000D01*
X52610888Y-126116000D02*
X52610888Y-128138000D01*
X52650888Y-126212000D02*
X52650888Y-128042000D01*
X52690888Y-126322000D02*
X52690888Y-127932000D01*
X52730888Y-126450000D02*
X52730888Y-127804000D01*
X52770888Y-126609000D02*
X52770888Y-127645000D01*
X52810888Y-126843000D02*
X52810888Y-127411000D01*
X52829888Y-127127000D02*
G75*
G02*
X47589888Y-127127000I-2620000J0D01*
G01*
X47589888Y-127127000D02*
G75*
G02*
X52829888Y-127127000I2620000J0D01*
G01*
%TO.C,Q9*%
X142272000Y-110704000D02*
X146913000Y-110704000D01*
X142272000Y-113973000D02*
X143782000Y-113973000D01*
X142272000Y-117674000D02*
X143782000Y-117674000D01*
X142272000Y-120944000D02*
X142272000Y-110704000D01*
X142272000Y-120944000D02*
X146913000Y-120944000D01*
X143782000Y-120944000D02*
X143782000Y-110704000D01*
X146913000Y-120944000D02*
X146913000Y-110704000D01*
%TO.C,R2*%
X134012000Y-107093000D02*
X134012000Y-113633000D01*
X134012000Y-113633000D02*
X136752000Y-113633000D01*
X135382000Y-106323000D02*
X135382000Y-107093000D01*
X135382000Y-114403000D02*
X135382000Y-113633000D01*
X136752000Y-107093000D02*
X134012000Y-107093000D01*
X136752000Y-113633000D02*
X136752000Y-107093000D01*
%TO.C,C5*%
X48076025Y-73219800D02*
X48576025Y-73219800D01*
X48326025Y-72969800D02*
X48326025Y-73469800D01*
X50880800Y-72114800D02*
X50880800Y-73654800D01*
X50880800Y-75734800D02*
X50880800Y-77274800D01*
X50920800Y-72114800D02*
X50920800Y-73654800D01*
X50920800Y-75734800D02*
X50920800Y-77274800D01*
X50960800Y-72115800D02*
X50960800Y-73654800D01*
X50960800Y-75734800D02*
X50960800Y-77273800D01*
X51000800Y-72116800D02*
X51000800Y-73654800D01*
X51000800Y-75734800D02*
X51000800Y-77272800D01*
X51040800Y-72118800D02*
X51040800Y-73654800D01*
X51040800Y-75734800D02*
X51040800Y-77270800D01*
X51080800Y-72121800D02*
X51080800Y-73654800D01*
X51080800Y-75734800D02*
X51080800Y-77267800D01*
X51120800Y-72125800D02*
X51120800Y-73654800D01*
X51120800Y-75734800D02*
X51120800Y-77263800D01*
X51160800Y-72129800D02*
X51160800Y-73654800D01*
X51160800Y-75734800D02*
X51160800Y-77259800D01*
X51200800Y-72133800D02*
X51200800Y-73654800D01*
X51200800Y-75734800D02*
X51200800Y-77255800D01*
X51240800Y-72138800D02*
X51240800Y-73654800D01*
X51240800Y-75734800D02*
X51240800Y-77250800D01*
X51280800Y-72144800D02*
X51280800Y-73654800D01*
X51280800Y-75734800D02*
X51280800Y-77244800D01*
X51320800Y-72151800D02*
X51320800Y-73654800D01*
X51320800Y-75734800D02*
X51320800Y-77237800D01*
X51360800Y-72158800D02*
X51360800Y-73654800D01*
X51360800Y-75734800D02*
X51360800Y-77230800D01*
X51400800Y-72166800D02*
X51400800Y-73654800D01*
X51400800Y-75734800D02*
X51400800Y-77222800D01*
X51440800Y-72174800D02*
X51440800Y-73654800D01*
X51440800Y-75734800D02*
X51440800Y-77214800D01*
X51480800Y-72183800D02*
X51480800Y-73654800D01*
X51480800Y-75734800D02*
X51480800Y-77205800D01*
X51520800Y-72193800D02*
X51520800Y-73654800D01*
X51520800Y-75734800D02*
X51520800Y-77195800D01*
X51560800Y-72203800D02*
X51560800Y-73654800D01*
X51560800Y-75734800D02*
X51560800Y-77185800D01*
X51601800Y-72214800D02*
X51601800Y-73654800D01*
X51601800Y-75734800D02*
X51601800Y-77174800D01*
X51641800Y-72226800D02*
X51641800Y-73654800D01*
X51641800Y-75734800D02*
X51641800Y-77162800D01*
X51681800Y-72239800D02*
X51681800Y-73654800D01*
X51681800Y-75734800D02*
X51681800Y-77149800D01*
X51721800Y-72252800D02*
X51721800Y-73654800D01*
X51721800Y-75734800D02*
X51721800Y-77136800D01*
X51761800Y-72266800D02*
X51761800Y-73654800D01*
X51761800Y-75734800D02*
X51761800Y-77122800D01*
X51801800Y-72280800D02*
X51801800Y-73654800D01*
X51801800Y-75734800D02*
X51801800Y-77108800D01*
X51841800Y-72296800D02*
X51841800Y-73654800D01*
X51841800Y-75734800D02*
X51841800Y-77092800D01*
X51881800Y-72312800D02*
X51881800Y-73654800D01*
X51881800Y-75734800D02*
X51881800Y-77076800D01*
X51921800Y-72329800D02*
X51921800Y-73654800D01*
X51921800Y-75734800D02*
X51921800Y-77059800D01*
X51961800Y-72346800D02*
X51961800Y-73654800D01*
X51961800Y-75734800D02*
X51961800Y-77042800D01*
X52001800Y-72365800D02*
X52001800Y-73654800D01*
X52001800Y-75734800D02*
X52001800Y-77023800D01*
X52041800Y-72384800D02*
X52041800Y-73654800D01*
X52041800Y-75734800D02*
X52041800Y-77004800D01*
X52081800Y-72404800D02*
X52081800Y-73654800D01*
X52081800Y-75734800D02*
X52081800Y-76984800D01*
X52121800Y-72426800D02*
X52121800Y-73654800D01*
X52121800Y-75734800D02*
X52121800Y-76962800D01*
X52161800Y-72447800D02*
X52161800Y-73654800D01*
X52161800Y-75734800D02*
X52161800Y-76941800D01*
X52201800Y-72470800D02*
X52201800Y-73654800D01*
X52201800Y-75734800D02*
X52201800Y-76918800D01*
X52241800Y-72494800D02*
X52241800Y-73654800D01*
X52241800Y-75734800D02*
X52241800Y-76894800D01*
X52281800Y-72519800D02*
X52281800Y-73654800D01*
X52281800Y-75734800D02*
X52281800Y-76869800D01*
X52321800Y-72545800D02*
X52321800Y-73654800D01*
X52321800Y-75734800D02*
X52321800Y-76843800D01*
X52361800Y-72572800D02*
X52361800Y-73654800D01*
X52361800Y-75734800D02*
X52361800Y-76816800D01*
X52401800Y-72599800D02*
X52401800Y-73654800D01*
X52401800Y-75734800D02*
X52401800Y-76789800D01*
X52441800Y-72629800D02*
X52441800Y-73654800D01*
X52441800Y-75734800D02*
X52441800Y-76759800D01*
X52481800Y-72659800D02*
X52481800Y-73654800D01*
X52481800Y-75734800D02*
X52481800Y-76729800D01*
X52521800Y-72690800D02*
X52521800Y-73654800D01*
X52521800Y-75734800D02*
X52521800Y-76698800D01*
X52561800Y-72723800D02*
X52561800Y-73654800D01*
X52561800Y-75734800D02*
X52561800Y-76665800D01*
X52601800Y-72757800D02*
X52601800Y-73654800D01*
X52601800Y-75734800D02*
X52601800Y-76631800D01*
X52641800Y-72793800D02*
X52641800Y-73654800D01*
X52641800Y-75734800D02*
X52641800Y-76595800D01*
X52681800Y-72830800D02*
X52681800Y-73654800D01*
X52681800Y-75734800D02*
X52681800Y-76558800D01*
X52721800Y-72868800D02*
X52721800Y-73654800D01*
X52721800Y-75734800D02*
X52721800Y-76520800D01*
X52761800Y-72909800D02*
X52761800Y-73654800D01*
X52761800Y-75734800D02*
X52761800Y-76479800D01*
X52801800Y-72951800D02*
X52801800Y-73654800D01*
X52801800Y-75734800D02*
X52801800Y-76437800D01*
X52841800Y-72995800D02*
X52841800Y-73654800D01*
X52841800Y-75734800D02*
X52841800Y-76393800D01*
X52881800Y-73041800D02*
X52881800Y-73654800D01*
X52881800Y-75734800D02*
X52881800Y-76347800D01*
X52921800Y-73089800D02*
X52921800Y-76299800D01*
X52961800Y-73140800D02*
X52961800Y-76248800D01*
X53001800Y-73194800D02*
X53001800Y-76194800D01*
X53041800Y-73251800D02*
X53041800Y-76137800D01*
X53081800Y-73311800D02*
X53081800Y-76077800D01*
X53121800Y-73375800D02*
X53121800Y-76013800D01*
X53161800Y-73443800D02*
X53161800Y-75945800D01*
X53201800Y-73516800D02*
X53201800Y-75872800D01*
X53241800Y-73596800D02*
X53241800Y-75792800D01*
X53281800Y-73683800D02*
X53281800Y-75705800D01*
X53321800Y-73779800D02*
X53321800Y-75609800D01*
X53361800Y-73889800D02*
X53361800Y-75499800D01*
X53401800Y-74017800D02*
X53401800Y-75371800D01*
X53441800Y-74176800D02*
X53441800Y-75212800D01*
X53481800Y-74410800D02*
X53481800Y-74978800D01*
X53500800Y-74694800D02*
G75*
G02*
X48260800Y-74694800I-2620000J0D01*
G01*
X48260800Y-74694800D02*
G75*
G02*
X53500800Y-74694800I2620000J0D01*
G01*
%TO.C,Q6*%
X100350000Y-75925000D02*
X100350000Y-72325000D01*
X96150000Y-73015000D02*
G75*
G02*
X97401629Y-71769542I2350000J-1110000D01*
G01*
X97396158Y-76492199D02*
G75*
G02*
X96150000Y-75265000I1103842J2367199D01*
G01*
X99622795Y-71800816D02*
G75*
G02*
X100350000Y-72325000I-1122795J-2324184D01*
G01*
X100350000Y-75925000D02*
G75*
G02*
X99622795Y-76449184I-1850000J1800000D01*
G01*
%TO.C,D3*%
X81530000Y-84915000D02*
X81530000Y-90355000D01*
X81530000Y-90355000D02*
X84470000Y-90355000D01*
X83000000Y-83895000D02*
X83000000Y-84915000D01*
X83000000Y-91375000D02*
X83000000Y-90355000D01*
X84470000Y-84915000D02*
X81530000Y-84915000D01*
X84470000Y-85695000D02*
X81530000Y-85695000D01*
X84470000Y-85815000D02*
X81530000Y-85815000D01*
X84470000Y-85935000D02*
X81530000Y-85935000D01*
X84470000Y-90355000D02*
X84470000Y-84915000D01*
%TO.C,C6*%
X105879000Y-69495000D02*
X105879000Y-74835000D01*
X106545000Y-69495000D02*
X105879000Y-69495000D01*
X106545000Y-74835000D02*
X105879000Y-74835000D01*
X109321000Y-69495000D02*
X108655000Y-69495000D01*
X109321000Y-69495000D02*
X109321000Y-74835000D01*
X109321000Y-74835000D02*
X108655000Y-74835000D01*
%TO.C,R10*%
X52960000Y-82265000D02*
X53730000Y-82265000D01*
X53730000Y-80895000D02*
X53730000Y-83635000D01*
X53730000Y-83635000D02*
X60270000Y-83635000D01*
X60270000Y-80895000D02*
X53730000Y-80895000D01*
X60270000Y-83635000D02*
X60270000Y-80895000D01*
X61040000Y-82265000D02*
X60270000Y-82265000D01*
%TO.C,Q5*%
X169571000Y-118324000D02*
X169571000Y-128564000D01*
X172702000Y-118324000D02*
X172702000Y-128564000D01*
X174212000Y-118324000D02*
X169571000Y-118324000D01*
X174212000Y-118324000D02*
X174212000Y-128564000D01*
X174212000Y-121594000D02*
X172702000Y-121594000D01*
X174212000Y-125295000D02*
X172702000Y-125295000D01*
X174212000Y-128564000D02*
X169571000Y-128564000D01*
%TO.C,C4*%
X105579000Y-122895000D02*
X105579000Y-128235000D01*
X106245000Y-122895000D02*
X105579000Y-122895000D01*
X106245000Y-128235000D02*
X105579000Y-128235000D01*
X109021000Y-122895000D02*
X108355000Y-122895000D01*
X109021000Y-122895000D02*
X109021000Y-128235000D01*
X109021000Y-128235000D02*
X108355000Y-128235000D01*
%TO.C,R6*%
X58960000Y-132465000D02*
X59730000Y-132465000D01*
X59730000Y-131095000D02*
X59730000Y-133835000D01*
X59730000Y-133835000D02*
X66270000Y-133835000D01*
X66270000Y-131095000D02*
X59730000Y-131095000D01*
X66270000Y-133835000D02*
X66270000Y-131095000D01*
X67040000Y-132465000D02*
X66270000Y-132465000D01*
%TO.C,Q10*%
X169190000Y-73112000D02*
X169190000Y-83352000D01*
X172321000Y-73112000D02*
X172321000Y-83352000D01*
X173831000Y-73112000D02*
X169190000Y-73112000D01*
X173831000Y-73112000D02*
X173831000Y-83352000D01*
X173831000Y-76382000D02*
X172321000Y-76382000D01*
X173831000Y-80083000D02*
X172321000Y-80083000D01*
X173831000Y-83352000D02*
X169190000Y-83352000D01*
%TO.C,RV1*%
X65244400Y-68155000D02*
X75014400Y-68155000D01*
X65244400Y-77925000D02*
X65244400Y-68155000D01*
X65244400Y-77925000D02*
X75014400Y-77925000D01*
X75014400Y-77925000D02*
X75014400Y-68155000D01*
%TO.C,C7*%
X180502000Y-99337000D02*
X180502000Y-106577000D01*
X184242000Y-99337000D02*
X180502000Y-99337000D01*
X184242000Y-99337000D02*
X184242000Y-106577000D01*
X184242000Y-106577000D02*
X180502000Y-106577000D01*
%TO.C,R16*%
X130360000Y-71365000D02*
X131130000Y-71365000D01*
X131130000Y-69995000D02*
X131130000Y-72735000D01*
X131130000Y-72735000D02*
X137670000Y-72735000D01*
X137670000Y-69995000D02*
X131130000Y-69995000D01*
X137670000Y-72735000D02*
X137670000Y-69995000D01*
X138440000Y-71365000D02*
X137670000Y-71365000D01*
%TO.C,D1*%
X80830000Y-114775000D02*
X80830000Y-120215000D01*
X80830000Y-119195000D02*
X83770000Y-119195000D01*
X80830000Y-119315000D02*
X83770000Y-119315000D01*
X80830000Y-119435000D02*
X83770000Y-119435000D01*
X80830000Y-120215000D02*
X83770000Y-120215000D01*
X82300000Y-113755000D02*
X82300000Y-114775000D01*
X82300000Y-121235000D02*
X82300000Y-120215000D01*
X83770000Y-114775000D02*
X80830000Y-114775000D01*
X83770000Y-120215000D02*
X83770000Y-114775000D01*
%TO.C,R9*%
X116160000Y-127165000D02*
X116930000Y-127165000D01*
X116930000Y-125795000D02*
X116930000Y-128535000D01*
X116930000Y-128535000D02*
X123470000Y-128535000D01*
X123470000Y-125795000D02*
X116930000Y-125795000D01*
X123470000Y-128535000D02*
X123470000Y-125795000D01*
X124240000Y-127165000D02*
X123470000Y-127165000D01*
%TO.C,J1*%
X191894000Y-96667000D02*
X201815000Y-96667000D01*
X191894000Y-106787000D02*
X191894000Y-96667000D01*
X191894000Y-106787000D02*
X201815000Y-106787000D01*
X194854000Y-106787000D02*
X194854000Y-96667000D01*
X195880000Y-98157000D02*
X195916000Y-98192000D01*
X196086000Y-97952000D02*
X196132000Y-97999000D01*
X198178000Y-100454000D02*
X198224000Y-100501000D01*
X198394000Y-100261000D02*
X198429000Y-100296000D01*
X199755000Y-106787000D02*
X199755000Y-96667000D01*
X201255000Y-106787000D02*
X201255000Y-96667000D01*
X201315000Y-107027000D02*
X202055000Y-107027000D01*
X201815000Y-106787000D02*
X201815000Y-96667000D01*
X202055000Y-107027000D02*
X202055000Y-106527000D01*
X195619573Y-104910042D02*
G75*
G02*
X195620000Y-103543000I1535420J683041D01*
G01*
X196471958Y-102691573D02*
G75*
G02*
X197839000Y-102692000I683042J-1535427D01*
G01*
X197838042Y-105762427D02*
G75*
G02*
X196471000Y-105762000I-683041J1535420D01*
G01*
X198689756Y-103543682D02*
G75*
G02*
X198835000Y-104227000I-1534756J-683318D01*
G01*
X198835253Y-104198195D02*
G75*
G02*
X198690000Y-104911000I-1680254J-28806D01*
G01*
X198835000Y-99227000D02*
G75*
G02*
X195475000Y-99227000I-1680000J0D01*
G01*
X195475000Y-99227000D02*
G75*
G02*
X198835000Y-99227000I1680000J0D01*
G01*
%TO.C,Q8*%
X114576000Y-83613000D02*
X110976000Y-83613000D01*
X110451816Y-84340205D02*
G75*
G02*
X110976000Y-83613000I2324184J-1122795D01*
G01*
X111666000Y-87813000D02*
G75*
G02*
X110420542Y-86561371I1110000J2350000D01*
G01*
X114576000Y-83613000D02*
G75*
G02*
X115100184Y-84340205I-1800000J-1850000D01*
G01*
X115143199Y-86566842D02*
G75*
G02*
X113916000Y-87813000I-2367199J1103842D01*
G01*
%TO.C,R18*%
X120230000Y-69695000D02*
X120230000Y-76235000D01*
X120230000Y-76235000D02*
X122970000Y-76235000D01*
X121600000Y-68925000D02*
X121600000Y-69695000D01*
X121600000Y-77005000D02*
X121600000Y-76235000D01*
X122970000Y-69695000D02*
X120230000Y-69695000D01*
X122970000Y-76235000D02*
X122970000Y-69695000D01*
%TO.C,RV2*%
X65415000Y-111380000D02*
X75185000Y-111380000D01*
X65415000Y-121150000D02*
X65415000Y-111380000D01*
X65415000Y-121150000D02*
X75185000Y-121150000D01*
X75185000Y-121150000D02*
X75185000Y-111380000D01*
%TO.C,Q1*%
X106252000Y-112925000D02*
X106252000Y-109325000D01*
X102052000Y-110015000D02*
G75*
G02*
X103303629Y-108769542I2350000J-1110000D01*
G01*
X103298158Y-113492199D02*
G75*
G02*
X102052000Y-112265000I1103842J2367199D01*
G01*
X105524795Y-108800816D02*
G75*
G02*
X106252000Y-109325000I-1122795J-2324184D01*
G01*
X106252000Y-112925000D02*
G75*
G02*
X105524795Y-113449184I-1850000J1800000D01*
G01*
%TO.C,R17*%
X134139000Y-78670400D02*
X134139000Y-85210400D01*
X134139000Y-85210400D02*
X136879000Y-85210400D01*
X135509000Y-77900400D02*
X135509000Y-78670400D01*
X135509000Y-85980400D02*
X135509000Y-85210400D01*
X136879000Y-78670400D02*
X134139000Y-78670400D01*
X136879000Y-85210400D02*
X136879000Y-78670400D01*
%TO.C,TP2*%
X182048000Y-89789000D02*
G75*
G02*
X179648000Y-89789000I-1200000J0D01*
G01*
X179648000Y-89789000D02*
G75*
G02*
X182048000Y-89789000I1200000J0D01*
G01*
%TO.C,R1*%
X88515800Y-106984800D02*
X88515800Y-113524800D01*
X88515800Y-113524800D02*
X91255800Y-113524800D01*
X89885800Y-106214800D02*
X89885800Y-106984800D01*
X89885800Y-114294800D02*
X89885800Y-113524800D01*
X91255800Y-106984800D02*
X88515800Y-106984800D01*
X91255800Y-113524800D02*
X91255800Y-106984800D01*
%TO.C,Q7*%
X107370000Y-94085000D02*
X107370000Y-97685000D01*
X107370000Y-94085000D02*
G75*
G02*
X108097205Y-93560816I1850000J-1800000D01*
G01*
X108097205Y-98209184D02*
G75*
G02*
X107370000Y-97685000I1122795J2324184D01*
G01*
X110323842Y-93517801D02*
G75*
G02*
X111570000Y-94745000I-1103842J-2367199D01*
G01*
X111570000Y-96995000D02*
G75*
G02*
X110318371Y-98240458I-2350000J1110000D01*
G01*
%TO.C,J2*%
X44325000Y-110778000D02*
X44325000Y-111278000D01*
X44565000Y-111018000D02*
X44565000Y-121138000D01*
X45065000Y-110778000D02*
X44325000Y-110778000D01*
X45125000Y-111018000D02*
X45125000Y-121138000D01*
X46625000Y-111018000D02*
X46625000Y-121138000D01*
X47986000Y-117544000D02*
X47951000Y-117509000D01*
X48202000Y-117351000D02*
X48156000Y-117304000D01*
X50294000Y-119853000D02*
X50248000Y-119806000D01*
X50500000Y-119648000D02*
X50464000Y-119613000D01*
X51526000Y-111018000D02*
X51526000Y-121138000D01*
X54486000Y-111018000D02*
X44565000Y-111018000D01*
X54486000Y-111018000D02*
X54486000Y-121138000D01*
X54486000Y-121138000D02*
X44565000Y-121138000D01*
X47544747Y-113606805D02*
G75*
G02*
X47690000Y-112894000I1680254J28806D01*
G01*
X47690244Y-114261318D02*
G75*
G02*
X47545000Y-113578000I1534756J683318D01*
G01*
X48541958Y-112042573D02*
G75*
G02*
X49909000Y-112043000I683041J-1535420D01*
G01*
X49908042Y-115113427D02*
G75*
G02*
X48541000Y-115113000I-683042J1535427D01*
G01*
X50760427Y-112894958D02*
G75*
G02*
X50760000Y-114262000I-1535420J-683041D01*
G01*
X50905000Y-118578000D02*
G75*
G02*
X47545000Y-118578000I-1680000J0D01*
G01*
X47545000Y-118578000D02*
G75*
G02*
X50905000Y-118578000I1680000J0D01*
G01*
%TO.C,D4*%
X83930000Y-70915000D02*
X83930000Y-76355000D01*
X83930000Y-76355000D02*
X86870000Y-76355000D01*
X85400000Y-69895000D02*
X85400000Y-70915000D01*
X85400000Y-77375000D02*
X85400000Y-76355000D01*
X86870000Y-70915000D02*
X83930000Y-70915000D01*
X86870000Y-71695000D02*
X83930000Y-71695000D01*
X86870000Y-71815000D02*
X83930000Y-71815000D01*
X86870000Y-71935000D02*
X83930000Y-71935000D01*
X86870000Y-76355000D02*
X86870000Y-70915000D01*
%TO.C,Q3*%
X101020000Y-129565000D02*
X101020000Y-125965000D01*
X96820000Y-126655000D02*
G75*
G02*
X98071629Y-125409542I2350000J-1110000D01*
G01*
X98066158Y-130132199D02*
G75*
G02*
X96820000Y-128905000I1103842J2367199D01*
G01*
X100292795Y-125440816D02*
G75*
G02*
X101020000Y-125965000I-1122795J-2324184D01*
G01*
X101020000Y-129565000D02*
G75*
G02*
X100292795Y-130089184I-1850000J1800000D01*
G01*
%TO.C,C8*%
X184658918Y-78086000D02*
X185908918Y-78086000D01*
X185283918Y-77461000D02*
X185283918Y-78711000D01*
X191476000Y-75331000D02*
X191476000Y-87991000D01*
X191516000Y-75331000D02*
X191516000Y-87991000D01*
X191556000Y-75331000D02*
X191556000Y-87991000D01*
X191596000Y-75332000D02*
X191596000Y-87990000D01*
X191636000Y-75333000D02*
X191636000Y-87989000D01*
X191676000Y-75334000D02*
X191676000Y-87988000D01*
X191716000Y-75335000D02*
X191716000Y-87987000D01*
X191756000Y-75337000D02*
X191756000Y-87985000D01*
X191796000Y-75339000D02*
X191796000Y-87983000D01*
X191836000Y-75341000D02*
X191836000Y-87981000D01*
X191876000Y-75343000D02*
X191876000Y-87979000D01*
X191916000Y-75346000D02*
X191916000Y-87976000D01*
X191956000Y-75349000D02*
X191956000Y-87973000D01*
X191996000Y-75352000D02*
X191996000Y-87970000D01*
X192036000Y-75355000D02*
X192036000Y-87967000D01*
X192076000Y-75359000D02*
X192076000Y-87963000D01*
X192116000Y-75363000D02*
X192116000Y-87959000D01*
X192156000Y-75367000D02*
X192156000Y-87955000D01*
X192197000Y-75371000D02*
X192197000Y-87951000D01*
X192237000Y-75376000D02*
X192237000Y-87946000D01*
X192277000Y-75381000D02*
X192277000Y-87941000D01*
X192317000Y-75386000D02*
X192317000Y-87936000D01*
X192357000Y-75392000D02*
X192357000Y-87930000D01*
X192397000Y-75397000D02*
X192397000Y-87925000D01*
X192437000Y-75403000D02*
X192437000Y-87919000D01*
X192477000Y-75409000D02*
X192477000Y-87913000D01*
X192517000Y-75416000D02*
X192517000Y-87906000D01*
X192557000Y-75423000D02*
X192557000Y-80221000D01*
X192557000Y-83101000D02*
X192557000Y-87899000D01*
X192597000Y-75430000D02*
X192597000Y-80221000D01*
X192597000Y-83101000D02*
X192597000Y-87892000D01*
X192637000Y-75437000D02*
X192637000Y-80221000D01*
X192637000Y-83101000D02*
X192637000Y-87885000D01*
X192677000Y-75445000D02*
X192677000Y-80221000D01*
X192677000Y-83101000D02*
X192677000Y-87877000D01*
X192717000Y-75452000D02*
X192717000Y-80221000D01*
X192717000Y-83101000D02*
X192717000Y-87870000D01*
X192757000Y-75460000D02*
X192757000Y-80221000D01*
X192757000Y-83101000D02*
X192757000Y-87862000D01*
X192797000Y-75469000D02*
X192797000Y-80221000D01*
X192797000Y-83101000D02*
X192797000Y-87853000D01*
X192837000Y-75477000D02*
X192837000Y-80221000D01*
X192837000Y-83101000D02*
X192837000Y-87845000D01*
X192877000Y-75486000D02*
X192877000Y-80221000D01*
X192877000Y-83101000D02*
X192877000Y-87836000D01*
X192917000Y-75495000D02*
X192917000Y-80221000D01*
X192917000Y-83101000D02*
X192917000Y-87827000D01*
X192957000Y-75505000D02*
X192957000Y-80221000D01*
X192957000Y-83101000D02*
X192957000Y-87817000D01*
X192997000Y-75515000D02*
X192997000Y-80221000D01*
X192997000Y-83101000D02*
X192997000Y-87807000D01*
X193037000Y-75524000D02*
X193037000Y-80221000D01*
X193037000Y-83101000D02*
X193037000Y-87798000D01*
X193077000Y-75535000D02*
X193077000Y-80221000D01*
X193077000Y-83101000D02*
X193077000Y-87787000D01*
X193117000Y-75545000D02*
X193117000Y-80221000D01*
X193117000Y-83101000D02*
X193117000Y-87777000D01*
X193157000Y-75556000D02*
X193157000Y-80221000D01*
X193157000Y-83101000D02*
X193157000Y-87766000D01*
X193197000Y-75567000D02*
X193197000Y-80221000D01*
X193197000Y-83101000D02*
X193197000Y-87755000D01*
X193237000Y-75578000D02*
X193237000Y-80221000D01*
X193237000Y-83101000D02*
X193237000Y-87744000D01*
X193277000Y-75590000D02*
X193277000Y-80221000D01*
X193277000Y-83101000D02*
X193277000Y-87732000D01*
X193317000Y-75602000D02*
X193317000Y-80221000D01*
X193317000Y-83101000D02*
X193317000Y-87720000D01*
X193357000Y-75614000D02*
X193357000Y-80221000D01*
X193357000Y-83101000D02*
X193357000Y-87708000D01*
X193397000Y-75627000D02*
X193397000Y-80221000D01*
X193397000Y-83101000D02*
X193397000Y-87695000D01*
X193437000Y-75640000D02*
X193437000Y-80221000D01*
X193437000Y-83101000D02*
X193437000Y-87682000D01*
X193477000Y-75653000D02*
X193477000Y-80221000D01*
X193477000Y-83101000D02*
X193477000Y-87669000D01*
X193517000Y-75666000D02*
X193517000Y-80221000D01*
X193517000Y-83101000D02*
X193517000Y-87656000D01*
X193557000Y-75680000D02*
X193557000Y-80221000D01*
X193557000Y-83101000D02*
X193557000Y-87642000D01*
X193597000Y-75694000D02*
X193597000Y-80221000D01*
X193597000Y-83101000D02*
X193597000Y-87628000D01*
X193637000Y-75708000D02*
X193637000Y-80221000D01*
X193637000Y-83101000D02*
X193637000Y-87614000D01*
X193677000Y-75722000D02*
X193677000Y-80221000D01*
X193677000Y-83101000D02*
X193677000Y-87600000D01*
X193717000Y-75737000D02*
X193717000Y-80221000D01*
X193717000Y-83101000D02*
X193717000Y-87585000D01*
X193757000Y-75753000D02*
X193757000Y-80221000D01*
X193757000Y-83101000D02*
X193757000Y-87569000D01*
X193797000Y-75768000D02*
X193797000Y-80221000D01*
X193797000Y-83101000D02*
X193797000Y-87554000D01*
X193837000Y-75784000D02*
X193837000Y-80221000D01*
X193837000Y-83101000D02*
X193837000Y-87538000D01*
X193877000Y-75800000D02*
X193877000Y-80221000D01*
X193877000Y-83101000D02*
X193877000Y-87522000D01*
X193917000Y-75816000D02*
X193917000Y-80221000D01*
X193917000Y-83101000D02*
X193917000Y-87506000D01*
X193957000Y-75833000D02*
X193957000Y-80221000D01*
X193957000Y-83101000D02*
X193957000Y-87489000D01*
X193997000Y-75850000D02*
X193997000Y-80221000D01*
X193997000Y-83101000D02*
X193997000Y-87472000D01*
X194037000Y-75868000D02*
X194037000Y-80221000D01*
X194037000Y-83101000D02*
X194037000Y-87454000D01*
X194077000Y-75885000D02*
X194077000Y-80221000D01*
X194077000Y-83101000D02*
X194077000Y-87437000D01*
X194117000Y-75903000D02*
X194117000Y-80221000D01*
X194117000Y-83101000D02*
X194117000Y-87419000D01*
X194157000Y-75922000D02*
X194157000Y-80221000D01*
X194157000Y-83101000D02*
X194157000Y-87400000D01*
X194197000Y-75940000D02*
X194197000Y-80221000D01*
X194197000Y-83101000D02*
X194197000Y-87382000D01*
X194237000Y-75959000D02*
X194237000Y-80221000D01*
X194237000Y-83101000D02*
X194237000Y-87363000D01*
X194277000Y-75979000D02*
X194277000Y-80221000D01*
X194277000Y-83101000D02*
X194277000Y-87343000D01*
X194317000Y-75999000D02*
X194317000Y-80221000D01*
X194317000Y-83101000D02*
X194317000Y-87323000D01*
X194357000Y-76019000D02*
X194357000Y-80221000D01*
X194357000Y-83101000D02*
X194357000Y-87303000D01*
X194397000Y-76039000D02*
X194397000Y-80221000D01*
X194397000Y-83101000D02*
X194397000Y-87283000D01*
X194437000Y-76060000D02*
X194437000Y-80221000D01*
X194437000Y-83101000D02*
X194437000Y-87262000D01*
X194477000Y-76081000D02*
X194477000Y-80221000D01*
X194477000Y-83101000D02*
X194477000Y-87241000D01*
X194517000Y-76103000D02*
X194517000Y-80221000D01*
X194517000Y-83101000D02*
X194517000Y-87219000D01*
X194557000Y-76125000D02*
X194557000Y-80221000D01*
X194557000Y-83101000D02*
X194557000Y-87197000D01*
X194597000Y-76147000D02*
X194597000Y-80221000D01*
X194597000Y-83101000D02*
X194597000Y-87175000D01*
X194637000Y-76170000D02*
X194637000Y-80221000D01*
X194637000Y-83101000D02*
X194637000Y-87152000D01*
X194677000Y-76193000D02*
X194677000Y-80221000D01*
X194677000Y-83101000D02*
X194677000Y-87129000D01*
X194717000Y-76216000D02*
X194717000Y-80221000D01*
X194717000Y-83101000D02*
X194717000Y-87106000D01*
X194757000Y-76240000D02*
X194757000Y-80221000D01*
X194757000Y-83101000D02*
X194757000Y-87082000D01*
X194797000Y-76264000D02*
X194797000Y-80221000D01*
X194797000Y-83101000D02*
X194797000Y-87058000D01*
X194837000Y-76289000D02*
X194837000Y-80221000D01*
X194837000Y-83101000D02*
X194837000Y-87033000D01*
X194877000Y-76314000D02*
X194877000Y-80221000D01*
X194877000Y-83101000D02*
X194877000Y-87008000D01*
X194917000Y-76339000D02*
X194917000Y-80221000D01*
X194917000Y-83101000D02*
X194917000Y-86983000D01*
X194957000Y-76365000D02*
X194957000Y-80221000D01*
X194957000Y-83101000D02*
X194957000Y-86957000D01*
X194997000Y-76391000D02*
X194997000Y-80221000D01*
X194997000Y-83101000D02*
X194997000Y-86931000D01*
X195037000Y-76418000D02*
X195037000Y-80221000D01*
X195037000Y-83101000D02*
X195037000Y-86904000D01*
X195077000Y-76445000D02*
X195077000Y-80221000D01*
X195077000Y-83101000D02*
X195077000Y-86877000D01*
X195117000Y-76473000D02*
X195117000Y-80221000D01*
X195117000Y-83101000D02*
X195117000Y-86849000D01*
X195157000Y-76501000D02*
X195157000Y-80221000D01*
X195157000Y-83101000D02*
X195157000Y-86821000D01*
X195197000Y-76530000D02*
X195197000Y-80221000D01*
X195197000Y-83101000D02*
X195197000Y-86792000D01*
X195237000Y-76559000D02*
X195237000Y-80221000D01*
X195237000Y-83101000D02*
X195237000Y-86763000D01*
X195277000Y-76588000D02*
X195277000Y-80221000D01*
X195277000Y-83101000D02*
X195277000Y-86734000D01*
X195317000Y-76618000D02*
X195317000Y-80221000D01*
X195317000Y-83101000D02*
X195317000Y-86704000D01*
X195357000Y-76649000D02*
X195357000Y-80221000D01*
X195357000Y-83101000D02*
X195357000Y-86673000D01*
X195397000Y-76679000D02*
X195397000Y-80221000D01*
X195397000Y-83101000D02*
X195397000Y-86643000D01*
X195437000Y-76711000D02*
X195437000Y-86611000D01*
X195477000Y-76743000D02*
X195477000Y-86579000D01*
X195517000Y-76776000D02*
X195517000Y-86546000D01*
X195557000Y-76809000D02*
X195557000Y-86513000D01*
X195597000Y-76842000D02*
X195597000Y-86480000D01*
X195637000Y-76876000D02*
X195637000Y-86446000D01*
X195677000Y-76911000D02*
X195677000Y-86411000D01*
X195717000Y-76947000D02*
X195717000Y-86375000D01*
X195757000Y-76983000D02*
X195757000Y-86339000D01*
X195797000Y-77019000D02*
X195797000Y-86303000D01*
X195837000Y-77056000D02*
X195837000Y-86266000D01*
X195877000Y-77094000D02*
X195877000Y-86228000D01*
X195917000Y-77133000D02*
X195917000Y-86189000D01*
X195957000Y-77172000D02*
X195957000Y-86150000D01*
X195997000Y-77212000D02*
X195997000Y-86110000D01*
X196037000Y-77253000D02*
X196037000Y-86069000D01*
X196077000Y-77294000D02*
X196077000Y-86028000D01*
X196117000Y-77336000D02*
X196117000Y-85986000D01*
X196157000Y-77379000D02*
X196157000Y-85943000D01*
X196197000Y-77423000D02*
X196197000Y-85899000D01*
X196237000Y-77467000D02*
X196237000Y-85855000D01*
X196277000Y-77513000D02*
X196277000Y-85809000D01*
X196317000Y-77559000D02*
X196317000Y-85763000D01*
X196357000Y-77606000D02*
X196357000Y-85716000D01*
X196397000Y-77654000D02*
X196397000Y-85668000D01*
X196437000Y-77704000D02*
X196437000Y-85618000D01*
X196477000Y-77754000D02*
X196477000Y-85568000D01*
X196517000Y-77805000D02*
X196517000Y-85517000D01*
X196557000Y-77857000D02*
X196557000Y-85465000D01*
X196597000Y-77911000D02*
X196597000Y-85411000D01*
X196637000Y-77965000D02*
X196637000Y-85357000D01*
X196677000Y-78021000D02*
X196677000Y-85301000D01*
X196717000Y-78078000D02*
X196717000Y-85244000D01*
X196757000Y-78137000D02*
X196757000Y-85185000D01*
X196797000Y-78197000D02*
X196797000Y-85125000D01*
X196837000Y-78259000D02*
X196837000Y-85063000D01*
X196877000Y-78322000D02*
X196877000Y-85000000D01*
X196917000Y-78386000D02*
X196917000Y-84936000D01*
X196957000Y-78453000D02*
X196957000Y-84869000D01*
X196997000Y-78521000D02*
X196997000Y-84801000D01*
X197037000Y-78592000D02*
X197037000Y-84730000D01*
X197077000Y-78665000D02*
X197077000Y-84657000D01*
X197117000Y-78740000D02*
X197117000Y-84582000D01*
X197157000Y-78817000D02*
X197157000Y-84505000D01*
X197197000Y-78897000D02*
X197197000Y-84425000D01*
X197237000Y-78980000D02*
X197237000Y-84342000D01*
X197277000Y-79067000D02*
X197277000Y-84255000D01*
X197317000Y-79157000D02*
X197317000Y-84165000D01*
X197357000Y-79251000D02*
X197357000Y-84071000D01*
X197397000Y-79349000D02*
X197397000Y-83973000D01*
X197437000Y-79452000D02*
X197437000Y-83870000D01*
X197477000Y-79561000D02*
X197477000Y-83761000D01*
X197517000Y-79677000D02*
X197517000Y-83645000D01*
X197557000Y-79800000D02*
X197557000Y-83522000D01*
X197597000Y-79933000D02*
X197597000Y-83389000D01*
X197637000Y-80078000D02*
X197637000Y-83244000D01*
X197677000Y-80239000D02*
X197677000Y-83083000D01*
X197717000Y-80420000D02*
X197717000Y-82902000D01*
X197757000Y-80633000D02*
X197757000Y-82689000D01*
X197797000Y-80904000D02*
X197797000Y-82418000D01*
X197837000Y-81344000D02*
X197837000Y-81978000D01*
X197846000Y-81661000D02*
G75*
G02*
X185106000Y-81661000I-6370000J0D01*
G01*
X185106000Y-81661000D02*
G75*
G02*
X197846000Y-81661000I6370000J0D01*
G01*
%TO.C,Q4*%
X118510000Y-120195000D02*
X118510000Y-116595000D01*
X114310000Y-117285000D02*
G75*
G02*
X115561629Y-116039542I2350000J-1110000D01*
G01*
X115556158Y-120762199D02*
G75*
G02*
X114310000Y-119535000I1103842J2367199D01*
G01*
X117782795Y-116070816D02*
G75*
G02*
X118510000Y-116595000I-1122795J-2324184D01*
G01*
X118510000Y-120195000D02*
G75*
G02*
X117782795Y-120719184I-1850000J1800000D01*
G01*
%TO.C,R13*%
X94921400Y-96806000D02*
X94921400Y-103346000D01*
X94921400Y-103346000D02*
X97661400Y-103346000D01*
X96291400Y-96036000D02*
X96291400Y-96806000D01*
X96291400Y-104116000D02*
X96291400Y-103346000D01*
X97661400Y-96806000D02*
X94921400Y-96806000D01*
X97661400Y-103346000D02*
X97661400Y-96806000D01*
%TO.C,R5*%
X131599000Y-126016000D02*
X131599000Y-132556000D01*
X131599000Y-132556000D02*
X134339000Y-132556000D01*
X132969000Y-125246000D02*
X132969000Y-126016000D01*
X132969000Y-133326000D02*
X132969000Y-132556000D01*
X134339000Y-126016000D02*
X131599000Y-126016000D01*
X134339000Y-132556000D02*
X134339000Y-126016000D01*
%TO.C,R4*%
X94100800Y-118509800D02*
X94870800Y-118509800D01*
X94870800Y-117139800D02*
X94870800Y-119879800D01*
X94870800Y-119879800D02*
X101410800Y-119879800D01*
X101410800Y-117139800D02*
X94870800Y-117139800D01*
X101410800Y-119879800D02*
X101410800Y-117139800D01*
X102180800Y-118509800D02*
X101410800Y-118509800D01*
%TO.C,D2*%
X88030000Y-125075000D02*
X88030000Y-130515000D01*
X88030000Y-129495000D02*
X90970000Y-129495000D01*
X88030000Y-129615000D02*
X90970000Y-129615000D01*
X88030000Y-129735000D02*
X90970000Y-129735000D01*
X88030000Y-130515000D02*
X90970000Y-130515000D01*
X89500000Y-124055000D02*
X89500000Y-125075000D01*
X89500000Y-131535000D02*
X89500000Y-130515000D01*
X90970000Y-125075000D02*
X88030000Y-125075000D01*
X90970000Y-130515000D02*
X90970000Y-125075000D01*
%TO.C,Q2*%
X142272000Y-80732000D02*
X146913000Y-80732000D01*
X142272000Y-84001000D02*
X143782000Y-84001000D01*
X142272000Y-87702000D02*
X143782000Y-87702000D01*
X142272000Y-90972000D02*
X142272000Y-80732000D01*
X142272000Y-90972000D02*
X146913000Y-90972000D01*
X143782000Y-90972000D02*
X143782000Y-80732000D01*
X146913000Y-90972000D02*
X146913000Y-80732000D01*
%TD*%
M02*
