%TF.GenerationSoftware,KiCad,Pcbnew,8.0.5*%
%TF.CreationDate,2024-10-14T07:35:35-07:00*%
%TF.ProjectId,Power_Amp_RevB,506f7765-725f-4416-9d70-5f526576422e,A*%
%TF.SameCoordinates,Original*%
%TF.FileFunction,Copper,L1,Top*%
%TF.FilePolarity,Positive*%
%FSLAX46Y46*%
G04 Gerber Fmt 4.6, Leading zero omitted, Abs format (unit mm)*
G04 Created by KiCad (PCBNEW 8.0.5) date 2024-10-14 07:35:35*
%MOMM*%
%LPD*%
G01*
G04 APERTURE LIST*
%TA.AperFunction,ComponentPad*%
%ADD10C,1.600000*%
%TD*%
%TA.AperFunction,ComponentPad*%
%ADD11O,1.600000X1.600000*%
%TD*%
%TA.AperFunction,ComponentPad*%
%ADD12C,2.000000*%
%TD*%
%TA.AperFunction,ComponentPad*%
%ADD13C,7.000000*%
%TD*%
%TA.AperFunction,ComponentPad*%
%ADD14R,2.600000X2.600000*%
%TD*%
%TA.AperFunction,ComponentPad*%
%ADD15C,2.600000*%
%TD*%
%TA.AperFunction,ComponentPad*%
%ADD16R,1.600000X1.600000*%
%TD*%
%TA.AperFunction,ComponentPad*%
%ADD17R,2.000000X1.905000*%
%TD*%
%TA.AperFunction,ComponentPad*%
%ADD18O,2.000000X1.905000*%
%TD*%
%TA.AperFunction,ComponentPad*%
%ADD19R,1.500000X1.500000*%
%TD*%
%TA.AperFunction,ComponentPad*%
%ADD20C,1.500000*%
%TD*%
%TA.AperFunction,ComponentPad*%
%ADD21R,2.200000X2.200000*%
%TD*%
%TA.AperFunction,ComponentPad*%
%ADD22O,2.200000X2.200000*%
%TD*%
%TA.AperFunction,ComponentPad*%
%ADD23C,1.440000*%
%TD*%
%TA.AperFunction,ComponentPad*%
%ADD24R,2.400000X2.400000*%
%TD*%
%TA.AperFunction,ComponentPad*%
%ADD25C,2.400000*%
%TD*%
%TA.AperFunction,ViaPad*%
%ADD26C,0.600000*%
%TD*%
%TA.AperFunction,Conductor*%
%ADD27C,0.508000*%
%TD*%
G04 APERTURE END LIST*
D10*
%TO.P,R8,1*%
%TO.N,Net-(Q3-B)*%
X68120000Y-127265000D03*
D11*
%TO.P,R8,2*%
%TO.N,GND*%
X78280000Y-127265000D03*
%TD*%
D10*
%TO.P,R14,1*%
%TO.N,Net-(C8-Pad1)*%
X103980000Y-83665000D03*
D11*
%TO.P,R14,2*%
%TO.N,Net-(Q6-B)*%
X93820000Y-83665000D03*
%TD*%
D12*
%TO.P,TP1,1,1*%
%TO.N,Net-(J1-Pin_1)*%
X181102000Y-117221000D03*
%TD*%
D10*
%TO.P,R12,1*%
%TO.N,Net-(Q6-B)*%
X72542400Y-82651600D03*
D11*
%TO.P,R12,2*%
%TO.N,GND*%
X72542400Y-92811600D03*
%TD*%
D10*
%TO.P,C1,1*%
%TO.N,/18V*%
X174972800Y-100509800D03*
%TO.P,C1,2*%
%TO.N,GND*%
X174972800Y-105509800D03*
%TD*%
D13*
%TO.P,H1,1,1*%
%TO.N,GND*%
X43180000Y-67818000D03*
%TD*%
%TO.P,H3,1,1*%
%TO.N,GND*%
X43180000Y-133604000D03*
%TD*%
D10*
%TO.P,R15,1*%
%TO.N,Net-(Q2-B)*%
X126900000Y-86865000D03*
D11*
%TO.P,R15,2*%
%TO.N,/18V*%
X126900000Y-97025000D03*
%TD*%
D14*
%TO.P,J3,1,Pin_1*%
%TO.N,/18V*%
X49000000Y-89265000D03*
D15*
%TO.P,J3,2,Pin_2*%
%TO.N,GND*%
X49000000Y-94265000D03*
%TD*%
D13*
%TO.P,H4,1,1*%
%TO.N,GND*%
X210820000Y-134112000D03*
%TD*%
%TO.P,H2,1,1*%
%TO.N,GND*%
X210820000Y-68326000D03*
%TD*%
D10*
%TO.P,R3,1*%
%TO.N,Net-(Q1-E)*%
X127400000Y-110685000D03*
D11*
%TO.P,R3,2*%
%TO.N,Net-(J1-Pin_1)*%
X127400000Y-120845000D03*
%TD*%
D16*
%TO.P,C3,1*%
%TO.N,Net-(J2-Pin_1)*%
X49209888Y-127127000D03*
D10*
%TO.P,C3,2*%
%TO.N,Net-(C3-Pad2)*%
X51209888Y-127127000D03*
%TD*%
D17*
%TO.P,Q9,1,B*%
%TO.N,Net-(Q1-C)*%
X145542000Y-118364000D03*
D18*
%TO.P,Q9,2,C*%
%TO.N,Net-(Q1-E)*%
X145542000Y-115824000D03*
%TO.P,Q9,3,E*%
%TO.N,/18V*%
X145542000Y-113284000D03*
%TD*%
D10*
%TO.P,R2,1*%
%TO.N,Net-(Q1-C)*%
X135382000Y-115443000D03*
D11*
%TO.P,R2,2*%
%TO.N,/18V*%
X135382000Y-105283000D03*
%TD*%
D16*
%TO.P,C5,1*%
%TO.N,Net-(J2-Pin_2)*%
X49880800Y-74694800D03*
D10*
%TO.P,C5,2*%
%TO.N,Net-(C5-Pad2)*%
X51880800Y-74694800D03*
%TD*%
D19*
%TO.P,Q6,1,E*%
%TO.N,GND*%
X98500000Y-76665000D03*
D20*
%TO.P,Q6,2,B*%
%TO.N,Net-(Q6-B)*%
X95960000Y-74125000D03*
%TO.P,Q6,3,C*%
%TO.N,Net-(D4-K)*%
X98500000Y-71585000D03*
%TD*%
D21*
%TO.P,D3,1,K*%
%TO.N,Net-(D3-K)*%
X83000000Y-82555000D03*
D22*
%TO.P,D3,2,A*%
%TO.N,Net-(D3-A)*%
X83000000Y-92715000D03*
%TD*%
D10*
%TO.P,C6,1*%
%TO.N,Net-(D4-K)*%
X107600000Y-69665000D03*
%TO.P,C6,2*%
%TO.N,GND*%
X107600000Y-74665000D03*
%TD*%
%TO.P,R10,1*%
%TO.N,Net-(Q6-B)*%
X62080000Y-82265000D03*
D11*
%TO.P,R10,2*%
%TO.N,Net-(C5-Pad2)*%
X51920000Y-82265000D03*
%TD*%
D17*
%TO.P,Q5,1,B*%
%TO.N,Net-(Q4-C)*%
X170942000Y-120904000D03*
D18*
%TO.P,Q5,2,C*%
%TO.N,Net-(Q4-E)*%
X170942000Y-123444000D03*
%TO.P,Q5,3,E*%
%TO.N,GND*%
X170942000Y-125984000D03*
%TD*%
D10*
%TO.P,C4,1*%
%TO.N,Net-(D2-K)*%
X107300000Y-123065000D03*
%TO.P,C4,2*%
%TO.N,GND*%
X107300000Y-128065000D03*
%TD*%
%TO.P,R6,1*%
%TO.N,Net-(Q3-B)*%
X68080000Y-132465000D03*
D11*
%TO.P,R6,2*%
%TO.N,Net-(C3-Pad2)*%
X57920000Y-132465000D03*
%TD*%
D17*
%TO.P,Q10,1,B*%
%TO.N,Net-(Q10-B)*%
X170561000Y-75692000D03*
D18*
%TO.P,Q10,2,C*%
%TO.N,Net-(Q10-C)*%
X170561000Y-78232000D03*
%TO.P,Q10,3,E*%
%TO.N,GND*%
X170561000Y-80772000D03*
%TD*%
D23*
%TO.P,RV1,1,1*%
%TO.N,Net-(Q6-B)*%
X72669400Y-73025000D03*
%TO.P,RV1,2,2*%
%TO.N,GND*%
X70129400Y-70485000D03*
%TO.P,RV1,3,3*%
X67589400Y-73025000D03*
%TD*%
D10*
%TO.P,C7,1*%
%TO.N,/18V*%
X182372000Y-100457000D03*
%TO.P,C7,2*%
%TO.N,GND*%
X182372000Y-105457000D03*
%TD*%
%TO.P,R16,1*%
%TO.N,Net-(Q10-B)*%
X129320000Y-71365000D03*
D11*
%TO.P,R16,2*%
%TO.N,GND*%
X139480000Y-71365000D03*
%TD*%
D21*
%TO.P,D1,1,K*%
%TO.N,Net-(D1-K)*%
X82300000Y-122575000D03*
D22*
%TO.P,D1,2,A*%
%TO.N,Net-(D1-A)*%
X82300000Y-112415000D03*
%TD*%
D10*
%TO.P,R9,1*%
%TO.N,Net-(Q4-C)*%
X125280000Y-127165000D03*
D11*
%TO.P,R9,2*%
%TO.N,GND*%
X115120000Y-127165000D03*
%TD*%
D14*
%TO.P,J1,1,Pin_1*%
%TO.N,Net-(J1-Pin_1)*%
X197155000Y-104227000D03*
D15*
%TO.P,J1,2,Pin_2*%
%TO.N,Net-(J1-Pin_2)*%
X197155000Y-99227000D03*
%TD*%
D19*
%TO.P,Q8,1,E*%
%TO.N,Net-(Q10-C)*%
X115316000Y-85463000D03*
D20*
%TO.P,Q8,2,B*%
%TO.N,Net-(D4-K)*%
X112776000Y-88003000D03*
%TO.P,Q8,3,C*%
%TO.N,Net-(Q10-B)*%
X110236000Y-85463000D03*
%TD*%
D10*
%TO.P,R18,1*%
%TO.N,Net-(C8-Pad1)*%
X121600000Y-78045000D03*
D11*
%TO.P,R18,2*%
%TO.N,Net-(Q10-C)*%
X121600000Y-67885000D03*
%TD*%
D23*
%TO.P,RV2,1,1*%
%TO.N,Net-(Q3-B)*%
X72840000Y-116250000D03*
%TO.P,RV2,2,2*%
%TO.N,GND*%
X70300000Y-113710000D03*
%TO.P,RV2,3,3*%
X67760000Y-116250000D03*
%TD*%
D19*
%TO.P,Q1,1,E*%
%TO.N,Net-(Q1-E)*%
X104402000Y-113665000D03*
D20*
%TO.P,Q1,2,B*%
%TO.N,Net-(D1-A)*%
X101862000Y-111125000D03*
%TO.P,Q1,3,C*%
%TO.N,Net-(Q1-C)*%
X104402000Y-108585000D03*
%TD*%
D10*
%TO.P,R17,1*%
%TO.N,Net-(Q2-C)*%
X135509000Y-87020400D03*
D11*
%TO.P,R17,2*%
%TO.N,Net-(C8-Pad1)*%
X135509000Y-76860400D03*
%TD*%
D12*
%TO.P,TP2,1,1*%
%TO.N,Net-(C8-Pad1)*%
X180848000Y-89789000D03*
%TD*%
D10*
%TO.P,R1,1*%
%TO.N,/18V*%
X89885800Y-105174800D03*
D11*
%TO.P,R1,2*%
%TO.N,Net-(D1-A)*%
X89885800Y-115334800D03*
%TD*%
D19*
%TO.P,Q7,1,E*%
%TO.N,Net-(Q2-C)*%
X109220000Y-93345000D03*
D20*
%TO.P,Q7,2,B*%
%TO.N,Net-(D3-A)*%
X111760000Y-95885000D03*
%TO.P,Q7,3,C*%
%TO.N,Net-(Q2-B)*%
X109220000Y-98425000D03*
%TD*%
D14*
%TO.P,J2,1,Pin_1*%
%TO.N,Net-(J2-Pin_1)*%
X49225000Y-113578000D03*
D15*
%TO.P,J2,2,Pin_2*%
%TO.N,Net-(J2-Pin_2)*%
X49225000Y-118578000D03*
%TD*%
D21*
%TO.P,D4,1,K*%
%TO.N,Net-(D4-K)*%
X85400000Y-68555000D03*
D22*
%TO.P,D4,2,A*%
%TO.N,Net-(D3-K)*%
X85400000Y-78715000D03*
%TD*%
D19*
%TO.P,Q3,1,E*%
%TO.N,GND*%
X99170000Y-130305000D03*
D20*
%TO.P,Q3,2,B*%
%TO.N,Net-(Q3-B)*%
X96630000Y-127765000D03*
%TO.P,Q3,3,C*%
%TO.N,Net-(D2-K)*%
X99170000Y-125225000D03*
%TD*%
D24*
%TO.P,C8,1*%
%TO.N,Net-(C8-Pad1)*%
X188976000Y-81661000D03*
D25*
%TO.P,C8,2*%
%TO.N,Net-(J1-Pin_2)*%
X193976000Y-81661000D03*
%TD*%
D19*
%TO.P,Q4,1,E*%
%TO.N,Net-(Q4-E)*%
X116660000Y-120935000D03*
D20*
%TO.P,Q4,2,B*%
%TO.N,Net-(D2-K)*%
X114120000Y-118395000D03*
%TO.P,Q4,3,C*%
%TO.N,Net-(Q4-C)*%
X116660000Y-115855000D03*
%TD*%
D10*
%TO.P,R13,1*%
%TO.N,/18V*%
X96291400Y-105156000D03*
D11*
%TO.P,R13,2*%
%TO.N,Net-(D3-A)*%
X96291400Y-94996000D03*
%TD*%
D10*
%TO.P,R5,1*%
%TO.N,Net-(J1-Pin_1)*%
X132969000Y-124206000D03*
D11*
%TO.P,R5,2*%
%TO.N,Net-(Q4-E)*%
X132969000Y-134366000D03*
%TD*%
D10*
%TO.P,R4,1*%
%TO.N,Net-(J1-Pin_1)*%
X103220800Y-118509800D03*
D11*
%TO.P,R4,2*%
%TO.N,Net-(Q3-B)*%
X93060800Y-118509800D03*
%TD*%
D21*
%TO.P,D2,1,K*%
%TO.N,Net-(D2-K)*%
X89500000Y-132875000D03*
D22*
%TO.P,D2,2,A*%
%TO.N,Net-(D1-K)*%
X89500000Y-122715000D03*
%TD*%
D17*
%TO.P,Q2,1,B*%
%TO.N,Net-(Q2-B)*%
X145542000Y-88392000D03*
D18*
%TO.P,Q2,2,C*%
%TO.N,Net-(Q2-C)*%
X145542000Y-85852000D03*
%TO.P,Q2,3,E*%
%TO.N,/18V*%
X145542000Y-83312000D03*
%TD*%
D26*
%TO.N,GND*%
X62200000Y-73565000D03*
X159385000Y-119380000D03*
X158496000Y-80518000D03*
X57500000Y-99965000D03*
%TD*%
D27*
%TO.N,Net-(Q10-C)*%
X115316000Y-74169000D02*
X115316000Y-85463000D01*
X121600000Y-67885000D02*
X115316000Y-74169000D01*
%TO.N,Net-(Q2-C)*%
X124917200Y-83235800D02*
X129438400Y-83235800D01*
X109220000Y-93345000D02*
X114808000Y-93345000D01*
X129438400Y-83235800D02*
X133223000Y-87020400D01*
X114808000Y-93345000D02*
X124917200Y-83235800D01*
X133223000Y-87020400D02*
X135509000Y-87020400D01*
%TO.N,Net-(Q10-B)*%
X110236000Y-88773000D02*
X110236000Y-85463000D01*
X114168000Y-90297000D02*
X111760000Y-90297000D01*
X129320000Y-78145000D02*
X126400000Y-81065000D01*
X129320000Y-71365000D02*
X129320000Y-78145000D01*
X131000000Y-68465000D02*
X163334000Y-68465000D01*
X129320000Y-71365000D02*
X129320000Y-70145000D01*
X163334000Y-68465000D02*
X170561000Y-75692000D01*
X129320000Y-70145000D02*
X131000000Y-68465000D01*
X111760000Y-90297000D02*
X110236000Y-88773000D01*
X126400000Y-81065000D02*
X123400000Y-81065000D01*
X123400000Y-81065000D02*
X114168000Y-90297000D01*
%TO.N,Net-(D3-K)*%
X84450000Y-82555000D02*
X85400000Y-81605000D01*
X83000000Y-82555000D02*
X84450000Y-82555000D01*
X85400000Y-81605000D02*
X85400000Y-78715000D01*
%TO.N,Net-(D3-A)*%
X96291400Y-94996000D02*
X91567000Y-94996000D01*
X111760000Y-95885000D02*
X97180400Y-95885000D01*
X97180400Y-95885000D02*
X96291400Y-94996000D01*
X91567000Y-94996000D02*
X89286000Y-92715000D01*
X89286000Y-92715000D02*
X83000000Y-92715000D01*
%TO.N,Net-(C5-Pad2)*%
X51880800Y-82204200D02*
X51820000Y-82265000D01*
X51880800Y-74694800D02*
X51880800Y-82225800D01*
X51880800Y-82225800D02*
X51920000Y-82265000D01*
X51900000Y-74714000D02*
X51880800Y-74694800D01*
%TO.N,Net-(Q4-C)*%
X116990000Y-115855000D02*
X116660000Y-115855000D01*
X125280000Y-127165000D02*
X125280000Y-124475000D01*
X125280000Y-124475000D02*
X116660000Y-115855000D01*
%TO.N,Net-(D1-K)*%
X82229200Y-122504200D02*
X82300000Y-122575000D01*
X82300000Y-122575000D02*
X89360000Y-122575000D01*
X89500000Y-122715000D02*
X89500000Y-122070600D01*
X89360000Y-122575000D02*
X89500000Y-122715000D01*
%TO.N,Net-(Q4-E)*%
X115824000Y-134366000D02*
X132969000Y-134366000D01*
X112500000Y-131042000D02*
X115824000Y-134366000D01*
X116660000Y-120935000D02*
X112500000Y-125095000D01*
X112500000Y-125095000D02*
X112500000Y-131042000D01*
%TO.N,Net-(D1-A)*%
X89885800Y-115334800D02*
X97652200Y-115334800D01*
X84550000Y-112415000D02*
X82300000Y-112415000D01*
X89885800Y-115334800D02*
X87469800Y-115334800D01*
X97652200Y-115334800D02*
X101862000Y-111125000D01*
X87469800Y-115334800D02*
X84550000Y-112415000D01*
%TO.N,Net-(Q1-C)*%
X135382000Y-113157000D02*
X135382000Y-115443000D01*
X135382000Y-115443000D02*
X138303000Y-118364000D01*
X130810000Y-108585000D02*
X135382000Y-113157000D01*
X104402000Y-108585000D02*
X130810000Y-108585000D01*
X138303000Y-118364000D02*
X145542000Y-118364000D01*
%TO.N,Net-(Q1-E)*%
X127188600Y-110896400D02*
X127400000Y-110685000D01*
%TO.N,Net-(Q2-B)*%
X126900000Y-86865000D02*
X126852200Y-86817200D01*
X133680200Y-90297000D02*
X140081000Y-90297000D01*
X126852200Y-86817200D02*
X125247400Y-86817200D01*
X141986000Y-88392000D02*
X145542000Y-88392000D01*
X130248200Y-86865000D02*
X133680200Y-90297000D01*
X126900000Y-86865000D02*
X130248200Y-86865000D01*
X125247400Y-86817200D02*
X113639600Y-98425000D01*
X113639600Y-98425000D02*
X109220000Y-98425000D01*
X140081000Y-90297000D02*
X141986000Y-88392000D01*
%TO.N,Net-(D4-K)*%
X85400000Y-68555000D02*
X87026000Y-66929000D01*
X112776000Y-83341000D02*
X112776000Y-88003000D01*
X93844000Y-66929000D02*
X98500000Y-71585000D01*
X87026000Y-66929000D02*
X93844000Y-66929000D01*
X110600000Y-72665000D02*
X107600000Y-69665000D01*
X110600000Y-81165000D02*
X112776000Y-83341000D01*
X110600000Y-81165000D02*
X110600000Y-72665000D01*
X107600000Y-69665000D02*
X100420000Y-69665000D01*
X100420000Y-69665000D02*
X98500000Y-71585000D01*
%TO.N,Net-(D2-K)*%
X107300000Y-123065000D02*
X107300000Y-121173000D01*
X107300000Y-121173000D02*
X110078000Y-118395000D01*
X110078000Y-118395000D02*
X114120000Y-118395000D01*
%TO.N,Net-(J1-Pin_1)*%
X107710000Y-114020600D02*
X120345200Y-114020600D01*
X103220800Y-118509800D02*
X107710000Y-114020600D01*
X127169600Y-120845000D02*
X127400000Y-120845000D01*
X120345200Y-114020600D02*
X127169600Y-120845000D01*
%TO.N,Net-(Q3-B)*%
X68120000Y-127265000D02*
X68120000Y-132425000D01*
X68120000Y-132425000D02*
X68080000Y-132465000D01*
X68120000Y-120970000D02*
X72840000Y-116250000D01*
X68120000Y-127265000D02*
X68120000Y-120970000D01*
%TO.N,Net-(Q6-B)*%
X93820000Y-76265000D02*
X95960000Y-74125000D01*
X93820000Y-83665000D02*
X93820000Y-76265000D01*
X72639000Y-82555000D02*
X72542400Y-82651600D01*
X72542400Y-82651600D02*
X72155800Y-82265000D01*
X72542400Y-82651600D02*
X72542400Y-72800000D01*
X72155800Y-82265000D02*
X62080000Y-82265000D01*
X72542400Y-72800000D02*
X72560000Y-72782400D01*
%TD*%
%TA.AperFunction,Conductor*%
%TO.N,GND*%
G36*
X215140880Y-63499910D02*
G01*
X215207904Y-63519643D01*
X215253621Y-63572480D01*
X215264789Y-63624120D01*
X215138209Y-138306120D01*
X215118411Y-138373126D01*
X215065529Y-138418792D01*
X215014120Y-138429910D01*
X39239911Y-138303089D01*
X39172885Y-138283356D01*
X39127168Y-138230519D01*
X39116000Y-138179089D01*
X39116000Y-134833828D01*
X39135685Y-134766789D01*
X39188489Y-134721034D01*
X39257647Y-134711090D01*
X39321203Y-134740115D01*
X39356751Y-134792054D01*
X39480016Y-135136559D01*
X39480023Y-135136575D01*
X39648062Y-135491864D01*
X39850109Y-135828958D01*
X40084228Y-136144632D01*
X40180068Y-136250376D01*
X40180069Y-136250376D01*
X41778381Y-134652064D01*
X41861457Y-134760331D01*
X42023669Y-134922543D01*
X42131934Y-135005617D01*
X40533622Y-136603929D01*
X40533622Y-136603930D01*
X40639367Y-136699771D01*
X40955041Y-136933890D01*
X41292135Y-137135937D01*
X41647424Y-137303976D01*
X41647440Y-137303983D01*
X42017450Y-137436374D01*
X42398691Y-137531870D01*
X42787449Y-137589538D01*
X43180000Y-137608823D01*
X43572550Y-137589538D01*
X43961308Y-137531870D01*
X44342549Y-137436374D01*
X44712559Y-137303983D01*
X44712575Y-137303976D01*
X45067864Y-137135937D01*
X45404958Y-136933890D01*
X45720632Y-136699770D01*
X45826376Y-136603929D01*
X44228065Y-135005618D01*
X44336331Y-134922543D01*
X44498543Y-134760331D01*
X44581618Y-134652065D01*
X46179929Y-136250376D01*
X46275770Y-136144632D01*
X46509890Y-135828958D01*
X46711937Y-135491864D01*
X46879976Y-135136575D01*
X46879983Y-135136559D01*
X47012374Y-134766549D01*
X47107870Y-134385308D01*
X47165538Y-133996550D01*
X47184823Y-133604000D01*
X47165538Y-133211449D01*
X47107870Y-132822691D01*
X47018272Y-132464998D01*
X56614532Y-132464998D01*
X56614532Y-132465001D01*
X56634364Y-132691686D01*
X56634366Y-132691697D01*
X56693258Y-132911488D01*
X56693261Y-132911497D01*
X56789431Y-133117732D01*
X56789432Y-133117734D01*
X56919954Y-133304141D01*
X57080858Y-133465045D01*
X57080861Y-133465047D01*
X57267266Y-133595568D01*
X57473504Y-133691739D01*
X57693308Y-133750635D01*
X57855230Y-133764801D01*
X57919998Y-133770468D01*
X57920000Y-133770468D01*
X57920002Y-133770468D01*
X57976673Y-133765509D01*
X58146692Y-133750635D01*
X58366496Y-133691739D01*
X58572734Y-133595568D01*
X58759139Y-133465047D01*
X58920047Y-133304139D01*
X59050568Y-133117734D01*
X59146739Y-132911496D01*
X59205635Y-132691692D01*
X59225468Y-132465000D01*
X59225468Y-132464998D01*
X66774532Y-132464998D01*
X66774532Y-132465001D01*
X66794364Y-132691686D01*
X66794366Y-132691697D01*
X66853258Y-132911488D01*
X66853261Y-132911497D01*
X66949431Y-133117732D01*
X66949432Y-133117734D01*
X67079954Y-133304141D01*
X67240858Y-133465045D01*
X67240861Y-133465047D01*
X67427266Y-133595568D01*
X67633504Y-133691739D01*
X67853308Y-133750635D01*
X68015230Y-133764801D01*
X68079998Y-133770468D01*
X68080000Y-133770468D01*
X68080002Y-133770468D01*
X68136673Y-133765509D01*
X68306692Y-133750635D01*
X68526496Y-133691739D01*
X68732734Y-133595568D01*
X68919139Y-133465047D01*
X69080047Y-133304139D01*
X69210568Y-133117734D01*
X69306739Y-132911496D01*
X69365635Y-132691692D01*
X69385468Y-132465000D01*
X69365635Y-132238308D01*
X69320916Y-132071415D01*
X69306741Y-132018511D01*
X69306738Y-132018502D01*
X69245436Y-131887041D01*
X69210568Y-131812266D01*
X69150959Y-131727135D01*
X87899500Y-131727135D01*
X87899500Y-134022870D01*
X87899501Y-134022876D01*
X87905908Y-134082483D01*
X87956202Y-134217328D01*
X87956206Y-134217335D01*
X88042452Y-134332544D01*
X88042455Y-134332547D01*
X88157664Y-134418793D01*
X88157671Y-134418797D01*
X88292517Y-134469091D01*
X88292516Y-134469091D01*
X88299444Y-134469835D01*
X88352127Y-134475500D01*
X90647872Y-134475499D01*
X90707483Y-134469091D01*
X90842331Y-134418796D01*
X90957546Y-134332546D01*
X91043796Y-134217331D01*
X91094091Y-134082483D01*
X91100500Y-134022873D01*
X91100499Y-131727128D01*
X91094091Y-131667517D01*
X91078554Y-131625861D01*
X91043797Y-131532671D01*
X91043793Y-131532664D01*
X90957547Y-131417455D01*
X90957544Y-131417452D01*
X90842335Y-131331206D01*
X90842328Y-131331202D01*
X90707482Y-131280908D01*
X90707483Y-131280908D01*
X90647883Y-131274501D01*
X90647881Y-131274500D01*
X90647873Y-131274500D01*
X90647864Y-131274500D01*
X88352129Y-131274500D01*
X88352123Y-131274501D01*
X88292516Y-131280908D01*
X88157671Y-131331202D01*
X88157664Y-131331206D01*
X88042455Y-131417452D01*
X88042452Y-131417455D01*
X87956206Y-131532664D01*
X87956202Y-131532671D01*
X87905908Y-131667517D01*
X87899501Y-131727116D01*
X87899501Y-131727123D01*
X87899500Y-131727135D01*
X69150959Y-131727135D01*
X69080047Y-131625861D01*
X68919139Y-131464953D01*
X68919135Y-131464950D01*
X68919133Y-131464948D01*
X68918785Y-131464656D01*
X68918673Y-131464488D01*
X68915311Y-131461126D01*
X68915987Y-131460449D01*
X68880088Y-131406480D01*
X68874500Y-131369674D01*
X68874500Y-129507155D01*
X97920000Y-129507155D01*
X97920000Y-130055000D01*
X98854314Y-130055000D01*
X98849920Y-130059394D01*
X98797259Y-130150606D01*
X98770000Y-130252339D01*
X98770000Y-130357661D01*
X98797259Y-130459394D01*
X98849920Y-130550606D01*
X98854314Y-130555000D01*
X97920000Y-130555000D01*
X97920000Y-131102844D01*
X97926401Y-131162372D01*
X97926403Y-131162379D01*
X97976645Y-131297086D01*
X97976649Y-131297093D01*
X98062809Y-131412187D01*
X98062812Y-131412190D01*
X98177906Y-131498350D01*
X98177913Y-131498354D01*
X98312620Y-131548596D01*
X98312627Y-131548598D01*
X98372155Y-131554999D01*
X98372172Y-131555000D01*
X98920000Y-131555000D01*
X98920000Y-130620686D01*
X98924394Y-130625080D01*
X99015606Y-130677741D01*
X99117339Y-130705000D01*
X99222661Y-130705000D01*
X99324394Y-130677741D01*
X99415606Y-130625080D01*
X99420000Y-130620686D01*
X99420000Y-131555000D01*
X99967828Y-131555000D01*
X99967844Y-131554999D01*
X100027372Y-131548598D01*
X100027379Y-131548596D01*
X100162086Y-131498354D01*
X100162093Y-131498350D01*
X100277187Y-131412190D01*
X100277190Y-131412187D01*
X100363350Y-131297093D01*
X100363354Y-131297086D01*
X100413596Y-131162379D01*
X100413598Y-131162372D01*
X100419999Y-131102844D01*
X100420000Y-131102827D01*
X100420000Y-130555000D01*
X99485686Y-130555000D01*
X99490080Y-130550606D01*
X99542741Y-130459394D01*
X99570000Y-130357661D01*
X99570000Y-130252339D01*
X99542741Y-130150606D01*
X99490080Y-130059394D01*
X99485686Y-130055000D01*
X100420000Y-130055000D01*
X100420000Y-129507172D01*
X100419999Y-129507155D01*
X100413598Y-129447627D01*
X100413596Y-129447620D01*
X100363354Y-129312913D01*
X100363350Y-129312906D01*
X100277190Y-129197812D01*
X100277187Y-129197809D01*
X100162093Y-129111649D01*
X100162086Y-129111645D01*
X100027379Y-129061403D01*
X100027372Y-129061401D01*
X99967844Y-129055000D01*
X99420000Y-129055000D01*
X99420000Y-129989314D01*
X99415606Y-129984920D01*
X99324394Y-129932259D01*
X99222661Y-129905000D01*
X99117339Y-129905000D01*
X99015606Y-129932259D01*
X98924394Y-129984920D01*
X98920000Y-129989314D01*
X98920000Y-129055000D01*
X98372155Y-129055000D01*
X98312627Y-129061401D01*
X98312620Y-129061403D01*
X98177913Y-129111645D01*
X98177906Y-129111649D01*
X98062812Y-129197809D01*
X98062809Y-129197812D01*
X97976649Y-129312906D01*
X97976645Y-129312913D01*
X97926403Y-129447620D01*
X97926401Y-129447627D01*
X97920000Y-129507155D01*
X68874500Y-129507155D01*
X68874500Y-128388861D01*
X68894185Y-128321822D01*
X68927375Y-128287287D01*
X68959139Y-128265047D01*
X69120047Y-128104139D01*
X69250568Y-127917734D01*
X69346739Y-127711496D01*
X69405635Y-127491692D01*
X69425468Y-127265000D01*
X69405635Y-127038308D01*
X69399389Y-127014999D01*
X77001127Y-127014999D01*
X77001128Y-127015000D01*
X77964314Y-127015000D01*
X77959920Y-127019394D01*
X77907259Y-127110606D01*
X77880000Y-127212339D01*
X77880000Y-127317661D01*
X77907259Y-127419394D01*
X77959920Y-127510606D01*
X77964314Y-127515000D01*
X77001128Y-127515000D01*
X77053730Y-127711317D01*
X77053734Y-127711326D01*
X77149865Y-127917482D01*
X77280342Y-128103820D01*
X77441179Y-128264657D01*
X77627517Y-128395134D01*
X77833673Y-128491265D01*
X77833682Y-128491269D01*
X78029999Y-128543872D01*
X78030000Y-128543871D01*
X78030000Y-127580686D01*
X78034394Y-127585080D01*
X78125606Y-127637741D01*
X78227339Y-127665000D01*
X78332661Y-127665000D01*
X78434394Y-127637741D01*
X78525606Y-127585080D01*
X78530000Y-127580686D01*
X78530000Y-128543872D01*
X78726317Y-128491269D01*
X78726326Y-128491265D01*
X78932482Y-128395134D01*
X79118820Y-128264657D01*
X79279657Y-128103820D01*
X79410134Y-127917482D01*
X79481238Y-127764997D01*
X95374723Y-127764997D01*
X95374723Y-127765002D01*
X95393793Y-127982975D01*
X95393793Y-127982979D01*
X95450422Y-128194322D01*
X95450424Y-128194326D01*
X95450425Y-128194330D01*
X95492493Y-128284546D01*
X95542897Y-128392638D01*
X95542898Y-128392639D01*
X95668402Y-128571877D01*
X95823123Y-128726598D01*
X96002361Y-128852102D01*
X96200670Y-128944575D01*
X96412023Y-129001207D01*
X96594926Y-129017208D01*
X96629998Y-129020277D01*
X96630000Y-129020277D01*
X96630002Y-129020277D01*
X96658254Y-129017805D01*
X96847977Y-129001207D01*
X97059330Y-128944575D01*
X97257639Y-128852102D01*
X97436877Y-128726598D01*
X97591598Y-128571877D01*
X97717102Y-128392639D01*
X97809575Y-128194330D01*
X97844230Y-128064997D01*
X105995034Y-128064997D01*
X105995034Y-128065002D01*
X106014858Y-128291599D01*
X106014860Y-128291610D01*
X106073730Y-128511317D01*
X106073735Y-128511331D01*
X106169863Y-128717478D01*
X106220974Y-128790472D01*
X106900000Y-128111446D01*
X106900000Y-128117661D01*
X106927259Y-128219394D01*
X106979920Y-128310606D01*
X107054394Y-128385080D01*
X107145606Y-128437741D01*
X107247339Y-128465000D01*
X107253553Y-128465000D01*
X106574526Y-129144025D01*
X106647513Y-129195132D01*
X106647521Y-129195136D01*
X106853668Y-129291264D01*
X106853682Y-129291269D01*
X107073389Y-129350139D01*
X107073400Y-129350141D01*
X107299998Y-129369966D01*
X107300002Y-129369966D01*
X107526599Y-129350141D01*
X107526610Y-129350139D01*
X107746317Y-129291269D01*
X107746331Y-129291264D01*
X107952478Y-129195136D01*
X108025471Y-129144024D01*
X107346447Y-128465000D01*
X107352661Y-128465000D01*
X107454394Y-128437741D01*
X107545606Y-128385080D01*
X107620080Y-128310606D01*
X107672741Y-128219394D01*
X107700000Y-128117661D01*
X107700000Y-128111447D01*
X108379024Y-128790471D01*
X108430136Y-128717478D01*
X108526264Y-128511331D01*
X108526269Y-128511317D01*
X108585139Y-128291610D01*
X108585141Y-128291599D01*
X108604966Y-128065002D01*
X108604966Y-128064997D01*
X108585141Y-127838400D01*
X108585139Y-127838389D01*
X108526269Y-127618682D01*
X108526264Y-127618668D01*
X108430136Y-127412521D01*
X108430132Y-127412513D01*
X108379025Y-127339526D01*
X107700000Y-128018551D01*
X107700000Y-128012339D01*
X107672741Y-127910606D01*
X107620080Y-127819394D01*
X107545606Y-127744920D01*
X107454394Y-127692259D01*
X107352661Y-127665000D01*
X107346448Y-127665000D01*
X108025472Y-126985974D01*
X107952478Y-126934863D01*
X107746331Y-126838735D01*
X107746317Y-126838730D01*
X107526610Y-126779860D01*
X107526599Y-126779858D01*
X107300002Y-126760034D01*
X107299998Y-126760034D01*
X107073400Y-126779858D01*
X107073389Y-126779860D01*
X106853682Y-126838730D01*
X106853673Y-126838734D01*
X106647516Y-126934866D01*
X106647512Y-126934868D01*
X106574526Y-126985973D01*
X106574526Y-126985974D01*
X107253553Y-127665000D01*
X107247339Y-127665000D01*
X107145606Y-127692259D01*
X107054394Y-127744920D01*
X106979920Y-127819394D01*
X106927259Y-127910606D01*
X106900000Y-128012339D01*
X106900000Y-128018552D01*
X106220974Y-127339526D01*
X106220973Y-127339526D01*
X106169868Y-127412512D01*
X106169866Y-127412516D01*
X106073734Y-127618673D01*
X106073730Y-127618682D01*
X106014860Y-127838389D01*
X106014858Y-127838400D01*
X105995034Y-128064997D01*
X97844230Y-128064997D01*
X97866207Y-127982977D01*
X97885277Y-127765000D01*
X97866207Y-127547023D01*
X97824586Y-127391692D01*
X97809577Y-127335677D01*
X97809576Y-127335676D01*
X97809575Y-127335670D01*
X97717102Y-127137362D01*
X97717100Y-127137359D01*
X97717099Y-127137357D01*
X97591599Y-126958124D01*
X97525734Y-126892259D01*
X97436877Y-126803402D01*
X97257639Y-126677898D01*
X97257640Y-126677898D01*
X97257638Y-126677897D01*
X97117429Y-126612517D01*
X97059330Y-126585425D01*
X97059326Y-126585424D01*
X97059322Y-126585422D01*
X96847977Y-126528793D01*
X96630002Y-126509723D01*
X96629998Y-126509723D01*
X96484682Y-126522436D01*
X96412023Y-126528793D01*
X96412020Y-126528793D01*
X96200677Y-126585422D01*
X96200668Y-126585426D01*
X96002361Y-126677898D01*
X96002357Y-126677900D01*
X95823121Y-126803402D01*
X95668402Y-126958121D01*
X95542900Y-127137357D01*
X95542898Y-127137361D01*
X95450426Y-127335668D01*
X95450422Y-127335677D01*
X95393793Y-127547020D01*
X95393793Y-127547024D01*
X95374723Y-127764997D01*
X79481238Y-127764997D01*
X79506265Y-127711326D01*
X79506269Y-127711317D01*
X79558872Y-127515000D01*
X78595686Y-127515000D01*
X78600080Y-127510606D01*
X78652741Y-127419394D01*
X78680000Y-127317661D01*
X78680000Y-127212339D01*
X78652741Y-127110606D01*
X78600080Y-127019394D01*
X78595686Y-127015000D01*
X79558872Y-127015000D01*
X79558872Y-127014999D01*
X79506269Y-126818682D01*
X79506265Y-126818673D01*
X79410134Y-126612517D01*
X79279657Y-126426179D01*
X79118820Y-126265342D01*
X78932482Y-126134865D01*
X78726328Y-126038734D01*
X78530000Y-125986127D01*
X78530000Y-126949314D01*
X78525606Y-126944920D01*
X78434394Y-126892259D01*
X78332661Y-126865000D01*
X78227339Y-126865000D01*
X78125606Y-126892259D01*
X78034394Y-126944920D01*
X78030000Y-126949314D01*
X78030000Y-125986127D01*
X77833671Y-126038734D01*
X77627517Y-126134865D01*
X77441179Y-126265342D01*
X77280342Y-126426179D01*
X77149865Y-126612517D01*
X77053734Y-126818673D01*
X77053730Y-126818682D01*
X77001127Y-127014999D01*
X69399389Y-127014999D01*
X69346739Y-126818504D01*
X69250568Y-126612266D01*
X69120047Y-126425861D01*
X68959139Y-126264953D01*
X68927374Y-126242710D01*
X68883751Y-126188135D01*
X68874500Y-126141138D01*
X68874500Y-125225000D01*
X97914723Y-125225000D01*
X97932897Y-125432741D01*
X97933793Y-125442975D01*
X97933793Y-125442979D01*
X97990422Y-125654322D01*
X97990424Y-125654326D01*
X97990425Y-125654330D01*
X98027576Y-125734000D01*
X98082897Y-125852638D01*
X98082898Y-125852639D01*
X98208402Y-126031877D01*
X98363123Y-126186598D01*
X98542361Y-126312102D01*
X98740670Y-126404575D01*
X98952023Y-126461207D01*
X99134926Y-126477208D01*
X99169998Y-126480277D01*
X99170000Y-126480277D01*
X99170002Y-126480277D01*
X99198254Y-126477805D01*
X99387977Y-126461207D01*
X99599330Y-126404575D01*
X99797639Y-126312102D01*
X99976877Y-126186598D01*
X100131598Y-126031877D01*
X100257102Y-125852639D01*
X100349575Y-125654330D01*
X100406207Y-125442977D01*
X100425277Y-125225000D01*
X100407402Y-125020685D01*
X111745499Y-125020685D01*
X111745499Y-125175425D01*
X111745500Y-125175446D01*
X111745500Y-130962552D01*
X111745499Y-130962578D01*
X111745499Y-131116312D01*
X111758042Y-131179364D01*
X111758042Y-131179367D01*
X111774492Y-131262072D01*
X111774495Y-131262081D01*
X111798053Y-131318955D01*
X111822941Y-131379041D01*
X111831370Y-131399389D01*
X111874980Y-131464656D01*
X111913942Y-131522968D01*
X111913943Y-131522969D01*
X115233600Y-134842624D01*
X115233621Y-134842647D01*
X115343029Y-134952055D01*
X115343032Y-134952057D01*
X115343034Y-134952059D01*
X115425605Y-135007230D01*
X115466611Y-135034630D01*
X115541052Y-135065464D01*
X115591436Y-135086334D01*
X115603920Y-135091505D01*
X115603924Y-135091506D01*
X115628104Y-135096315D01*
X115628110Y-135096316D01*
X115749686Y-135120501D01*
X115749688Y-135120501D01*
X115904426Y-135120501D01*
X115904446Y-135120500D01*
X131845138Y-135120500D01*
X131912177Y-135140185D01*
X131946713Y-135173377D01*
X131968954Y-135205141D01*
X132129858Y-135366045D01*
X132129861Y-135366047D01*
X132316266Y-135496568D01*
X132522504Y-135592739D01*
X132742308Y-135651635D01*
X132904230Y-135665801D01*
X132968998Y-135671468D01*
X132969000Y-135671468D01*
X132969002Y-135671468D01*
X133025673Y-135666509D01*
X133195692Y-135651635D01*
X133415496Y-135592739D01*
X133621734Y-135496568D01*
X133808139Y-135366047D01*
X133969047Y-135205139D01*
X134099568Y-135018734D01*
X134195739Y-134812496D01*
X134254635Y-134592692D01*
X134274468Y-134366000D01*
X134254635Y-134139308D01*
X134247318Y-134112000D01*
X206815176Y-134112000D01*
X206834461Y-134504550D01*
X206892129Y-134893308D01*
X206987625Y-135274549D01*
X207120016Y-135644559D01*
X207120023Y-135644575D01*
X207288062Y-135999864D01*
X207490109Y-136336958D01*
X207724228Y-136652632D01*
X207820068Y-136758376D01*
X207820069Y-136758376D01*
X209418381Y-135160064D01*
X209501457Y-135268331D01*
X209663669Y-135430543D01*
X209771934Y-135513617D01*
X208173622Y-137111929D01*
X208173622Y-137111930D01*
X208279367Y-137207771D01*
X208595041Y-137441890D01*
X208932135Y-137643937D01*
X209287424Y-137811976D01*
X209287440Y-137811983D01*
X209657450Y-137944374D01*
X210038691Y-138039870D01*
X210427449Y-138097538D01*
X210820000Y-138116823D01*
X211212550Y-138097538D01*
X211601308Y-138039870D01*
X211982549Y-137944374D01*
X212352559Y-137811983D01*
X212352575Y-137811976D01*
X212707864Y-137643937D01*
X213044958Y-137441890D01*
X213360632Y-137207770D01*
X213466376Y-137111929D01*
X211868065Y-135513618D01*
X211976331Y-135430543D01*
X212138543Y-135268331D01*
X212221618Y-135160065D01*
X213819929Y-136758376D01*
X213915770Y-136652632D01*
X214149890Y-136336958D01*
X214351937Y-135999864D01*
X214519976Y-135644575D01*
X214519983Y-135644559D01*
X214652374Y-135274549D01*
X214747870Y-134893308D01*
X214805538Y-134504550D01*
X214824823Y-134112000D01*
X214805538Y-133719449D01*
X214747870Y-133330691D01*
X214652374Y-132949450D01*
X214519983Y-132579440D01*
X214519976Y-132579424D01*
X214351937Y-132224135D01*
X214149890Y-131887041D01*
X213915771Y-131571367D01*
X213819930Y-131465622D01*
X213819929Y-131465622D01*
X212221617Y-133063934D01*
X212138543Y-132955669D01*
X211976331Y-132793457D01*
X211868065Y-132710381D01*
X213466376Y-131112069D01*
X213466376Y-131112068D01*
X213360632Y-131016228D01*
X213044958Y-130782109D01*
X212707864Y-130580062D01*
X212352575Y-130412023D01*
X212352559Y-130412016D01*
X211982549Y-130279625D01*
X211601308Y-130184129D01*
X211212550Y-130126461D01*
X210820000Y-130107176D01*
X210427449Y-130126461D01*
X210038691Y-130184129D01*
X209657450Y-130279625D01*
X209287440Y-130412016D01*
X209287424Y-130412023D01*
X208932135Y-130580062D01*
X208595041Y-130782109D01*
X208279368Y-131016228D01*
X208173622Y-131112069D01*
X209771934Y-132710381D01*
X209663669Y-132793457D01*
X209501457Y-132955669D01*
X209418382Y-133063934D01*
X207820069Y-131465622D01*
X207724228Y-131571368D01*
X207490109Y-131887041D01*
X207288062Y-132224135D01*
X207120023Y-132579424D01*
X207120016Y-132579440D01*
X206987625Y-132949450D01*
X206892129Y-133330691D01*
X206834461Y-133719449D01*
X206815176Y-134112000D01*
X134247318Y-134112000D01*
X134195739Y-133919504D01*
X134099568Y-133713266D01*
X133969047Y-133526861D01*
X133969045Y-133526858D01*
X133808141Y-133365954D01*
X133621734Y-133235432D01*
X133621732Y-133235431D01*
X133415497Y-133139261D01*
X133415488Y-133139258D01*
X133195697Y-133080366D01*
X133195693Y-133080365D01*
X133195692Y-133080365D01*
X133195691Y-133080364D01*
X133195686Y-133080364D01*
X132969002Y-133060532D01*
X132968998Y-133060532D01*
X132742313Y-133080364D01*
X132742302Y-133080366D01*
X132522511Y-133139258D01*
X132522502Y-133139261D01*
X132316267Y-133235431D01*
X132316265Y-133235432D01*
X132129858Y-133365954D01*
X131968954Y-133526858D01*
X131946713Y-133558623D01*
X131892137Y-133602248D01*
X131845138Y-133611500D01*
X116187886Y-133611500D01*
X116120847Y-133591815D01*
X116100205Y-133575181D01*
X113290819Y-130765794D01*
X113257334Y-130704471D01*
X113254500Y-130678113D01*
X113254500Y-126914999D01*
X113841127Y-126914999D01*
X113841128Y-126915000D01*
X114804314Y-126915000D01*
X114799920Y-126919394D01*
X114747259Y-127010606D01*
X114720000Y-127112339D01*
X114720000Y-127217661D01*
X114747259Y-127319394D01*
X114799920Y-127410606D01*
X114804314Y-127415000D01*
X113841128Y-127415000D01*
X113893730Y-127611317D01*
X113893734Y-127611326D01*
X113989865Y-127817482D01*
X114120342Y-128003820D01*
X114281179Y-128164657D01*
X114467517Y-128295134D01*
X114673673Y-128391265D01*
X114673682Y-128391269D01*
X114869999Y-128443872D01*
X114870000Y-128443871D01*
X114870000Y-127480686D01*
X114874394Y-127485080D01*
X114965606Y-127537741D01*
X115067339Y-127565000D01*
X115172661Y-127565000D01*
X115274394Y-127537741D01*
X115365606Y-127485080D01*
X115370000Y-127480686D01*
X115370000Y-128443872D01*
X115566317Y-128391269D01*
X115566326Y-128391265D01*
X115772482Y-128295134D01*
X115958820Y-128164657D01*
X116119657Y-128003820D01*
X116250134Y-127817482D01*
X116346265Y-127611326D01*
X116346269Y-127611317D01*
X116398872Y-127415000D01*
X115435686Y-127415000D01*
X115440080Y-127410606D01*
X115492741Y-127319394D01*
X115520000Y-127217661D01*
X115520000Y-127112339D01*
X115492741Y-127010606D01*
X115440080Y-126919394D01*
X115435686Y-126915000D01*
X116398872Y-126915000D01*
X116398872Y-126914999D01*
X116346269Y-126718682D01*
X116346265Y-126718673D01*
X116250134Y-126512517D01*
X116119657Y-126326179D01*
X115958820Y-126165342D01*
X115772482Y-126034865D01*
X115566328Y-125938734D01*
X115370000Y-125886127D01*
X115370000Y-126849314D01*
X115365606Y-126844920D01*
X115274394Y-126792259D01*
X115172661Y-126765000D01*
X115067339Y-126765000D01*
X114965606Y-126792259D01*
X114874394Y-126844920D01*
X114870000Y-126849314D01*
X114870000Y-125886127D01*
X114673671Y-125938734D01*
X114467517Y-126034865D01*
X114281179Y-126165342D01*
X114120342Y-126326179D01*
X113989865Y-126512517D01*
X113893734Y-126718673D01*
X113893730Y-126718682D01*
X113841127Y-126914999D01*
X113254500Y-126914999D01*
X113254500Y-125458885D01*
X113274185Y-125391846D01*
X113290814Y-125371209D01*
X116440205Y-122221817D01*
X116501528Y-122188333D01*
X116527886Y-122185499D01*
X117457871Y-122185499D01*
X117457872Y-122185499D01*
X117517483Y-122179091D01*
X117652331Y-122128796D01*
X117767546Y-122042546D01*
X117853796Y-121927331D01*
X117904091Y-121792483D01*
X117910500Y-121732873D01*
X117910499Y-120137128D01*
X117904091Y-120077517D01*
X117853796Y-119942669D01*
X117853795Y-119942668D01*
X117853793Y-119942664D01*
X117767547Y-119827455D01*
X117767544Y-119827452D01*
X117652335Y-119741206D01*
X117652328Y-119741202D01*
X117517482Y-119690908D01*
X117517483Y-119690908D01*
X117457883Y-119684501D01*
X117457881Y-119684500D01*
X117457873Y-119684500D01*
X117457864Y-119684500D01*
X115862129Y-119684500D01*
X115862123Y-119684501D01*
X115802516Y-119690908D01*
X115667671Y-119741202D01*
X115667664Y-119741206D01*
X115552455Y-119827452D01*
X115552452Y-119827455D01*
X115466206Y-119942664D01*
X115466202Y-119942671D01*
X115415908Y-120077517D01*
X115409501Y-120137116D01*
X115409501Y-120137123D01*
X115409500Y-120137135D01*
X115409500Y-121067112D01*
X115389815Y-121134151D01*
X115373181Y-121154793D01*
X111913943Y-124614030D01*
X111913942Y-124614031D01*
X111831372Y-124737607D01*
X111831366Y-124737618D01*
X111774496Y-124874916D01*
X111774493Y-124874926D01*
X111745499Y-125020685D01*
X100407402Y-125020685D01*
X100406207Y-125007023D01*
X100349575Y-124795670D01*
X100257102Y-124597362D01*
X100257100Y-124597359D01*
X100257099Y-124597357D01*
X100131599Y-124418124D01*
X100064108Y-124350633D01*
X99976877Y-124263402D01*
X99838978Y-124166844D01*
X99797638Y-124137897D01*
X99698484Y-124091661D01*
X99599330Y-124045425D01*
X99599326Y-124045424D01*
X99599322Y-124045422D01*
X99387977Y-123988793D01*
X99170002Y-123969723D01*
X99169998Y-123969723D01*
X99024682Y-123982436D01*
X98952023Y-123988793D01*
X98952020Y-123988793D01*
X98740677Y-124045422D01*
X98740668Y-124045426D01*
X98542361Y-124137898D01*
X98542357Y-124137900D01*
X98363121Y-124263402D01*
X98208402Y-124418121D01*
X98082900Y-124597357D01*
X98082898Y-124597361D01*
X97990426Y-124795668D01*
X97990422Y-124795677D01*
X97933793Y-125007020D01*
X97933793Y-125007023D01*
X97914723Y-125225000D01*
X68874500Y-125225000D01*
X68874500Y-121427135D01*
X80699500Y-121427135D01*
X80699500Y-123722870D01*
X80699501Y-123722876D01*
X80705908Y-123782483D01*
X80756202Y-123917328D01*
X80756206Y-123917335D01*
X80842452Y-124032544D01*
X80842455Y-124032547D01*
X80957664Y-124118793D01*
X80957671Y-124118797D01*
X81092517Y-124169091D01*
X81092516Y-124169091D01*
X81099444Y-124169835D01*
X81152127Y-124175500D01*
X83447872Y-124175499D01*
X83507483Y-124169091D01*
X83642331Y-124118796D01*
X83757546Y-124032546D01*
X83843796Y-123917331D01*
X83894091Y-123782483D01*
X83900500Y-123722873D01*
X83900500Y-123453500D01*
X83920185Y-123386461D01*
X83972989Y-123340706D01*
X84024500Y-123329500D01*
X87939311Y-123329500D01*
X88006350Y-123349185D01*
X88052105Y-123401989D01*
X88053873Y-123406049D01*
X88069534Y-123443860D01*
X88201160Y-123658653D01*
X88201161Y-123658656D01*
X88201164Y-123658659D01*
X88364776Y-123850224D01*
X88443353Y-123917335D01*
X88556343Y-124013838D01*
X88556346Y-124013839D01*
X88771140Y-124145466D01*
X88917286Y-124206001D01*
X89003889Y-124241873D01*
X89248852Y-124300683D01*
X89500000Y-124320449D01*
X89751148Y-124300683D01*
X89996111Y-124241873D01*
X90228859Y-124145466D01*
X90443659Y-124013836D01*
X90635224Y-123850224D01*
X90798836Y-123658659D01*
X90930466Y-123443859D01*
X91026873Y-123211111D01*
X91061951Y-123064998D01*
X105994532Y-123064998D01*
X105994532Y-123065001D01*
X106014364Y-123291686D01*
X106014366Y-123291697D01*
X106073258Y-123511488D01*
X106073261Y-123511497D01*
X106169431Y-123717732D01*
X106169432Y-123717734D01*
X106299954Y-123904141D01*
X106460858Y-124065045D01*
X106460861Y-124065047D01*
X106647266Y-124195568D01*
X106853504Y-124291739D01*
X106853509Y-124291740D01*
X106853511Y-124291741D01*
X106906415Y-124305916D01*
X107073308Y-124350635D01*
X107235230Y-124364801D01*
X107299998Y-124370468D01*
X107300000Y-124370468D01*
X107300002Y-124370468D01*
X107356673Y-124365509D01*
X107526692Y-124350635D01*
X107746496Y-124291739D01*
X107952734Y-124195568D01*
X108139139Y-124065047D01*
X108300047Y-123904139D01*
X108430568Y-123717734D01*
X108526739Y-123511496D01*
X108585635Y-123291692D01*
X108605468Y-123065000D01*
X108585635Y-122838308D01*
X108526739Y-122618504D01*
X108430568Y-122412266D01*
X108352167Y-122300297D01*
X108300048Y-122225862D01*
X108224654Y-122150468D01*
X108139139Y-122064953D01*
X108107374Y-122042710D01*
X108063751Y-121988135D01*
X108054500Y-121941138D01*
X108054500Y-121536886D01*
X108074185Y-121469847D01*
X108090819Y-121449205D01*
X110354205Y-119185819D01*
X110415528Y-119152334D01*
X110441886Y-119149500D01*
X113057177Y-119149500D01*
X113124216Y-119169185D01*
X113154382Y-119198177D01*
X113154920Y-119197727D01*
X113158399Y-119201873D01*
X113158402Y-119201877D01*
X113313123Y-119356598D01*
X113492361Y-119482102D01*
X113690670Y-119574575D01*
X113902023Y-119631207D01*
X114084926Y-119647208D01*
X114119998Y-119650277D01*
X114120000Y-119650277D01*
X114120002Y-119650277D01*
X114148254Y-119647805D01*
X114337977Y-119631207D01*
X114549330Y-119574575D01*
X114747639Y-119482102D01*
X114926877Y-119356598D01*
X115081598Y-119201877D01*
X115207102Y-119022639D01*
X115299575Y-118824330D01*
X115356207Y-118612977D01*
X115375277Y-118395000D01*
X115356207Y-118177023D01*
X115299575Y-117965670D01*
X115207102Y-117767362D01*
X115207100Y-117767359D01*
X115207099Y-117767357D01*
X115081599Y-117588124D01*
X115046014Y-117552539D01*
X114926877Y-117433402D01*
X114752099Y-117311021D01*
X114747638Y-117307897D01*
X114648484Y-117261661D01*
X114549330Y-117215425D01*
X114549326Y-117215424D01*
X114549322Y-117215422D01*
X114337977Y-117158793D01*
X114120002Y-117139723D01*
X114119998Y-117139723D01*
X113974682Y-117152436D01*
X113902023Y-117158793D01*
X113902020Y-117158793D01*
X113690677Y-117215422D01*
X113690670Y-117215424D01*
X113690670Y-117215425D01*
X113678704Y-117221005D01*
X113492361Y-117307898D01*
X113492357Y-117307900D01*
X113313124Y-117433400D01*
X113158400Y-117588125D01*
X113154920Y-117592273D01*
X113153951Y-117591460D01*
X113104175Y-117631248D01*
X113057177Y-117640500D01*
X110003683Y-117640500D01*
X109857927Y-117669493D01*
X109857919Y-117669495D01*
X109720608Y-117726371D01*
X109597035Y-117808939D01*
X109597034Y-117808940D01*
X109548910Y-117857065D01*
X109491941Y-117914034D01*
X109491939Y-117914036D01*
X106713943Y-120692030D01*
X106713942Y-120692031D01*
X106631372Y-120815607D01*
X106631370Y-120815612D01*
X106619196Y-120845002D01*
X106619195Y-120845001D01*
X106574495Y-120952917D01*
X106574495Y-120952918D01*
X106574495Y-120952920D01*
X106570202Y-120974500D01*
X106570202Y-120974501D01*
X106545499Y-121098685D01*
X106545499Y-121253425D01*
X106545500Y-121253446D01*
X106545500Y-121941138D01*
X106525815Y-122008177D01*
X106492626Y-122042710D01*
X106460861Y-122064953D01*
X106299951Y-122225862D01*
X106169432Y-122412265D01*
X106169431Y-122412267D01*
X106073261Y-122618502D01*
X106073258Y-122618511D01*
X106014366Y-122838302D01*
X106014364Y-122838313D01*
X105994532Y-123064998D01*
X91061951Y-123064998D01*
X91085683Y-122966148D01*
X91105449Y-122715000D01*
X91085683Y-122463852D01*
X91026873Y-122218889D01*
X91014216Y-122188333D01*
X90930466Y-121986140D01*
X90798839Y-121771346D01*
X90798838Y-121771343D01*
X90724358Y-121684139D01*
X90635224Y-121579776D01*
X90482345Y-121449205D01*
X90443656Y-121416161D01*
X90443653Y-121416160D01*
X90228859Y-121284533D01*
X89996110Y-121188126D01*
X89751151Y-121129317D01*
X89500000Y-121109551D01*
X89248848Y-121129317D01*
X89003889Y-121188126D01*
X88771140Y-121284533D01*
X88556346Y-121416160D01*
X88556343Y-121416161D01*
X88364776Y-121579776D01*
X88234011Y-121732883D01*
X88198000Y-121775046D01*
X88196692Y-121773929D01*
X88147252Y-121812052D01*
X88102267Y-121820500D01*
X84024499Y-121820500D01*
X83957460Y-121800815D01*
X83911705Y-121748011D01*
X83900499Y-121696500D01*
X83900499Y-121427129D01*
X83900498Y-121427123D01*
X83900497Y-121427116D01*
X83894091Y-121367517D01*
X83881547Y-121333886D01*
X83843797Y-121232671D01*
X83843793Y-121232664D01*
X83757547Y-121117455D01*
X83757544Y-121117452D01*
X83642335Y-121031206D01*
X83642328Y-121031202D01*
X83507482Y-120980908D01*
X83507483Y-120980908D01*
X83447883Y-120974501D01*
X83447881Y-120974500D01*
X83447873Y-120974500D01*
X83447864Y-120974500D01*
X81152129Y-120974500D01*
X81152123Y-120974501D01*
X81092516Y-120980908D01*
X80957671Y-121031202D01*
X80957664Y-121031206D01*
X80842455Y-121117452D01*
X80842452Y-121117455D01*
X80756206Y-121232664D01*
X80756202Y-121232671D01*
X80705908Y-121367517D01*
X80699501Y-121427116D01*
X80699501Y-121427123D01*
X80699500Y-121427135D01*
X68874500Y-121427135D01*
X68874500Y-121333886D01*
X68894185Y-121266847D01*
X68910814Y-121246210D01*
X71647225Y-118509798D01*
X91755332Y-118509798D01*
X91755332Y-118509801D01*
X91775164Y-118736486D01*
X91775166Y-118736497D01*
X91834058Y-118956288D01*
X91834061Y-118956297D01*
X91930231Y-119162532D01*
X91930232Y-119162534D01*
X92060754Y-119348941D01*
X92221658Y-119509845D01*
X92221661Y-119509847D01*
X92408066Y-119640368D01*
X92614304Y-119736539D01*
X92614309Y-119736540D01*
X92614311Y-119736541D01*
X92667215Y-119750716D01*
X92834108Y-119795435D01*
X92996030Y-119809601D01*
X93060798Y-119815268D01*
X93060800Y-119815268D01*
X93060802Y-119815268D01*
X93117473Y-119810309D01*
X93287492Y-119795435D01*
X93507296Y-119736539D01*
X93713534Y-119640368D01*
X93899939Y-119509847D01*
X94060847Y-119348939D01*
X94191368Y-119162534D01*
X94287539Y-118956296D01*
X94346435Y-118736492D01*
X94366268Y-118509800D01*
X94366268Y-118509798D01*
X101915332Y-118509798D01*
X101915332Y-118509801D01*
X101935164Y-118736486D01*
X101935166Y-118736497D01*
X101994058Y-118956288D01*
X101994061Y-118956297D01*
X102090231Y-119162532D01*
X102090232Y-119162534D01*
X102220754Y-119348941D01*
X102381658Y-119509845D01*
X102381661Y-119509847D01*
X102568066Y-119640368D01*
X102774304Y-119736539D01*
X102774309Y-119736540D01*
X102774311Y-119736541D01*
X102827215Y-119750716D01*
X102994108Y-119795435D01*
X103156030Y-119809601D01*
X103220798Y-119815268D01*
X103220800Y-119815268D01*
X103220802Y-119815268D01*
X103277473Y-119810309D01*
X103447492Y-119795435D01*
X103667296Y-119736539D01*
X103873534Y-119640368D01*
X104059939Y-119509847D01*
X104220847Y-119348939D01*
X104351368Y-119162534D01*
X104447539Y-118956296D01*
X104506435Y-118736492D01*
X104526268Y-118509800D01*
X104512124Y-118348139D01*
X104525890Y-118279641D01*
X104547968Y-118249655D01*
X107986205Y-114811419D01*
X108047528Y-114777934D01*
X108073886Y-114775100D01*
X115672062Y-114775100D01*
X115739101Y-114794785D01*
X115784856Y-114847589D01*
X115794800Y-114916747D01*
X115765775Y-114980303D01*
X115759743Y-114986781D01*
X115698402Y-115048121D01*
X115572900Y-115227357D01*
X115572898Y-115227361D01*
X115480426Y-115425668D01*
X115480422Y-115425677D01*
X115423793Y-115637020D01*
X115423793Y-115637023D01*
X115419025Y-115691517D01*
X115405846Y-115842169D01*
X115404723Y-115855000D01*
X115423444Y-116068993D01*
X115423793Y-116072975D01*
X115423793Y-116072979D01*
X115480422Y-116284322D01*
X115480424Y-116284326D01*
X115480425Y-116284330D01*
X115505364Y-116337812D01*
X115572897Y-116482638D01*
X115588130Y-116504393D01*
X115698402Y-116661877D01*
X115853123Y-116816598D01*
X116032361Y-116942102D01*
X116230670Y-117034575D01*
X116230676Y-117034576D01*
X116230677Y-117034577D01*
X116261364Y-117042799D01*
X116442023Y-117091207D01*
X116624926Y-117107208D01*
X116659998Y-117110277D01*
X116660000Y-117110277D01*
X116660001Y-117110277D01*
X116673839Y-117109066D01*
X116775506Y-117100171D01*
X116844004Y-117113937D01*
X116873993Y-117136018D01*
X124489181Y-124751205D01*
X124522666Y-124812528D01*
X124525500Y-124838886D01*
X124525500Y-126041138D01*
X124505815Y-126108177D01*
X124472626Y-126142710D01*
X124440861Y-126164953D01*
X124279951Y-126325862D01*
X124149432Y-126512265D01*
X124149431Y-126512267D01*
X124053261Y-126718502D01*
X124053258Y-126718511D01*
X123994366Y-126938302D01*
X123994364Y-126938313D01*
X123974532Y-127164998D01*
X123974532Y-127165001D01*
X123994364Y-127391686D01*
X123994366Y-127391697D01*
X124053258Y-127611488D01*
X124053261Y-127611497D01*
X124149431Y-127817732D01*
X124149432Y-127817734D01*
X124279954Y-128004141D01*
X124440858Y-128165045D01*
X124440861Y-128165047D01*
X124627266Y-128295568D01*
X124833504Y-128391739D01*
X124833509Y-128391740D01*
X124833511Y-128391741D01*
X124846174Y-128395134D01*
X125053308Y-128450635D01*
X125215230Y-128464801D01*
X125279998Y-128470468D01*
X125280000Y-128470468D01*
X125280002Y-128470468D01*
X125342499Y-128465000D01*
X125506692Y-128450635D01*
X125726496Y-128391739D01*
X125932734Y-128295568D01*
X126119139Y-128165047D01*
X126280047Y-128004139D01*
X126410568Y-127817734D01*
X126506739Y-127611496D01*
X126565635Y-127391692D01*
X126585468Y-127165000D01*
X126565635Y-126938308D01*
X126517867Y-126760034D01*
X126506741Y-126718511D01*
X126506738Y-126718502D01*
X126487804Y-126677898D01*
X126410568Y-126512266D01*
X126280047Y-126325861D01*
X126119139Y-126164953D01*
X126087374Y-126142710D01*
X126043751Y-126088135D01*
X126034500Y-126041138D01*
X126034500Y-124555446D01*
X126034501Y-124555425D01*
X126034501Y-124400685D01*
X126005506Y-124254925D01*
X126005505Y-124254923D01*
X126005505Y-124254921D01*
X126000100Y-124241873D01*
X125985240Y-124205998D01*
X131663532Y-124205998D01*
X131663532Y-124206001D01*
X131683364Y-124432686D01*
X131683366Y-124432697D01*
X131742258Y-124652488D01*
X131742261Y-124652497D01*
X131838431Y-124858732D01*
X131838432Y-124858734D01*
X131968954Y-125045141D01*
X132129858Y-125206045D01*
X132129861Y-125206047D01*
X132316266Y-125336568D01*
X132522504Y-125432739D01*
X132742308Y-125491635D01*
X132904230Y-125505801D01*
X132968998Y-125511468D01*
X132969000Y-125511468D01*
X132969002Y-125511468D01*
X133025673Y-125506509D01*
X133195692Y-125491635D01*
X133415496Y-125432739D01*
X133621734Y-125336568D01*
X133808139Y-125206047D01*
X133969047Y-125045139D01*
X134099568Y-124858734D01*
X134195739Y-124652496D01*
X134254635Y-124432692D01*
X134274468Y-124206000D01*
X134271799Y-124175498D01*
X134262136Y-124065045D01*
X134254635Y-123979308D01*
X134195739Y-123759504D01*
X134099568Y-123553266D01*
X134001839Y-123413693D01*
X133969045Y-123366858D01*
X133808141Y-123205954D01*
X133621734Y-123075432D01*
X133621732Y-123075431D01*
X133415497Y-122979261D01*
X133415488Y-122979258D01*
X133195697Y-122920366D01*
X133195693Y-122920365D01*
X133195692Y-122920365D01*
X133195691Y-122920364D01*
X133195686Y-122920364D01*
X132969002Y-122900532D01*
X132968998Y-122900532D01*
X132742313Y-122920364D01*
X132742302Y-122920366D01*
X132522511Y-122979258D01*
X132522502Y-122979261D01*
X132316267Y-123075431D01*
X132316265Y-123075432D01*
X132129858Y-123205954D01*
X131968954Y-123366858D01*
X131838432Y-123553265D01*
X131838431Y-123553267D01*
X131742261Y-123759502D01*
X131742258Y-123759511D01*
X131683366Y-123979302D01*
X131683364Y-123979313D01*
X131663532Y-124205998D01*
X125985240Y-124205998D01*
X125969953Y-124169091D01*
X125957032Y-124137897D01*
X125948633Y-124117618D01*
X125948632Y-124117617D01*
X125948630Y-124117611D01*
X125900397Y-124045425D01*
X125866059Y-123994034D01*
X125866057Y-123994031D01*
X125756647Y-123884621D01*
X125756624Y-123884600D01*
X117941018Y-116068993D01*
X117907533Y-116007670D01*
X117905171Y-115970508D01*
X117915277Y-115855000D01*
X117914154Y-115842169D01*
X117903510Y-115720500D01*
X117896207Y-115637023D01*
X117839575Y-115425670D01*
X117747102Y-115227362D01*
X117747100Y-115227359D01*
X117747099Y-115227357D01*
X117621597Y-115048121D01*
X117560257Y-114986781D01*
X117526772Y-114925458D01*
X117531756Y-114855766D01*
X117573628Y-114799833D01*
X117639092Y-114775416D01*
X117647938Y-114775100D01*
X119981313Y-114775100D01*
X120048352Y-114794785D01*
X120068994Y-114811419D01*
X126061847Y-120804272D01*
X126095332Y-120865595D01*
X126097694Y-120881145D01*
X126114364Y-121071687D01*
X126114366Y-121071697D01*
X126173258Y-121291488D01*
X126173261Y-121291497D01*
X126269431Y-121497732D01*
X126269432Y-121497734D01*
X126399954Y-121684141D01*
X126560858Y-121845045D01*
X126560861Y-121845047D01*
X126747266Y-121975568D01*
X126953504Y-122071739D01*
X127173308Y-122130635D01*
X127335230Y-122144801D01*
X127399998Y-122150468D01*
X127400000Y-122150468D01*
X127400002Y-122150468D01*
X127456673Y-122145509D01*
X127626692Y-122130635D01*
X127846496Y-122071739D01*
X128052734Y-121975568D01*
X128239139Y-121845047D01*
X128400047Y-121684139D01*
X128530568Y-121497734D01*
X128626739Y-121291496D01*
X128685635Y-121071692D01*
X128705468Y-120845000D01*
X128702896Y-120815607D01*
X128685635Y-120618313D01*
X128685635Y-120618308D01*
X128626739Y-120398504D01*
X128530568Y-120192266D01*
X128400047Y-120005861D01*
X128400045Y-120005858D01*
X128297822Y-119903635D01*
X169441500Y-119903635D01*
X169441500Y-121904370D01*
X169441501Y-121904376D01*
X169447908Y-121963983D01*
X169498202Y-122098828D01*
X169498206Y-122098835D01*
X169584452Y-122214044D01*
X169584455Y-122214047D01*
X169699664Y-122300293D01*
X169699669Y-122300296D01*
X169727539Y-122310690D01*
X169783473Y-122352561D01*
X169807891Y-122418024D01*
X169793040Y-122486298D01*
X169784525Y-122499759D01*
X169651783Y-122682461D01*
X169547950Y-122886244D01*
X169477278Y-123103750D01*
X169477278Y-123103753D01*
X169441500Y-123329646D01*
X169441500Y-123558353D01*
X169477278Y-123784246D01*
X169477278Y-123784249D01*
X169547950Y-124001755D01*
X169607584Y-124118793D01*
X169651783Y-124205538D01*
X169786214Y-124390566D01*
X169947934Y-124552286D01*
X170032864Y-124613991D01*
X170075529Y-124669321D01*
X170081508Y-124738935D01*
X170048902Y-124800730D01*
X170032864Y-124814627D01*
X169948257Y-124876097D01*
X169786597Y-125037757D01*
X169652211Y-125222723D01*
X169548417Y-125426429D01*
X169477765Y-125643871D01*
X169463491Y-125734000D01*
X170451252Y-125734000D01*
X170429482Y-125771708D01*
X170392000Y-125911591D01*
X170392000Y-126056409D01*
X170429482Y-126196292D01*
X170451252Y-126234000D01*
X169463491Y-126234000D01*
X169477765Y-126324128D01*
X169548417Y-126541570D01*
X169652211Y-126745276D01*
X169786597Y-126930242D01*
X169948257Y-127091902D01*
X170133223Y-127226288D01*
X170336929Y-127330082D01*
X170554371Y-127400734D01*
X170692000Y-127422532D01*
X170692000Y-126474747D01*
X170729708Y-126496518D01*
X170869591Y-126534000D01*
X171014409Y-126534000D01*
X171154292Y-126496518D01*
X171192000Y-126474747D01*
X171192000Y-127422531D01*
X171329628Y-127400734D01*
X171547070Y-127330082D01*
X171750776Y-127226288D01*
X171935742Y-127091902D01*
X172097402Y-126930242D01*
X172231788Y-126745276D01*
X172335582Y-126541570D01*
X172406234Y-126324128D01*
X172420509Y-126234000D01*
X171432748Y-126234000D01*
X171454518Y-126196292D01*
X171492000Y-126056409D01*
X171492000Y-125911591D01*
X171454518Y-125771708D01*
X171432748Y-125734000D01*
X172420509Y-125734000D01*
X172406234Y-125643871D01*
X172335582Y-125426429D01*
X172231788Y-125222723D01*
X172097402Y-125037757D01*
X171935742Y-124876097D01*
X171851135Y-124814626D01*
X171808470Y-124759296D01*
X171802491Y-124689682D01*
X171835097Y-124627887D01*
X171851125Y-124613999D01*
X171936066Y-124552286D01*
X172097786Y-124390566D01*
X172232217Y-124205538D01*
X172336048Y-124001758D01*
X172406722Y-123784245D01*
X172442500Y-123558354D01*
X172442500Y-123329646D01*
X172406722Y-123103755D01*
X172406721Y-123103751D01*
X172406721Y-123103750D01*
X172336049Y-122886244D01*
X172232216Y-122682461D01*
X172099472Y-122499755D01*
X172075994Y-122433953D01*
X172091819Y-122365899D01*
X172141925Y-122317204D01*
X172156455Y-122310692D01*
X172184331Y-122300296D01*
X172299546Y-122214046D01*
X172385796Y-122098831D01*
X172436091Y-121963983D01*
X172442500Y-121904373D01*
X172442499Y-119903628D01*
X172436091Y-119844017D01*
X172429913Y-119827454D01*
X172385797Y-119709171D01*
X172385793Y-119709164D01*
X172299547Y-119593955D01*
X172299544Y-119593952D01*
X172184335Y-119507706D01*
X172184328Y-119507702D01*
X172049482Y-119457408D01*
X172049483Y-119457408D01*
X171989883Y-119451001D01*
X171989881Y-119451000D01*
X171989873Y-119451000D01*
X171989864Y-119451000D01*
X169894129Y-119451000D01*
X169894123Y-119451001D01*
X169834516Y-119457408D01*
X169699671Y-119507702D01*
X169699664Y-119507706D01*
X169584455Y-119593952D01*
X169584452Y-119593955D01*
X169498206Y-119709164D01*
X169498202Y-119709171D01*
X169447908Y-119844017D01*
X169441501Y-119903616D01*
X169441501Y-119903623D01*
X169441500Y-119903635D01*
X128297822Y-119903635D01*
X128239141Y-119844954D01*
X128052734Y-119714432D01*
X128052732Y-119714431D01*
X127846497Y-119618261D01*
X127846488Y-119618258D01*
X127626697Y-119559366D01*
X127626693Y-119559365D01*
X127626692Y-119559365D01*
X127626691Y-119559364D01*
X127626686Y-119559364D01*
X127400002Y-119539532D01*
X127399998Y-119539532D01*
X127173313Y-119559364D01*
X127173302Y-119559366D01*
X127067122Y-119587817D01*
X126997272Y-119586154D01*
X126947348Y-119555723D01*
X120826169Y-113434543D01*
X120826168Y-113434542D01*
X120702592Y-113351972D01*
X120702591Y-113351971D01*
X120702589Y-113351970D01*
X120702586Y-113351968D01*
X120702581Y-113351966D01*
X120597862Y-113308591D01*
X120597860Y-113308590D01*
X120565284Y-113295096D01*
X120565280Y-113295095D01*
X120541094Y-113290284D01*
X120419514Y-113266099D01*
X120419512Y-113266099D01*
X120270888Y-113266099D01*
X120264774Y-113266099D01*
X120264754Y-113266100D01*
X107790446Y-113266100D01*
X107790426Y-113266099D01*
X107784312Y-113266099D01*
X107635688Y-113266099D01*
X107635686Y-113266099D01*
X107514105Y-113290284D01*
X107499540Y-113293181D01*
X107489918Y-113295095D01*
X107489917Y-113295095D01*
X107457337Y-113308591D01*
X107352617Y-113351966D01*
X107352610Y-113351970D01*
X107342600Y-113358659D01*
X107315034Y-113377078D01*
X107229033Y-113434541D01*
X107199181Y-113464394D01*
X107123941Y-113539634D01*
X107123939Y-113539636D01*
X103480946Y-117182627D01*
X103419623Y-117216112D01*
X103382458Y-117218474D01*
X103220802Y-117204332D01*
X103220798Y-117204332D01*
X102994113Y-117224164D01*
X102994102Y-117224166D01*
X102774311Y-117283058D01*
X102774302Y-117283061D01*
X102568067Y-117379231D01*
X102568065Y-117379232D01*
X102381658Y-117509754D01*
X102220754Y-117670658D01*
X102090232Y-117857065D01*
X102090231Y-117857067D01*
X101994061Y-118063302D01*
X101994058Y-118063311D01*
X101935166Y-118283102D01*
X101935164Y-118283113D01*
X101915332Y-118509798D01*
X94366268Y-118509798D01*
X94346435Y-118283108D01*
X94287539Y-118063304D01*
X94191368Y-117857066D01*
X94060847Y-117670661D01*
X94060845Y-117670658D01*
X93899941Y-117509754D01*
X93713534Y-117379232D01*
X93713532Y-117379231D01*
X93507297Y-117283061D01*
X93507288Y-117283058D01*
X93287497Y-117224166D01*
X93287493Y-117224165D01*
X93287492Y-117224165D01*
X93287491Y-117224164D01*
X93287486Y-117224164D01*
X93060802Y-117204332D01*
X93060798Y-117204332D01*
X92834113Y-117224164D01*
X92834102Y-117224166D01*
X92614311Y-117283058D01*
X92614302Y-117283061D01*
X92408067Y-117379231D01*
X92408065Y-117379232D01*
X92221658Y-117509754D01*
X92060754Y-117670658D01*
X91930232Y-117857065D01*
X91930231Y-117857067D01*
X91834061Y-118063302D01*
X91834058Y-118063311D01*
X91775166Y-118283102D01*
X91775164Y-118283113D01*
X91755332Y-118509798D01*
X71647225Y-118509798D01*
X72653700Y-117503323D01*
X72715021Y-117469840D01*
X72752181Y-117467478D01*
X72840000Y-117475162D01*
X72840000Y-117475161D01*
X72840001Y-117475162D01*
X72840002Y-117475162D01*
X72893186Y-117470508D01*
X73052747Y-117456549D01*
X73259030Y-117401276D01*
X73452581Y-117311021D01*
X73627519Y-117188529D01*
X73778529Y-117037519D01*
X73901021Y-116862581D01*
X73991276Y-116669030D01*
X74046549Y-116462747D01*
X74065162Y-116250000D01*
X74046549Y-116037253D01*
X73991276Y-115830970D01*
X73901021Y-115637419D01*
X73778529Y-115462481D01*
X73778527Y-115462478D01*
X73627521Y-115311472D01*
X73452578Y-115188977D01*
X73452579Y-115188977D01*
X73323547Y-115128809D01*
X73259030Y-115098724D01*
X73259026Y-115098723D01*
X73259022Y-115098721D01*
X73052752Y-115043452D01*
X73052748Y-115043451D01*
X73052747Y-115043451D01*
X73052746Y-115043450D01*
X73052741Y-115043450D01*
X72840002Y-115024838D01*
X72839998Y-115024838D01*
X72627258Y-115043450D01*
X72627247Y-115043452D01*
X72420977Y-115098721D01*
X72420968Y-115098725D01*
X72227421Y-115188977D01*
X72052478Y-115311472D01*
X71901472Y-115462478D01*
X71778977Y-115637421D01*
X71688725Y-115830968D01*
X71688721Y-115830977D01*
X71633452Y-116037247D01*
X71633450Y-116037258D01*
X71614838Y-116249998D01*
X71614838Y-116250002D01*
X71622520Y-116337812D01*
X71608753Y-116406312D01*
X71586673Y-116436300D01*
X67533942Y-120489031D01*
X67451372Y-120612607D01*
X67451366Y-120612618D01*
X67394496Y-120749916D01*
X67394493Y-120749926D01*
X67365499Y-120895685D01*
X67365499Y-121050425D01*
X67365500Y-121050446D01*
X67365500Y-126141138D01*
X67345815Y-126208177D01*
X67312626Y-126242710D01*
X67280861Y-126264953D01*
X67119951Y-126425862D01*
X66989432Y-126612265D01*
X66989431Y-126612267D01*
X66893261Y-126818502D01*
X66893258Y-126818511D01*
X66834366Y-127038302D01*
X66834364Y-127038313D01*
X66814532Y-127264998D01*
X66814532Y-127265001D01*
X66834364Y-127491686D01*
X66834366Y-127491697D01*
X66893258Y-127711488D01*
X66893261Y-127711497D01*
X66989431Y-127917732D01*
X66989432Y-127917734D01*
X67119954Y-128104141D01*
X67280856Y-128265043D01*
X67280859Y-128265045D01*
X67280861Y-128265047D01*
X67312623Y-128287286D01*
X67356247Y-128341860D01*
X67365500Y-128388861D01*
X67365500Y-131313129D01*
X67345815Y-131380168D01*
X67312624Y-131414704D01*
X67240856Y-131464956D01*
X67079954Y-131625858D01*
X66949432Y-131812265D01*
X66949431Y-131812267D01*
X66853261Y-132018502D01*
X66853258Y-132018511D01*
X66794366Y-132238302D01*
X66794364Y-132238313D01*
X66774532Y-132464998D01*
X59225468Y-132464998D01*
X59205635Y-132238308D01*
X59160916Y-132071415D01*
X59146741Y-132018511D01*
X59146738Y-132018502D01*
X59085436Y-131887041D01*
X59050568Y-131812266D01*
X58920047Y-131625861D01*
X58920045Y-131625858D01*
X58759141Y-131464954D01*
X58572734Y-131334432D01*
X58572732Y-131334431D01*
X58366497Y-131238261D01*
X58366488Y-131238258D01*
X58146697Y-131179366D01*
X58146693Y-131179365D01*
X58146692Y-131179365D01*
X58146691Y-131179364D01*
X58146686Y-131179364D01*
X57920002Y-131159532D01*
X57919998Y-131159532D01*
X57693313Y-131179364D01*
X57693302Y-131179366D01*
X57473511Y-131238258D01*
X57473502Y-131238261D01*
X57267267Y-131334431D01*
X57267265Y-131334432D01*
X57080858Y-131464954D01*
X56919954Y-131625858D01*
X56789432Y-131812265D01*
X56789431Y-131812267D01*
X56693261Y-132018502D01*
X56693258Y-132018511D01*
X56634366Y-132238302D01*
X56634364Y-132238313D01*
X56614532Y-132464998D01*
X47018272Y-132464998D01*
X47012374Y-132441450D01*
X46879983Y-132071440D01*
X46879976Y-132071424D01*
X46711937Y-131716135D01*
X46509890Y-131379041D01*
X46275771Y-131063367D01*
X46179930Y-130957622D01*
X46179929Y-130957622D01*
X44581617Y-132555934D01*
X44498543Y-132447669D01*
X44336331Y-132285457D01*
X44228065Y-132202381D01*
X45826376Y-130604069D01*
X45826376Y-130604068D01*
X45720632Y-130508228D01*
X45404958Y-130274109D01*
X45067864Y-130072062D01*
X44712575Y-129904023D01*
X44712559Y-129904016D01*
X44342549Y-129771625D01*
X43961308Y-129676129D01*
X43572550Y-129618461D01*
X43180000Y-129599176D01*
X42787449Y-129618461D01*
X42398691Y-129676129D01*
X42017450Y-129771625D01*
X41647440Y-129904016D01*
X41647424Y-129904023D01*
X41292135Y-130072062D01*
X40955041Y-130274109D01*
X40639368Y-130508228D01*
X40533622Y-130604069D01*
X42131934Y-132202381D01*
X42023669Y-132285457D01*
X41861457Y-132447669D01*
X41778382Y-132555934D01*
X40180069Y-130957622D01*
X40084228Y-131063368D01*
X39850109Y-131379041D01*
X39648062Y-131716135D01*
X39480023Y-132071424D01*
X39480016Y-132071440D01*
X39356751Y-132415945D01*
X39315633Y-132472434D01*
X39250501Y-132497726D01*
X39182035Y-132483789D01*
X39131973Y-132435049D01*
X39116000Y-132374171D01*
X39116000Y-126279135D01*
X47909388Y-126279135D01*
X47909388Y-127974870D01*
X47909389Y-127974876D01*
X47915796Y-128034483D01*
X47966090Y-128169328D01*
X47966094Y-128169335D01*
X48052340Y-128284544D01*
X48052343Y-128284547D01*
X48167552Y-128370793D01*
X48167559Y-128370797D01*
X48302405Y-128421091D01*
X48302404Y-128421091D01*
X48309332Y-128421835D01*
X48362015Y-128427500D01*
X50057760Y-128427499D01*
X50117371Y-128421091D01*
X50252219Y-128370796D01*
X50367434Y-128284546D01*
X50373939Y-128275856D01*
X50429870Y-128233984D01*
X50499561Y-128228997D01*
X50544330Y-128248589D01*
X50557152Y-128257567D01*
X50557154Y-128257568D01*
X50763392Y-128353739D01*
X50983196Y-128412635D01*
X51145118Y-128426801D01*
X51209886Y-128432468D01*
X51209888Y-128432468D01*
X51209890Y-128432468D01*
X51266695Y-128427498D01*
X51436580Y-128412635D01*
X51656384Y-128353739D01*
X51862622Y-128257568D01*
X52049027Y-128127047D01*
X52209935Y-127966139D01*
X52340456Y-127779734D01*
X52436627Y-127573496D01*
X52495523Y-127353692D01*
X52512522Y-127159384D01*
X52515356Y-127127001D01*
X52515356Y-127126998D01*
X52498848Y-126938313D01*
X52495523Y-126900308D01*
X52446809Y-126718504D01*
X52436629Y-126680511D01*
X52436626Y-126680502D01*
X52392291Y-126585426D01*
X52340456Y-126474266D01*
X52209935Y-126287861D01*
X52209933Y-126287858D01*
X52049029Y-126126954D01*
X51862622Y-125996432D01*
X51862620Y-125996431D01*
X51656385Y-125900261D01*
X51656376Y-125900258D01*
X51436585Y-125841366D01*
X51436581Y-125841365D01*
X51436580Y-125841365D01*
X51436579Y-125841364D01*
X51436574Y-125841364D01*
X51209890Y-125821532D01*
X51209886Y-125821532D01*
X50983201Y-125841364D01*
X50983190Y-125841366D01*
X50763399Y-125900258D01*
X50763390Y-125900261D01*
X50557155Y-125996431D01*
X50557150Y-125996434D01*
X50544323Y-126005415D01*
X50478115Y-126027738D01*
X50410349Y-126010722D01*
X50373940Y-125978145D01*
X50367434Y-125969454D01*
X50367433Y-125969453D01*
X50367432Y-125969452D01*
X50252223Y-125883206D01*
X50252216Y-125883202D01*
X50117370Y-125832908D01*
X50117371Y-125832908D01*
X50057771Y-125826501D01*
X50057769Y-125826500D01*
X50057761Y-125826500D01*
X50057752Y-125826500D01*
X48362017Y-125826500D01*
X48362011Y-125826501D01*
X48302404Y-125832908D01*
X48167559Y-125883202D01*
X48167552Y-125883206D01*
X48052343Y-125969452D01*
X48052340Y-125969455D01*
X47966094Y-126084664D01*
X47966090Y-126084671D01*
X47915796Y-126219517D01*
X47909389Y-126279116D01*
X47909388Y-126279135D01*
X39116000Y-126279135D01*
X39116000Y-118577995D01*
X47419451Y-118577995D01*
X47419451Y-118578004D01*
X47439616Y-118847101D01*
X47499664Y-119110188D01*
X47499666Y-119110195D01*
X47598256Y-119361396D01*
X47598258Y-119361400D01*
X47599976Y-119364376D01*
X47733185Y-119595102D01*
X47828347Y-119714431D01*
X47901442Y-119806089D01*
X48048644Y-119942671D01*
X48099259Y-119989635D01*
X48322226Y-120141651D01*
X48565359Y-120258738D01*
X48823228Y-120338280D01*
X48823229Y-120338280D01*
X48823232Y-120338281D01*
X49090063Y-120378499D01*
X49090068Y-120378499D01*
X49090071Y-120378500D01*
X49090072Y-120378500D01*
X49359928Y-120378500D01*
X49359929Y-120378500D01*
X49359936Y-120378499D01*
X49626767Y-120338281D01*
X49626768Y-120338280D01*
X49626772Y-120338280D01*
X49884641Y-120258738D01*
X50127775Y-120141651D01*
X50350741Y-119989635D01*
X50525533Y-119827452D01*
X50548557Y-119806089D01*
X50548557Y-119806087D01*
X50548561Y-119806085D01*
X50716815Y-119595102D01*
X50851743Y-119361398D01*
X50950334Y-119110195D01*
X51010383Y-118847103D01*
X51028913Y-118599830D01*
X51030549Y-118578004D01*
X51030549Y-118577995D01*
X51010383Y-118308898D01*
X51004495Y-118283102D01*
X50950334Y-118045805D01*
X50851743Y-117794602D01*
X50716815Y-117560898D01*
X50548561Y-117349915D01*
X50548560Y-117349914D01*
X50548557Y-117349910D01*
X50350741Y-117166365D01*
X50253652Y-117100171D01*
X50127775Y-117014349D01*
X50127769Y-117014346D01*
X50127768Y-117014345D01*
X50127767Y-117014344D01*
X49884643Y-116897263D01*
X49884645Y-116897263D01*
X49626773Y-116817720D01*
X49626767Y-116817718D01*
X49359936Y-116777500D01*
X49359929Y-116777500D01*
X49090071Y-116777500D01*
X49090063Y-116777500D01*
X48823232Y-116817718D01*
X48823226Y-116817720D01*
X48565358Y-116897262D01*
X48322230Y-117014346D01*
X48099258Y-117166365D01*
X47901442Y-117349910D01*
X47733185Y-117560898D01*
X47598258Y-117794599D01*
X47598256Y-117794603D01*
X47499666Y-118045804D01*
X47499664Y-118045811D01*
X47439616Y-118308898D01*
X47419451Y-118577995D01*
X39116000Y-118577995D01*
X39116000Y-116249997D01*
X66535340Y-116249997D01*
X66535340Y-116250002D01*
X66553944Y-116462654D01*
X66553945Y-116462662D01*
X66609194Y-116668853D01*
X66609197Y-116668859D01*
X66699413Y-116862329D01*
X66738415Y-116918030D01*
X67360000Y-116296445D01*
X67360000Y-116302661D01*
X67387259Y-116404394D01*
X67439920Y-116495606D01*
X67514394Y-116570080D01*
X67605606Y-116622741D01*
X67707339Y-116650000D01*
X67713553Y-116650000D01*
X67091968Y-117271584D01*
X67147663Y-117310582D01*
X67147669Y-117310586D01*
X67341140Y-117400802D01*
X67341146Y-117400805D01*
X67547337Y-117456054D01*
X67547345Y-117456055D01*
X67759998Y-117474660D01*
X67760002Y-117474660D01*
X67972654Y-117456055D01*
X67972662Y-117456054D01*
X68178853Y-117400805D01*
X68178864Y-117400801D01*
X68372325Y-117310589D01*
X68428030Y-117271583D01*
X67806448Y-116650000D01*
X67812661Y-116650000D01*
X67914394Y-116622741D01*
X68005606Y-116570080D01*
X68080080Y-116495606D01*
X68132741Y-116404394D01*
X68160000Y-116302661D01*
X68160000Y-116296446D01*
X68781583Y-116918029D01*
X68820589Y-116862325D01*
X68910801Y-116668864D01*
X68910805Y-116668853D01*
X68966054Y-116462662D01*
X68966055Y-116462654D01*
X68984660Y-116250002D01*
X68984660Y-116249997D01*
X68966055Y-116037345D01*
X68966054Y-116037337D01*
X68910805Y-115831146D01*
X68910802Y-115831140D01*
X68820586Y-115637669D01*
X68820582Y-115637663D01*
X68781584Y-115581968D01*
X68160000Y-116203552D01*
X68160000Y-116197339D01*
X68132741Y-116095606D01*
X68080080Y-116004394D01*
X68005606Y-115929920D01*
X67914394Y-115877259D01*
X67812661Y-115850000D01*
X67806447Y-115850000D01*
X68428030Y-115228415D01*
X68372329Y-115189413D01*
X68178859Y-115099197D01*
X68178853Y-115099194D01*
X67972662Y-115043945D01*
X67972654Y-115043944D01*
X67760002Y-115025340D01*
X67759998Y-115025340D01*
X67547345Y-115043944D01*
X67547337Y-115043945D01*
X67341146Y-115099194D01*
X67341140Y-115099197D01*
X67147671Y-115189412D01*
X67147669Y-115189413D01*
X67091969Y-115228415D01*
X67091968Y-115228415D01*
X67713554Y-115850000D01*
X67707339Y-115850000D01*
X67605606Y-115877259D01*
X67514394Y-115929920D01*
X67439920Y-116004394D01*
X67387259Y-116095606D01*
X67360000Y-116197339D01*
X67360000Y-116203553D01*
X66738415Y-115581968D01*
X66738415Y-115581969D01*
X66699413Y-115637669D01*
X66699412Y-115637671D01*
X66609197Y-115831140D01*
X66609194Y-115831146D01*
X66553945Y-116037337D01*
X66553944Y-116037345D01*
X66535340Y-116249997D01*
X39116000Y-116249997D01*
X39116000Y-112230135D01*
X47424500Y-112230135D01*
X47424500Y-114925870D01*
X47424501Y-114925876D01*
X47430908Y-114985483D01*
X47481202Y-115120328D01*
X47481206Y-115120335D01*
X47567452Y-115235544D01*
X47567455Y-115235547D01*
X47682664Y-115321793D01*
X47682671Y-115321797D01*
X47817517Y-115372091D01*
X47817516Y-115372091D01*
X47824444Y-115372835D01*
X47877127Y-115378500D01*
X50572872Y-115378499D01*
X50632483Y-115372091D01*
X50767331Y-115321796D01*
X50882546Y-115235546D01*
X50968796Y-115120331D01*
X51019091Y-114985483D01*
X51025500Y-114925873D01*
X51025500Y-113709997D01*
X69075340Y-113709997D01*
X69075340Y-113710002D01*
X69093944Y-113922654D01*
X69093945Y-113922662D01*
X69149194Y-114128853D01*
X69149197Y-114128859D01*
X69239413Y-114322329D01*
X69278415Y-114378030D01*
X69900000Y-113756445D01*
X69900000Y-113762661D01*
X69927259Y-113864394D01*
X69979920Y-113955606D01*
X70054394Y-114030080D01*
X70145606Y-114082741D01*
X70247339Y-114110000D01*
X70253553Y-114110000D01*
X69631968Y-114731584D01*
X69687663Y-114770582D01*
X69687669Y-114770586D01*
X69881140Y-114860802D01*
X69881146Y-114860805D01*
X70087337Y-114916054D01*
X70087345Y-114916055D01*
X70299998Y-114934660D01*
X70300002Y-114934660D01*
X70512654Y-114916055D01*
X70512662Y-114916054D01*
X70718853Y-114860805D01*
X70718864Y-114860801D01*
X70912325Y-114770589D01*
X70968030Y-114731583D01*
X70346448Y-114110000D01*
X70352661Y-114110000D01*
X70454394Y-114082741D01*
X70545606Y-114030080D01*
X70620080Y-113955606D01*
X70672741Y-113864394D01*
X70700000Y-113762661D01*
X70700000Y-113756446D01*
X71321583Y-114378029D01*
X71360589Y-114322325D01*
X71450801Y-114128864D01*
X71450805Y-114128853D01*
X71506054Y-113922662D01*
X71506055Y-113922654D01*
X71524660Y-113710002D01*
X71524660Y-113709997D01*
X71506055Y-113497345D01*
X71506054Y-113497337D01*
X71450805Y-113291146D01*
X71450802Y-113291140D01*
X71360586Y-113097669D01*
X71360582Y-113097663D01*
X71321584Y-113041968D01*
X70700000Y-113663552D01*
X70700000Y-113657339D01*
X70672741Y-113555606D01*
X70620080Y-113464394D01*
X70545606Y-113389920D01*
X70454394Y-113337259D01*
X70352661Y-113310000D01*
X70346447Y-113310000D01*
X70968030Y-112688415D01*
X70912329Y-112649413D01*
X70718859Y-112559197D01*
X70718853Y-112559194D01*
X70512662Y-112503945D01*
X70512654Y-112503944D01*
X70300002Y-112485340D01*
X70299998Y-112485340D01*
X70087345Y-112503944D01*
X70087337Y-112503945D01*
X69881146Y-112559194D01*
X69881140Y-112559197D01*
X69687671Y-112649412D01*
X69687669Y-112649413D01*
X69631969Y-112688415D01*
X69631968Y-112688415D01*
X70253554Y-113310000D01*
X70247339Y-113310000D01*
X70145606Y-113337259D01*
X70054394Y-113389920D01*
X69979920Y-113464394D01*
X69927259Y-113555606D01*
X69900000Y-113657339D01*
X69900000Y-113663553D01*
X69278415Y-113041968D01*
X69278415Y-113041969D01*
X69239413Y-113097669D01*
X69239412Y-113097671D01*
X69149197Y-113291140D01*
X69149194Y-113291146D01*
X69093945Y-113497337D01*
X69093944Y-113497345D01*
X69075340Y-113709997D01*
X51025500Y-113709997D01*
X51025499Y-112415000D01*
X80694551Y-112415000D01*
X80714317Y-112666151D01*
X80773126Y-112911110D01*
X80869533Y-113143859D01*
X81001160Y-113358653D01*
X81001161Y-113358656D01*
X81001164Y-113358659D01*
X81164776Y-113550224D01*
X81290192Y-113657339D01*
X81356343Y-113713838D01*
X81356346Y-113713839D01*
X81571140Y-113845466D01*
X81616837Y-113864394D01*
X81803889Y-113941873D01*
X82048852Y-114000683D01*
X82300000Y-114020449D01*
X82551148Y-114000683D01*
X82796111Y-113941873D01*
X83028859Y-113845466D01*
X83243659Y-113713836D01*
X83435224Y-113550224D01*
X83598836Y-113358659D01*
X83678470Y-113228707D01*
X83730280Y-113181835D01*
X83784196Y-113169500D01*
X84186113Y-113169500D01*
X84253152Y-113189185D01*
X84273794Y-113205819D01*
X86879400Y-115811424D01*
X86879421Y-115811447D01*
X86988829Y-115920855D01*
X86988832Y-115920857D01*
X86988834Y-115920859D01*
X87071405Y-115976030D01*
X87112411Y-116003430D01*
X87112412Y-116003430D01*
X87112412Y-116003431D01*
X87122647Y-116007670D01*
X87174284Y-116029058D01*
X87174285Y-116029059D01*
X87174286Y-116029059D01*
X87249720Y-116060305D01*
X87249722Y-116060305D01*
X87249724Y-116060306D01*
X87273904Y-116065115D01*
X87273910Y-116065116D01*
X87395486Y-116089301D01*
X87395488Y-116089301D01*
X87550226Y-116089301D01*
X87550246Y-116089300D01*
X88761938Y-116089300D01*
X88828977Y-116108985D01*
X88863513Y-116142177D01*
X88885754Y-116173941D01*
X89046658Y-116334845D01*
X89046661Y-116334847D01*
X89233066Y-116465368D01*
X89439304Y-116561539D01*
X89439309Y-116561540D01*
X89439311Y-116561541D01*
X89484193Y-116573567D01*
X89659108Y-116620435D01*
X89821030Y-116634601D01*
X89885798Y-116640268D01*
X89885800Y-116640268D01*
X89885802Y-116640268D01*
X89942473Y-116635309D01*
X90112492Y-116620435D01*
X90332296Y-116561539D01*
X90538534Y-116465368D01*
X90724939Y-116334847D01*
X90885847Y-116173939D01*
X90908087Y-116142177D01*
X90962663Y-116098552D01*
X91009662Y-116089300D01*
X97571754Y-116089300D01*
X97571774Y-116089301D01*
X97577888Y-116089301D01*
X97726514Y-116089301D01*
X97848094Y-116065115D01*
X97848094Y-116065116D01*
X97848100Y-116065113D01*
X97872280Y-116060305D01*
X97947714Y-116029059D01*
X98009589Y-116003430D01*
X98133166Y-115920859D01*
X101186887Y-112867135D01*
X103151500Y-112867135D01*
X103151500Y-114462870D01*
X103151501Y-114462876D01*
X103157908Y-114522483D01*
X103208202Y-114657328D01*
X103208206Y-114657335D01*
X103294452Y-114772544D01*
X103294455Y-114772547D01*
X103409664Y-114858793D01*
X103409671Y-114858797D01*
X103544517Y-114909091D01*
X103544516Y-114909091D01*
X103551444Y-114909835D01*
X103604127Y-114915500D01*
X105199872Y-114915499D01*
X105259483Y-114909091D01*
X105394331Y-114858796D01*
X105509546Y-114772546D01*
X105595796Y-114657331D01*
X105646091Y-114522483D01*
X105652500Y-114462873D01*
X105652499Y-112867128D01*
X105646091Y-112807517D01*
X105643141Y-112799608D01*
X105595797Y-112672671D01*
X105595793Y-112672664D01*
X105509547Y-112557455D01*
X105509544Y-112557452D01*
X105394335Y-112471206D01*
X105394328Y-112471202D01*
X105259482Y-112420908D01*
X105259483Y-112420908D01*
X105199883Y-112414501D01*
X105199881Y-112414500D01*
X105199873Y-112414500D01*
X105199864Y-112414500D01*
X103604129Y-112414500D01*
X103604123Y-112414501D01*
X103544516Y-112420908D01*
X103409671Y-112471202D01*
X103409664Y-112471206D01*
X103294455Y-112557452D01*
X103294452Y-112557455D01*
X103208206Y-112672664D01*
X103208202Y-112672671D01*
X103157908Y-112807517D01*
X103151501Y-112867116D01*
X103151501Y-112867123D01*
X103151500Y-112867135D01*
X101186887Y-112867135D01*
X101648006Y-112406016D01*
X101709327Y-112372533D01*
X101746489Y-112370171D01*
X101844710Y-112378764D01*
X101861999Y-112380277D01*
X101862000Y-112380277D01*
X101862002Y-112380277D01*
X101890254Y-112377805D01*
X102079977Y-112361207D01*
X102291330Y-112304575D01*
X102489639Y-112212102D01*
X102668877Y-112086598D01*
X102823598Y-111931877D01*
X102949102Y-111752639D01*
X103041575Y-111554330D01*
X103098207Y-111342977D01*
X103116709Y-111131496D01*
X103117277Y-111125002D01*
X103117277Y-111124997D01*
X103104988Y-110984534D01*
X103098207Y-110907023D01*
X103041575Y-110695670D01*
X102949102Y-110497362D01*
X102949100Y-110497359D01*
X102949099Y-110497357D01*
X102823599Y-110318124D01*
X102823596Y-110318121D01*
X102668877Y-110163402D01*
X102489639Y-110037898D01*
X102489640Y-110037898D01*
X102489638Y-110037897D01*
X102390484Y-109991661D01*
X102291330Y-109945425D01*
X102291326Y-109945424D01*
X102291322Y-109945422D01*
X102079977Y-109888793D01*
X101862002Y-109869723D01*
X101861998Y-109869723D01*
X101716682Y-109882436D01*
X101644023Y-109888793D01*
X101644020Y-109888793D01*
X101432677Y-109945422D01*
X101432668Y-109945426D01*
X101234361Y-110037898D01*
X101234357Y-110037900D01*
X101055121Y-110163402D01*
X100900402Y-110318121D01*
X100774900Y-110497357D01*
X100774898Y-110497361D01*
X100682426Y-110695668D01*
X100682422Y-110695677D01*
X100625793Y-110907020D01*
X100625793Y-110907024D01*
X100606723Y-111124997D01*
X100606723Y-111125002D01*
X100616827Y-111240507D01*
X100603060Y-111309007D01*
X100580980Y-111338994D01*
X97375994Y-114543981D01*
X97314671Y-114577466D01*
X97288313Y-114580300D01*
X91009662Y-114580300D01*
X90942623Y-114560615D01*
X90908087Y-114527423D01*
X90885845Y-114495658D01*
X90724941Y-114334754D01*
X90538534Y-114204232D01*
X90538532Y-114204231D01*
X90332297Y-114108061D01*
X90332288Y-114108058D01*
X90112497Y-114049166D01*
X90112493Y-114049165D01*
X90112492Y-114049165D01*
X90112491Y-114049164D01*
X90112486Y-114049164D01*
X89885802Y-114029332D01*
X89885798Y-114029332D01*
X89659113Y-114049164D01*
X89659102Y-114049166D01*
X89439311Y-114108058D01*
X89439302Y-114108061D01*
X89233067Y-114204231D01*
X89233065Y-114204232D01*
X89046658Y-114334754D01*
X88885754Y-114495658D01*
X88863513Y-114527423D01*
X88808937Y-114571048D01*
X88761938Y-114580300D01*
X87833686Y-114580300D01*
X87766647Y-114560615D01*
X87746005Y-114543981D01*
X85030969Y-111828943D01*
X85030968Y-111828942D01*
X84907392Y-111746372D01*
X84907391Y-111746371D01*
X84907389Y-111746370D01*
X84907387Y-111746369D01*
X84907385Y-111746368D01*
X84793111Y-111699035D01*
X84793109Y-111699034D01*
X84770081Y-111689495D01*
X84770082Y-111689495D01*
X84760460Y-111687581D01*
X84745894Y-111684684D01*
X84624314Y-111660499D01*
X84624312Y-111660499D01*
X84475688Y-111660499D01*
X84469574Y-111660499D01*
X84469554Y-111660500D01*
X83784196Y-111660500D01*
X83717157Y-111640815D01*
X83678470Y-111601292D01*
X83598836Y-111471341D01*
X83435224Y-111279776D01*
X83261612Y-111131497D01*
X83243656Y-111116161D01*
X83243653Y-111116160D01*
X83028859Y-110984533D01*
X82796110Y-110888126D01*
X82551151Y-110829317D01*
X82300000Y-110809551D01*
X82048848Y-110829317D01*
X81803889Y-110888126D01*
X81571140Y-110984533D01*
X81356346Y-111116160D01*
X81356343Y-111116161D01*
X81164776Y-111279776D01*
X81001161Y-111471343D01*
X81001160Y-111471346D01*
X80869533Y-111686140D01*
X80773126Y-111918889D01*
X80714317Y-112163848D01*
X80694551Y-112415000D01*
X51025499Y-112415000D01*
X51025499Y-112230128D01*
X51019091Y-112170517D01*
X50987791Y-112086598D01*
X50968797Y-112035671D01*
X50968793Y-112035664D01*
X50882547Y-111920455D01*
X50882544Y-111920452D01*
X50767335Y-111834206D01*
X50767328Y-111834202D01*
X50632482Y-111783908D01*
X50632483Y-111783908D01*
X50572883Y-111777501D01*
X50572881Y-111777500D01*
X50572873Y-111777500D01*
X50572864Y-111777500D01*
X47877129Y-111777500D01*
X47877123Y-111777501D01*
X47817516Y-111783908D01*
X47682671Y-111834202D01*
X47682664Y-111834206D01*
X47567455Y-111920452D01*
X47567452Y-111920455D01*
X47481206Y-112035664D01*
X47481202Y-112035671D01*
X47430908Y-112170517D01*
X47426438Y-112212102D01*
X47424501Y-112230123D01*
X47424500Y-112230135D01*
X39116000Y-112230135D01*
X39116000Y-108584997D01*
X103146723Y-108584997D01*
X103146723Y-108585002D01*
X103165793Y-108802975D01*
X103165793Y-108802979D01*
X103222422Y-109014322D01*
X103222424Y-109014326D01*
X103222425Y-109014330D01*
X103268661Y-109113484D01*
X103314897Y-109212638D01*
X103314898Y-109212639D01*
X103440402Y-109391877D01*
X103595123Y-109546598D01*
X103774361Y-109672102D01*
X103972670Y-109764575D01*
X104184023Y-109821207D01*
X104366926Y-109837208D01*
X104401998Y-109840277D01*
X104402000Y-109840277D01*
X104402002Y-109840277D01*
X104430254Y-109837805D01*
X104619977Y-109821207D01*
X104831330Y-109764575D01*
X105029639Y-109672102D01*
X105208877Y-109546598D01*
X105363598Y-109391877D01*
X105363605Y-109391866D01*
X105367080Y-109387727D01*
X105368048Y-109388539D01*
X105417825Y-109348752D01*
X105464823Y-109339500D01*
X126660944Y-109339500D01*
X126727983Y-109359185D01*
X126773738Y-109411989D01*
X126783682Y-109481147D01*
X126754657Y-109544703D01*
X126732070Y-109565072D01*
X126668969Y-109609255D01*
X126560858Y-109684954D01*
X126399954Y-109845858D01*
X126269432Y-110032265D01*
X126269431Y-110032267D01*
X126173261Y-110238502D01*
X126173258Y-110238511D01*
X126114366Y-110458302D01*
X126114364Y-110458313D01*
X126094532Y-110684998D01*
X126094532Y-110685001D01*
X126114364Y-110911686D01*
X126114366Y-110911697D01*
X126173258Y-111131488D01*
X126173261Y-111131497D01*
X126269431Y-111337732D01*
X126269432Y-111337734D01*
X126399954Y-111524141D01*
X126560858Y-111685045D01*
X126560861Y-111685047D01*
X126747266Y-111815568D01*
X126953504Y-111911739D01*
X126953509Y-111911740D01*
X126953511Y-111911741D01*
X126986029Y-111920454D01*
X127173308Y-111970635D01*
X127335230Y-111984801D01*
X127399998Y-111990468D01*
X127400000Y-111990468D01*
X127400002Y-111990468D01*
X127456673Y-111985509D01*
X127626692Y-111970635D01*
X127846496Y-111911739D01*
X128052734Y-111815568D01*
X128239139Y-111685047D01*
X128400047Y-111524139D01*
X128530568Y-111337734D01*
X128626739Y-111131496D01*
X128685635Y-110911692D01*
X128704534Y-110695677D01*
X128705468Y-110685001D01*
X128705468Y-110684998D01*
X128699801Y-110620230D01*
X128685635Y-110458308D01*
X128626739Y-110238504D01*
X128530568Y-110032266D01*
X128400047Y-109845861D01*
X128400045Y-109845858D01*
X128239141Y-109684954D01*
X128173399Y-109638921D01*
X128067931Y-109565073D01*
X128024308Y-109510499D01*
X128017114Y-109441001D01*
X128048636Y-109378646D01*
X128108866Y-109343231D01*
X128139056Y-109339500D01*
X130446113Y-109339500D01*
X130513152Y-109359185D01*
X130533794Y-109375819D01*
X134591181Y-113433205D01*
X134624666Y-113494528D01*
X134627500Y-113520886D01*
X134627500Y-114319138D01*
X134607815Y-114386177D01*
X134574626Y-114420710D01*
X134542861Y-114442953D01*
X134381951Y-114603862D01*
X134251432Y-114790265D01*
X134251431Y-114790267D01*
X134155261Y-114996502D01*
X134155258Y-114996511D01*
X134096366Y-115216302D01*
X134096364Y-115216313D01*
X134076532Y-115442998D01*
X134076532Y-115443001D01*
X134096364Y-115669686D01*
X134096366Y-115669697D01*
X134155258Y-115889488D01*
X134155261Y-115889497D01*
X134251431Y-116095732D01*
X134251432Y-116095734D01*
X134381954Y-116282141D01*
X134542858Y-116443045D01*
X134542861Y-116443047D01*
X134729266Y-116573568D01*
X134935504Y-116669739D01*
X135155308Y-116728635D01*
X135317230Y-116742801D01*
X135381998Y-116748468D01*
X135382000Y-116748468D01*
X135382001Y-116748468D01*
X135400637Y-116746837D01*
X135543659Y-116734324D01*
X135612157Y-116748090D01*
X135642146Y-116770171D01*
X137712600Y-118840624D01*
X137712621Y-118840647D01*
X137822031Y-118950057D01*
X137822034Y-118950059D01*
X137882957Y-118990766D01*
X137945611Y-119032630D01*
X138020450Y-119063629D01*
X138082920Y-119089505D01*
X138082922Y-119089505D01*
X138082924Y-119089506D01*
X138107104Y-119094315D01*
X138107110Y-119094316D01*
X138228686Y-119118501D01*
X138228688Y-119118501D01*
X138383426Y-119118501D01*
X138383446Y-119118500D01*
X143917501Y-119118500D01*
X143984540Y-119138185D01*
X144030295Y-119190989D01*
X144041501Y-119242500D01*
X144041501Y-119364376D01*
X144047908Y-119423983D01*
X144098202Y-119558828D01*
X144098206Y-119558835D01*
X144184452Y-119674044D01*
X144184455Y-119674047D01*
X144299664Y-119760293D01*
X144299671Y-119760297D01*
X144434517Y-119810591D01*
X144434516Y-119810591D01*
X144441444Y-119811335D01*
X144494127Y-119817000D01*
X146589872Y-119816999D01*
X146649483Y-119810591D01*
X146784331Y-119760296D01*
X146899546Y-119674046D01*
X146985796Y-119558831D01*
X147036091Y-119423983D01*
X147042500Y-119364373D01*
X147042499Y-117363628D01*
X147036844Y-117311021D01*
X147036091Y-117304016D01*
X147005126Y-117220994D01*
X179596357Y-117220994D01*
X179596357Y-117221005D01*
X179616890Y-117468812D01*
X179616892Y-117468824D01*
X179677936Y-117709881D01*
X179777826Y-117937606D01*
X179913833Y-118145782D01*
X179946245Y-118180991D01*
X180082256Y-118328738D01*
X180278491Y-118481474D01*
X180497190Y-118599828D01*
X180732386Y-118680571D01*
X180977665Y-118721500D01*
X181226335Y-118721500D01*
X181471614Y-118680571D01*
X181706810Y-118599828D01*
X181925509Y-118481474D01*
X182121744Y-118328738D01*
X182290164Y-118145785D01*
X182426173Y-117937607D01*
X182526063Y-117709881D01*
X182587108Y-117468821D01*
X182587109Y-117468812D01*
X182607643Y-117221005D01*
X182607643Y-117220994D01*
X182587109Y-116973187D01*
X182587107Y-116973175D01*
X182526063Y-116732118D01*
X182426173Y-116504393D01*
X182290166Y-116296217D01*
X182199142Y-116197339D01*
X182121744Y-116113262D01*
X181925509Y-115960526D01*
X181925507Y-115960525D01*
X181925506Y-115960524D01*
X181706811Y-115842172D01*
X181706802Y-115842169D01*
X181471616Y-115761429D01*
X181226335Y-115720500D01*
X180977665Y-115720500D01*
X180732383Y-115761429D01*
X180497197Y-115842169D01*
X180497188Y-115842172D01*
X180278493Y-115960524D01*
X180082257Y-116113261D01*
X179913833Y-116296217D01*
X179777826Y-116504393D01*
X179677936Y-116732118D01*
X179616892Y-116973175D01*
X179616890Y-116973187D01*
X179596357Y-117220994D01*
X147005126Y-117220994D01*
X146985797Y-117169171D01*
X146985793Y-117169164D01*
X146899547Y-117053955D01*
X146899544Y-117053952D01*
X146784335Y-116967706D01*
X146784328Y-116967702D01*
X146756459Y-116957308D01*
X146700525Y-116915437D01*
X146676108Y-116849973D01*
X146690960Y-116781700D01*
X146699460Y-116768260D01*
X146832217Y-116585538D01*
X146936048Y-116381758D01*
X146967707Y-116284322D01*
X147006721Y-116164249D01*
X147006721Y-116164248D01*
X147006722Y-116164245D01*
X147042500Y-115938354D01*
X147042500Y-115709646D01*
X147006722Y-115483755D01*
X147006721Y-115483751D01*
X147006721Y-115483750D01*
X146936049Y-115266244D01*
X146896901Y-115189412D01*
X146832217Y-115062462D01*
X146697786Y-114877434D01*
X146536066Y-114715714D01*
X146451559Y-114654316D01*
X146408896Y-114598988D01*
X146402917Y-114529375D01*
X146435523Y-114467580D01*
X146451556Y-114453685D01*
X146536066Y-114392286D01*
X146697786Y-114230566D01*
X146832217Y-114045538D01*
X146936048Y-113841758D01*
X147006722Y-113624245D01*
X147042500Y-113398354D01*
X147042500Y-113169646D01*
X147006722Y-112943755D01*
X147006721Y-112943751D01*
X147006721Y-112943750D01*
X146936049Y-112726244D01*
X146905430Y-112666151D01*
X146832217Y-112522462D01*
X146697786Y-112337434D01*
X146536066Y-112175714D01*
X146351038Y-112041283D01*
X146251308Y-111990468D01*
X146147255Y-111937450D01*
X145929748Y-111866778D01*
X145760326Y-111839944D01*
X145703854Y-111831000D01*
X145380146Y-111831000D01*
X145304849Y-111842926D01*
X145154253Y-111866778D01*
X145154250Y-111866778D01*
X144936744Y-111937450D01*
X144732961Y-112041283D01*
X144670598Y-112086593D01*
X144547934Y-112175714D01*
X144547932Y-112175716D01*
X144547931Y-112175716D01*
X144386216Y-112337431D01*
X144386216Y-112337432D01*
X144386214Y-112337434D01*
X144362429Y-112370171D01*
X144251783Y-112522461D01*
X144147950Y-112726244D01*
X144077278Y-112943750D01*
X144077278Y-112943753D01*
X144041500Y-113169646D01*
X144041500Y-113398353D01*
X144077278Y-113624246D01*
X144077278Y-113624249D01*
X144147950Y-113841755D01*
X144243526Y-114029332D01*
X144251783Y-114045538D01*
X144386214Y-114230566D01*
X144547934Y-114392286D01*
X144587059Y-114420712D01*
X144632438Y-114453682D01*
X144675103Y-114509013D01*
X144681082Y-114578626D01*
X144648476Y-114640421D01*
X144632438Y-114654318D01*
X144547932Y-114715715D01*
X144386216Y-114877431D01*
X144386216Y-114877432D01*
X144386214Y-114877434D01*
X144351023Y-114925870D01*
X144251783Y-115062461D01*
X144147950Y-115266244D01*
X144077278Y-115483750D01*
X144077278Y-115483753D01*
X144077278Y-115483755D01*
X144041500Y-115709646D01*
X144041500Y-115938354D01*
X144045012Y-115960526D01*
X144077278Y-116164246D01*
X144077278Y-116164249D01*
X144147950Y-116381755D01*
X144239554Y-116561538D01*
X144251783Y-116585538D01*
X144384525Y-116768242D01*
X144408005Y-116834046D01*
X144392180Y-116902100D01*
X144342074Y-116950795D01*
X144327541Y-116957308D01*
X144299670Y-116967703D01*
X144299664Y-116967706D01*
X144184455Y-117053952D01*
X144184452Y-117053955D01*
X144098206Y-117169164D01*
X144098202Y-117169171D01*
X144047908Y-117304017D01*
X144042974Y-117349915D01*
X144041501Y-117363623D01*
X144041500Y-117363635D01*
X144041500Y-117485500D01*
X144021815Y-117552539D01*
X143969011Y-117598294D01*
X143917500Y-117609500D01*
X138666886Y-117609500D01*
X138599847Y-117589815D01*
X138579205Y-117573181D01*
X136709171Y-115703146D01*
X136675686Y-115641823D01*
X136673324Y-115604661D01*
X136687468Y-115443000D01*
X136685952Y-115425677D01*
X136672004Y-115266244D01*
X136667635Y-115216308D01*
X136608739Y-114996504D01*
X136512568Y-114790266D01*
X136417377Y-114654318D01*
X136382048Y-114603862D01*
X136304903Y-114526717D01*
X136221139Y-114442953D01*
X136189374Y-114420710D01*
X136145751Y-114366135D01*
X136136500Y-114319138D01*
X136136500Y-113082687D01*
X136136499Y-113082683D01*
X136107505Y-112936920D01*
X136050629Y-112799610D01*
X135968059Y-112676034D01*
X135968054Y-112676028D01*
X135858647Y-112566621D01*
X135858624Y-112566600D01*
X131290969Y-107998943D01*
X131290968Y-107998942D01*
X131228738Y-107957362D01*
X131167389Y-107916370D01*
X131167386Y-107916368D01*
X131167385Y-107916368D01*
X131086955Y-107883053D01*
X131030080Y-107859495D01*
X131005894Y-107854684D01*
X130884314Y-107830499D01*
X130884312Y-107830499D01*
X130735688Y-107830499D01*
X130729574Y-107830499D01*
X130729554Y-107830500D01*
X105464823Y-107830500D01*
X105397784Y-107810815D01*
X105367617Y-107781822D01*
X105367080Y-107782273D01*
X105363601Y-107778127D01*
X105363598Y-107778123D01*
X105208877Y-107623402D01*
X105029639Y-107497898D01*
X105029640Y-107497898D01*
X105029638Y-107497897D01*
X104930484Y-107451661D01*
X104831330Y-107405425D01*
X104831326Y-107405424D01*
X104831322Y-107405422D01*
X104619977Y-107348793D01*
X104402002Y-107329723D01*
X104401998Y-107329723D01*
X104256682Y-107342436D01*
X104184023Y-107348793D01*
X104184020Y-107348793D01*
X103972677Y-107405422D01*
X103972668Y-107405426D01*
X103774361Y-107497898D01*
X103774357Y-107497900D01*
X103595121Y-107623402D01*
X103440402Y-107778121D01*
X103314900Y-107957357D01*
X103314898Y-107957361D01*
X103222426Y-108155668D01*
X103222422Y-108155677D01*
X103165793Y-108367020D01*
X103165793Y-108367024D01*
X103146723Y-108584997D01*
X39116000Y-108584997D01*
X39116000Y-105174798D01*
X88580332Y-105174798D01*
X88580332Y-105174801D01*
X88600164Y-105401486D01*
X88600166Y-105401497D01*
X88659058Y-105621288D01*
X88659061Y-105621297D01*
X88755231Y-105827532D01*
X88755232Y-105827534D01*
X88885754Y-106013941D01*
X89046658Y-106174845D01*
X89046661Y-106174847D01*
X89233066Y-106305368D01*
X89439304Y-106401539D01*
X89659108Y-106460435D01*
X89821030Y-106474601D01*
X89885798Y-106480268D01*
X89885800Y-106480268D01*
X89885802Y-106480268D01*
X89942473Y-106475309D01*
X90112492Y-106460435D01*
X90332296Y-106401539D01*
X90538534Y-106305368D01*
X90724939Y-106174847D01*
X90885847Y-106013939D01*
X91016368Y-105827534D01*
X91112539Y-105621296D01*
X91171435Y-105401492D01*
X91191268Y-105174800D01*
X91189623Y-105155998D01*
X94985932Y-105155998D01*
X94985932Y-105156001D01*
X95005764Y-105382686D01*
X95005766Y-105382697D01*
X95064658Y-105602488D01*
X95064661Y-105602497D01*
X95160831Y-105808732D01*
X95160832Y-105808734D01*
X95291354Y-105995141D01*
X95452258Y-106156045D01*
X95452261Y-106156047D01*
X95638666Y-106286568D01*
X95844904Y-106382739D01*
X96064708Y-106441635D01*
X96226630Y-106455801D01*
X96291398Y-106461468D01*
X96291400Y-106461468D01*
X96291402Y-106461468D01*
X96348073Y-106456509D01*
X96518092Y-106441635D01*
X96737896Y-106382739D01*
X96944134Y-106286568D01*
X97130539Y-106156047D01*
X97291447Y-105995139D01*
X97421968Y-105808734D01*
X97518139Y-105602496D01*
X97577035Y-105382692D01*
X97585757Y-105282998D01*
X134076532Y-105282998D01*
X134076532Y-105283001D01*
X134096364Y-105509686D01*
X134096366Y-105509697D01*
X134155258Y-105729488D01*
X134155261Y-105729497D01*
X134251431Y-105935732D01*
X134251432Y-105935734D01*
X134381954Y-106122141D01*
X134542858Y-106283045D01*
X134574738Y-106305367D01*
X134729266Y-106413568D01*
X134935504Y-106509739D01*
X135155308Y-106568635D01*
X135317230Y-106582801D01*
X135381998Y-106588468D01*
X135382000Y-106588468D01*
X135382002Y-106588468D01*
X135438673Y-106583509D01*
X135608692Y-106568635D01*
X135828496Y-106509739D01*
X136034734Y-106413568D01*
X136221139Y-106283047D01*
X136382047Y-106122139D01*
X136512568Y-105935734D01*
X136608739Y-105729496D01*
X136667607Y-105509797D01*
X173667834Y-105509797D01*
X173667834Y-105509802D01*
X173687658Y-105736399D01*
X173687660Y-105736410D01*
X173746530Y-105956117D01*
X173746535Y-105956131D01*
X173842663Y-106162278D01*
X173893774Y-106235272D01*
X174572800Y-105556246D01*
X174572800Y-105562461D01*
X174600059Y-105664194D01*
X174652720Y-105755406D01*
X174727194Y-105829880D01*
X174818406Y-105882541D01*
X174920139Y-105909800D01*
X174926353Y-105909800D01*
X174247326Y-106588825D01*
X174320313Y-106639932D01*
X174320321Y-106639936D01*
X174526468Y-106736064D01*
X174526482Y-106736069D01*
X174746189Y-106794939D01*
X174746200Y-106794941D01*
X174972798Y-106814766D01*
X174972802Y-106814766D01*
X175199399Y-106794941D01*
X175199410Y-106794939D01*
X175419117Y-106736069D01*
X175419131Y-106736064D01*
X175625278Y-106639936D01*
X175698271Y-106588824D01*
X175019247Y-105909800D01*
X175025461Y-105909800D01*
X175127194Y-105882541D01*
X175218406Y-105829880D01*
X175292880Y-105755406D01*
X175345541Y-105664194D01*
X175372800Y-105562461D01*
X175372800Y-105556247D01*
X176051824Y-106235271D01*
X176102936Y-106162278D01*
X176199064Y-105956131D01*
X176199069Y-105956117D01*
X176257939Y-105736410D01*
X176257941Y-105736399D01*
X176277766Y-105509802D01*
X176277766Y-105509797D01*
X176273147Y-105456997D01*
X181067034Y-105456997D01*
X181067034Y-105457002D01*
X181086858Y-105683599D01*
X181086860Y-105683610D01*
X181145730Y-105903317D01*
X181145735Y-105903331D01*
X181241863Y-106109478D01*
X181292974Y-106182472D01*
X181972000Y-105503446D01*
X181972000Y-105509661D01*
X181999259Y-105611394D01*
X182051920Y-105702606D01*
X182126394Y-105777080D01*
X182217606Y-105829741D01*
X182319339Y-105857000D01*
X182325553Y-105857000D01*
X181646526Y-106536025D01*
X181719513Y-106587132D01*
X181719521Y-106587136D01*
X181925668Y-106683264D01*
X181925682Y-106683269D01*
X182145389Y-106742139D01*
X182145400Y-106742141D01*
X182371998Y-106761966D01*
X182372002Y-106761966D01*
X182598599Y-106742141D01*
X182598610Y-106742139D01*
X182818317Y-106683269D01*
X182818331Y-106683264D01*
X183024478Y-106587136D01*
X183097471Y-106536024D01*
X182418447Y-105857000D01*
X182424661Y-105857000D01*
X182526394Y-105829741D01*
X182617606Y-105777080D01*
X182692080Y-105702606D01*
X182744741Y-105611394D01*
X182772000Y-105509661D01*
X182772000Y-105503447D01*
X183451024Y-106182471D01*
X183502136Y-106109478D01*
X183598264Y-105903331D01*
X183598269Y-105903317D01*
X183657139Y-105683610D01*
X183657141Y-105683599D01*
X183676966Y-105457002D01*
X183676966Y-105456997D01*
X183657141Y-105230400D01*
X183657139Y-105230389D01*
X183598269Y-105010682D01*
X183598264Y-105010668D01*
X183502136Y-104804521D01*
X183502132Y-104804513D01*
X183451025Y-104731526D01*
X182772000Y-105410551D01*
X182772000Y-105404339D01*
X182744741Y-105302606D01*
X182692080Y-105211394D01*
X182617606Y-105136920D01*
X182526394Y-105084259D01*
X182424661Y-105057000D01*
X182418448Y-105057000D01*
X183097472Y-104377974D01*
X183024478Y-104326863D01*
X182818331Y-104230735D01*
X182818317Y-104230730D01*
X182598610Y-104171860D01*
X182598599Y-104171858D01*
X182372002Y-104152034D01*
X182371998Y-104152034D01*
X182145400Y-104171858D01*
X182145389Y-104171860D01*
X181925682Y-104230730D01*
X181925673Y-104230734D01*
X181719516Y-104326866D01*
X181719512Y-104326868D01*
X181646526Y-104377973D01*
X181646526Y-104377974D01*
X182325553Y-105057000D01*
X182319339Y-105057000D01*
X182217606Y-105084259D01*
X182126394Y-105136920D01*
X182051920Y-105211394D01*
X181999259Y-105302606D01*
X181972000Y-105404339D01*
X181972000Y-105410552D01*
X181292974Y-104731526D01*
X181292973Y-104731526D01*
X181241868Y-104804512D01*
X181241866Y-104804516D01*
X181145734Y-105010673D01*
X181145730Y-105010682D01*
X181086860Y-105230389D01*
X181086858Y-105230400D01*
X181067034Y-105456997D01*
X176273147Y-105456997D01*
X176257941Y-105283200D01*
X176257939Y-105283189D01*
X176199069Y-105063482D01*
X176199064Y-105063468D01*
X176102936Y-104857321D01*
X176102932Y-104857313D01*
X176051825Y-104784326D01*
X175372800Y-105463351D01*
X175372800Y-105457139D01*
X175345541Y-105355406D01*
X175292880Y-105264194D01*
X175218406Y-105189720D01*
X175127194Y-105137059D01*
X175025461Y-105109800D01*
X175019248Y-105109800D01*
X175698272Y-104430774D01*
X175625278Y-104379663D01*
X175419131Y-104283535D01*
X175419117Y-104283530D01*
X175199410Y-104224660D01*
X175199399Y-104224658D01*
X174972802Y-104204834D01*
X174972798Y-104204834D01*
X174746200Y-104224658D01*
X174746189Y-104224660D01*
X174526482Y-104283530D01*
X174526473Y-104283534D01*
X174320316Y-104379666D01*
X174320312Y-104379668D01*
X174247326Y-104430773D01*
X174247326Y-104430774D01*
X174926353Y-105109800D01*
X174920139Y-105109800D01*
X174818406Y-105137059D01*
X174727194Y-105189720D01*
X174652720Y-105264194D01*
X174600059Y-105355406D01*
X174572800Y-105457139D01*
X174572800Y-105463352D01*
X173893774Y-104784326D01*
X173893773Y-104784326D01*
X173842668Y-104857312D01*
X173842666Y-104857316D01*
X173746534Y-105063473D01*
X173746530Y-105063482D01*
X173687660Y-105283189D01*
X173687658Y-105283200D01*
X173667834Y-105509797D01*
X136667607Y-105509797D01*
X136667635Y-105509692D01*
X136687451Y-105283200D01*
X136687468Y-105283001D01*
X136687468Y-105282998D01*
X136678002Y-105174800D01*
X136667635Y-105056308D01*
X136614315Y-104857313D01*
X136608741Y-104836511D01*
X136608738Y-104836502D01*
X136584408Y-104784326D01*
X136512568Y-104630266D01*
X136382047Y-104443861D01*
X136382045Y-104443858D01*
X136221141Y-104282954D01*
X136034734Y-104152432D01*
X136034732Y-104152431D01*
X135828497Y-104056261D01*
X135828488Y-104056258D01*
X135608697Y-103997366D01*
X135608693Y-103997365D01*
X135608692Y-103997365D01*
X135608691Y-103997364D01*
X135608686Y-103997364D01*
X135382002Y-103977532D01*
X135381998Y-103977532D01*
X135155313Y-103997364D01*
X135155302Y-103997366D01*
X134935511Y-104056258D01*
X134935502Y-104056261D01*
X134729267Y-104152431D01*
X134729265Y-104152432D01*
X134542858Y-104282954D01*
X134381954Y-104443858D01*
X134251432Y-104630265D01*
X134251431Y-104630267D01*
X134155261Y-104836502D01*
X134155258Y-104836511D01*
X134096366Y-105056302D01*
X134096364Y-105056313D01*
X134076532Y-105282998D01*
X97585757Y-105282998D01*
X97596868Y-105156000D01*
X97577035Y-104929308D01*
X97518139Y-104709504D01*
X97421968Y-104503266D01*
X97291447Y-104316861D01*
X97291445Y-104316858D01*
X97130541Y-104155954D01*
X96944134Y-104025432D01*
X96944132Y-104025431D01*
X96737897Y-103929261D01*
X96737888Y-103929258D01*
X96518097Y-103870366D01*
X96518093Y-103870365D01*
X96518092Y-103870365D01*
X96518091Y-103870364D01*
X96518086Y-103870364D01*
X96291402Y-103850532D01*
X96291398Y-103850532D01*
X96064713Y-103870364D01*
X96064702Y-103870366D01*
X95844911Y-103929258D01*
X95844902Y-103929261D01*
X95638667Y-104025431D01*
X95638665Y-104025432D01*
X95452258Y-104155954D01*
X95291354Y-104316858D01*
X95160832Y-104503265D01*
X95160831Y-104503267D01*
X95064661Y-104709502D01*
X95064658Y-104709511D01*
X95005766Y-104929302D01*
X95005764Y-104929313D01*
X94985932Y-105155998D01*
X91189623Y-105155998D01*
X91171435Y-104948108D01*
X91112539Y-104728304D01*
X91016368Y-104522066D01*
X90885847Y-104335661D01*
X90885845Y-104335658D01*
X90724941Y-104174754D01*
X90538534Y-104044232D01*
X90538532Y-104044231D01*
X90332297Y-103948061D01*
X90332288Y-103948058D01*
X90112497Y-103889166D01*
X90112493Y-103889165D01*
X90112492Y-103889165D01*
X90112491Y-103889164D01*
X90112486Y-103889164D01*
X89885802Y-103869332D01*
X89885798Y-103869332D01*
X89659113Y-103889164D01*
X89659102Y-103889166D01*
X89439311Y-103948058D01*
X89439302Y-103948061D01*
X89233067Y-104044231D01*
X89233065Y-104044232D01*
X89046658Y-104174754D01*
X88885754Y-104335658D01*
X88755232Y-104522065D01*
X88755231Y-104522067D01*
X88659061Y-104728302D01*
X88659058Y-104728311D01*
X88600166Y-104948102D01*
X88600164Y-104948113D01*
X88580332Y-105174798D01*
X39116000Y-105174798D01*
X39116000Y-102879135D01*
X195354500Y-102879135D01*
X195354500Y-105574870D01*
X195354501Y-105574876D01*
X195360908Y-105634483D01*
X195411202Y-105769328D01*
X195411206Y-105769335D01*
X195497452Y-105884544D01*
X195497455Y-105884547D01*
X195612664Y-105970793D01*
X195612671Y-105970797D01*
X195747517Y-106021091D01*
X195747516Y-106021091D01*
X195754444Y-106021835D01*
X195807127Y-106027500D01*
X198502872Y-106027499D01*
X198562483Y-106021091D01*
X198697331Y-105970796D01*
X198812546Y-105884546D01*
X198898796Y-105769331D01*
X198949091Y-105634483D01*
X198955500Y-105574873D01*
X198955499Y-102879128D01*
X198949091Y-102819517D01*
X198898796Y-102684669D01*
X198898795Y-102684668D01*
X198898793Y-102684664D01*
X198812547Y-102569455D01*
X198812544Y-102569452D01*
X198697335Y-102483206D01*
X198697328Y-102483202D01*
X198562482Y-102432908D01*
X198562483Y-102432908D01*
X198502883Y-102426501D01*
X198502881Y-102426500D01*
X198502873Y-102426500D01*
X198502864Y-102426500D01*
X195807129Y-102426500D01*
X195807123Y-102426501D01*
X195747516Y-102432908D01*
X195612671Y-102483202D01*
X195612664Y-102483206D01*
X195497455Y-102569452D01*
X195497452Y-102569455D01*
X195411206Y-102684664D01*
X195411202Y-102684671D01*
X195360908Y-102819517D01*
X195354501Y-102879116D01*
X195354501Y-102879123D01*
X195354500Y-102879135D01*
X39116000Y-102879135D01*
X39116000Y-100509798D01*
X173667332Y-100509798D01*
X173667332Y-100509801D01*
X173687164Y-100736486D01*
X173687166Y-100736497D01*
X173746058Y-100956288D01*
X173746061Y-100956297D01*
X173842231Y-101162532D01*
X173842232Y-101162534D01*
X173972754Y-101348941D01*
X174133658Y-101509845D01*
X174133661Y-101509847D01*
X174320066Y-101640368D01*
X174526304Y-101736539D01*
X174526309Y-101736540D01*
X174526311Y-101736541D01*
X174579215Y-101750716D01*
X174746108Y-101795435D01*
X174908030Y-101809601D01*
X174972798Y-101815268D01*
X174972800Y-101815268D01*
X174972802Y-101815268D01*
X175029473Y-101810309D01*
X175199492Y-101795435D01*
X175419296Y-101736539D01*
X175625534Y-101640368D01*
X175811939Y-101509847D01*
X175972847Y-101348939D01*
X176103368Y-101162534D01*
X176199539Y-100956296D01*
X176258435Y-100736492D01*
X176278268Y-100509800D01*
X176273648Y-100456998D01*
X181066532Y-100456998D01*
X181066532Y-100457001D01*
X181086364Y-100683686D01*
X181086366Y-100683697D01*
X181145258Y-100903488D01*
X181145261Y-100903497D01*
X181241431Y-101109732D01*
X181241432Y-101109734D01*
X181371954Y-101296141D01*
X181532858Y-101457045D01*
X181532861Y-101457047D01*
X181719266Y-101587568D01*
X181925504Y-101683739D01*
X182145308Y-101742635D01*
X182307230Y-101756801D01*
X182371998Y-101762468D01*
X182372000Y-101762468D01*
X182372002Y-101762468D01*
X182428673Y-101757509D01*
X182598692Y-101742635D01*
X182818496Y-101683739D01*
X183024734Y-101587568D01*
X183211139Y-101457047D01*
X183372047Y-101296139D01*
X183502568Y-101109734D01*
X183598739Y-100903496D01*
X183657635Y-100683692D01*
X183677468Y-100457000D01*
X183677300Y-100455085D01*
X183662254Y-100283102D01*
X183657635Y-100230308D01*
X183598739Y-100010504D01*
X183502568Y-99804266D01*
X183372047Y-99617861D01*
X183372045Y-99617858D01*
X183211141Y-99456954D01*
X183024734Y-99326432D01*
X183024732Y-99326431D01*
X182818497Y-99230261D01*
X182818488Y-99230258D01*
X182806310Y-99226995D01*
X195349451Y-99226995D01*
X195349451Y-99227004D01*
X195369616Y-99496101D01*
X195429664Y-99759188D01*
X195429666Y-99759195D01*
X195468077Y-99857065D01*
X195528257Y-100010398D01*
X195663185Y-100244102D01*
X195799080Y-100414509D01*
X195831442Y-100455089D01*
X196018183Y-100628358D01*
X196029259Y-100638635D01*
X196252226Y-100790651D01*
X196495359Y-100907738D01*
X196753228Y-100987280D01*
X196753229Y-100987280D01*
X196753232Y-100987281D01*
X197020063Y-101027499D01*
X197020068Y-101027499D01*
X197020071Y-101027500D01*
X197020072Y-101027500D01*
X197289928Y-101027500D01*
X197289929Y-101027500D01*
X197289936Y-101027499D01*
X197556767Y-100987281D01*
X197556768Y-100987280D01*
X197556772Y-100987280D01*
X197814641Y-100907738D01*
X198057775Y-100790651D01*
X198280741Y-100638635D01*
X198476497Y-100457000D01*
X198478557Y-100455089D01*
X198478557Y-100455087D01*
X198478561Y-100455085D01*
X198646815Y-100244102D01*
X198781743Y-100010398D01*
X198880334Y-99759195D01*
X198940383Y-99496103D01*
X198956348Y-99283058D01*
X198960549Y-99227004D01*
X198960549Y-99226995D01*
X198940383Y-98957898D01*
X198940383Y-98957897D01*
X198880334Y-98694805D01*
X198781743Y-98443602D01*
X198646815Y-98209898D01*
X198478561Y-97998915D01*
X198478560Y-97998914D01*
X198478557Y-97998910D01*
X198280741Y-97815365D01*
X198057775Y-97663349D01*
X198057769Y-97663346D01*
X198057768Y-97663345D01*
X198057767Y-97663344D01*
X197814643Y-97546263D01*
X197814645Y-97546263D01*
X197556773Y-97466720D01*
X197556767Y-97466718D01*
X197289936Y-97426500D01*
X197289929Y-97426500D01*
X197020071Y-97426500D01*
X197020063Y-97426500D01*
X196753232Y-97466718D01*
X196753226Y-97466720D01*
X196495358Y-97546262D01*
X196252230Y-97663346D01*
X196029258Y-97815365D01*
X195831442Y-97998910D01*
X195663185Y-98209898D01*
X195528258Y-98443599D01*
X195528256Y-98443603D01*
X195429666Y-98694804D01*
X195429664Y-98694811D01*
X195369616Y-98957898D01*
X195349451Y-99226995D01*
X182806310Y-99226995D01*
X182598697Y-99171366D01*
X182598693Y-99171365D01*
X182598692Y-99171365D01*
X182598691Y-99171364D01*
X182598686Y-99171364D01*
X182372002Y-99151532D01*
X182371998Y-99151532D01*
X182145313Y-99171364D01*
X182145302Y-99171366D01*
X181925511Y-99230258D01*
X181925502Y-99230261D01*
X181719267Y-99326431D01*
X181719265Y-99326432D01*
X181532858Y-99456954D01*
X181371954Y-99617858D01*
X181241432Y-99804265D01*
X181241431Y-99804267D01*
X181145261Y-100010502D01*
X181145258Y-100010511D01*
X181086366Y-100230302D01*
X181086364Y-100230313D01*
X181066532Y-100456998D01*
X176273648Y-100456998D01*
X176258435Y-100283108D01*
X176199539Y-100063304D01*
X176103368Y-99857066D01*
X175972847Y-99670661D01*
X175972845Y-99670658D01*
X175811941Y-99509754D01*
X175625534Y-99379232D01*
X175625532Y-99379231D01*
X175419297Y-99283061D01*
X175419288Y-99283058D01*
X175199497Y-99224166D01*
X175199493Y-99224165D01*
X175199492Y-99224165D01*
X175199491Y-99224164D01*
X175199486Y-99224164D01*
X174972802Y-99204332D01*
X174972798Y-99204332D01*
X174746113Y-99224164D01*
X174746102Y-99224166D01*
X174526311Y-99283058D01*
X174526302Y-99283061D01*
X174320067Y-99379231D01*
X174320065Y-99379232D01*
X174133658Y-99509754D01*
X173972754Y-99670658D01*
X173842232Y-99857065D01*
X173842231Y-99857067D01*
X173746061Y-100063302D01*
X173746058Y-100063311D01*
X173687166Y-100283102D01*
X173687164Y-100283113D01*
X173667332Y-100509798D01*
X39116000Y-100509798D01*
X39116000Y-98424997D01*
X107964723Y-98424997D01*
X107964723Y-98425002D01*
X107983793Y-98642975D01*
X107983793Y-98642979D01*
X108040422Y-98854322D01*
X108040424Y-98854326D01*
X108040425Y-98854330D01*
X108086661Y-98953484D01*
X108132897Y-99052638D01*
X108132898Y-99052639D01*
X108258402Y-99231877D01*
X108413123Y-99386598D01*
X108592361Y-99512102D01*
X108790670Y-99604575D01*
X109002023Y-99661207D01*
X109184926Y-99677208D01*
X109219998Y-99680277D01*
X109220000Y-99680277D01*
X109220002Y-99680277D01*
X109248254Y-99677805D01*
X109437977Y-99661207D01*
X109649330Y-99604575D01*
X109847639Y-99512102D01*
X110026877Y-99386598D01*
X110181598Y-99231877D01*
X110181605Y-99231866D01*
X110185080Y-99227727D01*
X110186048Y-99228539D01*
X110235825Y-99188752D01*
X110282823Y-99179500D01*
X113559154Y-99179500D01*
X113559174Y-99179501D01*
X113565288Y-99179501D01*
X113713914Y-99179501D01*
X113835494Y-99155315D01*
X113835494Y-99155316D01*
X113835500Y-99155313D01*
X113859680Y-99150505D01*
X113922548Y-99124464D01*
X113996989Y-99093630D01*
X114120566Y-99011059D01*
X116106627Y-97024998D01*
X125594532Y-97024998D01*
X125594532Y-97025001D01*
X125614364Y-97251686D01*
X125614366Y-97251697D01*
X125673258Y-97471488D01*
X125673261Y-97471497D01*
X125769431Y-97677732D01*
X125769432Y-97677734D01*
X125899954Y-97864141D01*
X126060858Y-98025045D01*
X126060861Y-98025047D01*
X126247266Y-98155568D01*
X126453504Y-98251739D01*
X126673308Y-98310635D01*
X126835230Y-98324801D01*
X126899998Y-98330468D01*
X126900000Y-98330468D01*
X126900002Y-98330468D01*
X126956673Y-98325509D01*
X127126692Y-98310635D01*
X127346496Y-98251739D01*
X127552734Y-98155568D01*
X127739139Y-98025047D01*
X127900047Y-97864139D01*
X128030568Y-97677734D01*
X128126739Y-97471496D01*
X128185635Y-97251692D01*
X128205468Y-97025000D01*
X128185635Y-96798308D01*
X128126739Y-96578504D01*
X128030568Y-96372266D01*
X127900047Y-96185861D01*
X127900045Y-96185858D01*
X127739141Y-96024954D01*
X127552734Y-95894432D01*
X127552732Y-95894431D01*
X127346497Y-95798261D01*
X127346488Y-95798258D01*
X127126697Y-95739366D01*
X127126693Y-95739365D01*
X127126692Y-95739365D01*
X127126691Y-95739364D01*
X127126686Y-95739364D01*
X126900002Y-95719532D01*
X126899998Y-95719532D01*
X126673313Y-95739364D01*
X126673302Y-95739366D01*
X126453511Y-95798258D01*
X126453502Y-95798261D01*
X126247267Y-95894431D01*
X126247265Y-95894432D01*
X126060858Y-96024954D01*
X125899954Y-96185858D01*
X125769432Y-96372265D01*
X125769431Y-96372267D01*
X125673261Y-96578502D01*
X125673261Y-96578504D01*
X125614366Y-96798302D01*
X125614364Y-96798313D01*
X125594532Y-97024998D01*
X116106627Y-97024998D01*
X125523605Y-87608018D01*
X125584928Y-87574534D01*
X125611286Y-87571700D01*
X125742668Y-87571700D01*
X125809707Y-87591385D01*
X125844243Y-87624577D01*
X125899953Y-87704140D01*
X126060858Y-87865045D01*
X126060861Y-87865047D01*
X126247266Y-87995568D01*
X126453504Y-88091739D01*
X126673308Y-88150635D01*
X126835230Y-88164801D01*
X126899998Y-88170468D01*
X126900000Y-88170468D01*
X126900002Y-88170468D01*
X126956673Y-88165509D01*
X127126692Y-88150635D01*
X127346496Y-88091739D01*
X127552734Y-87995568D01*
X127739139Y-87865047D01*
X127900047Y-87704139D01*
X127922287Y-87672377D01*
X127976863Y-87628752D01*
X128023862Y-87619500D01*
X129884313Y-87619500D01*
X129951352Y-87639185D01*
X129971994Y-87655819D01*
X133199230Y-90883056D01*
X133199231Y-90883057D01*
X133199234Y-90883059D01*
X133322811Y-90965630D01*
X133403243Y-90998945D01*
X133403244Y-90998946D01*
X133426803Y-91008704D01*
X133460120Y-91022505D01*
X133460129Y-91022506D01*
X133460130Y-91022507D01*
X133484303Y-91027315D01*
X133484310Y-91027316D01*
X133605886Y-91051501D01*
X133605888Y-91051501D01*
X133760626Y-91051501D01*
X133760646Y-91051500D01*
X140000554Y-91051500D01*
X140000574Y-91051501D01*
X140006688Y-91051501D01*
X140155314Y-91051501D01*
X140276894Y-91027315D01*
X140276894Y-91027316D01*
X140276900Y-91027313D01*
X140301080Y-91022505D01*
X140336942Y-91007649D01*
X140357944Y-90998951D01*
X140357947Y-90998949D01*
X140357955Y-90998946D01*
X140438389Y-90965630D01*
X140561966Y-90883059D01*
X142262205Y-89182818D01*
X142323528Y-89149334D01*
X142349886Y-89146500D01*
X143917501Y-89146500D01*
X143984540Y-89166185D01*
X144030295Y-89218989D01*
X144041501Y-89270500D01*
X144041501Y-89392376D01*
X144047908Y-89451983D01*
X144098202Y-89586828D01*
X144098206Y-89586835D01*
X144184452Y-89702044D01*
X144184455Y-89702047D01*
X144299664Y-89788293D01*
X144299671Y-89788297D01*
X144434517Y-89838591D01*
X144434516Y-89838591D01*
X144441444Y-89839335D01*
X144494127Y-89845000D01*
X146589872Y-89844999D01*
X146649483Y-89838591D01*
X146782460Y-89788994D01*
X179342357Y-89788994D01*
X179342357Y-89789005D01*
X179362890Y-90036812D01*
X179362892Y-90036824D01*
X179423936Y-90277881D01*
X179523826Y-90505606D01*
X179659833Y-90713782D01*
X179659836Y-90713785D01*
X179828256Y-90896738D01*
X180024491Y-91049474D01*
X180243190Y-91167828D01*
X180478386Y-91248571D01*
X180723665Y-91289500D01*
X180972335Y-91289500D01*
X181217614Y-91248571D01*
X181452810Y-91167828D01*
X181671509Y-91049474D01*
X181867744Y-90896738D01*
X182036164Y-90713785D01*
X182172173Y-90505607D01*
X182272063Y-90277881D01*
X182333108Y-90036821D01*
X182353643Y-89789000D01*
X182353584Y-89788293D01*
X182333109Y-89541187D01*
X182333107Y-89541175D01*
X182272063Y-89300118D01*
X182172173Y-89072393D01*
X182036166Y-88864217D01*
X181986142Y-88809877D01*
X181867744Y-88681262D01*
X181671509Y-88528526D01*
X181671507Y-88528525D01*
X181671506Y-88528524D01*
X181452811Y-88410172D01*
X181452802Y-88410169D01*
X181217616Y-88329429D01*
X180972335Y-88288500D01*
X180723665Y-88288500D01*
X180478383Y-88329429D01*
X180243197Y-88410169D01*
X180243188Y-88410172D01*
X180024493Y-88528524D01*
X179828257Y-88681261D01*
X179659833Y-88864217D01*
X179523826Y-89072393D01*
X179423936Y-89300118D01*
X179362892Y-89541175D01*
X179362890Y-89541187D01*
X179342357Y-89788994D01*
X146782460Y-89788994D01*
X146784331Y-89788296D01*
X146899546Y-89702046D01*
X146985796Y-89586831D01*
X147036091Y-89451983D01*
X147042500Y-89392373D01*
X147042499Y-87391628D01*
X147036091Y-87332017D01*
X146985796Y-87197169D01*
X146985795Y-87197168D01*
X146985793Y-87197164D01*
X146899547Y-87081955D01*
X146899544Y-87081952D01*
X146784335Y-86995706D01*
X146784328Y-86995702D01*
X146756459Y-86985308D01*
X146700525Y-86943437D01*
X146676108Y-86877973D01*
X146690960Y-86809700D01*
X146699460Y-86796260D01*
X146832217Y-86613538D01*
X146936048Y-86409758D01*
X146949724Y-86367667D01*
X147006721Y-86192249D01*
X147006721Y-86192248D01*
X147006722Y-86192245D01*
X147042500Y-85966354D01*
X147042500Y-85737646D01*
X147006722Y-85511755D01*
X147006721Y-85511751D01*
X147006721Y-85511750D01*
X146936049Y-85294244D01*
X146832216Y-85090461D01*
X146790960Y-85033677D01*
X146697786Y-84905434D01*
X146536066Y-84743714D01*
X146451559Y-84682316D01*
X146408896Y-84626988D01*
X146402917Y-84557375D01*
X146435523Y-84495580D01*
X146451556Y-84481685D01*
X146536066Y-84420286D01*
X146697786Y-84258566D01*
X146832217Y-84073538D01*
X146936048Y-83869758D01*
X146990272Y-83702873D01*
X147006721Y-83652249D01*
X147006721Y-83652248D01*
X147006722Y-83652245D01*
X147042500Y-83426354D01*
X147042500Y-83197646D01*
X147006722Y-82971755D01*
X147006721Y-82971751D01*
X147006721Y-82971750D01*
X146936049Y-82754244D01*
X146914264Y-82711488D01*
X146832217Y-82550462D01*
X146697786Y-82365434D01*
X146536066Y-82203714D01*
X146351038Y-82069283D01*
X146290246Y-82038308D01*
X146147255Y-81965450D01*
X145929748Y-81894778D01*
X145760326Y-81867944D01*
X145703854Y-81859000D01*
X145380146Y-81859000D01*
X145304849Y-81870926D01*
X145154253Y-81894778D01*
X145154250Y-81894778D01*
X144936744Y-81965450D01*
X144732961Y-82069283D01*
X144665796Y-82118082D01*
X144547934Y-82203714D01*
X144547932Y-82203716D01*
X144547931Y-82203716D01*
X144386216Y-82365431D01*
X144386216Y-82365432D01*
X144386214Y-82365434D01*
X144376093Y-82379365D01*
X144251783Y-82550461D01*
X144147950Y-82754244D01*
X144077278Y-82971750D01*
X144077278Y-82971753D01*
X144050977Y-83137809D01*
X144041500Y-83197646D01*
X144041500Y-83426354D01*
X144043393Y-83438308D01*
X144077278Y-83652246D01*
X144077278Y-83652249D01*
X144147950Y-83869755D01*
X144251783Y-84073538D01*
X144386214Y-84258566D01*
X144547934Y-84420286D01*
X144617273Y-84470664D01*
X144632438Y-84481682D01*
X144675103Y-84537013D01*
X144681082Y-84606626D01*
X144648476Y-84668421D01*
X144632438Y-84682318D01*
X144547932Y-84743715D01*
X144386216Y-84905431D01*
X144386216Y-84905432D01*
X144386214Y-84905434D01*
X144338964Y-84970468D01*
X144251783Y-85090461D01*
X144147950Y-85294244D01*
X144077278Y-85511750D01*
X144077278Y-85511753D01*
X144066569Y-85579366D01*
X144041500Y-85737646D01*
X144041500Y-85966354D01*
X144055956Y-86057623D01*
X144077278Y-86192246D01*
X144077278Y-86192249D01*
X144147950Y-86409755D01*
X144229878Y-86570547D01*
X144251783Y-86613538D01*
X144384525Y-86796242D01*
X144408005Y-86862046D01*
X144392180Y-86930100D01*
X144342074Y-86978795D01*
X144327541Y-86985308D01*
X144299670Y-86995703D01*
X144299664Y-86995706D01*
X144184455Y-87081952D01*
X144184452Y-87081955D01*
X144098206Y-87197164D01*
X144098202Y-87197171D01*
X144047908Y-87332017D01*
X144041501Y-87391616D01*
X144041501Y-87391623D01*
X144041500Y-87391635D01*
X144041500Y-87513500D01*
X144021815Y-87580539D01*
X143969011Y-87626294D01*
X143917500Y-87637500D01*
X142066446Y-87637500D01*
X142066426Y-87637499D01*
X142060312Y-87637499D01*
X141911688Y-87637499D01*
X141911686Y-87637499D01*
X141790105Y-87661684D01*
X141775540Y-87664581D01*
X141765918Y-87666495D01*
X141765917Y-87666495D01*
X141711517Y-87689028D01*
X141711518Y-87689029D01*
X141630304Y-87722669D01*
X141628609Y-87723371D01*
X141505033Y-87805941D01*
X141453459Y-87857516D01*
X141399941Y-87911034D01*
X139804794Y-89506181D01*
X139743471Y-89539666D01*
X139717113Y-89542500D01*
X134044087Y-89542500D01*
X133977048Y-89522815D01*
X133956406Y-89506181D01*
X130729169Y-86278943D01*
X130729168Y-86278942D01*
X130605592Y-86196372D01*
X130605591Y-86196371D01*
X130605589Y-86196370D01*
X130605586Y-86196368D01*
X130605581Y-86196366D01*
X130513969Y-86158420D01*
X130513967Y-86158419D01*
X130468284Y-86139496D01*
X130468280Y-86139495D01*
X130444094Y-86134684D01*
X130322514Y-86110499D01*
X130322512Y-86110499D01*
X130173888Y-86110499D01*
X130167774Y-86110499D01*
X130167754Y-86110500D01*
X128023862Y-86110500D01*
X127956823Y-86090815D01*
X127922287Y-86057623D01*
X127900045Y-86025858D01*
X127739141Y-85864954D01*
X127552734Y-85734432D01*
X127552732Y-85734431D01*
X127346497Y-85638261D01*
X127346488Y-85638258D01*
X127126697Y-85579366D01*
X127126693Y-85579365D01*
X127126692Y-85579365D01*
X127126691Y-85579364D01*
X127126686Y-85579364D01*
X126900002Y-85559532D01*
X126899998Y-85559532D01*
X126673313Y-85579364D01*
X126673302Y-85579366D01*
X126453511Y-85638258D01*
X126453502Y-85638261D01*
X126247267Y-85734431D01*
X126247265Y-85734432D01*
X126060862Y-85864951D01*
X125980148Y-85945666D01*
X125899953Y-86025861D01*
X125899950Y-86025864D01*
X125899434Y-86026381D01*
X125838110Y-86059866D01*
X125811752Y-86062700D01*
X125173083Y-86062700D01*
X125027327Y-86091693D01*
X125027319Y-86091695D01*
X124890008Y-86148571D01*
X124766435Y-86231139D01*
X124766434Y-86231140D01*
X124736711Y-86260864D01*
X124661341Y-86336234D01*
X113363394Y-97634181D01*
X113302071Y-97667666D01*
X113275713Y-97670500D01*
X110282823Y-97670500D01*
X110215784Y-97650815D01*
X110185617Y-97621822D01*
X110185080Y-97622273D01*
X110181601Y-97618127D01*
X110181598Y-97618123D01*
X110026877Y-97463402D01*
X109847639Y-97337898D01*
X109847640Y-97337898D01*
X109847638Y-97337897D01*
X109748484Y-97291661D01*
X109649330Y-97245425D01*
X109649326Y-97245424D01*
X109649322Y-97245422D01*
X109437977Y-97188793D01*
X109220002Y-97169723D01*
X109219998Y-97169723D01*
X109074682Y-97182436D01*
X109002023Y-97188793D01*
X109002020Y-97188793D01*
X108790677Y-97245422D01*
X108790670Y-97245424D01*
X108790670Y-97245425D01*
X108777220Y-97251697D01*
X108592361Y-97337898D01*
X108592357Y-97337900D01*
X108413121Y-97463402D01*
X108258402Y-97618121D01*
X108132900Y-97797357D01*
X108132898Y-97797361D01*
X108040426Y-97995668D01*
X108040422Y-97995677D01*
X107983793Y-98207020D01*
X107983793Y-98207023D01*
X107979881Y-98251738D01*
X107964723Y-98424997D01*
X39116000Y-98424997D01*
X39116000Y-94264995D01*
X47194953Y-94264995D01*
X47194953Y-94265004D01*
X47215113Y-94534026D01*
X47215113Y-94534028D01*
X47275142Y-94797033D01*
X47275148Y-94797052D01*
X47373709Y-95048181D01*
X47373708Y-95048181D01*
X47508602Y-95281822D01*
X47562294Y-95349151D01*
X47562295Y-95349151D01*
X48398958Y-94512488D01*
X48423978Y-94572890D01*
X48495112Y-94679351D01*
X48585649Y-94769888D01*
X48692110Y-94841022D01*
X48752510Y-94866041D01*
X47914848Y-95703702D01*
X48097483Y-95828220D01*
X48097485Y-95828221D01*
X48340539Y-95945269D01*
X48340537Y-95945269D01*
X48598337Y-96024790D01*
X48598343Y-96024792D01*
X48865101Y-96064999D01*
X48865110Y-96065000D01*
X49134890Y-96065000D01*
X49134898Y-96064999D01*
X49401656Y-96024792D01*
X49401662Y-96024790D01*
X49659461Y-95945269D01*
X49902521Y-95828218D01*
X50085150Y-95703702D01*
X49247488Y-94866041D01*
X49307890Y-94841022D01*
X49414351Y-94769888D01*
X49504888Y-94679351D01*
X49576022Y-94572890D01*
X49601041Y-94512488D01*
X50437703Y-95349151D01*
X50437704Y-95349150D01*
X50491393Y-95281828D01*
X50491400Y-95281817D01*
X50626290Y-95048181D01*
X50724851Y-94797052D01*
X50724857Y-94797033D01*
X50784886Y-94534028D01*
X50784886Y-94534026D01*
X50805047Y-94265004D01*
X50805047Y-94264995D01*
X50784886Y-93995973D01*
X50784886Y-93995971D01*
X50724857Y-93732966D01*
X50724851Y-93732947D01*
X50626290Y-93481818D01*
X50626291Y-93481818D01*
X50491397Y-93248177D01*
X50437704Y-93180847D01*
X49601041Y-94017510D01*
X49576022Y-93957110D01*
X49504888Y-93850649D01*
X49414351Y-93760112D01*
X49307890Y-93688978D01*
X49247488Y-93663958D01*
X50085150Y-92826296D01*
X49902517Y-92701779D01*
X49902516Y-92701778D01*
X49659460Y-92584730D01*
X49659462Y-92584730D01*
X49584473Y-92561599D01*
X71263527Y-92561599D01*
X71263528Y-92561600D01*
X72226714Y-92561600D01*
X72222320Y-92565994D01*
X72169659Y-92657206D01*
X72142400Y-92758939D01*
X72142400Y-92864261D01*
X72169659Y-92965994D01*
X72222320Y-93057206D01*
X72226714Y-93061600D01*
X71263528Y-93061600D01*
X71316130Y-93257917D01*
X71316134Y-93257926D01*
X71412265Y-93464082D01*
X71542742Y-93650420D01*
X71703579Y-93811257D01*
X71889917Y-93941734D01*
X72096073Y-94037865D01*
X72096082Y-94037869D01*
X72292399Y-94090472D01*
X72292400Y-94090471D01*
X72292400Y-93127286D01*
X72296794Y-93131680D01*
X72388006Y-93184341D01*
X72489739Y-93211600D01*
X72595061Y-93211600D01*
X72696794Y-93184341D01*
X72788006Y-93131680D01*
X72792400Y-93127286D01*
X72792400Y-94090472D01*
X72988717Y-94037869D01*
X72988726Y-94037865D01*
X73194882Y-93941734D01*
X73381220Y-93811257D01*
X73542057Y-93650420D01*
X73672534Y-93464082D01*
X73768665Y-93257926D01*
X73768669Y-93257917D01*
X73821272Y-93061600D01*
X72858086Y-93061600D01*
X72862480Y-93057206D01*
X72915141Y-92965994D01*
X72942400Y-92864261D01*
X72942400Y-92758939D01*
X72930627Y-92715000D01*
X81394551Y-92715000D01*
X81414317Y-92966151D01*
X81473126Y-93211110D01*
X81569533Y-93443859D01*
X81701160Y-93658653D01*
X81701161Y-93658656D01*
X81701164Y-93658659D01*
X81864776Y-93850224D01*
X82013066Y-93976875D01*
X82056343Y-94013838D01*
X82056346Y-94013839D01*
X82271140Y-94145466D01*
X82480652Y-94232248D01*
X82503889Y-94241873D01*
X82748852Y-94300683D01*
X83000000Y-94320449D01*
X83251148Y-94300683D01*
X83496111Y-94241873D01*
X83728859Y-94145466D01*
X83943659Y-94013836D01*
X84135224Y-93850224D01*
X84298836Y-93658659D01*
X84378470Y-93528707D01*
X84430280Y-93481835D01*
X84484196Y-93469500D01*
X88922113Y-93469500D01*
X88989152Y-93489185D01*
X89009794Y-93505819D01*
X90976600Y-95472624D01*
X90976621Y-95472647D01*
X91086028Y-95582054D01*
X91086035Y-95582060D01*
X91209608Y-95664628D01*
X91209609Y-95664628D01*
X91209610Y-95664629D01*
X91346920Y-95721505D01*
X91346922Y-95721505D01*
X91346924Y-95721506D01*
X91371104Y-95726315D01*
X91371110Y-95726316D01*
X91492686Y-95750501D01*
X91492688Y-95750501D01*
X91647426Y-95750501D01*
X91647446Y-95750500D01*
X95167538Y-95750500D01*
X95234577Y-95770185D01*
X95269113Y-95803377D01*
X95291354Y-95835141D01*
X95452258Y-95996045D01*
X95452261Y-95996047D01*
X95638666Y-96126568D01*
X95844904Y-96222739D01*
X96064708Y-96281635D01*
X96226630Y-96295801D01*
X96291398Y-96301468D01*
X96291400Y-96301468D01*
X96291401Y-96301468D01*
X96310037Y-96299837D01*
X96453059Y-96287324D01*
X96521557Y-96301090D01*
X96551546Y-96323171D01*
X96590005Y-96361630D01*
X96590010Y-96361636D01*
X96699431Y-96471057D01*
X96761665Y-96512640D01*
X96823006Y-96553627D01*
X96823007Y-96553627D01*
X96823011Y-96553630D01*
X96883063Y-96578504D01*
X96960320Y-96610505D01*
X96960322Y-96610505D01*
X96960324Y-96610506D01*
X96984504Y-96615315D01*
X96984510Y-96615316D01*
X97106086Y-96639501D01*
X97106088Y-96639501D01*
X97260826Y-96639501D01*
X97260846Y-96639500D01*
X110697177Y-96639500D01*
X110764216Y-96659185D01*
X110794382Y-96688177D01*
X110794920Y-96687727D01*
X110798399Y-96691873D01*
X110798402Y-96691877D01*
X110953123Y-96846598D01*
X111132361Y-96972102D01*
X111330670Y-97064575D01*
X111542023Y-97121207D01*
X111724926Y-97137208D01*
X111759998Y-97140277D01*
X111760000Y-97140277D01*
X111760002Y-97140277D01*
X111788254Y-97137805D01*
X111977977Y-97121207D01*
X112189330Y-97064575D01*
X112387639Y-96972102D01*
X112566877Y-96846598D01*
X112721598Y-96691877D01*
X112847102Y-96512639D01*
X112939575Y-96314330D01*
X112996207Y-96102977D01*
X113015277Y-95885000D01*
X112996207Y-95667023D01*
X112945281Y-95476966D01*
X112939577Y-95455677D01*
X112939576Y-95455676D01*
X112939575Y-95455670D01*
X112847102Y-95257362D01*
X112847100Y-95257359D01*
X112847099Y-95257357D01*
X112721599Y-95078124D01*
X112644889Y-95001414D01*
X112566877Y-94923402D01*
X112387639Y-94797898D01*
X112387640Y-94797898D01*
X112387638Y-94797897D01*
X112288484Y-94751661D01*
X112189330Y-94705425D01*
X112189326Y-94705424D01*
X112189322Y-94705422D01*
X111977977Y-94648793D01*
X111760002Y-94629723D01*
X111759998Y-94629723D01*
X111614682Y-94642436D01*
X111542023Y-94648793D01*
X111542020Y-94648793D01*
X111330677Y-94705422D01*
X111330668Y-94705426D01*
X111132361Y-94797898D01*
X111132357Y-94797900D01*
X110953124Y-94923400D01*
X110798400Y-95078125D01*
X110794920Y-95082273D01*
X110793951Y-95081460D01*
X110744175Y-95121248D01*
X110697177Y-95130500D01*
X97720423Y-95130500D01*
X97653384Y-95110815D01*
X97607629Y-95058011D01*
X97597881Y-95001414D01*
X97596868Y-95001414D01*
X97596868Y-94995998D01*
X97579462Y-94797052D01*
X97577035Y-94769308D01*
X97518139Y-94549504D01*
X97421968Y-94343266D01*
X97291447Y-94156861D01*
X97291445Y-94156858D01*
X97130541Y-93995954D01*
X96944134Y-93865432D01*
X96944132Y-93865431D01*
X96737897Y-93769261D01*
X96737888Y-93769258D01*
X96518097Y-93710366D01*
X96518093Y-93710365D01*
X96518092Y-93710365D01*
X96518091Y-93710364D01*
X96518086Y-93710364D01*
X96291402Y-93690532D01*
X96291398Y-93690532D01*
X96064713Y-93710364D01*
X96064702Y-93710366D01*
X95844911Y-93769258D01*
X95844902Y-93769261D01*
X95638667Y-93865431D01*
X95638665Y-93865432D01*
X95452258Y-93995954D01*
X95291354Y-94156858D01*
X95269113Y-94188623D01*
X95214537Y-94232248D01*
X95167538Y-94241500D01*
X91930886Y-94241500D01*
X91863847Y-94221815D01*
X91843205Y-94205181D01*
X90185161Y-92547135D01*
X107969500Y-92547135D01*
X107969500Y-94142870D01*
X107969501Y-94142876D01*
X107975908Y-94202483D01*
X108026202Y-94337328D01*
X108026206Y-94337335D01*
X108112452Y-94452544D01*
X108112455Y-94452547D01*
X108227664Y-94538793D01*
X108227671Y-94538797D01*
X108362517Y-94589091D01*
X108362516Y-94589091D01*
X108369444Y-94589835D01*
X108422127Y-94595500D01*
X110017872Y-94595499D01*
X110077483Y-94589091D01*
X110212331Y-94538796D01*
X110327546Y-94452546D01*
X110413796Y-94337331D01*
X110464091Y-94202483D01*
X110464091Y-94202477D01*
X110465861Y-94194991D01*
X110500431Y-94134273D01*
X110562341Y-94101884D01*
X110586539Y-94099500D01*
X114727554Y-94099500D01*
X114727574Y-94099501D01*
X114733688Y-94099501D01*
X114882314Y-94099501D01*
X115003894Y-94075315D01*
X115003894Y-94075316D01*
X115003900Y-94075313D01*
X115028080Y-94070505D01*
X115090948Y-94044464D01*
X115165389Y-94013630D01*
X115288966Y-93931059D01*
X125193405Y-84026618D01*
X125254728Y-83993134D01*
X125281086Y-83990300D01*
X129074513Y-83990300D01*
X129141552Y-84009985D01*
X129162194Y-84026619D01*
X132632600Y-87497024D01*
X132632621Y-87497047D01*
X132742031Y-87606457D01*
X132788492Y-87637501D01*
X132865606Y-87689027D01*
X132865607Y-87689027D01*
X132865611Y-87689030D01*
X132940052Y-87719864D01*
X132948519Y-87723371D01*
X133002920Y-87745905D01*
X133002924Y-87745906D01*
X133027104Y-87750715D01*
X133027110Y-87750716D01*
X133148686Y-87774901D01*
X133148688Y-87774901D01*
X133303426Y-87774901D01*
X133303446Y-87774900D01*
X134385138Y-87774900D01*
X134452177Y-87794585D01*
X134486713Y-87827777D01*
X134508954Y-87859541D01*
X134669858Y-88020445D01*
X134669861Y-88020447D01*
X134856266Y-88150968D01*
X135062504Y-88247139D01*
X135282308Y-88306035D01*
X135444230Y-88320201D01*
X135508998Y-88325868D01*
X135509000Y-88325868D01*
X135509002Y-88325868D01*
X135565673Y-88320909D01*
X135735692Y-88306035D01*
X135955496Y-88247139D01*
X136161734Y-88150968D01*
X136348139Y-88020447D01*
X136509047Y-87859539D01*
X136639568Y-87673134D01*
X136735739Y-87466896D01*
X136794635Y-87247092D01*
X136814468Y-87020400D01*
X136813314Y-87007215D01*
X136807449Y-86940176D01*
X136794635Y-86793708D01*
X136735739Y-86573904D01*
X136639568Y-86367666D01*
X136509047Y-86181261D01*
X136509045Y-86181258D01*
X136348141Y-86020354D01*
X136161734Y-85889832D01*
X136161732Y-85889831D01*
X135955497Y-85793661D01*
X135955488Y-85793658D01*
X135735697Y-85734766D01*
X135735693Y-85734765D01*
X135735692Y-85734765D01*
X135735691Y-85734764D01*
X135735686Y-85734764D01*
X135509002Y-85714932D01*
X135508998Y-85714932D01*
X135282313Y-85734764D01*
X135282302Y-85734766D01*
X135062511Y-85793658D01*
X135062502Y-85793661D01*
X134856267Y-85889831D01*
X134856265Y-85889832D01*
X134669858Y-86020354D01*
X134508954Y-86181258D01*
X134486713Y-86213023D01*
X134432137Y-86256648D01*
X134385138Y-86265900D01*
X133586886Y-86265900D01*
X133519847Y-86246215D01*
X133499205Y-86229581D01*
X129919369Y-82649743D01*
X129919368Y-82649742D01*
X129795792Y-82567172D01*
X129795791Y-82567171D01*
X129795789Y-82567170D01*
X129795786Y-82567168D01*
X129795781Y-82567166D01*
X129700417Y-82527666D01*
X129658480Y-82510295D01*
X129634294Y-82505484D01*
X129512714Y-82481299D01*
X129512712Y-82481299D01*
X129364088Y-82481299D01*
X129357974Y-82481299D01*
X129357954Y-82481300D01*
X124997646Y-82481300D01*
X124997626Y-82481299D01*
X124991512Y-82481299D01*
X124842888Y-82481299D01*
X124842886Y-82481299D01*
X124721305Y-82505484D01*
X124697120Y-82510295D01*
X124655183Y-82527666D01*
X124655182Y-82527666D01*
X124559815Y-82567167D01*
X124530882Y-82586500D01*
X124436233Y-82649741D01*
X124383687Y-82702287D01*
X124331141Y-82754834D01*
X114531794Y-92554181D01*
X114470471Y-92587666D01*
X114444113Y-92590500D01*
X110586540Y-92590500D01*
X110519501Y-92570815D01*
X110473746Y-92518011D01*
X110465864Y-92495017D01*
X110464092Y-92487520D01*
X110455264Y-92463852D01*
X110435776Y-92411600D01*
X110413797Y-92352671D01*
X110413793Y-92352664D01*
X110327547Y-92237455D01*
X110327544Y-92237452D01*
X110212335Y-92151206D01*
X110212328Y-92151202D01*
X110077482Y-92100908D01*
X110077483Y-92100908D01*
X110017883Y-92094501D01*
X110017881Y-92094500D01*
X110017873Y-92094500D01*
X110017864Y-92094500D01*
X108422129Y-92094500D01*
X108422123Y-92094501D01*
X108362516Y-92100908D01*
X108227671Y-92151202D01*
X108227664Y-92151206D01*
X108112455Y-92237452D01*
X108112452Y-92237455D01*
X108026206Y-92352664D01*
X108026202Y-92352671D01*
X107975908Y-92487517D01*
X107969501Y-92547116D01*
X107969500Y-92547135D01*
X90185161Y-92547135D01*
X89766969Y-92128943D01*
X89766968Y-92128942D01*
X89725011Y-92100908D01*
X89643389Y-92046370D01*
X89643386Y-92046368D01*
X89643385Y-92046368D01*
X89562955Y-92013053D01*
X89506080Y-91989495D01*
X89481894Y-91984684D01*
X89360314Y-91960499D01*
X89360312Y-91960499D01*
X89211688Y-91960499D01*
X89205574Y-91960499D01*
X89205554Y-91960500D01*
X84484196Y-91960500D01*
X84417157Y-91940815D01*
X84378470Y-91901292D01*
X84298836Y-91771341D01*
X84135224Y-91579776D01*
X84008571Y-91471604D01*
X83943656Y-91416161D01*
X83943653Y-91416160D01*
X83728859Y-91284533D01*
X83496110Y-91188126D01*
X83251151Y-91129317D01*
X83000000Y-91109551D01*
X82748848Y-91129317D01*
X82503889Y-91188126D01*
X82271140Y-91284533D01*
X82056346Y-91416160D01*
X82056343Y-91416161D01*
X81864776Y-91579776D01*
X81701161Y-91771343D01*
X81701160Y-91771346D01*
X81569533Y-91986140D01*
X81473126Y-92218889D01*
X81414317Y-92463848D01*
X81394551Y-92715000D01*
X72930627Y-92715000D01*
X72915141Y-92657206D01*
X72862480Y-92565994D01*
X72858086Y-92561600D01*
X73821272Y-92561600D01*
X73821272Y-92561599D01*
X73768669Y-92365282D01*
X73768665Y-92365273D01*
X73672534Y-92159117D01*
X73542057Y-91972779D01*
X73381220Y-91811942D01*
X73194882Y-91681465D01*
X72988728Y-91585334D01*
X72792400Y-91532727D01*
X72792400Y-92495914D01*
X72788006Y-92491520D01*
X72696794Y-92438859D01*
X72595061Y-92411600D01*
X72489739Y-92411600D01*
X72388006Y-92438859D01*
X72296794Y-92491520D01*
X72292400Y-92495914D01*
X72292400Y-91532727D01*
X72096071Y-91585334D01*
X71889917Y-91681465D01*
X71703579Y-91811942D01*
X71542742Y-91972779D01*
X71412265Y-92159117D01*
X71316134Y-92365273D01*
X71316130Y-92365282D01*
X71263527Y-92561599D01*
X49584473Y-92561599D01*
X49401662Y-92505209D01*
X49401656Y-92505207D01*
X49134898Y-92465000D01*
X48865101Y-92465000D01*
X48598343Y-92505207D01*
X48598337Y-92505209D01*
X48340538Y-92584730D01*
X48097485Y-92701778D01*
X48097476Y-92701783D01*
X47914848Y-92826296D01*
X48752511Y-93663958D01*
X48692110Y-93688978D01*
X48585649Y-93760112D01*
X48495112Y-93850649D01*
X48423978Y-93957110D01*
X48398958Y-94017511D01*
X47562295Y-93180848D01*
X47508600Y-93248180D01*
X47373709Y-93481818D01*
X47275148Y-93732947D01*
X47275142Y-93732966D01*
X47215113Y-93995971D01*
X47215113Y-93995973D01*
X47194953Y-94264995D01*
X39116000Y-94264995D01*
X39116000Y-87917135D01*
X47199500Y-87917135D01*
X47199500Y-90612870D01*
X47199501Y-90612876D01*
X47205908Y-90672483D01*
X47256202Y-90807328D01*
X47256206Y-90807335D01*
X47342452Y-90922544D01*
X47342455Y-90922547D01*
X47457664Y-91008793D01*
X47457671Y-91008797D01*
X47592517Y-91059091D01*
X47592516Y-91059091D01*
X47599444Y-91059835D01*
X47652127Y-91065500D01*
X50347872Y-91065499D01*
X50407483Y-91059091D01*
X50542331Y-91008796D01*
X50657546Y-90922546D01*
X50743796Y-90807331D01*
X50794091Y-90672483D01*
X50800500Y-90612873D01*
X50800499Y-87917128D01*
X50794091Y-87857517D01*
X50774854Y-87805941D01*
X50743797Y-87722671D01*
X50743793Y-87722664D01*
X50657547Y-87607455D01*
X50657544Y-87607452D01*
X50542335Y-87521206D01*
X50542328Y-87521202D01*
X50407482Y-87470908D01*
X50407483Y-87470908D01*
X50347883Y-87464501D01*
X50347881Y-87464500D01*
X50347873Y-87464500D01*
X50347864Y-87464500D01*
X47652129Y-87464500D01*
X47652123Y-87464501D01*
X47592516Y-87470908D01*
X47457671Y-87521202D01*
X47457664Y-87521206D01*
X47342455Y-87607452D01*
X47342452Y-87607455D01*
X47256206Y-87722664D01*
X47256202Y-87722671D01*
X47205908Y-87857517D01*
X47205099Y-87865047D01*
X47199501Y-87917123D01*
X47199500Y-87917135D01*
X39116000Y-87917135D01*
X39116000Y-85462997D01*
X108980723Y-85462997D01*
X108980723Y-85463002D01*
X108999793Y-85680975D01*
X108999793Y-85680979D01*
X109056422Y-85892322D01*
X109056424Y-85892326D01*
X109056425Y-85892330D01*
X109090943Y-85966354D01*
X109148897Y-86090638D01*
X109148898Y-86090639D01*
X109274402Y-86269877D01*
X109372190Y-86367665D01*
X109429129Y-86424604D01*
X109433268Y-86428077D01*
X109432455Y-86429044D01*
X109472246Y-86478819D01*
X109481500Y-86525823D01*
X109481500Y-88693552D01*
X109481499Y-88693578D01*
X109481499Y-88847312D01*
X109489911Y-88889597D01*
X109489911Y-88889600D01*
X109510492Y-88993072D01*
X109510495Y-88993081D01*
X109534053Y-89049955D01*
X109550682Y-89090102D01*
X109567370Y-89130389D01*
X109622417Y-89212773D01*
X109649942Y-89253968D01*
X109649943Y-89253969D01*
X111169600Y-90773624D01*
X111169621Y-90773647D01*
X111279028Y-90883054D01*
X111279035Y-90883060D01*
X111402608Y-90965628D01*
X111402609Y-90965628D01*
X111402610Y-90965629D01*
X111539920Y-91022505D01*
X111675503Y-91049474D01*
X111685683Y-91051499D01*
X111685687Y-91051500D01*
X111685688Y-91051500D01*
X111834312Y-91051500D01*
X114087554Y-91051500D01*
X114087574Y-91051501D01*
X114093688Y-91051501D01*
X114242314Y-91051501D01*
X114363894Y-91027315D01*
X114363894Y-91027316D01*
X114363900Y-91027313D01*
X114388080Y-91022505D01*
X114423942Y-91007649D01*
X114444944Y-90998951D01*
X114444947Y-90998949D01*
X114444955Y-90998946D01*
X114525389Y-90965630D01*
X114648966Y-90883059D01*
X123676205Y-81855818D01*
X123737528Y-81822334D01*
X123763886Y-81819500D01*
X126319554Y-81819500D01*
X126319574Y-81819501D01*
X126325688Y-81819501D01*
X126474314Y-81819501D01*
X126595894Y-81795315D01*
X126595894Y-81795316D01*
X126595900Y-81795313D01*
X126620080Y-81790505D01*
X126723635Y-81747611D01*
X126757389Y-81733630D01*
X126880966Y-81651059D01*
X129800963Y-78731060D01*
X129800966Y-78731059D01*
X129906059Y-78625966D01*
X129988629Y-78502390D01*
X129988630Y-78502389D01*
X129988633Y-78502385D01*
X130045503Y-78365083D01*
X130045505Y-78365079D01*
X130074501Y-78219312D01*
X130074501Y-78070688D01*
X130074501Y-78065578D01*
X130074500Y-78065552D01*
X130074500Y-76860398D01*
X134203532Y-76860398D01*
X134203532Y-76860401D01*
X134223364Y-77087086D01*
X134223366Y-77087097D01*
X134282258Y-77306888D01*
X134282261Y-77306897D01*
X134378431Y-77513132D01*
X134378432Y-77513134D01*
X134508954Y-77699541D01*
X134669858Y-77860445D01*
X134669861Y-77860447D01*
X134856266Y-77990968D01*
X135062504Y-78087139D01*
X135282308Y-78146035D01*
X135444230Y-78160201D01*
X135508998Y-78165868D01*
X135509000Y-78165868D01*
X135509002Y-78165868D01*
X135565673Y-78160909D01*
X135735692Y-78146035D01*
X135955496Y-78087139D01*
X136161734Y-77990968D01*
X136348139Y-77860447D01*
X136509047Y-77699539D01*
X136639568Y-77513134D01*
X136735739Y-77306896D01*
X136794635Y-77087092D01*
X136814468Y-76860400D01*
X136810880Y-76819394D01*
X136805629Y-76759366D01*
X136794635Y-76633708D01*
X136735739Y-76413904D01*
X136639568Y-76207666D01*
X136509047Y-76021261D01*
X136509045Y-76021258D01*
X136348141Y-75860354D01*
X136161734Y-75729832D01*
X136161732Y-75729831D01*
X135955497Y-75633661D01*
X135955488Y-75633658D01*
X135735697Y-75574766D01*
X135735693Y-75574765D01*
X135735692Y-75574765D01*
X135735691Y-75574764D01*
X135735686Y-75574764D01*
X135509002Y-75554932D01*
X135508998Y-75554932D01*
X135282313Y-75574764D01*
X135282302Y-75574766D01*
X135062511Y-75633658D01*
X135062502Y-75633661D01*
X134856267Y-75729831D01*
X134856265Y-75729832D01*
X134669858Y-75860354D01*
X134508954Y-76021258D01*
X134378432Y-76207665D01*
X134378431Y-76207667D01*
X134282261Y-76413902D01*
X134282258Y-76413911D01*
X134223366Y-76633702D01*
X134223364Y-76633713D01*
X134203532Y-76860398D01*
X130074500Y-76860398D01*
X130074500Y-72488861D01*
X130094185Y-72421822D01*
X130127375Y-72387287D01*
X130159139Y-72365047D01*
X130320047Y-72204139D01*
X130450568Y-72017734D01*
X130546739Y-71811496D01*
X130605635Y-71591692D01*
X130625468Y-71365000D01*
X130605635Y-71138308D01*
X130599389Y-71114999D01*
X138201127Y-71114999D01*
X138201128Y-71115000D01*
X139164314Y-71115000D01*
X139159920Y-71119394D01*
X139107259Y-71210606D01*
X139080000Y-71312339D01*
X139080000Y-71417661D01*
X139107259Y-71519394D01*
X139159920Y-71610606D01*
X139164314Y-71615000D01*
X138201128Y-71615000D01*
X138253730Y-71811317D01*
X138253734Y-71811326D01*
X138349865Y-72017482D01*
X138480342Y-72203820D01*
X138641179Y-72364657D01*
X138827517Y-72495134D01*
X139033673Y-72591265D01*
X139033682Y-72591269D01*
X139229999Y-72643872D01*
X139230000Y-72643871D01*
X139230000Y-71680686D01*
X139234394Y-71685080D01*
X139325606Y-71737741D01*
X139427339Y-71765000D01*
X139532661Y-71765000D01*
X139634394Y-71737741D01*
X139725606Y-71685080D01*
X139730000Y-71680686D01*
X139730000Y-72643872D01*
X139926317Y-72591269D01*
X139926326Y-72591265D01*
X140132482Y-72495134D01*
X140318820Y-72364657D01*
X140479657Y-72203820D01*
X140610134Y-72017482D01*
X140706265Y-71811326D01*
X140706269Y-71811317D01*
X140758872Y-71615000D01*
X139795686Y-71615000D01*
X139800080Y-71610606D01*
X139852741Y-71519394D01*
X139880000Y-71417661D01*
X139880000Y-71312339D01*
X139852741Y-71210606D01*
X139800080Y-71119394D01*
X139795686Y-71115000D01*
X140758872Y-71115000D01*
X140758872Y-71114999D01*
X140706269Y-70918682D01*
X140706265Y-70918673D01*
X140610134Y-70712517D01*
X140479657Y-70526179D01*
X140318820Y-70365342D01*
X140132482Y-70234865D01*
X139926328Y-70138734D01*
X139730000Y-70086127D01*
X139730000Y-71049314D01*
X139725606Y-71044920D01*
X139634394Y-70992259D01*
X139532661Y-70965000D01*
X139427339Y-70965000D01*
X139325606Y-70992259D01*
X139234394Y-71044920D01*
X139230000Y-71049314D01*
X139230000Y-70086127D01*
X139033671Y-70138734D01*
X138827517Y-70234865D01*
X138641179Y-70365342D01*
X138480342Y-70526179D01*
X138349865Y-70712517D01*
X138253734Y-70918673D01*
X138253730Y-70918682D01*
X138201127Y-71114999D01*
X130599389Y-71114999D01*
X130546739Y-70918504D01*
X130450568Y-70712266D01*
X130320047Y-70525861D01*
X130320045Y-70525858D01*
X130250786Y-70456599D01*
X130217301Y-70395276D01*
X130222285Y-70325584D01*
X130250784Y-70281239D01*
X131276205Y-69255819D01*
X131337528Y-69222334D01*
X131363886Y-69219500D01*
X162970113Y-69219500D01*
X163037152Y-69239185D01*
X163057794Y-69255819D01*
X169024181Y-75222205D01*
X169057666Y-75283528D01*
X169060500Y-75309886D01*
X169060500Y-76692370D01*
X169060501Y-76692376D01*
X169066908Y-76751983D01*
X169117202Y-76886828D01*
X169117206Y-76886835D01*
X169203452Y-77002044D01*
X169203455Y-77002047D01*
X169318664Y-77088293D01*
X169318669Y-77088296D01*
X169346539Y-77098690D01*
X169402473Y-77140561D01*
X169426891Y-77206024D01*
X169412040Y-77274298D01*
X169403525Y-77287759D01*
X169270783Y-77470461D01*
X169166950Y-77674244D01*
X169096278Y-77891750D01*
X169096278Y-77891753D01*
X169080564Y-77990967D01*
X169060500Y-78117646D01*
X169060500Y-78346354D01*
X169078389Y-78459299D01*
X169096278Y-78572246D01*
X169096278Y-78572249D01*
X169166950Y-78789755D01*
X169166952Y-78789758D01*
X169270783Y-78993538D01*
X169405214Y-79178566D01*
X169566934Y-79340286D01*
X169651864Y-79401991D01*
X169694529Y-79457321D01*
X169700508Y-79526935D01*
X169667902Y-79588730D01*
X169651864Y-79602627D01*
X169567257Y-79664097D01*
X169405597Y-79825757D01*
X169271211Y-80010723D01*
X169167417Y-80214429D01*
X169096765Y-80431871D01*
X169082491Y-80522000D01*
X170070252Y-80522000D01*
X170048482Y-80559708D01*
X170011000Y-80699591D01*
X170011000Y-80844409D01*
X170048482Y-80984292D01*
X170070252Y-81022000D01*
X169082491Y-81022000D01*
X169096765Y-81112128D01*
X169167417Y-81329570D01*
X169271211Y-81533276D01*
X169405597Y-81718242D01*
X169567257Y-81879902D01*
X169752223Y-82014288D01*
X169955929Y-82118082D01*
X170173371Y-82188734D01*
X170311000Y-82210532D01*
X170311000Y-81262747D01*
X170348708Y-81284518D01*
X170488591Y-81322000D01*
X170633409Y-81322000D01*
X170773292Y-81284518D01*
X170811000Y-81262747D01*
X170811000Y-82210531D01*
X170948628Y-82188734D01*
X171166070Y-82118082D01*
X171369776Y-82014288D01*
X171554742Y-81879902D01*
X171716402Y-81718242D01*
X171850788Y-81533276D01*
X171954582Y-81329570D01*
X172025234Y-81112128D01*
X172039509Y-81022000D01*
X171051748Y-81022000D01*
X171073518Y-80984292D01*
X171111000Y-80844409D01*
X171111000Y-80699591D01*
X171073518Y-80559708D01*
X171051748Y-80522000D01*
X172039509Y-80522000D01*
X172025234Y-80431871D01*
X172019144Y-80413127D01*
X187275500Y-80413127D01*
X187275500Y-82908870D01*
X187275501Y-82908876D01*
X187281908Y-82968483D01*
X187332202Y-83103328D01*
X187332206Y-83103335D01*
X187418452Y-83218544D01*
X187418455Y-83218547D01*
X187533664Y-83304793D01*
X187533671Y-83304797D01*
X187668517Y-83355091D01*
X187668516Y-83355091D01*
X187675444Y-83355835D01*
X187728127Y-83361500D01*
X190223872Y-83361499D01*
X190283483Y-83355091D01*
X190418331Y-83304796D01*
X190533546Y-83218546D01*
X190619796Y-83103331D01*
X190670091Y-82968483D01*
X190676500Y-82908873D01*
X190676499Y-81660995D01*
X192270732Y-81660995D01*
X192270732Y-81661004D01*
X192289777Y-81915154D01*
X192317887Y-82038313D01*
X192346492Y-82163637D01*
X192439607Y-82400888D01*
X192567041Y-82621612D01*
X192725950Y-82820877D01*
X192912783Y-82994232D01*
X193123366Y-83137805D01*
X193123371Y-83137807D01*
X193123372Y-83137808D01*
X193123373Y-83137809D01*
X193245328Y-83196538D01*
X193352992Y-83248387D01*
X193352993Y-83248387D01*
X193352996Y-83248389D01*
X193596542Y-83323513D01*
X193848565Y-83361500D01*
X194103435Y-83361500D01*
X194355458Y-83323513D01*
X194599004Y-83248389D01*
X194828634Y-83137805D01*
X195039217Y-82994232D01*
X195226050Y-82820877D01*
X195384959Y-82621612D01*
X195512393Y-82400888D01*
X195605508Y-82163637D01*
X195662222Y-81915157D01*
X195675825Y-81733630D01*
X195681268Y-81661004D01*
X195681268Y-81660995D01*
X195662222Y-81406845D01*
X195657578Y-81386500D01*
X195605508Y-81158363D01*
X195512393Y-80921112D01*
X195384959Y-80700388D01*
X195226050Y-80501123D01*
X195039217Y-80327768D01*
X194828634Y-80184195D01*
X194828630Y-80184193D01*
X194828627Y-80184191D01*
X194828626Y-80184190D01*
X194599006Y-80073612D01*
X194599008Y-80073612D01*
X194355466Y-79998489D01*
X194355462Y-79998488D01*
X194355458Y-79998487D01*
X194234231Y-79980214D01*
X194103440Y-79960500D01*
X194103435Y-79960500D01*
X193848565Y-79960500D01*
X193848559Y-79960500D01*
X193691609Y-79984157D01*
X193596542Y-79998487D01*
X193596539Y-79998488D01*
X193596533Y-79998489D01*
X193352992Y-80073612D01*
X193123373Y-80184190D01*
X193123372Y-80184191D01*
X192912782Y-80327768D01*
X192725952Y-80501121D01*
X192725950Y-80501123D01*
X192567041Y-80700388D01*
X192439608Y-80921109D01*
X192346492Y-81158362D01*
X192346490Y-81158369D01*
X192289777Y-81406845D01*
X192270732Y-81660995D01*
X190676499Y-81660995D01*
X190676499Y-80413128D01*
X190670091Y-80353517D01*
X190660487Y-80327768D01*
X190619797Y-80218671D01*
X190619793Y-80218664D01*
X190533547Y-80103455D01*
X190533544Y-80103452D01*
X190418335Y-80017206D01*
X190418328Y-80017202D01*
X190283482Y-79966908D01*
X190283483Y-79966908D01*
X190223883Y-79960501D01*
X190223881Y-79960500D01*
X190223873Y-79960500D01*
X190223864Y-79960500D01*
X187728129Y-79960500D01*
X187728123Y-79960501D01*
X187668516Y-79966908D01*
X187533671Y-80017202D01*
X187533664Y-80017206D01*
X187418455Y-80103452D01*
X187418452Y-80103455D01*
X187332206Y-80218664D01*
X187332202Y-80218671D01*
X187281908Y-80353517D01*
X187275501Y-80413116D01*
X187275500Y-80413127D01*
X172019144Y-80413127D01*
X171954582Y-80214429D01*
X171850788Y-80010723D01*
X171716402Y-79825757D01*
X171554742Y-79664097D01*
X171470135Y-79602626D01*
X171427470Y-79547296D01*
X171421491Y-79477682D01*
X171454097Y-79415887D01*
X171470125Y-79401999D01*
X171555066Y-79340286D01*
X171716786Y-79178566D01*
X171851217Y-78993538D01*
X171955048Y-78789758D01*
X172025722Y-78572245D01*
X172061500Y-78346354D01*
X172061500Y-78117646D01*
X172025722Y-77891755D01*
X172025721Y-77891751D01*
X172025721Y-77891750D01*
X171955049Y-77674244D01*
X171916461Y-77598511D01*
X171851217Y-77470462D01*
X171718472Y-77287755D01*
X171694994Y-77221953D01*
X171710819Y-77153899D01*
X171760925Y-77105204D01*
X171775455Y-77098692D01*
X171803331Y-77088296D01*
X171918546Y-77002046D01*
X172004796Y-76886831D01*
X172055091Y-76751983D01*
X172061500Y-76692373D01*
X172061499Y-74691628D01*
X172055091Y-74632017D01*
X172004796Y-74497169D01*
X172004795Y-74497168D01*
X172004793Y-74497164D01*
X171918547Y-74381955D01*
X171918544Y-74381952D01*
X171803335Y-74295706D01*
X171803328Y-74295702D01*
X171668482Y-74245408D01*
X171668483Y-74245408D01*
X171608883Y-74239001D01*
X171608881Y-74239000D01*
X171608873Y-74239000D01*
X171608865Y-74239000D01*
X170226386Y-74239000D01*
X170159347Y-74219315D01*
X170138705Y-74202681D01*
X164262026Y-68326000D01*
X206815176Y-68326000D01*
X206834461Y-68718550D01*
X206892129Y-69107308D01*
X206987625Y-69488549D01*
X207120016Y-69858559D01*
X207120023Y-69858575D01*
X207288062Y-70213864D01*
X207490109Y-70550958D01*
X207724228Y-70866632D01*
X207820068Y-70972376D01*
X207820069Y-70972376D01*
X209418381Y-69374064D01*
X209501457Y-69482331D01*
X209663669Y-69644543D01*
X209771934Y-69727617D01*
X208173622Y-71325929D01*
X208173622Y-71325930D01*
X208279367Y-71421771D01*
X208595041Y-71655890D01*
X208932135Y-71857937D01*
X209287424Y-72025976D01*
X209287440Y-72025983D01*
X209657450Y-72158374D01*
X210038691Y-72253870D01*
X210427449Y-72311538D01*
X210820000Y-72330823D01*
X211212550Y-72311538D01*
X211601308Y-72253870D01*
X211982549Y-72158374D01*
X212352559Y-72025983D01*
X212352575Y-72025976D01*
X212707864Y-71857937D01*
X213044958Y-71655890D01*
X213360632Y-71421770D01*
X213466376Y-71325929D01*
X211868065Y-69727618D01*
X211976331Y-69644543D01*
X212138543Y-69482331D01*
X212221618Y-69374065D01*
X213819929Y-70972376D01*
X213915770Y-70866632D01*
X214149890Y-70550958D01*
X214351937Y-70213864D01*
X214519976Y-69858575D01*
X214519983Y-69858559D01*
X214652374Y-69488549D01*
X214747870Y-69107308D01*
X214805538Y-68718550D01*
X214824823Y-68326000D01*
X214805538Y-67933449D01*
X214747870Y-67544691D01*
X214652374Y-67163450D01*
X214519983Y-66793440D01*
X214519976Y-66793424D01*
X214351937Y-66438135D01*
X214149890Y-66101041D01*
X213915771Y-65785367D01*
X213819930Y-65679622D01*
X213819929Y-65679622D01*
X212221617Y-67277934D01*
X212138543Y-67169669D01*
X211976331Y-67007457D01*
X211868065Y-66924381D01*
X213466376Y-65326069D01*
X213466376Y-65326068D01*
X213360632Y-65230228D01*
X213044958Y-64996109D01*
X212707864Y-64794062D01*
X212352575Y-64626023D01*
X212352559Y-64626016D01*
X211982549Y-64493625D01*
X211601308Y-64398129D01*
X211212550Y-64340461D01*
X210820000Y-64321176D01*
X210427449Y-64340461D01*
X210038691Y-64398129D01*
X209657450Y-64493625D01*
X209287440Y-64626016D01*
X209287424Y-64626023D01*
X208932135Y-64794062D01*
X208595041Y-64996109D01*
X208279368Y-65230228D01*
X208173622Y-65326069D01*
X209771934Y-66924381D01*
X209663669Y-67007457D01*
X209501457Y-67169669D01*
X209418382Y-67277934D01*
X207820069Y-65679622D01*
X207724228Y-65785368D01*
X207490109Y-66101041D01*
X207288062Y-66438135D01*
X207120023Y-66793424D01*
X207120016Y-66793440D01*
X206987625Y-67163450D01*
X206892129Y-67544691D01*
X206834461Y-67933449D01*
X206815176Y-68326000D01*
X164262026Y-68326000D01*
X163814969Y-67878943D01*
X163814968Y-67878942D01*
X163773773Y-67851417D01*
X163691389Y-67796370D01*
X163691386Y-67796368D01*
X163691385Y-67796368D01*
X163610955Y-67763053D01*
X163554080Y-67739495D01*
X163529894Y-67734684D01*
X163408314Y-67710499D01*
X163408312Y-67710499D01*
X163259688Y-67710499D01*
X163253574Y-67710499D01*
X163253554Y-67710500D01*
X131080446Y-67710500D01*
X131080426Y-67710499D01*
X131074312Y-67710499D01*
X130925688Y-67710499D01*
X130925686Y-67710499D01*
X130804105Y-67734684D01*
X130789540Y-67737581D01*
X130779918Y-67739495D01*
X130779917Y-67739495D01*
X130723045Y-67763052D01*
X130723045Y-67763053D01*
X130642616Y-67796368D01*
X130642609Y-67796371D01*
X130519033Y-67878941D01*
X130466487Y-67931487D01*
X130413941Y-67984034D01*
X130413939Y-67984036D01*
X128733943Y-69664030D01*
X128733942Y-69664031D01*
X128651372Y-69787607D01*
X128651366Y-69787618D01*
X128594496Y-69924916D01*
X128594493Y-69924926D01*
X128565499Y-70070685D01*
X128565499Y-70225425D01*
X128565500Y-70225446D01*
X128565500Y-70241138D01*
X128545815Y-70308177D01*
X128512626Y-70342710D01*
X128509547Y-70344867D01*
X128480861Y-70364953D01*
X128319951Y-70525862D01*
X128189432Y-70712265D01*
X128189431Y-70712267D01*
X128093261Y-70918502D01*
X128093258Y-70918511D01*
X128034366Y-71138302D01*
X128034364Y-71138313D01*
X128014532Y-71364998D01*
X128014532Y-71365001D01*
X128034364Y-71591686D01*
X128034366Y-71591697D01*
X128093258Y-71811488D01*
X128093261Y-71811497D01*
X128189431Y-72017732D01*
X128189432Y-72017734D01*
X128319954Y-72204141D01*
X128480856Y-72365043D01*
X128480859Y-72365045D01*
X128480861Y-72365047D01*
X128512623Y-72387286D01*
X128556247Y-72441860D01*
X128565500Y-72488861D01*
X128565500Y-77781113D01*
X128545815Y-77848152D01*
X128529181Y-77868794D01*
X126123794Y-80274181D01*
X126062471Y-80307666D01*
X126036113Y-80310500D01*
X123480446Y-80310500D01*
X123480426Y-80310499D01*
X123474312Y-80310499D01*
X123325688Y-80310499D01*
X123325686Y-80310499D01*
X123238873Y-80327768D01*
X123204105Y-80334684D01*
X123189540Y-80337581D01*
X123179918Y-80339495D01*
X123179917Y-80339495D01*
X123123045Y-80363053D01*
X123042615Y-80396367D01*
X123042610Y-80396370D01*
X123017531Y-80413126D01*
X123017532Y-80413127D01*
X122919033Y-80478941D01*
X122875975Y-80522000D01*
X122813941Y-80584034D01*
X113891794Y-89506181D01*
X113830471Y-89539666D01*
X113804113Y-89542500D01*
X112123886Y-89542500D01*
X112056847Y-89522815D01*
X112036205Y-89506181D01*
X111026819Y-88496794D01*
X110993334Y-88435471D01*
X110990500Y-88409113D01*
X110990500Y-86525823D01*
X111010185Y-86458784D01*
X111039182Y-86428613D01*
X111038732Y-86428077D01*
X111042870Y-86424604D01*
X111042873Y-86424600D01*
X111042877Y-86424598D01*
X111197598Y-86269877D01*
X111323102Y-86090639D01*
X111415575Y-85892330D01*
X111472207Y-85680977D01*
X111491277Y-85463000D01*
X111472207Y-85245023D01*
X111415575Y-85033670D01*
X111323102Y-84835362D01*
X111323100Y-84835359D01*
X111323099Y-84835357D01*
X111197599Y-84656124D01*
X111123475Y-84582000D01*
X111042877Y-84501402D01*
X110863639Y-84375898D01*
X110863640Y-84375898D01*
X110863638Y-84375897D01*
X110738906Y-84317734D01*
X110665330Y-84283425D01*
X110665326Y-84283424D01*
X110665322Y-84283422D01*
X110453977Y-84226793D01*
X110236002Y-84207723D01*
X110235998Y-84207723D01*
X110108163Y-84218907D01*
X110018023Y-84226793D01*
X110018020Y-84226793D01*
X109806677Y-84283422D01*
X109806668Y-84283426D01*
X109608361Y-84375898D01*
X109608357Y-84375900D01*
X109429121Y-84501402D01*
X109274402Y-84656121D01*
X109148900Y-84835357D01*
X109148898Y-84835361D01*
X109056426Y-85033668D01*
X109056422Y-85033677D01*
X108999793Y-85245020D01*
X108999793Y-85245024D01*
X108980723Y-85462997D01*
X39116000Y-85462997D01*
X39116000Y-73846935D01*
X48580300Y-73846935D01*
X48580300Y-75542670D01*
X48580301Y-75542676D01*
X48586708Y-75602283D01*
X48637002Y-75737128D01*
X48637006Y-75737135D01*
X48723252Y-75852344D01*
X48723255Y-75852347D01*
X48838464Y-75938593D01*
X48838471Y-75938597D01*
X48973317Y-75988891D01*
X48973316Y-75988891D01*
X48980244Y-75989635D01*
X49032927Y-75995300D01*
X50728672Y-75995299D01*
X50788283Y-75988891D01*
X50923131Y-75938596D01*
X50927988Y-75934959D01*
X50993452Y-75910542D01*
X51061725Y-75925393D01*
X51111131Y-75974797D01*
X51126300Y-76034226D01*
X51126300Y-81169003D01*
X51106615Y-81236042D01*
X51084604Y-81261041D01*
X51084689Y-81261126D01*
X51083365Y-81262449D01*
X51082011Y-81263988D01*
X51080866Y-81264948D01*
X50919951Y-81425862D01*
X50789432Y-81612265D01*
X50789431Y-81612267D01*
X50693261Y-81818502D01*
X50693258Y-81818511D01*
X50634366Y-82038302D01*
X50634364Y-82038313D01*
X50614532Y-82264998D01*
X50614532Y-82265001D01*
X50634364Y-82491686D01*
X50634366Y-82491697D01*
X50693258Y-82711488D01*
X50693261Y-82711497D01*
X50789431Y-82917732D01*
X50789432Y-82917734D01*
X50919954Y-83104141D01*
X51080858Y-83265045D01*
X51109807Y-83285315D01*
X51267266Y-83395568D01*
X51473504Y-83491739D01*
X51693308Y-83550635D01*
X51855230Y-83564801D01*
X51919998Y-83570468D01*
X51920000Y-83570468D01*
X51920002Y-83570468D01*
X51976673Y-83565509D01*
X52146692Y-83550635D01*
X52366496Y-83491739D01*
X52572734Y-83395568D01*
X52759139Y-83265047D01*
X52920047Y-83104139D01*
X53050568Y-82917734D01*
X53146739Y-82711496D01*
X53205635Y-82491692D01*
X53225468Y-82265000D01*
X53225468Y-82264998D01*
X60774532Y-82264998D01*
X60774532Y-82265001D01*
X60794364Y-82491686D01*
X60794366Y-82491697D01*
X60853258Y-82711488D01*
X60853261Y-82711497D01*
X60949431Y-82917732D01*
X60949432Y-82917734D01*
X61079954Y-83104141D01*
X61240858Y-83265045D01*
X61269807Y-83285315D01*
X61427266Y-83395568D01*
X61633504Y-83491739D01*
X61853308Y-83550635D01*
X62015230Y-83564801D01*
X62079998Y-83570468D01*
X62080000Y-83570468D01*
X62080002Y-83570468D01*
X62136673Y-83565509D01*
X62306692Y-83550635D01*
X62526496Y-83491739D01*
X62732734Y-83395568D01*
X62919139Y-83265047D01*
X63080047Y-83104139D01*
X63102287Y-83072377D01*
X63156863Y-83028752D01*
X63203862Y-83019500D01*
X71200229Y-83019500D01*
X71267268Y-83039185D01*
X71313023Y-83091989D01*
X71314537Y-83095687D01*
X71411831Y-83304332D01*
X71411832Y-83304334D01*
X71542354Y-83490741D01*
X71703258Y-83651645D01*
X71703261Y-83651647D01*
X71889666Y-83782168D01*
X72095904Y-83878339D01*
X72315708Y-83937235D01*
X72477630Y-83951401D01*
X72542398Y-83957068D01*
X72542400Y-83957068D01*
X72542402Y-83957068D01*
X72599073Y-83952109D01*
X72769092Y-83937235D01*
X72988896Y-83878339D01*
X73195134Y-83782168D01*
X73381539Y-83651647D01*
X73542447Y-83490739D01*
X73672968Y-83304334D01*
X73769139Y-83098096D01*
X73828035Y-82878292D01*
X73847868Y-82651600D01*
X73847705Y-82649742D01*
X73840481Y-82567166D01*
X73828035Y-82424908D01*
X73783316Y-82258015D01*
X73769141Y-82205111D01*
X73769138Y-82205102D01*
X73749799Y-82163630D01*
X73672968Y-81998866D01*
X73572806Y-81855819D01*
X73542448Y-81812462D01*
X73463613Y-81733627D01*
X73381539Y-81651553D01*
X73349774Y-81629310D01*
X73306151Y-81574735D01*
X73296900Y-81527738D01*
X73296900Y-81407135D01*
X81399500Y-81407135D01*
X81399500Y-83702870D01*
X81399501Y-83702876D01*
X81405908Y-83762483D01*
X81456202Y-83897328D01*
X81456206Y-83897335D01*
X81542452Y-84012544D01*
X81542455Y-84012547D01*
X81657664Y-84098793D01*
X81657671Y-84098797D01*
X81792517Y-84149091D01*
X81792516Y-84149091D01*
X81799444Y-84149835D01*
X81852127Y-84155500D01*
X84147872Y-84155499D01*
X84207483Y-84149091D01*
X84342331Y-84098796D01*
X84457546Y-84012546D01*
X84543796Y-83897331D01*
X84594091Y-83762483D01*
X84600500Y-83702873D01*
X84600500Y-83664998D01*
X92514532Y-83664998D01*
X92514532Y-83665001D01*
X92534364Y-83891686D01*
X92534366Y-83891697D01*
X92593258Y-84111488D01*
X92593261Y-84111497D01*
X92689431Y-84317732D01*
X92689432Y-84317734D01*
X92819954Y-84504141D01*
X92980858Y-84665045D01*
X93005527Y-84682318D01*
X93167266Y-84795568D01*
X93373504Y-84891739D01*
X93373509Y-84891740D01*
X93373511Y-84891741D01*
X93424607Y-84905432D01*
X93593308Y-84950635D01*
X93755230Y-84964801D01*
X93819998Y-84970468D01*
X93820000Y-84970468D01*
X93820002Y-84970468D01*
X93876673Y-84965509D01*
X94046692Y-84950635D01*
X94266496Y-84891739D01*
X94472734Y-84795568D01*
X94659139Y-84665047D01*
X94820047Y-84504139D01*
X94950568Y-84317734D01*
X95046739Y-84111496D01*
X95105635Y-83891692D01*
X95122634Y-83697384D01*
X95125468Y-83665001D01*
X95125468Y-83664998D01*
X102674532Y-83664998D01*
X102674532Y-83665001D01*
X102694364Y-83891686D01*
X102694366Y-83891697D01*
X102753258Y-84111488D01*
X102753261Y-84111497D01*
X102849431Y-84317732D01*
X102849432Y-84317734D01*
X102979954Y-84504141D01*
X103140858Y-84665045D01*
X103165527Y-84682318D01*
X103327266Y-84795568D01*
X103533504Y-84891739D01*
X103533509Y-84891740D01*
X103533511Y-84891741D01*
X103584607Y-84905432D01*
X103753308Y-84950635D01*
X103915230Y-84964801D01*
X103979998Y-84970468D01*
X103980000Y-84970468D01*
X103980002Y-84970468D01*
X104036673Y-84965509D01*
X104206692Y-84950635D01*
X104426496Y-84891739D01*
X104632734Y-84795568D01*
X104819139Y-84665047D01*
X104980047Y-84504139D01*
X105110568Y-84317734D01*
X105206739Y-84111496D01*
X105265635Y-83891692D01*
X105282634Y-83697384D01*
X105285468Y-83665001D01*
X105285468Y-83664998D01*
X105279801Y-83600230D01*
X105265635Y-83438308D01*
X105206739Y-83218504D01*
X105110568Y-83012266D01*
X104980047Y-82825861D01*
X104980045Y-82825858D01*
X104819141Y-82664954D01*
X104632734Y-82534432D01*
X104632732Y-82534431D01*
X104426497Y-82438261D01*
X104426488Y-82438258D01*
X104206697Y-82379366D01*
X104206693Y-82379365D01*
X104206692Y-82379365D01*
X104206691Y-82379364D01*
X104206686Y-82379364D01*
X103980002Y-82359532D01*
X103979998Y-82359532D01*
X103753313Y-82379364D01*
X103753302Y-82379366D01*
X103533511Y-82438258D01*
X103533502Y-82438261D01*
X103327267Y-82534431D01*
X103327265Y-82534432D01*
X103140858Y-82664954D01*
X102979954Y-82825858D01*
X102849432Y-83012265D01*
X102849431Y-83012267D01*
X102753261Y-83218502D01*
X102753258Y-83218511D01*
X102694366Y-83438302D01*
X102694364Y-83438313D01*
X102674532Y-83664998D01*
X95125468Y-83664998D01*
X95119801Y-83600230D01*
X95105635Y-83438308D01*
X95046739Y-83218504D01*
X94950568Y-83012266D01*
X94820047Y-82825861D01*
X94659139Y-82664953D01*
X94627374Y-82642710D01*
X94583751Y-82588135D01*
X94574500Y-82541138D01*
X94574500Y-76628886D01*
X94594185Y-76561847D01*
X94610814Y-76541209D01*
X95284868Y-75867155D01*
X97250000Y-75867155D01*
X97250000Y-76415000D01*
X98184314Y-76415000D01*
X98179920Y-76419394D01*
X98127259Y-76510606D01*
X98100000Y-76612339D01*
X98100000Y-76717661D01*
X98127259Y-76819394D01*
X98179920Y-76910606D01*
X98184314Y-76915000D01*
X97250000Y-76915000D01*
X97250000Y-77462844D01*
X97256401Y-77522372D01*
X97256403Y-77522379D01*
X97306645Y-77657086D01*
X97306649Y-77657093D01*
X97392809Y-77772187D01*
X97392812Y-77772190D01*
X97507906Y-77858350D01*
X97507913Y-77858354D01*
X97642620Y-77908596D01*
X97642627Y-77908598D01*
X97702155Y-77914999D01*
X97702172Y-77915000D01*
X98250000Y-77915000D01*
X98250000Y-76980686D01*
X98254394Y-76985080D01*
X98345606Y-77037741D01*
X98447339Y-77065000D01*
X98552661Y-77065000D01*
X98654394Y-77037741D01*
X98745606Y-76985080D01*
X98750000Y-76980686D01*
X98750000Y-77915000D01*
X99297828Y-77915000D01*
X99297844Y-77914999D01*
X99357372Y-77908598D01*
X99357379Y-77908596D01*
X99492086Y-77858354D01*
X99492093Y-77858350D01*
X99607187Y-77772190D01*
X99607190Y-77772187D01*
X99693350Y-77657093D01*
X99693354Y-77657086D01*
X99743596Y-77522379D01*
X99743598Y-77522372D01*
X99749999Y-77462844D01*
X99750000Y-77462827D01*
X99750000Y-76915000D01*
X98815686Y-76915000D01*
X98820080Y-76910606D01*
X98872741Y-76819394D01*
X98900000Y-76717661D01*
X98900000Y-76612339D01*
X98872741Y-76510606D01*
X98820080Y-76419394D01*
X98815686Y-76415000D01*
X99750000Y-76415000D01*
X99750000Y-75867172D01*
X99749999Y-75867155D01*
X99743598Y-75807627D01*
X99743596Y-75807620D01*
X99693354Y-75672913D01*
X99693350Y-75672906D01*
X99607190Y-75557812D01*
X99607187Y-75557809D01*
X99492093Y-75471649D01*
X99492086Y-75471645D01*
X99357379Y-75421403D01*
X99357372Y-75421401D01*
X99297844Y-75415000D01*
X98750000Y-75415000D01*
X98750000Y-76349314D01*
X98745606Y-76344920D01*
X98654394Y-76292259D01*
X98552661Y-76265000D01*
X98447339Y-76265000D01*
X98345606Y-76292259D01*
X98254394Y-76344920D01*
X98250000Y-76349314D01*
X98250000Y-75415000D01*
X97702155Y-75415000D01*
X97642627Y-75421401D01*
X97642620Y-75421403D01*
X97507913Y-75471645D01*
X97507906Y-75471649D01*
X97392812Y-75557809D01*
X97392809Y-75557812D01*
X97306649Y-75672906D01*
X97306645Y-75672913D01*
X97256403Y-75807620D01*
X97256401Y-75807627D01*
X97250000Y-75867155D01*
X95284868Y-75867155D01*
X95746007Y-75406016D01*
X95807328Y-75372533D01*
X95844490Y-75370171D01*
X95943530Y-75378836D01*
X95959999Y-75380277D01*
X95960000Y-75380277D01*
X95960002Y-75380277D01*
X95988254Y-75377805D01*
X96177977Y-75361207D01*
X96389330Y-75304575D01*
X96587639Y-75212102D01*
X96766877Y-75086598D01*
X96921598Y-74931877D01*
X97047102Y-74752639D01*
X97087970Y-74664997D01*
X106295034Y-74664997D01*
X106295034Y-74665002D01*
X106314858Y-74891599D01*
X106314860Y-74891610D01*
X106373730Y-75111317D01*
X106373735Y-75111331D01*
X106469863Y-75317478D01*
X106520974Y-75390472D01*
X107200000Y-74711446D01*
X107200000Y-74717661D01*
X107227259Y-74819394D01*
X107279920Y-74910606D01*
X107354394Y-74985080D01*
X107445606Y-75037741D01*
X107547339Y-75065000D01*
X107553553Y-75065000D01*
X106874526Y-75744025D01*
X106947513Y-75795132D01*
X106947521Y-75795136D01*
X107153668Y-75891264D01*
X107153682Y-75891269D01*
X107373389Y-75950139D01*
X107373400Y-75950141D01*
X107599998Y-75969966D01*
X107600002Y-75969966D01*
X107826599Y-75950141D01*
X107826610Y-75950139D01*
X108046317Y-75891269D01*
X108046331Y-75891264D01*
X108252478Y-75795136D01*
X108325471Y-75744024D01*
X107646447Y-75065000D01*
X107652661Y-75065000D01*
X107754394Y-75037741D01*
X107845606Y-74985080D01*
X107920080Y-74910606D01*
X107972741Y-74819394D01*
X108000000Y-74717661D01*
X108000000Y-74711447D01*
X108679024Y-75390471D01*
X108730136Y-75317478D01*
X108826264Y-75111331D01*
X108826269Y-75111317D01*
X108885139Y-74891610D01*
X108885141Y-74891599D01*
X108904966Y-74665002D01*
X108904966Y-74664997D01*
X108885141Y-74438400D01*
X108885139Y-74438389D01*
X108826269Y-74218682D01*
X108826264Y-74218668D01*
X108730136Y-74012521D01*
X108730132Y-74012513D01*
X108679025Y-73939526D01*
X108000000Y-74618551D01*
X108000000Y-74612339D01*
X107972741Y-74510606D01*
X107920080Y-74419394D01*
X107845606Y-74344920D01*
X107754394Y-74292259D01*
X107652661Y-74265000D01*
X107646448Y-74265000D01*
X108325472Y-73585974D01*
X108252478Y-73534863D01*
X108046331Y-73438735D01*
X108046317Y-73438730D01*
X107826610Y-73379860D01*
X107826599Y-73379858D01*
X107600002Y-73360034D01*
X107599998Y-73360034D01*
X107373400Y-73379858D01*
X107373389Y-73379860D01*
X107153682Y-73438730D01*
X107153673Y-73438734D01*
X106947516Y-73534866D01*
X106947512Y-73534868D01*
X106874526Y-73585973D01*
X106874526Y-73585974D01*
X107553553Y-74265000D01*
X107547339Y-74265000D01*
X107445606Y-74292259D01*
X107354394Y-74344920D01*
X107279920Y-74419394D01*
X107227259Y-74510606D01*
X107200000Y-74612339D01*
X107200000Y-74618552D01*
X106520974Y-73939526D01*
X106520973Y-73939526D01*
X106469868Y-74012512D01*
X106469866Y-74012516D01*
X106373734Y-74218673D01*
X106373730Y-74218682D01*
X106314860Y-74438389D01*
X106314858Y-74438400D01*
X106295034Y-74664997D01*
X97087970Y-74664997D01*
X97139575Y-74554330D01*
X97196207Y-74342977D01*
X97215277Y-74125000D01*
X97211828Y-74085582D01*
X97196207Y-73907022D01*
X97196206Y-73907020D01*
X97192864Y-73894549D01*
X97139575Y-73695670D01*
X97047102Y-73497362D01*
X97047100Y-73497359D01*
X97047099Y-73497357D01*
X96921599Y-73318124D01*
X96874081Y-73270606D01*
X96766877Y-73163402D01*
X96587639Y-73037898D01*
X96587640Y-73037898D01*
X96587638Y-73037897D01*
X96488484Y-72991661D01*
X96389330Y-72945425D01*
X96389326Y-72945424D01*
X96389322Y-72945422D01*
X96177977Y-72888793D01*
X95960002Y-72869723D01*
X95959998Y-72869723D01*
X95814682Y-72882436D01*
X95742023Y-72888793D01*
X95742020Y-72888793D01*
X95530677Y-72945422D01*
X95530668Y-72945426D01*
X95332361Y-73037898D01*
X95332357Y-73037900D01*
X95153121Y-73163402D01*
X94998402Y-73318121D01*
X94872900Y-73497357D01*
X94872898Y-73497361D01*
X94780426Y-73695668D01*
X94780422Y-73695677D01*
X94723793Y-73907020D01*
X94723793Y-73907022D01*
X94704723Y-74124997D01*
X94704723Y-74125003D01*
X94714827Y-74240506D01*
X94701060Y-74309006D01*
X94678980Y-74338993D01*
X93233942Y-75784031D01*
X93151372Y-75907607D01*
X93151366Y-75907618D01*
X93094496Y-76044916D01*
X93094493Y-76044926D01*
X93065499Y-76190685D01*
X93065499Y-76345425D01*
X93065500Y-76345446D01*
X93065500Y-82541138D01*
X93045815Y-82608177D01*
X93012626Y-82642710D01*
X92999934Y-82651598D01*
X92980861Y-82664953D01*
X92819951Y-82825862D01*
X92689432Y-83012265D01*
X92689431Y-83012267D01*
X92593261Y-83218502D01*
X92593258Y-83218511D01*
X92534366Y-83438302D01*
X92534364Y-83438313D01*
X92514532Y-83664998D01*
X84600500Y-83664998D01*
X84600499Y-83392178D01*
X84620183Y-83325140D01*
X84672987Y-83279385D01*
X84676988Y-83277643D01*
X84726955Y-83256946D01*
X84807389Y-83223630D01*
X84930966Y-83141059D01*
X85880963Y-82191060D01*
X85880966Y-82191059D01*
X85986059Y-82085966D01*
X86066583Y-81965452D01*
X86068630Y-81962389D01*
X86113697Y-81853587D01*
X86125503Y-81825084D01*
X86125505Y-81825080D01*
X86140915Y-81747611D01*
X86142623Y-81739025D01*
X86142623Y-81739023D01*
X86154501Y-81679313D01*
X86154501Y-81525578D01*
X86154500Y-81525552D01*
X86154500Y-80199196D01*
X86174185Y-80132157D01*
X86213707Y-80093470D01*
X86343659Y-80013836D01*
X86535224Y-79850224D01*
X86698836Y-79658659D01*
X86830466Y-79443859D01*
X86926873Y-79211111D01*
X86985683Y-78966148D01*
X87005449Y-78715000D01*
X86985683Y-78463852D01*
X86926873Y-78218889D01*
X86884937Y-78117646D01*
X86830466Y-77986140D01*
X86698839Y-77771346D01*
X86698838Y-77771343D01*
X86615907Y-77674244D01*
X86535224Y-77579776D01*
X86398294Y-77462827D01*
X86343656Y-77416161D01*
X86343653Y-77416160D01*
X86128859Y-77284533D01*
X85896110Y-77188126D01*
X85651151Y-77129317D01*
X85400000Y-77109551D01*
X85148848Y-77129317D01*
X84903889Y-77188126D01*
X84671140Y-77284533D01*
X84456346Y-77416160D01*
X84456343Y-77416161D01*
X84264776Y-77579776D01*
X84101161Y-77771343D01*
X84101160Y-77771346D01*
X83969533Y-77986140D01*
X83873126Y-78218889D01*
X83814317Y-78463848D01*
X83794551Y-78715000D01*
X83814317Y-78966151D01*
X83873126Y-79211110D01*
X83969533Y-79443859D01*
X84101160Y-79658653D01*
X84101161Y-79658656D01*
X84101164Y-79658659D01*
X84264776Y-79850224D01*
X84456341Y-80013836D01*
X84586292Y-80093470D01*
X84633165Y-80145280D01*
X84645500Y-80199196D01*
X84645500Y-80990434D01*
X84625815Y-81057473D01*
X84573011Y-81103228D01*
X84503853Y-81113172D01*
X84447189Y-81089701D01*
X84441681Y-81085578D01*
X84394408Y-81050189D01*
X84342330Y-81011203D01*
X84342328Y-81011202D01*
X84207482Y-80960908D01*
X84207483Y-80960908D01*
X84147883Y-80954501D01*
X84147881Y-80954500D01*
X84147873Y-80954500D01*
X84147864Y-80954500D01*
X81852129Y-80954500D01*
X81852123Y-80954501D01*
X81792516Y-80960908D01*
X81657671Y-81011202D01*
X81657664Y-81011206D01*
X81542455Y-81097452D01*
X81542452Y-81097455D01*
X81456206Y-81212664D01*
X81456202Y-81212671D01*
X81405908Y-81347517D01*
X81399501Y-81407116D01*
X81399500Y-81407135D01*
X73296900Y-81407135D01*
X73296900Y-74140124D01*
X73316585Y-74073085D01*
X73349775Y-74038550D01*
X73456919Y-73963529D01*
X73607929Y-73812519D01*
X73730421Y-73637581D01*
X73820676Y-73444030D01*
X73875949Y-73237747D01*
X73894562Y-73025000D01*
X73875949Y-72812253D01*
X73830832Y-72643872D01*
X73820678Y-72605977D01*
X73820677Y-72605976D01*
X73820676Y-72605970D01*
X73730421Y-72412419D01*
X73607929Y-72237481D01*
X73607928Y-72237480D01*
X73607927Y-72237478D01*
X73456921Y-72086472D01*
X73281978Y-71963977D01*
X73281979Y-71963977D01*
X73152947Y-71903809D01*
X73088430Y-71873724D01*
X73088426Y-71873723D01*
X73088422Y-71873721D01*
X72882152Y-71818452D01*
X72882148Y-71818451D01*
X72882147Y-71818451D01*
X72882146Y-71818450D01*
X72882141Y-71818450D01*
X72669402Y-71799838D01*
X72669398Y-71799838D01*
X72456658Y-71818450D01*
X72456647Y-71818452D01*
X72250377Y-71873721D01*
X72250368Y-71873725D01*
X72056821Y-71963977D01*
X71881878Y-72086472D01*
X71730872Y-72237478D01*
X71608377Y-72412421D01*
X71518125Y-72605968D01*
X71518121Y-72605977D01*
X71462852Y-72812247D01*
X71462850Y-72812258D01*
X71444238Y-73024998D01*
X71444238Y-73025001D01*
X71462850Y-73237741D01*
X71462852Y-73237752D01*
X71518121Y-73444022D01*
X71518123Y-73444026D01*
X71518124Y-73444030D01*
X71560480Y-73534863D01*
X71608377Y-73637578D01*
X71730871Y-73812520D01*
X71751579Y-73833227D01*
X71785066Y-73894549D01*
X71787900Y-73920910D01*
X71787900Y-81386500D01*
X71768215Y-81453539D01*
X71715411Y-81499294D01*
X71663900Y-81510500D01*
X63203862Y-81510500D01*
X63136823Y-81490815D01*
X63102287Y-81457623D01*
X63080045Y-81425858D01*
X62919141Y-81264954D01*
X62732734Y-81134432D01*
X62732732Y-81134431D01*
X62526497Y-81038261D01*
X62526488Y-81038258D01*
X62306697Y-80979366D01*
X62306693Y-80979365D01*
X62306692Y-80979365D01*
X62306691Y-80979364D01*
X62306686Y-80979364D01*
X62080002Y-80959532D01*
X62079998Y-80959532D01*
X61853313Y-80979364D01*
X61853302Y-80979366D01*
X61633511Y-81038258D01*
X61633502Y-81038261D01*
X61427267Y-81134431D01*
X61427265Y-81134432D01*
X61240858Y-81264954D01*
X61079954Y-81425858D01*
X60949432Y-81612265D01*
X60949431Y-81612267D01*
X60853261Y-81818502D01*
X60853258Y-81818511D01*
X60794366Y-82038302D01*
X60794364Y-82038313D01*
X60774532Y-82264998D01*
X53225468Y-82264998D01*
X53205635Y-82038308D01*
X53157590Y-81859000D01*
X53146741Y-81818511D01*
X53146738Y-81818502D01*
X53050568Y-81612266D01*
X52920047Y-81425861D01*
X52759139Y-81264953D01*
X52688176Y-81215264D01*
X52644551Y-81160686D01*
X52635300Y-81113689D01*
X52635300Y-75818661D01*
X52654985Y-75751622D01*
X52688175Y-75717087D01*
X52719939Y-75694847D01*
X52880847Y-75533939D01*
X53011368Y-75347534D01*
X53107539Y-75141296D01*
X53166435Y-74921492D01*
X53186268Y-74694800D01*
X53185990Y-74691628D01*
X53179054Y-74612339D01*
X53166435Y-74468108D01*
X53107539Y-74248304D01*
X53011368Y-74042066D01*
X52880847Y-73855661D01*
X52880846Y-73855660D01*
X52880845Y-73855658D01*
X52719941Y-73694754D01*
X52533534Y-73564232D01*
X52533532Y-73564231D01*
X52327297Y-73468061D01*
X52327288Y-73468058D01*
X52107497Y-73409166D01*
X52107493Y-73409165D01*
X52107492Y-73409165D01*
X52107491Y-73409164D01*
X52107486Y-73409164D01*
X51880802Y-73389332D01*
X51880798Y-73389332D01*
X51654113Y-73409164D01*
X51654102Y-73409166D01*
X51434311Y-73468058D01*
X51434302Y-73468061D01*
X51228067Y-73564231D01*
X51228062Y-73564234D01*
X51215235Y-73573215D01*
X51149027Y-73595538D01*
X51081261Y-73578522D01*
X51044852Y-73545945D01*
X51038346Y-73537254D01*
X51038345Y-73537253D01*
X51038344Y-73537252D01*
X50923135Y-73451006D01*
X50923128Y-73451002D01*
X50788282Y-73400708D01*
X50788283Y-73400708D01*
X50728683Y-73394301D01*
X50728681Y-73394300D01*
X50728673Y-73394300D01*
X50728664Y-73394300D01*
X49032929Y-73394300D01*
X49032923Y-73394301D01*
X48973316Y-73400708D01*
X48838471Y-73451002D01*
X48838464Y-73451006D01*
X48723255Y-73537252D01*
X48723252Y-73537255D01*
X48637006Y-73652464D01*
X48637002Y-73652471D01*
X48586708Y-73787317D01*
X48580301Y-73846916D01*
X48580300Y-73846935D01*
X39116000Y-73846935D01*
X39116000Y-73024997D01*
X66364740Y-73024997D01*
X66364740Y-73025002D01*
X66383344Y-73237654D01*
X66383345Y-73237662D01*
X66438594Y-73443853D01*
X66438597Y-73443859D01*
X66528813Y-73637329D01*
X66567815Y-73693030D01*
X67189400Y-73071445D01*
X67189400Y-73077661D01*
X67216659Y-73179394D01*
X67269320Y-73270606D01*
X67343794Y-73345080D01*
X67435006Y-73397741D01*
X67536739Y-73425000D01*
X67542953Y-73425000D01*
X66921368Y-74046584D01*
X66977063Y-74085582D01*
X66977069Y-74085586D01*
X67170540Y-74175802D01*
X67170546Y-74175805D01*
X67376737Y-74231054D01*
X67376745Y-74231055D01*
X67589398Y-74249660D01*
X67589402Y-74249660D01*
X67802054Y-74231055D01*
X67802062Y-74231054D01*
X68008253Y-74175805D01*
X68008264Y-74175801D01*
X68201725Y-74085589D01*
X68257430Y-74046583D01*
X67635848Y-73425000D01*
X67642061Y-73425000D01*
X67743794Y-73397741D01*
X67835006Y-73345080D01*
X67909480Y-73270606D01*
X67962141Y-73179394D01*
X67989400Y-73077661D01*
X67989400Y-73071446D01*
X68610983Y-73693029D01*
X68649989Y-73637325D01*
X68740201Y-73443864D01*
X68740205Y-73443853D01*
X68795454Y-73237662D01*
X68795455Y-73237654D01*
X68814060Y-73025002D01*
X68814060Y-73024997D01*
X68795455Y-72812345D01*
X68795454Y-72812337D01*
X68740205Y-72606146D01*
X68740202Y-72606140D01*
X68649986Y-72412669D01*
X68649982Y-72412663D01*
X68610984Y-72356968D01*
X67989400Y-72978552D01*
X67989400Y-72972339D01*
X67962141Y-72870606D01*
X67909480Y-72779394D01*
X67835006Y-72704920D01*
X67743794Y-72652259D01*
X67642061Y-72625000D01*
X67635847Y-72625000D01*
X68257430Y-72003415D01*
X68201729Y-71964413D01*
X68008259Y-71874197D01*
X68008253Y-71874194D01*
X67802062Y-71818945D01*
X67802054Y-71818944D01*
X67589402Y-71800340D01*
X67589398Y-71800340D01*
X67376745Y-71818944D01*
X67376737Y-71818945D01*
X67170546Y-71874194D01*
X67170540Y-71874197D01*
X66977071Y-71964412D01*
X66977069Y-71964413D01*
X66921369Y-72003415D01*
X66921368Y-72003415D01*
X67542954Y-72625000D01*
X67536739Y-72625000D01*
X67435006Y-72652259D01*
X67343794Y-72704920D01*
X67269320Y-72779394D01*
X67216659Y-72870606D01*
X67189400Y-72972339D01*
X67189400Y-72978553D01*
X66567815Y-72356968D01*
X66567815Y-72356969D01*
X66528813Y-72412669D01*
X66528812Y-72412671D01*
X66438597Y-72606140D01*
X66438594Y-72606146D01*
X66383345Y-72812337D01*
X66383344Y-72812345D01*
X66364740Y-73024997D01*
X39116000Y-73024997D01*
X39116000Y-69047828D01*
X39135685Y-68980789D01*
X39188489Y-68935034D01*
X39257647Y-68925090D01*
X39321203Y-68954115D01*
X39356751Y-69006054D01*
X39480016Y-69350559D01*
X39480023Y-69350575D01*
X39648062Y-69705864D01*
X39850109Y-70042958D01*
X40084228Y-70358632D01*
X40180068Y-70464376D01*
X40180069Y-70464376D01*
X41778381Y-68866064D01*
X41861457Y-68974331D01*
X42023669Y-69136543D01*
X42131934Y-69219617D01*
X40533622Y-70817929D01*
X40533622Y-70817930D01*
X40639367Y-70913771D01*
X40955041Y-71147890D01*
X41292135Y-71349937D01*
X41647424Y-71517976D01*
X41647440Y-71517983D01*
X42017450Y-71650374D01*
X42398691Y-71745870D01*
X42787449Y-71803538D01*
X43180000Y-71822823D01*
X43572550Y-71803538D01*
X43961308Y-71745870D01*
X44342549Y-71650374D01*
X44712559Y-71517983D01*
X44712575Y-71517976D01*
X45067864Y-71349937D01*
X45404958Y-71147890D01*
X45720632Y-70913770D01*
X45826376Y-70817929D01*
X45493444Y-70484997D01*
X68904740Y-70484997D01*
X68904740Y-70485002D01*
X68923344Y-70697654D01*
X68923345Y-70697662D01*
X68978594Y-70903853D01*
X68978597Y-70903859D01*
X69068813Y-71097329D01*
X69107815Y-71153030D01*
X69729400Y-70531445D01*
X69729400Y-70537661D01*
X69756659Y-70639394D01*
X69809320Y-70730606D01*
X69883794Y-70805080D01*
X69975006Y-70857741D01*
X70076739Y-70885000D01*
X70082953Y-70885000D01*
X69461368Y-71506584D01*
X69517063Y-71545582D01*
X69517069Y-71545586D01*
X69710540Y-71635802D01*
X69710546Y-71635805D01*
X69916737Y-71691054D01*
X69916745Y-71691055D01*
X70129398Y-71709660D01*
X70129402Y-71709660D01*
X70342054Y-71691055D01*
X70342062Y-71691054D01*
X70548253Y-71635805D01*
X70548264Y-71635801D01*
X70741725Y-71545589D01*
X70797430Y-71506583D01*
X70175848Y-70885000D01*
X70182061Y-70885000D01*
X70283794Y-70857741D01*
X70375006Y-70805080D01*
X70449480Y-70730606D01*
X70502141Y-70639394D01*
X70529400Y-70537661D01*
X70529400Y-70531446D01*
X71150983Y-71153029D01*
X71189989Y-71097325D01*
X71280201Y-70903864D01*
X71280205Y-70903853D01*
X71335454Y-70697662D01*
X71335455Y-70697654D01*
X71354060Y-70485002D01*
X71354060Y-70484997D01*
X71335455Y-70272345D01*
X71335454Y-70272337D01*
X71280205Y-70066146D01*
X71280202Y-70066140D01*
X71189986Y-69872669D01*
X71189982Y-69872663D01*
X71150984Y-69816968D01*
X70529400Y-70438552D01*
X70529400Y-70432339D01*
X70502141Y-70330606D01*
X70449480Y-70239394D01*
X70375006Y-70164920D01*
X70283794Y-70112259D01*
X70182061Y-70085000D01*
X70175847Y-70085000D01*
X70797430Y-69463415D01*
X70741729Y-69424413D01*
X70548259Y-69334197D01*
X70548253Y-69334194D01*
X70342062Y-69278945D01*
X70342054Y-69278944D01*
X70129402Y-69260340D01*
X70129398Y-69260340D01*
X69916745Y-69278944D01*
X69916737Y-69278945D01*
X69710546Y-69334194D01*
X69710540Y-69334197D01*
X69517071Y-69424412D01*
X69517069Y-69424413D01*
X69461369Y-69463415D01*
X69461368Y-69463415D01*
X70082954Y-70085000D01*
X70076739Y-70085000D01*
X69975006Y-70112259D01*
X69883794Y-70164920D01*
X69809320Y-70239394D01*
X69756659Y-70330606D01*
X69729400Y-70432339D01*
X69729400Y-70438553D01*
X69107815Y-69816968D01*
X69107815Y-69816969D01*
X69068813Y-69872669D01*
X69068812Y-69872671D01*
X68978597Y-70066140D01*
X68978594Y-70066146D01*
X68923345Y-70272337D01*
X68923344Y-70272345D01*
X68904740Y-70484997D01*
X45493444Y-70484997D01*
X44228065Y-69219618D01*
X44336331Y-69136543D01*
X44498543Y-68974331D01*
X44581618Y-68866065D01*
X46179929Y-70464376D01*
X46275770Y-70358632D01*
X46509890Y-70042958D01*
X46711937Y-69705864D01*
X46879976Y-69350575D01*
X46879983Y-69350559D01*
X47012374Y-68980549D01*
X47107870Y-68599308D01*
X47165538Y-68210550D01*
X47184823Y-67818000D01*
X47165538Y-67425449D01*
X47162821Y-67407135D01*
X83799500Y-67407135D01*
X83799500Y-69702870D01*
X83799501Y-69702876D01*
X83805908Y-69762483D01*
X83856202Y-69897328D01*
X83856206Y-69897335D01*
X83942452Y-70012544D01*
X83942455Y-70012547D01*
X84057664Y-70098793D01*
X84057671Y-70098797D01*
X84192517Y-70149091D01*
X84192516Y-70149091D01*
X84199444Y-70149835D01*
X84252127Y-70155500D01*
X86547872Y-70155499D01*
X86607483Y-70149091D01*
X86742331Y-70098796D01*
X86857546Y-70012546D01*
X86943796Y-69897331D01*
X86994091Y-69762483D01*
X87000500Y-69702873D01*
X87000499Y-68072885D01*
X87020184Y-68005847D01*
X87036813Y-67985210D01*
X87302205Y-67719819D01*
X87363528Y-67686334D01*
X87389886Y-67683500D01*
X93480113Y-67683500D01*
X93547152Y-67703185D01*
X93567794Y-67719819D01*
X97218980Y-71371004D01*
X97252465Y-71432327D01*
X97254827Y-71469491D01*
X97244723Y-71584997D01*
X97244723Y-71585002D01*
X97249167Y-71635801D01*
X97263518Y-71799838D01*
X97263793Y-71802975D01*
X97263793Y-71802979D01*
X97320422Y-72014322D01*
X97320424Y-72014326D01*
X97320425Y-72014330D01*
X97366661Y-72113484D01*
X97412897Y-72212638D01*
X97430293Y-72237482D01*
X97538402Y-72391877D01*
X97693123Y-72546598D01*
X97872361Y-72672102D01*
X98070670Y-72764575D01*
X98282023Y-72821207D01*
X98464926Y-72837208D01*
X98499998Y-72840277D01*
X98500000Y-72840277D01*
X98500002Y-72840277D01*
X98528254Y-72837805D01*
X98717977Y-72821207D01*
X98929330Y-72764575D01*
X99127639Y-72672102D01*
X99306877Y-72546598D01*
X99461598Y-72391877D01*
X99587102Y-72212639D01*
X99679575Y-72014330D01*
X99736207Y-71802977D01*
X99755277Y-71585000D01*
X99745171Y-71469492D01*
X99758937Y-71400994D01*
X99781015Y-71371008D01*
X100696206Y-70455819D01*
X100757529Y-70422334D01*
X100783887Y-70419500D01*
X106476138Y-70419500D01*
X106543177Y-70439185D01*
X106577713Y-70472377D01*
X106599954Y-70504141D01*
X106760858Y-70665045D01*
X106760861Y-70665047D01*
X106947266Y-70795568D01*
X107153504Y-70891739D01*
X107373308Y-70950635D01*
X107535230Y-70964801D01*
X107599998Y-70970468D01*
X107600000Y-70970468D01*
X107600001Y-70970468D01*
X107618637Y-70968837D01*
X107761659Y-70956324D01*
X107830157Y-70970090D01*
X107860146Y-70992171D01*
X109809181Y-72941205D01*
X109842666Y-73002528D01*
X109845500Y-73028886D01*
X109845500Y-81085552D01*
X109845499Y-81085578D01*
X109845499Y-81239314D01*
X109866747Y-81346128D01*
X109866747Y-81346130D01*
X109874493Y-81385073D01*
X109874494Y-81385077D01*
X109874495Y-81385080D01*
X109883623Y-81407116D01*
X109890973Y-81424861D01*
X109931368Y-81522385D01*
X109931372Y-81522392D01*
X110013942Y-81645968D01*
X110013943Y-81645969D01*
X111985181Y-83617205D01*
X112018666Y-83678528D01*
X112021500Y-83704886D01*
X112021500Y-86940176D01*
X112001815Y-87007215D01*
X111972823Y-87037384D01*
X111973273Y-87037920D01*
X111969125Y-87041400D01*
X111814400Y-87196124D01*
X111688900Y-87375357D01*
X111688898Y-87375361D01*
X111596426Y-87573668D01*
X111596422Y-87573677D01*
X111539793Y-87785020D01*
X111539793Y-87785023D01*
X111537963Y-87805941D01*
X111520723Y-88002997D01*
X111520723Y-88003002D01*
X111539793Y-88220975D01*
X111539793Y-88220979D01*
X111596422Y-88432322D01*
X111596424Y-88432326D01*
X111596425Y-88432330D01*
X111626485Y-88496794D01*
X111688897Y-88630638D01*
X111688898Y-88630639D01*
X111814402Y-88809877D01*
X111969123Y-88964598D01*
X112148361Y-89090102D01*
X112346670Y-89182575D01*
X112346676Y-89182576D01*
X112346677Y-89182577D01*
X112377364Y-89190799D01*
X112558023Y-89239207D01*
X112740926Y-89255208D01*
X112775998Y-89258277D01*
X112776000Y-89258277D01*
X112776002Y-89258277D01*
X112804254Y-89255805D01*
X112993977Y-89239207D01*
X113205330Y-89182575D01*
X113403639Y-89090102D01*
X113582877Y-88964598D01*
X113737598Y-88809877D01*
X113863102Y-88630639D01*
X113955575Y-88432330D01*
X114012207Y-88220977D01*
X114031277Y-88003000D01*
X114012207Y-87785023D01*
X113955575Y-87573670D01*
X113863102Y-87375362D01*
X113863100Y-87375359D01*
X113863099Y-87375357D01*
X113737599Y-87196124D01*
X113737598Y-87196123D01*
X113582877Y-87041402D01*
X113582873Y-87041399D01*
X113578727Y-87037920D01*
X113579537Y-87036954D01*
X113539744Y-86987155D01*
X113530500Y-86940176D01*
X113530500Y-84665135D01*
X114065500Y-84665135D01*
X114065500Y-86260870D01*
X114065501Y-86260876D01*
X114071908Y-86320483D01*
X114122202Y-86455328D01*
X114122206Y-86455335D01*
X114208452Y-86570544D01*
X114208455Y-86570547D01*
X114323664Y-86656793D01*
X114323671Y-86656797D01*
X114458517Y-86707091D01*
X114458516Y-86707091D01*
X114465444Y-86707835D01*
X114518127Y-86713500D01*
X116113872Y-86713499D01*
X116173483Y-86707091D01*
X116308331Y-86656796D01*
X116423546Y-86570546D01*
X116509796Y-86455331D01*
X116560091Y-86320483D01*
X116566500Y-86260873D01*
X116566499Y-84665128D01*
X116560091Y-84605517D01*
X116542135Y-84557375D01*
X116509797Y-84470671D01*
X116509793Y-84470664D01*
X116423547Y-84355455D01*
X116423544Y-84355452D01*
X116308335Y-84269206D01*
X116308328Y-84269202D01*
X116173479Y-84218907D01*
X116165983Y-84217136D01*
X116105267Y-84182562D01*
X116072883Y-84120651D01*
X116070500Y-84096460D01*
X116070500Y-78044998D01*
X120294532Y-78044998D01*
X120294532Y-78045001D01*
X120314364Y-78271686D01*
X120314366Y-78271697D01*
X120373258Y-78491488D01*
X120373261Y-78491497D01*
X120469431Y-78697732D01*
X120469432Y-78697734D01*
X120599954Y-78884141D01*
X120760858Y-79045045D01*
X120760861Y-79045047D01*
X120947266Y-79175568D01*
X121153504Y-79271739D01*
X121373308Y-79330635D01*
X121535230Y-79344801D01*
X121599998Y-79350468D01*
X121600000Y-79350468D01*
X121600002Y-79350468D01*
X121656673Y-79345509D01*
X121826692Y-79330635D01*
X122046496Y-79271739D01*
X122252734Y-79175568D01*
X122439139Y-79045047D01*
X122600047Y-78884139D01*
X122730568Y-78697734D01*
X122826739Y-78491496D01*
X122885635Y-78271692D01*
X122905468Y-78045000D01*
X122900318Y-77986141D01*
X122892061Y-77891755D01*
X122885635Y-77818308D01*
X122826739Y-77598504D01*
X122730568Y-77392266D01*
X122600047Y-77205861D01*
X122600045Y-77205858D01*
X122439141Y-77044954D01*
X122252734Y-76914432D01*
X122252732Y-76914431D01*
X122046497Y-76818261D01*
X122046488Y-76818258D01*
X121826697Y-76759366D01*
X121826693Y-76759365D01*
X121826692Y-76759365D01*
X121826691Y-76759364D01*
X121826686Y-76759364D01*
X121600002Y-76739532D01*
X121599998Y-76739532D01*
X121373313Y-76759364D01*
X121373302Y-76759366D01*
X121153511Y-76818258D01*
X121153502Y-76818261D01*
X120947267Y-76914431D01*
X120947265Y-76914432D01*
X120760858Y-77044954D01*
X120599954Y-77205858D01*
X120469432Y-77392265D01*
X120469431Y-77392267D01*
X120373261Y-77598502D01*
X120373258Y-77598511D01*
X120314366Y-77818302D01*
X120314364Y-77818313D01*
X120294532Y-78044998D01*
X116070500Y-78044998D01*
X116070500Y-74532886D01*
X116090185Y-74465847D01*
X116106814Y-74445210D01*
X121339854Y-69212169D01*
X121401175Y-69178686D01*
X121438337Y-69176324D01*
X121578186Y-69188559D01*
X121599999Y-69190468D01*
X121600000Y-69190468D01*
X121600002Y-69190468D01*
X121656673Y-69185509D01*
X121826692Y-69170635D01*
X122046496Y-69111739D01*
X122252734Y-69015568D01*
X122439139Y-68885047D01*
X122600047Y-68724139D01*
X122730568Y-68537734D01*
X122826739Y-68331496D01*
X122885635Y-68111692D01*
X122905468Y-67885000D01*
X122885635Y-67658308D01*
X122826739Y-67438504D01*
X122730568Y-67232266D01*
X122600047Y-67045861D01*
X122600045Y-67045858D01*
X122439141Y-66884954D01*
X122252734Y-66754432D01*
X122252732Y-66754431D01*
X122046497Y-66658261D01*
X122046488Y-66658258D01*
X121826697Y-66599366D01*
X121826693Y-66599365D01*
X121826692Y-66599365D01*
X121826691Y-66599364D01*
X121826686Y-66599364D01*
X121600002Y-66579532D01*
X121599998Y-66579532D01*
X121373313Y-66599364D01*
X121373302Y-66599366D01*
X121153511Y-66658258D01*
X121153502Y-66658261D01*
X120947267Y-66754431D01*
X120947265Y-66754432D01*
X120760858Y-66884954D01*
X120599954Y-67045858D01*
X120469432Y-67232265D01*
X120469431Y-67232267D01*
X120373261Y-67438502D01*
X120373258Y-67438511D01*
X120314366Y-67658302D01*
X120314364Y-67658313D01*
X120294532Y-67884998D01*
X120294532Y-67885002D01*
X120308674Y-68046658D01*
X120294907Y-68115158D01*
X120272827Y-68145146D01*
X114729942Y-73688031D01*
X114647369Y-73811611D01*
X114638416Y-73833227D01*
X114629124Y-73855661D01*
X114607850Y-73907022D01*
X114607850Y-73907023D01*
X114590494Y-73948922D01*
X114590493Y-73948926D01*
X114561499Y-74094685D01*
X114561499Y-74249425D01*
X114561500Y-74249446D01*
X114561500Y-84096460D01*
X114541815Y-84163499D01*
X114489011Y-84209254D01*
X114466017Y-84217136D01*
X114458520Y-84218907D01*
X114323671Y-84269202D01*
X114323664Y-84269206D01*
X114208455Y-84355452D01*
X114208452Y-84355455D01*
X114122206Y-84470664D01*
X114122202Y-84470671D01*
X114071908Y-84605517D01*
X114065501Y-84665116D01*
X114065501Y-84665123D01*
X114065500Y-84665135D01*
X113530500Y-84665135D01*
X113530500Y-83421446D01*
X113530501Y-83421425D01*
X113530501Y-83266685D01*
X113504864Y-83137804D01*
X113504864Y-83137803D01*
X113503520Y-83131051D01*
X113501505Y-83120920D01*
X113494221Y-83103335D01*
X113459496Y-83019500D01*
X113444633Y-82983617D01*
X113444629Y-82983610D01*
X113436708Y-82971755D01*
X113411233Y-82933629D01*
X113411233Y-82933628D01*
X113362060Y-82860035D01*
X113362054Y-82860028D01*
X113252647Y-82750621D01*
X113252624Y-82750600D01*
X111390819Y-80888794D01*
X111357334Y-80827471D01*
X111354500Y-80801113D01*
X111354500Y-72745446D01*
X111354501Y-72745425D01*
X111354501Y-72590686D01*
X111335493Y-72495134D01*
X111325505Y-72444921D01*
X111324548Y-72442611D01*
X111281839Y-72339501D01*
X111268630Y-72307611D01*
X111221771Y-72237481D01*
X111186059Y-72184034D01*
X111186056Y-72184030D01*
X111076647Y-72074621D01*
X111076624Y-72074600D01*
X108927171Y-69925146D01*
X108893686Y-69863823D01*
X108891324Y-69826661D01*
X108905468Y-69665000D01*
X108905383Y-69664034D01*
X108894362Y-69538057D01*
X108885635Y-69438308D01*
X108837949Y-69260340D01*
X108826741Y-69218511D01*
X108826738Y-69218502D01*
X108823786Y-69212171D01*
X108730568Y-69012266D01*
X108600047Y-68825861D01*
X108600045Y-68825858D01*
X108439141Y-68664954D01*
X108252734Y-68534432D01*
X108252732Y-68534431D01*
X108046497Y-68438261D01*
X108046488Y-68438258D01*
X107826697Y-68379366D01*
X107826693Y-68379365D01*
X107826692Y-68379365D01*
X107826691Y-68379364D01*
X107826686Y-68379364D01*
X107600002Y-68359532D01*
X107599998Y-68359532D01*
X107373313Y-68379364D01*
X107373302Y-68379366D01*
X107153511Y-68438258D01*
X107153502Y-68438261D01*
X106947267Y-68534431D01*
X106947265Y-68534432D01*
X106760858Y-68664954D01*
X106599954Y-68825858D01*
X106577713Y-68857623D01*
X106523137Y-68901248D01*
X106476138Y-68910500D01*
X100500446Y-68910500D01*
X100500426Y-68910499D01*
X100494312Y-68910499D01*
X100345688Y-68910499D01*
X100345686Y-68910499D01*
X100224105Y-68934684D01*
X100209540Y-68937581D01*
X100199918Y-68939495D01*
X100184297Y-68945966D01*
X100062615Y-68996368D01*
X100062607Y-68996372D01*
X99939031Y-69078942D01*
X98713993Y-70303980D01*
X98652670Y-70337465D01*
X98615506Y-70339827D01*
X98500004Y-70329723D01*
X98499996Y-70329723D01*
X98384491Y-70339827D01*
X98315991Y-70326060D01*
X98286004Y-70303980D01*
X94324969Y-66342943D01*
X94324968Y-66342942D01*
X94238885Y-66285424D01*
X94201389Y-66260370D01*
X94201386Y-66260368D01*
X94201385Y-66260368D01*
X94120955Y-66227053D01*
X94064080Y-66203495D01*
X94064070Y-66203493D01*
X94039894Y-66198684D01*
X93918314Y-66174499D01*
X93918312Y-66174499D01*
X93769688Y-66174499D01*
X93763574Y-66174499D01*
X93763554Y-66174500D01*
X86951683Y-66174500D01*
X86805927Y-66203493D01*
X86805919Y-66203495D01*
X86668608Y-66260371D01*
X86545035Y-66342939D01*
X86545034Y-66342940D01*
X86492488Y-66395487D01*
X86439941Y-66448034D01*
X86439939Y-66448036D01*
X85969793Y-66918181D01*
X85908470Y-66951666D01*
X85882112Y-66954500D01*
X84252129Y-66954500D01*
X84252123Y-66954501D01*
X84192516Y-66960908D01*
X84057671Y-67011202D01*
X84057664Y-67011206D01*
X83942455Y-67097452D01*
X83942452Y-67097455D01*
X83856206Y-67212664D01*
X83856202Y-67212671D01*
X83805908Y-67347517D01*
X83799501Y-67407116D01*
X83799500Y-67407135D01*
X47162821Y-67407135D01*
X47107870Y-67036691D01*
X47012374Y-66655450D01*
X46879983Y-66285440D01*
X46879976Y-66285424D01*
X46711937Y-65930135D01*
X46509890Y-65593041D01*
X46275771Y-65277367D01*
X46179930Y-65171622D01*
X46179929Y-65171622D01*
X44581617Y-66769934D01*
X44498543Y-66661669D01*
X44336331Y-66499457D01*
X44228065Y-66416381D01*
X45826376Y-64818069D01*
X45826376Y-64818068D01*
X45720632Y-64722228D01*
X45404958Y-64488109D01*
X45067864Y-64286062D01*
X44712575Y-64118023D01*
X44712559Y-64118016D01*
X44342549Y-63985625D01*
X43961308Y-63890129D01*
X43572550Y-63832461D01*
X43180000Y-63813176D01*
X42787449Y-63832461D01*
X42398691Y-63890129D01*
X42017450Y-63985625D01*
X41647440Y-64118016D01*
X41647424Y-64118023D01*
X41292135Y-64286062D01*
X40955041Y-64488109D01*
X40639368Y-64722228D01*
X40533622Y-64818069D01*
X42131934Y-66416381D01*
X42023669Y-66499457D01*
X41861457Y-66661669D01*
X41778382Y-66769934D01*
X40180069Y-65171622D01*
X40084228Y-65277368D01*
X39850109Y-65593041D01*
X39648062Y-65930135D01*
X39480023Y-66285424D01*
X39480016Y-66285440D01*
X39356751Y-66629945D01*
X39315633Y-66686434D01*
X39250501Y-66711726D01*
X39182035Y-66697789D01*
X39131973Y-66649049D01*
X39116000Y-66588171D01*
X39116000Y-63497000D01*
X39135685Y-63429961D01*
X39188489Y-63384206D01*
X39240000Y-63373000D01*
X39370000Y-63373000D01*
X215140880Y-63499910D01*
G37*
%TD.AperFunction*%
%TD*%
M02*
