%TF.GenerationSoftware,KiCad,Pcbnew,8.0.1*%
%TF.CreationDate,2024-09-10T19:28:36-07:00*%
%TF.ProjectId,Dorr_Amp_REV-,446f7272-5f41-46d7-905f-5245562d2e6b,-*%
%TF.SameCoordinates,Original*%
%TF.FileFunction,Soldermask,Top*%
%TF.FilePolarity,Negative*%
%FSLAX46Y46*%
G04 Gerber Fmt 4.6, Leading zero omitted, Abs format (unit mm)*
G04 Created by KiCad (PCBNEW 8.0.1) date 2024-09-10 19:28:36*
%MOMM*%
%LPD*%
G01*
G04 APERTURE LIST*
G04 Aperture macros list*
%AMRoundRect*
0 Rectangle with rounded corners*
0 $1 Rounding radius*
0 $2 $3 $4 $5 $6 $7 $8 $9 X,Y pos of 4 corners*
0 Add a 4 corners polygon primitive as box body*
4,1,4,$2,$3,$4,$5,$6,$7,$8,$9,$2,$3,0*
0 Add four circle primitives for the rounded corners*
1,1,$1+$1,$2,$3*
1,1,$1+$1,$4,$5*
1,1,$1+$1,$6,$7*
1,1,$1+$1,$8,$9*
0 Add four rect primitives between the rounded corners*
20,1,$1+$1,$2,$3,$4,$5,0*
20,1,$1+$1,$4,$5,$6,$7,0*
20,1,$1+$1,$6,$7,$8,$9,0*
20,1,$1+$1,$8,$9,$2,$3,0*%
G04 Aperture macros list end*
%ADD10C,1.400000*%
%ADD11O,1.400000X1.400000*%
%ADD12C,2.000000*%
%ADD13R,1.200000X1.200000*%
%ADD14C,1.200000*%
%ADD15C,4.700000*%
%ADD16RoundRect,0.250000X1.750000X-1.750000X1.750000X1.750000X-1.750000X1.750000X-1.750000X-1.750000X0*%
%ADD17C,4.000000*%
%ADD18C,2.340000*%
%ADD19R,1.500000X1.050000*%
%ADD20O,1.500000X1.050000*%
%ADD21R,1.600000X1.600000*%
%ADD22O,1.600000X1.600000*%
%ADD23R,3.500000X2.500000*%
%ADD24O,3.500000X2.500000*%
%ADD25RoundRect,0.250000X-1.750000X1.750000X-1.750000X-1.750000X1.750000X-1.750000X1.750000X1.750000X0*%
%ADD26R,2.000000X1.905000*%
%ADD27O,2.000000X1.905000*%
%ADD28R,2.400000X2.400000*%
%ADD29C,2.400000*%
G04 APERTURE END LIST*
D10*
%TO.C,R8*%
X67260000Y-128665000D03*
D11*
X72340000Y-128665000D03*
%TD*%
D10*
%TO.C,R14*%
X103220800Y-86759800D03*
D11*
X98140800Y-86759800D03*
%TD*%
D12*
%TO.C,TP1*%
X158465800Y-126764800D03*
%TD*%
D10*
%TO.C,R12*%
X72740800Y-81044800D03*
D11*
X77820800Y-81044800D03*
%TD*%
D13*
%TO.C,C1*%
X159100800Y-104944800D03*
D14*
X159100800Y-106444800D03*
%TD*%
D15*
%TO.C,H1*%
X42265600Y-66675000D03*
%TD*%
%TO.C,H3*%
X41960800Y-134797800D03*
%TD*%
D10*
%TO.C,R15*%
X129850000Y-95575000D03*
D11*
X129850000Y-100655000D03*
%TD*%
D16*
%TO.C,J3*%
X76250800Y-105079800D03*
D17*
X76250800Y-97879800D03*
%TD*%
D15*
%TO.C,H4*%
X187299600Y-134848600D03*
%TD*%
%TO.C,H2*%
X187401200Y-66319400D03*
%TD*%
D10*
%TO.C,R3*%
X129890800Y-114064800D03*
D11*
X129890800Y-119144800D03*
%TD*%
D13*
%TO.C,C3*%
X49880800Y-128669800D03*
D14*
X51380800Y-128669800D03*
%TD*%
D18*
%TO.C,R11*%
X70280800Y-74629800D03*
X80280800Y-72129800D03*
X70280800Y-69629800D03*
%TD*%
D10*
%TO.C,R2*%
X129890800Y-110254800D03*
D11*
X129890800Y-105174800D03*
%TD*%
D13*
%TO.C,C5*%
X49880800Y-74694800D03*
D14*
X51380800Y-74694800D03*
%TD*%
D19*
%TO.C,Q6*%
X100405800Y-74059800D03*
D20*
X100405800Y-72789800D03*
X100405800Y-71519800D03*
%TD*%
D21*
%TO.C,D3*%
X89885800Y-84219800D03*
D22*
X89885800Y-91839800D03*
%TD*%
D13*
%TO.C,C6*%
X109570800Y-72559800D03*
D14*
X109570800Y-74059800D03*
%TD*%
D10*
%TO.C,R10*%
X63215800Y-74694800D03*
D11*
X58135800Y-74694800D03*
%TD*%
D13*
%TO.C,C4*%
X113900000Y-133687600D03*
D14*
X113900000Y-132187600D03*
%TD*%
D10*
%TO.C,R6*%
X62580800Y-128669800D03*
D11*
X57500800Y-128669800D03*
%TD*%
D23*
%TO.C,Q10*%
X143860800Y-68979800D03*
D24*
X143860800Y-74454800D03*
X143860800Y-79929800D03*
%TD*%
D13*
%TO.C,C7*%
X166500000Y-104765000D03*
D14*
X166500000Y-106265000D03*
%TD*%
D10*
%TO.C,R16*%
X125445800Y-69614800D03*
D11*
X120365800Y-69614800D03*
%TD*%
D21*
%TO.C,D1*%
X89885800Y-122319800D03*
D22*
X89885800Y-114699800D03*
%TD*%
D10*
%TO.C,R9*%
X126080800Y-131844800D03*
D11*
X121000800Y-131844800D03*
%TD*%
D25*
%TO.C,J1*%
X181000000Y-98365000D03*
D17*
X181000000Y-105565000D03*
%TD*%
D19*
%TO.C,Q8*%
X114650800Y-87394800D03*
D20*
X114650800Y-86124800D03*
X114650800Y-84854800D03*
%TD*%
D10*
%TO.C,R18*%
X129890800Y-79774800D03*
D11*
X129890800Y-74694800D03*
%TD*%
D18*
%TO.C,R7*%
X57500000Y-120940000D03*
X67500000Y-118440000D03*
X57500000Y-115940000D03*
%TD*%
D19*
%TO.C,Q1*%
X114650800Y-110254800D03*
D20*
X114650800Y-108984800D03*
X114650800Y-107714800D03*
%TD*%
D10*
%TO.C,R17*%
X129890800Y-90569800D03*
D11*
X129890800Y-85489800D03*
%TD*%
D26*
%TO.C,Q9*%
X145355800Y-110789800D03*
D27*
X145355800Y-113329800D03*
X145355800Y-115869800D03*
%TD*%
D12*
%TO.C,TP2*%
X158465800Y-81044800D03*
%TD*%
D10*
%TO.C,R1*%
X89885800Y-105174800D03*
D11*
X89885800Y-110254800D03*
%TD*%
D19*
%TO.C,Q7*%
X114210000Y-97585000D03*
D20*
X114210000Y-96315000D03*
X114210000Y-95045000D03*
%TD*%
D16*
%TO.C,J2*%
X50007800Y-120096400D03*
D17*
X50007800Y-112896400D03*
%TD*%
D21*
%TO.C,D4*%
X89911200Y-71494400D03*
D22*
X89911200Y-79114400D03*
%TD*%
D19*
%TO.C,Q3*%
X99700000Y-129525000D03*
D20*
X99700000Y-130795000D03*
X99700000Y-132065000D03*
%TD*%
D26*
%TO.C,Q5*%
X145440800Y-132479800D03*
D27*
X145440800Y-129939800D03*
X145440800Y-127399800D03*
%TD*%
D28*
%TO.C,C8*%
X166626041Y-81065000D03*
D29*
X174126041Y-81065000D03*
%TD*%
D19*
%TO.C,Q4*%
X114015800Y-117874800D03*
D20*
X114015800Y-119144800D03*
X114015800Y-120414800D03*
%TD*%
D10*
%TO.C,R13*%
X89885800Y-101364800D03*
D11*
X89885800Y-96284800D03*
%TD*%
D10*
%TO.C,R5*%
X129890800Y-123589800D03*
D11*
X129890800Y-128669800D03*
%TD*%
D10*
%TO.C,R4*%
X103220800Y-118509800D03*
D11*
X98140800Y-118509800D03*
%TD*%
D21*
%TO.C,D2*%
X89885800Y-134384800D03*
D22*
X89885800Y-126764800D03*
%TD*%
D23*
%TO.C,Q2*%
X145440800Y-101519800D03*
D24*
X145440800Y-96044800D03*
X145440800Y-90569800D03*
%TD*%
M02*
