%TF.GenerationSoftware,KiCad,Pcbnew,8.0.4*%
%TF.CreationDate,2024-09-08T18:57:07-07:00*%
%TF.ProjectId,Dorr_Amp_REV-,446f7272-5f41-46d7-905f-5245562d2e6b,-*%
%TF.SameCoordinates,Original*%
%TF.FileFunction,Copper,L2,Bot*%
%TF.FilePolarity,Positive*%
%FSLAX46Y46*%
G04 Gerber Fmt 4.6, Leading zero omitted, Abs format (unit mm)*
G04 Created by KiCad (PCBNEW 8.0.4) date 2024-09-08 18:57:07*
%MOMM*%
%LPD*%
G01*
G04 APERTURE LIST*
G04 Aperture macros list*
%AMRoundRect*
0 Rectangle with rounded corners*
0 $1 Rounding radius*
0 $2 $3 $4 $5 $6 $7 $8 $9 X,Y pos of 4 corners*
0 Add a 4 corners polygon primitive as box body*
4,1,4,$2,$3,$4,$5,$6,$7,$8,$9,$2,$3,0*
0 Add four circle primitives for the rounded corners*
1,1,$1+$1,$2,$3*
1,1,$1+$1,$4,$5*
1,1,$1+$1,$6,$7*
1,1,$1+$1,$8,$9*
0 Add four rect primitives between the rounded corners*
20,1,$1+$1,$2,$3,$4,$5,0*
20,1,$1+$1,$4,$5,$6,$7,0*
20,1,$1+$1,$6,$7,$8,$9,0*
20,1,$1+$1,$8,$9,$2,$3,0*%
G04 Aperture macros list end*
%TA.AperFunction,ComponentPad*%
%ADD10C,1.400000*%
%TD*%
%TA.AperFunction,ComponentPad*%
%ADD11O,1.400000X1.400000*%
%TD*%
%TA.AperFunction,ComponentPad*%
%ADD12C,2.000000*%
%TD*%
%TA.AperFunction,ComponentPad*%
%ADD13R,1.200000X1.200000*%
%TD*%
%TA.AperFunction,ComponentPad*%
%ADD14C,1.200000*%
%TD*%
%TA.AperFunction,ComponentPad*%
%ADD15RoundRect,0.250000X1.750000X-1.750000X1.750000X1.750000X-1.750000X1.750000X-1.750000X-1.750000X0*%
%TD*%
%TA.AperFunction,ComponentPad*%
%ADD16C,4.000000*%
%TD*%
%TA.AperFunction,ComponentPad*%
%ADD17C,2.340000*%
%TD*%
%TA.AperFunction,ComponentPad*%
%ADD18R,1.500000X1.050000*%
%TD*%
%TA.AperFunction,ComponentPad*%
%ADD19O,1.500000X1.050000*%
%TD*%
%TA.AperFunction,ComponentPad*%
%ADD20R,1.600000X1.600000*%
%TD*%
%TA.AperFunction,ComponentPad*%
%ADD21O,1.600000X1.600000*%
%TD*%
%TA.AperFunction,ComponentPad*%
%ADD22R,3.500000X2.500000*%
%TD*%
%TA.AperFunction,ComponentPad*%
%ADD23O,3.500000X2.500000*%
%TD*%
%TA.AperFunction,ComponentPad*%
%ADD24RoundRect,0.250000X-1.750000X1.750000X-1.750000X-1.750000X1.750000X-1.750000X1.750000X1.750000X0*%
%TD*%
%TA.AperFunction,ComponentPad*%
%ADD25R,2.000000X1.905000*%
%TD*%
%TA.AperFunction,ComponentPad*%
%ADD26O,2.000000X1.905000*%
%TD*%
%TA.AperFunction,ComponentPad*%
%ADD27R,2.400000X2.400000*%
%TD*%
%TA.AperFunction,ComponentPad*%
%ADD28C,2.400000*%
%TD*%
%TA.AperFunction,ComponentPad*%
%ADD29C,4.700000*%
%TD*%
%TA.AperFunction,Conductor*%
%ADD30C,0.200000*%
%TD*%
%TA.AperFunction,Conductor*%
%ADD31C,0.762000*%
%TD*%
G04 APERTURE END LIST*
D10*
%TO.P,R8,1*%
%TO.N,Net-(D1-K)*%
X97155000Y-120015000D03*
D11*
%TO.P,R8,2*%
%TO.N,GND*%
X102235000Y-120015000D03*
%TD*%
D10*
%TO.P,R14,1*%
%TO.N,Net-(C8-Pad1)*%
X128270000Y-87630000D03*
D11*
%TO.P,R14,2*%
%TO.N,Net-(D3-K)*%
X123190000Y-87630000D03*
%TD*%
D12*
%TO.P,TP1,1,1*%
%TO.N,Net-(C2-Pad1)*%
X183515000Y-127635000D03*
%TD*%
D10*
%TO.P,R12,1*%
%TO.N,Net-(D3-K)*%
X97790000Y-81915000D03*
D11*
%TO.P,R12,2*%
%TO.N,GND*%
X102870000Y-81915000D03*
%TD*%
D13*
%TO.P,C1,1*%
%TO.N,/18V*%
X184150000Y-105815000D03*
D14*
%TO.P,C1,2*%
%TO.N,GND*%
X184150000Y-107315000D03*
%TD*%
D10*
%TO.P,R15,1*%
%TO.N,Net-(Q2-B)*%
X154940000Y-95885000D03*
D11*
%TO.P,R15,2*%
%TO.N,/18V*%
X154940000Y-100965000D03*
%TD*%
D15*
%TO.P,J3,1,Pin_1*%
%TO.N,/18V*%
X93980000Y-108585000D03*
D16*
%TO.P,J3,2,Pin_2*%
%TO.N,GND*%
X93980000Y-101385000D03*
%TD*%
D10*
%TO.P,R3,1*%
%TO.N,Net-(Q1-E)*%
X154940000Y-114935000D03*
D11*
%TO.P,R3,2*%
%TO.N,Net-(C2-Pad1)*%
X154940000Y-120015000D03*
%TD*%
D13*
%TO.P,C3,1*%
%TO.N,Net-(J2-Pin_1)*%
X74930000Y-129540000D03*
D14*
%TO.P,C3,2*%
%TO.N,Net-(C3-Pad2)*%
X76430000Y-129540000D03*
%TD*%
D17*
%TO.P,R11,1*%
%TO.N,Net-(D3-K)*%
X95330000Y-75500000D03*
%TO.P,R11,2*%
%TO.N,GND*%
X105330000Y-73000000D03*
%TO.P,R11,3*%
%TO.N,N/C*%
X95330000Y-70500000D03*
%TD*%
D10*
%TO.P,R2,1*%
%TO.N,Net-(Q1-C)*%
X154940000Y-111125000D03*
D11*
%TO.P,R2,2*%
%TO.N,/18V*%
X154940000Y-106045000D03*
%TD*%
D13*
%TO.P,C5,1*%
%TO.N,Net-(J2-Pin_2)*%
X74930000Y-75565000D03*
D14*
%TO.P,C5,2*%
%TO.N,Net-(C5-Pad2)*%
X76430000Y-75565000D03*
%TD*%
D18*
%TO.P,Q6,1,E*%
%TO.N,GND*%
X125455000Y-74930000D03*
D19*
%TO.P,Q6,2,B*%
%TO.N,Net-(D3-K)*%
X125455000Y-73660000D03*
%TO.P,Q6,3,C*%
%TO.N,Net-(D4-K)*%
X125455000Y-72390000D03*
%TD*%
D20*
%TO.P,D3,1,K*%
%TO.N,Net-(D3-K)*%
X114935000Y-85090000D03*
D21*
%TO.P,D3,2,A*%
%TO.N,Net-(D3-A)*%
X114935000Y-92710000D03*
%TD*%
D13*
%TO.P,C6,1*%
%TO.N,Net-(D4-K)*%
X134620000Y-73430000D03*
D14*
%TO.P,C6,2*%
%TO.N,GND*%
X134620000Y-74930000D03*
%TD*%
D10*
%TO.P,R10,1*%
%TO.N,Net-(D3-K)*%
X88265000Y-75565000D03*
D11*
%TO.P,R10,2*%
%TO.N,Net-(C5-Pad2)*%
X83185000Y-75565000D03*
%TD*%
D13*
%TO.P,C4,1*%
%TO.N,Net-(D2-K)*%
X135890000Y-132310000D03*
D14*
%TO.P,C4,2*%
%TO.N,GND*%
X135890000Y-130810000D03*
%TD*%
D10*
%TO.P,R6,1*%
%TO.N,Net-(D1-K)*%
X87630000Y-129540000D03*
D11*
%TO.P,R6,2*%
%TO.N,Net-(C3-Pad2)*%
X82550000Y-129540000D03*
%TD*%
D22*
%TO.P,Q10,1,E*%
%TO.N,GND*%
X168910000Y-69850000D03*
D23*
%TO.P,Q10,2,B*%
%TO.N,Net-(Q10-B)*%
X168910000Y-75325000D03*
%TO.P,Q10,3,C*%
%TO.N,Net-(Q10-C)*%
X168910000Y-80800000D03*
%TD*%
D13*
%TO.P,C7,1*%
%TO.N,/18V*%
X199390000Y-105815000D03*
D14*
%TO.P,C7,2*%
%TO.N,GND*%
X199390000Y-107315000D03*
%TD*%
D10*
%TO.P,R16,1*%
%TO.N,Net-(Q10-B)*%
X150495000Y-70485000D03*
D11*
%TO.P,R16,2*%
%TO.N,GND*%
X145415000Y-70485000D03*
%TD*%
D20*
%TO.P,D1,1,K*%
%TO.N,Net-(D1-K)*%
X114935000Y-123190000D03*
D21*
%TO.P,D1,2,A*%
%TO.N,Net-(D1-A)*%
X114935000Y-115570000D03*
%TD*%
D10*
%TO.P,R9,1*%
%TO.N,Net-(Q4-C)*%
X151130000Y-132715000D03*
D11*
%TO.P,R9,2*%
%TO.N,GND*%
X146050000Y-132715000D03*
%TD*%
D24*
%TO.P,J1,1,Pin_1*%
%TO.N,Net-(J1-Pin_1)*%
X215900000Y-101810000D03*
D16*
%TO.P,J1,2,Pin_2*%
%TO.N,Net-(J1-Pin_2)*%
X215900000Y-109010000D03*
%TD*%
D18*
%TO.P,Q8,1,E*%
%TO.N,Net-(Q10-C)*%
X139700000Y-88265000D03*
D19*
%TO.P,Q8,2,B*%
%TO.N,Net-(D4-K)*%
X139700000Y-86995000D03*
%TO.P,Q8,3,C*%
%TO.N,Net-(Q10-B)*%
X139700000Y-85725000D03*
%TD*%
D10*
%TO.P,R18,1*%
%TO.N,Net-(C8-Pad1)*%
X154940000Y-80645000D03*
D11*
%TO.P,R18,2*%
%TO.N,Net-(Q10-C)*%
X154940000Y-75565000D03*
%TD*%
D17*
%TO.P,R7,1*%
%TO.N,Net-(D1-K)*%
X94695000Y-133285000D03*
%TO.P,R7,2*%
%TO.N,GND*%
X104695000Y-130785000D03*
%TO.P,R7,3*%
%TO.N,N/C*%
X94695000Y-128285000D03*
%TD*%
D18*
%TO.P,Q1,1,E*%
%TO.N,Net-(Q1-E)*%
X139700000Y-111125000D03*
D19*
%TO.P,Q1,2,B*%
%TO.N,Net-(D1-A)*%
X139700000Y-109855000D03*
%TO.P,Q1,3,C*%
%TO.N,Net-(Q1-C)*%
X139700000Y-108585000D03*
%TD*%
D10*
%TO.P,R17,1*%
%TO.N,Net-(Q2-C)*%
X154940000Y-91440000D03*
D11*
%TO.P,R17,2*%
%TO.N,Net-(C8-Pad1)*%
X154940000Y-86360000D03*
%TD*%
D25*
%TO.P,Q9,1,E*%
%TO.N,/18V*%
X168910000Y-111760000D03*
D26*
%TO.P,Q9,2,B*%
%TO.N,Net-(Q1-C)*%
X168910000Y-114300000D03*
%TO.P,Q9,3,C*%
%TO.N,Net-(Q1-E)*%
X168910000Y-116840000D03*
%TD*%
D12*
%TO.P,TP2,1,1*%
%TO.N,Net-(C8-Pad1)*%
X183515000Y-81915000D03*
%TD*%
D10*
%TO.P,R1,1*%
%TO.N,/18V*%
X114935000Y-106045000D03*
D11*
%TO.P,R1,2*%
%TO.N,Net-(D1-A)*%
X114935000Y-111125000D03*
%TD*%
D18*
%TO.P,Q7,1,E*%
%TO.N,Net-(Q2-C)*%
X139700000Y-98425000D03*
D19*
%TO.P,Q7,2,B*%
%TO.N,Net-(D3-A)*%
X139700000Y-97155000D03*
%TO.P,Q7,3,C*%
%TO.N,Net-(Q2-B)*%
X139700000Y-95885000D03*
%TD*%
D27*
%TO.P,C2,1*%
%TO.N,Net-(C2-Pad1)*%
X197086041Y-127635000D03*
D28*
%TO.P,C2,2*%
%TO.N,Net-(J1-Pin_2)*%
X204586041Y-127635000D03*
%TD*%
D15*
%TO.P,J2,1,Pin_1*%
%TO.N,Net-(J2-Pin_1)*%
X74930000Y-108375000D03*
D16*
%TO.P,J2,2,Pin_2*%
%TO.N,Net-(J2-Pin_2)*%
X74930000Y-101175000D03*
%TD*%
D20*
%TO.P,D4,1,K*%
%TO.N,Net-(D4-K)*%
X114935000Y-73025000D03*
D21*
%TO.P,D4,2,A*%
%TO.N,Net-(D3-K)*%
X114935000Y-80645000D03*
%TD*%
D18*
%TO.P,Q3,1,E*%
%TO.N,GND*%
X126005000Y-130175000D03*
D19*
%TO.P,Q3,2,B*%
%TO.N,Net-(D1-K)*%
X126005000Y-131445000D03*
%TO.P,Q3,3,C*%
%TO.N,Net-(D2-K)*%
X126005000Y-132715000D03*
%TD*%
D25*
%TO.P,Q5,1,E*%
%TO.N,GND*%
X170490000Y-133350000D03*
D26*
%TO.P,Q5,2,B*%
%TO.N,Net-(Q4-C)*%
X170490000Y-130810000D03*
%TO.P,Q5,3,C*%
%TO.N,Net-(Q4-E)*%
X170490000Y-128270000D03*
%TD*%
D27*
%TO.P,C8,1*%
%TO.N,Net-(C8-Pad1)*%
X197086041Y-81915000D03*
D28*
%TO.P,C8,2*%
%TO.N,Net-(J1-Pin_1)*%
X204586041Y-81915000D03*
%TD*%
D18*
%TO.P,Q4,1,E*%
%TO.N,Net-(Q4-E)*%
X139065000Y-118745000D03*
D19*
%TO.P,Q4,2,B*%
%TO.N,Net-(D2-K)*%
X139065000Y-120015000D03*
%TO.P,Q4,3,C*%
%TO.N,Net-(Q4-C)*%
X139065000Y-121285000D03*
%TD*%
D10*
%TO.P,R13,1*%
%TO.N,/18V*%
X114935000Y-102235000D03*
D11*
%TO.P,R13,2*%
%TO.N,Net-(D3-A)*%
X114935000Y-97155000D03*
%TD*%
D10*
%TO.P,R5,1*%
%TO.N,Net-(C2-Pad1)*%
X154940000Y-124460000D03*
D11*
%TO.P,R5,2*%
%TO.N,Net-(Q4-E)*%
X154940000Y-129540000D03*
%TD*%
D29*
%TO.P,H1,1,1*%
%TO.N,GND*%
X93980000Y-90905000D03*
%TD*%
D10*
%TO.P,R4,1*%
%TO.N,Net-(C2-Pad1)*%
X128270000Y-119380000D03*
D11*
%TO.P,R4,2*%
%TO.N,Net-(D1-K)*%
X123190000Y-119380000D03*
%TD*%
D20*
%TO.P,D2,1,K*%
%TO.N,Net-(D2-K)*%
X114935000Y-135255000D03*
D21*
%TO.P,D2,2,A*%
%TO.N,Net-(D1-K)*%
X114935000Y-127635000D03*
%TD*%
D22*
%TO.P,Q2,1,E*%
%TO.N,/18V*%
X170490000Y-102390000D03*
D23*
%TO.P,Q2,2,B*%
%TO.N,Net-(Q2-B)*%
X170490000Y-96915000D03*
%TO.P,Q2,3,C*%
%TO.N,Net-(Q2-C)*%
X170490000Y-91440000D03*
%TD*%
D30*
%TO.N,Net-(C8-Pad1)*%
X146050000Y-92075000D02*
X151765000Y-86360000D01*
D31*
X197086041Y-81915000D02*
X183515000Y-81915000D01*
X183515000Y-81915000D02*
X179070000Y-86360000D01*
D30*
X131445000Y-87630000D02*
X135890000Y-92075000D01*
X128270000Y-87630000D02*
X131445000Y-87630000D01*
D31*
X179070000Y-86360000D02*
X160020000Y-86360000D01*
X156210000Y-81915000D02*
X154940000Y-80645000D01*
X157480000Y-83820000D02*
X154940000Y-86360000D01*
X157480000Y-81915000D02*
X156210000Y-81915000D01*
X157480000Y-83820000D02*
X157480000Y-81915000D01*
X160020000Y-86360000D02*
X157480000Y-83820000D01*
D30*
X151765000Y-86360000D02*
X154940000Y-86360000D01*
X135890000Y-92075000D02*
X146050000Y-92075000D01*
D31*
%TO.N,Net-(C2-Pad1)*%
X177800000Y-127635000D02*
X173355000Y-123190000D01*
X161290000Y-123190000D02*
X160020000Y-124460000D01*
X161290000Y-123190000D02*
X158115000Y-120015000D01*
X173355000Y-123190000D02*
X161290000Y-123190000D01*
D30*
X128270000Y-119380000D02*
X133350000Y-124460000D01*
D31*
X160020000Y-124460000D02*
X154940000Y-124460000D01*
X197086041Y-127635000D02*
X183515000Y-127635000D01*
D30*
X133350000Y-124460000D02*
X154940000Y-124460000D01*
D31*
X158115000Y-120015000D02*
X154940000Y-120015000D01*
X183515000Y-127635000D02*
X177800000Y-127635000D01*
D30*
%TO.N,Net-(Q10-C)*%
X144780000Y-84455000D02*
X140970000Y-88265000D01*
X140970000Y-88265000D02*
X139700000Y-88265000D01*
X165255000Y-80800000D02*
X160020000Y-75565000D01*
X150495000Y-84455000D02*
X144780000Y-84455000D01*
X150495000Y-76835000D02*
X150495000Y-84455000D01*
X168910000Y-80800000D02*
X165255000Y-80800000D01*
X160020000Y-75565000D02*
X154940000Y-75565000D01*
X151765000Y-75565000D02*
X150495000Y-76835000D01*
X154940000Y-75565000D02*
X151765000Y-75565000D01*
%TO.N,Net-(Q2-C)*%
X139700000Y-98425000D02*
X146050000Y-98425000D01*
X154940000Y-91440000D02*
X170490000Y-91440000D01*
X153035000Y-91440000D02*
X154940000Y-91440000D01*
X146050000Y-98425000D02*
X153035000Y-91440000D01*
%TO.N,GND*%
X135255000Y-130175000D02*
X135890000Y-130810000D01*
X105330000Y-73000000D02*
X105330000Y-79455000D01*
X135890000Y-130810000D02*
X144145000Y-130810000D01*
X109220000Y-123190000D02*
X109220000Y-129540000D01*
X161290000Y-69850000D02*
X159385000Y-67945000D01*
X123825000Y-130175000D02*
X126005000Y-130175000D01*
X125455000Y-75840000D02*
X125455000Y-74930000D01*
X109220000Y-129540000D02*
X107950000Y-130810000D01*
X168585000Y-135255000D02*
X170490000Y-133350000D01*
X106045000Y-120015000D02*
X109220000Y-123190000D01*
X110490000Y-130810000D02*
X123190000Y-130810000D01*
X109220000Y-129540000D02*
X110490000Y-130810000D01*
X107950000Y-130810000D02*
X107925000Y-130785000D01*
X184150000Y-107315000D02*
X199390000Y-107315000D01*
X124460000Y-76835000D02*
X125455000Y-75840000D01*
X105330000Y-73000000D02*
X107290000Y-73000000D01*
X111125000Y-76835000D02*
X124460000Y-76835000D01*
X102235000Y-120015000D02*
X106045000Y-120015000D01*
X168910000Y-69850000D02*
X161290000Y-69850000D01*
X123190000Y-130810000D02*
X123825000Y-130175000D01*
X146050000Y-132715000D02*
X148590000Y-135255000D01*
X139700000Y-74930000D02*
X134620000Y-74930000D01*
X105330000Y-79455000D02*
X102870000Y-81915000D01*
X126005000Y-130175000D02*
X135255000Y-130175000D01*
X148590000Y-135255000D02*
X168585000Y-135255000D01*
X107925000Y-130785000D02*
X104695000Y-130785000D01*
X144145000Y-130810000D02*
X146050000Y-132715000D01*
X125455000Y-74930000D02*
X125730000Y-74930000D01*
X145415000Y-67945000D02*
X145415000Y-69850000D01*
X159385000Y-67945000D02*
X145415000Y-67945000D01*
X145415000Y-69215000D02*
X139700000Y-74930000D01*
X125730000Y-74930000D02*
X125960000Y-75160000D01*
X107290000Y-73000000D02*
X111125000Y-76835000D01*
X125960000Y-75160000D02*
X134620000Y-75160000D01*
%TO.N,Net-(Q10-B)*%
X147955000Y-75565000D02*
X150495000Y-73025000D01*
X168910000Y-75325000D02*
X164225000Y-75325000D01*
X144145000Y-75565000D02*
X139700000Y-80010000D01*
X139700000Y-80010000D02*
X139700000Y-85725000D01*
X144145000Y-75565000D02*
X147955000Y-75565000D01*
X161925000Y-73025000D02*
X150495000Y-73025000D01*
X164225000Y-75325000D02*
X161925000Y-73025000D01*
X150495000Y-73025000D02*
X150495000Y-70485000D01*
%TO.N,Net-(D3-K)*%
X95330000Y-75500000D02*
X95330000Y-79455000D01*
X118745000Y-85090000D02*
X114935000Y-85090000D01*
X97790000Y-81915000D02*
X100965000Y-85090000D01*
X123190000Y-87630000D02*
X121285000Y-87630000D01*
X95330000Y-79455000D02*
X97790000Y-81915000D01*
X100965000Y-85090000D02*
X114935000Y-85090000D01*
X121285000Y-87630000D02*
X118745000Y-85090000D01*
X88265000Y-75565000D02*
X95265000Y-75565000D01*
X95265000Y-75565000D02*
X95330000Y-75500000D01*
D31*
X114935000Y-80645000D02*
X114935000Y-85090000D01*
D30*
%TO.N,/18V*%
X174085000Y-105815000D02*
X184150000Y-105815000D01*
X170490000Y-102390000D02*
X170660000Y-102390000D01*
X168910000Y-111760000D02*
X167005000Y-111760000D01*
X112395000Y-108585000D02*
X114935000Y-106045000D01*
X184150000Y-105815000D02*
X199390000Y-105815000D01*
X93980000Y-108585000D02*
X112395000Y-108585000D01*
X170490000Y-102390000D02*
X170490000Y-110180000D01*
D31*
X114935000Y-102235000D02*
X114935000Y-106045000D01*
D30*
X154940000Y-106045000D02*
X154940000Y-102235000D01*
X167005000Y-111760000D02*
X161290000Y-106045000D01*
X161290000Y-106045000D02*
X154940000Y-106045000D01*
X154940000Y-106045000D02*
X114935000Y-106045000D01*
X170490000Y-110180000D02*
X168910000Y-111760000D01*
X170660000Y-102390000D02*
X174085000Y-105815000D01*
%TO.N,Net-(D3-A)*%
X139700000Y-97155000D02*
X114935000Y-97155000D01*
D31*
X114935000Y-92710000D02*
X114935000Y-97155000D01*
D30*
%TO.N,Net-(C5-Pad2)*%
X76430000Y-75565000D02*
X83185000Y-75565000D01*
%TO.N,Net-(Q4-C)*%
X151130000Y-132715000D02*
X162560000Y-132715000D01*
X164465000Y-130810000D02*
X170490000Y-130810000D01*
X162560000Y-132715000D02*
X164465000Y-130810000D01*
%TO.N,Net-(D1-K)*%
X91375000Y-133285000D02*
X94695000Y-133285000D01*
D31*
X114935000Y-123190000D02*
X114935000Y-127635000D01*
D30*
X91440000Y-125730000D02*
X91440000Y-120015000D01*
X118745000Y-123190000D02*
X114935000Y-123190000D01*
X87630000Y-129540000D02*
X91440000Y-125730000D01*
X87630000Y-129540000D02*
X91375000Y-133285000D01*
X91440000Y-120015000D02*
X97155000Y-120015000D01*
X123190000Y-119380000D02*
X122555000Y-119380000D01*
X122555000Y-119380000D02*
X118745000Y-123190000D01*
%TO.N,Net-(C3-Pad2)*%
X76430000Y-129540000D02*
X81915000Y-129540000D01*
%TO.N,Net-(Q4-E)*%
X162560000Y-129540000D02*
X163830000Y-128270000D01*
X163830000Y-128270000D02*
X170490000Y-128270000D01*
X154940000Y-129540000D02*
X162560000Y-129540000D01*
%TO.N,Net-(D1-A)*%
X139700000Y-109855000D02*
X127000000Y-109855000D01*
X125730000Y-111125000D02*
X114935000Y-111125000D01*
X127000000Y-109855000D02*
X125730000Y-111125000D01*
D31*
X114935000Y-111125000D02*
X114935000Y-115570000D01*
D30*
%TO.N,Net-(Q1-C)*%
X147955000Y-111125000D02*
X154940000Y-111125000D01*
X139700000Y-108585000D02*
X145415000Y-108585000D01*
X165100000Y-114300000D02*
X161925000Y-111125000D01*
X145415000Y-108585000D02*
X147955000Y-111125000D01*
X161925000Y-111125000D02*
X154940000Y-111125000D01*
X168910000Y-114300000D02*
X165100000Y-114300000D01*
%TO.N,Net-(Q1-E)*%
X161925000Y-114935000D02*
X154940000Y-114935000D01*
X168910000Y-116840000D02*
X163830000Y-116840000D01*
X139700000Y-111125000D02*
X145415000Y-111125000D01*
X145415000Y-111125000D02*
X149225000Y-114935000D01*
X149225000Y-114935000D02*
X154940000Y-114935000D01*
X163830000Y-116840000D02*
X161925000Y-114935000D01*
%TO.N,Net-(Q2-B)*%
X154940000Y-95885000D02*
X169460000Y-95885000D01*
X169460000Y-95885000D02*
X170490000Y-96915000D01*
%TO.N,Net-(D4-K)*%
X134620000Y-73430000D02*
X133580000Y-72390000D01*
D31*
X114935000Y-70485000D02*
X117475000Y-67945000D01*
X125455000Y-70210000D02*
X125455000Y-72390000D01*
X114935000Y-73025000D02*
X114935000Y-70485000D01*
X123190000Y-67945000D02*
X125455000Y-70210000D01*
X117475000Y-67945000D02*
X123190000Y-67945000D01*
D30*
X133580000Y-72390000D02*
X125455000Y-72390000D01*
%TO.N,Net-(D2-K)*%
X135485000Y-132715000D02*
X135890000Y-132310000D01*
D31*
X121920000Y-135255000D02*
X124460000Y-132715000D01*
X124460000Y-132715000D02*
X126005000Y-132715000D01*
D30*
X126005000Y-132715000D02*
X135485000Y-132715000D01*
D31*
X114935000Y-135255000D02*
X121920000Y-135255000D01*
D30*
%TO.N,Net-(J2-Pin_2)*%
X74930000Y-101175000D02*
X74930000Y-75565000D01*
%TO.N,Net-(J2-Pin_1)*%
X74930000Y-108375000D02*
X74930000Y-129540000D01*
D31*
%TO.N,Net-(J1-Pin_2)*%
X204586041Y-120323959D02*
X215900000Y-109010000D01*
X204586041Y-127635000D02*
X204586041Y-120323959D01*
%TO.N,Net-(J1-Pin_1)*%
X204586041Y-90496041D02*
X215900000Y-101810000D01*
X204586041Y-81915000D02*
X204586041Y-90496041D01*
%TD*%
%TA.AperFunction,Conductor*%
%TO.N,GND*%
G36*
X220923039Y-65424685D02*
G01*
X220968794Y-65477489D01*
X220980000Y-65529000D01*
X220980000Y-137671000D01*
X220960315Y-137738039D01*
X220907511Y-137783794D01*
X220856000Y-137795000D01*
X68704000Y-137795000D01*
X68636961Y-137775315D01*
X68591206Y-137722511D01*
X68580000Y-137671000D01*
X68580000Y-106574983D01*
X72429500Y-106574983D01*
X72429500Y-110175001D01*
X72429501Y-110175018D01*
X72440000Y-110277796D01*
X72440001Y-110277799D01*
X72484400Y-110411784D01*
X72495186Y-110444334D01*
X72587288Y-110593656D01*
X72711344Y-110717712D01*
X72860666Y-110809814D01*
X73027203Y-110864999D01*
X73129991Y-110875500D01*
X74205500Y-110875499D01*
X74272539Y-110895183D01*
X74318294Y-110947987D01*
X74329500Y-110999499D01*
X74329500Y-128323023D01*
X74309815Y-128390062D01*
X74257011Y-128435817D01*
X74229865Y-128443266D01*
X74230068Y-128444124D01*
X74222520Y-128445907D01*
X74087671Y-128496202D01*
X74087664Y-128496206D01*
X73972455Y-128582452D01*
X73972452Y-128582455D01*
X73886206Y-128697664D01*
X73886202Y-128697671D01*
X73835908Y-128832517D01*
X73829501Y-128892116D01*
X73829500Y-128892135D01*
X73829500Y-130187870D01*
X73829501Y-130187876D01*
X73835908Y-130247483D01*
X73886202Y-130382328D01*
X73886206Y-130382335D01*
X73972452Y-130497544D01*
X73972455Y-130497547D01*
X74087664Y-130583793D01*
X74087671Y-130583797D01*
X74222517Y-130634091D01*
X74222516Y-130634091D01*
X74229444Y-130634835D01*
X74282127Y-130640500D01*
X75577872Y-130640499D01*
X75637483Y-130634091D01*
X75720778Y-130603024D01*
X75772329Y-130583797D01*
X75772329Y-130583796D01*
X75772331Y-130583796D01*
X75821521Y-130546971D01*
X75886982Y-130522554D01*
X75940622Y-130530610D01*
X76127544Y-130603024D01*
X76328024Y-130640500D01*
X76328026Y-130640500D01*
X76531974Y-130640500D01*
X76531976Y-130640500D01*
X76732456Y-130603024D01*
X76922637Y-130529348D01*
X77096041Y-130421981D01*
X77224122Y-130305219D01*
X77246762Y-130284581D01*
X77250706Y-130279359D01*
X77318358Y-130189773D01*
X77374467Y-130148137D01*
X77417312Y-130140500D01*
X81437379Y-130140500D01*
X81504418Y-130160185D01*
X81536333Y-130189773D01*
X81659020Y-130352238D01*
X81823437Y-130502123D01*
X81823439Y-130502125D01*
X82012595Y-130619245D01*
X82012596Y-130619245D01*
X82012599Y-130619247D01*
X82220060Y-130699618D01*
X82438757Y-130740500D01*
X82438759Y-130740500D01*
X82661241Y-130740500D01*
X82661243Y-130740500D01*
X82879940Y-130699618D01*
X83087401Y-130619247D01*
X83276562Y-130502124D01*
X83440981Y-130352236D01*
X83575058Y-130174689D01*
X83674229Y-129975528D01*
X83735115Y-129761536D01*
X83755643Y-129540000D01*
X83755643Y-129539999D01*
X86424357Y-129539999D01*
X86424357Y-129540000D01*
X86444884Y-129761535D01*
X86444885Y-129761537D01*
X86505769Y-129975523D01*
X86505775Y-129975538D01*
X86604938Y-130174683D01*
X86604943Y-130174691D01*
X86739020Y-130352238D01*
X86903437Y-130502123D01*
X86903439Y-130502125D01*
X87092595Y-130619245D01*
X87092596Y-130619245D01*
X87092599Y-130619247D01*
X87300060Y-130699618D01*
X87518757Y-130740500D01*
X87518759Y-130740500D01*
X87741241Y-130740500D01*
X87741243Y-130740500D01*
X87879214Y-130714708D01*
X87948729Y-130721739D01*
X87989680Y-130748916D01*
X91006284Y-133765520D01*
X91143215Y-133844577D01*
X91295943Y-133885501D01*
X91295946Y-133885501D01*
X91461654Y-133885501D01*
X91461670Y-133885500D01*
X93051587Y-133885500D01*
X93118626Y-133905185D01*
X93164381Y-133957989D01*
X93167004Y-133964171D01*
X93185711Y-134011835D01*
X93310898Y-134228665D01*
X93407934Y-134350344D01*
X93467006Y-134424418D01*
X93640264Y-134585177D01*
X93650540Y-134594712D01*
X93857408Y-134735752D01*
X93857413Y-134735754D01*
X93857414Y-134735755D01*
X93857415Y-134735756D01*
X93977218Y-134793449D01*
X94082983Y-134844383D01*
X94082984Y-134844383D01*
X94082987Y-134844385D01*
X94322236Y-134918184D01*
X94322237Y-134918184D01*
X94322240Y-134918185D01*
X94569805Y-134955499D01*
X94569810Y-134955499D01*
X94569813Y-134955500D01*
X94569814Y-134955500D01*
X94820186Y-134955500D01*
X94820187Y-134955500D01*
X94820194Y-134955499D01*
X95067759Y-134918185D01*
X95067760Y-134918184D01*
X95067764Y-134918184D01*
X95307013Y-134844385D01*
X95532592Y-134735752D01*
X95739460Y-134594712D01*
X95922997Y-134424414D01*
X95936777Y-134407135D01*
X113634500Y-134407135D01*
X113634500Y-136102870D01*
X113634501Y-136102876D01*
X113640908Y-136162483D01*
X113691202Y-136297328D01*
X113691206Y-136297335D01*
X113777452Y-136412544D01*
X113777455Y-136412547D01*
X113892664Y-136498793D01*
X113892671Y-136498797D01*
X114027517Y-136549091D01*
X114027516Y-136549091D01*
X114034444Y-136549835D01*
X114087127Y-136555500D01*
X115782872Y-136555499D01*
X115842483Y-136549091D01*
X115977331Y-136498796D01*
X116092546Y-136412546D01*
X116178796Y-136297331D01*
X116208695Y-136217168D01*
X116250565Y-136161234D01*
X116316030Y-136136816D01*
X116324877Y-136136500D01*
X122006823Y-136136500D01*
X122121393Y-136113709D01*
X122177124Y-136102624D01*
X122257335Y-136069399D01*
X122337543Y-136036177D01*
X122337544Y-136036176D01*
X122337547Y-136036175D01*
X122481924Y-135939706D01*
X124788810Y-133632818D01*
X124850133Y-133599334D01*
X124876491Y-133596500D01*
X125215792Y-133596500D01*
X125282831Y-133616185D01*
X125284658Y-133617381D01*
X125294244Y-133623786D01*
X125480873Y-133701091D01*
X125678992Y-133740499D01*
X125678996Y-133740500D01*
X125678997Y-133740500D01*
X126331004Y-133740500D01*
X126331005Y-133740499D01*
X126529127Y-133701091D01*
X126715756Y-133623786D01*
X126883718Y-133511558D01*
X127026558Y-133368718D01*
X127026560Y-133368714D01*
X127030422Y-133364010D01*
X127031818Y-133365156D01*
X127078912Y-133325802D01*
X127128397Y-133315500D01*
X134955240Y-133315500D01*
X135022279Y-133335185D01*
X135029551Y-133340233D01*
X135042185Y-133349691D01*
X135047668Y-133353795D01*
X135047671Y-133353797D01*
X135182517Y-133404091D01*
X135182516Y-133404091D01*
X135189444Y-133404835D01*
X135242127Y-133410500D01*
X136537872Y-133410499D01*
X136597483Y-133404091D01*
X136732331Y-133353796D01*
X136847546Y-133267546D01*
X136933796Y-133152331D01*
X136984091Y-133017483D01*
X136989734Y-132965000D01*
X144873505Y-132965000D01*
X144926239Y-133150349D01*
X145025368Y-133349425D01*
X145159391Y-133526900D01*
X145323738Y-133676721D01*
X145512820Y-133793797D01*
X145512822Y-133793798D01*
X145720195Y-133874135D01*
X145800000Y-133889052D01*
X146300000Y-133889052D01*
X146379804Y-133874135D01*
X146587177Y-133793798D01*
X146587179Y-133793797D01*
X146776261Y-133676721D01*
X146940608Y-133526900D01*
X147074631Y-133349425D01*
X147173760Y-133150349D01*
X147226495Y-132965000D01*
X146300000Y-132965000D01*
X146300000Y-133889052D01*
X145800000Y-133889052D01*
X145800000Y-132965000D01*
X144873505Y-132965000D01*
X136989734Y-132965000D01*
X136990500Y-132957873D01*
X136990500Y-132668922D01*
X145700000Y-132668922D01*
X145700000Y-132761078D01*
X145723852Y-132850095D01*
X145769930Y-132929905D01*
X145835095Y-132995070D01*
X145914905Y-133041148D01*
X146003922Y-133065000D01*
X146096078Y-133065000D01*
X146185095Y-133041148D01*
X146264905Y-132995070D01*
X146330070Y-132929905D01*
X146376148Y-132850095D01*
X146400000Y-132761078D01*
X146400000Y-132714999D01*
X149924357Y-132714999D01*
X149924357Y-132715000D01*
X149944884Y-132936535D01*
X149944885Y-132936537D01*
X150005769Y-133150523D01*
X150005775Y-133150538D01*
X150104938Y-133349683D01*
X150104943Y-133349691D01*
X150239020Y-133527238D01*
X150403437Y-133677123D01*
X150403439Y-133677125D01*
X150592595Y-133794245D01*
X150592596Y-133794245D01*
X150592599Y-133794247D01*
X150800060Y-133874618D01*
X151018757Y-133915500D01*
X151018759Y-133915500D01*
X151241241Y-133915500D01*
X151241243Y-133915500D01*
X151459940Y-133874618D01*
X151667401Y-133794247D01*
X151856562Y-133677124D01*
X152012823Y-133534673D01*
X152020979Y-133527238D01*
X152021235Y-133526900D01*
X152143667Y-133364772D01*
X152199776Y-133323137D01*
X152242621Y-133315500D01*
X162473331Y-133315500D01*
X162473347Y-133315501D01*
X162480943Y-133315501D01*
X162639054Y-133315501D01*
X162639057Y-133315501D01*
X162791785Y-133274577D01*
X162841904Y-133245639D01*
X162928716Y-133195520D01*
X163040520Y-133083716D01*
X163040520Y-133083714D01*
X163050728Y-133073507D01*
X163050729Y-133073504D01*
X164677416Y-131446819D01*
X164738739Y-131413334D01*
X164765097Y-131410500D01*
X169041742Y-131410500D01*
X169108781Y-131430185D01*
X169152227Y-131478205D01*
X169186772Y-131546003D01*
X169199783Y-131571538D01*
X169332829Y-131754660D01*
X169356309Y-131820466D01*
X169340484Y-131888520D01*
X169290378Y-131937215D01*
X169275848Y-131943726D01*
X169247912Y-131954146D01*
X169247906Y-131954149D01*
X169132812Y-132040309D01*
X169132809Y-132040312D01*
X169046649Y-132155406D01*
X169046645Y-132155413D01*
X168996403Y-132290120D01*
X168996401Y-132290127D01*
X168990000Y-132349655D01*
X168990000Y-133100000D01*
X169999252Y-133100000D01*
X169977482Y-133137708D01*
X169940000Y-133277591D01*
X169940000Y-133422409D01*
X169977482Y-133562292D01*
X169999252Y-133600000D01*
X168990000Y-133600000D01*
X168990000Y-134350344D01*
X168996401Y-134409872D01*
X168996403Y-134409879D01*
X169046645Y-134544586D01*
X169046649Y-134544593D01*
X169132809Y-134659687D01*
X169132812Y-134659690D01*
X169247906Y-134745850D01*
X169247913Y-134745854D01*
X169382620Y-134796096D01*
X169382627Y-134796098D01*
X169442155Y-134802499D01*
X169442172Y-134802500D01*
X170240000Y-134802500D01*
X170240000Y-133840747D01*
X170277708Y-133862518D01*
X170417591Y-133900000D01*
X170562409Y-133900000D01*
X170702292Y-133862518D01*
X170740000Y-133840747D01*
X170740000Y-134802500D01*
X171537828Y-134802500D01*
X171537844Y-134802499D01*
X171597372Y-134796098D01*
X171597379Y-134796096D01*
X171732086Y-134745854D01*
X171732093Y-134745850D01*
X171847187Y-134659690D01*
X171847190Y-134659687D01*
X171933350Y-134544593D01*
X171933354Y-134544586D01*
X171983596Y-134409879D01*
X171983598Y-134409872D01*
X171989999Y-134350344D01*
X171990000Y-134350327D01*
X171990000Y-133600000D01*
X170980748Y-133600000D01*
X171002518Y-133562292D01*
X171040000Y-133422409D01*
X171040000Y-133277591D01*
X171002518Y-133137708D01*
X170980748Y-133100000D01*
X171990000Y-133100000D01*
X171990000Y-132349672D01*
X171989999Y-132349655D01*
X171983598Y-132290127D01*
X171983596Y-132290120D01*
X171933354Y-132155413D01*
X171933350Y-132155406D01*
X171847190Y-132040312D01*
X171847187Y-132040309D01*
X171732093Y-131954149D01*
X171732083Y-131954144D01*
X171704153Y-131943726D01*
X171648220Y-131901854D01*
X171623804Y-131836389D01*
X171638657Y-131768116D01*
X171647159Y-131754675D01*
X171780217Y-131571538D01*
X171884048Y-131367758D01*
X171891770Y-131343992D01*
X171954721Y-131150249D01*
X171954721Y-131150248D01*
X171954722Y-131150245D01*
X171990500Y-130924354D01*
X171990500Y-130695646D01*
X171954722Y-130469755D01*
X171954721Y-130469751D01*
X171954721Y-130469750D01*
X171884049Y-130252244D01*
X171870721Y-130226087D01*
X171780217Y-130048462D01*
X171645786Y-129863434D01*
X171484066Y-129701714D01*
X171399559Y-129640316D01*
X171356896Y-129584988D01*
X171350917Y-129515375D01*
X171383523Y-129453580D01*
X171399556Y-129439685D01*
X171484066Y-129378286D01*
X171645786Y-129216566D01*
X171780217Y-129031538D01*
X171884048Y-128827758D01*
X171899964Y-128778774D01*
X171954721Y-128610249D01*
X171954721Y-128610248D01*
X171954722Y-128610245D01*
X171990500Y-128384354D01*
X171990500Y-128155646D01*
X171954722Y-127929755D01*
X171954721Y-127929751D01*
X171954721Y-127929750D01*
X171884049Y-127712244D01*
X171780216Y-127508461D01*
X171645786Y-127323434D01*
X171484066Y-127161714D01*
X171299038Y-127027283D01*
X171210687Y-126982266D01*
X171095255Y-126923450D01*
X170877748Y-126852778D01*
X170708326Y-126825944D01*
X170651854Y-126817000D01*
X170328146Y-126817000D01*
X170252849Y-126828926D01*
X170102253Y-126852778D01*
X170102250Y-126852778D01*
X169884744Y-126923450D01*
X169680961Y-127027283D01*
X169575396Y-127103980D01*
X169495934Y-127161714D01*
X169495932Y-127161716D01*
X169495931Y-127161716D01*
X169334216Y-127323431D01*
X169334216Y-127323432D01*
X169334214Y-127323434D01*
X169276480Y-127402896D01*
X169199783Y-127508461D01*
X169152227Y-127601795D01*
X169104252Y-127652591D01*
X169041742Y-127669500D01*
X163750942Y-127669500D01*
X163598213Y-127710423D01*
X163558174Y-127733541D01*
X163558173Y-127733541D01*
X163461287Y-127789477D01*
X163461282Y-127789481D01*
X163389078Y-127861686D01*
X163349480Y-127901284D01*
X163349478Y-127901286D01*
X162831194Y-128419571D01*
X162347584Y-128903181D01*
X162286261Y-128936666D01*
X162259903Y-128939500D01*
X156052621Y-128939500D01*
X155985582Y-128919815D01*
X155953667Y-128890227D01*
X155932155Y-128861741D01*
X155859529Y-128765568D01*
X155830979Y-128727761D01*
X155666562Y-128577876D01*
X155666560Y-128577874D01*
X155477404Y-128460754D01*
X155477398Y-128460752D01*
X155269940Y-128380382D01*
X155051243Y-128339500D01*
X154828757Y-128339500D01*
X154610060Y-128380382D01*
X154517668Y-128416175D01*
X154402601Y-128460752D01*
X154402595Y-128460754D01*
X154213439Y-128577874D01*
X154213437Y-128577876D01*
X154049020Y-128727761D01*
X153914943Y-128905308D01*
X153914938Y-128905316D01*
X153815775Y-129104461D01*
X153815769Y-129104476D01*
X153754885Y-129318462D01*
X153754884Y-129318464D01*
X153734357Y-129539999D01*
X153734357Y-129540000D01*
X153754884Y-129761535D01*
X153754885Y-129761537D01*
X153815769Y-129975523D01*
X153815775Y-129975538D01*
X153914938Y-130174683D01*
X153914943Y-130174691D01*
X154049020Y-130352238D01*
X154213437Y-130502123D01*
X154213439Y-130502125D01*
X154402595Y-130619245D01*
X154402596Y-130619245D01*
X154402599Y-130619247D01*
X154610060Y-130699618D01*
X154828757Y-130740500D01*
X154828759Y-130740500D01*
X155051241Y-130740500D01*
X155051243Y-130740500D01*
X155269940Y-130699618D01*
X155477401Y-130619247D01*
X155666562Y-130502124D01*
X155830981Y-130352236D01*
X155953667Y-130189772D01*
X156009776Y-130148137D01*
X156052621Y-130140500D01*
X162473331Y-130140500D01*
X162473347Y-130140501D01*
X162480943Y-130140501D01*
X162639054Y-130140501D01*
X162639057Y-130140501D01*
X162791785Y-130099577D01*
X162841904Y-130070639D01*
X162928716Y-130020520D01*
X163040520Y-129908716D01*
X163040520Y-129908714D01*
X163050728Y-129898507D01*
X163050729Y-129898504D01*
X164042416Y-128906819D01*
X164103739Y-128873334D01*
X164130097Y-128870500D01*
X169041742Y-128870500D01*
X169108781Y-128890185D01*
X169152227Y-128938205D01*
X169154407Y-128942483D01*
X169199783Y-129031538D01*
X169334214Y-129216566D01*
X169495934Y-129378286D01*
X169536712Y-129407913D01*
X169580438Y-129439682D01*
X169623103Y-129495013D01*
X169629082Y-129564626D01*
X169596476Y-129626421D01*
X169580438Y-129640318D01*
X169495932Y-129701715D01*
X169334216Y-129863431D01*
X169334216Y-129863432D01*
X169334214Y-129863434D01*
X169294436Y-129918184D01*
X169199783Y-130048461D01*
X169152227Y-130141795D01*
X169104252Y-130192591D01*
X169041742Y-130209500D01*
X164551669Y-130209500D01*
X164551653Y-130209499D01*
X164544057Y-130209499D01*
X164385943Y-130209499D01*
X164278587Y-130238265D01*
X164233210Y-130250424D01*
X164233209Y-130250425D01*
X164183096Y-130279359D01*
X164183095Y-130279360D01*
X164174052Y-130284581D01*
X164096285Y-130329479D01*
X164096282Y-130329481D01*
X164020509Y-130405255D01*
X163984480Y-130441284D01*
X163984478Y-130441286D01*
X163159561Y-131266204D01*
X162347584Y-132078181D01*
X162286261Y-132111666D01*
X162259903Y-132114500D01*
X152242621Y-132114500D01*
X152175582Y-132094815D01*
X152143667Y-132065227D01*
X152020979Y-131902761D01*
X151856562Y-131752876D01*
X151856560Y-131752874D01*
X151667404Y-131635754D01*
X151667398Y-131635752D01*
X151459940Y-131555382D01*
X151241243Y-131514500D01*
X151018757Y-131514500D01*
X150800060Y-131555382D01*
X150758357Y-131571538D01*
X150592601Y-131635752D01*
X150592595Y-131635754D01*
X150403439Y-131752874D01*
X150403437Y-131752876D01*
X150239020Y-131902761D01*
X150104943Y-132080308D01*
X150104938Y-132080316D01*
X150005775Y-132279461D01*
X150005769Y-132279476D01*
X149944885Y-132493462D01*
X149944884Y-132493464D01*
X149924357Y-132714999D01*
X146400000Y-132714999D01*
X146400000Y-132668922D01*
X146376148Y-132579905D01*
X146330070Y-132500095D01*
X146294975Y-132465000D01*
X146300000Y-132465000D01*
X147226495Y-132465000D01*
X147173760Y-132279650D01*
X147074631Y-132080574D01*
X146940608Y-131903099D01*
X146776261Y-131753278D01*
X146587179Y-131636202D01*
X146587177Y-131636201D01*
X146379799Y-131555864D01*
X146300000Y-131540946D01*
X146300000Y-132465000D01*
X146294975Y-132465000D01*
X146264905Y-132434930D01*
X146185095Y-132388852D01*
X146096078Y-132365000D01*
X146003922Y-132365000D01*
X145914905Y-132388852D01*
X145835095Y-132434930D01*
X145769930Y-132500095D01*
X145723852Y-132579905D01*
X145700000Y-132668922D01*
X136990500Y-132668922D01*
X136990500Y-132465000D01*
X144873505Y-132465000D01*
X145800000Y-132465000D01*
X145800000Y-131540946D01*
X145720200Y-131555864D01*
X145512822Y-131636201D01*
X145512820Y-131636202D01*
X145323738Y-131753278D01*
X145159391Y-131903099D01*
X145025368Y-132080574D01*
X144926239Y-132279650D01*
X144873505Y-132465000D01*
X136990500Y-132465000D01*
X136990499Y-131662128D01*
X136984091Y-131602517D01*
X136933796Y-131467669D01*
X136909340Y-131435000D01*
X136894044Y-131414567D01*
X136869627Y-131349103D01*
X136882311Y-131284983D01*
X136920114Y-131209064D01*
X136920115Y-131209063D01*
X136975902Y-131012991D01*
X136975903Y-131012989D01*
X136994713Y-130810000D01*
X136994713Y-130809999D01*
X136975903Y-130607010D01*
X136975902Y-130607007D01*
X136920116Y-130410936D01*
X136920113Y-130410930D01*
X136829249Y-130228449D01*
X136829247Y-130228447D01*
X136827465Y-130226087D01*
X136184855Y-130868696D01*
X136190000Y-130849496D01*
X136190000Y-130770504D01*
X136169556Y-130694204D01*
X136130060Y-130625795D01*
X136074205Y-130569940D01*
X136005796Y-130530444D01*
X135929496Y-130510000D01*
X135850504Y-130510000D01*
X135774204Y-130530444D01*
X135705795Y-130569940D01*
X135649940Y-130625795D01*
X135610444Y-130694204D01*
X135590000Y-130770504D01*
X135590000Y-130849496D01*
X135595145Y-130868699D01*
X134952533Y-130226087D01*
X134950755Y-130228442D01*
X134950754Y-130228443D01*
X134859886Y-130410930D01*
X134859883Y-130410936D01*
X134804097Y-130607007D01*
X134804096Y-130607010D01*
X134785287Y-130809999D01*
X134785287Y-130810000D01*
X134804096Y-131012989D01*
X134804097Y-131012991D01*
X134859884Y-131209063D01*
X134859890Y-131209078D01*
X134897688Y-131284985D01*
X134909949Y-131353770D01*
X134885955Y-131414568D01*
X134846204Y-131467668D01*
X134846202Y-131467671D01*
X134795908Y-131602517D01*
X134789501Y-131662116D01*
X134789501Y-131662123D01*
X134789500Y-131662135D01*
X134789500Y-131990500D01*
X134769815Y-132057539D01*
X134717011Y-132103294D01*
X134665500Y-132114500D01*
X127247454Y-132114500D01*
X127180415Y-132094815D01*
X127134660Y-132042011D01*
X127124716Y-131972853D01*
X127136649Y-131936464D01*
X127136455Y-131936384D01*
X127137513Y-131933828D01*
X127138100Y-131932040D01*
X127138785Y-131930757D01*
X127138786Y-131930756D01*
X127216091Y-131744127D01*
X127255500Y-131546003D01*
X127255500Y-131343997D01*
X127216091Y-131145873D01*
X127182451Y-131064661D01*
X127174983Y-130995194D01*
X127194592Y-130950144D01*
X127194101Y-130949876D01*
X127197102Y-130944379D01*
X127197748Y-130942896D01*
X127198352Y-130942089D01*
X127248597Y-130807376D01*
X127248598Y-130807372D01*
X127254999Y-130747844D01*
X127255000Y-130747827D01*
X127255000Y-130425000D01*
X126370866Y-130425000D01*
X126346674Y-130422617D01*
X126331004Y-130419500D01*
X126331003Y-130419500D01*
X126290830Y-130419500D01*
X126305075Y-130405255D01*
X126354444Y-130319745D01*
X126380000Y-130224370D01*
X126380000Y-130125630D01*
X126354444Y-130030255D01*
X126305075Y-129944745D01*
X126285330Y-129925000D01*
X127255000Y-129925000D01*
X127255000Y-129875758D01*
X135309311Y-129875758D01*
X135890000Y-130456446D01*
X135890001Y-130456446D01*
X136470687Y-129875758D01*
X136382413Y-129821101D01*
X136382411Y-129821100D01*
X136192321Y-129747460D01*
X135991928Y-129710000D01*
X135788072Y-129710000D01*
X135587678Y-129747460D01*
X135397588Y-129821100D01*
X135397581Y-129821104D01*
X135309312Y-129875757D01*
X135309311Y-129875758D01*
X127255000Y-129875758D01*
X127255000Y-129602172D01*
X127254999Y-129602155D01*
X127248598Y-129542627D01*
X127248596Y-129542620D01*
X127198354Y-129407913D01*
X127198350Y-129407906D01*
X127112190Y-129292812D01*
X127112187Y-129292809D01*
X126997093Y-129206649D01*
X126997086Y-129206645D01*
X126862379Y-129156403D01*
X126862372Y-129156401D01*
X126802844Y-129150000D01*
X126255000Y-129150000D01*
X126255000Y-129894670D01*
X126235255Y-129874925D01*
X126149745Y-129825556D01*
X126054370Y-129800000D01*
X125955630Y-129800000D01*
X125860255Y-129825556D01*
X125774745Y-129874925D01*
X125755000Y-129894670D01*
X125755000Y-129150000D01*
X125207155Y-129150000D01*
X125147627Y-129156401D01*
X125147620Y-129156403D01*
X125012913Y-129206645D01*
X125012906Y-129206649D01*
X124897812Y-129292809D01*
X124897809Y-129292812D01*
X124811649Y-129407906D01*
X124811645Y-129407913D01*
X124761403Y-129542620D01*
X124761401Y-129542627D01*
X124755000Y-129602155D01*
X124755000Y-129925000D01*
X125724670Y-129925000D01*
X125704925Y-129944745D01*
X125655556Y-130030255D01*
X125630000Y-130125630D01*
X125630000Y-130224370D01*
X125655556Y-130319745D01*
X125704925Y-130405255D01*
X125719170Y-130419500D01*
X125678997Y-130419500D01*
X125678996Y-130419500D01*
X125663326Y-130422617D01*
X125639134Y-130425000D01*
X124755000Y-130425000D01*
X124755000Y-130747844D01*
X124761401Y-130807372D01*
X124761403Y-130807379D01*
X124811645Y-130942086D01*
X124812251Y-130942895D01*
X124812604Y-130943841D01*
X124815897Y-130949872D01*
X124815030Y-130950345D01*
X124836670Y-131008359D01*
X124827547Y-131064661D01*
X124793910Y-131145868D01*
X124793907Y-131145880D01*
X124754500Y-131343992D01*
X124754500Y-131546007D01*
X124782209Y-131685309D01*
X124775982Y-131754901D01*
X124733119Y-131810078D01*
X124667229Y-131833322D01*
X124660592Y-131833500D01*
X124373177Y-131833500D01*
X124217334Y-131864500D01*
X124202876Y-131867376D01*
X124202873Y-131867376D01*
X124042459Y-131933821D01*
X124042446Y-131933828D01*
X123898078Y-132030292D01*
X123898076Y-132030295D01*
X121591189Y-134337181D01*
X121529866Y-134370666D01*
X121503508Y-134373500D01*
X116324878Y-134373500D01*
X116257839Y-134353815D01*
X116212084Y-134301011D01*
X116208696Y-134292833D01*
X116178797Y-134212671D01*
X116178793Y-134212664D01*
X116092547Y-134097455D01*
X116092544Y-134097452D01*
X115977335Y-134011206D01*
X115977328Y-134011202D01*
X115842482Y-133960908D01*
X115842483Y-133960908D01*
X115782883Y-133954501D01*
X115782881Y-133954500D01*
X115782873Y-133954500D01*
X115782864Y-133954500D01*
X114087129Y-133954500D01*
X114087123Y-133954501D01*
X114027516Y-133960908D01*
X113892671Y-134011202D01*
X113892664Y-134011206D01*
X113777455Y-134097452D01*
X113777452Y-134097455D01*
X113691206Y-134212664D01*
X113691202Y-134212671D01*
X113640908Y-134347517D01*
X113634501Y-134407116D01*
X113634500Y-134407135D01*
X95936777Y-134407135D01*
X96079102Y-134228665D01*
X96204289Y-134011835D01*
X96295760Y-133778769D01*
X96351474Y-133534673D01*
X96352031Y-133527238D01*
X96370184Y-133285004D01*
X96370184Y-133284995D01*
X96351475Y-133035336D01*
X96351474Y-133035331D01*
X96351474Y-133035327D01*
X96295760Y-132791231D01*
X96204289Y-132558165D01*
X96079102Y-132341335D01*
X95922997Y-132145586D01*
X95922996Y-132145585D01*
X95922993Y-132145581D01*
X95739460Y-131975288D01*
X95532592Y-131834248D01*
X95532588Y-131834246D01*
X95532585Y-131834244D01*
X95532584Y-131834243D01*
X95314034Y-131728996D01*
X95307015Y-131725616D01*
X95307017Y-131725616D01*
X95067765Y-131651816D01*
X95067759Y-131651814D01*
X94820194Y-131614500D01*
X94820187Y-131614500D01*
X94569813Y-131614500D01*
X94569805Y-131614500D01*
X94322240Y-131651814D01*
X94322234Y-131651816D01*
X94082983Y-131725616D01*
X93857415Y-131834243D01*
X93857414Y-131834244D01*
X93650539Y-131975288D01*
X93467006Y-132145581D01*
X93310898Y-132341335D01*
X93185714Y-132558158D01*
X93185711Y-132558163D01*
X93185711Y-132558165D01*
X93167014Y-132605804D01*
X93124200Y-132661016D01*
X93058330Y-132684317D01*
X93051587Y-132684500D01*
X91675098Y-132684500D01*
X91608059Y-132664815D01*
X91587417Y-132648181D01*
X89724230Y-130784995D01*
X103020317Y-130784995D01*
X103020317Y-130785004D01*
X103039021Y-131034597D01*
X103039021Y-131034599D01*
X103094714Y-131278607D01*
X103094720Y-131278626D01*
X103186163Y-131511618D01*
X103311311Y-131728381D01*
X103311318Y-131728392D01*
X103349799Y-131776645D01*
X103349800Y-131776645D01*
X104093958Y-131032487D01*
X104118978Y-131092890D01*
X104190112Y-131199351D01*
X104280649Y-131289888D01*
X104387110Y-131361022D01*
X104447511Y-131386041D01*
X103703403Y-132130148D01*
X103857658Y-132235317D01*
X103857666Y-132235322D01*
X104083167Y-132343916D01*
X104083165Y-132343916D01*
X104322346Y-132417694D01*
X104322352Y-132417696D01*
X104569843Y-132454999D01*
X104569852Y-132455000D01*
X104820148Y-132455000D01*
X104820156Y-132454999D01*
X105067647Y-132417696D01*
X105067653Y-132417694D01*
X105306833Y-132343916D01*
X105532334Y-132235322D01*
X105532344Y-132235315D01*
X105686595Y-132130148D01*
X104942489Y-131386041D01*
X105002890Y-131361022D01*
X105109351Y-131289888D01*
X105199888Y-131199351D01*
X105271022Y-131092890D01*
X105296041Y-131032488D01*
X106040197Y-131776645D01*
X106040198Y-131776644D01*
X106078690Y-131728379D01*
X106203836Y-131511618D01*
X106295279Y-131278626D01*
X106295285Y-131278607D01*
X106350978Y-131034599D01*
X106350978Y-131034597D01*
X106369683Y-130785004D01*
X106369683Y-130784995D01*
X106350978Y-130535402D01*
X106350978Y-130535400D01*
X106295285Y-130291392D01*
X106295279Y-130291373D01*
X106203836Y-130058381D01*
X106078688Y-129841618D01*
X106078681Y-129841607D01*
X106040199Y-129793354D01*
X106040198Y-129793353D01*
X105296041Y-130537510D01*
X105271022Y-130477110D01*
X105199888Y-130370649D01*
X105109351Y-130280112D01*
X105002890Y-130208978D01*
X104942488Y-130183958D01*
X105686595Y-129439850D01*
X105532335Y-129334678D01*
X105532334Y-129334677D01*
X105306832Y-129226083D01*
X105306834Y-129226083D01*
X105067653Y-129152305D01*
X105067647Y-129152303D01*
X104820156Y-129115000D01*
X104569843Y-129115000D01*
X104322352Y-129152303D01*
X104322346Y-129152305D01*
X104083166Y-129226083D01*
X103857664Y-129334679D01*
X103857651Y-129334686D01*
X103703403Y-129439849D01*
X104447512Y-130183958D01*
X104387110Y-130208978D01*
X104280649Y-130280112D01*
X104190112Y-130370649D01*
X104118978Y-130477110D01*
X104093958Y-130537512D01*
X103349800Y-129793354D01*
X103311311Y-129841617D01*
X103186163Y-130058381D01*
X103094720Y-130291373D01*
X103094714Y-130291392D01*
X103039021Y-130535400D01*
X103039021Y-130535402D01*
X103020317Y-130784995D01*
X89724230Y-130784995D01*
X88841314Y-129902079D01*
X88807829Y-129840756D01*
X88809730Y-129780460D01*
X88815115Y-129761536D01*
X88835643Y-129540000D01*
X88815115Y-129318464D01*
X88809729Y-129299534D01*
X88810315Y-129229669D01*
X88841312Y-129177921D01*
X89734239Y-128284995D01*
X93019816Y-128284995D01*
X93019816Y-128285004D01*
X93038524Y-128534663D01*
X93038525Y-128534668D01*
X93094236Y-128778755D01*
X93094238Y-128778764D01*
X93094240Y-128778769D01*
X93185711Y-129011835D01*
X93310898Y-129228665D01*
X93430217Y-129378286D01*
X93467006Y-129424418D01*
X93594398Y-129542620D01*
X93650540Y-129594712D01*
X93857408Y-129735752D01*
X93857413Y-129735754D01*
X93857414Y-129735755D01*
X93857415Y-129735756D01*
X93950245Y-129780460D01*
X94082983Y-129844383D01*
X94082984Y-129844383D01*
X94082987Y-129844385D01*
X94322236Y-129918184D01*
X94322237Y-129918184D01*
X94322240Y-129918185D01*
X94569805Y-129955499D01*
X94569810Y-129955499D01*
X94569813Y-129955500D01*
X94569814Y-129955500D01*
X94820186Y-129955500D01*
X94820187Y-129955500D01*
X94820194Y-129955499D01*
X95067759Y-129918185D01*
X95067760Y-129918184D01*
X95067764Y-129918184D01*
X95307013Y-129844385D01*
X95532592Y-129735752D01*
X95739460Y-129594712D01*
X95922997Y-129424414D01*
X96079102Y-129228665D01*
X96204289Y-129011835D01*
X96295760Y-128778769D01*
X96351474Y-128534673D01*
X96351475Y-128534663D01*
X96370184Y-128285004D01*
X96370184Y-128284995D01*
X96351475Y-128035336D01*
X96351474Y-128035331D01*
X96351474Y-128035327D01*
X96295760Y-127791231D01*
X96234444Y-127634998D01*
X113629532Y-127634998D01*
X113629532Y-127635001D01*
X113649364Y-127861686D01*
X113649366Y-127861697D01*
X113708258Y-128081488D01*
X113708261Y-128081497D01*
X113804431Y-128287732D01*
X113804432Y-128287734D01*
X113934954Y-128474141D01*
X114095858Y-128635045D01*
X114095861Y-128635047D01*
X114282266Y-128765568D01*
X114488504Y-128861739D01*
X114488509Y-128861740D01*
X114488511Y-128861741D01*
X114531777Y-128873334D01*
X114708308Y-128920635D01*
X114870230Y-128934801D01*
X114934998Y-128940468D01*
X114935000Y-128940468D01*
X114935002Y-128940468D01*
X114991673Y-128935509D01*
X115161692Y-128920635D01*
X115381496Y-128861739D01*
X115587734Y-128765568D01*
X115774139Y-128635047D01*
X115935047Y-128474139D01*
X116065568Y-128287734D01*
X116161739Y-128081496D01*
X116220635Y-127861692D01*
X116240468Y-127635000D01*
X116220635Y-127408308D01*
X116161739Y-127188504D01*
X116065568Y-126982266D01*
X115935047Y-126795861D01*
X115935045Y-126795858D01*
X115852819Y-126713632D01*
X115819334Y-126652309D01*
X115816500Y-126625951D01*
X115816500Y-124579877D01*
X115836185Y-124512838D01*
X115888989Y-124467083D01*
X115897168Y-124463695D01*
X115977326Y-124433798D01*
X115977326Y-124433797D01*
X115977331Y-124433796D01*
X116092546Y-124347546D01*
X116178796Y-124232331D01*
X116229091Y-124097483D01*
X116235500Y-124037873D01*
X116235500Y-123914500D01*
X116255185Y-123847461D01*
X116307989Y-123801706D01*
X116359500Y-123790500D01*
X118658331Y-123790500D01*
X118658347Y-123790501D01*
X118665943Y-123790501D01*
X118824054Y-123790501D01*
X118824057Y-123790501D01*
X118976785Y-123749577D01*
X119026904Y-123720639D01*
X119113716Y-123670520D01*
X119225520Y-123558716D01*
X119225520Y-123558714D01*
X119235728Y-123548507D01*
X119235730Y-123548504D01*
X122380816Y-120403417D01*
X122442137Y-120369934D01*
X122511829Y-120374918D01*
X122533772Y-120385673D01*
X122652595Y-120459245D01*
X122652596Y-120459245D01*
X122652599Y-120459247D01*
X122860060Y-120539618D01*
X123078757Y-120580500D01*
X123078759Y-120580500D01*
X123301241Y-120580500D01*
X123301243Y-120580500D01*
X123519940Y-120539618D01*
X123727401Y-120459247D01*
X123916562Y-120342124D01*
X124080981Y-120192236D01*
X124215058Y-120014689D01*
X124314229Y-119815528D01*
X124375115Y-119601536D01*
X124395643Y-119380000D01*
X124395643Y-119379999D01*
X127064357Y-119379999D01*
X127064357Y-119380000D01*
X127084884Y-119601535D01*
X127084885Y-119601537D01*
X127145769Y-119815523D01*
X127145775Y-119815538D01*
X127244938Y-120014683D01*
X127244943Y-120014691D01*
X127379020Y-120192238D01*
X127543437Y-120342123D01*
X127543439Y-120342125D01*
X127732595Y-120459245D01*
X127732596Y-120459245D01*
X127732599Y-120459247D01*
X127940060Y-120539618D01*
X128158757Y-120580500D01*
X128158759Y-120580500D01*
X128381241Y-120580500D01*
X128381243Y-120580500D01*
X128519215Y-120554708D01*
X128588730Y-120561739D01*
X128629681Y-120588916D01*
X132865139Y-124824374D01*
X132865149Y-124824385D01*
X132869479Y-124828715D01*
X132869480Y-124828716D01*
X132981284Y-124940520D01*
X133068095Y-124990639D01*
X133068097Y-124990641D01*
X133106151Y-125012611D01*
X133118215Y-125019577D01*
X133270943Y-125060501D01*
X133270946Y-125060501D01*
X133436653Y-125060501D01*
X133436669Y-125060500D01*
X153827379Y-125060500D01*
X153894418Y-125080185D01*
X153926333Y-125109773D01*
X154049020Y-125272238D01*
X154213437Y-125422123D01*
X154213439Y-125422125D01*
X154402595Y-125539245D01*
X154402596Y-125539245D01*
X154402599Y-125539247D01*
X154610060Y-125619618D01*
X154828757Y-125660500D01*
X154828759Y-125660500D01*
X155051241Y-125660500D01*
X155051243Y-125660500D01*
X155269940Y-125619618D01*
X155477401Y-125539247D01*
X155666562Y-125422124D01*
X155719502Y-125373863D01*
X155782306Y-125343246D01*
X155803040Y-125341500D01*
X160106823Y-125341500D01*
X160221393Y-125318709D01*
X160277124Y-125307624D01*
X160362559Y-125272236D01*
X160437543Y-125241177D01*
X160437544Y-125241176D01*
X160437547Y-125241175D01*
X160581924Y-125144706D01*
X161618810Y-124107818D01*
X161680133Y-124074334D01*
X161706491Y-124071500D01*
X172938508Y-124071500D01*
X173005547Y-124091185D01*
X173026189Y-124107819D01*
X175079134Y-126160763D01*
X177115294Y-128196923D01*
X177203366Y-128284995D01*
X177238078Y-128319707D01*
X177238081Y-128319709D01*
X177328884Y-128380382D01*
X177328885Y-128380382D01*
X177382453Y-128416175D01*
X177382455Y-128416176D01*
X177382459Y-128416178D01*
X177522391Y-128474139D01*
X177542876Y-128482624D01*
X177542880Y-128482624D01*
X177542881Y-128482625D01*
X177713176Y-128516500D01*
X177713179Y-128516500D01*
X177713180Y-128516500D01*
X182232598Y-128516500D01*
X182299637Y-128536185D01*
X182323828Y-128556517D01*
X182326834Y-128559783D01*
X182326836Y-128559785D01*
X182495256Y-128742738D01*
X182691491Y-128895474D01*
X182910190Y-129013828D01*
X183145386Y-129094571D01*
X183390665Y-129135500D01*
X183639335Y-129135500D01*
X183884614Y-129094571D01*
X184119810Y-129013828D01*
X184338509Y-128895474D01*
X184534744Y-128742738D01*
X184703164Y-128559785D01*
X184703165Y-128559783D01*
X184706172Y-128556517D01*
X184766059Y-128520527D01*
X184797402Y-128516500D01*
X195261542Y-128516500D01*
X195328581Y-128536185D01*
X195374336Y-128588989D01*
X195385542Y-128640500D01*
X195385542Y-128882876D01*
X195391949Y-128942483D01*
X195442243Y-129077328D01*
X195442247Y-129077335D01*
X195528493Y-129192544D01*
X195528496Y-129192547D01*
X195643705Y-129278793D01*
X195643712Y-129278797D01*
X195778558Y-129329091D01*
X195778557Y-129329091D01*
X195785485Y-129329835D01*
X195838168Y-129335500D01*
X198333913Y-129335499D01*
X198393524Y-129329091D01*
X198528372Y-129278796D01*
X198643587Y-129192546D01*
X198729837Y-129077331D01*
X198780132Y-128942483D01*
X198786541Y-128882873D01*
X198786540Y-127634995D01*
X202880773Y-127634995D01*
X202880773Y-127635004D01*
X202899818Y-127889154D01*
X202909084Y-127929753D01*
X202956533Y-128137637D01*
X203045881Y-128365291D01*
X203049649Y-128374890D01*
X203055113Y-128384354D01*
X203177082Y-128595612D01*
X203335991Y-128794877D01*
X203522824Y-128968232D01*
X203733407Y-129111805D01*
X203733412Y-129111807D01*
X203733413Y-129111808D01*
X203733414Y-129111809D01*
X203855369Y-129170538D01*
X203963033Y-129222387D01*
X203963034Y-129222387D01*
X203963037Y-129222389D01*
X204206583Y-129297513D01*
X204458606Y-129335500D01*
X204713476Y-129335500D01*
X204965499Y-129297513D01*
X205209045Y-129222389D01*
X205438675Y-129111805D01*
X205649258Y-128968232D01*
X205836091Y-128794877D01*
X205995000Y-128595612D01*
X206122434Y-128374888D01*
X206215549Y-128137637D01*
X206272263Y-127889157D01*
X206283925Y-127733541D01*
X206291309Y-127635004D01*
X206291309Y-127634995D01*
X206277704Y-127453459D01*
X206272263Y-127380843D01*
X206215549Y-127132363D01*
X206122434Y-126895112D01*
X205995000Y-126674388D01*
X205836091Y-126475123D01*
X205649258Y-126301768D01*
X205649254Y-126301765D01*
X205521689Y-126214792D01*
X205477387Y-126160763D01*
X205467541Y-126112339D01*
X205467541Y-120740449D01*
X205487226Y-120673410D01*
X205503855Y-120652773D01*
X214808880Y-111347747D01*
X214870201Y-111314264D01*
X214939893Y-111319248D01*
X214942122Y-111320105D01*
X215125775Y-111392819D01*
X215430527Y-111471066D01*
X215496010Y-111479338D01*
X215742670Y-111510499D01*
X215742679Y-111510499D01*
X215742682Y-111510500D01*
X215742684Y-111510500D01*
X216057316Y-111510500D01*
X216057318Y-111510500D01*
X216057321Y-111510499D01*
X216057329Y-111510499D01*
X216271039Y-111483501D01*
X216369473Y-111471066D01*
X216674225Y-111392819D01*
X216674228Y-111392818D01*
X216966757Y-111276998D01*
X216966758Y-111276997D01*
X216966756Y-111276997D01*
X216966766Y-111276994D01*
X217242484Y-111125416D01*
X217497030Y-110940478D01*
X217726390Y-110725094D01*
X217926947Y-110482663D01*
X218095537Y-110217007D01*
X218229503Y-109932315D01*
X218326731Y-109633079D01*
X218385688Y-109324015D01*
X218385689Y-109324004D01*
X218405444Y-109010005D01*
X218405444Y-109009994D01*
X218385689Y-108695995D01*
X218385688Y-108695988D01*
X218385688Y-108695985D01*
X218326731Y-108386921D01*
X218229503Y-108087685D01*
X218213821Y-108054360D01*
X218140673Y-107898912D01*
X218095537Y-107802993D01*
X218039104Y-107714069D01*
X217926948Y-107537338D01*
X217926945Y-107537334D01*
X217726393Y-107294909D01*
X217726391Y-107294907D01*
X217497031Y-107079523D01*
X217497021Y-107079515D01*
X217242495Y-106894591D01*
X217242488Y-106894586D01*
X217242484Y-106894584D01*
X216966766Y-106743006D01*
X216966763Y-106743004D01*
X216966758Y-106743002D01*
X216966757Y-106743001D01*
X216674228Y-106627181D01*
X216674225Y-106627180D01*
X216369476Y-106548934D01*
X216369463Y-106548932D01*
X216057329Y-106509500D01*
X216057318Y-106509500D01*
X215742682Y-106509500D01*
X215742670Y-106509500D01*
X215430536Y-106548932D01*
X215430523Y-106548934D01*
X215125774Y-106627180D01*
X215125771Y-106627181D01*
X214833242Y-106743001D01*
X214833241Y-106743002D01*
X214557516Y-106894584D01*
X214557504Y-106894591D01*
X214302978Y-107079515D01*
X214302968Y-107079523D01*
X214073608Y-107294907D01*
X214073606Y-107294909D01*
X213873054Y-107537334D01*
X213873051Y-107537338D01*
X213704464Y-107802990D01*
X213704461Y-107802996D01*
X213570499Y-108087678D01*
X213570497Y-108087683D01*
X213473270Y-108386916D01*
X213414311Y-108695988D01*
X213414310Y-108695995D01*
X213394556Y-109009994D01*
X213394556Y-109010005D01*
X213414310Y-109324004D01*
X213414311Y-109324011D01*
X213473270Y-109633083D01*
X213570497Y-109932315D01*
X213584767Y-109962640D01*
X213595501Y-110031680D01*
X213567204Y-110095564D01*
X213560250Y-110103119D01*
X203901337Y-119762031D01*
X203901336Y-119762032D01*
X203804863Y-119906415D01*
X203738418Y-120066830D01*
X203738415Y-120066842D01*
X203705863Y-120230492D01*
X203705862Y-120230497D01*
X203704541Y-120237136D01*
X203704541Y-126112339D01*
X203684856Y-126179378D01*
X203650393Y-126214792D01*
X203522827Y-126301765D01*
X203335993Y-126475121D01*
X203335991Y-126475123D01*
X203177082Y-126674388D01*
X203049649Y-126895109D01*
X202956533Y-127132362D01*
X202956531Y-127132369D01*
X202899818Y-127380845D01*
X202880773Y-127634995D01*
X198786540Y-127634995D01*
X198786540Y-126387128D01*
X198780132Y-126327517D01*
X198770528Y-126301768D01*
X198729838Y-126192671D01*
X198729834Y-126192664D01*
X198643588Y-126077455D01*
X198643585Y-126077452D01*
X198528376Y-125991206D01*
X198528369Y-125991202D01*
X198393523Y-125940908D01*
X198393524Y-125940908D01*
X198333924Y-125934501D01*
X198333922Y-125934500D01*
X198333914Y-125934500D01*
X198333905Y-125934500D01*
X195838170Y-125934500D01*
X195838164Y-125934501D01*
X195778557Y-125940908D01*
X195643712Y-125991202D01*
X195643705Y-125991206D01*
X195528496Y-126077452D01*
X195528493Y-126077455D01*
X195442247Y-126192664D01*
X195442243Y-126192671D01*
X195391949Y-126327517D01*
X195385542Y-126387116D01*
X195385542Y-126387123D01*
X195385541Y-126387135D01*
X195385541Y-126629500D01*
X195365856Y-126696539D01*
X195313052Y-126742294D01*
X195261541Y-126753500D01*
X184797402Y-126753500D01*
X184730363Y-126733815D01*
X184706172Y-126713483D01*
X184687307Y-126692990D01*
X184534744Y-126527262D01*
X184338509Y-126374526D01*
X184338507Y-126374525D01*
X184338506Y-126374524D01*
X184119811Y-126256172D01*
X184119802Y-126256169D01*
X183884616Y-126175429D01*
X183639335Y-126134500D01*
X183390665Y-126134500D01*
X183145383Y-126175429D01*
X182910197Y-126256169D01*
X182910188Y-126256172D01*
X182691493Y-126374524D01*
X182562244Y-126475123D01*
X182495256Y-126527262D01*
X182357124Y-126677314D01*
X182323828Y-126713483D01*
X182263941Y-126749473D01*
X182232598Y-126753500D01*
X178216491Y-126753500D01*
X178149452Y-126733815D01*
X178128810Y-126717181D01*
X173916927Y-122505296D01*
X173916926Y-122505295D01*
X173772543Y-122408822D01*
X173612128Y-122342377D01*
X173612118Y-122342374D01*
X173441823Y-122308500D01*
X173441821Y-122308500D01*
X173441820Y-122308500D01*
X161706492Y-122308500D01*
X161639453Y-122288815D01*
X161618811Y-122272181D01*
X158676927Y-119330296D01*
X158676926Y-119330295D01*
X158532543Y-119233822D01*
X158372128Y-119167377D01*
X158372118Y-119167374D01*
X158201823Y-119133500D01*
X158201821Y-119133500D01*
X158201820Y-119133500D01*
X155803040Y-119133500D01*
X155736001Y-119113815D01*
X155719502Y-119101137D01*
X155666562Y-119052876D01*
X155666560Y-119052874D01*
X155477404Y-118935754D01*
X155477398Y-118935752D01*
X155269940Y-118855382D01*
X155051243Y-118814500D01*
X154828757Y-118814500D01*
X154610060Y-118855382D01*
X154478864Y-118906207D01*
X154402601Y-118935752D01*
X154402595Y-118935754D01*
X154213439Y-119052874D01*
X154213437Y-119052876D01*
X154049020Y-119202761D01*
X153914943Y-119380308D01*
X153914938Y-119380316D01*
X153815775Y-119579461D01*
X153815769Y-119579476D01*
X153754885Y-119793462D01*
X153754884Y-119793464D01*
X153734357Y-120014999D01*
X153734357Y-120015000D01*
X153754884Y-120236535D01*
X153754885Y-120236537D01*
X153815769Y-120450523D01*
X153815775Y-120450538D01*
X153914938Y-120649683D01*
X153914943Y-120649691D01*
X154049020Y-120827238D01*
X154213437Y-120977123D01*
X154213439Y-120977125D01*
X154402595Y-121094245D01*
X154402596Y-121094245D01*
X154402599Y-121094247D01*
X154610060Y-121174618D01*
X154828757Y-121215500D01*
X154828759Y-121215500D01*
X155051241Y-121215500D01*
X155051243Y-121215500D01*
X155269940Y-121174618D01*
X155477401Y-121094247D01*
X155666562Y-120977124D01*
X155719502Y-120928863D01*
X155782306Y-120898246D01*
X155803040Y-120896500D01*
X157698508Y-120896500D01*
X157765547Y-120916185D01*
X157786189Y-120932819D01*
X159955689Y-123102319D01*
X159989174Y-123163642D01*
X159984190Y-123233334D01*
X159955689Y-123277681D01*
X159691189Y-123542181D01*
X159629866Y-123575666D01*
X159603508Y-123578500D01*
X155803040Y-123578500D01*
X155736001Y-123558815D01*
X155719502Y-123546137D01*
X155666562Y-123497876D01*
X155666560Y-123497874D01*
X155477404Y-123380754D01*
X155477398Y-123380752D01*
X155269940Y-123300382D01*
X155051243Y-123259500D01*
X154828757Y-123259500D01*
X154610060Y-123300382D01*
X154478864Y-123351207D01*
X154402601Y-123380752D01*
X154402595Y-123380754D01*
X154213439Y-123497874D01*
X154213437Y-123497876D01*
X154049020Y-123647761D01*
X153926333Y-123810227D01*
X153870224Y-123851863D01*
X153827379Y-123859500D01*
X133650097Y-123859500D01*
X133583058Y-123839815D01*
X133562416Y-123823181D01*
X129481314Y-119742079D01*
X129447829Y-119680756D01*
X129449730Y-119620460D01*
X129455115Y-119601536D01*
X129475643Y-119380000D01*
X129469886Y-119317876D01*
X129455115Y-119158464D01*
X129455114Y-119158462D01*
X129425072Y-119052876D01*
X129394229Y-118944472D01*
X129389888Y-118935754D01*
X129295061Y-118745316D01*
X129295056Y-118745308D01*
X129160979Y-118567761D01*
X128996562Y-118417876D01*
X128996560Y-118417874D01*
X128807404Y-118300754D01*
X128807398Y-118300752D01*
X128787388Y-118293000D01*
X128599940Y-118220382D01*
X128381243Y-118179500D01*
X128158757Y-118179500D01*
X127940060Y-118220382D01*
X127844968Y-118257221D01*
X127732601Y-118300752D01*
X127732595Y-118300754D01*
X127543439Y-118417874D01*
X127543437Y-118417876D01*
X127379020Y-118567761D01*
X127244943Y-118745308D01*
X127244938Y-118745316D01*
X127145775Y-118944461D01*
X127145769Y-118944476D01*
X127084885Y-119158462D01*
X127084884Y-119158464D01*
X127064357Y-119379999D01*
X124395643Y-119379999D01*
X124389886Y-119317876D01*
X124375115Y-119158464D01*
X124375114Y-119158462D01*
X124345072Y-119052876D01*
X124314229Y-118944472D01*
X124309888Y-118935754D01*
X124215061Y-118745316D01*
X124215056Y-118745308D01*
X124080979Y-118567761D01*
X123916562Y-118417876D01*
X123916560Y-118417874D01*
X123727404Y-118300754D01*
X123727398Y-118300752D01*
X123707388Y-118293000D01*
X123519940Y-118220382D01*
X123301243Y-118179500D01*
X123078757Y-118179500D01*
X122860060Y-118220382D01*
X122764968Y-118257221D01*
X122652601Y-118300752D01*
X122652595Y-118300754D01*
X122463439Y-118417874D01*
X122463437Y-118417876D01*
X122299020Y-118567761D01*
X122164943Y-118745308D01*
X122164936Y-118745320D01*
X122065775Y-118944462D01*
X122065768Y-118944480D01*
X122044551Y-119019050D01*
X122012966Y-119072796D01*
X118532584Y-122553181D01*
X118471261Y-122586666D01*
X118444903Y-122589500D01*
X116359499Y-122589500D01*
X116292460Y-122569815D01*
X116246705Y-122517011D01*
X116235499Y-122465500D01*
X116235499Y-122342129D01*
X116235498Y-122342123D01*
X116235497Y-122342116D01*
X116229091Y-122282517D01*
X116224829Y-122271091D01*
X116178797Y-122147671D01*
X116178793Y-122147664D01*
X116092547Y-122032455D01*
X116092544Y-122032452D01*
X115977335Y-121946206D01*
X115977328Y-121946202D01*
X115842482Y-121895908D01*
X115842483Y-121895908D01*
X115782883Y-121889501D01*
X115782881Y-121889500D01*
X115782873Y-121889500D01*
X115782864Y-121889500D01*
X114087129Y-121889500D01*
X114087123Y-121889501D01*
X114027516Y-121895908D01*
X113892671Y-121946202D01*
X113892664Y-121946206D01*
X113777455Y-122032452D01*
X113777452Y-122032455D01*
X113691206Y-122147664D01*
X113691202Y-122147671D01*
X113640908Y-122282517D01*
X113637900Y-122310500D01*
X113634501Y-122342123D01*
X113634500Y-122342135D01*
X113634500Y-124037870D01*
X113634501Y-124037876D01*
X113640908Y-124097483D01*
X113691202Y-124232328D01*
X113691206Y-124232335D01*
X113777452Y-124347544D01*
X113777455Y-124347547D01*
X113892664Y-124433793D01*
X113892673Y-124433798D01*
X113972832Y-124463695D01*
X114028766Y-124505565D01*
X114053184Y-124571030D01*
X114053500Y-124579877D01*
X114053500Y-126625951D01*
X114033815Y-126692990D01*
X114017181Y-126713632D01*
X113934954Y-126795858D01*
X113804432Y-126982265D01*
X113804431Y-126982267D01*
X113708261Y-127188502D01*
X113708258Y-127188511D01*
X113649366Y-127408302D01*
X113649364Y-127408313D01*
X113629532Y-127634998D01*
X96234444Y-127634998D01*
X96204289Y-127558165D01*
X96079102Y-127341335D01*
X95922997Y-127145586D01*
X95922996Y-127145585D01*
X95922993Y-127145581D01*
X95739460Y-126975288D01*
X95663430Y-126923452D01*
X95532592Y-126834248D01*
X95532588Y-126834246D01*
X95532585Y-126834244D01*
X95532584Y-126834243D01*
X95307015Y-126725616D01*
X95307017Y-126725616D01*
X95067765Y-126651816D01*
X95067759Y-126651814D01*
X94820194Y-126614500D01*
X94820187Y-126614500D01*
X94569813Y-126614500D01*
X94569805Y-126614500D01*
X94322240Y-126651814D01*
X94322234Y-126651816D01*
X94082983Y-126725616D01*
X93857415Y-126834243D01*
X93857414Y-126834244D01*
X93650539Y-126975288D01*
X93467006Y-127145581D01*
X93310898Y-127341335D01*
X93185711Y-127558164D01*
X93094242Y-127791225D01*
X93094236Y-127791244D01*
X93038525Y-128035331D01*
X93038524Y-128035336D01*
X93019816Y-128284995D01*
X89734239Y-128284995D01*
X91920520Y-126098716D01*
X91999577Y-125961784D01*
X92040501Y-125809057D01*
X92040501Y-125650942D01*
X92040501Y-125643347D01*
X92040500Y-125643329D01*
X92040500Y-120739500D01*
X92060185Y-120672461D01*
X92112989Y-120626706D01*
X92164500Y-120615500D01*
X96042379Y-120615500D01*
X96109418Y-120635185D01*
X96141333Y-120664773D01*
X96264020Y-120827238D01*
X96428437Y-120977123D01*
X96428439Y-120977125D01*
X96617595Y-121094245D01*
X96617596Y-121094245D01*
X96617599Y-121094247D01*
X96825060Y-121174618D01*
X97043757Y-121215500D01*
X97043759Y-121215500D01*
X97266241Y-121215500D01*
X97266243Y-121215500D01*
X97484940Y-121174618D01*
X97692401Y-121094247D01*
X97881562Y-120977124D01*
X98045981Y-120827236D01*
X98180058Y-120649689D01*
X98279229Y-120450528D01*
X98332016Y-120265000D01*
X101058505Y-120265000D01*
X101111239Y-120450349D01*
X101210368Y-120649425D01*
X101344391Y-120826900D01*
X101508738Y-120976721D01*
X101697820Y-121093797D01*
X101697822Y-121093798D01*
X101905195Y-121174135D01*
X101985000Y-121189052D01*
X102485000Y-121189052D01*
X102564804Y-121174135D01*
X102772177Y-121093798D01*
X102772179Y-121093797D01*
X102961261Y-120976721D01*
X103125608Y-120826900D01*
X103259631Y-120649425D01*
X103358760Y-120450349D01*
X103411495Y-120265000D01*
X102485000Y-120265000D01*
X102485000Y-121189052D01*
X101985000Y-121189052D01*
X101985000Y-120265000D01*
X101058505Y-120265000D01*
X98332016Y-120265000D01*
X98340115Y-120236536D01*
X98360643Y-120015000D01*
X98356373Y-119968922D01*
X101885000Y-119968922D01*
X101885000Y-120061078D01*
X101908852Y-120150095D01*
X101954930Y-120229905D01*
X102020095Y-120295070D01*
X102099905Y-120341148D01*
X102188922Y-120365000D01*
X102281078Y-120365000D01*
X102370095Y-120341148D01*
X102449905Y-120295070D01*
X102515070Y-120229905D01*
X102561148Y-120150095D01*
X102585000Y-120061078D01*
X102585000Y-119968922D01*
X102561148Y-119879905D01*
X102515070Y-119800095D01*
X102479975Y-119765000D01*
X102485000Y-119765000D01*
X103411495Y-119765000D01*
X103358760Y-119579650D01*
X103259631Y-119380574D01*
X103125608Y-119203099D01*
X102961261Y-119053278D01*
X102772179Y-118936202D01*
X102772177Y-118936201D01*
X102564799Y-118855864D01*
X102485000Y-118840946D01*
X102485000Y-119765000D01*
X102479975Y-119765000D01*
X102449905Y-119734930D01*
X102370095Y-119688852D01*
X102281078Y-119665000D01*
X102188922Y-119665000D01*
X102099905Y-119688852D01*
X102020095Y-119734930D01*
X101954930Y-119800095D01*
X101908852Y-119879905D01*
X101885000Y-119968922D01*
X98356373Y-119968922D01*
X98342159Y-119815528D01*
X98340115Y-119793464D01*
X98340114Y-119793462D01*
X98332016Y-119765000D01*
X101058505Y-119765000D01*
X101985000Y-119765000D01*
X101985000Y-118840946D01*
X101905200Y-118855864D01*
X101697822Y-118936201D01*
X101697820Y-118936202D01*
X101508738Y-119053278D01*
X101344391Y-119203099D01*
X101210368Y-119380574D01*
X101111239Y-119579650D01*
X101058505Y-119765000D01*
X98332016Y-119765000D01*
X98331172Y-119762035D01*
X98279229Y-119579472D01*
X98278942Y-119578895D01*
X98180061Y-119380316D01*
X98180056Y-119380308D01*
X98045979Y-119202761D01*
X97881562Y-119052876D01*
X97881560Y-119052874D01*
X97692404Y-118935754D01*
X97692398Y-118935752D01*
X97484940Y-118855382D01*
X97266243Y-118814500D01*
X97043757Y-118814500D01*
X96825060Y-118855382D01*
X96693864Y-118906207D01*
X96617601Y-118935752D01*
X96617595Y-118935754D01*
X96428439Y-119052874D01*
X96428437Y-119052876D01*
X96264020Y-119202761D01*
X96141333Y-119365227D01*
X96085224Y-119406863D01*
X96042379Y-119414500D01*
X91360943Y-119414500D01*
X91208216Y-119455423D01*
X91208209Y-119455426D01*
X91071290Y-119534475D01*
X91071282Y-119534481D01*
X90959481Y-119646282D01*
X90959475Y-119646290D01*
X90880426Y-119783209D01*
X90880423Y-119783216D01*
X90839500Y-119935943D01*
X90839500Y-125429901D01*
X90819815Y-125496940D01*
X90803181Y-125517582D01*
X87989679Y-128331083D01*
X87928356Y-128364568D01*
X87879213Y-128365290D01*
X87741243Y-128339500D01*
X87518757Y-128339500D01*
X87300060Y-128380382D01*
X87207668Y-128416175D01*
X87092601Y-128460752D01*
X87092595Y-128460754D01*
X86903439Y-128577874D01*
X86903437Y-128577876D01*
X86739020Y-128727761D01*
X86604943Y-128905308D01*
X86604938Y-128905316D01*
X86505775Y-129104461D01*
X86505769Y-129104476D01*
X86444885Y-129318462D01*
X86444884Y-129318464D01*
X86424357Y-129539999D01*
X83755643Y-129539999D01*
X83736693Y-129335499D01*
X83735115Y-129318464D01*
X83735114Y-129318462D01*
X83729729Y-129299536D01*
X83674229Y-129104472D01*
X83669299Y-129094571D01*
X83575061Y-128905316D01*
X83575056Y-128905308D01*
X83440979Y-128727761D01*
X83276562Y-128577876D01*
X83276560Y-128577874D01*
X83087404Y-128460754D01*
X83087398Y-128460752D01*
X82879940Y-128380382D01*
X82661243Y-128339500D01*
X82438757Y-128339500D01*
X82220060Y-128380382D01*
X82127668Y-128416175D01*
X82012601Y-128460752D01*
X82012595Y-128460754D01*
X81823439Y-128577874D01*
X81823437Y-128577876D01*
X81659020Y-128727761D01*
X81536333Y-128890227D01*
X81480224Y-128931863D01*
X81437379Y-128939500D01*
X77417312Y-128939500D01*
X77350273Y-128919815D01*
X77318358Y-128890227D01*
X77246762Y-128795418D01*
X77096041Y-128658019D01*
X77096039Y-128658017D01*
X76922642Y-128550655D01*
X76922635Y-128550651D01*
X76827546Y-128513814D01*
X76732456Y-128476976D01*
X76531976Y-128439500D01*
X76328024Y-128439500D01*
X76127544Y-128476976D01*
X76127541Y-128476976D01*
X76127541Y-128476977D01*
X75940626Y-128549388D01*
X75871002Y-128555250D01*
X75821521Y-128533027D01*
X75772335Y-128496206D01*
X75772328Y-128496202D01*
X75637482Y-128445908D01*
X75629938Y-128444126D01*
X75630474Y-128441853D01*
X75576688Y-128419571D01*
X75536843Y-128362177D01*
X75530500Y-128323024D01*
X75530500Y-118172135D01*
X137814500Y-118172135D01*
X137814500Y-119317870D01*
X137814501Y-119317876D01*
X137820908Y-119377483D01*
X137871202Y-119512328D01*
X137871203Y-119512330D01*
X137871204Y-119512331D01*
X137872028Y-119513432D01*
X137872509Y-119514721D01*
X137875454Y-119520114D01*
X137874678Y-119520537D01*
X137896448Y-119578895D01*
X137887325Y-119635198D01*
X137853910Y-119715868D01*
X137853907Y-119715880D01*
X137814500Y-119913992D01*
X137814500Y-120116007D01*
X137853907Y-120314119D01*
X137853909Y-120314127D01*
X137931213Y-120500755D01*
X137984904Y-120581109D01*
X138005782Y-120647787D01*
X137987297Y-120715167D01*
X137984904Y-120718891D01*
X137931213Y-120799244D01*
X137853909Y-120985872D01*
X137853907Y-120985880D01*
X137814500Y-121183992D01*
X137814500Y-121386007D01*
X137853907Y-121584119D01*
X137853909Y-121584127D01*
X137931212Y-121770752D01*
X137931217Y-121770762D01*
X138043441Y-121938718D01*
X138186281Y-122081558D01*
X138354237Y-122193782D01*
X138354241Y-122193784D01*
X138354244Y-122193786D01*
X138540873Y-122271091D01*
X138728942Y-122308500D01*
X138738992Y-122310499D01*
X138738996Y-122310500D01*
X138738997Y-122310500D01*
X139391004Y-122310500D01*
X139391005Y-122310499D01*
X139589127Y-122271091D01*
X139775756Y-122193786D01*
X139943718Y-122081558D01*
X140086558Y-121938718D01*
X140198786Y-121770756D01*
X140276091Y-121584127D01*
X140315500Y-121386003D01*
X140315500Y-121183997D01*
X140276091Y-120985873D01*
X140198786Y-120799244D01*
X140145094Y-120718889D01*
X140124217Y-120652214D01*
X140142701Y-120584834D01*
X140145078Y-120581134D01*
X140198786Y-120500756D01*
X140276091Y-120314127D01*
X140315500Y-120116003D01*
X140315500Y-119913997D01*
X140276091Y-119715873D01*
X140242673Y-119635198D01*
X140235205Y-119565730D01*
X140254964Y-119520340D01*
X140254547Y-119520112D01*
X140257095Y-119515444D01*
X140257972Y-119513431D01*
X140258796Y-119512331D01*
X140309091Y-119377483D01*
X140315500Y-119317873D01*
X140315499Y-118172128D01*
X140309091Y-118112517D01*
X140297976Y-118082717D01*
X140258797Y-117977671D01*
X140258793Y-117977664D01*
X140172547Y-117862455D01*
X140172544Y-117862452D01*
X140057335Y-117776206D01*
X140057328Y-117776202D01*
X139922482Y-117725908D01*
X139922483Y-117725908D01*
X139862883Y-117719501D01*
X139862881Y-117719500D01*
X139862873Y-117719500D01*
X139862864Y-117719500D01*
X138267129Y-117719500D01*
X138267123Y-117719501D01*
X138207516Y-117725908D01*
X138072671Y-117776202D01*
X138072664Y-117776206D01*
X137957455Y-117862452D01*
X137957452Y-117862455D01*
X137871206Y-117977664D01*
X137871202Y-117977671D01*
X137820908Y-118112517D01*
X137814501Y-118172116D01*
X137814501Y-118172123D01*
X137814500Y-118172135D01*
X75530500Y-118172135D01*
X75530500Y-110999499D01*
X75550185Y-110932460D01*
X75602989Y-110886705D01*
X75654500Y-110875499D01*
X76730002Y-110875499D01*
X76730008Y-110875499D01*
X76832797Y-110864999D01*
X76999334Y-110809814D01*
X77148656Y-110717712D01*
X77272712Y-110593656D01*
X77364814Y-110444334D01*
X77419999Y-110277797D01*
X77430500Y-110175009D01*
X77430499Y-106784983D01*
X91479500Y-106784983D01*
X91479500Y-110385001D01*
X91479501Y-110385018D01*
X91490000Y-110487796D01*
X91490001Y-110487799D01*
X91545185Y-110654331D01*
X91545187Y-110654336D01*
X91549002Y-110660521D01*
X91637288Y-110803656D01*
X91761344Y-110927712D01*
X91910666Y-111019814D01*
X92077203Y-111074999D01*
X92179991Y-111085500D01*
X95780008Y-111085499D01*
X95882797Y-111074999D01*
X96049334Y-111019814D01*
X96198656Y-110927712D01*
X96322712Y-110803656D01*
X96414814Y-110654334D01*
X96469999Y-110487797D01*
X96480500Y-110385009D01*
X96480500Y-109309500D01*
X96500185Y-109242461D01*
X96552989Y-109196706D01*
X96604500Y-109185500D01*
X112308331Y-109185500D01*
X112308347Y-109185501D01*
X112315943Y-109185501D01*
X112474054Y-109185501D01*
X112474057Y-109185501D01*
X112626785Y-109144577D01*
X112676904Y-109115639D01*
X112763716Y-109065520D01*
X112875520Y-108953716D01*
X112875520Y-108953714D01*
X112885728Y-108943507D01*
X112885730Y-108943504D01*
X114575319Y-107253914D01*
X114636640Y-107220431D01*
X114685783Y-107219708D01*
X114823757Y-107245500D01*
X114823759Y-107245500D01*
X115046241Y-107245500D01*
X115046243Y-107245500D01*
X115264940Y-107204618D01*
X115472401Y-107124247D01*
X115661562Y-107007124D01*
X115825981Y-106857236D01*
X115948667Y-106694772D01*
X116004776Y-106653137D01*
X116047621Y-106645500D01*
X153827379Y-106645500D01*
X153894418Y-106665185D01*
X153926332Y-106694772D01*
X153938157Y-106710431D01*
X154049020Y-106857238D01*
X154213437Y-107007123D01*
X154213439Y-107007125D01*
X154402595Y-107124245D01*
X154402596Y-107124245D01*
X154402599Y-107124247D01*
X154610060Y-107204618D01*
X154828757Y-107245500D01*
X154828759Y-107245500D01*
X155051241Y-107245500D01*
X155051243Y-107245500D01*
X155269940Y-107204618D01*
X155477401Y-107124247D01*
X155666562Y-107007124D01*
X155830981Y-106857236D01*
X155953667Y-106694772D01*
X156009776Y-106653137D01*
X156052621Y-106645500D01*
X160989903Y-106645500D01*
X161056942Y-106665185D01*
X161077583Y-106681818D01*
X166636284Y-112240520D01*
X166636286Y-112240521D01*
X166636290Y-112240524D01*
X166773209Y-112319573D01*
X166773216Y-112319577D01*
X166925943Y-112360501D01*
X166925945Y-112360501D01*
X167091654Y-112360501D01*
X167091670Y-112360500D01*
X167285501Y-112360500D01*
X167352540Y-112380185D01*
X167398295Y-112432989D01*
X167409501Y-112484500D01*
X167409501Y-112760376D01*
X167415908Y-112819983D01*
X167466202Y-112954828D01*
X167466206Y-112954835D01*
X167552452Y-113070044D01*
X167552455Y-113070047D01*
X167667664Y-113156293D01*
X167667669Y-113156296D01*
X167695539Y-113166690D01*
X167751473Y-113208561D01*
X167775891Y-113274024D01*
X167761040Y-113342298D01*
X167752525Y-113355759D01*
X167619783Y-113538461D01*
X167572227Y-113631795D01*
X167524252Y-113682591D01*
X167461742Y-113699500D01*
X165400097Y-113699500D01*
X165333058Y-113679815D01*
X165312416Y-113663181D01*
X162412590Y-110763355D01*
X162412588Y-110763352D01*
X162293717Y-110644481D01*
X162293716Y-110644480D01*
X162186948Y-110582838D01*
X162186947Y-110582837D01*
X162156783Y-110565422D01*
X162094438Y-110548717D01*
X162004057Y-110524499D01*
X161845943Y-110524499D01*
X161838347Y-110524499D01*
X161838331Y-110524500D01*
X156052621Y-110524500D01*
X155985582Y-110504815D01*
X155953667Y-110475227D01*
X155929959Y-110443833D01*
X155864892Y-110357669D01*
X155830979Y-110312761D01*
X155666562Y-110162876D01*
X155666560Y-110162874D01*
X155477404Y-110045754D01*
X155477398Y-110045752D01*
X155441074Y-110031680D01*
X155269940Y-109965382D01*
X155051243Y-109924500D01*
X154828757Y-109924500D01*
X154610060Y-109965382D01*
X154478864Y-110016207D01*
X154402601Y-110045752D01*
X154402595Y-110045754D01*
X154213439Y-110162874D01*
X154213437Y-110162876D01*
X154049020Y-110312761D01*
X153926333Y-110475227D01*
X153870224Y-110516863D01*
X153827379Y-110524500D01*
X148255097Y-110524500D01*
X148188058Y-110504815D01*
X148167416Y-110488181D01*
X145902590Y-108223355D01*
X145902588Y-108223352D01*
X145783717Y-108104481D01*
X145783716Y-108104480D01*
X145696904Y-108054360D01*
X145696904Y-108054359D01*
X145696900Y-108054358D01*
X145646785Y-108025423D01*
X145494057Y-107984499D01*
X145335943Y-107984499D01*
X145328347Y-107984499D01*
X145328331Y-107984500D01*
X140823397Y-107984500D01*
X140756358Y-107964815D01*
X140726288Y-107935279D01*
X140725422Y-107935990D01*
X140721555Y-107931278D01*
X140578718Y-107788441D01*
X140410762Y-107676217D01*
X140410752Y-107676212D01*
X140224127Y-107598909D01*
X140224119Y-107598907D01*
X140026007Y-107559500D01*
X140026003Y-107559500D01*
X139373997Y-107559500D01*
X139373992Y-107559500D01*
X139175880Y-107598907D01*
X139175872Y-107598909D01*
X138989247Y-107676212D01*
X138989237Y-107676217D01*
X138821281Y-107788441D01*
X138678441Y-107931281D01*
X138566217Y-108099237D01*
X138566212Y-108099247D01*
X138488909Y-108285872D01*
X138488907Y-108285880D01*
X138449500Y-108483992D01*
X138449500Y-108686007D01*
X138488907Y-108884119D01*
X138488909Y-108884127D01*
X138566214Y-109070757D01*
X138566900Y-109072040D01*
X138567056Y-109072789D01*
X138568545Y-109076384D01*
X138567863Y-109076666D01*
X138581147Y-109140442D01*
X138556151Y-109205687D01*
X138499848Y-109247061D01*
X138457546Y-109254500D01*
X126920942Y-109254500D01*
X126768214Y-109295423D01*
X126718693Y-109324015D01*
X126718692Y-109324015D01*
X126631287Y-109374477D01*
X126631282Y-109374481D01*
X126519478Y-109486286D01*
X125517584Y-110488181D01*
X125456261Y-110521666D01*
X125429903Y-110524500D01*
X116047621Y-110524500D01*
X115980582Y-110504815D01*
X115948667Y-110475227D01*
X115924959Y-110443833D01*
X115859892Y-110357669D01*
X115825979Y-110312761D01*
X115661562Y-110162876D01*
X115661560Y-110162874D01*
X115472404Y-110045754D01*
X115472398Y-110045752D01*
X115436074Y-110031680D01*
X115264940Y-109965382D01*
X115046243Y-109924500D01*
X114823757Y-109924500D01*
X114605060Y-109965382D01*
X114473864Y-110016207D01*
X114397601Y-110045752D01*
X114397595Y-110045754D01*
X114208439Y-110162874D01*
X114208437Y-110162876D01*
X114044020Y-110312761D01*
X113909943Y-110490308D01*
X113909938Y-110490316D01*
X113810775Y-110689461D01*
X113810769Y-110689476D01*
X113749885Y-110903462D01*
X113749884Y-110903464D01*
X113729357Y-111124999D01*
X113729357Y-111125000D01*
X113749884Y-111346535D01*
X113749885Y-111346537D01*
X113810769Y-111560523D01*
X113810775Y-111560538D01*
X113909938Y-111759683D01*
X113909943Y-111759691D01*
X113974366Y-111845001D01*
X114010111Y-111892335D01*
X114028454Y-111916624D01*
X114053146Y-111981985D01*
X114053500Y-111991351D01*
X114053500Y-114560951D01*
X114033815Y-114627990D01*
X114017181Y-114648632D01*
X113934954Y-114730858D01*
X113804432Y-114917265D01*
X113804431Y-114917267D01*
X113708261Y-115123502D01*
X113708258Y-115123511D01*
X113649366Y-115343302D01*
X113649364Y-115343313D01*
X113629532Y-115569998D01*
X113629532Y-115570001D01*
X113649364Y-115796686D01*
X113649366Y-115796697D01*
X113708258Y-116016488D01*
X113708261Y-116016497D01*
X113804431Y-116222732D01*
X113804432Y-116222734D01*
X113934954Y-116409141D01*
X114095858Y-116570045D01*
X114095861Y-116570047D01*
X114282266Y-116700568D01*
X114488504Y-116796739D01*
X114708308Y-116855635D01*
X114870230Y-116869801D01*
X114934998Y-116875468D01*
X114935000Y-116875468D01*
X114935002Y-116875468D01*
X114991673Y-116870509D01*
X115161692Y-116855635D01*
X115381496Y-116796739D01*
X115587734Y-116700568D01*
X115774139Y-116570047D01*
X115935047Y-116409139D01*
X116065568Y-116222734D01*
X116161739Y-116016496D01*
X116220635Y-115796692D01*
X116240468Y-115570000D01*
X116220635Y-115343308D01*
X116161739Y-115123504D01*
X116065568Y-114917266D01*
X115935047Y-114730861D01*
X115935045Y-114730858D01*
X115852819Y-114648632D01*
X115819334Y-114587309D01*
X115816500Y-114560951D01*
X115816500Y-111991351D01*
X115836185Y-111924312D01*
X115841546Y-111916624D01*
X115859889Y-111892335D01*
X115948667Y-111774772D01*
X116004776Y-111733137D01*
X116047621Y-111725500D01*
X125643331Y-111725500D01*
X125643347Y-111725501D01*
X125650943Y-111725501D01*
X125809054Y-111725501D01*
X125809057Y-111725501D01*
X125961785Y-111684577D01*
X126011904Y-111655639D01*
X126098716Y-111605520D01*
X126210520Y-111493716D01*
X126210520Y-111493714D01*
X126220728Y-111483507D01*
X126220729Y-111483504D01*
X127212416Y-110491819D01*
X127273739Y-110458334D01*
X127300097Y-110455500D01*
X138325500Y-110455500D01*
X138392539Y-110475185D01*
X138438294Y-110527989D01*
X138449500Y-110579500D01*
X138449500Y-111697870D01*
X138449501Y-111697876D01*
X138455908Y-111757483D01*
X138506202Y-111892328D01*
X138506206Y-111892335D01*
X138592452Y-112007544D01*
X138592455Y-112007547D01*
X138707664Y-112093793D01*
X138707671Y-112093797D01*
X138842517Y-112144091D01*
X138842516Y-112144091D01*
X138849444Y-112144835D01*
X138902127Y-112150500D01*
X140497872Y-112150499D01*
X140557483Y-112144091D01*
X140692331Y-112093796D01*
X140807546Y-112007546D01*
X140893796Y-111892331D01*
X140906559Y-111858111D01*
X140925934Y-111806166D01*
X140967806Y-111750233D01*
X141033270Y-111725816D01*
X141042116Y-111725500D01*
X145114903Y-111725500D01*
X145181942Y-111745185D01*
X145202583Y-111761818D01*
X148856284Y-115415520D01*
X148856286Y-115415521D01*
X148856290Y-115415524D01*
X148950096Y-115469682D01*
X148993216Y-115494577D01*
X149145943Y-115535501D01*
X149145945Y-115535501D01*
X149311654Y-115535501D01*
X149311670Y-115535500D01*
X153827379Y-115535500D01*
X153894418Y-115555185D01*
X153926333Y-115584773D01*
X154049020Y-115747238D01*
X154213437Y-115897123D01*
X154213439Y-115897125D01*
X154402595Y-116014245D01*
X154402596Y-116014245D01*
X154402599Y-116014247D01*
X154610060Y-116094618D01*
X154828757Y-116135500D01*
X154828759Y-116135500D01*
X155051241Y-116135500D01*
X155051243Y-116135500D01*
X155269940Y-116094618D01*
X155477401Y-116014247D01*
X155666562Y-115897124D01*
X155830981Y-115747236D01*
X155953667Y-115584772D01*
X156009776Y-115543137D01*
X156052621Y-115535500D01*
X161624903Y-115535500D01*
X161691942Y-115555185D01*
X161712584Y-115571819D01*
X163345139Y-117204374D01*
X163345149Y-117204385D01*
X163349479Y-117208715D01*
X163349480Y-117208716D01*
X163461284Y-117320520D01*
X163548095Y-117370639D01*
X163548097Y-117370641D01*
X163586151Y-117392611D01*
X163598215Y-117399577D01*
X163750943Y-117440501D01*
X163750946Y-117440501D01*
X163916653Y-117440501D01*
X163916669Y-117440500D01*
X167461742Y-117440500D01*
X167528781Y-117460185D01*
X167572227Y-117508205D01*
X167619783Y-117601538D01*
X167754214Y-117786566D01*
X167915934Y-117948286D01*
X168100962Y-118082717D01*
X168276418Y-118172116D01*
X168304744Y-118186549D01*
X168522251Y-118257221D01*
X168522252Y-118257221D01*
X168522255Y-118257222D01*
X168748146Y-118293000D01*
X168748147Y-118293000D01*
X169071853Y-118293000D01*
X169071854Y-118293000D01*
X169297745Y-118257222D01*
X169297748Y-118257221D01*
X169297749Y-118257221D01*
X169515255Y-118186549D01*
X169515255Y-118186548D01*
X169515258Y-118186548D01*
X169719038Y-118082717D01*
X169904066Y-117948286D01*
X170065786Y-117786566D01*
X170200217Y-117601538D01*
X170304048Y-117397758D01*
X170312859Y-117370641D01*
X170374721Y-117180249D01*
X170374721Y-117180248D01*
X170374722Y-117180245D01*
X170410500Y-116954354D01*
X170410500Y-116725646D01*
X170374722Y-116499755D01*
X170374721Y-116499751D01*
X170374721Y-116499750D01*
X170304049Y-116282244D01*
X170229279Y-116135500D01*
X170200217Y-116078462D01*
X170065786Y-115893434D01*
X169904066Y-115731714D01*
X169819559Y-115670316D01*
X169776896Y-115614988D01*
X169770917Y-115545375D01*
X169803523Y-115483580D01*
X169819556Y-115469685D01*
X169904066Y-115408286D01*
X170065786Y-115246566D01*
X170200217Y-115061538D01*
X170304048Y-114857758D01*
X170312859Y-114830641D01*
X170374721Y-114640249D01*
X170374721Y-114640248D01*
X170374722Y-114640245D01*
X170410500Y-114414354D01*
X170410500Y-114185646D01*
X170374722Y-113959755D01*
X170374721Y-113959751D01*
X170374721Y-113959750D01*
X170304049Y-113742244D01*
X170200216Y-113538461D01*
X170067472Y-113355755D01*
X170043994Y-113289953D01*
X170059819Y-113221899D01*
X170109925Y-113173204D01*
X170124455Y-113166692D01*
X170152331Y-113156296D01*
X170267546Y-113070046D01*
X170353796Y-112954831D01*
X170404091Y-112819983D01*
X170410500Y-112760373D01*
X170410499Y-111160095D01*
X170430184Y-111093057D01*
X170446813Y-111072420D01*
X170848506Y-110670728D01*
X170848511Y-110670724D01*
X170858714Y-110660520D01*
X170858716Y-110660520D01*
X170970520Y-110548716D01*
X171049577Y-110411784D01*
X171085479Y-110277797D01*
X171090500Y-110259058D01*
X171090500Y-110100943D01*
X171090500Y-108249240D01*
X183569311Y-108249240D01*
X183657585Y-108303897D01*
X183847678Y-108377539D01*
X184048072Y-108415000D01*
X184251928Y-108415000D01*
X184452322Y-108377539D01*
X184642412Y-108303899D01*
X184642416Y-108303897D01*
X184730686Y-108249241D01*
X184730686Y-108249240D01*
X198809311Y-108249240D01*
X198897585Y-108303897D01*
X199087678Y-108377539D01*
X199288072Y-108415000D01*
X199491928Y-108415000D01*
X199692322Y-108377539D01*
X199882412Y-108303899D01*
X199882416Y-108303897D01*
X199970686Y-108249241D01*
X199970686Y-108249240D01*
X199390001Y-107668553D01*
X199390000Y-107668553D01*
X198809311Y-108249240D01*
X184730686Y-108249240D01*
X184150001Y-107668553D01*
X184150000Y-107668553D01*
X183569311Y-108249240D01*
X171090500Y-108249240D01*
X171090500Y-104264499D01*
X171110185Y-104197460D01*
X171162989Y-104151705D01*
X171214500Y-104140499D01*
X171509902Y-104140499D01*
X171576941Y-104160184D01*
X171597583Y-104176818D01*
X173600139Y-106179374D01*
X173600149Y-106179385D01*
X173604479Y-106183715D01*
X173604480Y-106183716D01*
X173716284Y-106295520D01*
X173716286Y-106295521D01*
X173716290Y-106295524D01*
X173819879Y-106355330D01*
X173853216Y-106374577D01*
X173965019Y-106404534D01*
X174005942Y-106415500D01*
X174005943Y-106415500D01*
X182933023Y-106415500D01*
X183000062Y-106435185D01*
X183045817Y-106487989D01*
X183053266Y-106515134D01*
X183054124Y-106514932D01*
X183055907Y-106522479D01*
X183106202Y-106657328D01*
X183106206Y-106657335D01*
X183145954Y-106710431D01*
X183170372Y-106775895D01*
X183157688Y-106840013D01*
X183119888Y-106915925D01*
X183119883Y-106915936D01*
X183064097Y-107112007D01*
X183064096Y-107112010D01*
X183045287Y-107314999D01*
X183045287Y-107315000D01*
X183064096Y-107517989D01*
X183064097Y-107517992D01*
X183119883Y-107714063D01*
X183119886Y-107714069D01*
X183210751Y-107896551D01*
X183212533Y-107898911D01*
X183855145Y-107256298D01*
X183850000Y-107275504D01*
X183850000Y-107354496D01*
X183870444Y-107430796D01*
X183909940Y-107499205D01*
X183965795Y-107555060D01*
X184034204Y-107594556D01*
X184110504Y-107615000D01*
X184189496Y-107615000D01*
X184265796Y-107594556D01*
X184334205Y-107555060D01*
X184390060Y-107499205D01*
X184429556Y-107430796D01*
X184450000Y-107354496D01*
X184450000Y-107275504D01*
X184444854Y-107256301D01*
X185087465Y-107898912D01*
X185089247Y-107896553D01*
X185089248Y-107896551D01*
X185180113Y-107714069D01*
X185180116Y-107714063D01*
X185235902Y-107517992D01*
X185235903Y-107517989D01*
X185254713Y-107315000D01*
X185254713Y-107314999D01*
X185235903Y-107112010D01*
X185235902Y-107112008D01*
X185180115Y-106915936D01*
X185180110Y-106915925D01*
X185142311Y-106840013D01*
X185130050Y-106771228D01*
X185154045Y-106710431D01*
X185193796Y-106657331D01*
X185244091Y-106522483D01*
X185244091Y-106522481D01*
X185245874Y-106514938D01*
X185248146Y-106515474D01*
X185270429Y-106461688D01*
X185327823Y-106421843D01*
X185366976Y-106415500D01*
X198173023Y-106415500D01*
X198240062Y-106435185D01*
X198285817Y-106487989D01*
X198293266Y-106515134D01*
X198294124Y-106514932D01*
X198295907Y-106522479D01*
X198346202Y-106657328D01*
X198346206Y-106657335D01*
X198385954Y-106710431D01*
X198410372Y-106775895D01*
X198397688Y-106840013D01*
X198359888Y-106915925D01*
X198359883Y-106915936D01*
X198304097Y-107112007D01*
X198304096Y-107112010D01*
X198285287Y-107314999D01*
X198285287Y-107315000D01*
X198304096Y-107517989D01*
X198304097Y-107517992D01*
X198359883Y-107714063D01*
X198359886Y-107714069D01*
X198450751Y-107896551D01*
X198452533Y-107898911D01*
X199095145Y-107256298D01*
X199090000Y-107275504D01*
X199090000Y-107354496D01*
X199110444Y-107430796D01*
X199149940Y-107499205D01*
X199205795Y-107555060D01*
X199274204Y-107594556D01*
X199350504Y-107615000D01*
X199429496Y-107615000D01*
X199505796Y-107594556D01*
X199574205Y-107555060D01*
X199630060Y-107499205D01*
X199669556Y-107430796D01*
X199690000Y-107354496D01*
X199690000Y-107275504D01*
X199684854Y-107256301D01*
X200327465Y-107898912D01*
X200329247Y-107896553D01*
X200329248Y-107896551D01*
X200420113Y-107714069D01*
X200420116Y-107714063D01*
X200475902Y-107517992D01*
X200475903Y-107517989D01*
X200494713Y-107315000D01*
X200494713Y-107314999D01*
X200475903Y-107112010D01*
X200475902Y-107112008D01*
X200420115Y-106915936D01*
X200420110Y-106915925D01*
X200382311Y-106840013D01*
X200370050Y-106771228D01*
X200394045Y-106710431D01*
X200433796Y-106657331D01*
X200484091Y-106522483D01*
X200490500Y-106462873D01*
X200490499Y-105167128D01*
X200484091Y-105107517D01*
X200459349Y-105041181D01*
X200433797Y-104972671D01*
X200433793Y-104972664D01*
X200347547Y-104857455D01*
X200347544Y-104857452D01*
X200232335Y-104771206D01*
X200232328Y-104771202D01*
X200097482Y-104720908D01*
X200097483Y-104720908D01*
X200037883Y-104714501D01*
X200037881Y-104714500D01*
X200037873Y-104714500D01*
X200037864Y-104714500D01*
X198742129Y-104714500D01*
X198742123Y-104714501D01*
X198682516Y-104720908D01*
X198547671Y-104771202D01*
X198547664Y-104771206D01*
X198432455Y-104857452D01*
X198432452Y-104857455D01*
X198346206Y-104972664D01*
X198346202Y-104972671D01*
X198295908Y-105107517D01*
X198294126Y-105115062D01*
X198291853Y-105114525D01*
X198269571Y-105168312D01*
X198212177Y-105208157D01*
X198173024Y-105214500D01*
X185366977Y-105214500D01*
X185299938Y-105194815D01*
X185254183Y-105142011D01*
X185246733Y-105114865D01*
X185245876Y-105115068D01*
X185244092Y-105107520D01*
X185234900Y-105082876D01*
X185193796Y-104972669D01*
X185193795Y-104972668D01*
X185193793Y-104972664D01*
X185107547Y-104857455D01*
X185107544Y-104857452D01*
X184992335Y-104771206D01*
X184992328Y-104771202D01*
X184857482Y-104720908D01*
X184857483Y-104720908D01*
X184797883Y-104714501D01*
X184797881Y-104714500D01*
X184797873Y-104714500D01*
X184797864Y-104714500D01*
X183502129Y-104714500D01*
X183502123Y-104714501D01*
X183442516Y-104720908D01*
X183307671Y-104771202D01*
X183307664Y-104771206D01*
X183192455Y-104857452D01*
X183192452Y-104857455D01*
X183106206Y-104972664D01*
X183106202Y-104972671D01*
X183055908Y-105107517D01*
X183054126Y-105115062D01*
X183051853Y-105114525D01*
X183029571Y-105168312D01*
X182972177Y-105208157D01*
X182933024Y-105214500D01*
X174385097Y-105214500D01*
X174318058Y-105194815D01*
X174297416Y-105178181D01*
X172776818Y-103657583D01*
X172743333Y-103596260D01*
X172740499Y-103569902D01*
X172740499Y-101092129D01*
X172740498Y-101092123D01*
X172740497Y-101092116D01*
X172734304Y-101034500D01*
X172734091Y-101032516D01*
X172683797Y-100897671D01*
X172683793Y-100897664D01*
X172597547Y-100782455D01*
X172597544Y-100782452D01*
X172482335Y-100696206D01*
X172482328Y-100696202D01*
X172347482Y-100645908D01*
X172347483Y-100645908D01*
X172287883Y-100639501D01*
X172287881Y-100639500D01*
X172287873Y-100639500D01*
X172287864Y-100639500D01*
X168692129Y-100639500D01*
X168692123Y-100639501D01*
X168632516Y-100645908D01*
X168497671Y-100696202D01*
X168497664Y-100696206D01*
X168382455Y-100782452D01*
X168382452Y-100782455D01*
X168296206Y-100897664D01*
X168296202Y-100897671D01*
X168245908Y-101032517D01*
X168241766Y-101071050D01*
X168239501Y-101092123D01*
X168239500Y-101092135D01*
X168239500Y-103687870D01*
X168239501Y-103687876D01*
X168245908Y-103747483D01*
X168296202Y-103882328D01*
X168296206Y-103882335D01*
X168382452Y-103997544D01*
X168382455Y-103997547D01*
X168497664Y-104083793D01*
X168497671Y-104083797D01*
X168632517Y-104134091D01*
X168632516Y-104134091D01*
X168639444Y-104134835D01*
X168692127Y-104140500D01*
X169765500Y-104140499D01*
X169832539Y-104160183D01*
X169878294Y-104212987D01*
X169889500Y-104264499D01*
X169889500Y-109879902D01*
X169869815Y-109946941D01*
X169853181Y-109967583D01*
X169550083Y-110270681D01*
X169488760Y-110304166D01*
X169462402Y-110307000D01*
X167862129Y-110307000D01*
X167862123Y-110307001D01*
X167802516Y-110313408D01*
X167667671Y-110363702D01*
X167667664Y-110363706D01*
X167552455Y-110449952D01*
X167552452Y-110449955D01*
X167466206Y-110565164D01*
X167466202Y-110565171D01*
X167415908Y-110700017D01*
X167409501Y-110759616D01*
X167409500Y-110759635D01*
X167409500Y-111015902D01*
X167389815Y-111082941D01*
X167337011Y-111128696D01*
X167267853Y-111138640D01*
X167204297Y-111109615D01*
X167197819Y-111103583D01*
X161777590Y-105683355D01*
X161777588Y-105683352D01*
X161658717Y-105564481D01*
X161658716Y-105564480D01*
X161551948Y-105502838D01*
X161551947Y-105502837D01*
X161521783Y-105485422D01*
X161465881Y-105470443D01*
X161369057Y-105444499D01*
X161210943Y-105444499D01*
X161203347Y-105444499D01*
X161203331Y-105444500D01*
X156052621Y-105444500D01*
X155985582Y-105424815D01*
X155953667Y-105395227D01*
X155830979Y-105232761D01*
X155666563Y-105082877D01*
X155666562Y-105082876D01*
X155599221Y-105041180D01*
X155552587Y-104989153D01*
X155540500Y-104935754D01*
X155540500Y-102155946D01*
X155540500Y-102155943D01*
X155529700Y-102115636D01*
X155531363Y-102045792D01*
X155570525Y-101987929D01*
X155584183Y-101978129D01*
X155666562Y-101927124D01*
X155830981Y-101777236D01*
X155965058Y-101599689D01*
X156064229Y-101400528D01*
X156125115Y-101186536D01*
X156145643Y-100965000D01*
X156125115Y-100743464D01*
X156064229Y-100529472D01*
X156059418Y-100519810D01*
X155965061Y-100330316D01*
X155965056Y-100330308D01*
X155830979Y-100152761D01*
X155666562Y-100002876D01*
X155666560Y-100002874D01*
X155477404Y-99885754D01*
X155477398Y-99885752D01*
X155475457Y-99885000D01*
X155269940Y-99805382D01*
X155051243Y-99764500D01*
X154828757Y-99764500D01*
X154610060Y-99805382D01*
X154478864Y-99856207D01*
X154402601Y-99885752D01*
X154402595Y-99885754D01*
X154213439Y-100002874D01*
X154213437Y-100002876D01*
X154049020Y-100152761D01*
X153914943Y-100330308D01*
X153914938Y-100330316D01*
X153815775Y-100529461D01*
X153815769Y-100529476D01*
X153754885Y-100743462D01*
X153754884Y-100743464D01*
X153734357Y-100964999D01*
X153734357Y-100965000D01*
X153754884Y-101186535D01*
X153754885Y-101186537D01*
X153815769Y-101400523D01*
X153815775Y-101400538D01*
X153914938Y-101599683D01*
X153914943Y-101599691D01*
X154049020Y-101777238D01*
X154213437Y-101927123D01*
X154213439Y-101927125D01*
X154295800Y-101978120D01*
X154342436Y-102030147D01*
X154353540Y-102099129D01*
X154350299Y-102115636D01*
X154339500Y-102155941D01*
X154339500Y-104935754D01*
X154319815Y-105002793D01*
X154280778Y-105041181D01*
X154213436Y-105082877D01*
X154049020Y-105232761D01*
X153926333Y-105395227D01*
X153870224Y-105436863D01*
X153827379Y-105444500D01*
X116047621Y-105444500D01*
X115980582Y-105424815D01*
X115948667Y-105395227D01*
X115841546Y-105253376D01*
X115816854Y-105188015D01*
X115816500Y-105178649D01*
X115816500Y-103101351D01*
X115836185Y-103034312D01*
X115841546Y-103026624D01*
X115886451Y-102967160D01*
X115960058Y-102869689D01*
X116059229Y-102670528D01*
X116120115Y-102456536D01*
X116140643Y-102235000D01*
X116134728Y-102171171D01*
X116120115Y-102013464D01*
X116120114Y-102013462D01*
X116112849Y-101987929D01*
X116059229Y-101799472D01*
X116059224Y-101799461D01*
X115960061Y-101600316D01*
X115960056Y-101600308D01*
X115825979Y-101422761D01*
X115661562Y-101272876D01*
X115661560Y-101272874D01*
X115472404Y-101155754D01*
X115472398Y-101155752D01*
X115264940Y-101075382D01*
X115046243Y-101034500D01*
X114823757Y-101034500D01*
X114605060Y-101075382D01*
X114561816Y-101092135D01*
X114397601Y-101155752D01*
X114397595Y-101155754D01*
X114208439Y-101272874D01*
X114208437Y-101272876D01*
X114044020Y-101422761D01*
X113909943Y-101600308D01*
X113909938Y-101600316D01*
X113810775Y-101799461D01*
X113810769Y-101799476D01*
X113749885Y-102013462D01*
X113749884Y-102013464D01*
X113729357Y-102234999D01*
X113729357Y-102235000D01*
X113749884Y-102456535D01*
X113749885Y-102456537D01*
X113810769Y-102670523D01*
X113810775Y-102670538D01*
X113909938Y-102869683D01*
X113909943Y-102869691D01*
X114028454Y-103026624D01*
X114053146Y-103091985D01*
X114053500Y-103101351D01*
X114053500Y-105178649D01*
X114033815Y-105245688D01*
X114028454Y-105253376D01*
X113909943Y-105410308D01*
X113909938Y-105410316D01*
X113810775Y-105609461D01*
X113810769Y-105609476D01*
X113749885Y-105823462D01*
X113749884Y-105823464D01*
X113729357Y-106044999D01*
X113729357Y-106045000D01*
X113749885Y-106266537D01*
X113755270Y-106285463D01*
X113754683Y-106355330D01*
X113723685Y-106407078D01*
X112182584Y-107948181D01*
X112121261Y-107981666D01*
X112094903Y-107984500D01*
X96604499Y-107984500D01*
X96537460Y-107964815D01*
X96491705Y-107912011D01*
X96480499Y-107860500D01*
X96480499Y-106784998D01*
X96480498Y-106784981D01*
X96469999Y-106682203D01*
X96469998Y-106682200D01*
X96464360Y-106665185D01*
X96414814Y-106515666D01*
X96322712Y-106366344D01*
X96198656Y-106242288D01*
X96049334Y-106150186D01*
X95882797Y-106095001D01*
X95882795Y-106095000D01*
X95780010Y-106084500D01*
X92179998Y-106084500D01*
X92179981Y-106084501D01*
X92077203Y-106095000D01*
X92077200Y-106095001D01*
X91910668Y-106150185D01*
X91910663Y-106150187D01*
X91761342Y-106242289D01*
X91637289Y-106366342D01*
X91545187Y-106515663D01*
X91545186Y-106515666D01*
X91490001Y-106682203D01*
X91490001Y-106682204D01*
X91490000Y-106682204D01*
X91479500Y-106784983D01*
X77430499Y-106784983D01*
X77430499Y-106574992D01*
X77424438Y-106515663D01*
X77419999Y-106472203D01*
X77419998Y-106472200D01*
X77401209Y-106415500D01*
X77364814Y-106305666D01*
X77272712Y-106156344D01*
X77148656Y-106032288D01*
X76999334Y-105940186D01*
X76832797Y-105885001D01*
X76832795Y-105885000D01*
X76730010Y-105874500D01*
X73129998Y-105874500D01*
X73129981Y-105874501D01*
X73027203Y-105885000D01*
X73027200Y-105885001D01*
X72860668Y-105940185D01*
X72860663Y-105940187D01*
X72711342Y-106032289D01*
X72587289Y-106156342D01*
X72495187Y-106305663D01*
X72495186Y-106305666D01*
X72440001Y-106472203D01*
X72440001Y-106472204D01*
X72440000Y-106472204D01*
X72429500Y-106574983D01*
X68580000Y-106574983D01*
X68580000Y-101174994D01*
X72424556Y-101174994D01*
X72424556Y-101175005D01*
X72444310Y-101489004D01*
X72444311Y-101489011D01*
X72465542Y-101600308D01*
X72499293Y-101777238D01*
X72503270Y-101798083D01*
X72600497Y-102097316D01*
X72600499Y-102097321D01*
X72734461Y-102382003D01*
X72734464Y-102382009D01*
X72903051Y-102647661D01*
X72903054Y-102647665D01*
X73103606Y-102890090D01*
X73103608Y-102890092D01*
X73103610Y-102890094D01*
X73318602Y-103091985D01*
X73332968Y-103105476D01*
X73332978Y-103105484D01*
X73587504Y-103290408D01*
X73587509Y-103290410D01*
X73587516Y-103290416D01*
X73863234Y-103441994D01*
X73863239Y-103441996D01*
X73863241Y-103441997D01*
X73863242Y-103441998D01*
X74155771Y-103557818D01*
X74155774Y-103557819D01*
X74402877Y-103621264D01*
X74460527Y-103636066D01*
X74526010Y-103644338D01*
X74772670Y-103675499D01*
X74772679Y-103675499D01*
X74772682Y-103675500D01*
X74772684Y-103675500D01*
X75087316Y-103675500D01*
X75087318Y-103675500D01*
X75087321Y-103675499D01*
X75087329Y-103675499D01*
X75276983Y-103651540D01*
X75399473Y-103636066D01*
X75704225Y-103557819D01*
X75704228Y-103557818D01*
X75996757Y-103441998D01*
X75996758Y-103441997D01*
X75996756Y-103441997D01*
X75996766Y-103441994D01*
X76272484Y-103290416D01*
X76527030Y-103105478D01*
X76756390Y-102890094D01*
X76956947Y-102647663D01*
X77125537Y-102382007D01*
X77259503Y-102097315D01*
X77356731Y-101798079D01*
X77415688Y-101489015D01*
X77419856Y-101422764D01*
X77422232Y-101384994D01*
X91475057Y-101384994D01*
X91475057Y-101385005D01*
X91494807Y-101698942D01*
X91494808Y-101698949D01*
X91553755Y-102007958D01*
X91650963Y-102307132D01*
X91650965Y-102307137D01*
X91784900Y-102591761D01*
X91784903Y-102591767D01*
X91953457Y-102857367D01*
X91953460Y-102857371D01*
X92044286Y-102967160D01*
X92757340Y-102254105D01*
X92835864Y-102362184D01*
X93002816Y-102529136D01*
X93110892Y-102607658D01*
X92394971Y-103323579D01*
X92394972Y-103323581D01*
X92637772Y-103499985D01*
X92637790Y-103499996D01*
X92913447Y-103651540D01*
X92913455Y-103651544D01*
X93205926Y-103767340D01*
X93510620Y-103845573D01*
X93510629Y-103845575D01*
X93822701Y-103884999D01*
X93822715Y-103885000D01*
X94137285Y-103885000D01*
X94137298Y-103884999D01*
X94449370Y-103845575D01*
X94449379Y-103845573D01*
X94754073Y-103767340D01*
X95046544Y-103651544D01*
X95046552Y-103651540D01*
X95322209Y-103499996D01*
X95322219Y-103499990D01*
X95565026Y-103323579D01*
X95565027Y-103323579D01*
X94849106Y-102607658D01*
X94957184Y-102529136D01*
X95124136Y-102362184D01*
X95202658Y-102254106D01*
X95915712Y-102967160D01*
X96006544Y-102857364D01*
X96175096Y-102591767D01*
X96175099Y-102591761D01*
X96309034Y-102307137D01*
X96309036Y-102307132D01*
X96406244Y-102007958D01*
X96465191Y-101698949D01*
X96465192Y-101698942D01*
X96484943Y-101385005D01*
X96484943Y-101384994D01*
X96465192Y-101071057D01*
X96465191Y-101071050D01*
X96406244Y-100762041D01*
X96309036Y-100462867D01*
X96309034Y-100462862D01*
X96175099Y-100178238D01*
X96175096Y-100178232D01*
X96006542Y-99912632D01*
X96006539Y-99912628D01*
X95915712Y-99802838D01*
X95202658Y-100515892D01*
X95124136Y-100407816D01*
X94957184Y-100240864D01*
X94849106Y-100162340D01*
X95565027Y-99446419D01*
X95565026Y-99446417D01*
X95322227Y-99270014D01*
X95322209Y-99270003D01*
X95046552Y-99118459D01*
X95046544Y-99118455D01*
X94754073Y-99002659D01*
X94449379Y-98924426D01*
X94449370Y-98924424D01*
X94137298Y-98885000D01*
X93822701Y-98885000D01*
X93510629Y-98924424D01*
X93510620Y-98924426D01*
X93205926Y-99002659D01*
X92913455Y-99118455D01*
X92913447Y-99118459D01*
X92637787Y-99270004D01*
X92637782Y-99270007D01*
X92394972Y-99446418D01*
X92394971Y-99446419D01*
X93110893Y-100162341D01*
X93002816Y-100240864D01*
X92835864Y-100407816D01*
X92757341Y-100515893D01*
X92044286Y-99802838D01*
X92044285Y-99802838D01*
X91953459Y-99912629D01*
X91953457Y-99912632D01*
X91784903Y-100178232D01*
X91784900Y-100178238D01*
X91650965Y-100462862D01*
X91650963Y-100462867D01*
X91553755Y-100762041D01*
X91494808Y-101071050D01*
X91494807Y-101071057D01*
X91475057Y-101384994D01*
X77422232Y-101384994D01*
X77435444Y-101175005D01*
X77435444Y-101174994D01*
X77415689Y-100860995D01*
X77415688Y-100860988D01*
X77415688Y-100860985D01*
X77356731Y-100551921D01*
X77259503Y-100252685D01*
X77253940Y-100240864D01*
X77145295Y-100009981D01*
X77125537Y-99967993D01*
X76981273Y-99740668D01*
X76956948Y-99702338D01*
X76956945Y-99702334D01*
X76756393Y-99459909D01*
X76756391Y-99459907D01*
X76746372Y-99450498D01*
X76527030Y-99244522D01*
X76527027Y-99244520D01*
X76527021Y-99244515D01*
X76272495Y-99059591D01*
X76272488Y-99059586D01*
X76272484Y-99059584D01*
X75996766Y-98908006D01*
X75996763Y-98908004D01*
X75996758Y-98908002D01*
X75996757Y-98908001D01*
X75704230Y-98792182D01*
X75623661Y-98771495D01*
X75563624Y-98735756D01*
X75532439Y-98673232D01*
X75530500Y-98651391D01*
X75530500Y-90904996D01*
X91125170Y-90904996D01*
X91125170Y-90905003D01*
X91144473Y-91236426D01*
X91144474Y-91236437D01*
X91202118Y-91563351D01*
X91202121Y-91563365D01*
X91297336Y-91881408D01*
X91428827Y-92186236D01*
X91428833Y-92186249D01*
X91594824Y-92473755D01*
X91792357Y-92739087D01*
X92864727Y-91666716D01*
X92950278Y-91784466D01*
X93100534Y-91934722D01*
X93218281Y-92020270D01*
X92149289Y-93089263D01*
X92275215Y-93194925D01*
X92552588Y-93377356D01*
X92849252Y-93526347D01*
X92849258Y-93526350D01*
X93161213Y-93639892D01*
X93161234Y-93639899D01*
X93484248Y-93716456D01*
X93484263Y-93716458D01*
X93814012Y-93754999D01*
X93814013Y-93755000D01*
X94145987Y-93755000D01*
X94145987Y-93754999D01*
X94475736Y-93716458D01*
X94475751Y-93716456D01*
X94798765Y-93639899D01*
X94798786Y-93639892D01*
X95110741Y-93526350D01*
X95110747Y-93526347D01*
X95407411Y-93377356D01*
X95684789Y-93194922D01*
X95810708Y-93089263D01*
X95810709Y-93089262D01*
X94741718Y-92020270D01*
X94859466Y-91934722D01*
X95009722Y-91784466D01*
X95095270Y-91666717D01*
X96167641Y-92739088D01*
X96189298Y-92709998D01*
X113629532Y-92709998D01*
X113629532Y-92710001D01*
X113649364Y-92936686D01*
X113649366Y-92936697D01*
X113708258Y-93156488D01*
X113708261Y-93156497D01*
X113804431Y-93362732D01*
X113804432Y-93362734D01*
X113934951Y-93549137D01*
X113934952Y-93549138D01*
X113934953Y-93549139D01*
X114017182Y-93631368D01*
X114050666Y-93692689D01*
X114053500Y-93719048D01*
X114053500Y-96288649D01*
X114033815Y-96355688D01*
X114028459Y-96363368D01*
X113998479Y-96403068D01*
X113909943Y-96520308D01*
X113909938Y-96520316D01*
X113810775Y-96719461D01*
X113810769Y-96719476D01*
X113749885Y-96933462D01*
X113749884Y-96933464D01*
X113729357Y-97154999D01*
X113729357Y-97155000D01*
X113749884Y-97376535D01*
X113749885Y-97376537D01*
X113810769Y-97590523D01*
X113810775Y-97590538D01*
X113909938Y-97789683D01*
X113909943Y-97789691D01*
X114044020Y-97967238D01*
X114208437Y-98117123D01*
X114208439Y-98117125D01*
X114397595Y-98234245D01*
X114397596Y-98234245D01*
X114397599Y-98234247D01*
X114605060Y-98314618D01*
X114823757Y-98355500D01*
X114823759Y-98355500D01*
X115046241Y-98355500D01*
X115046243Y-98355500D01*
X115264940Y-98314618D01*
X115472401Y-98234247D01*
X115661562Y-98117124D01*
X115825981Y-97967236D01*
X115948667Y-97804772D01*
X116004776Y-97763137D01*
X116047621Y-97755500D01*
X138325500Y-97755500D01*
X138392539Y-97775185D01*
X138438294Y-97827989D01*
X138449500Y-97879500D01*
X138449500Y-98997870D01*
X138449501Y-98997876D01*
X138455908Y-99057483D01*
X138506202Y-99192328D01*
X138506206Y-99192335D01*
X138592452Y-99307544D01*
X138592455Y-99307547D01*
X138707664Y-99393793D01*
X138707671Y-99393797D01*
X138842517Y-99444091D01*
X138842516Y-99444091D01*
X138849444Y-99444835D01*
X138902127Y-99450500D01*
X140497872Y-99450499D01*
X140557483Y-99444091D01*
X140692331Y-99393796D01*
X140807546Y-99307546D01*
X140893796Y-99192331D01*
X140906559Y-99158111D01*
X140925934Y-99106166D01*
X140967806Y-99050233D01*
X141033270Y-99025816D01*
X141042116Y-99025500D01*
X145963331Y-99025500D01*
X145963347Y-99025501D01*
X145970943Y-99025501D01*
X146129054Y-99025501D01*
X146129057Y-99025501D01*
X146281785Y-98984577D01*
X146331904Y-98955639D01*
X146418716Y-98905520D01*
X146530520Y-98793716D01*
X146530520Y-98793714D01*
X146540728Y-98783507D01*
X146540729Y-98783504D01*
X149439235Y-95884999D01*
X153734357Y-95884999D01*
X153734357Y-95885000D01*
X153754884Y-96106535D01*
X153754885Y-96106537D01*
X153815769Y-96320523D01*
X153815775Y-96320538D01*
X153914938Y-96519683D01*
X153914943Y-96519691D01*
X154049020Y-96697238D01*
X154213437Y-96847123D01*
X154213439Y-96847125D01*
X154402595Y-96964245D01*
X154402596Y-96964245D01*
X154402599Y-96964247D01*
X154610060Y-97044618D01*
X154828757Y-97085500D01*
X154828759Y-97085500D01*
X155051241Y-97085500D01*
X155051243Y-97085500D01*
X155269940Y-97044618D01*
X155477401Y-96964247D01*
X155666562Y-96847124D01*
X155830981Y-96697236D01*
X155953667Y-96534772D01*
X156009776Y-96493137D01*
X156052621Y-96485500D01*
X168139545Y-96485500D01*
X168206584Y-96505185D01*
X168252339Y-96557989D01*
X168262484Y-96625685D01*
X168239501Y-96800256D01*
X168239500Y-96800272D01*
X168239500Y-97029741D01*
X168255992Y-97155000D01*
X168269452Y-97257238D01*
X168301418Y-97376537D01*
X168328842Y-97478887D01*
X168416650Y-97690876D01*
X168416656Y-97690888D01*
X168492160Y-97821666D01*
X168531392Y-97889617D01*
X168671081Y-98071661D01*
X168671089Y-98071670D01*
X168833330Y-98233911D01*
X168833338Y-98233918D01*
X168833339Y-98233919D01*
X168883962Y-98272764D01*
X169015382Y-98373607D01*
X169015385Y-98373608D01*
X169015388Y-98373611D01*
X169214112Y-98488344D01*
X169214117Y-98488346D01*
X169214123Y-98488349D01*
X169305480Y-98526190D01*
X169426113Y-98576158D01*
X169647762Y-98635548D01*
X169875266Y-98665500D01*
X169875273Y-98665500D01*
X171104727Y-98665500D01*
X171104734Y-98665500D01*
X171332238Y-98635548D01*
X171553887Y-98576158D01*
X171765888Y-98488344D01*
X171964612Y-98373611D01*
X172146661Y-98233919D01*
X172146665Y-98233914D01*
X172146670Y-98233911D01*
X172308911Y-98071670D01*
X172308914Y-98071665D01*
X172308919Y-98071661D01*
X172448611Y-97889612D01*
X172563344Y-97690888D01*
X172651158Y-97478887D01*
X172710548Y-97257238D01*
X172740500Y-97029734D01*
X172740500Y-96800266D01*
X172710548Y-96572762D01*
X172651158Y-96351113D01*
X172563344Y-96139112D01*
X172448611Y-95940388D01*
X172448608Y-95940385D01*
X172448607Y-95940382D01*
X172308918Y-95758338D01*
X172308911Y-95758330D01*
X172146670Y-95596089D01*
X172146661Y-95596081D01*
X171964617Y-95456392D01*
X171765890Y-95341657D01*
X171765876Y-95341650D01*
X171553887Y-95253842D01*
X171484414Y-95235227D01*
X171332238Y-95194452D01*
X171294215Y-95189446D01*
X171104741Y-95164500D01*
X171104734Y-95164500D01*
X169875266Y-95164500D01*
X169875258Y-95164500D01*
X169658715Y-95193009D01*
X169647762Y-95194452D01*
X169510313Y-95231281D01*
X169426113Y-95253842D01*
X169426103Y-95253845D01*
X169374886Y-95275061D01*
X169327433Y-95284500D01*
X156052621Y-95284500D01*
X155985582Y-95264815D01*
X155953667Y-95235227D01*
X155830979Y-95072761D01*
X155666562Y-94922876D01*
X155666560Y-94922874D01*
X155477404Y-94805754D01*
X155477398Y-94805752D01*
X155269940Y-94725382D01*
X155051243Y-94684500D01*
X154828757Y-94684500D01*
X154610060Y-94725382D01*
X154478864Y-94776207D01*
X154402601Y-94805752D01*
X154402595Y-94805754D01*
X154213439Y-94922874D01*
X154213437Y-94922876D01*
X154049020Y-95072761D01*
X153914943Y-95250308D01*
X153914938Y-95250316D01*
X153815775Y-95449461D01*
X153815769Y-95449476D01*
X153754885Y-95663462D01*
X153754884Y-95663464D01*
X153734357Y-95884999D01*
X149439235Y-95884999D01*
X153247417Y-92076819D01*
X153308740Y-92043334D01*
X153335098Y-92040500D01*
X153827379Y-92040500D01*
X153894418Y-92060185D01*
X153926333Y-92089773D01*
X154049020Y-92252238D01*
X154213437Y-92402123D01*
X154213439Y-92402125D01*
X154402595Y-92519245D01*
X154402596Y-92519245D01*
X154402599Y-92519247D01*
X154610060Y-92599618D01*
X154828757Y-92640500D01*
X154828759Y-92640500D01*
X155051241Y-92640500D01*
X155051243Y-92640500D01*
X155269940Y-92599618D01*
X155477401Y-92519247D01*
X155666562Y-92402124D01*
X155830981Y-92252236D01*
X155953667Y-92089772D01*
X156009776Y-92048137D01*
X156052621Y-92040500D01*
X168261154Y-92040500D01*
X168328193Y-92060185D01*
X168373948Y-92112989D01*
X168375715Y-92117048D01*
X168416650Y-92215876D01*
X168416656Y-92215888D01*
X168524178Y-92402123D01*
X168531392Y-92414617D01*
X168671081Y-92596661D01*
X168671089Y-92596670D01*
X168833330Y-92758911D01*
X168833338Y-92758918D01*
X169015382Y-92898607D01*
X169015385Y-92898608D01*
X169015388Y-92898611D01*
X169214112Y-93013344D01*
X169214117Y-93013346D01*
X169214123Y-93013349D01*
X169305480Y-93051190D01*
X169426113Y-93101158D01*
X169647762Y-93160548D01*
X169875266Y-93190500D01*
X169875273Y-93190500D01*
X171104727Y-93190500D01*
X171104734Y-93190500D01*
X171332238Y-93160548D01*
X171553887Y-93101158D01*
X171765888Y-93013344D01*
X171964612Y-92898611D01*
X172146661Y-92758919D01*
X172146665Y-92758914D01*
X172146670Y-92758911D01*
X172308911Y-92596670D01*
X172308914Y-92596665D01*
X172308919Y-92596661D01*
X172448611Y-92414612D01*
X172563344Y-92215888D01*
X172651158Y-92003887D01*
X172710548Y-91782238D01*
X172740500Y-91554734D01*
X172740500Y-91325266D01*
X172710548Y-91097762D01*
X172651158Y-90876113D01*
X172563344Y-90664112D01*
X172448611Y-90465388D01*
X172448608Y-90465385D01*
X172448607Y-90465382D01*
X172308918Y-90283338D01*
X172308911Y-90283330D01*
X172146670Y-90121089D01*
X172146661Y-90121081D01*
X171964617Y-89981392D01*
X171765890Y-89866657D01*
X171765876Y-89866650D01*
X171553887Y-89778842D01*
X171332238Y-89719452D01*
X171294215Y-89714446D01*
X171104741Y-89689500D01*
X171104734Y-89689500D01*
X169875266Y-89689500D01*
X169875258Y-89689500D01*
X169658715Y-89718009D01*
X169647762Y-89719452D01*
X169554076Y-89744554D01*
X169426112Y-89778842D01*
X169214123Y-89866650D01*
X169214109Y-89866657D01*
X169015382Y-89981392D01*
X168833338Y-90121081D01*
X168671081Y-90283338D01*
X168531392Y-90465382D01*
X168416657Y-90664109D01*
X168416650Y-90664123D01*
X168375715Y-90762952D01*
X168331875Y-90817356D01*
X168265580Y-90839421D01*
X168261154Y-90839500D01*
X156052621Y-90839500D01*
X155985582Y-90819815D01*
X155953667Y-90790227D01*
X155830979Y-90627761D01*
X155666562Y-90477876D01*
X155666560Y-90477874D01*
X155477404Y-90360754D01*
X155477398Y-90360752D01*
X155269940Y-90280382D01*
X155051243Y-90239500D01*
X154828757Y-90239500D01*
X154610060Y-90280382D01*
X154478864Y-90331207D01*
X154402601Y-90360752D01*
X154402595Y-90360754D01*
X154213439Y-90477874D01*
X154213437Y-90477876D01*
X154049020Y-90627761D01*
X153926333Y-90790227D01*
X153870224Y-90831863D01*
X153827379Y-90839500D01*
X153121670Y-90839500D01*
X153121654Y-90839499D01*
X153114058Y-90839499D01*
X152955943Y-90839499D01*
X152879579Y-90859961D01*
X152803214Y-90880423D01*
X152803209Y-90880426D01*
X152666290Y-90959475D01*
X152666282Y-90959481D01*
X145837584Y-97788181D01*
X145776261Y-97821666D01*
X145749903Y-97824500D01*
X141042115Y-97824500D01*
X140975076Y-97804815D01*
X140929321Y-97752011D01*
X140925933Y-97743833D01*
X140893797Y-97657671D01*
X140893796Y-97657670D01*
X140893796Y-97657669D01*
X140892967Y-97656562D01*
X140892485Y-97655268D01*
X140889546Y-97649886D01*
X140890319Y-97649463D01*
X140868551Y-97591099D01*
X140877675Y-97534798D01*
X140911089Y-97454132D01*
X140911089Y-97454131D01*
X140911091Y-97454127D01*
X140950500Y-97256003D01*
X140950500Y-97053997D01*
X140911091Y-96855873D01*
X140833786Y-96669244D01*
X140780094Y-96588889D01*
X140759217Y-96522214D01*
X140777701Y-96454834D01*
X140780078Y-96451134D01*
X140833786Y-96370756D01*
X140911091Y-96184127D01*
X140950500Y-95986003D01*
X140950500Y-95783997D01*
X140911091Y-95585873D01*
X140833786Y-95399244D01*
X140833784Y-95399241D01*
X140833782Y-95399237D01*
X140721558Y-95231281D01*
X140578718Y-95088441D01*
X140410762Y-94976217D01*
X140410752Y-94976212D01*
X140224127Y-94898909D01*
X140224119Y-94898907D01*
X140026007Y-94859500D01*
X140026003Y-94859500D01*
X139373997Y-94859500D01*
X139373992Y-94859500D01*
X139175880Y-94898907D01*
X139175872Y-94898909D01*
X138989247Y-94976212D01*
X138989237Y-94976217D01*
X138821281Y-95088441D01*
X138678441Y-95231281D01*
X138566217Y-95399237D01*
X138566212Y-95399247D01*
X138488909Y-95585872D01*
X138488907Y-95585880D01*
X138449500Y-95783992D01*
X138449500Y-95986007D01*
X138488907Y-96184119D01*
X138488909Y-96184127D01*
X138566214Y-96370757D01*
X138566900Y-96372040D01*
X138567056Y-96372789D01*
X138568545Y-96376384D01*
X138567863Y-96376666D01*
X138581147Y-96440442D01*
X138556151Y-96505687D01*
X138499848Y-96547061D01*
X138457546Y-96554500D01*
X116047621Y-96554500D01*
X115980582Y-96534815D01*
X115948667Y-96505227D01*
X115899744Y-96440442D01*
X115841545Y-96363374D01*
X115816854Y-96298015D01*
X115816500Y-96288649D01*
X115816500Y-93719048D01*
X115836185Y-93652009D01*
X115852814Y-93631371D01*
X115935047Y-93549139D01*
X116065568Y-93362734D01*
X116161739Y-93156496D01*
X116220635Y-92936692D01*
X116240468Y-92710000D01*
X116220635Y-92483308D01*
X116161739Y-92263504D01*
X116065568Y-92057266D01*
X115935047Y-91870861D01*
X115935045Y-91870858D01*
X115774141Y-91709954D01*
X115587734Y-91579432D01*
X115587732Y-91579431D01*
X115381497Y-91483261D01*
X115381488Y-91483258D01*
X115161697Y-91424366D01*
X115161693Y-91424365D01*
X115161692Y-91424365D01*
X115161691Y-91424364D01*
X115161686Y-91424364D01*
X114935002Y-91404532D01*
X114934998Y-91404532D01*
X114708313Y-91424364D01*
X114708302Y-91424366D01*
X114488511Y-91483258D01*
X114488502Y-91483261D01*
X114282267Y-91579431D01*
X114282265Y-91579432D01*
X114095858Y-91709954D01*
X113934954Y-91870858D01*
X113804432Y-92057265D01*
X113804431Y-92057267D01*
X113708261Y-92263502D01*
X113708258Y-92263511D01*
X113649366Y-92483302D01*
X113649364Y-92483313D01*
X113629532Y-92709998D01*
X96189298Y-92709998D01*
X96365175Y-92473756D01*
X96531166Y-92186249D01*
X96531172Y-92186236D01*
X96662663Y-91881408D01*
X96757878Y-91563365D01*
X96757881Y-91563351D01*
X96815525Y-91236437D01*
X96815526Y-91236426D01*
X96834830Y-90905003D01*
X96834830Y-90904996D01*
X96815526Y-90573573D01*
X96815525Y-90573562D01*
X96757881Y-90246648D01*
X96757878Y-90246634D01*
X96662663Y-89928591D01*
X96531172Y-89623763D01*
X96531166Y-89623750D01*
X96365172Y-89336239D01*
X96167642Y-89070910D01*
X95095270Y-90143281D01*
X95009722Y-90025534D01*
X94859466Y-89875278D01*
X94741717Y-89789728D01*
X95810709Y-88720736D01*
X95810709Y-88720735D01*
X95684784Y-88615074D01*
X95407411Y-88432643D01*
X95110747Y-88283652D01*
X95110741Y-88283649D01*
X94798786Y-88170107D01*
X94798765Y-88170100D01*
X94475751Y-88093543D01*
X94475736Y-88093541D01*
X94145987Y-88055000D01*
X93814013Y-88055000D01*
X93484263Y-88093541D01*
X93484248Y-88093543D01*
X93161234Y-88170100D01*
X93161213Y-88170107D01*
X92849258Y-88283649D01*
X92849252Y-88283652D01*
X92552581Y-88432646D01*
X92275220Y-88615070D01*
X92275213Y-88615075D01*
X92149289Y-88720735D01*
X93218282Y-89789728D01*
X93100534Y-89875278D01*
X92950278Y-90025534D01*
X92864728Y-90143282D01*
X91792357Y-89070911D01*
X91792356Y-89070911D01*
X91594829Y-89336236D01*
X91594825Y-89336242D01*
X91428833Y-89623750D01*
X91428827Y-89623763D01*
X91297336Y-89928591D01*
X91202121Y-90246634D01*
X91202118Y-90246648D01*
X91144474Y-90573562D01*
X91144473Y-90573573D01*
X91125170Y-90904996D01*
X75530500Y-90904996D01*
X75530500Y-76781976D01*
X75550185Y-76714937D01*
X75602989Y-76669182D01*
X75630135Y-76661736D01*
X75629932Y-76660876D01*
X75637479Y-76659092D01*
X75637481Y-76659091D01*
X75637483Y-76659091D01*
X75726403Y-76625926D01*
X75772329Y-76608797D01*
X75772329Y-76608796D01*
X75772331Y-76608796D01*
X75821521Y-76571971D01*
X75886982Y-76547554D01*
X75940622Y-76555610D01*
X76127544Y-76628024D01*
X76328024Y-76665500D01*
X76328026Y-76665500D01*
X76531974Y-76665500D01*
X76531976Y-76665500D01*
X76732456Y-76628024D01*
X76922637Y-76554348D01*
X77096041Y-76446981D01*
X77246764Y-76309579D01*
X77318358Y-76214773D01*
X77374467Y-76173137D01*
X77417312Y-76165500D01*
X82072379Y-76165500D01*
X82139418Y-76185185D01*
X82171333Y-76214773D01*
X82294020Y-76377238D01*
X82458437Y-76527123D01*
X82458439Y-76527125D01*
X82647595Y-76644245D01*
X82647596Y-76644245D01*
X82647599Y-76644247D01*
X82855060Y-76724618D01*
X83073757Y-76765500D01*
X83073759Y-76765500D01*
X83296241Y-76765500D01*
X83296243Y-76765500D01*
X83514940Y-76724618D01*
X83722401Y-76644247D01*
X83911562Y-76527124D01*
X84075981Y-76377236D01*
X84210058Y-76199689D01*
X84309229Y-76000528D01*
X84370115Y-75786536D01*
X84390643Y-75565000D01*
X84390643Y-75564999D01*
X87059357Y-75564999D01*
X87059357Y-75565000D01*
X87079884Y-75786535D01*
X87079885Y-75786537D01*
X87140769Y-76000523D01*
X87140775Y-76000538D01*
X87239938Y-76199683D01*
X87239943Y-76199691D01*
X87374020Y-76377238D01*
X87538437Y-76527123D01*
X87538439Y-76527125D01*
X87727595Y-76644245D01*
X87727596Y-76644245D01*
X87727599Y-76644247D01*
X87935060Y-76724618D01*
X88153757Y-76765500D01*
X88153759Y-76765500D01*
X88376241Y-76765500D01*
X88376243Y-76765500D01*
X88594940Y-76724618D01*
X88802401Y-76644247D01*
X88991562Y-76527124D01*
X89155981Y-76377236D01*
X89278667Y-76214772D01*
X89334776Y-76173137D01*
X89377621Y-76165500D01*
X93713708Y-76165500D01*
X93780747Y-76185185D01*
X93821094Y-76227499D01*
X93945898Y-76443665D01*
X94071981Y-76601768D01*
X94102006Y-76639418D01*
X94257410Y-76783611D01*
X94285540Y-76809712D01*
X94492408Y-76950752D01*
X94492411Y-76950753D01*
X94492412Y-76950754D01*
X94659302Y-77031124D01*
X94711161Y-77077946D01*
X94729500Y-77142844D01*
X94729500Y-79368330D01*
X94729499Y-79368348D01*
X94729499Y-79534054D01*
X94729498Y-79534054D01*
X94729499Y-79534057D01*
X94770423Y-79686785D01*
X94795648Y-79730476D01*
X94849477Y-79823712D01*
X94849481Y-79823717D01*
X94968349Y-79942585D01*
X94968355Y-79942590D01*
X96578685Y-81552920D01*
X96612170Y-81614243D01*
X96610271Y-81674532D01*
X96604885Y-81693462D01*
X96584357Y-81914999D01*
X96584357Y-81915000D01*
X96604884Y-82136535D01*
X96604885Y-82136537D01*
X96665769Y-82350523D01*
X96665775Y-82350538D01*
X96764938Y-82549683D01*
X96764943Y-82549691D01*
X96899020Y-82727238D01*
X96979415Y-82800527D01*
X97061779Y-82875612D01*
X97063437Y-82877123D01*
X97063439Y-82877125D01*
X97252595Y-82994245D01*
X97252596Y-82994245D01*
X97252599Y-82994247D01*
X97460060Y-83074618D01*
X97678757Y-83115500D01*
X97678759Y-83115500D01*
X97901241Y-83115500D01*
X97901243Y-83115500D01*
X98039215Y-83089708D01*
X98108730Y-83096739D01*
X98149681Y-83123916D01*
X100480139Y-85454374D01*
X100480149Y-85454385D01*
X100484479Y-85458715D01*
X100484480Y-85458716D01*
X100596284Y-85570520D01*
X100683095Y-85620639D01*
X100683097Y-85620641D01*
X100721151Y-85642611D01*
X100733215Y-85649577D01*
X100885943Y-85690500D01*
X113510501Y-85690500D01*
X113577540Y-85710185D01*
X113623295Y-85762989D01*
X113634501Y-85814500D01*
X113634501Y-85937876D01*
X113640908Y-85997483D01*
X113691202Y-86132328D01*
X113691206Y-86132335D01*
X113777452Y-86247544D01*
X113777455Y-86247547D01*
X113892664Y-86333793D01*
X113892671Y-86333797D01*
X114027517Y-86384091D01*
X114027516Y-86384091D01*
X114034251Y-86384815D01*
X114087127Y-86390500D01*
X115782872Y-86390499D01*
X115842483Y-86384091D01*
X115977331Y-86333796D01*
X116092546Y-86247546D01*
X116178796Y-86132331D01*
X116229091Y-85997483D01*
X116235500Y-85937873D01*
X116235500Y-85814500D01*
X116255185Y-85747461D01*
X116307989Y-85701706D01*
X116359500Y-85690500D01*
X118444903Y-85690500D01*
X118511942Y-85710185D01*
X118532584Y-85726819D01*
X120800139Y-87994374D01*
X120800149Y-87994385D01*
X120804479Y-87998715D01*
X120804480Y-87998716D01*
X120916284Y-88110520D01*
X120916286Y-88110521D01*
X120916290Y-88110524D01*
X121053209Y-88189573D01*
X121053216Y-88189577D01*
X121165019Y-88219534D01*
X121205942Y-88230500D01*
X121205943Y-88230500D01*
X122077379Y-88230500D01*
X122144418Y-88250185D01*
X122176333Y-88279773D01*
X122299020Y-88442238D01*
X122463437Y-88592123D01*
X122463439Y-88592125D01*
X122652595Y-88709245D01*
X122652596Y-88709245D01*
X122652599Y-88709247D01*
X122860060Y-88789618D01*
X123078757Y-88830500D01*
X123078759Y-88830500D01*
X123301241Y-88830500D01*
X123301243Y-88830500D01*
X123519940Y-88789618D01*
X123727401Y-88709247D01*
X123916562Y-88592124D01*
X124080981Y-88442236D01*
X124215058Y-88264689D01*
X124314229Y-88065528D01*
X124375115Y-87851536D01*
X124395643Y-87630000D01*
X124395643Y-87629999D01*
X127064357Y-87629999D01*
X127064357Y-87630000D01*
X127084884Y-87851535D01*
X127084885Y-87851537D01*
X127145769Y-88065523D01*
X127145775Y-88065538D01*
X127244938Y-88264683D01*
X127244943Y-88264691D01*
X127379020Y-88442238D01*
X127543437Y-88592123D01*
X127543439Y-88592125D01*
X127732595Y-88709245D01*
X127732596Y-88709245D01*
X127732599Y-88709247D01*
X127940060Y-88789618D01*
X128158757Y-88830500D01*
X128158759Y-88830500D01*
X128381241Y-88830500D01*
X128381243Y-88830500D01*
X128599940Y-88789618D01*
X128807401Y-88709247D01*
X128996562Y-88592124D01*
X129160981Y-88442236D01*
X129283667Y-88279772D01*
X129339776Y-88238137D01*
X129382621Y-88230500D01*
X131144903Y-88230500D01*
X131211942Y-88250185D01*
X131232584Y-88266819D01*
X135405139Y-92439374D01*
X135405149Y-92439385D01*
X135409479Y-92443715D01*
X135409480Y-92443716D01*
X135521284Y-92555520D01*
X135597665Y-92599618D01*
X135658215Y-92634577D01*
X135810942Y-92675500D01*
X135810943Y-92675500D01*
X145963331Y-92675500D01*
X145963347Y-92675501D01*
X145970943Y-92675501D01*
X146129054Y-92675501D01*
X146129057Y-92675501D01*
X146281785Y-92634577D01*
X146342335Y-92599618D01*
X146418716Y-92555520D01*
X146530520Y-92443716D01*
X146530520Y-92443714D01*
X146540724Y-92433511D01*
X146540727Y-92433506D01*
X151977417Y-86996819D01*
X152038740Y-86963334D01*
X152065098Y-86960500D01*
X153827379Y-86960500D01*
X153894418Y-86980185D01*
X153926333Y-87009773D01*
X154049020Y-87172238D01*
X154213437Y-87322123D01*
X154213439Y-87322125D01*
X154402595Y-87439245D01*
X154402596Y-87439245D01*
X154402599Y-87439247D01*
X154610060Y-87519618D01*
X154828757Y-87560500D01*
X154828759Y-87560500D01*
X155051241Y-87560500D01*
X155051243Y-87560500D01*
X155269940Y-87519618D01*
X155477401Y-87439247D01*
X155666562Y-87322124D01*
X155830981Y-87172236D01*
X155965058Y-86994689D01*
X156064229Y-86795528D01*
X156125115Y-86581536D01*
X156137326Y-86449751D01*
X156163112Y-86384815D01*
X156173108Y-86373520D01*
X157392318Y-85154309D01*
X157453641Y-85120825D01*
X157523333Y-85125809D01*
X157567680Y-85154310D01*
X158545699Y-86132328D01*
X159335294Y-86921923D01*
X159406552Y-86993181D01*
X159458078Y-87044707D01*
X159602446Y-87141171D01*
X159602459Y-87141178D01*
X159762871Y-87207622D01*
X159762876Y-87207624D01*
X159762880Y-87207624D01*
X159762881Y-87207625D01*
X159933176Y-87241500D01*
X159933179Y-87241500D01*
X179156823Y-87241500D01*
X179279556Y-87217086D01*
X179327124Y-87207624D01*
X179462326Y-87151622D01*
X179487543Y-87141177D01*
X179487544Y-87141176D01*
X179487547Y-87141175D01*
X179631924Y-87044706D01*
X183234521Y-83442106D01*
X183295842Y-83408623D01*
X183342610Y-83407481D01*
X183361213Y-83410585D01*
X183390663Y-83415500D01*
X183390665Y-83415500D01*
X183639335Y-83415500D01*
X183884614Y-83374571D01*
X184119810Y-83293828D01*
X184338509Y-83175474D01*
X184534744Y-83022738D01*
X184703164Y-82839785D01*
X184703165Y-82839783D01*
X184706172Y-82836517D01*
X184766059Y-82800527D01*
X184797402Y-82796500D01*
X195261542Y-82796500D01*
X195328581Y-82816185D01*
X195374336Y-82868989D01*
X195385542Y-82920500D01*
X195385542Y-83162876D01*
X195391949Y-83222483D01*
X195442243Y-83357328D01*
X195442247Y-83357335D01*
X195528493Y-83472544D01*
X195528496Y-83472547D01*
X195643705Y-83558793D01*
X195643712Y-83558797D01*
X195778558Y-83609091D01*
X195778557Y-83609091D01*
X195785485Y-83609835D01*
X195838168Y-83615500D01*
X198333913Y-83615499D01*
X198393524Y-83609091D01*
X198528372Y-83558796D01*
X198643587Y-83472546D01*
X198729837Y-83357331D01*
X198780132Y-83222483D01*
X198786541Y-83162873D01*
X198786540Y-81914995D01*
X202880773Y-81914995D01*
X202880773Y-81915004D01*
X202899818Y-82169154D01*
X202946424Y-82373349D01*
X202956533Y-82417637D01*
X203049648Y-82654888D01*
X203177082Y-82875612D01*
X203335991Y-83074877D01*
X203522824Y-83248232D01*
X203650393Y-83335207D01*
X203694694Y-83389233D01*
X203704541Y-83437659D01*
X203704541Y-90409220D01*
X203704541Y-90582862D01*
X203704541Y-90582864D01*
X203704540Y-90582864D01*
X203738415Y-90753159D01*
X203738418Y-90753169D01*
X203804863Y-90913584D01*
X203901336Y-91057967D01*
X203901337Y-91057968D01*
X213363181Y-100519810D01*
X213396666Y-100581133D01*
X213399500Y-100607491D01*
X213399500Y-103610001D01*
X213399501Y-103610018D01*
X213410000Y-103712796D01*
X213410001Y-103712799D01*
X213465185Y-103879331D01*
X213465187Y-103879336D01*
X213467037Y-103882335D01*
X213557288Y-104028656D01*
X213681344Y-104152712D01*
X213830666Y-104244814D01*
X213997203Y-104299999D01*
X214099991Y-104310500D01*
X217700008Y-104310499D01*
X217802797Y-104299999D01*
X217969334Y-104244814D01*
X218118656Y-104152712D01*
X218242712Y-104028656D01*
X218334814Y-103879334D01*
X218389999Y-103712797D01*
X218400500Y-103610009D01*
X218400499Y-100009992D01*
X218396208Y-99967990D01*
X218389999Y-99907203D01*
X218389998Y-99907200D01*
X218382642Y-99885000D01*
X218334814Y-99740666D01*
X218242712Y-99591344D01*
X218118656Y-99467288D01*
X218025888Y-99410069D01*
X217969336Y-99375187D01*
X217969331Y-99375185D01*
X217967862Y-99374698D01*
X217802797Y-99320001D01*
X217802795Y-99320000D01*
X217700016Y-99309500D01*
X217700009Y-99309500D01*
X214697492Y-99309500D01*
X214630453Y-99289815D01*
X214609811Y-99273181D01*
X205503860Y-90167230D01*
X205470375Y-90105907D01*
X205467541Y-90079549D01*
X205467541Y-83437659D01*
X205487226Y-83370620D01*
X205521687Y-83335207D01*
X205649258Y-83248232D01*
X205836091Y-83074877D01*
X205995000Y-82875612D01*
X206122434Y-82654888D01*
X206215549Y-82417637D01*
X206272263Y-82169157D01*
X206287856Y-81961078D01*
X206291309Y-81915004D01*
X206291309Y-81914995D01*
X206275204Y-81700095D01*
X206272263Y-81660843D01*
X206215549Y-81412363D01*
X206122434Y-81175112D01*
X205995000Y-80954388D01*
X205836091Y-80755123D01*
X205649258Y-80581768D01*
X205438675Y-80438195D01*
X205438671Y-80438193D01*
X205438668Y-80438191D01*
X205438667Y-80438190D01*
X205209047Y-80327612D01*
X205209049Y-80327612D01*
X204965507Y-80252489D01*
X204965503Y-80252488D01*
X204965499Y-80252487D01*
X204844272Y-80234214D01*
X204713481Y-80214500D01*
X204713476Y-80214500D01*
X204458606Y-80214500D01*
X204458600Y-80214500D01*
X204301650Y-80238157D01*
X204206583Y-80252487D01*
X204206580Y-80252488D01*
X204206574Y-80252489D01*
X203963033Y-80327612D01*
X203733414Y-80438190D01*
X203733413Y-80438191D01*
X203522823Y-80581768D01*
X203335993Y-80755121D01*
X203335991Y-80755123D01*
X203177082Y-80954388D01*
X203049649Y-81175109D01*
X202956533Y-81412362D01*
X202956531Y-81412369D01*
X202899818Y-81660845D01*
X202880773Y-81914995D01*
X198786540Y-81914995D01*
X198786540Y-80667128D01*
X198780132Y-80607517D01*
X198770528Y-80581768D01*
X198729838Y-80472671D01*
X198729834Y-80472664D01*
X198643588Y-80357455D01*
X198643585Y-80357452D01*
X198528376Y-80271206D01*
X198528369Y-80271202D01*
X198393523Y-80220908D01*
X198393524Y-80220908D01*
X198333924Y-80214501D01*
X198333922Y-80214500D01*
X198333914Y-80214500D01*
X198333905Y-80214500D01*
X195838170Y-80214500D01*
X195838164Y-80214501D01*
X195778557Y-80220908D01*
X195643712Y-80271202D01*
X195643705Y-80271206D01*
X195528496Y-80357452D01*
X195528493Y-80357455D01*
X195442247Y-80472664D01*
X195442243Y-80472671D01*
X195391949Y-80607517D01*
X195385542Y-80667116D01*
X195385542Y-80667123D01*
X195385541Y-80667135D01*
X195385541Y-80909500D01*
X195365856Y-80976539D01*
X195313052Y-81022294D01*
X195261541Y-81033500D01*
X184797402Y-81033500D01*
X184730363Y-81013815D01*
X184706172Y-80993483D01*
X184690574Y-80976539D01*
X184534744Y-80807262D01*
X184338509Y-80654526D01*
X184338507Y-80654525D01*
X184338506Y-80654524D01*
X184119811Y-80536172D01*
X184119802Y-80536169D01*
X183884616Y-80455429D01*
X183639335Y-80414500D01*
X183390665Y-80414500D01*
X183145383Y-80455429D01*
X182910197Y-80536169D01*
X182910188Y-80536172D01*
X182691493Y-80654524D01*
X182495257Y-80807261D01*
X182326833Y-80990217D01*
X182190826Y-81198393D01*
X182090936Y-81426118D01*
X182029892Y-81667175D01*
X182029890Y-81667187D01*
X182009357Y-81914995D01*
X182009357Y-81915005D01*
X182024430Y-82096913D01*
X182010349Y-82165349D01*
X181988535Y-82194834D01*
X178741189Y-85442181D01*
X178679866Y-85475666D01*
X178653508Y-85478500D01*
X160436491Y-85478500D01*
X160369452Y-85458815D01*
X160348810Y-85442181D01*
X158397819Y-83491189D01*
X158364334Y-83429866D01*
X158361500Y-83403508D01*
X158361500Y-81828177D01*
X158327625Y-81657881D01*
X158327624Y-81657880D01*
X158327624Y-81657876D01*
X158309551Y-81614243D01*
X158261178Y-81497459D01*
X158261171Y-81497446D01*
X158164706Y-81353077D01*
X158164703Y-81353073D01*
X158041926Y-81230296D01*
X158041922Y-81230293D01*
X157897553Y-81133828D01*
X157897540Y-81133821D01*
X157737128Y-81067377D01*
X157737118Y-81067374D01*
X157566822Y-81033500D01*
X157566820Y-81033500D01*
X156626491Y-81033500D01*
X156559452Y-81013815D01*
X156538810Y-80997181D01*
X156173116Y-80631486D01*
X156139631Y-80570163D01*
X156137326Y-80555246D01*
X156125115Y-80423464D01*
X156064229Y-80209472D01*
X156059264Y-80199500D01*
X155965061Y-80010316D01*
X155965056Y-80010308D01*
X155830979Y-79832761D01*
X155666562Y-79682876D01*
X155666560Y-79682874D01*
X155477404Y-79565754D01*
X155477398Y-79565752D01*
X155269940Y-79485382D01*
X155051243Y-79444500D01*
X154828757Y-79444500D01*
X154610060Y-79485382D01*
X154496235Y-79529478D01*
X154402601Y-79565752D01*
X154402595Y-79565754D01*
X154213439Y-79682874D01*
X154213437Y-79682876D01*
X154049020Y-79832761D01*
X153914943Y-80010308D01*
X153914938Y-80010316D01*
X153815775Y-80209461D01*
X153815769Y-80209476D01*
X153754885Y-80423462D01*
X153754884Y-80423464D01*
X153734357Y-80644999D01*
X153734357Y-80645000D01*
X153754884Y-80866535D01*
X153754885Y-80866537D01*
X153815769Y-81080523D01*
X153815775Y-81080538D01*
X153914938Y-81279683D01*
X153914943Y-81279691D01*
X154049020Y-81457238D01*
X154179174Y-81575888D01*
X154210501Y-81604447D01*
X154213437Y-81607123D01*
X154213439Y-81607125D01*
X154402595Y-81724245D01*
X154402596Y-81724245D01*
X154402599Y-81724247D01*
X154610060Y-81804618D01*
X154828757Y-81845500D01*
X154842508Y-81845500D01*
X154909547Y-81865185D01*
X154930189Y-81881819D01*
X155243205Y-82194834D01*
X155525294Y-82476923D01*
X155648077Y-82599706D01*
X155696301Y-82631928D01*
X155792453Y-82696175D01*
X155792455Y-82696176D01*
X155792459Y-82696178D01*
X155952871Y-82762622D01*
X155952876Y-82762624D01*
X155952880Y-82762624D01*
X155952881Y-82762625D01*
X156123176Y-82796500D01*
X156123179Y-82796500D01*
X156123180Y-82796500D01*
X156474500Y-82796500D01*
X156541539Y-82816185D01*
X156587294Y-82868989D01*
X156598500Y-82920500D01*
X156598500Y-83403508D01*
X156578815Y-83470547D01*
X156562181Y-83491189D01*
X154930189Y-85123181D01*
X154868866Y-85156666D01*
X154842508Y-85159500D01*
X154828757Y-85159500D01*
X154610060Y-85200382D01*
X154509764Y-85239237D01*
X154402601Y-85280752D01*
X154402595Y-85280754D01*
X154213439Y-85397874D01*
X154213437Y-85397876D01*
X154049020Y-85547761D01*
X153926333Y-85710227D01*
X153870224Y-85751863D01*
X153827379Y-85759500D01*
X151851670Y-85759500D01*
X151851654Y-85759499D01*
X151844058Y-85759499D01*
X151685943Y-85759499D01*
X151609579Y-85779961D01*
X151533214Y-85800423D01*
X151533209Y-85800426D01*
X151396290Y-85879475D01*
X151396282Y-85879481D01*
X145837584Y-91438181D01*
X145776261Y-91471666D01*
X145749903Y-91474500D01*
X136190097Y-91474500D01*
X136123058Y-91454815D01*
X136102416Y-91438181D01*
X131932590Y-87268355D01*
X131932588Y-87268352D01*
X131813717Y-87149481D01*
X131813709Y-87149475D01*
X131695502Y-87081229D01*
X131695502Y-87081228D01*
X131695497Y-87081227D01*
X131688967Y-87077456D01*
X131676786Y-87070423D01*
X131638603Y-87060192D01*
X131524057Y-87029499D01*
X131365943Y-87029499D01*
X131358347Y-87029499D01*
X131358331Y-87029500D01*
X129382621Y-87029500D01*
X129315582Y-87009815D01*
X129283667Y-86980227D01*
X129160979Y-86817761D01*
X128996562Y-86667876D01*
X128996560Y-86667874D01*
X128807404Y-86550754D01*
X128807398Y-86550752D01*
X128599940Y-86470382D01*
X128381243Y-86429500D01*
X128158757Y-86429500D01*
X127940060Y-86470382D01*
X127839746Y-86509244D01*
X127732601Y-86550752D01*
X127732595Y-86550754D01*
X127543439Y-86667874D01*
X127543437Y-86667876D01*
X127379020Y-86817761D01*
X127244943Y-86995308D01*
X127244938Y-86995316D01*
X127145775Y-87194461D01*
X127145769Y-87194476D01*
X127084885Y-87408462D01*
X127084884Y-87408464D01*
X127064357Y-87629999D01*
X124395643Y-87629999D01*
X124375115Y-87408464D01*
X124314229Y-87194472D01*
X124303157Y-87172236D01*
X124215061Y-86995316D01*
X124215056Y-86995308D01*
X124080979Y-86817761D01*
X123916562Y-86667876D01*
X123916560Y-86667874D01*
X123727404Y-86550754D01*
X123727398Y-86550752D01*
X123519940Y-86470382D01*
X123301243Y-86429500D01*
X123078757Y-86429500D01*
X122860060Y-86470382D01*
X122759746Y-86509244D01*
X122652601Y-86550752D01*
X122652595Y-86550754D01*
X122463439Y-86667874D01*
X122463437Y-86667876D01*
X122299020Y-86817761D01*
X122176333Y-86980227D01*
X122120224Y-87021863D01*
X122077379Y-87029500D01*
X121585097Y-87029500D01*
X121518058Y-87009815D01*
X121497416Y-86993181D01*
X120128227Y-85623992D01*
X138449500Y-85623992D01*
X138449500Y-85826007D01*
X138488907Y-86024119D01*
X138488909Y-86024127D01*
X138566213Y-86210755D01*
X138619904Y-86291109D01*
X138640782Y-86357787D01*
X138622297Y-86425167D01*
X138619904Y-86428891D01*
X138566213Y-86509244D01*
X138488909Y-86695872D01*
X138488907Y-86695880D01*
X138449500Y-86893992D01*
X138449500Y-87096007D01*
X138488907Y-87294119D01*
X138488909Y-87294127D01*
X138522325Y-87374800D01*
X138529794Y-87444270D01*
X138510038Y-87489660D01*
X138510454Y-87489887D01*
X138507919Y-87494528D01*
X138507037Y-87496556D01*
X138506206Y-87497665D01*
X138506202Y-87497672D01*
X138455908Y-87632517D01*
X138449501Y-87692116D01*
X138449500Y-87692135D01*
X138449500Y-88837870D01*
X138449501Y-88837876D01*
X138455908Y-88897483D01*
X138506202Y-89032328D01*
X138506206Y-89032335D01*
X138592452Y-89147544D01*
X138592455Y-89147547D01*
X138707664Y-89233793D01*
X138707671Y-89233797D01*
X138842517Y-89284091D01*
X138842516Y-89284091D01*
X138849444Y-89284835D01*
X138902127Y-89290500D01*
X140497872Y-89290499D01*
X140557483Y-89284091D01*
X140692331Y-89233796D01*
X140807546Y-89147546D01*
X140893796Y-89032331D01*
X140925933Y-88946168D01*
X140967804Y-88890234D01*
X141033268Y-88865817D01*
X141042115Y-88865501D01*
X141049054Y-88865501D01*
X141049057Y-88865501D01*
X141201785Y-88824577D01*
X141262335Y-88789618D01*
X141338716Y-88745520D01*
X141450520Y-88633716D01*
X141450520Y-88633714D01*
X141460724Y-88623511D01*
X141460727Y-88623506D01*
X144992417Y-85091819D01*
X145053740Y-85058334D01*
X145080098Y-85055500D01*
X150574055Y-85055500D01*
X150574057Y-85055500D01*
X150726784Y-85014577D01*
X150863716Y-84935520D01*
X150975520Y-84823716D01*
X151054577Y-84686784D01*
X151095500Y-84534057D01*
X151095500Y-77135097D01*
X151115185Y-77068058D01*
X151131819Y-77047416D01*
X151977416Y-76201819D01*
X152038739Y-76168334D01*
X152065097Y-76165500D01*
X153827379Y-76165500D01*
X153894418Y-76185185D01*
X153926333Y-76214773D01*
X154049020Y-76377238D01*
X154213437Y-76527123D01*
X154213439Y-76527125D01*
X154402595Y-76644245D01*
X154402596Y-76644245D01*
X154402599Y-76644247D01*
X154610060Y-76724618D01*
X154828757Y-76765500D01*
X154828759Y-76765500D01*
X155051241Y-76765500D01*
X155051243Y-76765500D01*
X155269940Y-76724618D01*
X155477401Y-76644247D01*
X155666562Y-76527124D01*
X155830981Y-76377236D01*
X155953667Y-76214772D01*
X156009776Y-76173137D01*
X156052621Y-76165500D01*
X159719903Y-76165500D01*
X159786942Y-76185185D01*
X159807584Y-76201819D01*
X164770139Y-81164374D01*
X164770149Y-81164385D01*
X164774479Y-81168715D01*
X164774480Y-81168716D01*
X164886284Y-81280520D01*
X164886286Y-81280521D01*
X164886287Y-81280522D01*
X164900452Y-81288699D01*
X164945138Y-81314499D01*
X165023215Y-81359577D01*
X165175943Y-81400501D01*
X165175946Y-81400501D01*
X165341653Y-81400501D01*
X165341669Y-81400500D01*
X166681154Y-81400500D01*
X166748193Y-81420185D01*
X166793948Y-81472989D01*
X166795715Y-81477048D01*
X166836650Y-81575876D01*
X166836657Y-81575890D01*
X166951392Y-81774617D01*
X167091081Y-81956661D01*
X167091089Y-81956670D01*
X167253330Y-82118911D01*
X167253338Y-82118918D01*
X167253339Y-82118919D01*
X167276298Y-82136536D01*
X167435382Y-82258607D01*
X167435385Y-82258608D01*
X167435388Y-82258611D01*
X167634112Y-82373344D01*
X167634117Y-82373346D01*
X167634123Y-82373349D01*
X167725480Y-82411190D01*
X167846113Y-82461158D01*
X168067762Y-82520548D01*
X168295266Y-82550500D01*
X168295273Y-82550500D01*
X169524727Y-82550500D01*
X169524734Y-82550500D01*
X169752238Y-82520548D01*
X169973887Y-82461158D01*
X170185888Y-82373344D01*
X170384612Y-82258611D01*
X170566661Y-82118919D01*
X170566665Y-82118914D01*
X170566670Y-82118911D01*
X170728911Y-81956670D01*
X170728914Y-81956665D01*
X170728919Y-81956661D01*
X170868611Y-81774612D01*
X170983344Y-81575888D01*
X171071158Y-81363887D01*
X171130548Y-81142238D01*
X171160500Y-80914734D01*
X171160500Y-80685266D01*
X171130548Y-80457762D01*
X171071158Y-80236113D01*
X171014383Y-80099046D01*
X170983349Y-80024123D01*
X170983346Y-80024117D01*
X170983344Y-80024112D01*
X170868611Y-79825388D01*
X170868608Y-79825385D01*
X170868607Y-79825382D01*
X170762257Y-79686786D01*
X170728919Y-79643339D01*
X170728918Y-79643338D01*
X170728911Y-79643330D01*
X170566670Y-79481089D01*
X170566661Y-79481081D01*
X170384617Y-79341392D01*
X170381395Y-79339532D01*
X170185888Y-79226656D01*
X170185876Y-79226650D01*
X169973887Y-79138842D01*
X169752238Y-79079452D01*
X169714215Y-79074446D01*
X169524741Y-79049500D01*
X169524734Y-79049500D01*
X168295266Y-79049500D01*
X168295258Y-79049500D01*
X168078715Y-79078009D01*
X168067762Y-79079452D01*
X167974076Y-79104554D01*
X167846112Y-79138842D01*
X167634123Y-79226650D01*
X167634109Y-79226657D01*
X167435382Y-79341392D01*
X167253338Y-79481081D01*
X167091081Y-79643338D01*
X166951392Y-79825382D01*
X166836657Y-80024109D01*
X166836650Y-80024123D01*
X166795715Y-80122952D01*
X166751875Y-80177356D01*
X166685580Y-80199421D01*
X166681154Y-80199500D01*
X165555097Y-80199500D01*
X165488058Y-80179815D01*
X165467416Y-80163181D01*
X160507590Y-75203355D01*
X160507588Y-75203352D01*
X160388717Y-75084481D01*
X160388716Y-75084480D01*
X160281948Y-75022838D01*
X160281947Y-75022837D01*
X160251783Y-75005422D01*
X160195881Y-74990443D01*
X160099057Y-74964499D01*
X159940943Y-74964499D01*
X159933347Y-74964499D01*
X159933331Y-74964500D01*
X156052621Y-74964500D01*
X155985582Y-74944815D01*
X155953667Y-74915227D01*
X155830979Y-74752761D01*
X155666562Y-74602876D01*
X155666560Y-74602874D01*
X155477404Y-74485754D01*
X155477398Y-74485752D01*
X155446536Y-74473796D01*
X155269940Y-74405382D01*
X155051243Y-74364500D01*
X154828757Y-74364500D01*
X154610060Y-74405382D01*
X154494075Y-74450315D01*
X154402601Y-74485752D01*
X154402595Y-74485754D01*
X154213439Y-74602874D01*
X154213437Y-74602876D01*
X154049020Y-74752761D01*
X153926333Y-74915227D01*
X153870224Y-74956863D01*
X153827379Y-74964500D01*
X151844057Y-74964500D01*
X151685942Y-74964500D01*
X151533215Y-75005423D01*
X151509425Y-75019158D01*
X151503050Y-75022839D01*
X151503049Y-75022838D01*
X151396287Y-75084477D01*
X151396282Y-75084481D01*
X150014481Y-76466282D01*
X150014477Y-76466287D01*
X149969202Y-76544708D01*
X149969202Y-76544709D01*
X149935423Y-76603214D01*
X149933927Y-76608797D01*
X149894499Y-76755943D01*
X149894499Y-76755945D01*
X149894499Y-76924046D01*
X149894500Y-76924059D01*
X149894500Y-83730500D01*
X149874815Y-83797539D01*
X149822011Y-83843294D01*
X149770500Y-83854500D01*
X144866670Y-83854500D01*
X144866654Y-83854499D01*
X144859058Y-83854499D01*
X144700943Y-83854499D01*
X144624579Y-83874961D01*
X144548214Y-83895423D01*
X144548209Y-83895426D01*
X144411290Y-83974475D01*
X144411282Y-83974481D01*
X141155306Y-87230457D01*
X141093983Y-87263942D01*
X141024291Y-87258958D01*
X140968358Y-87217086D01*
X140943941Y-87151622D01*
X140946007Y-87118587D01*
X140950500Y-87096003D01*
X140950500Y-86893997D01*
X140911091Y-86695873D01*
X140833786Y-86509244D01*
X140780094Y-86428889D01*
X140759217Y-86362214D01*
X140777701Y-86294834D01*
X140780078Y-86291134D01*
X140833786Y-86210756D01*
X140911091Y-86024127D01*
X140950500Y-85826003D01*
X140950500Y-85623997D01*
X140911091Y-85425873D01*
X140833786Y-85239244D01*
X140833784Y-85239241D01*
X140833782Y-85239237D01*
X140721558Y-85071281D01*
X140578718Y-84928441D01*
X140410762Y-84816217D01*
X140410750Y-84816211D01*
X140377045Y-84802249D01*
X140322642Y-84758407D01*
X140300579Y-84692112D01*
X140300500Y-84687689D01*
X140300500Y-80310097D01*
X140320185Y-80243058D01*
X140336819Y-80222416D01*
X144357416Y-76201819D01*
X144418739Y-76168334D01*
X144445097Y-76165500D01*
X147868331Y-76165500D01*
X147868347Y-76165501D01*
X147875943Y-76165501D01*
X148034054Y-76165501D01*
X148034057Y-76165501D01*
X148186785Y-76124577D01*
X148236904Y-76095639D01*
X148323716Y-76045520D01*
X148435520Y-75933716D01*
X148435520Y-75933714D01*
X148445728Y-75923507D01*
X148445729Y-75923504D01*
X150707416Y-73661819D01*
X150768739Y-73628334D01*
X150795097Y-73625500D01*
X161624903Y-73625500D01*
X161691942Y-73645185D01*
X161712584Y-73661819D01*
X163740139Y-75689374D01*
X163740149Y-75689385D01*
X163744479Y-75693715D01*
X163744480Y-75693716D01*
X163856284Y-75805520D01*
X163943095Y-75855639D01*
X163943097Y-75855641D01*
X163993213Y-75884576D01*
X163993215Y-75884577D01*
X164145942Y-75925500D01*
X164145943Y-75925500D01*
X166681154Y-75925500D01*
X166748193Y-75945185D01*
X166793948Y-75997989D01*
X166795715Y-76002048D01*
X166836650Y-76100876D01*
X166836657Y-76100890D01*
X166951392Y-76299617D01*
X167091081Y-76481661D01*
X167091089Y-76481670D01*
X167253330Y-76643911D01*
X167253338Y-76643918D01*
X167253339Y-76643919D01*
X167281464Y-76665500D01*
X167435382Y-76783607D01*
X167435385Y-76783608D01*
X167435388Y-76783611D01*
X167634112Y-76898344D01*
X167634117Y-76898346D01*
X167634123Y-76898349D01*
X167696162Y-76924046D01*
X167846113Y-76986158D01*
X168067762Y-77045548D01*
X168295266Y-77075500D01*
X168295273Y-77075500D01*
X169524727Y-77075500D01*
X169524734Y-77075500D01*
X169752238Y-77045548D01*
X169973887Y-76986158D01*
X170185888Y-76898344D01*
X170384612Y-76783611D01*
X170566661Y-76643919D01*
X170566665Y-76643914D01*
X170566670Y-76643911D01*
X170728911Y-76481670D01*
X170728914Y-76481665D01*
X170728919Y-76481661D01*
X170868611Y-76299612D01*
X170983344Y-76100888D01*
X171071158Y-75888887D01*
X171130548Y-75667238D01*
X171160500Y-75439734D01*
X171160500Y-75210266D01*
X171130548Y-74982762D01*
X171071158Y-74761113D01*
X170994339Y-74575655D01*
X170983349Y-74549123D01*
X170983346Y-74549117D01*
X170983344Y-74549112D01*
X170868611Y-74350388D01*
X170868608Y-74350385D01*
X170868607Y-74350382D01*
X170728918Y-74168338D01*
X170728911Y-74168330D01*
X170566670Y-74006089D01*
X170566661Y-74006081D01*
X170384617Y-73866392D01*
X170185890Y-73751657D01*
X170185876Y-73751650D01*
X169973887Y-73663842D01*
X169904257Y-73645185D01*
X169752238Y-73604452D01*
X169714215Y-73599446D01*
X169524741Y-73574500D01*
X169524734Y-73574500D01*
X168295266Y-73574500D01*
X168295258Y-73574500D01*
X168078715Y-73603009D01*
X168067762Y-73604452D01*
X167990997Y-73625021D01*
X167846112Y-73663842D01*
X167634123Y-73751650D01*
X167634109Y-73751657D01*
X167435382Y-73866392D01*
X167253338Y-74006081D01*
X167091081Y-74168338D01*
X166951392Y-74350382D01*
X166836657Y-74549109D01*
X166836650Y-74549123D01*
X166795715Y-74647952D01*
X166751875Y-74702356D01*
X166685580Y-74724421D01*
X166681154Y-74724500D01*
X164525097Y-74724500D01*
X164458058Y-74704815D01*
X164437416Y-74688181D01*
X162412590Y-72663355D01*
X162412588Y-72663352D01*
X162293717Y-72544481D01*
X162293716Y-72544480D01*
X162201090Y-72491003D01*
X162201089Y-72491002D01*
X162156783Y-72465422D01*
X162100881Y-72450443D01*
X162004057Y-72424499D01*
X161845943Y-72424499D01*
X161838347Y-72424499D01*
X161838331Y-72424500D01*
X151219500Y-72424500D01*
X151152461Y-72404815D01*
X151106706Y-72352011D01*
X151095500Y-72300500D01*
X151095500Y-71594244D01*
X151115185Y-71527205D01*
X151154220Y-71488819D01*
X151221562Y-71447124D01*
X151385981Y-71297236D01*
X151520058Y-71119689D01*
X151619229Y-70920528D01*
X151680115Y-70706536D01*
X151700643Y-70485000D01*
X151680115Y-70263464D01*
X151619229Y-70049472D01*
X151597704Y-70006244D01*
X151520061Y-69850316D01*
X151520056Y-69850308D01*
X151385979Y-69672761D01*
X151221562Y-69522876D01*
X151221560Y-69522874D01*
X151032404Y-69405754D01*
X151032398Y-69405752D01*
X150824940Y-69325382D01*
X150606243Y-69284500D01*
X150383757Y-69284500D01*
X150165060Y-69325382D01*
X150044976Y-69371903D01*
X149957601Y-69405752D01*
X149957595Y-69405754D01*
X149768439Y-69522874D01*
X149768437Y-69522876D01*
X149604020Y-69672761D01*
X149469943Y-69850308D01*
X149469938Y-69850316D01*
X149370775Y-70049461D01*
X149370769Y-70049476D01*
X149309885Y-70263462D01*
X149309884Y-70263464D01*
X149289357Y-70484999D01*
X149289357Y-70485000D01*
X149309884Y-70706535D01*
X149309885Y-70706537D01*
X149370769Y-70920523D01*
X149370775Y-70920538D01*
X149469938Y-71119683D01*
X149469943Y-71119691D01*
X149604020Y-71297238D01*
X149768433Y-71447120D01*
X149768435Y-71447121D01*
X149768438Y-71447124D01*
X149835778Y-71488818D01*
X149882412Y-71540843D01*
X149894500Y-71594244D01*
X149894500Y-72724903D01*
X149874815Y-72791942D01*
X149858181Y-72812584D01*
X147742584Y-74928181D01*
X147681261Y-74961666D01*
X147654903Y-74964500D01*
X144224057Y-74964500D01*
X144065942Y-74964500D01*
X143913215Y-75005423D01*
X143889425Y-75019158D01*
X143883050Y-75022839D01*
X143883049Y-75022838D01*
X143776287Y-75084477D01*
X143776282Y-75084481D01*
X139219481Y-79641282D01*
X139219479Y-79641285D01*
X139169361Y-79728094D01*
X139169359Y-79728096D01*
X139140425Y-79778209D01*
X139140424Y-79778210D01*
X139140423Y-79778215D01*
X139099499Y-79930943D01*
X139099499Y-79930945D01*
X139099499Y-80099046D01*
X139099500Y-80099059D01*
X139099500Y-84687689D01*
X139079815Y-84754728D01*
X139027011Y-84800483D01*
X139022955Y-84802249D01*
X138989249Y-84816211D01*
X138989237Y-84816217D01*
X138821281Y-84928441D01*
X138678441Y-85071281D01*
X138566217Y-85239237D01*
X138566212Y-85239247D01*
X138488909Y-85425872D01*
X138488907Y-85425880D01*
X138449500Y-85623992D01*
X120128227Y-85623992D01*
X119232590Y-84728355D01*
X119232588Y-84728352D01*
X119113717Y-84609481D01*
X119113716Y-84609480D01*
X119026904Y-84559360D01*
X119026904Y-84559359D01*
X119026900Y-84559358D01*
X118976785Y-84530423D01*
X118824057Y-84489499D01*
X118665943Y-84489499D01*
X118658347Y-84489499D01*
X118658331Y-84489500D01*
X116359499Y-84489500D01*
X116292460Y-84469815D01*
X116246705Y-84417011D01*
X116235499Y-84365500D01*
X116235499Y-84242129D01*
X116235498Y-84242123D01*
X116235497Y-84242116D01*
X116229091Y-84182517D01*
X116178796Y-84047669D01*
X116178795Y-84047668D01*
X116178793Y-84047664D01*
X116092547Y-83932455D01*
X116092544Y-83932452D01*
X115977335Y-83846206D01*
X115977328Y-83846202D01*
X115897167Y-83816304D01*
X115841233Y-83774433D01*
X115816816Y-83708968D01*
X115816500Y-83700122D01*
X115816500Y-81654048D01*
X115836185Y-81587009D01*
X115852814Y-81566371D01*
X115935047Y-81484139D01*
X116065568Y-81297734D01*
X116161739Y-81091496D01*
X116220635Y-80871692D01*
X116238532Y-80667127D01*
X116240468Y-80645001D01*
X116240468Y-80644998D01*
X116233921Y-80570163D01*
X116220635Y-80418308D01*
X116161739Y-80198504D01*
X116065568Y-79992266D01*
X115935047Y-79805861D01*
X115935045Y-79805858D01*
X115774141Y-79644954D01*
X115587734Y-79514432D01*
X115587732Y-79514431D01*
X115381497Y-79418261D01*
X115381488Y-79418258D01*
X115161697Y-79359366D01*
X115161693Y-79359365D01*
X115161692Y-79359365D01*
X115161691Y-79359364D01*
X115161686Y-79359364D01*
X114935002Y-79339532D01*
X114934998Y-79339532D01*
X114708313Y-79359364D01*
X114708302Y-79359366D01*
X114488511Y-79418258D01*
X114488502Y-79418261D01*
X114282267Y-79514431D01*
X114282265Y-79514432D01*
X114095858Y-79644954D01*
X113934954Y-79805858D01*
X113804432Y-79992265D01*
X113804431Y-79992267D01*
X113708261Y-80198502D01*
X113708258Y-80198511D01*
X113649366Y-80418302D01*
X113649364Y-80418313D01*
X113629532Y-80644998D01*
X113629532Y-80645001D01*
X113649364Y-80871686D01*
X113649366Y-80871697D01*
X113708258Y-81091488D01*
X113708261Y-81091497D01*
X113804431Y-81297732D01*
X113804432Y-81297734D01*
X113934951Y-81484137D01*
X113934952Y-81484138D01*
X113934953Y-81484139D01*
X114017182Y-81566368D01*
X114050666Y-81627689D01*
X114053500Y-81654048D01*
X114053500Y-83700122D01*
X114033815Y-83767161D01*
X113981011Y-83812916D01*
X113972833Y-83816304D01*
X113892671Y-83846202D01*
X113892664Y-83846206D01*
X113777455Y-83932452D01*
X113777452Y-83932455D01*
X113691206Y-84047664D01*
X113691202Y-84047671D01*
X113640908Y-84182517D01*
X113634501Y-84242116D01*
X113634501Y-84242123D01*
X113634500Y-84242135D01*
X113634500Y-84365500D01*
X113614815Y-84432539D01*
X113562011Y-84478294D01*
X113510500Y-84489500D01*
X101265097Y-84489500D01*
X101198058Y-84469815D01*
X101177416Y-84453181D01*
X99001314Y-82277079D01*
X98967829Y-82215756D01*
X98969429Y-82165000D01*
X101693505Y-82165000D01*
X101746239Y-82350349D01*
X101845368Y-82549425D01*
X101979391Y-82726900D01*
X102143738Y-82876721D01*
X102332820Y-82993797D01*
X102332822Y-82993798D01*
X102540195Y-83074135D01*
X102620000Y-83089052D01*
X103120000Y-83089052D01*
X103199804Y-83074135D01*
X103407177Y-82993798D01*
X103407179Y-82993797D01*
X103596261Y-82876721D01*
X103760608Y-82726900D01*
X103894631Y-82549425D01*
X103993760Y-82350349D01*
X104046495Y-82165000D01*
X103120000Y-82165000D01*
X103120000Y-83089052D01*
X102620000Y-83089052D01*
X102620000Y-82165000D01*
X101693505Y-82165000D01*
X98969429Y-82165000D01*
X98969730Y-82155460D01*
X98975115Y-82136536D01*
X98995643Y-81915000D01*
X98991373Y-81868922D01*
X102520000Y-81868922D01*
X102520000Y-81961078D01*
X102543852Y-82050095D01*
X102589930Y-82129905D01*
X102655095Y-82195070D01*
X102734905Y-82241148D01*
X102823922Y-82265000D01*
X102916078Y-82265000D01*
X103005095Y-82241148D01*
X103084905Y-82195070D01*
X103150070Y-82129905D01*
X103196148Y-82050095D01*
X103220000Y-81961078D01*
X103220000Y-81868922D01*
X103196148Y-81779905D01*
X103150070Y-81700095D01*
X103114975Y-81665000D01*
X103120000Y-81665000D01*
X104046495Y-81665000D01*
X103993760Y-81479650D01*
X103894631Y-81280574D01*
X103760608Y-81103099D01*
X103596261Y-80953278D01*
X103407179Y-80836202D01*
X103407177Y-80836201D01*
X103199799Y-80755864D01*
X103120000Y-80740946D01*
X103120000Y-81665000D01*
X103114975Y-81665000D01*
X103084905Y-81634930D01*
X103005095Y-81588852D01*
X102916078Y-81565000D01*
X102823922Y-81565000D01*
X102734905Y-81588852D01*
X102655095Y-81634930D01*
X102589930Y-81700095D01*
X102543852Y-81779905D01*
X102520000Y-81868922D01*
X98991373Y-81868922D01*
X98975115Y-81693464D01*
X98967016Y-81665000D01*
X101693505Y-81665000D01*
X102620000Y-81665000D01*
X102620000Y-80740946D01*
X102540200Y-80755864D01*
X102332822Y-80836201D01*
X102332820Y-80836202D01*
X102143738Y-80953278D01*
X101979391Y-81103099D01*
X101845368Y-81280574D01*
X101746239Y-81479650D01*
X101693505Y-81665000D01*
X98967016Y-81665000D01*
X98914229Y-81479472D01*
X98903157Y-81457236D01*
X98815061Y-81280316D01*
X98815056Y-81280308D01*
X98680979Y-81102761D01*
X98516562Y-80952876D01*
X98516560Y-80952874D01*
X98327404Y-80835754D01*
X98327398Y-80835752D01*
X98119940Y-80755382D01*
X97901243Y-80714500D01*
X97678757Y-80714500D01*
X97608734Y-80727589D01*
X97540783Y-80740291D01*
X97471268Y-80733259D01*
X97430318Y-80706083D01*
X95966819Y-79242584D01*
X95933334Y-79181261D01*
X95930500Y-79154903D01*
X95930500Y-77142844D01*
X95950185Y-77075805D01*
X96000698Y-77031124D01*
X96050813Y-77006989D01*
X96167592Y-76950752D01*
X96374460Y-76809712D01*
X96536790Y-76659091D01*
X96557993Y-76639418D01*
X96557993Y-76639416D01*
X96557997Y-76639414D01*
X96714102Y-76443665D01*
X96839289Y-76226835D01*
X96930760Y-75993769D01*
X96986474Y-75749673D01*
X96986475Y-75749663D01*
X97005184Y-75500004D01*
X97005184Y-75499995D01*
X96986475Y-75250336D01*
X96986474Y-75250331D01*
X96986474Y-75250327D01*
X96930760Y-75006231D01*
X96839289Y-74773165D01*
X96714102Y-74556335D01*
X96557997Y-74360586D01*
X96557996Y-74360585D01*
X96557993Y-74360581D01*
X96374460Y-74190288D01*
X96363106Y-74182547D01*
X96167592Y-74049248D01*
X96167588Y-74049246D01*
X96167585Y-74049244D01*
X96167584Y-74049243D01*
X95949034Y-73943996D01*
X95942015Y-73940616D01*
X95942017Y-73940616D01*
X95702765Y-73866816D01*
X95702759Y-73866814D01*
X95455194Y-73829500D01*
X95455187Y-73829500D01*
X95204813Y-73829500D01*
X95204805Y-73829500D01*
X94957240Y-73866814D01*
X94957234Y-73866816D01*
X94717983Y-73940616D01*
X94492415Y-74049243D01*
X94492414Y-74049244D01*
X94285539Y-74190288D01*
X94102006Y-74360581D01*
X93945898Y-74556335D01*
X93820711Y-74773164D01*
X93776504Y-74885802D01*
X93733688Y-74941016D01*
X93667818Y-74964317D01*
X93661076Y-74964500D01*
X89377621Y-74964500D01*
X89310582Y-74944815D01*
X89278667Y-74915227D01*
X89155979Y-74752761D01*
X88991562Y-74602876D01*
X88991560Y-74602874D01*
X88802404Y-74485754D01*
X88802398Y-74485752D01*
X88771536Y-74473796D01*
X88594940Y-74405382D01*
X88376243Y-74364500D01*
X88153757Y-74364500D01*
X87935060Y-74405382D01*
X87819075Y-74450315D01*
X87727601Y-74485752D01*
X87727595Y-74485754D01*
X87538439Y-74602874D01*
X87538437Y-74602876D01*
X87374020Y-74752761D01*
X87239943Y-74930308D01*
X87239938Y-74930316D01*
X87140775Y-75129461D01*
X87140769Y-75129476D01*
X87079885Y-75343462D01*
X87079884Y-75343464D01*
X87059357Y-75564999D01*
X84390643Y-75564999D01*
X84390399Y-75562372D01*
X84370115Y-75343464D01*
X84370114Y-75343462D01*
X84366017Y-75329063D01*
X84309229Y-75129472D01*
X84286825Y-75084479D01*
X84210061Y-74930316D01*
X84210056Y-74930308D01*
X84075979Y-74752761D01*
X83911562Y-74602876D01*
X83911560Y-74602874D01*
X83722404Y-74485754D01*
X83722398Y-74485752D01*
X83691536Y-74473796D01*
X83514940Y-74405382D01*
X83296243Y-74364500D01*
X83073757Y-74364500D01*
X82855060Y-74405382D01*
X82739075Y-74450315D01*
X82647601Y-74485752D01*
X82647595Y-74485754D01*
X82458439Y-74602874D01*
X82458437Y-74602876D01*
X82294020Y-74752761D01*
X82171333Y-74915227D01*
X82115224Y-74956863D01*
X82072379Y-74964500D01*
X77417312Y-74964500D01*
X77350273Y-74944815D01*
X77318358Y-74915227D01*
X77246762Y-74820418D01*
X77096041Y-74683019D01*
X77096039Y-74683017D01*
X76922642Y-74575655D01*
X76922635Y-74575651D01*
X76807211Y-74530936D01*
X76732456Y-74501976D01*
X76531976Y-74464500D01*
X76328024Y-74464500D01*
X76127544Y-74501976D01*
X76127541Y-74501976D01*
X76127541Y-74501977D01*
X75940626Y-74574388D01*
X75871002Y-74580250D01*
X75821521Y-74558027D01*
X75772335Y-74521206D01*
X75772328Y-74521202D01*
X75637482Y-74470908D01*
X75637483Y-74470908D01*
X75577883Y-74464501D01*
X75577881Y-74464500D01*
X75577873Y-74464500D01*
X75577864Y-74464500D01*
X74282129Y-74464500D01*
X74282123Y-74464501D01*
X74222516Y-74470908D01*
X74087671Y-74521202D01*
X74087664Y-74521206D01*
X73972455Y-74607452D01*
X73972452Y-74607455D01*
X73886206Y-74722664D01*
X73886202Y-74722671D01*
X73835908Y-74857517D01*
X73829501Y-74917116D01*
X73829500Y-74917135D01*
X73829500Y-76212870D01*
X73829501Y-76212876D01*
X73835908Y-76272483D01*
X73886202Y-76407328D01*
X73886206Y-76407335D01*
X73972452Y-76522544D01*
X73972455Y-76522547D01*
X74087664Y-76608793D01*
X74087671Y-76608797D01*
X74222517Y-76659091D01*
X74230062Y-76660874D01*
X74229523Y-76663151D01*
X74283287Y-76685408D01*
X74323147Y-76742793D01*
X74329500Y-76781975D01*
X74329500Y-98651391D01*
X74309815Y-98718430D01*
X74257011Y-98764185D01*
X74236339Y-98771495D01*
X74155769Y-98792182D01*
X73863242Y-98908001D01*
X73863241Y-98908002D01*
X73587516Y-99059584D01*
X73587504Y-99059591D01*
X73332978Y-99244515D01*
X73332968Y-99244523D01*
X73103608Y-99459907D01*
X73103606Y-99459909D01*
X72903054Y-99702334D01*
X72903051Y-99702338D01*
X72734464Y-99967990D01*
X72734461Y-99967996D01*
X72600499Y-100252678D01*
X72600497Y-100252683D01*
X72503270Y-100551916D01*
X72444311Y-100860988D01*
X72444310Y-100860995D01*
X72424556Y-101174994D01*
X68580000Y-101174994D01*
X68580000Y-72999995D01*
X103655317Y-72999995D01*
X103655317Y-73000004D01*
X103674021Y-73249597D01*
X103674021Y-73249599D01*
X103729714Y-73493607D01*
X103729720Y-73493626D01*
X103821163Y-73726618D01*
X103946311Y-73943381D01*
X103946318Y-73943392D01*
X103984799Y-73991645D01*
X103984800Y-73991645D01*
X104728958Y-73247487D01*
X104753978Y-73307890D01*
X104825112Y-73414351D01*
X104915649Y-73504888D01*
X105022110Y-73576022D01*
X105082511Y-73601041D01*
X104338403Y-74345148D01*
X104492658Y-74450317D01*
X104492666Y-74450322D01*
X104718167Y-74558916D01*
X104718165Y-74558916D01*
X104957346Y-74632694D01*
X104957352Y-74632696D01*
X105204843Y-74669999D01*
X105204852Y-74670000D01*
X105455148Y-74670000D01*
X105455156Y-74669999D01*
X105702647Y-74632696D01*
X105702653Y-74632694D01*
X105941833Y-74558916D01*
X106167334Y-74450322D01*
X106167344Y-74450315D01*
X106321595Y-74345148D01*
X105577489Y-73601041D01*
X105637890Y-73576022D01*
X105744351Y-73504888D01*
X105834888Y-73414351D01*
X105906022Y-73307890D01*
X105931041Y-73247488D01*
X106675197Y-73991645D01*
X106675198Y-73991644D01*
X106713690Y-73943379D01*
X106838836Y-73726618D01*
X106930279Y-73493626D01*
X106930285Y-73493607D01*
X106985978Y-73249599D01*
X106985978Y-73249597D01*
X107004683Y-73000004D01*
X107004683Y-72999995D01*
X106985978Y-72750402D01*
X106985978Y-72750400D01*
X106930285Y-72506392D01*
X106930279Y-72506373D01*
X106838836Y-72273381D01*
X106783268Y-72177135D01*
X113634500Y-72177135D01*
X113634500Y-73872870D01*
X113634501Y-73872876D01*
X113640908Y-73932483D01*
X113691202Y-74067328D01*
X113691206Y-74067335D01*
X113777452Y-74182544D01*
X113777455Y-74182547D01*
X113892664Y-74268793D01*
X113892671Y-74268797D01*
X114027517Y-74319091D01*
X114027516Y-74319091D01*
X114034444Y-74319835D01*
X114087127Y-74325500D01*
X115782872Y-74325499D01*
X115842483Y-74319091D01*
X115977331Y-74268796D01*
X116092546Y-74182546D01*
X116178796Y-74067331D01*
X116229091Y-73932483D01*
X116235500Y-73872873D01*
X116235499Y-72177128D01*
X116229091Y-72117517D01*
X116219153Y-72090873D01*
X116178797Y-71982671D01*
X116178793Y-71982664D01*
X116092547Y-71867455D01*
X116092544Y-71867452D01*
X115977335Y-71781206D01*
X115977328Y-71781202D01*
X115897167Y-71751304D01*
X115841233Y-71709433D01*
X115816816Y-71643968D01*
X115816500Y-71635122D01*
X115816500Y-70901491D01*
X115836185Y-70834452D01*
X115852819Y-70813810D01*
X117803810Y-68862819D01*
X117865133Y-68829334D01*
X117891491Y-68826500D01*
X122773508Y-68826500D01*
X122840547Y-68846185D01*
X122861189Y-68862819D01*
X124537181Y-70538810D01*
X124570666Y-70600133D01*
X124573500Y-70626491D01*
X124573500Y-71544861D01*
X124553815Y-71611900D01*
X124537181Y-71632542D01*
X124433444Y-71736278D01*
X124433441Y-71736281D01*
X124321217Y-71904237D01*
X124321212Y-71904247D01*
X124243909Y-72090872D01*
X124243907Y-72090880D01*
X124204500Y-72288992D01*
X124204500Y-72491004D01*
X124243907Y-72689119D01*
X124243909Y-72689127D01*
X124321213Y-72875755D01*
X124374904Y-72956109D01*
X124395782Y-73022787D01*
X124377297Y-73090167D01*
X124374904Y-73093891D01*
X124321213Y-73174244D01*
X124243909Y-73360872D01*
X124243907Y-73360880D01*
X124204500Y-73558992D01*
X124204500Y-73761007D01*
X124243907Y-73959119D01*
X124243910Y-73959131D01*
X124277547Y-74040338D01*
X124285016Y-74109807D01*
X124265405Y-74154864D01*
X124265895Y-74155132D01*
X124262910Y-74160596D01*
X124262260Y-74162092D01*
X124261646Y-74162911D01*
X124261645Y-74162913D01*
X124211403Y-74297620D01*
X124211401Y-74297627D01*
X124205000Y-74357155D01*
X124205000Y-74680000D01*
X125089134Y-74680000D01*
X125113326Y-74682383D01*
X125116123Y-74682939D01*
X125128995Y-74685499D01*
X125128996Y-74685500D01*
X125128997Y-74685500D01*
X125169170Y-74685500D01*
X125154925Y-74699745D01*
X125105556Y-74785255D01*
X125080000Y-74880630D01*
X125080000Y-74979370D01*
X125105556Y-75074745D01*
X125154925Y-75160255D01*
X125174670Y-75180000D01*
X124205000Y-75180000D01*
X124205000Y-75502844D01*
X124211401Y-75562372D01*
X124211403Y-75562379D01*
X124261645Y-75697086D01*
X124261649Y-75697093D01*
X124347809Y-75812187D01*
X124347812Y-75812190D01*
X124462906Y-75898350D01*
X124462913Y-75898354D01*
X124597620Y-75948596D01*
X124597627Y-75948598D01*
X124657155Y-75954999D01*
X124657172Y-75955000D01*
X125205000Y-75955000D01*
X125205000Y-75210330D01*
X125224745Y-75230075D01*
X125310255Y-75279444D01*
X125405630Y-75305000D01*
X125504370Y-75305000D01*
X125599745Y-75279444D01*
X125685255Y-75230075D01*
X125705000Y-75210330D01*
X125705000Y-75955000D01*
X126252828Y-75955000D01*
X126252844Y-75954999D01*
X126312372Y-75948598D01*
X126312379Y-75948596D01*
X126447086Y-75898354D01*
X126447093Y-75898350D01*
X126492658Y-75864240D01*
X134039311Y-75864240D01*
X134127585Y-75918897D01*
X134317678Y-75992539D01*
X134518072Y-76030000D01*
X134721928Y-76030000D01*
X134922322Y-75992539D01*
X135112412Y-75918899D01*
X135112416Y-75918897D01*
X135200686Y-75864241D01*
X135200686Y-75864240D01*
X134620001Y-75283553D01*
X134620000Y-75283553D01*
X134039311Y-75864240D01*
X126492658Y-75864240D01*
X126562187Y-75812190D01*
X126562190Y-75812187D01*
X126648350Y-75697093D01*
X126648354Y-75697086D01*
X126698596Y-75562379D01*
X126698598Y-75562372D01*
X126704999Y-75502844D01*
X126705000Y-75502827D01*
X126705000Y-75180000D01*
X125735330Y-75180000D01*
X125755075Y-75160255D01*
X125804444Y-75074745D01*
X125830000Y-74979370D01*
X125830000Y-74880630D01*
X125804444Y-74785255D01*
X125755075Y-74699745D01*
X125740830Y-74685500D01*
X125781004Y-74685500D01*
X125781004Y-74685499D01*
X125794473Y-74682820D01*
X125796674Y-74682383D01*
X125820866Y-74680000D01*
X126705000Y-74680000D01*
X126705000Y-74357172D01*
X126704999Y-74357155D01*
X126698598Y-74297627D01*
X126698596Y-74297620D01*
X126648354Y-74162913D01*
X126648353Y-74162911D01*
X126647745Y-74162099D01*
X126647390Y-74161148D01*
X126644103Y-74155128D01*
X126644968Y-74154655D01*
X126623329Y-74096634D01*
X126632452Y-74040338D01*
X126666091Y-73959127D01*
X126705500Y-73761003D01*
X126705500Y-73558997D01*
X126666091Y-73360873D01*
X126588786Y-73174244D01*
X126588785Y-73174242D01*
X126588100Y-73172960D01*
X126587943Y-73172210D01*
X126586455Y-73168616D01*
X126587136Y-73168333D01*
X126573853Y-73104558D01*
X126598849Y-73039313D01*
X126655152Y-72997939D01*
X126697454Y-72990500D01*
X133279903Y-72990500D01*
X133346942Y-73010185D01*
X133367584Y-73026819D01*
X133483181Y-73142416D01*
X133516666Y-73203739D01*
X133519500Y-73230097D01*
X133519500Y-74077870D01*
X133519501Y-74077876D01*
X133525908Y-74137483D01*
X133576202Y-74272328D01*
X133576206Y-74272335D01*
X133615954Y-74325431D01*
X133640372Y-74390895D01*
X133627688Y-74455013D01*
X133589888Y-74530925D01*
X133589883Y-74530936D01*
X133534097Y-74727007D01*
X133534096Y-74727010D01*
X133515287Y-74929999D01*
X133515287Y-74930000D01*
X133534096Y-75132989D01*
X133534097Y-75132992D01*
X133589883Y-75329063D01*
X133589886Y-75329069D01*
X133680751Y-75511551D01*
X133682533Y-75513911D01*
X134325145Y-74871298D01*
X134320000Y-74890504D01*
X134320000Y-74969496D01*
X134340444Y-75045796D01*
X134379940Y-75114205D01*
X134435795Y-75170060D01*
X134504204Y-75209556D01*
X134580504Y-75230000D01*
X134659496Y-75230000D01*
X134735796Y-75209556D01*
X134804205Y-75170060D01*
X134860060Y-75114205D01*
X134899556Y-75045796D01*
X134920000Y-74969496D01*
X134920000Y-74890504D01*
X134914854Y-74871301D01*
X135557465Y-75513912D01*
X135559247Y-75511553D01*
X135559248Y-75511551D01*
X135650113Y-75329069D01*
X135650116Y-75329063D01*
X135705902Y-75132992D01*
X135705903Y-75132989D01*
X135724713Y-74930000D01*
X135724713Y-74929999D01*
X135705903Y-74727010D01*
X135705902Y-74727008D01*
X135650115Y-74530936D01*
X135650110Y-74530925D01*
X135612311Y-74455013D01*
X135600050Y-74386228D01*
X135624045Y-74325431D01*
X135663796Y-74272331D01*
X135665115Y-74268796D01*
X135697283Y-74182547D01*
X135714091Y-74137483D01*
X135720500Y-74077873D01*
X135720499Y-72782128D01*
X135715299Y-72733757D01*
X135714091Y-72722516D01*
X135663797Y-72587671D01*
X135663793Y-72587664D01*
X135577547Y-72472455D01*
X135577544Y-72472452D01*
X135462335Y-72386206D01*
X135462328Y-72386202D01*
X135327482Y-72335908D01*
X135327483Y-72335908D01*
X135267883Y-72329501D01*
X135267881Y-72329500D01*
X135267873Y-72329500D01*
X135267865Y-72329500D01*
X134420097Y-72329500D01*
X134353058Y-72309815D01*
X134332416Y-72293181D01*
X134067590Y-72028355D01*
X134067588Y-72028352D01*
X133948717Y-71909481D01*
X133948716Y-71909480D01*
X133861904Y-71859360D01*
X133861904Y-71859359D01*
X133861900Y-71859358D01*
X133811785Y-71830423D01*
X133659057Y-71789499D01*
X133500943Y-71789499D01*
X133493347Y-71789499D01*
X133493331Y-71789500D01*
X126578397Y-71789500D01*
X126511358Y-71769815D01*
X126481288Y-71740279D01*
X126480422Y-71740990D01*
X126476555Y-71736278D01*
X126372819Y-71632542D01*
X126339334Y-71571219D01*
X126336500Y-71544861D01*
X126336500Y-70735000D01*
X144238505Y-70735000D01*
X144291239Y-70920349D01*
X144390368Y-71119425D01*
X144524391Y-71296900D01*
X144688738Y-71446721D01*
X144877820Y-71563797D01*
X144877822Y-71563798D01*
X145085195Y-71644135D01*
X145165000Y-71659052D01*
X145665000Y-71659052D01*
X145744804Y-71644135D01*
X145952177Y-71563798D01*
X145952179Y-71563797D01*
X146141261Y-71446721D01*
X146305608Y-71296900D01*
X146439631Y-71119425D01*
X146538760Y-70920349D01*
X146591495Y-70735000D01*
X145665000Y-70735000D01*
X145665000Y-71659052D01*
X145165000Y-71659052D01*
X145165000Y-70735000D01*
X144238505Y-70735000D01*
X126336500Y-70735000D01*
X126336500Y-70438922D01*
X145065000Y-70438922D01*
X145065000Y-70531078D01*
X145088852Y-70620095D01*
X145134930Y-70699905D01*
X145200095Y-70765070D01*
X145279905Y-70811148D01*
X145368922Y-70835000D01*
X145461078Y-70835000D01*
X145550095Y-70811148D01*
X145629905Y-70765070D01*
X145695070Y-70699905D01*
X145741148Y-70620095D01*
X145765000Y-70531078D01*
X145765000Y-70438922D01*
X145741148Y-70349905D01*
X145695070Y-70270095D01*
X145659975Y-70235000D01*
X145665000Y-70235000D01*
X146591495Y-70235000D01*
X146538760Y-70049650D01*
X146439631Y-69850574D01*
X146305608Y-69673099D01*
X146141261Y-69523278D01*
X145952179Y-69406202D01*
X145952177Y-69406201D01*
X145744799Y-69325864D01*
X145665000Y-69310946D01*
X145665000Y-70235000D01*
X145659975Y-70235000D01*
X145629905Y-70204930D01*
X145550095Y-70158852D01*
X145461078Y-70135000D01*
X145368922Y-70135000D01*
X145279905Y-70158852D01*
X145200095Y-70204930D01*
X145134930Y-70270095D01*
X145088852Y-70349905D01*
X145065000Y-70438922D01*
X126336500Y-70438922D01*
X126336500Y-70235000D01*
X144238505Y-70235000D01*
X145165000Y-70235000D01*
X145165000Y-69310946D01*
X145085200Y-69325864D01*
X144877822Y-69406201D01*
X144877820Y-69406202D01*
X144688738Y-69523278D01*
X144524391Y-69673099D01*
X144390368Y-69850574D01*
X144291239Y-70049650D01*
X144238505Y-70235000D01*
X126336500Y-70235000D01*
X126336500Y-70123179D01*
X126336499Y-70123178D01*
X126323607Y-70058361D01*
X126302625Y-69952876D01*
X126249397Y-69824374D01*
X126249397Y-69824373D01*
X126236178Y-69792459D01*
X126236171Y-69792446D01*
X126139707Y-69648078D01*
X126091629Y-69600000D01*
X126016923Y-69525294D01*
X125540872Y-69049243D01*
X125043785Y-68552155D01*
X166660000Y-68552155D01*
X166660000Y-69600000D01*
X168201759Y-69600000D01*
X168188822Y-69631233D01*
X168160000Y-69776131D01*
X168160000Y-69923869D01*
X168188822Y-70068767D01*
X168201759Y-70100000D01*
X166660000Y-70100000D01*
X166660000Y-71147844D01*
X166666401Y-71207372D01*
X166666403Y-71207379D01*
X166716645Y-71342086D01*
X166716649Y-71342093D01*
X166802809Y-71457187D01*
X166802812Y-71457190D01*
X166917906Y-71543350D01*
X166917913Y-71543354D01*
X167052620Y-71593596D01*
X167052627Y-71593598D01*
X167112155Y-71599999D01*
X167112172Y-71600000D01*
X168660000Y-71600000D01*
X168660000Y-70558240D01*
X168691233Y-70571178D01*
X168836131Y-70600000D01*
X168983869Y-70600000D01*
X169128767Y-70571178D01*
X169160000Y-70558240D01*
X169160000Y-71600000D01*
X170707828Y-71600000D01*
X170707844Y-71599999D01*
X170767372Y-71593598D01*
X170767379Y-71593596D01*
X170902086Y-71543354D01*
X170902093Y-71543350D01*
X171017187Y-71457190D01*
X171017190Y-71457187D01*
X171103350Y-71342093D01*
X171103354Y-71342086D01*
X171153596Y-71207379D01*
X171153598Y-71207372D01*
X171159999Y-71147844D01*
X171160000Y-71147827D01*
X171160000Y-70100000D01*
X169618241Y-70100000D01*
X169631178Y-70068767D01*
X169660000Y-69923869D01*
X169660000Y-69776131D01*
X169631178Y-69631233D01*
X169618241Y-69600000D01*
X171160000Y-69600000D01*
X171160000Y-68552172D01*
X171159999Y-68552155D01*
X171153598Y-68492627D01*
X171153596Y-68492620D01*
X171103354Y-68357913D01*
X171103350Y-68357906D01*
X171017190Y-68242812D01*
X171017187Y-68242809D01*
X170902093Y-68156649D01*
X170902086Y-68156645D01*
X170767379Y-68106403D01*
X170767372Y-68106401D01*
X170707844Y-68100000D01*
X169160000Y-68100000D01*
X169160000Y-69141759D01*
X169128767Y-69128822D01*
X168983869Y-69100000D01*
X168836131Y-69100000D01*
X168691233Y-69128822D01*
X168660000Y-69141759D01*
X168660000Y-68100000D01*
X167112155Y-68100000D01*
X167052627Y-68106401D01*
X167052620Y-68106403D01*
X166917913Y-68156645D01*
X166917906Y-68156649D01*
X166802812Y-68242809D01*
X166802809Y-68242812D01*
X166716649Y-68357906D01*
X166716645Y-68357913D01*
X166666403Y-68492620D01*
X166666401Y-68492627D01*
X166660000Y-68552155D01*
X125043785Y-68552155D01*
X123751927Y-67260296D01*
X123607543Y-67163822D01*
X123447128Y-67097377D01*
X123447118Y-67097374D01*
X123276823Y-67063500D01*
X123276821Y-67063500D01*
X123276820Y-67063500D01*
X117561820Y-67063500D01*
X117388179Y-67063500D01*
X117388177Y-67063500D01*
X117217881Y-67097374D01*
X117217871Y-67097377D01*
X117057459Y-67163821D01*
X117057446Y-67163828D01*
X116913078Y-67260292D01*
X116913076Y-67260295D01*
X114250296Y-69923072D01*
X114250290Y-69923080D01*
X114159900Y-70058359D01*
X114159900Y-70058361D01*
X114156884Y-70062874D01*
X114153826Y-70067451D01*
X114153823Y-70067456D01*
X114087376Y-70227875D01*
X114087374Y-70227881D01*
X114053500Y-70398177D01*
X114053500Y-71635122D01*
X114033815Y-71702161D01*
X113981011Y-71747916D01*
X113972833Y-71751304D01*
X113892671Y-71781202D01*
X113892664Y-71781206D01*
X113777455Y-71867452D01*
X113777452Y-71867455D01*
X113691206Y-71982664D01*
X113691202Y-71982671D01*
X113640908Y-72117517D01*
X113634501Y-72177116D01*
X113634501Y-72177123D01*
X113634500Y-72177135D01*
X106783268Y-72177135D01*
X106713688Y-72056618D01*
X106713681Y-72056607D01*
X106675199Y-72008354D01*
X106675198Y-72008353D01*
X105931041Y-72752510D01*
X105906022Y-72692110D01*
X105834888Y-72585649D01*
X105744351Y-72495112D01*
X105637890Y-72423978D01*
X105577488Y-72398958D01*
X106321595Y-71654850D01*
X106167335Y-71549678D01*
X106167334Y-71549677D01*
X105941832Y-71441083D01*
X105941834Y-71441083D01*
X105702653Y-71367305D01*
X105702647Y-71367303D01*
X105455156Y-71330000D01*
X105204843Y-71330000D01*
X104957352Y-71367303D01*
X104957346Y-71367305D01*
X104718166Y-71441083D01*
X104492664Y-71549679D01*
X104492651Y-71549686D01*
X104338403Y-71654849D01*
X105082512Y-72398958D01*
X105022110Y-72423978D01*
X104915649Y-72495112D01*
X104825112Y-72585649D01*
X104753978Y-72692110D01*
X104728958Y-72752511D01*
X103984800Y-72008354D01*
X103946311Y-72056617D01*
X103821163Y-72273381D01*
X103729720Y-72506373D01*
X103729714Y-72506392D01*
X103674021Y-72750400D01*
X103674021Y-72750402D01*
X103655317Y-72999995D01*
X68580000Y-72999995D01*
X68580000Y-70499995D01*
X93654816Y-70499995D01*
X93654816Y-70500004D01*
X93673524Y-70749663D01*
X93673525Y-70749668D01*
X93729236Y-70993755D01*
X93729238Y-70993764D01*
X93729240Y-70993769D01*
X93820711Y-71226835D01*
X93945898Y-71443665D01*
X94030440Y-71549677D01*
X94102006Y-71639418D01*
X94254816Y-71781204D01*
X94285540Y-71809712D01*
X94492408Y-71950752D01*
X94492413Y-71950754D01*
X94492414Y-71950755D01*
X94492415Y-71950756D01*
X94612018Y-72008353D01*
X94717983Y-72059383D01*
X94717984Y-72059383D01*
X94717987Y-72059385D01*
X94957236Y-72133184D01*
X94957237Y-72133184D01*
X94957240Y-72133185D01*
X95204805Y-72170499D01*
X95204810Y-72170499D01*
X95204813Y-72170500D01*
X95204814Y-72170500D01*
X95455186Y-72170500D01*
X95455187Y-72170500D01*
X95455194Y-72170499D01*
X95702759Y-72133185D01*
X95702760Y-72133184D01*
X95702764Y-72133184D01*
X95942013Y-72059385D01*
X96167592Y-71950752D01*
X96374460Y-71809712D01*
X96557997Y-71639414D01*
X96714102Y-71443665D01*
X96839289Y-71226835D01*
X96930760Y-70993769D01*
X96986474Y-70749673D01*
X96995705Y-70626491D01*
X97005184Y-70500004D01*
X97005184Y-70499995D01*
X96986475Y-70250336D01*
X96986474Y-70250331D01*
X96986474Y-70250327D01*
X96930760Y-70006231D01*
X96839289Y-69773165D01*
X96714102Y-69556335D01*
X96557997Y-69360586D01*
X96557996Y-69360585D01*
X96557993Y-69360581D01*
X96374460Y-69190288D01*
X96367230Y-69185359D01*
X96167592Y-69049248D01*
X96167588Y-69049246D01*
X96167585Y-69049244D01*
X96167584Y-69049243D01*
X95942015Y-68940616D01*
X95942017Y-68940616D01*
X95702765Y-68866816D01*
X95702759Y-68866814D01*
X95455194Y-68829500D01*
X95455187Y-68829500D01*
X95204813Y-68829500D01*
X95204805Y-68829500D01*
X94957240Y-68866814D01*
X94957234Y-68866816D01*
X94717983Y-68940616D01*
X94492415Y-69049243D01*
X94492414Y-69049244D01*
X94285539Y-69190288D01*
X94102006Y-69360581D01*
X93945898Y-69556335D01*
X93820711Y-69773164D01*
X93729242Y-70006225D01*
X93729236Y-70006244D01*
X93673525Y-70250331D01*
X93673524Y-70250336D01*
X93654816Y-70499995D01*
X68580000Y-70499995D01*
X68580000Y-65529000D01*
X68599685Y-65461961D01*
X68652489Y-65416206D01*
X68704000Y-65405000D01*
X220856000Y-65405000D01*
X220923039Y-65424685D01*
G37*
%TD.AperFunction*%
%TD*%
M02*
