%TF.GenerationSoftware,KiCad,Pcbnew,8.0.4*%
%TF.CreationDate,2024-11-12T18:47:43-08:00*%
%TF.ProjectId,PD Jack_RevA,5044204a-6163-46b5-9f52-6576412e6b69,rev?*%
%TF.SameCoordinates,Original*%
%TF.FileFunction,Copper,L2,Bot*%
%TF.FilePolarity,Positive*%
%FSLAX46Y46*%
G04 Gerber Fmt 4.6, Leading zero omitted, Abs format (unit mm)*
G04 Created by KiCad (PCBNEW 8.0.4) date 2024-11-12 18:47:43*
%MOMM*%
%LPD*%
G01*
G04 APERTURE LIST*
G04 Aperture macros list*
%AMRoundRect*
0 Rectangle with rounded corners*
0 $1 Rounding radius*
0 $2 $3 $4 $5 $6 $7 $8 $9 X,Y pos of 4 corners*
0 Add a 4 corners polygon primitive as box body*
4,1,4,$2,$3,$4,$5,$6,$7,$8,$9,$2,$3,0*
0 Add four circle primitives for the rounded corners*
1,1,$1+$1,$2,$3*
1,1,$1+$1,$4,$5*
1,1,$1+$1,$6,$7*
1,1,$1+$1,$8,$9*
0 Add four rect primitives between the rounded corners*
20,1,$1+$1,$2,$3,$4,$5,0*
20,1,$1+$1,$4,$5,$6,$7,0*
20,1,$1+$1,$6,$7,$8,$9,0*
20,1,$1+$1,$8,$9,$2,$3,0*%
G04 Aperture macros list end*
%TA.AperFunction,ComponentPad*%
%ADD10C,7.000000*%
%TD*%
%TA.AperFunction,ComponentPad*%
%ADD11R,1.800000X1.800000*%
%TD*%
%TA.AperFunction,ComponentPad*%
%ADD12C,1.800000*%
%TD*%
%TA.AperFunction,ComponentPad*%
%ADD13R,3.500000X3.500000*%
%TD*%
%TA.AperFunction,ComponentPad*%
%ADD14RoundRect,0.750000X-0.750000X-1.000000X0.750000X-1.000000X0.750000X1.000000X-0.750000X1.000000X0*%
%TD*%
%TA.AperFunction,ComponentPad*%
%ADD15RoundRect,0.875000X-0.875000X-0.875000X0.875000X-0.875000X0.875000X0.875000X-0.875000X0.875000X0*%
%TD*%
%TA.AperFunction,ComponentPad*%
%ADD16C,1.600000*%
%TD*%
%TA.AperFunction,ComponentPad*%
%ADD17O,1.600000X1.600000*%
%TD*%
%TA.AperFunction,ComponentPad*%
%ADD18R,2.600000X2.600000*%
%TD*%
%TA.AperFunction,ComponentPad*%
%ADD19C,2.600000*%
%TD*%
%TA.AperFunction,Conductor*%
%ADD20C,0.508000*%
%TD*%
%TA.AperFunction,Conductor*%
%ADD21C,2.540000*%
%TD*%
G04 APERTURE END LIST*
D10*
%TO.P,H4,1,1*%
%TO.N,GND*%
X124460000Y-130810000D03*
%TD*%
D11*
%TO.P,D1,1,K*%
%TO.N,GND*%
X124865000Y-80237000D03*
D12*
%TO.P,D1,2,A*%
%TO.N,Net-(D1-A)*%
X124865000Y-82777000D03*
%TD*%
D13*
%TO.P,J1,1*%
%TO.N,18V*%
X134270000Y-99372500D03*
D14*
%TO.P,J1,2*%
%TO.N,GND*%
X128270000Y-99372500D03*
D15*
%TO.P,J1,3*%
X131270000Y-104072500D03*
%TD*%
D16*
%TO.P,R1,1*%
%TO.N,18V*%
X144958000Y-92710000D03*
D17*
%TO.P,R1,2*%
%TO.N,Net-(R1-Pad2)*%
X144958000Y-82550000D03*
%TD*%
D18*
%TO.P,(-)J3,1,Pin_1*%
%TO.N,GND*%
X164135000Y-118030000D03*
D19*
%TO.P,(-)J3,2,Pin_2*%
X164135000Y-113030000D03*
%TO.P,(-)J3,3,Pin_3*%
X164135000Y-108030000D03*
%TD*%
D10*
%TO.P,H2,1,1*%
%TO.N,GND*%
X165100000Y-131017000D03*
%TD*%
%TO.P,H1,1,1*%
%TO.N,GND*%
X165100000Y-72597000D03*
%TD*%
%TO.P,H3,1,1*%
%TO.N,GND*%
X124460000Y-72390000D03*
%TD*%
D18*
%TO.P,(+)J2,1,Pin_1*%
%TO.N,18V*%
X163830000Y-98980000D03*
D19*
%TO.P,(+)J2,2,Pin_2*%
X163830000Y-93980000D03*
%TO.P,(+)J2,3,Pin_3*%
X163830000Y-88980000D03*
%TD*%
D16*
%TO.P,R2,1*%
%TO.N,Net-(R1-Pad2)*%
X137338000Y-82550000D03*
D17*
%TO.P,R2,2*%
%TO.N,Net-(D1-A)*%
X137338000Y-92710000D03*
%TD*%
D20*
%TO.N,Net-(R1-Pad2)*%
X137338000Y-82550000D02*
X144958000Y-82550000D01*
%TO.N,18V*%
X134375500Y-99267000D02*
X134270000Y-99372500D01*
D21*
X163623000Y-99267000D02*
X163830000Y-99060000D01*
X142240000Y-99267000D02*
X144958000Y-96549000D01*
D20*
X163543000Y-99267000D02*
X163830000Y-98980000D01*
D21*
X144958000Y-96549000D02*
X144958000Y-92710000D01*
X142240000Y-99267000D02*
X134375500Y-99267000D01*
X144780000Y-99267000D02*
X142240000Y-99267000D01*
X148590000Y-99267000D02*
X153670000Y-99267000D01*
X163750000Y-89060000D02*
X163830000Y-88980000D01*
X158877000Y-94060000D02*
X153670000Y-99267000D01*
X158797000Y-89060000D02*
X148590000Y-99267000D01*
X163750000Y-94060000D02*
X163830000Y-93980000D01*
X153670000Y-99267000D02*
X163543000Y-99267000D01*
X158797000Y-89060000D02*
X163750000Y-89060000D01*
X144780000Y-99267000D02*
X148590000Y-99267000D01*
X158877000Y-94060000D02*
X163750000Y-94060000D01*
D20*
%TO.N,Net-(D1-A)*%
X124865000Y-86765000D02*
X124865000Y-82777000D01*
X130810000Y-92710000D02*
X137338000Y-92710000D01*
X130810000Y-92710000D02*
X124865000Y-86765000D01*
D21*
%TO.N,GND*%
X131270000Y-104072500D02*
X143510000Y-104072500D01*
X143510000Y-105410000D02*
X156050000Y-117950000D01*
D20*
X133350000Y-76200000D02*
X129540000Y-80010000D01*
D21*
X148590000Y-105410000D02*
X156130000Y-112950000D01*
D20*
X158543000Y-72597000D02*
X165100000Y-72597000D01*
D21*
X156130000Y-112950000D02*
X163830000Y-112950000D01*
X143510000Y-104072500D02*
X143510000Y-105410000D01*
X156210000Y-107950000D02*
X163830000Y-107950000D01*
X156050000Y-117950000D02*
X163830000Y-117950000D01*
X128270000Y-99372500D02*
X131270000Y-102372500D01*
X164135000Y-118030000D02*
X164135000Y-130052000D01*
D20*
X158543000Y-72597000D02*
X154940000Y-76200000D01*
D21*
X152332500Y-104072500D02*
X156210000Y-107950000D01*
X148590000Y-104072500D02*
X148590000Y-105410000D01*
D20*
X125092000Y-80010000D02*
X124865000Y-80237000D01*
X154940000Y-76200000D02*
X133350000Y-76200000D01*
D21*
X131270000Y-102372500D02*
X131270000Y-104072500D01*
D20*
X129540000Y-80010000D02*
X125092000Y-80010000D01*
D21*
X164135000Y-130052000D02*
X165100000Y-131017000D01*
X148590000Y-104072500D02*
X152332500Y-104072500D01*
X143510000Y-104072500D02*
X148590000Y-104072500D01*
%TD*%
%TA.AperFunction,Conductor*%
%TO.N,GND*%
G36*
X169488039Y-67329685D02*
G01*
X169533794Y-67382489D01*
X169545000Y-67434000D01*
X169545000Y-135766000D01*
X169525315Y-135833039D01*
X169472511Y-135878794D01*
X169421000Y-135890000D01*
X120139000Y-135890000D01*
X120071961Y-135870315D01*
X120026206Y-135817511D01*
X120015000Y-135766000D01*
X120015000Y-130810000D01*
X120455176Y-130810000D01*
X120474461Y-131202550D01*
X120532129Y-131591308D01*
X120627625Y-131972549D01*
X120760016Y-132342559D01*
X120760023Y-132342575D01*
X120928062Y-132697864D01*
X121130109Y-133034958D01*
X121364228Y-133350632D01*
X121460068Y-133456376D01*
X121460069Y-133456376D01*
X123058381Y-131858064D01*
X123141457Y-131966331D01*
X123303669Y-132128543D01*
X123411934Y-132211617D01*
X121813622Y-133809929D01*
X121813622Y-133809930D01*
X121919367Y-133905771D01*
X122235041Y-134139890D01*
X122572135Y-134341937D01*
X122927424Y-134509976D01*
X122927440Y-134509983D01*
X123297450Y-134642374D01*
X123678691Y-134737870D01*
X124067449Y-134795538D01*
X124460000Y-134814823D01*
X124852550Y-134795538D01*
X125241308Y-134737870D01*
X125622549Y-134642374D01*
X125992559Y-134509983D01*
X125992575Y-134509976D01*
X126347864Y-134341937D01*
X126684958Y-134139890D01*
X127000632Y-133905770D01*
X127106376Y-133809929D01*
X125508065Y-132211618D01*
X125616331Y-132128543D01*
X125778543Y-131966331D01*
X125861618Y-131858065D01*
X127459929Y-133456376D01*
X127555770Y-133350632D01*
X127789890Y-133034958D01*
X127991937Y-132697864D01*
X128159976Y-132342575D01*
X128159983Y-132342559D01*
X128292374Y-131972549D01*
X128387870Y-131591308D01*
X128445538Y-131202550D01*
X128454654Y-131017000D01*
X161095176Y-131017000D01*
X161114461Y-131409550D01*
X161172129Y-131798308D01*
X161267625Y-132179549D01*
X161400016Y-132549559D01*
X161400023Y-132549575D01*
X161568062Y-132904864D01*
X161770109Y-133241958D01*
X162004228Y-133557632D01*
X162100068Y-133663376D01*
X162100069Y-133663376D01*
X163698381Y-132065064D01*
X163781457Y-132173331D01*
X163943669Y-132335543D01*
X164051934Y-132418617D01*
X162453622Y-134016929D01*
X162453622Y-134016930D01*
X162559367Y-134112771D01*
X162875041Y-134346890D01*
X163212135Y-134548937D01*
X163567424Y-134716976D01*
X163567440Y-134716983D01*
X163937450Y-134849374D01*
X164318691Y-134944870D01*
X164707449Y-135002538D01*
X165100000Y-135021823D01*
X165492550Y-135002538D01*
X165881308Y-134944870D01*
X166262549Y-134849374D01*
X166632559Y-134716983D01*
X166632575Y-134716976D01*
X166987864Y-134548937D01*
X167324958Y-134346890D01*
X167640632Y-134112770D01*
X167746376Y-134016929D01*
X166148065Y-132418618D01*
X166256331Y-132335543D01*
X166418543Y-132173331D01*
X166501618Y-132065065D01*
X168099929Y-133663376D01*
X168195770Y-133557632D01*
X168429890Y-133241958D01*
X168631937Y-132904864D01*
X168799976Y-132549575D01*
X168799983Y-132549559D01*
X168932374Y-132179549D01*
X169027870Y-131798308D01*
X169085538Y-131409550D01*
X169104823Y-131017000D01*
X169085538Y-130624449D01*
X169027870Y-130235691D01*
X168932374Y-129854450D01*
X168799983Y-129484440D01*
X168799976Y-129484424D01*
X168631937Y-129129135D01*
X168429890Y-128792041D01*
X168195771Y-128476367D01*
X168099930Y-128370622D01*
X168099929Y-128370622D01*
X166501617Y-129968934D01*
X166418543Y-129860669D01*
X166256331Y-129698457D01*
X166148065Y-129615381D01*
X167746376Y-128017069D01*
X167746376Y-128017068D01*
X167640632Y-127921228D01*
X167324958Y-127687109D01*
X166987864Y-127485062D01*
X166632575Y-127317023D01*
X166632559Y-127317016D01*
X166262549Y-127184625D01*
X165881308Y-127089129D01*
X165492550Y-127031461D01*
X165100000Y-127012176D01*
X164707449Y-127031461D01*
X164318691Y-127089129D01*
X163937450Y-127184625D01*
X163567440Y-127317016D01*
X163567424Y-127317023D01*
X163212135Y-127485062D01*
X162875041Y-127687109D01*
X162559368Y-127921228D01*
X162453622Y-128017069D01*
X164051934Y-129615381D01*
X163943669Y-129698457D01*
X163781457Y-129860669D01*
X163698382Y-129968934D01*
X162100069Y-128370622D01*
X162004228Y-128476368D01*
X161770109Y-128792041D01*
X161568062Y-129129135D01*
X161400023Y-129484424D01*
X161400016Y-129484440D01*
X161267625Y-129854450D01*
X161172129Y-130235691D01*
X161114461Y-130624449D01*
X161095176Y-131017000D01*
X128454654Y-131017000D01*
X128464823Y-130810000D01*
X128445538Y-130417449D01*
X128387870Y-130028691D01*
X128292374Y-129647450D01*
X128159983Y-129277440D01*
X128159976Y-129277424D01*
X127991937Y-128922135D01*
X127789890Y-128585041D01*
X127555771Y-128269367D01*
X127459930Y-128163622D01*
X127459929Y-128163622D01*
X125861617Y-129761934D01*
X125778543Y-129653669D01*
X125616331Y-129491457D01*
X125508065Y-129408381D01*
X127106376Y-127810069D01*
X127106376Y-127810068D01*
X127000632Y-127714228D01*
X126684958Y-127480109D01*
X126347864Y-127278062D01*
X125992575Y-127110023D01*
X125992559Y-127110016D01*
X125622549Y-126977625D01*
X125241308Y-126882129D01*
X124852550Y-126824461D01*
X124460000Y-126805176D01*
X124067449Y-126824461D01*
X123678691Y-126882129D01*
X123297450Y-126977625D01*
X122927440Y-127110016D01*
X122927424Y-127110023D01*
X122572135Y-127278062D01*
X122235041Y-127480109D01*
X121919368Y-127714228D01*
X121813622Y-127810069D01*
X123411934Y-129408381D01*
X123303669Y-129491457D01*
X123141457Y-129653669D01*
X123058381Y-129761934D01*
X121460069Y-128163622D01*
X121364228Y-128269368D01*
X121130109Y-128585041D01*
X120928062Y-128922135D01*
X120760023Y-129277424D01*
X120760016Y-129277440D01*
X120627625Y-129647450D01*
X120532129Y-130028691D01*
X120474461Y-130417449D01*
X120455176Y-130810000D01*
X120015000Y-130810000D01*
X120015000Y-116682155D01*
X162335000Y-116682155D01*
X162335000Y-117780000D01*
X163534999Y-117780000D01*
X163509979Y-117840402D01*
X163485000Y-117965981D01*
X163485000Y-118094019D01*
X163509979Y-118219598D01*
X163534999Y-118280000D01*
X162335000Y-118280000D01*
X162335000Y-119377844D01*
X162341401Y-119437372D01*
X162341403Y-119437379D01*
X162391645Y-119572086D01*
X162391649Y-119572093D01*
X162477809Y-119687187D01*
X162477812Y-119687190D01*
X162592906Y-119773350D01*
X162592913Y-119773354D01*
X162727620Y-119823596D01*
X162727627Y-119823598D01*
X162787155Y-119829999D01*
X162787172Y-119830000D01*
X163885000Y-119830000D01*
X163885000Y-118630001D01*
X163945402Y-118655021D01*
X164070981Y-118680000D01*
X164199019Y-118680000D01*
X164324598Y-118655021D01*
X164385000Y-118630001D01*
X164385000Y-119830000D01*
X165482828Y-119830000D01*
X165482844Y-119829999D01*
X165542372Y-119823598D01*
X165542379Y-119823596D01*
X165677086Y-119773354D01*
X165677093Y-119773350D01*
X165792187Y-119687190D01*
X165792190Y-119687187D01*
X165878350Y-119572093D01*
X165878354Y-119572086D01*
X165928596Y-119437379D01*
X165928598Y-119437372D01*
X165934999Y-119377844D01*
X165935000Y-119377827D01*
X165935000Y-118280000D01*
X164735001Y-118280000D01*
X164760021Y-118219598D01*
X164785000Y-118094019D01*
X164785000Y-117965981D01*
X164760021Y-117840402D01*
X164735001Y-117780000D01*
X165935000Y-117780000D01*
X165935000Y-116682172D01*
X165934999Y-116682155D01*
X165928598Y-116622627D01*
X165928596Y-116622620D01*
X165878354Y-116487913D01*
X165878350Y-116487906D01*
X165792190Y-116372812D01*
X165792187Y-116372809D01*
X165677093Y-116286649D01*
X165677086Y-116286645D01*
X165542379Y-116236403D01*
X165542372Y-116236401D01*
X165482844Y-116230000D01*
X164385000Y-116230000D01*
X164385000Y-117429998D01*
X164324598Y-117404979D01*
X164199019Y-117380000D01*
X164070981Y-117380000D01*
X163945402Y-117404979D01*
X163885000Y-117429998D01*
X163885000Y-116230000D01*
X162787155Y-116230000D01*
X162727627Y-116236401D01*
X162727620Y-116236403D01*
X162592913Y-116286645D01*
X162592906Y-116286649D01*
X162477812Y-116372809D01*
X162477809Y-116372812D01*
X162391649Y-116487906D01*
X162391645Y-116487913D01*
X162341403Y-116622620D01*
X162341401Y-116622627D01*
X162335000Y-116682155D01*
X120015000Y-116682155D01*
X120015000Y-113029995D01*
X162329953Y-113029995D01*
X162329953Y-113030004D01*
X162350113Y-113299026D01*
X162350113Y-113299028D01*
X162410142Y-113562033D01*
X162410148Y-113562052D01*
X162508709Y-113813181D01*
X162508708Y-113813181D01*
X162643602Y-114046822D01*
X162697294Y-114114151D01*
X162697295Y-114114151D01*
X163533958Y-113277488D01*
X163558978Y-113337890D01*
X163630112Y-113444351D01*
X163720649Y-113534888D01*
X163827110Y-113606022D01*
X163887510Y-113631041D01*
X163049848Y-114468702D01*
X163232483Y-114593220D01*
X163232485Y-114593221D01*
X163475539Y-114710269D01*
X163475537Y-114710269D01*
X163733337Y-114789790D01*
X163733343Y-114789792D01*
X164000101Y-114829999D01*
X164000110Y-114830000D01*
X164269890Y-114830000D01*
X164269898Y-114829999D01*
X164536656Y-114789792D01*
X164536662Y-114789790D01*
X164794461Y-114710269D01*
X165037521Y-114593218D01*
X165220150Y-114468702D01*
X164382488Y-113631041D01*
X164442890Y-113606022D01*
X164549351Y-113534888D01*
X164639888Y-113444351D01*
X164711022Y-113337890D01*
X164736041Y-113277489D01*
X165572703Y-114114151D01*
X165572704Y-114114150D01*
X165626393Y-114046828D01*
X165626400Y-114046817D01*
X165761290Y-113813181D01*
X165859851Y-113562052D01*
X165859857Y-113562033D01*
X165919886Y-113299028D01*
X165919886Y-113299026D01*
X165940047Y-113030004D01*
X165940047Y-113029995D01*
X165919886Y-112760973D01*
X165919886Y-112760971D01*
X165859857Y-112497966D01*
X165859851Y-112497947D01*
X165761290Y-112246818D01*
X165761291Y-112246818D01*
X165626397Y-112013177D01*
X165572704Y-111945847D01*
X164736041Y-112782510D01*
X164711022Y-112722110D01*
X164639888Y-112615649D01*
X164549351Y-112525112D01*
X164442890Y-112453978D01*
X164382488Y-112428958D01*
X165220150Y-111591296D01*
X165037517Y-111466779D01*
X165037516Y-111466778D01*
X164794460Y-111349730D01*
X164794462Y-111349730D01*
X164536662Y-111270209D01*
X164536656Y-111270207D01*
X164269898Y-111230000D01*
X164000101Y-111230000D01*
X163733343Y-111270207D01*
X163733337Y-111270209D01*
X163475538Y-111349730D01*
X163232485Y-111466778D01*
X163232476Y-111466783D01*
X163049848Y-111591296D01*
X163887511Y-112428958D01*
X163827110Y-112453978D01*
X163720649Y-112525112D01*
X163630112Y-112615649D01*
X163558978Y-112722110D01*
X163533958Y-112782511D01*
X162697295Y-111945848D01*
X162643600Y-112013180D01*
X162508709Y-112246818D01*
X162410148Y-112497947D01*
X162410142Y-112497966D01*
X162350113Y-112760971D01*
X162350113Y-112760973D01*
X162329953Y-113029995D01*
X120015000Y-113029995D01*
X120015000Y-108029995D01*
X162329953Y-108029995D01*
X162329953Y-108030004D01*
X162350113Y-108299026D01*
X162350113Y-108299028D01*
X162410142Y-108562033D01*
X162410148Y-108562052D01*
X162508709Y-108813181D01*
X162508708Y-108813181D01*
X162643602Y-109046822D01*
X162697294Y-109114151D01*
X162697295Y-109114151D01*
X163533958Y-108277488D01*
X163558978Y-108337890D01*
X163630112Y-108444351D01*
X163720649Y-108534888D01*
X163827110Y-108606022D01*
X163887510Y-108631041D01*
X163049848Y-109468702D01*
X163232483Y-109593220D01*
X163232485Y-109593221D01*
X163475539Y-109710269D01*
X163475537Y-109710269D01*
X163733337Y-109789790D01*
X163733343Y-109789792D01*
X164000101Y-109829999D01*
X164000110Y-109830000D01*
X164269890Y-109830000D01*
X164269898Y-109829999D01*
X164536656Y-109789792D01*
X164536662Y-109789790D01*
X164794461Y-109710269D01*
X165037521Y-109593218D01*
X165220150Y-109468702D01*
X164382488Y-108631041D01*
X164442890Y-108606022D01*
X164549351Y-108534888D01*
X164639888Y-108444351D01*
X164711022Y-108337890D01*
X164736041Y-108277489D01*
X165572703Y-109114151D01*
X165572704Y-109114150D01*
X165626393Y-109046828D01*
X165626400Y-109046817D01*
X165761290Y-108813181D01*
X165859851Y-108562052D01*
X165859857Y-108562033D01*
X165919886Y-108299028D01*
X165919886Y-108299026D01*
X165940047Y-108030004D01*
X165940047Y-108029995D01*
X165919886Y-107760973D01*
X165919886Y-107760971D01*
X165859857Y-107497966D01*
X165859851Y-107497947D01*
X165761290Y-107246818D01*
X165761291Y-107246818D01*
X165626397Y-107013177D01*
X165572704Y-106945847D01*
X164736041Y-107782510D01*
X164711022Y-107722110D01*
X164639888Y-107615649D01*
X164549351Y-107525112D01*
X164442890Y-107453978D01*
X164382488Y-107428958D01*
X165220150Y-106591296D01*
X165037517Y-106466779D01*
X165037516Y-106466778D01*
X164794460Y-106349730D01*
X164794462Y-106349730D01*
X164536662Y-106270209D01*
X164536656Y-106270207D01*
X164269898Y-106230000D01*
X164000101Y-106230000D01*
X163733343Y-106270207D01*
X163733337Y-106270209D01*
X163475538Y-106349730D01*
X163232485Y-106466778D01*
X163232476Y-106466783D01*
X163049848Y-106591296D01*
X163887511Y-107428958D01*
X163827110Y-107453978D01*
X163720649Y-107525112D01*
X163630112Y-107615649D01*
X163558978Y-107722110D01*
X163533958Y-107782511D01*
X162697295Y-106945848D01*
X162643600Y-107013180D01*
X162508709Y-107246818D01*
X162410148Y-107497947D01*
X162410142Y-107497966D01*
X162350113Y-107760971D01*
X162350113Y-107760973D01*
X162329953Y-108029995D01*
X120015000Y-108029995D01*
X120015000Y-103103921D01*
X129020000Y-103103921D01*
X129020000Y-103822500D01*
X129836988Y-103822500D01*
X129804075Y-103879507D01*
X129770000Y-104006674D01*
X129770000Y-104138326D01*
X129804075Y-104265493D01*
X129836988Y-104322500D01*
X129020001Y-104322500D01*
X129020001Y-105041088D01*
X129022794Y-105093691D01*
X129067237Y-105323487D01*
X129149879Y-105542475D01*
X129268339Y-105744341D01*
X129268344Y-105744348D01*
X129419211Y-105923286D01*
X129419213Y-105923288D01*
X129598151Y-106074155D01*
X129598158Y-106074160D01*
X129800024Y-106192620D01*
X130019012Y-106275262D01*
X130248809Y-106319705D01*
X130301382Y-106322498D01*
X130301421Y-106322499D01*
X131019999Y-106322499D01*
X131020000Y-106322498D01*
X131020000Y-104572500D01*
X131520000Y-104572500D01*
X131520000Y-106322499D01*
X132238576Y-106322499D01*
X132238588Y-106322498D01*
X132291191Y-106319705D01*
X132520987Y-106275262D01*
X132739975Y-106192620D01*
X132941841Y-106074160D01*
X132941848Y-106074155D01*
X133120786Y-105923288D01*
X133120788Y-105923286D01*
X133271655Y-105744348D01*
X133271660Y-105744341D01*
X133390120Y-105542475D01*
X133472762Y-105323487D01*
X133517205Y-105093691D01*
X133517205Y-105093690D01*
X133519998Y-105041117D01*
X133520000Y-105041078D01*
X133520000Y-104322500D01*
X132703012Y-104322500D01*
X132735925Y-104265493D01*
X132770000Y-104138326D01*
X132770000Y-104006674D01*
X132735925Y-103879507D01*
X132703012Y-103822500D01*
X133519999Y-103822500D01*
X133519999Y-103103923D01*
X133519998Y-103103911D01*
X133517205Y-103051308D01*
X133472762Y-102821512D01*
X133390120Y-102602524D01*
X133271660Y-102400658D01*
X133271655Y-102400651D01*
X133120788Y-102221713D01*
X133120786Y-102221711D01*
X132941848Y-102070844D01*
X132941841Y-102070839D01*
X132739975Y-101952379D01*
X132520984Y-101869736D01*
X132515840Y-101868741D01*
X132453760Y-101836680D01*
X132418869Y-101776146D01*
X132422244Y-101706358D01*
X132462814Y-101649473D01*
X132527697Y-101623552D01*
X132539374Y-101622999D01*
X136067872Y-101622999D01*
X136127483Y-101616591D01*
X136262331Y-101566296D01*
X136377546Y-101480046D01*
X136463796Y-101364831D01*
X136514091Y-101229983D01*
X136520500Y-101170373D01*
X136520500Y-101161500D01*
X136540185Y-101094461D01*
X136592989Y-101048706D01*
X136644500Y-101037500D01*
X142120083Y-101037500D01*
X142120115Y-101037501D01*
X142123955Y-101037501D01*
X142359885Y-101037501D01*
X142359917Y-101037500D01*
X144663955Y-101037500D01*
X148470083Y-101037500D01*
X148470115Y-101037501D01*
X148473955Y-101037501D01*
X148709885Y-101037501D01*
X148709917Y-101037500D01*
X153550083Y-101037500D01*
X153550115Y-101037501D01*
X153553955Y-101037501D01*
X153789885Y-101037501D01*
X153789917Y-101037500D01*
X163503083Y-101037500D01*
X163503115Y-101037501D01*
X163506955Y-101037501D01*
X163739038Y-101037501D01*
X163739045Y-101037501D01*
X163969149Y-101007207D01*
X164193330Y-100947137D01*
X164407752Y-100858320D01*
X164442211Y-100838425D01*
X164513768Y-100797112D01*
X164575768Y-100780499D01*
X165177871Y-100780499D01*
X165177872Y-100780499D01*
X165237483Y-100774091D01*
X165372331Y-100723796D01*
X165487546Y-100637546D01*
X165573796Y-100522331D01*
X165624091Y-100387483D01*
X165630500Y-100327873D01*
X165630499Y-97632128D01*
X165624091Y-97572517D01*
X165622467Y-97568164D01*
X165573797Y-97437671D01*
X165573793Y-97437664D01*
X165487547Y-97322455D01*
X165487544Y-97322452D01*
X165372335Y-97236206D01*
X165372328Y-97236202D01*
X165237482Y-97185908D01*
X165237483Y-97185908D01*
X165177883Y-97179501D01*
X165177881Y-97179500D01*
X165177873Y-97179500D01*
X165177864Y-97179500D01*
X162482129Y-97179500D01*
X162482123Y-97179501D01*
X162422516Y-97185908D01*
X162287671Y-97236202D01*
X162287664Y-97236206D01*
X162172455Y-97322452D01*
X162172452Y-97322455D01*
X162080888Y-97444769D01*
X162078376Y-97442889D01*
X162039935Y-97481332D01*
X161980507Y-97496500D01*
X158243727Y-97496500D01*
X158176688Y-97476815D01*
X158130933Y-97424011D01*
X158120989Y-97354853D01*
X158150014Y-97291297D01*
X158156046Y-97284819D01*
X159574046Y-95866819D01*
X159635369Y-95833334D01*
X159661727Y-95830500D01*
X163630083Y-95830500D01*
X163630115Y-95830501D01*
X163633955Y-95830501D01*
X163866038Y-95830501D01*
X163866045Y-95830501D01*
X164096149Y-95800207D01*
X164320330Y-95740137D01*
X164534752Y-95651320D01*
X164534759Y-95651315D01*
X164534763Y-95651314D01*
X164576836Y-95627022D01*
X164659240Y-95579446D01*
X164667406Y-95575130D01*
X164732775Y-95543651D01*
X164955741Y-95391635D01*
X165153561Y-95208085D01*
X165321815Y-94997102D01*
X165456743Y-94763398D01*
X165555334Y-94512195D01*
X165615383Y-94249103D01*
X165632891Y-94015468D01*
X165635549Y-93980004D01*
X165635549Y-93979995D01*
X165615383Y-93710898D01*
X165615189Y-93710047D01*
X165555334Y-93447805D01*
X165456743Y-93196602D01*
X165321815Y-92962898D01*
X165153561Y-92751915D01*
X165153560Y-92751914D01*
X165153557Y-92751910D01*
X164955741Y-92568365D01*
X164732775Y-92416349D01*
X164732771Y-92416347D01*
X164732768Y-92416345D01*
X164732767Y-92416344D01*
X164489643Y-92299263D01*
X164489645Y-92299263D01*
X164231773Y-92219720D01*
X164231767Y-92219718D01*
X163964936Y-92179500D01*
X163964929Y-92179500D01*
X163695071Y-92179500D01*
X163695063Y-92179500D01*
X163428232Y-92219718D01*
X163428226Y-92219720D01*
X163219867Y-92283991D01*
X163183317Y-92289500D01*
X158996917Y-92289500D01*
X158996885Y-92289499D01*
X158993045Y-92289499D01*
X158760955Y-92289499D01*
X158760947Y-92289499D01*
X158530854Y-92319792D01*
X158308804Y-92379291D01*
X158238954Y-92377628D01*
X158181091Y-92338466D01*
X158153587Y-92274237D01*
X158165173Y-92205335D01*
X158189026Y-92171838D01*
X159494046Y-90866819D01*
X159555369Y-90833334D01*
X159581727Y-90830500D01*
X163630083Y-90830500D01*
X163630115Y-90830501D01*
X163633955Y-90830501D01*
X163866038Y-90830501D01*
X163866045Y-90830501D01*
X164096149Y-90800207D01*
X164320330Y-90740137D01*
X164534752Y-90651320D01*
X164534759Y-90651315D01*
X164534763Y-90651314D01*
X164576836Y-90627022D01*
X164659240Y-90579446D01*
X164667406Y-90575130D01*
X164732775Y-90543651D01*
X164955741Y-90391635D01*
X165153561Y-90208085D01*
X165321815Y-89997102D01*
X165456743Y-89763398D01*
X165555334Y-89512195D01*
X165615383Y-89249103D01*
X165635549Y-88980000D01*
X165615383Y-88710897D01*
X165555334Y-88447805D01*
X165456743Y-88196602D01*
X165321815Y-87962898D01*
X165153561Y-87751915D01*
X165153560Y-87751914D01*
X165153557Y-87751910D01*
X164955741Y-87568365D01*
X164884069Y-87519500D01*
X164732775Y-87416349D01*
X164732771Y-87416347D01*
X164732768Y-87416345D01*
X164732767Y-87416344D01*
X164489643Y-87299263D01*
X164489645Y-87299263D01*
X164231773Y-87219720D01*
X164231767Y-87219718D01*
X163964936Y-87179500D01*
X163964929Y-87179500D01*
X163695071Y-87179500D01*
X163695063Y-87179500D01*
X163428232Y-87219718D01*
X163428226Y-87219720D01*
X163219867Y-87283991D01*
X163183317Y-87289500D01*
X158916917Y-87289500D01*
X158916885Y-87289499D01*
X158913045Y-87289499D01*
X158680955Y-87289499D01*
X158680947Y-87289499D01*
X158450855Y-87319792D01*
X158226665Y-87379864D01*
X158012251Y-87468677D01*
X158012247Y-87468679D01*
X157968236Y-87494089D01*
X157924224Y-87519500D01*
X157924223Y-87519500D01*
X157811256Y-87584720D01*
X157811254Y-87584721D01*
X157627125Y-87726008D01*
X157545068Y-87808065D01*
X157463011Y-87890123D01*
X157463007Y-87890127D01*
X147892954Y-97460181D01*
X147831631Y-97493666D01*
X147805273Y-97496500D01*
X146667487Y-97496500D01*
X146600448Y-97476815D01*
X146554693Y-97424011D01*
X146544749Y-97354853D01*
X146552926Y-97325047D01*
X146589727Y-97236202D01*
X146638137Y-97119330D01*
X146698206Y-96895149D01*
X146728500Y-96665045D01*
X146728500Y-92593955D01*
X146698206Y-92363851D01*
X146638137Y-92139670D01*
X146549320Y-91925248D01*
X146549314Y-91925237D01*
X146433279Y-91724256D01*
X146433278Y-91724254D01*
X146291990Y-91540124D01*
X146291984Y-91540117D01*
X146127882Y-91376015D01*
X146127875Y-91376009D01*
X145943745Y-91234721D01*
X145943743Y-91234720D01*
X145742762Y-91118685D01*
X145742754Y-91118681D01*
X145742752Y-91118680D01*
X145528330Y-91029863D01*
X145528331Y-91029863D01*
X145528328Y-91029862D01*
X145386203Y-90991780D01*
X145304149Y-90969794D01*
X145275386Y-90966007D01*
X145074052Y-90939500D01*
X145074045Y-90939500D01*
X144841955Y-90939500D01*
X144841947Y-90939500D01*
X144611851Y-90969794D01*
X144387671Y-91029862D01*
X144173254Y-91118677D01*
X144173237Y-91118685D01*
X143972256Y-91234720D01*
X143972254Y-91234721D01*
X143788124Y-91376009D01*
X143788117Y-91376015D01*
X143624015Y-91540117D01*
X143624009Y-91540124D01*
X143482721Y-91724254D01*
X143482720Y-91724256D01*
X143366685Y-91925237D01*
X143366677Y-91925254D01*
X143277862Y-92139671D01*
X143217794Y-92363851D01*
X143187500Y-92593947D01*
X143187500Y-95764273D01*
X143167815Y-95831312D01*
X143151181Y-95851954D01*
X141542954Y-97460181D01*
X141481631Y-97493666D01*
X141455273Y-97496500D01*
X136593280Y-97496500D01*
X136526241Y-97476815D01*
X136480486Y-97424011D01*
X136477099Y-97415835D01*
X136463795Y-97380166D01*
X136463794Y-97380165D01*
X136377547Y-97264955D01*
X136377544Y-97264952D01*
X136262335Y-97178706D01*
X136262328Y-97178702D01*
X136127482Y-97128408D01*
X136127483Y-97128408D01*
X136067883Y-97122001D01*
X136067881Y-97122000D01*
X136067873Y-97122000D01*
X136067864Y-97122000D01*
X132472129Y-97122000D01*
X132472123Y-97122001D01*
X132412516Y-97128408D01*
X132277671Y-97178702D01*
X132277664Y-97178706D01*
X132162455Y-97264952D01*
X132162452Y-97264955D01*
X132076206Y-97380164D01*
X132076202Y-97380171D01*
X132025908Y-97515017D01*
X132019501Y-97574616D01*
X132019500Y-97574635D01*
X132019500Y-101170370D01*
X132019501Y-101170376D01*
X132025908Y-101229983D01*
X132076202Y-101364828D01*
X132076206Y-101364835D01*
X132162452Y-101480044D01*
X132162455Y-101480047D01*
X132277664Y-101566293D01*
X132277673Y-101566298D01*
X132326506Y-101584511D01*
X132382440Y-101626381D01*
X132406858Y-101691845D01*
X132392007Y-101760118D01*
X132342603Y-101809524D01*
X132276598Y-101824518D01*
X132238625Y-101822501D01*
X132238579Y-101822500D01*
X131520000Y-101822500D01*
X131520000Y-103572500D01*
X131020000Y-103572500D01*
X131020000Y-101822500D01*
X130301423Y-101822500D01*
X130301411Y-101822501D01*
X130248808Y-101825294D01*
X130019012Y-101869737D01*
X129800024Y-101952379D01*
X129598158Y-102070839D01*
X129598151Y-102070844D01*
X129419213Y-102221711D01*
X129419211Y-102221713D01*
X129268344Y-102400651D01*
X129268339Y-102400658D01*
X129149879Y-102602524D01*
X129067237Y-102821512D01*
X129022794Y-103051308D01*
X129022794Y-103051309D01*
X129020001Y-103103882D01*
X129020000Y-103103921D01*
X120015000Y-103103921D01*
X120015000Y-98308303D01*
X126270000Y-98308303D01*
X126270000Y-99122500D01*
X127770000Y-99122500D01*
X127770000Y-99622500D01*
X126270001Y-99622500D01*
X126270001Y-100436697D01*
X126280400Y-100568832D01*
X126335377Y-100787019D01*
X126428428Y-100991874D01*
X126428431Y-100991880D01*
X126556559Y-101176823D01*
X126556569Y-101176835D01*
X126715664Y-101335930D01*
X126715676Y-101335940D01*
X126900619Y-101464068D01*
X126900625Y-101464071D01*
X127105480Y-101557122D01*
X127323667Y-101612099D01*
X127455810Y-101622499D01*
X128019999Y-101622499D01*
X128020000Y-101622498D01*
X128020000Y-100805512D01*
X128077007Y-100838425D01*
X128204174Y-100872500D01*
X128335826Y-100872500D01*
X128462993Y-100838425D01*
X128520000Y-100805512D01*
X128520000Y-101622499D01*
X129084182Y-101622499D01*
X129084197Y-101622498D01*
X129216332Y-101612099D01*
X129434519Y-101557122D01*
X129639374Y-101464071D01*
X129639380Y-101464068D01*
X129824323Y-101335940D01*
X129824335Y-101335930D01*
X129983430Y-101176835D01*
X129983440Y-101176823D01*
X130111568Y-100991880D01*
X130111571Y-100991874D01*
X130204622Y-100787019D01*
X130259599Y-100568832D01*
X130269999Y-100436696D01*
X130270000Y-100436684D01*
X130270000Y-99622500D01*
X128770000Y-99622500D01*
X128770000Y-99122500D01*
X130269999Y-99122500D01*
X130269999Y-98308317D01*
X130269998Y-98308302D01*
X130259599Y-98176167D01*
X130204622Y-97957980D01*
X130111571Y-97753125D01*
X130111568Y-97753119D01*
X129983440Y-97568176D01*
X129983430Y-97568164D01*
X129824335Y-97409069D01*
X129824323Y-97409059D01*
X129639380Y-97280931D01*
X129639374Y-97280928D01*
X129434519Y-97187877D01*
X129216332Y-97132900D01*
X129084196Y-97122500D01*
X128520000Y-97122500D01*
X128520000Y-97939488D01*
X128462993Y-97906575D01*
X128335826Y-97872500D01*
X128204174Y-97872500D01*
X128077007Y-97906575D01*
X128020000Y-97939488D01*
X128020000Y-97122500D01*
X127455817Y-97122500D01*
X127455802Y-97122501D01*
X127323667Y-97132900D01*
X127105480Y-97187877D01*
X126900625Y-97280928D01*
X126900619Y-97280931D01*
X126715676Y-97409059D01*
X126715664Y-97409069D01*
X126556569Y-97568164D01*
X126556559Y-97568176D01*
X126428431Y-97753119D01*
X126428428Y-97753125D01*
X126335377Y-97957980D01*
X126280400Y-98176167D01*
X126270000Y-98308303D01*
X120015000Y-98308303D01*
X120015000Y-82776993D01*
X123459700Y-82776993D01*
X123459700Y-82777006D01*
X123478864Y-83008297D01*
X123478866Y-83008308D01*
X123535842Y-83233300D01*
X123629075Y-83445848D01*
X123756016Y-83640147D01*
X123756019Y-83640151D01*
X123756021Y-83640153D01*
X123913216Y-83810913D01*
X124062663Y-83927232D01*
X124103475Y-83983940D01*
X124110500Y-84025084D01*
X124110500Y-86685552D01*
X124110499Y-86685578D01*
X124110499Y-86690688D01*
X124110499Y-86839312D01*
X124110499Y-86839314D01*
X124110498Y-86839314D01*
X124139493Y-86985073D01*
X124139496Y-86985083D01*
X124196366Y-87122381D01*
X124196372Y-87122392D01*
X124278942Y-87245968D01*
X124278943Y-87245969D01*
X130219600Y-93186624D01*
X130219621Y-93186647D01*
X130329029Y-93296055D01*
X130329032Y-93296057D01*
X130329034Y-93296059D01*
X130411605Y-93351230D01*
X130452611Y-93378630D01*
X130527052Y-93409464D01*
X130589920Y-93435505D01*
X130589924Y-93435506D01*
X130614104Y-93440315D01*
X130614110Y-93440316D01*
X130735686Y-93464501D01*
X130735688Y-93464501D01*
X130890426Y-93464501D01*
X130890446Y-93464500D01*
X136214138Y-93464500D01*
X136281177Y-93484185D01*
X136315713Y-93517377D01*
X136337954Y-93549141D01*
X136498858Y-93710045D01*
X136498861Y-93710047D01*
X136685266Y-93840568D01*
X136891504Y-93936739D01*
X137111308Y-93995635D01*
X137273230Y-94009801D01*
X137337998Y-94015468D01*
X137338000Y-94015468D01*
X137338002Y-94015468D01*
X137394673Y-94010509D01*
X137564692Y-93995635D01*
X137784496Y-93936739D01*
X137990734Y-93840568D01*
X138177139Y-93710047D01*
X138338047Y-93549139D01*
X138468568Y-93362734D01*
X138564739Y-93156496D01*
X138623635Y-92936692D01*
X138643468Y-92710000D01*
X138623635Y-92483308D01*
X138571704Y-92289499D01*
X138564741Y-92263511D01*
X138564738Y-92263502D01*
X138468568Y-92057267D01*
X138468567Y-92057265D01*
X138338045Y-91870858D01*
X138177141Y-91709954D01*
X137990734Y-91579432D01*
X137990732Y-91579431D01*
X137784497Y-91483261D01*
X137784488Y-91483258D01*
X137564697Y-91424366D01*
X137564693Y-91424365D01*
X137564692Y-91424365D01*
X137564691Y-91424364D01*
X137564686Y-91424364D01*
X137338002Y-91404532D01*
X137337998Y-91404532D01*
X137111313Y-91424364D01*
X137111302Y-91424366D01*
X136891511Y-91483258D01*
X136891502Y-91483261D01*
X136685267Y-91579431D01*
X136685265Y-91579432D01*
X136498858Y-91709954D01*
X136337954Y-91870858D01*
X136315713Y-91902623D01*
X136261137Y-91946248D01*
X136214138Y-91955500D01*
X131173886Y-91955500D01*
X131106847Y-91935815D01*
X131086205Y-91919181D01*
X125655819Y-86488794D01*
X125622334Y-86427471D01*
X125619500Y-86401113D01*
X125619500Y-84025084D01*
X125639185Y-83958045D01*
X125667334Y-83927233D01*
X125816784Y-83810913D01*
X125973979Y-83640153D01*
X126100924Y-83445849D01*
X126194157Y-83233300D01*
X126251134Y-83008305D01*
X126251135Y-83008297D01*
X126270300Y-82777006D01*
X126270300Y-82776993D01*
X126251491Y-82549998D01*
X136032532Y-82549998D01*
X136032532Y-82550001D01*
X136052364Y-82776686D01*
X136052366Y-82776697D01*
X136111258Y-82996488D01*
X136111261Y-82996497D01*
X136207431Y-83202732D01*
X136207432Y-83202734D01*
X136337954Y-83389141D01*
X136498858Y-83550045D01*
X136498861Y-83550047D01*
X136685266Y-83680568D01*
X136891504Y-83776739D01*
X137111308Y-83835635D01*
X137273230Y-83849801D01*
X137337998Y-83855468D01*
X137338000Y-83855468D01*
X137338002Y-83855468D01*
X137394673Y-83850509D01*
X137564692Y-83835635D01*
X137784496Y-83776739D01*
X137990734Y-83680568D01*
X138177139Y-83550047D01*
X138338047Y-83389139D01*
X138360287Y-83357377D01*
X138414863Y-83313752D01*
X138461862Y-83304500D01*
X143834138Y-83304500D01*
X143901177Y-83324185D01*
X143935713Y-83357377D01*
X143957954Y-83389141D01*
X144118858Y-83550045D01*
X144118861Y-83550047D01*
X144305266Y-83680568D01*
X144511504Y-83776739D01*
X144731308Y-83835635D01*
X144893230Y-83849801D01*
X144957998Y-83855468D01*
X144958000Y-83855468D01*
X144958002Y-83855468D01*
X145014673Y-83850509D01*
X145184692Y-83835635D01*
X145404496Y-83776739D01*
X145610734Y-83680568D01*
X145797139Y-83550047D01*
X145958047Y-83389139D01*
X146088568Y-83202734D01*
X146184739Y-82996496D01*
X146243635Y-82776692D01*
X146263468Y-82550000D01*
X146263091Y-82545695D01*
X146243635Y-82323313D01*
X146243635Y-82323308D01*
X146184739Y-82103504D01*
X146088568Y-81897266D01*
X145958047Y-81710861D01*
X145958045Y-81710858D01*
X145797141Y-81549954D01*
X145610734Y-81419432D01*
X145610732Y-81419431D01*
X145404497Y-81323261D01*
X145404488Y-81323258D01*
X145184697Y-81264366D01*
X145184693Y-81264365D01*
X145184692Y-81264365D01*
X145184691Y-81264364D01*
X145184686Y-81264364D01*
X144958002Y-81244532D01*
X144957998Y-81244532D01*
X144731313Y-81264364D01*
X144731302Y-81264366D01*
X144511511Y-81323258D01*
X144511502Y-81323261D01*
X144305267Y-81419431D01*
X144305265Y-81419432D01*
X144118858Y-81549954D01*
X143957954Y-81710858D01*
X143935713Y-81742623D01*
X143881137Y-81786248D01*
X143834138Y-81795500D01*
X138461862Y-81795500D01*
X138394823Y-81775815D01*
X138360287Y-81742623D01*
X138338045Y-81710858D01*
X138177141Y-81549954D01*
X137990734Y-81419432D01*
X137990732Y-81419431D01*
X137784497Y-81323261D01*
X137784488Y-81323258D01*
X137564697Y-81264366D01*
X137564693Y-81264365D01*
X137564692Y-81264365D01*
X137564691Y-81264364D01*
X137564686Y-81264364D01*
X137338002Y-81244532D01*
X137337998Y-81244532D01*
X137111313Y-81264364D01*
X137111302Y-81264366D01*
X136891511Y-81323258D01*
X136891502Y-81323261D01*
X136685267Y-81419431D01*
X136685265Y-81419432D01*
X136498858Y-81549954D01*
X136337954Y-81710858D01*
X136207432Y-81897265D01*
X136207431Y-81897267D01*
X136111261Y-82103502D01*
X136111258Y-82103511D01*
X136052366Y-82323302D01*
X136052364Y-82323313D01*
X136032532Y-82549998D01*
X126251491Y-82549998D01*
X126251135Y-82545702D01*
X126251133Y-82545691D01*
X126194157Y-82320699D01*
X126100924Y-82108151D01*
X125973981Y-81913849D01*
X125878832Y-81810489D01*
X125847910Y-81747835D01*
X125855770Y-81678409D01*
X125899918Y-81624253D01*
X125926730Y-81610325D01*
X126007084Y-81580355D01*
X126007093Y-81580350D01*
X126122187Y-81494190D01*
X126122190Y-81494187D01*
X126208350Y-81379093D01*
X126208354Y-81379086D01*
X126258596Y-81244379D01*
X126258598Y-81244372D01*
X126264999Y-81184844D01*
X126265000Y-81184827D01*
X126265000Y-80487000D01*
X125240278Y-80487000D01*
X125284333Y-80410694D01*
X125315000Y-80296244D01*
X125315000Y-80177756D01*
X125284333Y-80063306D01*
X125240278Y-79987000D01*
X126265000Y-79987000D01*
X126265000Y-79289172D01*
X126264999Y-79289155D01*
X126258598Y-79229627D01*
X126258596Y-79229620D01*
X126208354Y-79094913D01*
X126208350Y-79094906D01*
X126122190Y-78979812D01*
X126122187Y-78979809D01*
X126007093Y-78893649D01*
X126007086Y-78893645D01*
X125872379Y-78843403D01*
X125872372Y-78843401D01*
X125812844Y-78837000D01*
X125115000Y-78837000D01*
X125115000Y-79861722D01*
X125038694Y-79817667D01*
X124924244Y-79787000D01*
X124805756Y-79787000D01*
X124691306Y-79817667D01*
X124615000Y-79861722D01*
X124615000Y-78837000D01*
X123917155Y-78837000D01*
X123857627Y-78843401D01*
X123857620Y-78843403D01*
X123722913Y-78893645D01*
X123722906Y-78893649D01*
X123607812Y-78979809D01*
X123607809Y-78979812D01*
X123521649Y-79094906D01*
X123521645Y-79094913D01*
X123471403Y-79229620D01*
X123471401Y-79229627D01*
X123465000Y-79289155D01*
X123465000Y-79987000D01*
X124489722Y-79987000D01*
X124445667Y-80063306D01*
X124415000Y-80177756D01*
X124415000Y-80296244D01*
X124445667Y-80410694D01*
X124489722Y-80487000D01*
X123465000Y-80487000D01*
X123465000Y-81184844D01*
X123471401Y-81244372D01*
X123471403Y-81244379D01*
X123521645Y-81379086D01*
X123521649Y-81379093D01*
X123607809Y-81494187D01*
X123607812Y-81494190D01*
X123722906Y-81580350D01*
X123722913Y-81580354D01*
X123803270Y-81610325D01*
X123859204Y-81652196D01*
X123883621Y-81717660D01*
X123868770Y-81785933D01*
X123851168Y-81810489D01*
X123756021Y-81913847D01*
X123756019Y-81913848D01*
X123756016Y-81913853D01*
X123629075Y-82108151D01*
X123535842Y-82320699D01*
X123478866Y-82545691D01*
X123478864Y-82545702D01*
X123459700Y-82776993D01*
X120015000Y-82776993D01*
X120015000Y-72390000D01*
X120455176Y-72390000D01*
X120474461Y-72782550D01*
X120532129Y-73171308D01*
X120627625Y-73552549D01*
X120760016Y-73922559D01*
X120760023Y-73922575D01*
X120928062Y-74277864D01*
X121130109Y-74614958D01*
X121364228Y-74930632D01*
X121460068Y-75036376D01*
X121460069Y-75036376D01*
X123058381Y-73438064D01*
X123141457Y-73546331D01*
X123303669Y-73708543D01*
X123411934Y-73791617D01*
X121813622Y-75389929D01*
X121813622Y-75389930D01*
X121919367Y-75485771D01*
X122235041Y-75719890D01*
X122572135Y-75921937D01*
X122927424Y-76089976D01*
X122927440Y-76089983D01*
X123297450Y-76222374D01*
X123678691Y-76317870D01*
X124067449Y-76375538D01*
X124460000Y-76394823D01*
X124852550Y-76375538D01*
X125241308Y-76317870D01*
X125622549Y-76222374D01*
X125992559Y-76089983D01*
X125992575Y-76089976D01*
X126347864Y-75921937D01*
X126684958Y-75719890D01*
X127000632Y-75485770D01*
X127106376Y-75389929D01*
X125508065Y-73791618D01*
X125616331Y-73708543D01*
X125778543Y-73546331D01*
X125861618Y-73438065D01*
X127459929Y-75036376D01*
X127555770Y-74930632D01*
X127789890Y-74614958D01*
X127991937Y-74277864D01*
X128159976Y-73922575D01*
X128159983Y-73922559D01*
X128292374Y-73552549D01*
X128387870Y-73171308D01*
X128445538Y-72782550D01*
X128454654Y-72597000D01*
X161095176Y-72597000D01*
X161114461Y-72989550D01*
X161172129Y-73378308D01*
X161267625Y-73759549D01*
X161400016Y-74129559D01*
X161400023Y-74129575D01*
X161568062Y-74484864D01*
X161770109Y-74821958D01*
X162004228Y-75137632D01*
X162100068Y-75243376D01*
X162100069Y-75243376D01*
X163698381Y-73645064D01*
X163781457Y-73753331D01*
X163943669Y-73915543D01*
X164051934Y-73998617D01*
X162453622Y-75596929D01*
X162453622Y-75596930D01*
X162559367Y-75692771D01*
X162875041Y-75926890D01*
X163212135Y-76128937D01*
X163567424Y-76296976D01*
X163567440Y-76296983D01*
X163937450Y-76429374D01*
X164318691Y-76524870D01*
X164707449Y-76582538D01*
X165100000Y-76601823D01*
X165492550Y-76582538D01*
X165881308Y-76524870D01*
X166262549Y-76429374D01*
X166632559Y-76296983D01*
X166632575Y-76296976D01*
X166987864Y-76128937D01*
X167324958Y-75926890D01*
X167640632Y-75692770D01*
X167746376Y-75596929D01*
X166148065Y-73998618D01*
X166256331Y-73915543D01*
X166418543Y-73753331D01*
X166501618Y-73645065D01*
X168099929Y-75243376D01*
X168195770Y-75137632D01*
X168429890Y-74821958D01*
X168631937Y-74484864D01*
X168799976Y-74129575D01*
X168799983Y-74129559D01*
X168932374Y-73759549D01*
X169027870Y-73378308D01*
X169085538Y-72989550D01*
X169104823Y-72597000D01*
X169085538Y-72204449D01*
X169027870Y-71815691D01*
X168932374Y-71434450D01*
X168799983Y-71064440D01*
X168799976Y-71064424D01*
X168631937Y-70709135D01*
X168429890Y-70372041D01*
X168195771Y-70056367D01*
X168099930Y-69950622D01*
X168099929Y-69950622D01*
X166501617Y-71548934D01*
X166418543Y-71440669D01*
X166256331Y-71278457D01*
X166148065Y-71195381D01*
X167746376Y-69597069D01*
X167746376Y-69597068D01*
X167640632Y-69501228D01*
X167324958Y-69267109D01*
X166987864Y-69065062D01*
X166632575Y-68897023D01*
X166632559Y-68897016D01*
X166262549Y-68764625D01*
X165881308Y-68669129D01*
X165492550Y-68611461D01*
X165100000Y-68592176D01*
X164707449Y-68611461D01*
X164318691Y-68669129D01*
X163937450Y-68764625D01*
X163567440Y-68897016D01*
X163567424Y-68897023D01*
X163212135Y-69065062D01*
X162875041Y-69267109D01*
X162559368Y-69501228D01*
X162453622Y-69597069D01*
X164051934Y-71195381D01*
X163943669Y-71278457D01*
X163781457Y-71440669D01*
X163698382Y-71548934D01*
X162100069Y-69950622D01*
X162004228Y-70056368D01*
X161770109Y-70372041D01*
X161568062Y-70709135D01*
X161400023Y-71064424D01*
X161400016Y-71064440D01*
X161267625Y-71434450D01*
X161172129Y-71815691D01*
X161114461Y-72204449D01*
X161095176Y-72597000D01*
X128454654Y-72597000D01*
X128464823Y-72390000D01*
X128445538Y-71997449D01*
X128387870Y-71608691D01*
X128292374Y-71227450D01*
X128159983Y-70857440D01*
X128159976Y-70857424D01*
X127991937Y-70502135D01*
X127789890Y-70165041D01*
X127555771Y-69849367D01*
X127459930Y-69743622D01*
X127459929Y-69743622D01*
X125861617Y-71341934D01*
X125778543Y-71233669D01*
X125616331Y-71071457D01*
X125508065Y-70988381D01*
X127106376Y-69390069D01*
X127106376Y-69390068D01*
X127000632Y-69294228D01*
X126684958Y-69060109D01*
X126347864Y-68858062D01*
X125992575Y-68690023D01*
X125992559Y-68690016D01*
X125622549Y-68557625D01*
X125241308Y-68462129D01*
X124852550Y-68404461D01*
X124460000Y-68385176D01*
X124067449Y-68404461D01*
X123678691Y-68462129D01*
X123297450Y-68557625D01*
X122927440Y-68690016D01*
X122927424Y-68690023D01*
X122572135Y-68858062D01*
X122235041Y-69060109D01*
X121919368Y-69294228D01*
X121813622Y-69390069D01*
X123411934Y-70988381D01*
X123303669Y-71071457D01*
X123141457Y-71233669D01*
X123058381Y-71341934D01*
X121460069Y-69743622D01*
X121364228Y-69849368D01*
X121130109Y-70165041D01*
X120928062Y-70502135D01*
X120760023Y-70857424D01*
X120760016Y-70857440D01*
X120627625Y-71227450D01*
X120532129Y-71608691D01*
X120474461Y-71997449D01*
X120455176Y-72390000D01*
X120015000Y-72390000D01*
X120015000Y-67434000D01*
X120034685Y-67366961D01*
X120087489Y-67321206D01*
X120139000Y-67310000D01*
X169421000Y-67310000D01*
X169488039Y-67329685D01*
G37*
%TD.AperFunction*%
%TD*%
M02*
