M48
; DRILL file {KiCad 8.0.5} date 2024-10-13T16:52:10-0700
; FORMAT={-:-/ absolute / inch / decimal}
; #@! TF.CreationDate,2024-10-13T16:52:10-07:00
; #@! TF.GenerationSoftware,Kicad,Pcbnew,8.0.5
; #@! TF.FileFunction,Plated,1,2,PTH
FMAT,2
INCH
; #@! TA.AperFunction,Plated,PTH,ViaDrill
T1C0.0118
; #@! TA.AperFunction,Plated,PTH,ComponentDrill
T2C0.0315
; #@! TA.AperFunction,Plated,PTH,ComponentDrill
T3C0.0394
; #@! TA.AperFunction,Plated,PTH,ComponentDrill
T4C0.0433
; #@! TA.AperFunction,Plated,PTH,ComponentDrill
T5C0.0512
; #@! TA.AperFunction,Plated,PTH,ComponentDrill
T6C0.1378
%
G90
G05
T1
X3.11Y-3.8
X3.26Y-4.03
X3.2795Y-4.378
X3.29Y-4.26
X3.5394Y-4.4803
X3.5827Y-3.8819
X4.1Y-4.55
X4.52Y-3.37
X4.99Y-3.91
T2
X2.68Y-5.12
X2.7216Y-5.42
X2.9184Y-5.42
X3.08Y-5.12
X3.1716Y-5.7
X3.3684Y-5.7
X3.37Y-5.3116
X3.37Y-5.5084
X3.3994Y-3.5904
X3.3994Y-3.6904
X3.3994Y-3.7904
X3.3994Y-3.8904
X3.3994Y-3.9904
X3.3994Y-4.0904
X3.3994Y-4.1904
X3.3994Y-4.2904
X3.3994Y-4.3904
X3.3994Y-4.4904
X3.3994Y-4.5904
X3.3994Y-4.6904
X3.3994Y-4.7904
X3.3994Y-4.8904
X3.6994Y-3.5904
X3.6994Y-3.6904
X3.6994Y-3.7904
X3.6994Y-3.8904
X3.6994Y-3.9904
X3.6994Y-4.0904
X3.6994Y-4.1904
X3.6994Y-4.2904
X3.6994Y-4.3904
X3.6994Y-4.4904
X3.6994Y-4.5904
X3.6994Y-4.6904
X3.6994Y-4.7904
X3.6994Y-4.8904
X4.09Y-2.75
X4.09Y-2.96
X4.31Y-3.88
X4.31Y-4.18
X4.31Y-4.48
X4.31Y-4.78
X4.31Y-5.08
X4.4194Y-3.2204
X4.4194Y-3.3204
X4.4194Y-3.4204
X4.4194Y-3.5204
X4.49Y-2.75
X4.49Y-2.96
X4.67Y-2.75
X4.67Y-2.96
X4.71Y-3.88
X4.71Y-4.18
X4.71Y-4.48
X4.71Y-4.78
X4.71Y-5.08
X4.7194Y-3.2204
X4.7194Y-3.3204
X4.7194Y-3.4204
X4.7194Y-3.5204
X5.07Y-2.75
X5.07Y-2.96
X5.21Y-2.86
X5.21Y-3.235
X5.21Y-3.61
X5.4069Y-2.86
X5.4069Y-3.235
X5.4069Y-3.61
X5.8016Y-3.62
X5.9984Y-3.62
T3
X5.1902Y-3.94
X5.1902Y-5.04
X5.2902Y-3.94
X5.2902Y-5.04
X5.3902Y-3.94
X5.3902Y-5.04
X5.4902Y-3.94
X5.4902Y-5.04
X5.5902Y-3.94
X5.5902Y-5.04
X5.6902Y-3.94
X5.6902Y-5.04
X5.7902Y-3.94
X5.7902Y-5.04
X5.8902Y-3.94
X5.8902Y-5.04
X5.9902Y-3.94
X5.9902Y-5.04
X6.0902Y-3.94
X6.0902Y-5.04
X6.1902Y-3.94
X6.1902Y-5.04
X6.23Y-3.35
X6.2902Y-3.94
X6.2902Y-5.04
T4
X2.72Y-5.7
X2.82Y-5.7
X2.92Y-5.7
X2.95Y-4.11
X2.95Y-4.21
X2.95Y-4.31
X3.05Y-4.11
X3.05Y-4.21
X3.05Y-4.31
T5
X2.328Y-3.3316
X2.328Y-3.5284
X2.328Y-4.1516
X2.328Y-4.3484
X2.328Y-4.9716
X2.328Y-5.1684
X2.7063Y-2.85
X2.9031Y-2.85
X3.1Y-2.85
X3.4Y-2.85
X3.5969Y-2.85
X3.7937Y-2.85
X3.8816Y-5.652
X4.0784Y-5.652
X5.6216Y-2.87
X5.8184Y-2.87
T6
X2.3Y-2.8
X2.3Y-5.7
X6.2Y-2.79
X6.2Y-5.7
M30
