%TF.GenerationSoftware,KiCad,Pcbnew,8.0.3*%
%TF.CreationDate,2024-07-23T20:10:18-07:00*%
%TF.ProjectId,BM-83 Carrier PCB,424d2d38-3320-4436-9172-726965722050,rev?*%
%TF.SameCoordinates,Original*%
%TF.FileFunction,Legend,Top*%
%TF.FilePolarity,Positive*%
%FSLAX46Y46*%
G04 Gerber Fmt 4.6, Leading zero omitted, Abs format (unit mm)*
G04 Created by KiCad (PCBNEW 8.0.3) date 2024-07-23 20:10:18*
%MOMM*%
%LPD*%
G01*
G04 APERTURE LIST*
%ADD10C,0.150000*%
%ADD11C,0.120000*%
G04 APERTURE END LIST*
D10*
X154557142Y-94206819D02*
X154223809Y-93730628D01*
X153985714Y-94206819D02*
X153985714Y-93206819D01*
X153985714Y-93206819D02*
X154366666Y-93206819D01*
X154366666Y-93206819D02*
X154461904Y-93254438D01*
X154461904Y-93254438D02*
X154509523Y-93302057D01*
X154509523Y-93302057D02*
X154557142Y-93397295D01*
X154557142Y-93397295D02*
X154557142Y-93540152D01*
X154557142Y-93540152D02*
X154509523Y-93635390D01*
X154509523Y-93635390D02*
X154461904Y-93683009D01*
X154461904Y-93683009D02*
X154366666Y-93730628D01*
X154366666Y-93730628D02*
X153985714Y-93730628D01*
X154890476Y-93206819D02*
X155557142Y-94206819D01*
X155557142Y-93206819D02*
X154890476Y-94206819D01*
X156461904Y-94206819D02*
X155890476Y-94206819D01*
X156176190Y-94206819D02*
X156176190Y-93206819D01*
X156176190Y-93206819D02*
X156080952Y-93349676D01*
X156080952Y-93349676D02*
X155985714Y-93444914D01*
X155985714Y-93444914D02*
X155890476Y-93492533D01*
X148961905Y-93154819D02*
X149533333Y-93154819D01*
X149247619Y-94154819D02*
X149247619Y-93154819D01*
X149771429Y-93154819D02*
X150438095Y-94154819D01*
X150438095Y-93154819D02*
X149771429Y-94154819D01*
X151342857Y-94154819D02*
X150771429Y-94154819D01*
X151057143Y-94154819D02*
X151057143Y-93154819D01*
X151057143Y-93154819D02*
X150961905Y-93297676D01*
X150961905Y-93297676D02*
X150866667Y-93392914D01*
X150866667Y-93392914D02*
X150771429Y-93440533D01*
X134080952Y-98669104D02*
X134557142Y-98669104D01*
X133985714Y-98954819D02*
X134319047Y-97954819D01*
X134319047Y-97954819D02*
X134652380Y-98954819D01*
X135414285Y-98288152D02*
X135414285Y-98954819D01*
X134985714Y-98288152D02*
X134985714Y-98811961D01*
X134985714Y-98811961D02*
X135033333Y-98907200D01*
X135033333Y-98907200D02*
X135128571Y-98954819D01*
X135128571Y-98954819D02*
X135271428Y-98954819D01*
X135271428Y-98954819D02*
X135366666Y-98907200D01*
X135366666Y-98907200D02*
X135414285Y-98859580D01*
X136319047Y-98954819D02*
X136319047Y-97954819D01*
X136319047Y-98907200D02*
X136223809Y-98954819D01*
X136223809Y-98954819D02*
X136033333Y-98954819D01*
X136033333Y-98954819D02*
X135938095Y-98907200D01*
X135938095Y-98907200D02*
X135890476Y-98859580D01*
X135890476Y-98859580D02*
X135842857Y-98764342D01*
X135842857Y-98764342D02*
X135842857Y-98478628D01*
X135842857Y-98478628D02*
X135890476Y-98383390D01*
X135890476Y-98383390D02*
X135938095Y-98335771D01*
X135938095Y-98335771D02*
X136033333Y-98288152D01*
X136033333Y-98288152D02*
X136223809Y-98288152D01*
X136223809Y-98288152D02*
X136319047Y-98335771D01*
X137319047Y-98954819D02*
X136747619Y-98954819D01*
X137033333Y-98954819D02*
X137033333Y-97954819D01*
X137033333Y-97954819D02*
X136938095Y-98097676D01*
X136938095Y-98097676D02*
X136842857Y-98192914D01*
X136842857Y-98192914D02*
X136747619Y-98240533D01*
X145288095Y-72954819D02*
X145288095Y-73764342D01*
X145288095Y-73764342D02*
X145335714Y-73859580D01*
X145335714Y-73859580D02*
X145383333Y-73907200D01*
X145383333Y-73907200D02*
X145478571Y-73954819D01*
X145478571Y-73954819D02*
X145669047Y-73954819D01*
X145669047Y-73954819D02*
X145764285Y-73907200D01*
X145764285Y-73907200D02*
X145811904Y-73859580D01*
X145811904Y-73859580D02*
X145859523Y-73764342D01*
X145859523Y-73764342D02*
X145859523Y-72954819D01*
X146859523Y-73954819D02*
X146288095Y-73954819D01*
X146573809Y-73954819D02*
X146573809Y-72954819D01*
X146573809Y-72954819D02*
X146478571Y-73097676D01*
X146478571Y-73097676D02*
X146383333Y-73192914D01*
X146383333Y-73192914D02*
X146288095Y-73240533D01*
X140670112Y-71831009D02*
X140812969Y-71878628D01*
X140812969Y-71878628D02*
X140860588Y-71926247D01*
X140860588Y-71926247D02*
X140908207Y-72021485D01*
X140908207Y-72021485D02*
X140908207Y-72164342D01*
X140908207Y-72164342D02*
X140860588Y-72259580D01*
X140860588Y-72259580D02*
X140812969Y-72307200D01*
X140812969Y-72307200D02*
X140717731Y-72354819D01*
X140717731Y-72354819D02*
X140336779Y-72354819D01*
X140336779Y-72354819D02*
X140336779Y-71354819D01*
X140336779Y-71354819D02*
X140670112Y-71354819D01*
X140670112Y-71354819D02*
X140765350Y-71402438D01*
X140765350Y-71402438D02*
X140812969Y-71450057D01*
X140812969Y-71450057D02*
X140860588Y-71545295D01*
X140860588Y-71545295D02*
X140860588Y-71640533D01*
X140860588Y-71640533D02*
X140812969Y-71735771D01*
X140812969Y-71735771D02*
X140765350Y-71783390D01*
X140765350Y-71783390D02*
X140670112Y-71831009D01*
X140670112Y-71831009D02*
X140336779Y-71831009D01*
X141336779Y-72354819D02*
X141336779Y-71354819D01*
X141336779Y-71354819D02*
X141670112Y-72069104D01*
X141670112Y-72069104D02*
X142003445Y-71354819D01*
X142003445Y-71354819D02*
X142003445Y-72354819D01*
X142622493Y-71783390D02*
X142527255Y-71735771D01*
X142527255Y-71735771D02*
X142479636Y-71688152D01*
X142479636Y-71688152D02*
X142432017Y-71592914D01*
X142432017Y-71592914D02*
X142432017Y-71545295D01*
X142432017Y-71545295D02*
X142479636Y-71450057D01*
X142479636Y-71450057D02*
X142527255Y-71402438D01*
X142527255Y-71402438D02*
X142622493Y-71354819D01*
X142622493Y-71354819D02*
X142812969Y-71354819D01*
X142812969Y-71354819D02*
X142908207Y-71402438D01*
X142908207Y-71402438D02*
X142955826Y-71450057D01*
X142955826Y-71450057D02*
X143003445Y-71545295D01*
X143003445Y-71545295D02*
X143003445Y-71592914D01*
X143003445Y-71592914D02*
X142955826Y-71688152D01*
X142955826Y-71688152D02*
X142908207Y-71735771D01*
X142908207Y-71735771D02*
X142812969Y-71783390D01*
X142812969Y-71783390D02*
X142622493Y-71783390D01*
X142622493Y-71783390D02*
X142527255Y-71831009D01*
X142527255Y-71831009D02*
X142479636Y-71878628D01*
X142479636Y-71878628D02*
X142432017Y-71973866D01*
X142432017Y-71973866D02*
X142432017Y-72164342D01*
X142432017Y-72164342D02*
X142479636Y-72259580D01*
X142479636Y-72259580D02*
X142527255Y-72307200D01*
X142527255Y-72307200D02*
X142622493Y-72354819D01*
X142622493Y-72354819D02*
X142812969Y-72354819D01*
X142812969Y-72354819D02*
X142908207Y-72307200D01*
X142908207Y-72307200D02*
X142955826Y-72259580D01*
X142955826Y-72259580D02*
X143003445Y-72164342D01*
X143003445Y-72164342D02*
X143003445Y-71973866D01*
X143003445Y-71973866D02*
X142955826Y-71878628D01*
X142955826Y-71878628D02*
X142908207Y-71831009D01*
X142908207Y-71831009D02*
X142812969Y-71783390D01*
X143336779Y-71354819D02*
X143955826Y-71354819D01*
X143955826Y-71354819D02*
X143622493Y-71735771D01*
X143622493Y-71735771D02*
X143765350Y-71735771D01*
X143765350Y-71735771D02*
X143860588Y-71783390D01*
X143860588Y-71783390D02*
X143908207Y-71831009D01*
X143908207Y-71831009D02*
X143955826Y-71926247D01*
X143955826Y-71926247D02*
X143955826Y-72164342D01*
X143955826Y-72164342D02*
X143908207Y-72259580D01*
X143908207Y-72259580D02*
X143860588Y-72307200D01*
X143860588Y-72307200D02*
X143765350Y-72354819D01*
X143765350Y-72354819D02*
X143479636Y-72354819D01*
X143479636Y-72354819D02*
X143384398Y-72307200D01*
X143384398Y-72307200D02*
X143336779Y-72259580D01*
X144336779Y-72307200D02*
X144479636Y-72354819D01*
X144479636Y-72354819D02*
X144717731Y-72354819D01*
X144717731Y-72354819D02*
X144812969Y-72307200D01*
X144812969Y-72307200D02*
X144860588Y-72259580D01*
X144860588Y-72259580D02*
X144908207Y-72164342D01*
X144908207Y-72164342D02*
X144908207Y-72069104D01*
X144908207Y-72069104D02*
X144860588Y-71973866D01*
X144860588Y-71973866D02*
X144812969Y-71926247D01*
X144812969Y-71926247D02*
X144717731Y-71878628D01*
X144717731Y-71878628D02*
X144527255Y-71831009D01*
X144527255Y-71831009D02*
X144432017Y-71783390D01*
X144432017Y-71783390D02*
X144384398Y-71735771D01*
X144384398Y-71735771D02*
X144336779Y-71640533D01*
X144336779Y-71640533D02*
X144336779Y-71545295D01*
X144336779Y-71545295D02*
X144384398Y-71450057D01*
X144384398Y-71450057D02*
X144432017Y-71402438D01*
X144432017Y-71402438D02*
X144527255Y-71354819D01*
X144527255Y-71354819D02*
X144765350Y-71354819D01*
X144765350Y-71354819D02*
X144908207Y-71402438D01*
X145336779Y-72354819D02*
X145336779Y-71354819D01*
X145336779Y-71354819D02*
X145670112Y-72069104D01*
X145670112Y-72069104D02*
X146003445Y-71354819D01*
X146003445Y-71354819D02*
X146003445Y-72354819D01*
X147003445Y-72354819D02*
X146432017Y-72354819D01*
X146717731Y-72354819D02*
X146717731Y-71354819D01*
X146717731Y-71354819D02*
X146622493Y-71497676D01*
X146622493Y-71497676D02*
X146527255Y-71592914D01*
X146527255Y-71592914D02*
X146432017Y-71640533D01*
X147432017Y-71973866D02*
X148193922Y-71973866D01*
X148860588Y-71354819D02*
X148955826Y-71354819D01*
X148955826Y-71354819D02*
X149051064Y-71402438D01*
X149051064Y-71402438D02*
X149098683Y-71450057D01*
X149098683Y-71450057D02*
X149146302Y-71545295D01*
X149146302Y-71545295D02*
X149193921Y-71735771D01*
X149193921Y-71735771D02*
X149193921Y-71973866D01*
X149193921Y-71973866D02*
X149146302Y-72164342D01*
X149146302Y-72164342D02*
X149098683Y-72259580D01*
X149098683Y-72259580D02*
X149051064Y-72307200D01*
X149051064Y-72307200D02*
X148955826Y-72354819D01*
X148955826Y-72354819D02*
X148860588Y-72354819D01*
X148860588Y-72354819D02*
X148765350Y-72307200D01*
X148765350Y-72307200D02*
X148717731Y-72259580D01*
X148717731Y-72259580D02*
X148670112Y-72164342D01*
X148670112Y-72164342D02*
X148622493Y-71973866D01*
X148622493Y-71973866D02*
X148622493Y-71735771D01*
X148622493Y-71735771D02*
X148670112Y-71545295D01*
X148670112Y-71545295D02*
X148717731Y-71450057D01*
X148717731Y-71450057D02*
X148765350Y-71402438D01*
X148765350Y-71402438D02*
X148860588Y-71354819D01*
X149812969Y-71354819D02*
X149908207Y-71354819D01*
X149908207Y-71354819D02*
X150003445Y-71402438D01*
X150003445Y-71402438D02*
X150051064Y-71450057D01*
X150051064Y-71450057D02*
X150098683Y-71545295D01*
X150098683Y-71545295D02*
X150146302Y-71735771D01*
X150146302Y-71735771D02*
X150146302Y-71973866D01*
X150146302Y-71973866D02*
X150098683Y-72164342D01*
X150098683Y-72164342D02*
X150051064Y-72259580D01*
X150051064Y-72259580D02*
X150003445Y-72307200D01*
X150003445Y-72307200D02*
X149908207Y-72354819D01*
X149908207Y-72354819D02*
X149812969Y-72354819D01*
X149812969Y-72354819D02*
X149717731Y-72307200D01*
X149717731Y-72307200D02*
X149670112Y-72259580D01*
X149670112Y-72259580D02*
X149622493Y-72164342D01*
X149622493Y-72164342D02*
X149574874Y-71973866D01*
X149574874Y-71973866D02*
X149574874Y-71735771D01*
X149574874Y-71735771D02*
X149622493Y-71545295D01*
X149622493Y-71545295D02*
X149670112Y-71450057D01*
X149670112Y-71450057D02*
X149717731Y-71402438D01*
X149717731Y-71402438D02*
X149812969Y-71354819D01*
X150527255Y-72069104D02*
X151003445Y-72069104D01*
X150432017Y-72354819D02*
X150765350Y-71354819D01*
X150765350Y-71354819D02*
X151098683Y-72354819D01*
X151765350Y-71831009D02*
X151908207Y-71878628D01*
X151908207Y-71878628D02*
X151955826Y-71926247D01*
X151955826Y-71926247D02*
X152003445Y-72021485D01*
X152003445Y-72021485D02*
X152003445Y-72164342D01*
X152003445Y-72164342D02*
X151955826Y-72259580D01*
X151955826Y-72259580D02*
X151908207Y-72307200D01*
X151908207Y-72307200D02*
X151812969Y-72354819D01*
X151812969Y-72354819D02*
X151432017Y-72354819D01*
X151432017Y-72354819D02*
X151432017Y-71354819D01*
X151432017Y-71354819D02*
X151765350Y-71354819D01*
X151765350Y-71354819D02*
X151860588Y-71402438D01*
X151860588Y-71402438D02*
X151908207Y-71450057D01*
X151908207Y-71450057D02*
X151955826Y-71545295D01*
X151955826Y-71545295D02*
X151955826Y-71640533D01*
X151955826Y-71640533D02*
X151908207Y-71735771D01*
X151908207Y-71735771D02*
X151860588Y-71783390D01*
X151860588Y-71783390D02*
X151765350Y-71831009D01*
X151765350Y-71831009D02*
X151432017Y-71831009D01*
X138180952Y-98669104D02*
X138657142Y-98669104D01*
X138085714Y-98954819D02*
X138419047Y-97954819D01*
X138419047Y-97954819D02*
X138752380Y-98954819D01*
X139514285Y-98288152D02*
X139514285Y-98954819D01*
X139085714Y-98288152D02*
X139085714Y-98811961D01*
X139085714Y-98811961D02*
X139133333Y-98907200D01*
X139133333Y-98907200D02*
X139228571Y-98954819D01*
X139228571Y-98954819D02*
X139371428Y-98954819D01*
X139371428Y-98954819D02*
X139466666Y-98907200D01*
X139466666Y-98907200D02*
X139514285Y-98859580D01*
X140419047Y-98954819D02*
X140419047Y-97954819D01*
X140419047Y-98907200D02*
X140323809Y-98954819D01*
X140323809Y-98954819D02*
X140133333Y-98954819D01*
X140133333Y-98954819D02*
X140038095Y-98907200D01*
X140038095Y-98907200D02*
X139990476Y-98859580D01*
X139990476Y-98859580D02*
X139942857Y-98764342D01*
X139942857Y-98764342D02*
X139942857Y-98478628D01*
X139942857Y-98478628D02*
X139990476Y-98383390D01*
X139990476Y-98383390D02*
X140038095Y-98335771D01*
X140038095Y-98335771D02*
X140133333Y-98288152D01*
X140133333Y-98288152D02*
X140323809Y-98288152D01*
X140323809Y-98288152D02*
X140419047Y-98335771D01*
X140847619Y-98050057D02*
X140895238Y-98002438D01*
X140895238Y-98002438D02*
X140990476Y-97954819D01*
X140990476Y-97954819D02*
X141228571Y-97954819D01*
X141228571Y-97954819D02*
X141323809Y-98002438D01*
X141323809Y-98002438D02*
X141371428Y-98050057D01*
X141371428Y-98050057D02*
X141419047Y-98145295D01*
X141419047Y-98145295D02*
X141419047Y-98240533D01*
X141419047Y-98240533D02*
X141371428Y-98383390D01*
X141371428Y-98383390D02*
X140800000Y-98954819D01*
X140800000Y-98954819D02*
X141419047Y-98954819D01*
X148391905Y-102254819D02*
X148391905Y-101254819D01*
X148391905Y-101254819D02*
X148630000Y-101254819D01*
X148630000Y-101254819D02*
X148772857Y-101302438D01*
X148772857Y-101302438D02*
X148868095Y-101397676D01*
X148868095Y-101397676D02*
X148915714Y-101492914D01*
X148915714Y-101492914D02*
X148963333Y-101683390D01*
X148963333Y-101683390D02*
X148963333Y-101826247D01*
X148963333Y-101826247D02*
X148915714Y-102016723D01*
X148915714Y-102016723D02*
X148868095Y-102111961D01*
X148868095Y-102111961D02*
X148772857Y-102207200D01*
X148772857Y-102207200D02*
X148630000Y-102254819D01*
X148630000Y-102254819D02*
X148391905Y-102254819D01*
X149344286Y-101350057D02*
X149391905Y-101302438D01*
X149391905Y-101302438D02*
X149487143Y-101254819D01*
X149487143Y-101254819D02*
X149725238Y-101254819D01*
X149725238Y-101254819D02*
X149820476Y-101302438D01*
X149820476Y-101302438D02*
X149868095Y-101350057D01*
X149868095Y-101350057D02*
X149915714Y-101445295D01*
X149915714Y-101445295D02*
X149915714Y-101540533D01*
X149915714Y-101540533D02*
X149868095Y-101683390D01*
X149868095Y-101683390D02*
X149296667Y-102254819D01*
X149296667Y-102254819D02*
X149915714Y-102254819D01*
X154061905Y-102354819D02*
X154061905Y-101354819D01*
X154061905Y-101354819D02*
X154300000Y-101354819D01*
X154300000Y-101354819D02*
X154442857Y-101402438D01*
X154442857Y-101402438D02*
X154538095Y-101497676D01*
X154538095Y-101497676D02*
X154585714Y-101592914D01*
X154585714Y-101592914D02*
X154633333Y-101783390D01*
X154633333Y-101783390D02*
X154633333Y-101926247D01*
X154633333Y-101926247D02*
X154585714Y-102116723D01*
X154585714Y-102116723D02*
X154538095Y-102211961D01*
X154538095Y-102211961D02*
X154442857Y-102307200D01*
X154442857Y-102307200D02*
X154300000Y-102354819D01*
X154300000Y-102354819D02*
X154061905Y-102354819D01*
X155585714Y-102354819D02*
X155014286Y-102354819D01*
X155300000Y-102354819D02*
X155300000Y-101354819D01*
X155300000Y-101354819D02*
X155204762Y-101497676D01*
X155204762Y-101497676D02*
X155109524Y-101592914D01*
X155109524Y-101592914D02*
X155014286Y-101640533D01*
D11*
%TO.C,RX1*%
X155900000Y-95200000D02*
G75*
G02*
X154500000Y-95200000I-700000J0D01*
G01*
X154500000Y-95200000D02*
G75*
G02*
X155900000Y-95200000I700000J0D01*
G01*
%TO.C,TX1*%
X150900000Y-95200000D02*
G75*
G02*
X149500000Y-95200000I-700000J0D01*
G01*
X149500000Y-95200000D02*
G75*
G02*
X150900000Y-95200000I700000J0D01*
G01*
%TO.C,Aud1*%
X136200000Y-100600000D02*
G75*
G02*
X134800000Y-100600000I-700000J0D01*
G01*
X134800000Y-100600000D02*
G75*
G02*
X136200000Y-100600000I700000J0D01*
G01*
%TO.C,U1*%
X138417300Y-66644000D02*
X153682700Y-66644000D01*
X138417300Y-67099180D02*
X138417300Y-66644000D01*
X138417300Y-88773000D02*
X138417300Y-87388700D01*
X140909040Y-88773000D02*
X138417300Y-88773000D01*
X153682700Y-66644000D02*
X153682700Y-67099180D01*
X153682700Y-87388700D02*
X153682700Y-88773000D01*
X153682700Y-88773000D02*
X151190960Y-88773000D01*
%TO.C,Aud2*%
X140500000Y-100600000D02*
G75*
G02*
X139100000Y-100600000I-700000J0D01*
G01*
X139100000Y-100600000D02*
G75*
G02*
X140500000Y-100600000I700000J0D01*
G01*
%TO.C,D2*%
X147570000Y-97664000D02*
X147570000Y-97820000D01*
X147570000Y-99980000D02*
X147570000Y-100136000D01*
X147570000Y-97664484D02*
G75*
G02*
X150802335Y-97821392I1560000J-1235516D01*
G01*
X148089039Y-97820000D02*
G75*
G02*
X150171130Y-97820163I1040961J-1080000D01*
G01*
X150171130Y-99979837D02*
G75*
G02*
X148089039Y-99980000I-1041130J1079837D01*
G01*
X150802335Y-99978608D02*
G75*
G02*
X147570000Y-100135516I-1672335J1078608D01*
G01*
%TO.C,D1*%
X153310000Y-97664000D02*
X153310000Y-97820000D01*
X153310000Y-99980000D02*
X153310000Y-100136000D01*
X153310000Y-97664484D02*
G75*
G02*
X156542335Y-97821392I1560000J-1235516D01*
G01*
X153829039Y-97820000D02*
G75*
G02*
X155911130Y-97820163I1040961J-1080000D01*
G01*
X155911130Y-99979837D02*
G75*
G02*
X153829039Y-99980000I-1041130J1079837D01*
G01*
X156542335Y-99978608D02*
G75*
G02*
X153310000Y-100135516I-1672335J1078608D01*
G01*
%TD*%
M02*
