M48
; DRILL file {KiCad 8.0.3} date 2024-07-23T20:10:08-0700
; FORMAT={-:-/ absolute / inch / decimal}
; #@! TF.CreationDate,2024-07-23T20:10:08-07:00
; #@! TF.GenerationSoftware,Kicad,Pcbnew,8.0.3
; #@! TF.FileFunction,Plated,1,2,PTH
FMAT,2
INCH
; #@! TA.AperFunction,Plated,PTH,ViaDrill
T1C0.0157
; #@! TA.AperFunction,Plated,PTH,ComponentDrill
T2C0.0197
; #@! TA.AperFunction,Plated,PTH,ComponentDrill
T3C0.0315
; #@! TA.AperFunction,Plated,PTH,ComponentDrill
T4C0.0354
; #@! TA.AperFunction,Plated,PTH,ComponentDrill
T5C0.0394
%
G90
G05
T1
X5.28Y-2.79
X5.31Y-2.89
X5.3189Y-3.5
X5.3228Y-3.7795
X5.3268Y-3.685
X5.34Y-2.71
X5.3425Y-3.3268
X5.3898Y-3.63
X5.4764Y-3.5551
X5.4921Y-3.6772
X5.5Y-3.7717
X5.59Y-2.87
X5.5945Y-3.0197
X5.5945Y-3.9764
X5.6102Y-3.3346
X5.6181Y-3.6024
X5.622Y-2.7559
X5.622Y-3.7323
X5.6299Y-3.1929
X5.687Y-3.5965
X5.7047Y-3.874
X5.7598Y-3.3465
X5.8031Y-3.2165
X5.815Y-3.5394
X5.8287Y-3.5807
X5.8307Y-2.7008
X5.8346Y-3.0787
X5.8504Y-2.9213
X5.9Y-3.35
X5.98Y-3.55
X6.0197Y-3.748
X6.1142Y-2.8071
X6.1142Y-3.3189
X6.1299Y-2.9606
X6.1299Y-3.0315
X6.1299Y-3.2244
X6.1506Y-3.4124
X6.1575Y-2.6929
X6.1669Y-3.53
X6.1772Y-3.1417
X6.1772Y-3.5866
X6.189Y-3.3228
X6.19Y-2.96
X6.2913Y-3.9803
T2
X5.3346Y-3.9606
X5.5039Y-3.9606
X5.9134Y-3.748
X6.1102Y-3.748
T3
X5.34Y-2.9916
X5.34Y-3.1884
T4
X5.8213Y-3.8937
X5.9213Y-3.8937
X6.0472Y-3.8937
X6.1472Y-3.8937
T5
X5.2Y-2.73
X5.2Y-2.83
X5.2Y-2.93
X5.2Y-3.03
X5.2Y-3.13
X5.2Y-3.23
X5.2Y-3.33
X5.2Y-3.43
X5.2Y-3.53
X5.2Y-3.63
X5.2Y-3.73
X5.2Y-3.83
X6.3Y-2.73
X6.3Y-2.83
X6.3Y-2.93
X6.3Y-3.03
X6.3Y-3.13
X6.3Y-3.23
X6.3Y-3.33
X6.3Y-3.43
X6.3Y-3.53
X6.3Y-3.63
X6.3Y-3.73
X6.3Y-3.83
M30
