%TF.GenerationSoftware,KiCad,Pcbnew,8.0.3*%
%TF.CreationDate,2024-07-23T20:10:18-07:00*%
%TF.ProjectId,BM-83 Carrier PCB,424d2d38-3320-4436-9172-726965722050,rev?*%
%TF.SameCoordinates,Original*%
%TF.FileFunction,Copper,L1,Top*%
%TF.FilePolarity,Positive*%
%FSLAX46Y46*%
G04 Gerber Fmt 4.6, Leading zero omitted, Abs format (unit mm)*
G04 Created by KiCad (PCBNEW 8.0.3) date 2024-07-23 20:10:18*
%MOMM*%
%LPD*%
G01*
G04 APERTURE LIST*
%TA.AperFunction,ComponentPad*%
%ADD10C,1.000000*%
%TD*%
%TA.AperFunction,SMDPad,CuDef*%
%ADD11R,1.498600X0.609600*%
%TD*%
%TA.AperFunction,SMDPad,CuDef*%
%ADD12R,0.609600X1.498600*%
%TD*%
%TA.AperFunction,SMDPad,CuDef*%
%ADD13R,1.778000X1.778000*%
%TD*%
%TA.AperFunction,SMDPad,CuDef*%
%ADD14R,2.794000X0.762000*%
%TD*%
%TA.AperFunction,ComponentPad*%
%ADD15R,1.800000X1.800000*%
%TD*%
%TA.AperFunction,ComponentPad*%
%ADD16C,1.800000*%
%TD*%
%TA.AperFunction,ComponentPad*%
%ADD17R,1.700000X1.700000*%
%TD*%
%TA.AperFunction,ComponentPad*%
%ADD18O,1.700000X1.700000*%
%TD*%
%TA.AperFunction,ComponentPad*%
%ADD19C,1.600000*%
%TD*%
%TA.AperFunction,ViaPad*%
%ADD20C,0.800000*%
%TD*%
%TA.AperFunction,Conductor*%
%ADD21C,0.304800*%
%TD*%
G04 APERTURE END LIST*
D10*
%TO.P,RX1,1,1*%
%TO.N,Net-(J2-Pin_10)*%
X155200000Y-95200000D03*
%TD*%
%TO.P,TX1,1,1*%
%TO.N,Net-(J2-Pin_9)*%
X150200000Y-95200000D03*
%TD*%
%TO.P,Aud1,1,1*%
%TO.N,Net-(J1-Pin_1)*%
X135500000Y-100600000D03*
%TD*%
D11*
%TO.P,U1,1,DR1*%
%TO.N,unconnected-(U1-DR1-Pad1)*%
X138799570Y-67736720D03*
%TO.P,U1,2,RFS1*%
%TO.N,unconnected-(U1-RFS1-Pad2)*%
X138799570Y-68737480D03*
%TO.P,U1,3,SCLK1*%
%TO.N,unconnected-(U1-SCLK1-Pad3)*%
X138799570Y-69738240D03*
%TO.P,U1,4,DT1*%
%TO.N,unconnected-(U1-DT1-Pad4)*%
X138799570Y-70739000D03*
%TO.P,U1,5,MCLK1*%
%TO.N,unconnected-(U1-MCLK1-Pad5)*%
X138799570Y-71739760D03*
%TO.P,U1,6,AOHPR*%
%TO.N,Net-(J1-Pin_1)*%
X138799570Y-72740520D03*
%TO.P,U1,7,AOHPM*%
%TO.N,Net-(J1-Pin_2)*%
X138799570Y-73741280D03*
%TO.P,U1,8,AOHPL*%
%TO.N,unconnected-(U1-AOHPL-Pad8)*%
X138799570Y-74742040D03*
%TO.P,U1,9,MICN2*%
%TO.N,unconnected-(U1-MICN2-Pad9)*%
X138799570Y-75742800D03*
%TO.P,U1,10,MICP2*%
%TO.N,unconnected-(U1-MICP2-Pad10)*%
X138799570Y-76743560D03*
%TO.P,U1,11,AIR*%
%TO.N,Net-(J1-Pin_5)*%
X138799570Y-77744320D03*
%TO.P,U1,12,AIL*%
%TO.N,Net-(J1-Pin_6)*%
X138799570Y-78745080D03*
%TO.P,U1,13,MICN1*%
%TO.N,unconnected-(U1-MICN1-Pad13)*%
X138799570Y-79745840D03*
%TO.P,U1,14,MICP1*%
%TO.N,unconnected-(U1-MICP1-Pad14)*%
X138799570Y-80746600D03*
%TO.P,U1,15,MICBIAS*%
%TO.N,unconnected-(U1-MICBIAS-Pad15)*%
X138799570Y-81747360D03*
%TO.P,U1,16,GND*%
%TO.N,GND*%
X138799570Y-82748120D03*
%TO.P,U1,17,DMIC_CLK*%
%TO.N,unconnected-(U1-DMIC_CLK-Pad17)*%
X138799570Y-83748880D03*
%TO.P,U1,18,MIDC1_R*%
%TO.N,unconnected-(U1-MIDC1_R-Pad18)*%
X138799570Y-84749640D03*
%TO.P,U1,19,MIDC1_L*%
%TO.N,unconnected-(U1-MIDC1_L-Pad19)*%
X138799570Y-85750400D03*
%TO.P,U1,20,P3_2*%
%TO.N,Net-(J1-Pin_8)*%
X138799570Y-86751160D03*
D12*
%TO.P,U1,21,P2_6*%
%TO.N,unconnected-(U1-P2_6-Pad21)*%
X141546580Y-88394540D03*
%TO.P,U1,22,ADAP_IN*%
%TO.N,Net-(J1-Pin_10)*%
X142547340Y-88394540D03*
%TO.P,U1,23,BAT_IN*%
%TO.N,unconnected-(U1-BAT_IN-Pad23)*%
X143548100Y-88394540D03*
%TO.P,U1,24,SYS_PWR*%
%TO.N,Net-(D1-A)*%
X144548860Y-88394540D03*
%TO.P,U1,25,VDD_IO*%
%TO.N,unconnected-(U1-VDD_IO-Pad25)*%
X145549620Y-88394540D03*
%TO.P,U1,26,PWRMFB*%
%TO.N,Net-(J1-Pin_12)*%
X146550380Y-88394540D03*
%TO.P,U1,27,SKI1_AMB_DET*%
%TO.N,unconnected-(U1-SKI1_AMB_DET-Pad27)*%
X147551140Y-88394540D03*
%TO.P,U1,28,SK2_KEY_AD*%
%TO.N,unconnected-(U1-SK2_KEY_AD-Pad28)*%
X148551900Y-88394540D03*
%TO.P,U1,29,P8_6/UART_RXD*%
%TO.N,Net-(J2-Pin_10)*%
X149552660Y-88394540D03*
%TO.P,U1,30,P8_5/UART_TXD*%
%TO.N,Net-(J2-Pin_9)*%
X150553420Y-88394540D03*
D11*
%TO.P,U1,31,P3_4/UART_RTS*%
%TO.N,Net-(J2-Pin_7)*%
X153300430Y-86751160D03*
%TO.P,U1,32,LED1*%
%TO.N,Net-(D1-K)*%
X153300430Y-85750400D03*
%TO.P,U1,33,P0_2*%
%TO.N,unconnected-(U1-P0_2-Pad33)*%
X153300430Y-84749640D03*
%TO.P,U1,34,LED2*%
%TO.N,Net-(D2-K)*%
X153300430Y-83748880D03*
%TO.P,U1,35,P0_6*%
%TO.N,unconnected-(U1-P0_6-Pad35)*%
X153300430Y-82748120D03*
%TO.P,U1,36,DM*%
%TO.N,unconnected-(U1-DM-Pad36)*%
X153300430Y-81747360D03*
%TO.P,U1,37,DP*%
%TO.N,unconnected-(U1-DP-Pad37)*%
X153300430Y-80746600D03*
%TO.P,U1,38,P0_3*%
%TO.N,unconnected-(U1-P0_3-Pad38)*%
X153300430Y-79745840D03*
%TO.P,U1,39,P2_7*%
%TO.N,Net-(J2-Pin_3)*%
X153300430Y-78745080D03*
%TO.P,U1,40,P0_5*%
%TO.N,Net-(J2-Pin_4)*%
X153300430Y-77744320D03*
%TO.P,U1,41,P1_6/PWRM1*%
%TO.N,unconnected-(U1-P1_6{slash}PWRM1-Pad41)*%
X153300430Y-76743560D03*
%TO.P,U1,42,P2_3*%
%TO.N,unconnected-(U1-P2_3-Pad42)*%
X153300430Y-75742800D03*
%TO.P,U1,43,RST_N*%
%TO.N,Net-(J2-Pin_2)*%
X153300430Y-74742040D03*
%TO.P,U1,44,P0_1*%
%TO.N,unconnected-(U1-P0_1-Pad44)*%
X153300430Y-73741280D03*
%TO.P,U1,45,P0_7*%
%TO.N,unconnected-(U1-P0_7-Pad45)*%
X153300430Y-72740520D03*
%TO.P,U1,46,P1_2/TDI_CPU/SCL*%
%TO.N,unconnected-(U1-P1_2{slash}TDI_CPU{slash}SCL-Pad46)*%
X153300430Y-71739760D03*
%TO.P,U1,47,P1_3/TCK_CPU/SDA*%
%TO.N,unconnected-(U1-P1_3{slash}TCK_CPU{slash}SDA-Pad47)*%
X153300430Y-70739000D03*
%TO.P,U1,48,P3_7/UART_CTS*%
%TO.N,unconnected-(U1-P3_7{slash}UART_CTS-Pad48)*%
X153300430Y-69738240D03*
%TO.P,U1,49,P0_0/UART_TX_IN*%
%TO.N,unconnected-(U1-P0_0{slash}UART_TX_IN-Pad49)*%
X153300430Y-68737480D03*
%TO.P,U1,50,GND*%
%TO.N,GND*%
X153300430Y-67736720D03*
D13*
%TO.P,U1,56,GND*%
X150820001Y-78173580D03*
D14*
%TO.P,U1,57,GND*%
X142760700Y-68064380D03*
%TD*%
D10*
%TO.P,Aud2,1,1*%
%TO.N,Net-(J1-Pin_2)*%
X139800000Y-100600000D03*
%TD*%
D15*
%TO.P,D2,1,K*%
%TO.N,Net-(D2-K)*%
X147860000Y-98900000D03*
D16*
%TO.P,D2,2,A*%
%TO.N,Net-(D1-A)*%
X150400000Y-98900000D03*
%TD*%
D15*
%TO.P,D1,1,K*%
%TO.N,Net-(D1-K)*%
X153600000Y-98900000D03*
D16*
%TO.P,D1,2,A*%
%TO.N,Net-(D1-A)*%
X156140000Y-98900000D03*
%TD*%
D17*
%TO.P,J2,1,Pin_1*%
%TO.N,GND*%
X160020000Y-69342000D03*
D18*
%TO.P,J2,2,Pin_2*%
%TO.N,Net-(J2-Pin_2)*%
X160020000Y-71882000D03*
%TO.P,J2,3,Pin_3*%
%TO.N,Net-(J2-Pin_3)*%
X160020000Y-74422000D03*
%TO.P,J2,4,Pin_4*%
%TO.N,Net-(J2-Pin_4)*%
X160020000Y-76962000D03*
%TO.P,J2,5,Pin_5*%
%TO.N,unconnected-(J2-Pin_5-Pad5)*%
X160020000Y-79502000D03*
%TO.P,J2,6,Pin_6*%
%TO.N,unconnected-(J2-Pin_6-Pad6)*%
X160020000Y-82042000D03*
%TO.P,J2,7,Pin_7*%
%TO.N,Net-(J2-Pin_7)*%
X160020000Y-84582000D03*
%TO.P,J2,8,Pin_8*%
%TO.N,unconnected-(J2-Pin_8-Pad8)*%
X160020000Y-87122000D03*
%TO.P,J2,9,Pin_9*%
%TO.N,Net-(J2-Pin_9)*%
X160020000Y-89662000D03*
%TO.P,J2,10,Pin_10*%
%TO.N,Net-(J2-Pin_10)*%
X160020000Y-92202000D03*
%TO.P,J2,11,Pin_11*%
%TO.N,unconnected-(J2-Pin_11-Pad11)*%
X160020000Y-94742000D03*
%TO.P,J2,12,Pin_12*%
%TO.N,unconnected-(J2-Pin_12-Pad12)*%
X160020000Y-97282000D03*
%TD*%
D17*
%TO.P,J1,1,Pin_1*%
%TO.N,Net-(J1-Pin_1)*%
X132080000Y-69342000D03*
D18*
%TO.P,J1,2,Pin_2*%
%TO.N,Net-(J1-Pin_2)*%
X132080000Y-71882000D03*
%TO.P,J1,3,Pin_3*%
%TO.N,unconnected-(J1-Pin_3-Pad3)*%
X132080000Y-74422000D03*
%TO.P,J1,4,Pin_4*%
%TO.N,unconnected-(J1-Pin_4-Pad4)*%
X132080000Y-76962000D03*
%TO.P,J1,5,Pin_5*%
%TO.N,Net-(J1-Pin_5)*%
X132080000Y-79502000D03*
%TO.P,J1,6,Pin_6*%
%TO.N,Net-(J1-Pin_6)*%
X132080000Y-82042000D03*
%TO.P,J1,7,Pin_7*%
%TO.N,GND*%
X132080000Y-84582000D03*
%TO.P,J1,8,Pin_8*%
%TO.N,Net-(J1-Pin_8)*%
X132080000Y-87122000D03*
%TO.P,J1,9,Pin_9*%
%TO.N,unconnected-(J1-Pin_9-Pad9)*%
X132080000Y-89662000D03*
%TO.P,J1,10,Pin_10*%
%TO.N,Net-(J1-Pin_10)*%
X132080000Y-92202000D03*
%TO.P,J1,11,Pin_11*%
%TO.N,Net-(D1-A)*%
X132080000Y-94742000D03*
%TO.P,J1,12,Pin_12*%
%TO.N,Net-(J1-Pin_12)*%
X132080000Y-97282000D03*
%TD*%
D19*
%TO.P,C1,1*%
%TO.N,Net-(J1-Pin_10)*%
X135636000Y-80986000D03*
%TO.P,C1,2*%
%TO.N,GND*%
X135636000Y-75986000D03*
%TD*%
D20*
%TO.N,GND*%
X139700000Y-95800000D03*
X142100000Y-76700000D03*
X135700000Y-84500000D03*
X156900000Y-91100000D03*
X147700000Y-89900000D03*
X148100000Y-68600000D03*
X142800000Y-70000000D03*
X149860000Y-85090000D03*
X141986000Y-72898000D03*
X155700000Y-75200000D03*
X142100000Y-101000000D03*
X157200000Y-84400000D03*
X157226000Y-75184000D03*
X155300000Y-71300000D03*
X142500000Y-84700000D03*
X143000000Y-81100000D03*
X156400000Y-68400000D03*
X139500000Y-93400000D03*
X139100000Y-90300000D03*
X135200000Y-96000000D03*
X155700000Y-81900000D03*
X135636000Y-68834000D03*
X144900000Y-98400000D03*
X135300000Y-93600000D03*
X134112000Y-70866000D03*
X135100000Y-88900000D03*
X142700000Y-91500000D03*
X148600000Y-74200000D03*
X159800000Y-101100000D03*
X134874000Y-73406000D03*
X142800000Y-94800000D03*
X156900000Y-79800000D03*
X146300000Y-85000000D03*
X148200000Y-78200000D03*
X152900000Y-95200000D03*
X151892000Y-90170000D03*
X147400000Y-81700000D03*
%TO.N,Net-(J1-Pin_10)*%
X136900000Y-92202000D03*
%TO.N,Net-(D1-A)*%
X144450000Y-91350000D03*
%TO.N,Net-(D1-K)*%
X156223973Y-86676027D03*
%TO.N,Net-(D2-K)*%
X148050000Y-90950000D03*
X155300000Y-84300000D03*
%TO.N,Net-(J2-Pin_9)*%
X156638000Y-89662000D03*
%TO.N,Net-(J2-Pin_4)*%
X155700000Y-77000000D03*
%TD*%
D21*
%TO.N,GND*%
X148200000Y-78200000D02*
X148226420Y-78173580D01*
X148226420Y-78173580D02*
X150820001Y-78173580D01*
X142760700Y-69960700D02*
X142760700Y-68064380D01*
X142800000Y-70000000D02*
X142760700Y-69960700D01*
X150746421Y-78100000D02*
X150600000Y-78100000D01*
%TO.N,Net-(J1-Pin_1)*%
X137256520Y-72740520D02*
X138799570Y-72740520D01*
X132080000Y-69342000D02*
X133858000Y-69342000D01*
X133858000Y-69342000D02*
X137256520Y-72740520D01*
%TO.N,Net-(J1-Pin_2)*%
X130877600Y-73084400D02*
X132080000Y-71882000D01*
X135128000Y-71882000D02*
X136987280Y-73741280D01*
X130877600Y-97785200D02*
X130877600Y-73084400D01*
X139800000Y-100600000D02*
X137892400Y-98692400D01*
X137892400Y-98692400D02*
X131784800Y-98692400D01*
X136987280Y-73741280D02*
X138799570Y-73741280D01*
X132080000Y-71882000D02*
X135128000Y-71882000D01*
X131784800Y-98692400D02*
X130877600Y-97785200D01*
%TO.N,GND*%
X135618000Y-84582000D02*
X135700000Y-84500000D01*
X132080000Y-84582000D02*
X135618000Y-84582000D01*
%TO.N,Net-(J1-Pin_10)*%
X140462000Y-92202000D02*
X142547340Y-90116660D01*
X142547340Y-90116660D02*
X142547340Y-88394540D01*
X132080000Y-92202000D02*
X140462000Y-92202000D01*
%TO.N,Net-(D1-A)*%
X132080000Y-94742000D02*
X141058000Y-94742000D01*
X151600000Y-101200000D02*
X155500000Y-101200000D01*
X150900000Y-100500000D02*
X151600000Y-101200000D01*
X144450000Y-91350000D02*
X144548860Y-91251140D01*
X141058000Y-94742000D02*
X144548860Y-91251140D01*
X156140000Y-100560000D02*
X156140000Y-98900000D01*
X150400000Y-98900000D02*
X150900000Y-99400000D01*
X150900000Y-99400000D02*
X150900000Y-100500000D01*
X144548860Y-91251140D02*
X144548860Y-88394540D01*
X155500000Y-101200000D02*
X156140000Y-100560000D01*
%TO.N,Net-(D1-K)*%
X156223972Y-86676027D02*
X155298345Y-85750400D01*
X156223973Y-86676027D02*
X156223972Y-86676027D01*
X155298345Y-85750400D02*
X153300430Y-85750400D01*
%TO.N,Net-(D2-K)*%
X148050000Y-90950000D02*
X147860000Y-91140000D01*
X155300000Y-84300000D02*
X154748880Y-83748880D01*
X147860000Y-91140000D02*
X147860000Y-98900000D01*
X154748880Y-83748880D02*
X153300430Y-83748880D01*
%TO.N,Net-(J1-Pin_8)*%
X132502000Y-86700000D02*
X138748410Y-86700000D01*
X138748410Y-86700000D02*
X138799570Y-86751160D01*
X132080000Y-87122000D02*
X132502000Y-86700000D01*
%TO.N,Net-(J1-Pin_6)*%
X135382000Y-78740000D02*
X135387080Y-78745080D01*
X132080000Y-82042000D02*
X135382000Y-78740000D01*
X135387080Y-78745080D02*
X138799570Y-78745080D01*
%TO.N,Net-(J1-Pin_12)*%
X132080000Y-97282000D02*
X142118000Y-97282000D01*
X146550380Y-92849620D02*
X146550380Y-88394540D01*
X142118000Y-97282000D02*
X146550380Y-92849620D01*
%TO.N,Net-(J1-Pin_5)*%
X133837680Y-77744320D02*
X138799570Y-77744320D01*
X132080000Y-79502000D02*
X133837680Y-77744320D01*
%TO.N,Net-(J2-Pin_9)*%
X160020000Y-89662000D02*
X153416000Y-89662000D01*
X152143460Y-88394540D02*
X150553420Y-88394540D01*
X152146000Y-88392000D02*
X152143460Y-88394540D01*
X153416000Y-89662000D02*
X152146000Y-88392000D01*
X156638000Y-89662000D02*
X160020000Y-89662000D01*
%TO.N,Net-(J2-Pin_7)*%
X156702000Y-87900000D02*
X155500000Y-87900000D01*
X160020000Y-84582000D02*
X156702000Y-87900000D01*
X154351160Y-86751160D02*
X153300430Y-86751160D01*
X155500000Y-87900000D02*
X154351160Y-86751160D01*
%TO.N,Net-(J2-Pin_2)*%
X157418000Y-71882000D02*
X160020000Y-71882000D01*
X153300430Y-74742040D02*
X154557960Y-74742040D01*
X154557960Y-74742040D02*
X157418000Y-71882000D01*
%TO.N,Net-(J2-Pin_3)*%
X160020000Y-74580000D02*
X155854920Y-78745080D01*
X160020000Y-74422000D02*
X160020000Y-74580000D01*
X155854920Y-78745080D02*
X153300430Y-78745080D01*
%TO.N,Net-(J2-Pin_4)*%
X154955680Y-77744320D02*
X153300430Y-77744320D01*
X155700000Y-77000000D02*
X154955680Y-77744320D01*
%TO.N,Net-(J2-Pin_10)*%
X155200000Y-95200000D02*
X157022000Y-95200000D01*
X157022000Y-95200000D02*
X160020000Y-92202000D01*
X150622000Y-92202000D02*
X149552660Y-91132660D01*
X160020000Y-92202000D02*
X150622000Y-92202000D01*
X149552660Y-91132660D02*
X149552660Y-88394540D01*
%TD*%
%TA.AperFunction,Conductor*%
%TO.N,GND*%
G36*
X161810170Y-66042421D02*
G01*
X161836458Y-66047649D01*
X161870621Y-66054445D01*
X161916037Y-66073257D01*
X161956768Y-66100472D01*
X161991527Y-66135231D01*
X162018741Y-66175959D01*
X162037554Y-66221378D01*
X162049579Y-66281829D01*
X162052000Y-66306411D01*
X162052000Y-102857588D01*
X162049579Y-102882170D01*
X162037554Y-102942621D01*
X162018741Y-102988040D01*
X161991530Y-103028765D01*
X161956765Y-103063530D01*
X161916040Y-103090741D01*
X161870622Y-103109554D01*
X161832376Y-103117162D01*
X161810169Y-103121579D01*
X161785589Y-103124000D01*
X130314411Y-103124000D01*
X130289829Y-103121579D01*
X130229378Y-103109554D01*
X130183959Y-103090741D01*
X130143231Y-103063527D01*
X130108472Y-103028768D01*
X130081257Y-102988037D01*
X130062445Y-102942619D01*
X130050421Y-102882168D01*
X130048000Y-102857588D01*
X130048000Y-98142828D01*
X130068002Y-98074707D01*
X130121658Y-98028214D01*
X130191932Y-98018110D01*
X130256512Y-98047604D01*
X130290410Y-98094613D01*
X130291917Y-98098253D01*
X130291918Y-98098254D01*
X130364245Y-98206499D01*
X131363501Y-99205755D01*
X131471746Y-99278082D01*
X131592023Y-99327903D01*
X131719707Y-99353301D01*
X131719708Y-99353301D01*
X131856107Y-99353301D01*
X131856127Y-99353300D01*
X135304146Y-99353300D01*
X135372267Y-99373302D01*
X135418760Y-99426958D01*
X135428864Y-99497232D01*
X135399370Y-99561812D01*
X135339644Y-99600196D01*
X135316496Y-99604693D01*
X135302305Y-99606090D01*
X135112195Y-99663759D01*
X134936995Y-99757405D01*
X134783432Y-99883432D01*
X134657405Y-100036995D01*
X134563759Y-100212195D01*
X134506090Y-100402305D01*
X134486620Y-100599996D01*
X134486620Y-100600003D01*
X134506090Y-100797694D01*
X134506091Y-100797700D01*
X134506092Y-100797701D01*
X134563759Y-100987804D01*
X134657405Y-101163004D01*
X134783432Y-101316568D01*
X134936996Y-101442595D01*
X135112196Y-101536241D01*
X135302299Y-101593908D01*
X135302303Y-101593908D01*
X135302305Y-101593909D01*
X135499997Y-101613380D01*
X135500000Y-101613380D01*
X135500003Y-101613380D01*
X135697694Y-101593909D01*
X135697695Y-101593908D01*
X135697701Y-101593908D01*
X135887804Y-101536241D01*
X136063004Y-101442595D01*
X136216568Y-101316568D01*
X136342595Y-101163004D01*
X136436241Y-100987804D01*
X136493908Y-100797701D01*
X136513380Y-100600000D01*
X136513380Y-100599996D01*
X136493909Y-100402305D01*
X136493908Y-100402303D01*
X136493908Y-100402299D01*
X136436241Y-100212196D01*
X136342595Y-100036996D01*
X136216568Y-99883432D01*
X136063004Y-99757405D01*
X135887804Y-99663759D01*
X135697701Y-99606092D01*
X135697700Y-99606091D01*
X135697694Y-99606090D01*
X135683504Y-99604693D01*
X135617672Y-99578110D01*
X135576662Y-99520156D01*
X135573495Y-99449230D01*
X135609176Y-99387851D01*
X135672377Y-99355507D01*
X135695854Y-99353300D01*
X137566456Y-99353300D01*
X137634577Y-99373302D01*
X137655551Y-99390205D01*
X138751539Y-100486193D01*
X138785565Y-100548505D01*
X138787837Y-100587633D01*
X138786621Y-100599996D01*
X138786620Y-100600004D01*
X138806090Y-100797694D01*
X138806091Y-100797700D01*
X138806092Y-100797701D01*
X138863759Y-100987804D01*
X138957405Y-101163004D01*
X139083432Y-101316568D01*
X139236996Y-101442595D01*
X139412196Y-101536241D01*
X139602299Y-101593908D01*
X139602303Y-101593908D01*
X139602305Y-101593909D01*
X139799997Y-101613380D01*
X139800000Y-101613380D01*
X139800003Y-101613380D01*
X139997694Y-101593909D01*
X139997695Y-101593908D01*
X139997701Y-101593908D01*
X140187804Y-101536241D01*
X140363004Y-101442595D01*
X140516568Y-101316568D01*
X140642595Y-101163004D01*
X140736241Y-100987804D01*
X140793908Y-100797701D01*
X140813380Y-100600000D01*
X140813380Y-100599996D01*
X140793909Y-100402305D01*
X140793908Y-100402303D01*
X140793908Y-100402299D01*
X140736241Y-100212196D01*
X140642595Y-100036996D01*
X140516568Y-99883432D01*
X140363004Y-99757405D01*
X140187804Y-99663759D01*
X139997701Y-99606092D01*
X139997700Y-99606091D01*
X139997694Y-99606090D01*
X139800004Y-99586620D01*
X139800001Y-99586620D01*
X139800000Y-99586620D01*
X139787634Y-99587837D01*
X139717883Y-99574607D01*
X139686193Y-99551539D01*
X138313701Y-98179047D01*
X138313693Y-98179040D01*
X138305649Y-98173666D01*
X138260120Y-98119190D01*
X138251271Y-98048747D01*
X138281911Y-97984702D01*
X138342312Y-97947390D01*
X138375649Y-97942900D01*
X142183092Y-97942900D01*
X142183093Y-97942900D01*
X142310777Y-97917502D01*
X142431054Y-97867682D01*
X142539299Y-97795355D01*
X146984005Y-93350649D01*
X147046317Y-93316623D01*
X147117132Y-93321688D01*
X147173968Y-93364235D01*
X147198779Y-93430755D01*
X147199100Y-93439744D01*
X147199100Y-97365500D01*
X147179098Y-97433621D01*
X147125442Y-97480114D01*
X147073100Y-97491500D01*
X146911350Y-97491500D01*
X146850803Y-97498009D01*
X146850795Y-97498011D01*
X146713797Y-97549110D01*
X146713792Y-97549112D01*
X146596738Y-97636738D01*
X146509112Y-97753792D01*
X146509110Y-97753797D01*
X146458011Y-97890795D01*
X146458009Y-97890803D01*
X146451500Y-97951350D01*
X146451500Y-99848649D01*
X146458009Y-99909196D01*
X146458011Y-99909204D01*
X146509110Y-100046202D01*
X146509112Y-100046207D01*
X146596738Y-100163261D01*
X146713792Y-100250887D01*
X146713794Y-100250888D01*
X146713796Y-100250889D01*
X146765243Y-100270078D01*
X146850795Y-100301988D01*
X146850803Y-100301990D01*
X146911350Y-100308499D01*
X146911355Y-100308499D01*
X146911362Y-100308500D01*
X146911368Y-100308500D01*
X148808632Y-100308500D01*
X148808638Y-100308500D01*
X148808645Y-100308499D01*
X148808649Y-100308499D01*
X148869196Y-100301990D01*
X148869199Y-100301989D01*
X148869201Y-100301989D01*
X149006204Y-100250889D01*
X149048878Y-100218944D01*
X149123261Y-100163261D01*
X149210886Y-100046208D01*
X149210885Y-100046208D01*
X149210889Y-100046204D01*
X149234258Y-99983547D01*
X149276804Y-99926715D01*
X149343325Y-99901904D01*
X149412699Y-99916996D01*
X149438294Y-99936996D01*
X149438946Y-99936289D01*
X149442778Y-99939817D01*
X149498966Y-99983550D01*
X149626983Y-100083190D01*
X149832273Y-100194287D01*
X150053049Y-100270080D01*
X150133839Y-100283561D01*
X150197738Y-100314503D01*
X150234766Y-100375079D01*
X150239100Y-100407843D01*
X150239100Y-100565095D01*
X150246043Y-100600000D01*
X150264498Y-100692777D01*
X150314318Y-100813054D01*
X150386645Y-100921299D01*
X151086645Y-101621299D01*
X151178701Y-101713355D01*
X151286946Y-101785682D01*
X151407223Y-101835502D01*
X151534906Y-101860900D01*
X155565092Y-101860900D01*
X155565093Y-101860900D01*
X155692777Y-101835502D01*
X155813054Y-101785682D01*
X155921299Y-101713355D01*
X156653355Y-100981299D01*
X156725682Y-100873054D01*
X156775503Y-100752777D01*
X156800900Y-100625093D01*
X156800900Y-100494906D01*
X156800900Y-100218944D01*
X156820902Y-100150823D01*
X156866932Y-100108130D01*
X156889897Y-100095701D01*
X156913017Y-100083190D01*
X157097220Y-99939818D01*
X157109283Y-99926715D01*
X157255314Y-99768083D01*
X157300900Y-99698308D01*
X157382984Y-99572669D01*
X157476749Y-99358907D01*
X157534051Y-99132626D01*
X157553327Y-98900000D01*
X157534051Y-98667374D01*
X157476749Y-98441093D01*
X157382984Y-98227331D01*
X157327776Y-98142828D01*
X157255314Y-98031916D01*
X157097225Y-97860186D01*
X157097221Y-97860182D01*
X157005118Y-97788496D01*
X156913017Y-97716810D01*
X156707727Y-97605713D01*
X156707724Y-97605712D01*
X156707723Y-97605711D01*
X156486955Y-97529921D01*
X156486948Y-97529919D01*
X156388411Y-97513476D01*
X156256712Y-97491500D01*
X156023288Y-97491500D01*
X155908066Y-97510727D01*
X155793051Y-97529919D01*
X155793044Y-97529921D01*
X155572276Y-97605711D01*
X155572273Y-97605713D01*
X155366985Y-97716809D01*
X155366983Y-97716810D01*
X155182778Y-97860182D01*
X155178946Y-97863711D01*
X155177581Y-97862228D01*
X155124129Y-97894333D01*
X155053165Y-97892180D01*
X154994630Y-97852003D01*
X154974258Y-97816449D01*
X154950889Y-97753797D01*
X154950887Y-97753792D01*
X154863261Y-97636738D01*
X154746207Y-97549112D01*
X154746202Y-97549110D01*
X154609204Y-97498011D01*
X154609196Y-97498009D01*
X154548649Y-97491500D01*
X154548638Y-97491500D01*
X152651362Y-97491500D01*
X152651350Y-97491500D01*
X152590803Y-97498009D01*
X152590795Y-97498011D01*
X152453797Y-97549110D01*
X152453792Y-97549112D01*
X152336738Y-97636738D01*
X152249112Y-97753792D01*
X152249110Y-97753797D01*
X152198011Y-97890795D01*
X152198009Y-97890803D01*
X152191500Y-97951350D01*
X152191500Y-99848649D01*
X152198009Y-99909196D01*
X152198011Y-99909204D01*
X152249110Y-100046202D01*
X152249112Y-100046207D01*
X152336738Y-100163261D01*
X152453792Y-100250887D01*
X152453794Y-100250888D01*
X152453796Y-100250889D01*
X152499223Y-100267832D01*
X152572180Y-100295045D01*
X152629016Y-100337592D01*
X152653826Y-100404112D01*
X152638734Y-100473486D01*
X152588532Y-100523688D01*
X152528147Y-100539100D01*
X151925944Y-100539100D01*
X151857823Y-100519098D01*
X151836849Y-100502195D01*
X151597805Y-100263151D01*
X151563779Y-100200839D01*
X151560900Y-100174056D01*
X151560900Y-99735819D01*
X151580902Y-99667698D01*
X151581312Y-99667065D01*
X151642984Y-99572669D01*
X151736749Y-99358907D01*
X151794051Y-99132626D01*
X151813327Y-98900000D01*
X151794051Y-98667374D01*
X151736749Y-98441093D01*
X151642984Y-98227331D01*
X151587776Y-98142828D01*
X151515314Y-98031916D01*
X151357225Y-97860186D01*
X151357221Y-97860182D01*
X151265118Y-97788496D01*
X151173017Y-97716810D01*
X150967727Y-97605713D01*
X150967724Y-97605712D01*
X150967723Y-97605711D01*
X150746955Y-97529921D01*
X150746948Y-97529919D01*
X150648411Y-97513476D01*
X150516712Y-97491500D01*
X150283288Y-97491500D01*
X150168066Y-97510727D01*
X150053051Y-97529919D01*
X150053044Y-97529921D01*
X149832276Y-97605711D01*
X149832273Y-97605713D01*
X149626985Y-97716809D01*
X149626983Y-97716810D01*
X149442778Y-97860182D01*
X149438946Y-97863711D01*
X149437581Y-97862228D01*
X149384129Y-97894333D01*
X149313165Y-97892180D01*
X149254630Y-97852003D01*
X149234258Y-97816449D01*
X149210889Y-97753797D01*
X149210887Y-97753792D01*
X149123261Y-97636738D01*
X149006207Y-97549112D01*
X149006202Y-97549110D01*
X148869204Y-97498011D01*
X148869196Y-97498009D01*
X148808649Y-97491500D01*
X148808638Y-97491500D01*
X148646900Y-97491500D01*
X148578779Y-97471498D01*
X148532286Y-97417842D01*
X148520900Y-97365500D01*
X148520900Y-95199996D01*
X149186620Y-95199996D01*
X149186620Y-95200003D01*
X149206090Y-95397694D01*
X149206091Y-95397700D01*
X149206092Y-95397701D01*
X149263759Y-95587804D01*
X149357405Y-95763004D01*
X149483432Y-95916568D01*
X149636996Y-96042595D01*
X149812196Y-96136241D01*
X150002299Y-96193908D01*
X150002303Y-96193908D01*
X150002305Y-96193909D01*
X150199997Y-96213380D01*
X150200000Y-96213380D01*
X150200003Y-96213380D01*
X150397694Y-96193909D01*
X150397695Y-96193908D01*
X150397701Y-96193908D01*
X150587804Y-96136241D01*
X150763004Y-96042595D01*
X150916568Y-95916568D01*
X151042595Y-95763004D01*
X151136241Y-95587804D01*
X151193908Y-95397701D01*
X151194589Y-95390793D01*
X151213380Y-95200003D01*
X151213380Y-95199996D01*
X151193909Y-95002305D01*
X151193908Y-95002303D01*
X151193908Y-95002299D01*
X151136241Y-94812196D01*
X151042595Y-94636996D01*
X150916568Y-94483432D01*
X150763004Y-94357405D01*
X150587804Y-94263759D01*
X150397701Y-94206092D01*
X150397700Y-94206091D01*
X150397694Y-94206090D01*
X150200003Y-94186620D01*
X150199997Y-94186620D01*
X150002305Y-94206090D01*
X149812195Y-94263759D01*
X149636995Y-94357405D01*
X149483432Y-94483432D01*
X149357405Y-94636995D01*
X149263759Y-94812195D01*
X149206090Y-95002305D01*
X149186620Y-95199996D01*
X148520900Y-95199996D01*
X148520900Y-91795038D01*
X148540902Y-91726917D01*
X148572838Y-91693102D01*
X148661253Y-91628866D01*
X148789040Y-91486944D01*
X148789046Y-91486933D01*
X148789811Y-91485882D01*
X148790419Y-91485412D01*
X148793459Y-91482037D01*
X148794075Y-91482592D01*
X148846028Y-91442521D01*
X148916763Y-91436436D01*
X148979559Y-91469560D01*
X148996521Y-91489928D01*
X149023365Y-91530104D01*
X149039305Y-91553959D01*
X150104244Y-92618897D01*
X150104255Y-92618909D01*
X150108644Y-92623298D01*
X150108645Y-92623299D01*
X150200701Y-92715355D01*
X150304224Y-92784527D01*
X150308946Y-92787682D01*
X150429223Y-92837502D01*
X150556906Y-92862900D01*
X150556907Y-92862900D01*
X158120257Y-92862900D01*
X158188378Y-92882902D01*
X158234871Y-92936558D01*
X158244975Y-93006832D01*
X158215481Y-93071412D01*
X158209353Y-93077993D01*
X157382617Y-93904729D01*
X156785151Y-94502195D01*
X156722839Y-94536221D01*
X156696056Y-94539100D01*
X156021847Y-94539100D01*
X155953726Y-94519098D01*
X155924447Y-94493033D01*
X155916569Y-94483433D01*
X155763004Y-94357405D01*
X155587804Y-94263759D01*
X155397694Y-94206090D01*
X155200003Y-94186620D01*
X155199997Y-94186620D01*
X155002305Y-94206090D01*
X154812195Y-94263759D01*
X154636995Y-94357405D01*
X154483432Y-94483432D01*
X154357405Y-94636995D01*
X154263759Y-94812195D01*
X154206090Y-95002305D01*
X154186620Y-95199996D01*
X154186620Y-95200003D01*
X154206090Y-95397694D01*
X154206091Y-95397700D01*
X154206092Y-95397701D01*
X154263759Y-95587804D01*
X154357405Y-95763004D01*
X154483432Y-95916568D01*
X154636996Y-96042595D01*
X154812196Y-96136241D01*
X155002299Y-96193908D01*
X155002303Y-96193908D01*
X155002305Y-96193909D01*
X155199997Y-96213380D01*
X155200000Y-96213380D01*
X155200003Y-96213380D01*
X155397694Y-96193909D01*
X155397695Y-96193908D01*
X155397701Y-96193908D01*
X155587804Y-96136241D01*
X155763004Y-96042595D01*
X155916568Y-95916568D01*
X155924447Y-95906966D01*
X155983124Y-95866998D01*
X156021847Y-95860900D01*
X157087092Y-95860900D01*
X157087093Y-95860900D01*
X157214777Y-95835502D01*
X157335054Y-95785682D01*
X157443299Y-95713355D01*
X158446097Y-94710555D01*
X158508406Y-94676533D01*
X158579221Y-94681597D01*
X158636057Y-94724144D01*
X158660759Y-94789247D01*
X158675437Y-94966375D01*
X158730702Y-95184612D01*
X158730703Y-95184613D01*
X158730704Y-95184616D01*
X158761733Y-95255355D01*
X158821141Y-95390793D01*
X158944275Y-95579265D01*
X158944279Y-95579270D01*
X159096762Y-95744908D01*
X159120012Y-95763004D01*
X159274424Y-95883189D01*
X159307680Y-95901186D01*
X159358071Y-95951200D01*
X159373423Y-96020516D01*
X159348862Y-96087129D01*
X159307680Y-96122813D01*
X159274426Y-96140810D01*
X159274424Y-96140811D01*
X159096762Y-96279091D01*
X158944279Y-96444729D01*
X158944275Y-96444734D01*
X158821141Y-96633206D01*
X158730703Y-96839386D01*
X158730702Y-96839387D01*
X158675437Y-97057624D01*
X158675436Y-97057630D01*
X158675436Y-97057632D01*
X158656844Y-97282000D01*
X158674743Y-97498009D01*
X158675437Y-97506375D01*
X158730702Y-97724612D01*
X158730703Y-97724613D01*
X158730704Y-97724616D01*
X158785831Y-97850293D01*
X158821141Y-97930793D01*
X158944275Y-98119265D01*
X158944279Y-98119270D01*
X159096762Y-98284908D01*
X159151331Y-98327381D01*
X159274424Y-98423189D01*
X159472426Y-98530342D01*
X159472427Y-98530342D01*
X159472428Y-98530343D01*
X159584227Y-98568723D01*
X159685365Y-98603444D01*
X159907431Y-98640500D01*
X159907435Y-98640500D01*
X160132565Y-98640500D01*
X160132569Y-98640500D01*
X160354635Y-98603444D01*
X160567574Y-98530342D01*
X160765576Y-98423189D01*
X160943240Y-98284906D01*
X161095722Y-98119268D01*
X161218860Y-97930791D01*
X161309296Y-97724616D01*
X161364564Y-97506368D01*
X161383156Y-97282000D01*
X161364564Y-97057632D01*
X161309296Y-96839384D01*
X161218860Y-96633209D01*
X161186838Y-96584195D01*
X161095724Y-96444734D01*
X161095720Y-96444729D01*
X160943237Y-96279091D01*
X160858812Y-96213380D01*
X160765576Y-96140811D01*
X160757131Y-96136241D01*
X160732320Y-96122814D01*
X160681929Y-96072802D01*
X160666576Y-96003485D01*
X160691136Y-95936872D01*
X160732320Y-95901186D01*
X160765576Y-95883189D01*
X160943240Y-95744906D01*
X161095722Y-95579268D01*
X161218860Y-95390791D01*
X161309296Y-95184616D01*
X161364564Y-94966368D01*
X161383156Y-94742000D01*
X161364564Y-94517632D01*
X161309296Y-94299384D01*
X161218860Y-94093209D01*
X161186838Y-94044195D01*
X161095724Y-93904734D01*
X161095720Y-93904729D01*
X160943237Y-93739091D01*
X160861382Y-93675381D01*
X160765576Y-93600811D01*
X160732319Y-93582813D01*
X160681929Y-93532802D01*
X160666576Y-93463485D01*
X160691136Y-93396872D01*
X160732320Y-93361186D01*
X160765576Y-93343189D01*
X160943240Y-93204906D01*
X161095722Y-93039268D01*
X161218860Y-92850791D01*
X161309296Y-92644616D01*
X161364564Y-92426368D01*
X161383156Y-92202000D01*
X161364564Y-91977632D01*
X161364562Y-91977624D01*
X161309297Y-91759387D01*
X161309296Y-91759386D01*
X161309296Y-91759384D01*
X161218860Y-91553209D01*
X161174566Y-91485412D01*
X161095724Y-91364734D01*
X161095720Y-91364729D01*
X160943237Y-91199091D01*
X160861382Y-91135381D01*
X160765576Y-91060811D01*
X160732319Y-91042813D01*
X160681929Y-90992802D01*
X160666576Y-90923485D01*
X160691136Y-90856872D01*
X160732320Y-90821186D01*
X160765576Y-90803189D01*
X160943240Y-90664906D01*
X161095722Y-90499268D01*
X161218860Y-90310791D01*
X161309296Y-90104616D01*
X161364564Y-89886368D01*
X161383156Y-89662000D01*
X161364564Y-89437632D01*
X161309296Y-89219384D01*
X161218860Y-89013209D01*
X161186838Y-88964195D01*
X161095724Y-88824734D01*
X161095720Y-88824729D01*
X160943237Y-88659091D01*
X160842780Y-88580902D01*
X160765576Y-88520811D01*
X160732319Y-88502813D01*
X160681929Y-88452802D01*
X160666576Y-88383485D01*
X160691136Y-88316872D01*
X160732320Y-88281186D01*
X160765576Y-88263189D01*
X160943240Y-88124906D01*
X161095722Y-87959268D01*
X161218860Y-87770791D01*
X161309296Y-87564616D01*
X161364564Y-87346368D01*
X161383156Y-87122000D01*
X161364564Y-86897632D01*
X161309296Y-86679384D01*
X161218860Y-86473209D01*
X161169534Y-86397710D01*
X161095724Y-86284734D01*
X161095720Y-86284729D01*
X160943237Y-86119091D01*
X160825836Y-86027714D01*
X160765576Y-85980811D01*
X160732319Y-85962813D01*
X160681929Y-85912802D01*
X160666576Y-85843485D01*
X160691136Y-85776872D01*
X160732320Y-85741186D01*
X160732847Y-85740901D01*
X160765576Y-85723189D01*
X160943240Y-85584906D01*
X161095722Y-85419268D01*
X161218860Y-85230791D01*
X161309296Y-85024616D01*
X161364564Y-84806368D01*
X161383156Y-84582000D01*
X161364564Y-84357632D01*
X161364562Y-84357624D01*
X161309297Y-84139387D01*
X161309296Y-84139386D01*
X161309296Y-84139384D01*
X161218860Y-83933209D01*
X161212140Y-83922924D01*
X161095724Y-83744734D01*
X161095720Y-83744729D01*
X160979570Y-83618559D01*
X160943240Y-83579094D01*
X160943239Y-83579093D01*
X160943237Y-83579091D01*
X160853033Y-83508882D01*
X160765576Y-83440811D01*
X160732319Y-83422813D01*
X160681929Y-83372802D01*
X160666576Y-83303485D01*
X160691136Y-83236872D01*
X160732320Y-83201186D01*
X160765576Y-83183189D01*
X160943240Y-83044906D01*
X161095722Y-82879268D01*
X161218860Y-82690791D01*
X161309296Y-82484616D01*
X161364564Y-82266368D01*
X161383156Y-82042000D01*
X161364564Y-81817632D01*
X161309296Y-81599384D01*
X161218860Y-81393209D01*
X161179756Y-81333356D01*
X161095724Y-81204734D01*
X161095720Y-81204729D01*
X160943237Y-81039091D01*
X160822962Y-80945477D01*
X160765576Y-80900811D01*
X160732319Y-80882813D01*
X160681929Y-80832802D01*
X160666576Y-80763485D01*
X160691136Y-80696872D01*
X160732320Y-80661186D01*
X160765576Y-80643189D01*
X160943240Y-80504906D01*
X161095722Y-80339268D01*
X161218860Y-80150791D01*
X161309296Y-79944616D01*
X161364564Y-79726368D01*
X161383156Y-79502000D01*
X161364564Y-79277632D01*
X161344648Y-79198985D01*
X161309297Y-79059387D01*
X161309296Y-79059386D01*
X161309296Y-79059384D01*
X161218860Y-78853209D01*
X161212140Y-78842924D01*
X161095724Y-78664734D01*
X161095720Y-78664729D01*
X160943237Y-78499091D01*
X160822632Y-78405220D01*
X160765576Y-78360811D01*
X160732319Y-78342813D01*
X160681929Y-78292802D01*
X160666576Y-78223485D01*
X160691136Y-78156872D01*
X160732320Y-78121186D01*
X160765576Y-78103189D01*
X160943240Y-77964906D01*
X161095722Y-77799268D01*
X161218860Y-77610791D01*
X161309296Y-77404616D01*
X161364564Y-77186368D01*
X161383156Y-76962000D01*
X161364564Y-76737632D01*
X161309296Y-76519384D01*
X161218860Y-76313209D01*
X161144341Y-76199149D01*
X161095724Y-76124734D01*
X161095720Y-76124729D01*
X160943237Y-75959091D01*
X160861382Y-75895381D01*
X160765576Y-75820811D01*
X160732319Y-75802813D01*
X160681929Y-75752802D01*
X160666576Y-75683485D01*
X160691136Y-75616872D01*
X160732320Y-75581186D01*
X160765576Y-75563189D01*
X160943240Y-75424906D01*
X161095722Y-75259268D01*
X161218860Y-75070791D01*
X161309296Y-74864616D01*
X161364564Y-74646368D01*
X161383156Y-74422000D01*
X161364564Y-74197632D01*
X161353838Y-74155276D01*
X161309297Y-73979387D01*
X161309296Y-73979386D01*
X161309296Y-73979384D01*
X161218860Y-73773209D01*
X161212140Y-73762924D01*
X161095724Y-73584734D01*
X161095720Y-73584729D01*
X160943237Y-73419091D01*
X160861382Y-73355381D01*
X160765576Y-73280811D01*
X160732319Y-73262813D01*
X160681929Y-73212802D01*
X160666576Y-73143485D01*
X160691136Y-73076872D01*
X160732320Y-73041186D01*
X160765576Y-73023189D01*
X160943240Y-72884906D01*
X161095722Y-72719268D01*
X161218860Y-72530791D01*
X161309296Y-72324616D01*
X161364564Y-72106368D01*
X161383156Y-71882000D01*
X161364564Y-71657632D01*
X161309296Y-71439384D01*
X161218860Y-71233209D01*
X161210739Y-71220779D01*
X161095724Y-71044734D01*
X161095714Y-71044722D01*
X160952159Y-70888782D01*
X160920737Y-70825117D01*
X160928723Y-70754571D01*
X160973582Y-70699542D01*
X161000827Y-70685388D01*
X161115965Y-70642444D01*
X161232904Y-70554904D01*
X161320444Y-70437965D01*
X161320444Y-70437964D01*
X161371494Y-70301093D01*
X161377999Y-70240597D01*
X161378000Y-70240585D01*
X161378000Y-69596000D01*
X160450703Y-69596000D01*
X160485925Y-69534993D01*
X160520000Y-69407826D01*
X160520000Y-69276174D01*
X160485925Y-69149007D01*
X160450703Y-69088000D01*
X161378000Y-69088000D01*
X161378000Y-68443414D01*
X161377999Y-68443402D01*
X161371494Y-68382906D01*
X161320444Y-68246035D01*
X161320444Y-68246034D01*
X161232904Y-68129095D01*
X161115965Y-68041555D01*
X160979093Y-67990505D01*
X160918597Y-67984000D01*
X160274000Y-67984000D01*
X160274000Y-68911297D01*
X160212993Y-68876075D01*
X160085826Y-68842000D01*
X159954174Y-68842000D01*
X159827007Y-68876075D01*
X159766000Y-68911297D01*
X159766000Y-67984000D01*
X159121402Y-67984000D01*
X159060906Y-67990505D01*
X158924035Y-68041555D01*
X158924034Y-68041555D01*
X158807095Y-68129095D01*
X158719555Y-68246034D01*
X158719555Y-68246035D01*
X158668505Y-68382906D01*
X158662000Y-68443402D01*
X158662000Y-69088000D01*
X159589297Y-69088000D01*
X159554075Y-69149007D01*
X159520000Y-69276174D01*
X159520000Y-69407826D01*
X159554075Y-69534993D01*
X159589297Y-69596000D01*
X158662000Y-69596000D01*
X158662000Y-70240597D01*
X158668505Y-70301093D01*
X158719555Y-70437964D01*
X158719555Y-70437965D01*
X158807095Y-70554904D01*
X158924034Y-70642444D01*
X159039172Y-70685388D01*
X159096008Y-70727935D01*
X159120819Y-70794455D01*
X159105728Y-70863829D01*
X159087841Y-70888782D01*
X158944280Y-71044729D01*
X158944275Y-71044735D01*
X158866346Y-71164015D01*
X158812342Y-71210104D01*
X158760863Y-71221100D01*
X157352902Y-71221100D01*
X157225222Y-71246498D01*
X157225219Y-71246499D01*
X157104945Y-71296318D01*
X156996705Y-71368642D01*
X156996698Y-71368647D01*
X154773325Y-73592021D01*
X154711013Y-73626047D01*
X154640198Y-73620982D01*
X154583362Y-73578435D01*
X154558551Y-73511915D01*
X154558230Y-73502926D01*
X154558230Y-73387847D01*
X154558229Y-73387830D01*
X154551720Y-73327283D01*
X154551719Y-73327282D01*
X154551719Y-73327279D01*
X154535923Y-73284932D01*
X154530858Y-73214120D01*
X154535923Y-73196869D01*
X154551719Y-73154521D01*
X154552906Y-73143485D01*
X154558229Y-73093969D01*
X154558230Y-73093952D01*
X154558230Y-72387087D01*
X154558229Y-72387070D01*
X154551720Y-72326523D01*
X154551719Y-72326522D01*
X154551719Y-72326519D01*
X154535923Y-72284172D01*
X154530858Y-72213360D01*
X154535923Y-72196109D01*
X154551719Y-72153761D01*
X154556814Y-72106375D01*
X154558229Y-72093209D01*
X154558230Y-72093192D01*
X154558230Y-71386327D01*
X154558229Y-71386310D01*
X154551720Y-71325763D01*
X154551719Y-71325762D01*
X154551719Y-71325759D01*
X154535923Y-71283412D01*
X154530858Y-71212600D01*
X154535923Y-71195349D01*
X154551719Y-71153001D01*
X154558230Y-71092438D01*
X154558230Y-70385562D01*
X154558229Y-70385550D01*
X154551720Y-70325003D01*
X154551719Y-70325002D01*
X154551719Y-70324999D01*
X154535923Y-70282652D01*
X154530858Y-70211840D01*
X154535923Y-70194589D01*
X154551719Y-70152241D01*
X154558230Y-70091678D01*
X154558230Y-69384802D01*
X154558229Y-69384790D01*
X154551720Y-69324243D01*
X154551719Y-69324242D01*
X154551719Y-69324239D01*
X154535923Y-69281892D01*
X154530858Y-69211080D01*
X154535923Y-69193829D01*
X154551719Y-69151481D01*
X154558230Y-69090918D01*
X154558230Y-68384042D01*
X154558097Y-68382803D01*
X154551720Y-68323484D01*
X154551718Y-68323477D01*
X154535657Y-68280414D01*
X154530593Y-68209599D01*
X154535658Y-68192349D01*
X154551223Y-68150618D01*
X154551224Y-68150613D01*
X154557729Y-68090117D01*
X154557730Y-68090105D01*
X154557730Y-67990720D01*
X154342606Y-67990720D01*
X154298573Y-67982775D01*
X154158934Y-67930691D01*
X154158926Y-67930689D01*
X154098379Y-67924180D01*
X154098368Y-67924180D01*
X152502492Y-67924180D01*
X152502480Y-67924180D01*
X152441933Y-67930689D01*
X152441925Y-67930691D01*
X152302287Y-67982775D01*
X152258254Y-67990720D01*
X152043130Y-67990720D01*
X152043130Y-68090117D01*
X152049635Y-68150615D01*
X152065202Y-68192353D01*
X152070266Y-68263169D01*
X152065203Y-68280414D01*
X152049140Y-68323481D01*
X152049139Y-68323484D01*
X152042630Y-68384030D01*
X152042630Y-69090929D01*
X152049139Y-69151476D01*
X152049141Y-69151483D01*
X152064935Y-69193829D01*
X152069999Y-69264645D01*
X152064935Y-69281891D01*
X152049141Y-69324236D01*
X152049139Y-69324243D01*
X152042630Y-69384790D01*
X152042630Y-70091689D01*
X152049139Y-70152236D01*
X152049141Y-70152243D01*
X152064935Y-70194589D01*
X152069999Y-70265405D01*
X152064935Y-70282651D01*
X152049141Y-70324996D01*
X152049139Y-70325003D01*
X152042630Y-70385550D01*
X152042630Y-71092449D01*
X152049139Y-71152996D01*
X152049141Y-71153003D01*
X152064935Y-71195349D01*
X152069999Y-71266165D01*
X152064935Y-71283411D01*
X152049141Y-71325756D01*
X152049139Y-71325763D01*
X152042630Y-71386310D01*
X152042630Y-72093209D01*
X152049139Y-72153756D01*
X152049141Y-72153763D01*
X152064935Y-72196109D01*
X152069999Y-72266925D01*
X152064935Y-72284171D01*
X152049141Y-72326516D01*
X152049139Y-72326523D01*
X152042630Y-72387070D01*
X152042630Y-73093969D01*
X152049139Y-73154516D01*
X152049141Y-73154523D01*
X152064935Y-73196869D01*
X152069999Y-73267685D01*
X152064935Y-73284931D01*
X152049141Y-73327276D01*
X152049139Y-73327283D01*
X152042630Y-73387830D01*
X152042630Y-74094729D01*
X152049139Y-74155276D01*
X152049141Y-74155283D01*
X152064935Y-74197629D01*
X152069999Y-74268445D01*
X152064935Y-74285691D01*
X152049141Y-74328036D01*
X152049139Y-74328043D01*
X152042630Y-74388590D01*
X152042630Y-75095489D01*
X152049139Y-75156036D01*
X152049141Y-75156043D01*
X152064935Y-75198389D01*
X152069999Y-75269205D01*
X152064935Y-75286451D01*
X152049141Y-75328796D01*
X152049139Y-75328803D01*
X152042630Y-75389350D01*
X152042630Y-76096249D01*
X152049139Y-76156796D01*
X152049141Y-76156803D01*
X152064935Y-76199149D01*
X152069999Y-76269965D01*
X152064935Y-76287211D01*
X152049141Y-76329556D01*
X152049139Y-76329563D01*
X152042630Y-76390110D01*
X152042630Y-76685358D01*
X152022628Y-76753479D01*
X151968972Y-76799972D01*
X151898698Y-76810076D01*
X151872598Y-76803414D01*
X151818094Y-76783085D01*
X151757598Y-76776580D01*
X151074001Y-76776580D01*
X151074001Y-79570580D01*
X151757586Y-79570580D01*
X151757598Y-79570579D01*
X151818095Y-79564074D01*
X151872596Y-79543746D01*
X151943412Y-79538680D01*
X152005724Y-79572704D01*
X152039750Y-79635016D01*
X152042630Y-79661801D01*
X152042630Y-80099289D01*
X152049139Y-80159836D01*
X152049141Y-80159843D01*
X152064935Y-80202189D01*
X152069999Y-80273005D01*
X152064935Y-80290251D01*
X152049141Y-80332596D01*
X152049139Y-80332603D01*
X152042630Y-80393150D01*
X152042630Y-81100049D01*
X152049139Y-81160596D01*
X152049141Y-81160603D01*
X152064935Y-81202949D01*
X152069999Y-81273765D01*
X152064935Y-81291011D01*
X152049141Y-81333356D01*
X152049139Y-81333363D01*
X152042630Y-81393910D01*
X152042630Y-82100809D01*
X152049139Y-82161356D01*
X152049141Y-82161363D01*
X152064935Y-82203709D01*
X152069999Y-82274525D01*
X152064935Y-82291771D01*
X152049141Y-82334116D01*
X152049139Y-82334123D01*
X152042630Y-82394670D01*
X152042630Y-83101569D01*
X152049139Y-83162116D01*
X152049141Y-83162123D01*
X152064935Y-83204469D01*
X152069999Y-83275285D01*
X152064935Y-83292531D01*
X152049141Y-83334876D01*
X152049139Y-83334883D01*
X152042630Y-83395430D01*
X152042630Y-84102329D01*
X152049139Y-84162876D01*
X152049141Y-84162883D01*
X152064935Y-84205229D01*
X152069999Y-84276045D01*
X152064935Y-84293291D01*
X152049141Y-84335636D01*
X152049139Y-84335643D01*
X152042630Y-84396190D01*
X152042630Y-85103089D01*
X152049139Y-85163636D01*
X152049141Y-85163643D01*
X152064935Y-85205989D01*
X152069999Y-85276805D01*
X152064935Y-85294051D01*
X152049141Y-85336396D01*
X152049139Y-85336403D01*
X152042630Y-85396950D01*
X152042630Y-86103849D01*
X152049139Y-86164396D01*
X152049141Y-86164403D01*
X152064935Y-86206749D01*
X152069999Y-86277565D01*
X152064935Y-86294811D01*
X152049141Y-86337156D01*
X152049139Y-86337163D01*
X152042630Y-86397710D01*
X152042630Y-87104609D01*
X152049139Y-87165156D01*
X152049141Y-87165164D01*
X152100240Y-87302162D01*
X152100242Y-87302167D01*
X152187868Y-87419221D01*
X152302737Y-87505211D01*
X152345284Y-87562047D01*
X152350348Y-87632863D01*
X152316323Y-87695175D01*
X152254011Y-87729200D01*
X152214884Y-87731473D01*
X152211095Y-87731100D01*
X152211093Y-87731100D01*
X152080907Y-87731100D01*
X152080902Y-87731100D01*
X152080901Y-87731101D01*
X152080308Y-87731219D01*
X152055729Y-87733640D01*
X151492720Y-87733640D01*
X151424599Y-87713638D01*
X151378106Y-87659982D01*
X151366720Y-87607640D01*
X151366720Y-87596607D01*
X151366719Y-87596590D01*
X151360210Y-87536043D01*
X151360208Y-87536035D01*
X151316638Y-87419222D01*
X151309109Y-87399036D01*
X151309108Y-87399034D01*
X151309107Y-87399032D01*
X151221481Y-87281978D01*
X151104427Y-87194352D01*
X151104422Y-87194350D01*
X150967424Y-87143251D01*
X150967416Y-87143249D01*
X150906869Y-87136740D01*
X150906858Y-87136740D01*
X150199982Y-87136740D01*
X150199970Y-87136740D01*
X150139423Y-87143249D01*
X150139416Y-87143251D01*
X150097071Y-87159045D01*
X150026255Y-87164109D01*
X150009009Y-87159045D01*
X149966663Y-87143251D01*
X149966656Y-87143249D01*
X149906109Y-87136740D01*
X149906098Y-87136740D01*
X149199222Y-87136740D01*
X149199210Y-87136740D01*
X149138663Y-87143249D01*
X149138656Y-87143251D01*
X149096311Y-87159045D01*
X149025495Y-87164109D01*
X149008249Y-87159045D01*
X148965903Y-87143251D01*
X148965896Y-87143249D01*
X148905349Y-87136740D01*
X148905338Y-87136740D01*
X148198462Y-87136740D01*
X148198450Y-87136740D01*
X148137903Y-87143249D01*
X148137896Y-87143251D01*
X148095551Y-87159045D01*
X148024735Y-87164109D01*
X148007489Y-87159045D01*
X147965143Y-87143251D01*
X147965136Y-87143249D01*
X147904589Y-87136740D01*
X147904578Y-87136740D01*
X147197702Y-87136740D01*
X147197690Y-87136740D01*
X147137143Y-87143249D01*
X147137136Y-87143251D01*
X147094791Y-87159045D01*
X147023975Y-87164109D01*
X147006729Y-87159045D01*
X146964383Y-87143251D01*
X146964376Y-87143249D01*
X146903829Y-87136740D01*
X146903818Y-87136740D01*
X146196942Y-87136740D01*
X146196930Y-87136740D01*
X146136383Y-87143249D01*
X146136376Y-87143251D01*
X146094031Y-87159045D01*
X146023215Y-87164109D01*
X146005969Y-87159045D01*
X145963623Y-87143251D01*
X145963616Y-87143249D01*
X145903069Y-87136740D01*
X145903058Y-87136740D01*
X145196182Y-87136740D01*
X145196170Y-87136740D01*
X145135623Y-87143249D01*
X145135616Y-87143251D01*
X145093271Y-87159045D01*
X145022455Y-87164109D01*
X145005209Y-87159045D01*
X144962863Y-87143251D01*
X144962856Y-87143249D01*
X144902309Y-87136740D01*
X144902298Y-87136740D01*
X144195422Y-87136740D01*
X144195410Y-87136740D01*
X144134863Y-87143249D01*
X144134856Y-87143251D01*
X144092511Y-87159045D01*
X144021695Y-87164109D01*
X144004449Y-87159045D01*
X143962103Y-87143251D01*
X143962096Y-87143249D01*
X143901549Y-87136740D01*
X143901538Y-87136740D01*
X143194662Y-87136740D01*
X143194650Y-87136740D01*
X143134103Y-87143249D01*
X143134096Y-87143251D01*
X143091751Y-87159045D01*
X143020935Y-87164109D01*
X143003689Y-87159045D01*
X142961343Y-87143251D01*
X142961336Y-87143249D01*
X142900789Y-87136740D01*
X142900778Y-87136740D01*
X142193902Y-87136740D01*
X142193890Y-87136740D01*
X142133343Y-87143249D01*
X142133336Y-87143251D01*
X142090991Y-87159045D01*
X142020175Y-87164109D01*
X142002929Y-87159045D01*
X141960583Y-87143251D01*
X141960576Y-87143249D01*
X141900029Y-87136740D01*
X141900018Y-87136740D01*
X141193142Y-87136740D01*
X141193130Y-87136740D01*
X141132583Y-87143249D01*
X141132575Y-87143251D01*
X140995577Y-87194350D01*
X140995572Y-87194352D01*
X140878518Y-87281978D01*
X140790892Y-87399032D01*
X140790890Y-87399037D01*
X140739791Y-87536035D01*
X140739789Y-87536043D01*
X140733280Y-87596590D01*
X140733280Y-89192489D01*
X140739789Y-89253036D01*
X140739791Y-89253044D01*
X140790890Y-89390042D01*
X140790892Y-89390047D01*
X140878518Y-89507101D01*
X140995572Y-89594727D01*
X140995574Y-89594728D01*
X140995576Y-89594729D01*
X141054655Y-89616764D01*
X141132575Y-89645828D01*
X141132583Y-89645830D01*
X141193130Y-89652339D01*
X141193135Y-89652339D01*
X141193142Y-89652340D01*
X141760440Y-89652340D01*
X141828561Y-89672342D01*
X141875054Y-89725998D01*
X141886440Y-89778340D01*
X141886440Y-89790716D01*
X141866438Y-89858837D01*
X141849535Y-89879811D01*
X140225151Y-91504195D01*
X140162839Y-91538221D01*
X140136056Y-91541100D01*
X137576921Y-91541100D01*
X137508800Y-91521098D01*
X137502860Y-91517036D01*
X137356752Y-91410882D01*
X137182288Y-91333206D01*
X136995487Y-91293500D01*
X136804513Y-91293500D01*
X136617711Y-91333206D01*
X136443247Y-91410882D01*
X136297140Y-91517036D01*
X136230272Y-91540895D01*
X136223079Y-91541100D01*
X133339137Y-91541100D01*
X133271016Y-91521098D01*
X133233654Y-91484015D01*
X133155724Y-91364735D01*
X133155720Y-91364729D01*
X133003237Y-91199091D01*
X132921382Y-91135381D01*
X132825576Y-91060811D01*
X132792319Y-91042813D01*
X132741929Y-90992802D01*
X132726576Y-90923485D01*
X132751136Y-90856872D01*
X132792320Y-90821186D01*
X132825576Y-90803189D01*
X133003240Y-90664906D01*
X133155722Y-90499268D01*
X133278860Y-90310791D01*
X133369296Y-90104616D01*
X133424564Y-89886368D01*
X133443156Y-89662000D01*
X133424564Y-89437632D01*
X133369296Y-89219384D01*
X133278860Y-89013209D01*
X133246838Y-88964195D01*
X133155724Y-88824734D01*
X133155720Y-88824729D01*
X133003237Y-88659091D01*
X132902780Y-88580902D01*
X132825576Y-88520811D01*
X132792319Y-88502813D01*
X132741929Y-88452802D01*
X132726576Y-88383485D01*
X132751136Y-88316872D01*
X132792320Y-88281186D01*
X132825576Y-88263189D01*
X133003240Y-88124906D01*
X133155722Y-87959268D01*
X133278860Y-87770791D01*
X133369296Y-87564616D01*
X133396810Y-87455965D01*
X133432921Y-87394843D01*
X133496348Y-87362944D01*
X133518953Y-87360900D01*
X137580279Y-87360900D01*
X137648400Y-87380902D01*
X137681146Y-87411389D01*
X137687010Y-87419222D01*
X137804062Y-87506847D01*
X137804064Y-87506848D01*
X137804066Y-87506849D01*
X137863145Y-87528884D01*
X137941065Y-87557948D01*
X137941073Y-87557950D01*
X138001620Y-87564459D01*
X138001625Y-87564459D01*
X138001632Y-87564460D01*
X138001638Y-87564460D01*
X139597502Y-87564460D01*
X139597508Y-87564460D01*
X139597515Y-87564459D01*
X139597519Y-87564459D01*
X139658066Y-87557950D01*
X139658069Y-87557949D01*
X139658071Y-87557949D01*
X139795074Y-87506849D01*
X139912131Y-87419221D01*
X139999759Y-87302164D01*
X140050859Y-87165161D01*
X140050973Y-87164109D01*
X140057369Y-87104609D01*
X140057370Y-87104592D01*
X140057370Y-86397727D01*
X140057369Y-86397710D01*
X140050860Y-86337163D01*
X140050859Y-86337162D01*
X140050859Y-86337159D01*
X140035063Y-86294812D01*
X140029998Y-86224000D01*
X140035063Y-86206749D01*
X140050859Y-86164401D01*
X140057370Y-86103838D01*
X140057370Y-85396962D01*
X140057369Y-85396950D01*
X140050860Y-85336403D01*
X140050859Y-85336402D01*
X140050859Y-85336399D01*
X140035063Y-85294052D01*
X140029998Y-85223240D01*
X140035063Y-85205989D01*
X140050859Y-85163641D01*
X140057370Y-85103078D01*
X140057370Y-84396202D01*
X140057369Y-84396190D01*
X140050860Y-84335643D01*
X140050859Y-84335642D01*
X140050859Y-84335639D01*
X140035063Y-84293292D01*
X140029998Y-84222480D01*
X140035063Y-84205229D01*
X140050859Y-84162881D01*
X140053368Y-84139550D01*
X140057369Y-84102329D01*
X140057370Y-84102312D01*
X140057370Y-83395447D01*
X140057369Y-83395430D01*
X140050860Y-83334884D01*
X140050858Y-83334877D01*
X140050403Y-83333658D01*
X140045502Y-83320516D01*
X140034797Y-83291814D01*
X140029733Y-83220999D01*
X140034798Y-83203749D01*
X140050363Y-83162018D01*
X140050364Y-83162013D01*
X140056869Y-83101517D01*
X140056870Y-83101505D01*
X140056870Y-83002120D01*
X139841746Y-83002120D01*
X139797713Y-82994175D01*
X139658074Y-82942091D01*
X139658066Y-82942089D01*
X139597519Y-82935580D01*
X139597508Y-82935580D01*
X138001632Y-82935580D01*
X138001620Y-82935580D01*
X137941073Y-82942089D01*
X137941065Y-82942091D01*
X137801427Y-82994175D01*
X137757394Y-83002120D01*
X137542270Y-83002120D01*
X137542270Y-83101517D01*
X137548775Y-83162015D01*
X137564342Y-83203753D01*
X137569406Y-83274569D01*
X137564343Y-83291814D01*
X137548280Y-83334881D01*
X137548279Y-83334884D01*
X137541770Y-83395430D01*
X137541770Y-84102329D01*
X137548279Y-84162876D01*
X137548281Y-84162883D01*
X137564075Y-84205229D01*
X137569139Y-84276045D01*
X137564075Y-84293291D01*
X137548281Y-84335636D01*
X137548279Y-84335643D01*
X137541770Y-84396190D01*
X137541770Y-85103089D01*
X137548279Y-85163636D01*
X137548281Y-85163643D01*
X137564075Y-85205989D01*
X137569139Y-85276805D01*
X137564075Y-85294051D01*
X137548281Y-85336396D01*
X137548279Y-85336403D01*
X137541770Y-85396950D01*
X137541770Y-85913100D01*
X137521768Y-85981221D01*
X137468112Y-86027714D01*
X137415770Y-86039100D01*
X132943721Y-86039100D01*
X132875600Y-86019098D01*
X132866330Y-86012531D01*
X132825583Y-85980816D01*
X132825578Y-85980813D01*
X132825576Y-85980811D01*
X132791792Y-85962528D01*
X132741402Y-85912516D01*
X132726050Y-85843199D01*
X132750610Y-85776586D01*
X132791793Y-85740901D01*
X132825300Y-85722767D01*
X132825301Y-85722767D01*
X133002902Y-85584534D01*
X133155325Y-85418958D01*
X133278419Y-85230548D01*
X133368820Y-85024456D01*
X133368823Y-85024449D01*
X133416544Y-84836000D01*
X132510703Y-84836000D01*
X132545925Y-84774993D01*
X132580000Y-84647826D01*
X132580000Y-84516174D01*
X132545925Y-84389007D01*
X132510703Y-84328000D01*
X133416544Y-84328000D01*
X133416544Y-84327999D01*
X133368823Y-84139550D01*
X133368820Y-84139543D01*
X133278419Y-83933451D01*
X133155325Y-83745041D01*
X133002902Y-83579465D01*
X132825301Y-83441232D01*
X132825300Y-83441231D01*
X132791791Y-83423097D01*
X132741401Y-83373083D01*
X132726050Y-83303766D01*
X132750612Y-83237153D01*
X132791790Y-83201472D01*
X132825576Y-83183189D01*
X133003240Y-83044906D01*
X133155722Y-82879268D01*
X133278860Y-82690791D01*
X133369296Y-82484616D01*
X133424564Y-82266368D01*
X133443156Y-82042000D01*
X133424564Y-81817632D01*
X133404647Y-81738982D01*
X133407313Y-81668038D01*
X133437693Y-81618959D01*
X134111176Y-80945475D01*
X134173487Y-80911452D01*
X134244302Y-80916516D01*
X134301138Y-80959063D01*
X134325790Y-81023588D01*
X134342457Y-81214087D01*
X134401716Y-81435243D01*
X134498477Y-81642749D01*
X134629802Y-81830300D01*
X134791700Y-81992198D01*
X134979251Y-82123523D01*
X135186757Y-82220284D01*
X135407913Y-82279543D01*
X135636000Y-82299498D01*
X135864087Y-82279543D01*
X136085243Y-82220284D01*
X136292749Y-82123523D01*
X136480300Y-81992198D01*
X136642198Y-81830300D01*
X136773523Y-81642749D01*
X136870284Y-81435243D01*
X136929543Y-81214087D01*
X136949498Y-80986000D01*
X136929543Y-80757913D01*
X136870284Y-80536757D01*
X136773523Y-80329251D01*
X136642198Y-80141700D01*
X136480300Y-79979802D01*
X136430049Y-79944616D01*
X136292749Y-79848477D01*
X136085246Y-79751717D01*
X136085240Y-79751715D01*
X135923803Y-79708458D01*
X135864087Y-79692457D01*
X135673590Y-79675790D01*
X135607473Y-79649927D01*
X135565834Y-79592424D01*
X135561893Y-79521537D01*
X135595478Y-79461173D01*
X135613771Y-79442882D01*
X135676084Y-79408859D01*
X135702864Y-79405980D01*
X137415770Y-79405980D01*
X137483891Y-79425982D01*
X137530384Y-79479638D01*
X137541770Y-79531980D01*
X137541770Y-80099289D01*
X137548279Y-80159836D01*
X137548281Y-80159843D01*
X137564075Y-80202189D01*
X137569139Y-80273005D01*
X137564075Y-80290251D01*
X137548281Y-80332596D01*
X137548279Y-80332603D01*
X137541770Y-80393150D01*
X137541770Y-81100049D01*
X137548279Y-81160596D01*
X137548281Y-81160603D01*
X137564075Y-81202949D01*
X137569139Y-81273765D01*
X137564075Y-81291011D01*
X137548281Y-81333356D01*
X137548279Y-81333363D01*
X137541770Y-81393910D01*
X137541770Y-82100809D01*
X137548279Y-82161355D01*
X137548281Y-82161362D01*
X137564342Y-82204424D01*
X137569406Y-82275240D01*
X137564343Y-82292485D01*
X137548775Y-82334226D01*
X137542270Y-82394722D01*
X137542270Y-82494120D01*
X137757394Y-82494120D01*
X137801427Y-82502065D01*
X137941065Y-82554148D01*
X137941073Y-82554150D01*
X138001620Y-82560659D01*
X138001625Y-82560659D01*
X138001632Y-82560660D01*
X138001638Y-82560660D01*
X139597502Y-82560660D01*
X139597508Y-82560660D01*
X139597515Y-82560659D01*
X139597519Y-82560659D01*
X139658066Y-82554150D01*
X139658069Y-82554149D01*
X139658071Y-82554149D01*
X139658074Y-82554148D01*
X139797713Y-82502065D01*
X139841746Y-82494120D01*
X140056870Y-82494120D01*
X140056870Y-82394734D01*
X140056869Y-82394722D01*
X140050364Y-82334226D01*
X140050363Y-82334222D01*
X140034797Y-82292486D01*
X140029733Y-82221670D01*
X140034797Y-82204424D01*
X140050859Y-82161361D01*
X140057370Y-82100798D01*
X140057370Y-81393922D01*
X140057369Y-81393910D01*
X140050860Y-81333363D01*
X140050859Y-81333362D01*
X140050859Y-81333359D01*
X140035063Y-81291012D01*
X140029998Y-81220200D01*
X140035063Y-81202949D01*
X140050859Y-81160601D01*
X140057370Y-81100038D01*
X140057370Y-80393162D01*
X140057369Y-80393150D01*
X140050860Y-80332603D01*
X140050859Y-80332602D01*
X140050859Y-80332599D01*
X140035063Y-80290252D01*
X140029998Y-80219440D01*
X140035063Y-80202189D01*
X140050859Y-80159841D01*
X140052810Y-80141700D01*
X140057369Y-80099289D01*
X140057370Y-80099272D01*
X140057370Y-79392407D01*
X140057369Y-79392390D01*
X140050860Y-79331843D01*
X140050859Y-79331842D01*
X140050859Y-79331839D01*
X140035063Y-79289492D01*
X140029998Y-79218680D01*
X140035060Y-79201435D01*
X140050859Y-79159081D01*
X140054031Y-79129581D01*
X140056009Y-79111177D01*
X149423001Y-79111177D01*
X149429506Y-79171673D01*
X149480556Y-79308544D01*
X149480556Y-79308545D01*
X149568096Y-79425484D01*
X149685035Y-79513024D01*
X149821907Y-79564074D01*
X149882403Y-79570579D01*
X149882416Y-79570580D01*
X150566001Y-79570580D01*
X150566001Y-78427580D01*
X149423001Y-78427580D01*
X149423001Y-79111177D01*
X140056009Y-79111177D01*
X140057369Y-79098529D01*
X140057370Y-79098512D01*
X140057370Y-78391647D01*
X140057369Y-78391630D01*
X140050860Y-78331083D01*
X140050859Y-78331082D01*
X140050859Y-78331079D01*
X140035063Y-78288732D01*
X140029998Y-78217920D01*
X140035060Y-78200675D01*
X140050859Y-78158321D01*
X140054852Y-78121186D01*
X140057369Y-78097769D01*
X140057370Y-78097752D01*
X140057370Y-77390887D01*
X140057369Y-77390870D01*
X140050860Y-77330323D01*
X140050859Y-77330322D01*
X140050859Y-77330319D01*
X140035063Y-77287972D01*
X140031344Y-77235982D01*
X149423001Y-77235982D01*
X149423001Y-77919580D01*
X150566001Y-77919580D01*
X150566001Y-76776580D01*
X149882403Y-76776580D01*
X149821907Y-76783085D01*
X149685036Y-76834135D01*
X149685035Y-76834135D01*
X149568096Y-76921675D01*
X149480556Y-77038614D01*
X149480556Y-77038615D01*
X149429506Y-77175486D01*
X149423001Y-77235982D01*
X140031344Y-77235982D01*
X140029998Y-77217160D01*
X140035060Y-77199915D01*
X140050859Y-77157561D01*
X140054734Y-77121522D01*
X140057369Y-77097009D01*
X140057370Y-77096992D01*
X140057370Y-76390127D01*
X140057369Y-76390110D01*
X140050860Y-76329563D01*
X140050859Y-76329562D01*
X140050859Y-76329559D01*
X140035063Y-76287212D01*
X140029998Y-76216400D01*
X140035063Y-76199149D01*
X140050859Y-76156801D01*
X140054307Y-76124734D01*
X140057369Y-76096249D01*
X140057370Y-76096232D01*
X140057370Y-75389367D01*
X140057369Y-75389350D01*
X140050860Y-75328803D01*
X140050859Y-75328802D01*
X140050859Y-75328799D01*
X140035063Y-75286452D01*
X140029998Y-75215640D01*
X140035063Y-75198389D01*
X140050859Y-75156041D01*
X140057370Y-75095478D01*
X140057370Y-74388602D01*
X140057369Y-74388590D01*
X140050860Y-74328043D01*
X140050859Y-74328042D01*
X140050859Y-74328039D01*
X140035063Y-74285692D01*
X140029998Y-74214880D01*
X140035063Y-74197629D01*
X140050859Y-74155281D01*
X140057370Y-74094718D01*
X140057370Y-73387842D01*
X140057369Y-73387830D01*
X140050860Y-73327283D01*
X140050859Y-73327282D01*
X140050859Y-73327279D01*
X140035063Y-73284932D01*
X140029998Y-73214120D01*
X140035063Y-73196869D01*
X140050859Y-73154521D01*
X140052046Y-73143485D01*
X140057369Y-73093969D01*
X140057370Y-73093952D01*
X140057370Y-72387087D01*
X140057369Y-72387070D01*
X140050860Y-72326523D01*
X140050859Y-72326522D01*
X140050859Y-72326519D01*
X140035063Y-72284172D01*
X140029998Y-72213360D01*
X140035063Y-72196109D01*
X140050859Y-72153761D01*
X140055954Y-72106375D01*
X140057369Y-72093209D01*
X140057370Y-72093192D01*
X140057370Y-71386327D01*
X140057369Y-71386310D01*
X140050860Y-71325763D01*
X140050859Y-71325762D01*
X140050859Y-71325759D01*
X140035063Y-71283412D01*
X140029998Y-71212600D01*
X140035063Y-71195349D01*
X140050859Y-71153001D01*
X140057370Y-71092438D01*
X140057370Y-70385562D01*
X140057369Y-70385550D01*
X140050860Y-70325003D01*
X140050859Y-70325002D01*
X140050859Y-70324999D01*
X140035063Y-70282652D01*
X140029998Y-70211840D01*
X140035063Y-70194589D01*
X140050859Y-70152241D01*
X140057370Y-70091678D01*
X140057370Y-69384802D01*
X140057369Y-69384790D01*
X140050860Y-69324243D01*
X140050859Y-69324242D01*
X140050859Y-69324239D01*
X140035063Y-69281892D01*
X140029998Y-69211080D01*
X140035063Y-69193829D01*
X140050859Y-69151481D01*
X140057370Y-69090918D01*
X140057370Y-68493977D01*
X140855700Y-68493977D01*
X140862205Y-68554473D01*
X140913255Y-68691344D01*
X140913255Y-68691345D01*
X141000795Y-68808284D01*
X141117734Y-68895824D01*
X141254606Y-68946874D01*
X141315102Y-68953379D01*
X141315115Y-68953380D01*
X142506700Y-68953380D01*
X143014700Y-68953380D01*
X144206285Y-68953380D01*
X144206297Y-68953379D01*
X144266793Y-68946874D01*
X144403664Y-68895824D01*
X144403665Y-68895824D01*
X144520604Y-68808284D01*
X144608144Y-68691345D01*
X144608144Y-68691344D01*
X144659194Y-68554473D01*
X144665699Y-68493977D01*
X144665700Y-68493965D01*
X144665700Y-68318380D01*
X143014700Y-68318380D01*
X143014700Y-68953380D01*
X142506700Y-68953380D01*
X142506700Y-68318380D01*
X140855700Y-68318380D01*
X140855700Y-68493977D01*
X140057370Y-68493977D01*
X140057370Y-68384042D01*
X140057237Y-68382803D01*
X140050860Y-68323483D01*
X140050859Y-68323482D01*
X140050859Y-68323481D01*
X140050859Y-68323479D01*
X140035063Y-68281132D01*
X140029998Y-68210320D01*
X140035063Y-68193069D01*
X140050859Y-68150721D01*
X140050871Y-68150618D01*
X140057369Y-68090169D01*
X140057370Y-68090152D01*
X140057370Y-67634782D01*
X140855700Y-67634782D01*
X140855700Y-67810380D01*
X142506700Y-67810380D01*
X143014700Y-67810380D01*
X144665700Y-67810380D01*
X144665700Y-67634794D01*
X144665699Y-67634782D01*
X144659194Y-67574286D01*
X144608144Y-67437415D01*
X144608144Y-67437414D01*
X144567651Y-67383322D01*
X152043130Y-67383322D01*
X152043130Y-67482720D01*
X153046430Y-67482720D01*
X153554430Y-67482720D01*
X154557730Y-67482720D01*
X154557730Y-67383334D01*
X154557729Y-67383322D01*
X154551224Y-67322826D01*
X154500174Y-67185955D01*
X154500174Y-67185954D01*
X154412634Y-67069015D01*
X154295695Y-66981475D01*
X154158823Y-66930425D01*
X154098327Y-66923920D01*
X153554430Y-66923920D01*
X153554430Y-67482720D01*
X153046430Y-67482720D01*
X153046430Y-66923920D01*
X152502532Y-66923920D01*
X152442036Y-66930425D01*
X152305165Y-66981475D01*
X152305164Y-66981475D01*
X152188225Y-67069015D01*
X152100685Y-67185954D01*
X152100685Y-67185955D01*
X152049635Y-67322826D01*
X152043130Y-67383322D01*
X144567651Y-67383322D01*
X144520604Y-67320475D01*
X144403665Y-67232935D01*
X144266793Y-67181885D01*
X144206297Y-67175380D01*
X143014700Y-67175380D01*
X143014700Y-67810380D01*
X142506700Y-67810380D01*
X142506700Y-67175380D01*
X141315102Y-67175380D01*
X141254606Y-67181885D01*
X141117735Y-67232935D01*
X141117734Y-67232935D01*
X141000795Y-67320475D01*
X140913255Y-67437414D01*
X140913255Y-67437415D01*
X140862205Y-67574286D01*
X140855700Y-67634782D01*
X140057370Y-67634782D01*
X140057370Y-67383287D01*
X140057369Y-67383270D01*
X140050860Y-67322723D01*
X140050858Y-67322715D01*
X139999848Y-67185955D01*
X139999759Y-67185716D01*
X139999758Y-67185714D01*
X139999757Y-67185712D01*
X139912131Y-67068658D01*
X139795077Y-66981032D01*
X139795072Y-66981030D01*
X139658074Y-66929931D01*
X139658066Y-66929929D01*
X139597519Y-66923420D01*
X139597508Y-66923420D01*
X138001632Y-66923420D01*
X138001620Y-66923420D01*
X137941073Y-66929929D01*
X137941065Y-66929931D01*
X137804067Y-66981030D01*
X137804062Y-66981032D01*
X137687008Y-67068658D01*
X137599382Y-67185712D01*
X137599380Y-67185717D01*
X137548281Y-67322715D01*
X137548279Y-67322723D01*
X137541770Y-67383270D01*
X137541770Y-68090169D01*
X137548279Y-68150716D01*
X137548281Y-68150723D01*
X137564075Y-68193069D01*
X137569139Y-68263885D01*
X137564075Y-68281131D01*
X137548281Y-68323476D01*
X137548279Y-68323483D01*
X137541770Y-68384030D01*
X137541770Y-69090929D01*
X137548279Y-69151476D01*
X137548281Y-69151483D01*
X137564075Y-69193829D01*
X137569139Y-69264645D01*
X137564075Y-69281891D01*
X137548281Y-69324236D01*
X137548279Y-69324243D01*
X137541770Y-69384790D01*
X137541770Y-70091689D01*
X137548279Y-70152236D01*
X137548281Y-70152243D01*
X137564075Y-70194589D01*
X137569139Y-70265405D01*
X137564075Y-70282651D01*
X137548281Y-70324996D01*
X137548279Y-70325003D01*
X137541770Y-70385550D01*
X137541770Y-71092449D01*
X137548279Y-71152996D01*
X137548281Y-71153003D01*
X137564075Y-71195349D01*
X137569139Y-71266165D01*
X137564075Y-71283411D01*
X137548281Y-71325756D01*
X137548279Y-71325763D01*
X137541770Y-71386310D01*
X137541770Y-71786926D01*
X137521768Y-71855047D01*
X137468112Y-71901540D01*
X137397838Y-71911644D01*
X137333258Y-71882150D01*
X137326675Y-71876021D01*
X134279301Y-68828647D01*
X134279299Y-68828645D01*
X134171054Y-68756318D01*
X134050777Y-68706498D01*
X133923095Y-68681100D01*
X133923093Y-68681100D01*
X133564500Y-68681100D01*
X133496379Y-68661098D01*
X133449886Y-68607442D01*
X133438500Y-68555100D01*
X133438500Y-68443367D01*
X133438499Y-68443350D01*
X133431990Y-68382803D01*
X133431988Y-68382795D01*
X133380978Y-68246035D01*
X133380889Y-68245796D01*
X133380888Y-68245794D01*
X133380887Y-68245792D01*
X133293261Y-68128738D01*
X133176207Y-68041112D01*
X133176202Y-68041110D01*
X133039204Y-67990011D01*
X133039196Y-67990009D01*
X132978649Y-67983500D01*
X132978638Y-67983500D01*
X131181362Y-67983500D01*
X131181350Y-67983500D01*
X131120803Y-67990009D01*
X131120795Y-67990011D01*
X130983797Y-68041110D01*
X130983792Y-68041112D01*
X130866738Y-68128738D01*
X130779112Y-68245792D01*
X130779110Y-68245797D01*
X130728011Y-68382795D01*
X130728009Y-68382803D01*
X130721500Y-68443350D01*
X130721500Y-70240649D01*
X130728009Y-70301196D01*
X130728011Y-70301204D01*
X130779110Y-70438202D01*
X130779112Y-70438207D01*
X130866738Y-70555261D01*
X130983791Y-70642886D01*
X130983792Y-70642886D01*
X130983796Y-70642889D01*
X131098810Y-70685787D01*
X131155642Y-70728332D01*
X131180453Y-70794852D01*
X131165362Y-70864226D01*
X131147475Y-70889179D01*
X131004280Y-71044729D01*
X131004275Y-71044734D01*
X130881141Y-71233206D01*
X130790703Y-71439386D01*
X130790702Y-71439387D01*
X130735437Y-71657624D01*
X130716844Y-71882000D01*
X130735436Y-72106371D01*
X130755352Y-72185017D01*
X130752684Y-72255963D01*
X130722302Y-72305042D01*
X130438586Y-72588757D01*
X130438577Y-72588769D01*
X130364243Y-72663103D01*
X130364242Y-72663105D01*
X130291917Y-72771346D01*
X130291917Y-72771347D01*
X130290408Y-72774991D01*
X130289106Y-72776606D01*
X130288999Y-72776807D01*
X130288960Y-72776786D01*
X130245859Y-72830271D01*
X130178496Y-72852691D01*
X130109705Y-72835132D01*
X130061327Y-72783169D01*
X130048000Y-72726771D01*
X130048000Y-66306411D01*
X130050421Y-66281831D01*
X130062445Y-66221380D01*
X130081256Y-66175963D01*
X130108474Y-66135228D01*
X130143228Y-66100474D01*
X130183963Y-66073256D01*
X130229378Y-66054445D01*
X130253096Y-66049727D01*
X130289831Y-66042421D01*
X130314411Y-66040000D01*
X161785589Y-66040000D01*
X161810170Y-66042421D01*
G37*
%TD.AperFunction*%
%TA.AperFunction,Conductor*%
G36*
X145831601Y-89672342D02*
G01*
X145878094Y-89725998D01*
X145889480Y-89778340D01*
X145889480Y-92523676D01*
X145869478Y-92591797D01*
X145852575Y-92612771D01*
X141881151Y-96584195D01*
X141818839Y-96618221D01*
X141792056Y-96621100D01*
X133339137Y-96621100D01*
X133271016Y-96601098D01*
X133233654Y-96564015D01*
X133155724Y-96444735D01*
X133155720Y-96444729D01*
X133003237Y-96279091D01*
X132918812Y-96213380D01*
X132825576Y-96140811D01*
X132817131Y-96136241D01*
X132792320Y-96122814D01*
X132741929Y-96072802D01*
X132726576Y-96003485D01*
X132751136Y-95936872D01*
X132792320Y-95901186D01*
X132825576Y-95883189D01*
X133003240Y-95744906D01*
X133155722Y-95579268D01*
X133198535Y-95513737D01*
X133233654Y-95459985D01*
X133287658Y-95413896D01*
X133339137Y-95402900D01*
X141123092Y-95402900D01*
X141123093Y-95402900D01*
X141250777Y-95377502D01*
X141371054Y-95327682D01*
X141479299Y-95255355D01*
X144439249Y-92295405D01*
X144501561Y-92261379D01*
X144528344Y-92258500D01*
X144545487Y-92258500D01*
X144732288Y-92218794D01*
X144906752Y-92141118D01*
X145061253Y-92028866D01*
X145107384Y-91977632D01*
X145189034Y-91886951D01*
X145189035Y-91886949D01*
X145189040Y-91886944D01*
X145284527Y-91721556D01*
X145343542Y-91539928D01*
X145363504Y-91350000D01*
X145343542Y-91160072D01*
X145284527Y-90978444D01*
X145226641Y-90878182D01*
X145209760Y-90815182D01*
X145209760Y-89778340D01*
X145229762Y-89710219D01*
X145283418Y-89663726D01*
X145335760Y-89652340D01*
X145763480Y-89652340D01*
X145831601Y-89672342D01*
G37*
%TD.AperFunction*%
%TA.AperFunction,Conductor*%
G36*
X143830081Y-89672342D02*
G01*
X143876574Y-89725998D01*
X143887960Y-89778340D01*
X143887960Y-90571178D01*
X143867958Y-90639299D01*
X143842881Y-90665853D01*
X143843656Y-90666714D01*
X143838748Y-90671132D01*
X143710962Y-90813053D01*
X143710958Y-90813058D01*
X143615476Y-90978438D01*
X143615473Y-90978445D01*
X143556457Y-91160072D01*
X143543643Y-91281992D01*
X143516629Y-91347649D01*
X143507428Y-91357916D01*
X140821151Y-94044195D01*
X140758839Y-94078220D01*
X140732056Y-94081100D01*
X133339137Y-94081100D01*
X133271016Y-94061098D01*
X133233654Y-94024015D01*
X133155724Y-93904735D01*
X133155720Y-93904729D01*
X133003237Y-93739091D01*
X132921382Y-93675381D01*
X132825576Y-93600811D01*
X132792319Y-93582813D01*
X132741929Y-93532802D01*
X132726576Y-93463485D01*
X132751136Y-93396872D01*
X132792320Y-93361186D01*
X132825576Y-93343189D01*
X133003240Y-93204906D01*
X133155722Y-93039268D01*
X133222826Y-92936558D01*
X133233654Y-92919985D01*
X133287658Y-92873896D01*
X133339137Y-92862900D01*
X136223079Y-92862900D01*
X136291200Y-92882902D01*
X136297140Y-92886964D01*
X136443248Y-92993118D01*
X136617712Y-93070794D01*
X136804513Y-93110500D01*
X136995487Y-93110500D01*
X137182288Y-93070794D01*
X137356752Y-92993118D01*
X137502860Y-92886964D01*
X137569728Y-92863105D01*
X137576921Y-92862900D01*
X140527092Y-92862900D01*
X140527093Y-92862900D01*
X140654777Y-92837502D01*
X140775054Y-92787682D01*
X140883299Y-92715355D01*
X142958266Y-90640385D01*
X142958271Y-90640382D01*
X142968637Y-90630015D01*
X142968639Y-90630015D01*
X143060695Y-90537959D01*
X143133022Y-90429714D01*
X143182842Y-90309437D01*
X143208240Y-90181753D01*
X143208240Y-89778340D01*
X143228242Y-89710219D01*
X143281898Y-89663726D01*
X143334240Y-89652340D01*
X143761960Y-89652340D01*
X143830081Y-89672342D01*
G37*
%TD.AperFunction*%
%TA.AperFunction,Conductor*%
G36*
X151890717Y-89075442D02*
G01*
X151911691Y-89092345D01*
X152898234Y-90078887D01*
X152898244Y-90078898D01*
X152902644Y-90083298D01*
X152902645Y-90083299D01*
X152994701Y-90175355D01*
X153093694Y-90241500D01*
X153102946Y-90247682D01*
X153223223Y-90297502D01*
X153350906Y-90322900D01*
X153350907Y-90322900D01*
X155961079Y-90322900D01*
X156029200Y-90342902D01*
X156035140Y-90346964D01*
X156181248Y-90453118D01*
X156355712Y-90530794D01*
X156542513Y-90570500D01*
X156733487Y-90570500D01*
X156920288Y-90530794D01*
X157094752Y-90453118D01*
X157240860Y-90346964D01*
X157307728Y-90323105D01*
X157314921Y-90322900D01*
X158760863Y-90322900D01*
X158828984Y-90342902D01*
X158866346Y-90379985D01*
X158944275Y-90499264D01*
X158944279Y-90499270D01*
X159096762Y-90664908D01*
X159151331Y-90707381D01*
X159274424Y-90803189D01*
X159307680Y-90821186D01*
X159358071Y-90871200D01*
X159373423Y-90940516D01*
X159348862Y-91007129D01*
X159307680Y-91042813D01*
X159274426Y-91060810D01*
X159274424Y-91060811D01*
X159096762Y-91199091D01*
X158944279Y-91364729D01*
X158944275Y-91364735D01*
X158866346Y-91484015D01*
X158812342Y-91530104D01*
X158760863Y-91541100D01*
X150947944Y-91541100D01*
X150879823Y-91521098D01*
X150858848Y-91504195D01*
X150250464Y-90895810D01*
X150216439Y-90833498D01*
X150213560Y-90806715D01*
X150213560Y-89778340D01*
X150233562Y-89710219D01*
X150287218Y-89663726D01*
X150339560Y-89652340D01*
X150906852Y-89652340D01*
X150906858Y-89652340D01*
X150906865Y-89652339D01*
X150906869Y-89652339D01*
X150967416Y-89645830D01*
X150967419Y-89645829D01*
X150967421Y-89645829D01*
X151104424Y-89594729D01*
X151221481Y-89507101D01*
X151309109Y-89390044D01*
X151360209Y-89253041D01*
X151363828Y-89219384D01*
X151366719Y-89192489D01*
X151366720Y-89192472D01*
X151366720Y-89181440D01*
X151386722Y-89113319D01*
X151440378Y-89066826D01*
X151492720Y-89055440D01*
X151822596Y-89055440D01*
X151890717Y-89075442D01*
G37*
%TD.AperFunction*%
%TA.AperFunction,Conductor*%
G36*
X148095544Y-89630030D02*
G01*
X148137899Y-89645829D01*
X148137902Y-89645829D01*
X148137903Y-89645830D01*
X148198450Y-89652339D01*
X148198455Y-89652339D01*
X148198462Y-89652340D01*
X148765760Y-89652340D01*
X148833881Y-89672342D01*
X148880374Y-89725998D01*
X148891760Y-89778340D01*
X148891760Y-90198896D01*
X148871758Y-90267017D01*
X148818102Y-90313510D01*
X148747828Y-90323614D01*
X148683248Y-90294120D01*
X148672124Y-90283207D01*
X148661253Y-90271134D01*
X148506752Y-90158882D01*
X148332288Y-90081206D01*
X148145487Y-90041500D01*
X147954513Y-90041500D01*
X147767711Y-90081206D01*
X147593247Y-90158882D01*
X147438744Y-90271135D01*
X147430913Y-90279833D01*
X147370466Y-90317070D01*
X147299482Y-90315716D01*
X147240499Y-90276200D01*
X147212243Y-90211069D01*
X147211280Y-90195519D01*
X147211280Y-89778340D01*
X147231282Y-89710219D01*
X147284938Y-89663726D01*
X147337280Y-89652340D01*
X147904572Y-89652340D01*
X147904578Y-89652340D01*
X147904585Y-89652339D01*
X147904589Y-89652339D01*
X147965136Y-89645830D01*
X147965136Y-89645829D01*
X147965141Y-89645829D01*
X148007487Y-89630033D01*
X148078300Y-89624968D01*
X148095544Y-89630030D01*
G37*
%TD.AperFunction*%
%TA.AperFunction,Conductor*%
G36*
X158591312Y-77047506D02*
G01*
X158648148Y-77090053D01*
X158672849Y-77155154D01*
X158674534Y-77175486D01*
X158675437Y-77186375D01*
X158730702Y-77404612D01*
X158730703Y-77404613D01*
X158821141Y-77610793D01*
X158944275Y-77799265D01*
X158944279Y-77799270D01*
X159096762Y-77964908D01*
X159151331Y-78007381D01*
X159274424Y-78103189D01*
X159307680Y-78121186D01*
X159358071Y-78171200D01*
X159373423Y-78240516D01*
X159348862Y-78307129D01*
X159307680Y-78342813D01*
X159274426Y-78360810D01*
X159274424Y-78360811D01*
X159096762Y-78499091D01*
X158944279Y-78664729D01*
X158944275Y-78664734D01*
X158821141Y-78853206D01*
X158730703Y-79059386D01*
X158730702Y-79059387D01*
X158675437Y-79277624D01*
X158675437Y-79277627D01*
X158675436Y-79277632D01*
X158656844Y-79502000D01*
X158670972Y-79672502D01*
X158675437Y-79726375D01*
X158730702Y-79944612D01*
X158730703Y-79944613D01*
X158730704Y-79944616D01*
X158798549Y-80099289D01*
X158821141Y-80150793D01*
X158944275Y-80339265D01*
X158944279Y-80339270D01*
X159096762Y-80504908D01*
X159137682Y-80536757D01*
X159274424Y-80643189D01*
X159307680Y-80661186D01*
X159358071Y-80711200D01*
X159373423Y-80780516D01*
X159348862Y-80847129D01*
X159307680Y-80882813D01*
X159274426Y-80900810D01*
X159274424Y-80900811D01*
X159096762Y-81039091D01*
X158944279Y-81204729D01*
X158944275Y-81204734D01*
X158821141Y-81393206D01*
X158730703Y-81599386D01*
X158730702Y-81599387D01*
X158675437Y-81817624D01*
X158675437Y-81817627D01*
X158675436Y-81817632D01*
X158656844Y-82042000D01*
X158673892Y-82247740D01*
X158675437Y-82266375D01*
X158730702Y-82484612D01*
X158730703Y-82484613D01*
X158730704Y-82484616D01*
X158764060Y-82560660D01*
X158821141Y-82690793D01*
X158944275Y-82879265D01*
X158944279Y-82879270D01*
X159096762Y-83044908D01*
X159151331Y-83087381D01*
X159274424Y-83183189D01*
X159307680Y-83201186D01*
X159358071Y-83251200D01*
X159373423Y-83320516D01*
X159348862Y-83387129D01*
X159307680Y-83422813D01*
X159274426Y-83440810D01*
X159274424Y-83440811D01*
X159096762Y-83579091D01*
X158944279Y-83744729D01*
X158944275Y-83744734D01*
X158821141Y-83933206D01*
X158730703Y-84139386D01*
X158730702Y-84139387D01*
X158675437Y-84357624D01*
X158675436Y-84357630D01*
X158675436Y-84357632D01*
X158662299Y-84516174D01*
X158656844Y-84582000D01*
X158675436Y-84806371D01*
X158695352Y-84885017D01*
X158692684Y-84955963D01*
X158662302Y-85005042D01*
X157278534Y-86388810D01*
X157216222Y-86422836D01*
X157145407Y-86417771D01*
X157088571Y-86375224D01*
X157069606Y-86338652D01*
X157058500Y-86304472D01*
X157058500Y-86304471D01*
X156963013Y-86139083D01*
X156963011Y-86139081D01*
X156963007Y-86139075D01*
X156835228Y-85997162D01*
X156680725Y-85884909D01*
X156506261Y-85807233D01*
X156319460Y-85767527D01*
X156302316Y-85767527D01*
X156234195Y-85747525D01*
X156213220Y-85730622D01*
X155755056Y-85272457D01*
X155721031Y-85210145D01*
X155726096Y-85139329D01*
X155768643Y-85082494D01*
X155770035Y-85081466D01*
X155911253Y-84978866D01*
X155933266Y-84954418D01*
X156039034Y-84836951D01*
X156039035Y-84836949D01*
X156039040Y-84836944D01*
X156134527Y-84671556D01*
X156193542Y-84489928D01*
X156213504Y-84300000D01*
X156193542Y-84110072D01*
X156134527Y-83928444D01*
X156134523Y-83928438D01*
X156134523Y-83928436D01*
X156039041Y-83763058D01*
X156039034Y-83763048D01*
X155911255Y-83621135D01*
X155756752Y-83508882D01*
X155582288Y-83431206D01*
X155395487Y-83391500D01*
X155378344Y-83391500D01*
X155310223Y-83371498D01*
X155289249Y-83354595D01*
X155170181Y-83235527D01*
X155170179Y-83235525D01*
X155061934Y-83163198D01*
X154941657Y-83113378D01*
X154813975Y-83087980D01*
X154813973Y-83087980D01*
X154684230Y-83087980D01*
X154616109Y-83067978D01*
X154569616Y-83014322D01*
X154558230Y-82961980D01*
X154558230Y-82394687D01*
X154558229Y-82394670D01*
X154551720Y-82334123D01*
X154551719Y-82334122D01*
X154551719Y-82334119D01*
X154535923Y-82291772D01*
X154530858Y-82220960D01*
X154535923Y-82203709D01*
X154551719Y-82161361D01*
X154558230Y-82100798D01*
X154558230Y-81393922D01*
X154558229Y-81393910D01*
X154551720Y-81333363D01*
X154551719Y-81333362D01*
X154551719Y-81333359D01*
X154535923Y-81291012D01*
X154530858Y-81220200D01*
X154535923Y-81202949D01*
X154551719Y-81160601D01*
X154558230Y-81100038D01*
X154558230Y-80393162D01*
X154558229Y-80393150D01*
X154551720Y-80332603D01*
X154551719Y-80332602D01*
X154551719Y-80332599D01*
X154535923Y-80290252D01*
X154530858Y-80219440D01*
X154535923Y-80202189D01*
X154551719Y-80159841D01*
X154553670Y-80141700D01*
X154558229Y-80099289D01*
X154558230Y-80099272D01*
X154558230Y-79531980D01*
X154578232Y-79463859D01*
X154631888Y-79417366D01*
X154684230Y-79405980D01*
X155920012Y-79405980D01*
X155920013Y-79405980D01*
X156047697Y-79380582D01*
X156167974Y-79330762D01*
X156276219Y-79258435D01*
X158458187Y-77076465D01*
X158520497Y-77042442D01*
X158591312Y-77047506D01*
G37*
%TD.AperFunction*%
%TA.AperFunction,Conductor*%
G36*
X134870177Y-72562902D02*
G01*
X134891151Y-72579805D01*
X136473925Y-74162579D01*
X136565981Y-74254635D01*
X136674226Y-74326962D01*
X136794503Y-74376782D01*
X136922187Y-74402180D01*
X137415770Y-74402180D01*
X137483891Y-74422182D01*
X137530384Y-74475838D01*
X137541770Y-74528180D01*
X137541770Y-75095489D01*
X137548279Y-75156036D01*
X137548281Y-75156043D01*
X137564075Y-75198389D01*
X137569139Y-75269205D01*
X137564075Y-75286451D01*
X137548281Y-75328796D01*
X137548279Y-75328803D01*
X137541770Y-75389350D01*
X137541770Y-76096249D01*
X137548279Y-76156796D01*
X137548281Y-76156803D01*
X137564075Y-76199149D01*
X137569139Y-76269965D01*
X137564075Y-76287211D01*
X137548281Y-76329556D01*
X137548279Y-76329563D01*
X137541770Y-76390110D01*
X137541770Y-76957420D01*
X137521768Y-77025541D01*
X137468112Y-77072034D01*
X137415770Y-77083420D01*
X136426401Y-77083420D01*
X136358280Y-77063418D01*
X136337306Y-77046515D01*
X135676791Y-76386000D01*
X135688661Y-76386000D01*
X135790394Y-76358741D01*
X135881606Y-76306080D01*
X135956080Y-76231606D01*
X136008741Y-76140394D01*
X136036000Y-76038661D01*
X136036000Y-76026791D01*
X136723097Y-76713888D01*
X136723099Y-76713888D01*
X136773088Y-76642497D01*
X136869811Y-76435073D01*
X136869813Y-76435068D01*
X136929048Y-76214002D01*
X136948995Y-75986000D01*
X136929048Y-75757997D01*
X136869813Y-75536931D01*
X136869811Y-75536926D01*
X136773086Y-75329498D01*
X136723100Y-75258110D01*
X136723098Y-75258110D01*
X136036000Y-75945208D01*
X136036000Y-75933339D01*
X136008741Y-75831606D01*
X135956080Y-75740394D01*
X135881606Y-75665920D01*
X135790394Y-75613259D01*
X135688661Y-75586000D01*
X135676790Y-75586000D01*
X136363888Y-74898899D01*
X136363888Y-74898898D01*
X136292501Y-74848913D01*
X136085073Y-74752188D01*
X136085068Y-74752186D01*
X135864000Y-74692951D01*
X135864004Y-74692951D01*
X135636000Y-74673004D01*
X135407997Y-74692951D01*
X135186931Y-74752186D01*
X135186926Y-74752188D01*
X134979500Y-74848913D01*
X134908109Y-74898900D01*
X135595209Y-75586000D01*
X135583339Y-75586000D01*
X135481606Y-75613259D01*
X135390394Y-75665920D01*
X135315920Y-75740394D01*
X135263259Y-75831606D01*
X135236000Y-75933339D01*
X135236000Y-75945209D01*
X134548900Y-75258109D01*
X134498913Y-75329500D01*
X134402188Y-75536926D01*
X134402186Y-75536931D01*
X134342951Y-75757997D01*
X134323004Y-75986000D01*
X134342951Y-76214002D01*
X134402186Y-76435068D01*
X134402188Y-76435073D01*
X134498913Y-76642501D01*
X134548899Y-76713888D01*
X135236000Y-76026788D01*
X135236000Y-76038661D01*
X135263259Y-76140394D01*
X135315920Y-76231606D01*
X135390394Y-76306080D01*
X135481606Y-76358741D01*
X135583339Y-76386000D01*
X135595210Y-76386000D01*
X134934693Y-77046516D01*
X134872381Y-77080541D01*
X134845598Y-77083420D01*
X133772584Y-77083420D01*
X133644902Y-77108818D01*
X133644897Y-77108820D01*
X133614231Y-77121522D01*
X133543641Y-77129110D01*
X133480155Y-77097329D01*
X133443928Y-77036270D01*
X133440445Y-76994711D01*
X133443156Y-76962000D01*
X133424564Y-76737632D01*
X133369296Y-76519384D01*
X133278860Y-76313209D01*
X133204341Y-76199149D01*
X133155724Y-76124734D01*
X133155720Y-76124729D01*
X133003237Y-75959091D01*
X132921382Y-75895381D01*
X132825576Y-75820811D01*
X132792319Y-75802813D01*
X132741929Y-75752802D01*
X132726576Y-75683485D01*
X132751136Y-75616872D01*
X132792320Y-75581186D01*
X132825576Y-75563189D01*
X133003240Y-75424906D01*
X133155722Y-75259268D01*
X133278860Y-75070791D01*
X133369296Y-74864616D01*
X133424564Y-74646368D01*
X133443156Y-74422000D01*
X133424564Y-74197632D01*
X133413838Y-74155276D01*
X133369297Y-73979387D01*
X133369296Y-73979386D01*
X133369296Y-73979384D01*
X133278860Y-73773209D01*
X133272140Y-73762924D01*
X133155724Y-73584734D01*
X133155720Y-73584729D01*
X133003237Y-73419091D01*
X132921382Y-73355381D01*
X132825576Y-73280811D01*
X132792319Y-73262813D01*
X132741929Y-73212802D01*
X132726576Y-73143485D01*
X132751136Y-73076872D01*
X132792320Y-73041186D01*
X132825576Y-73023189D01*
X133003240Y-72884906D01*
X133155722Y-72719268D01*
X133198535Y-72653737D01*
X133233654Y-72599985D01*
X133287658Y-72553896D01*
X133339137Y-72542900D01*
X134802056Y-72542900D01*
X134870177Y-72562902D01*
G37*
%TD.AperFunction*%
%TA.AperFunction,Conductor*%
G36*
X158828984Y-72562902D02*
G01*
X158866346Y-72599985D01*
X158944275Y-72719264D01*
X158944279Y-72719270D01*
X159096762Y-72884908D01*
X159151331Y-72927381D01*
X159274424Y-73023189D01*
X159307680Y-73041186D01*
X159358071Y-73091200D01*
X159373423Y-73160516D01*
X159348862Y-73227129D01*
X159307680Y-73262813D01*
X159274426Y-73280810D01*
X159274424Y-73280811D01*
X159096762Y-73419091D01*
X158944279Y-73584729D01*
X158944275Y-73584734D01*
X158821141Y-73773206D01*
X158730703Y-73979386D01*
X158730702Y-73979387D01*
X158675437Y-74197624D01*
X158675437Y-74197629D01*
X158675436Y-74197632D01*
X158656844Y-74422000D01*
X158665642Y-74528180D01*
X158675437Y-74646375D01*
X158727278Y-74851089D01*
X158724611Y-74922035D01*
X158694229Y-74971115D01*
X156803118Y-76862226D01*
X156740806Y-76896252D01*
X156669991Y-76891187D01*
X156613155Y-76848640D01*
X156594190Y-76812067D01*
X156591378Y-76803414D01*
X156534527Y-76628444D01*
X156439040Y-76463056D01*
X156439038Y-76463054D01*
X156439034Y-76463048D01*
X156311255Y-76321135D01*
X156156752Y-76208882D01*
X155982288Y-76131206D01*
X155795487Y-76091500D01*
X155604513Y-76091500D01*
X155417711Y-76131206D01*
X155243247Y-76208882D01*
X155088744Y-76321135D01*
X154960965Y-76463048D01*
X154960958Y-76463058D01*
X154928437Y-76519387D01*
X154865473Y-76628444D01*
X154837710Y-76713888D01*
X154804417Y-76816353D01*
X154801934Y-76815546D01*
X154773744Y-76867756D01*
X154711592Y-76902074D01*
X154640754Y-76897343D01*
X154583718Y-76855064D01*
X154558595Y-76788661D01*
X154558230Y-76779081D01*
X154558230Y-76390127D01*
X154558229Y-76390110D01*
X154551720Y-76329563D01*
X154551719Y-76329562D01*
X154551719Y-76329559D01*
X154535923Y-76287212D01*
X154530858Y-76216400D01*
X154535923Y-76199149D01*
X154551719Y-76156801D01*
X154555167Y-76124734D01*
X154558229Y-76096249D01*
X154558230Y-76096232D01*
X154558230Y-75519239D01*
X154578232Y-75451118D01*
X154631888Y-75404625D01*
X154659644Y-75395661D01*
X154750737Y-75377542D01*
X154871014Y-75327722D01*
X154979259Y-75255395D01*
X157654848Y-72579804D01*
X157717160Y-72545779D01*
X157743943Y-72542900D01*
X158760863Y-72542900D01*
X158828984Y-72562902D01*
G37*
%TD.AperFunction*%
%TA.AperFunction,Conductor*%
G36*
X133647012Y-70066120D02*
G01*
X133653595Y-70072249D01*
X134587351Y-71006005D01*
X134621377Y-71068317D01*
X134616312Y-71139132D01*
X134573765Y-71195968D01*
X134507245Y-71220779D01*
X134498256Y-71221100D01*
X133339137Y-71221100D01*
X133271016Y-71201098D01*
X133233654Y-71164015D01*
X133155724Y-71044735D01*
X133155719Y-71044729D01*
X133012524Y-70889179D01*
X132981103Y-70825514D01*
X132989090Y-70754968D01*
X133033948Y-70699939D01*
X133061183Y-70685789D01*
X133176204Y-70642889D01*
X133176799Y-70642444D01*
X133293261Y-70555261D01*
X133380887Y-70438207D01*
X133380887Y-70438206D01*
X133380889Y-70438204D01*
X133431989Y-70301201D01*
X133433984Y-70282651D01*
X133438499Y-70240649D01*
X133438500Y-70240632D01*
X133438500Y-70161344D01*
X133458502Y-70093223D01*
X133512158Y-70046730D01*
X133582432Y-70036626D01*
X133647012Y-70066120D01*
G37*
%TD.AperFunction*%
%TD*%
M02*
