%TF.GenerationSoftware,KiCad,Pcbnew,8.0.3*%
%TF.CreationDate,2024-07-23T20:10:18-07:00*%
%TF.ProjectId,BM-83 Carrier PCB,424d2d38-3320-4436-9172-726965722050,rev?*%
%TF.SameCoordinates,Original*%
%TF.FileFunction,Legend,Bot*%
%TF.FilePolarity,Positive*%
%FSLAX46Y46*%
G04 Gerber Fmt 4.6, Leading zero omitted, Abs format (unit mm)*
G04 Created by KiCad (PCBNEW 8.0.3) date 2024-07-23 20:10:18*
%MOMM*%
%LPD*%
G01*
G04 APERTURE LIST*
%ADD10C,0.150000*%
%ADD11C,0.120000*%
G04 APERTURE END LIST*
D10*
X152391792Y-68589819D02*
X152725125Y-68113628D01*
X152963220Y-68589819D02*
X152963220Y-67589819D01*
X152963220Y-67589819D02*
X152582268Y-67589819D01*
X152582268Y-67589819D02*
X152487030Y-67637438D01*
X152487030Y-67637438D02*
X152439411Y-67685057D01*
X152439411Y-67685057D02*
X152391792Y-67780295D01*
X152391792Y-67780295D02*
X152391792Y-67923152D01*
X152391792Y-67923152D02*
X152439411Y-68018390D01*
X152439411Y-68018390D02*
X152487030Y-68066009D01*
X152487030Y-68066009D02*
X152582268Y-68113628D01*
X152582268Y-68113628D02*
X152963220Y-68113628D01*
X151582268Y-68542200D02*
X151677506Y-68589819D01*
X151677506Y-68589819D02*
X151867982Y-68589819D01*
X151867982Y-68589819D02*
X151963220Y-68542200D01*
X151963220Y-68542200D02*
X152010839Y-68446961D01*
X152010839Y-68446961D02*
X152010839Y-68066009D01*
X152010839Y-68066009D02*
X151963220Y-67970771D01*
X151963220Y-67970771D02*
X151867982Y-67923152D01*
X151867982Y-67923152D02*
X151677506Y-67923152D01*
X151677506Y-67923152D02*
X151582268Y-67970771D01*
X151582268Y-67970771D02*
X151534649Y-68066009D01*
X151534649Y-68066009D02*
X151534649Y-68161247D01*
X151534649Y-68161247D02*
X152010839Y-68256485D01*
X151201315Y-67923152D02*
X150963220Y-68589819D01*
X150963220Y-68589819D02*
X150725125Y-67923152D01*
X150344172Y-68494580D02*
X150296553Y-68542200D01*
X150296553Y-68542200D02*
X150344172Y-68589819D01*
X150344172Y-68589819D02*
X150391791Y-68542200D01*
X150391791Y-68542200D02*
X150344172Y-68494580D01*
X150344172Y-68494580D02*
X150344172Y-68589819D01*
X148772744Y-68066009D02*
X148629887Y-68113628D01*
X148629887Y-68113628D02*
X148582268Y-68161247D01*
X148582268Y-68161247D02*
X148534649Y-68256485D01*
X148534649Y-68256485D02*
X148534649Y-68399342D01*
X148534649Y-68399342D02*
X148582268Y-68494580D01*
X148582268Y-68494580D02*
X148629887Y-68542200D01*
X148629887Y-68542200D02*
X148725125Y-68589819D01*
X148725125Y-68589819D02*
X149106077Y-68589819D01*
X149106077Y-68589819D02*
X149106077Y-67589819D01*
X149106077Y-67589819D02*
X148772744Y-67589819D01*
X148772744Y-67589819D02*
X148677506Y-67637438D01*
X148677506Y-67637438D02*
X148629887Y-67685057D01*
X148629887Y-67685057D02*
X148582268Y-67780295D01*
X148582268Y-67780295D02*
X148582268Y-67875533D01*
X148582268Y-67875533D02*
X148629887Y-67970771D01*
X148629887Y-67970771D02*
X148677506Y-68018390D01*
X148677506Y-68018390D02*
X148772744Y-68066009D01*
X148772744Y-68066009D02*
X149106077Y-68066009D01*
X153010839Y-70152144D02*
X152867982Y-70199763D01*
X152867982Y-70199763D02*
X152629887Y-70199763D01*
X152629887Y-70199763D02*
X152534649Y-70152144D01*
X152534649Y-70152144D02*
X152487030Y-70104524D01*
X152487030Y-70104524D02*
X152439411Y-70009286D01*
X152439411Y-70009286D02*
X152439411Y-69914048D01*
X152439411Y-69914048D02*
X152487030Y-69818810D01*
X152487030Y-69818810D02*
X152534649Y-69771191D01*
X152534649Y-69771191D02*
X152629887Y-69723572D01*
X152629887Y-69723572D02*
X152820363Y-69675953D01*
X152820363Y-69675953D02*
X152915601Y-69628334D01*
X152915601Y-69628334D02*
X152963220Y-69580715D01*
X152963220Y-69580715D02*
X153010839Y-69485477D01*
X153010839Y-69485477D02*
X153010839Y-69390239D01*
X153010839Y-69390239D02*
X152963220Y-69295001D01*
X152963220Y-69295001D02*
X152915601Y-69247382D01*
X152915601Y-69247382D02*
X152820363Y-69199763D01*
X152820363Y-69199763D02*
X152582268Y-69199763D01*
X152582268Y-69199763D02*
X152439411Y-69247382D01*
X151629887Y-70152144D02*
X151725125Y-70199763D01*
X151725125Y-70199763D02*
X151915601Y-70199763D01*
X151915601Y-70199763D02*
X152010839Y-70152144D01*
X152010839Y-70152144D02*
X152058458Y-70056905D01*
X152058458Y-70056905D02*
X152058458Y-69675953D01*
X152058458Y-69675953D02*
X152010839Y-69580715D01*
X152010839Y-69580715D02*
X151915601Y-69533096D01*
X151915601Y-69533096D02*
X151725125Y-69533096D01*
X151725125Y-69533096D02*
X151629887Y-69580715D01*
X151629887Y-69580715D02*
X151582268Y-69675953D01*
X151582268Y-69675953D02*
X151582268Y-69771191D01*
X151582268Y-69771191D02*
X152058458Y-69866429D01*
X150725125Y-70199763D02*
X150725125Y-69675953D01*
X150725125Y-69675953D02*
X150772744Y-69580715D01*
X150772744Y-69580715D02*
X150867982Y-69533096D01*
X150867982Y-69533096D02*
X151058458Y-69533096D01*
X151058458Y-69533096D02*
X151153696Y-69580715D01*
X150725125Y-70152144D02*
X150820363Y-70199763D01*
X150820363Y-70199763D02*
X151058458Y-70199763D01*
X151058458Y-70199763D02*
X151153696Y-70152144D01*
X151153696Y-70152144D02*
X151201315Y-70056905D01*
X151201315Y-70056905D02*
X151201315Y-69961667D01*
X151201315Y-69961667D02*
X151153696Y-69866429D01*
X151153696Y-69866429D02*
X151058458Y-69818810D01*
X151058458Y-69818810D02*
X150820363Y-69818810D01*
X150820363Y-69818810D02*
X150725125Y-69771191D01*
X149820363Y-69533096D02*
X149820363Y-70342620D01*
X149820363Y-70342620D02*
X149867982Y-70437858D01*
X149867982Y-70437858D02*
X149915601Y-70485477D01*
X149915601Y-70485477D02*
X150010839Y-70533096D01*
X150010839Y-70533096D02*
X150153696Y-70533096D01*
X150153696Y-70533096D02*
X150248934Y-70485477D01*
X149820363Y-70152144D02*
X149915601Y-70199763D01*
X149915601Y-70199763D02*
X150106077Y-70199763D01*
X150106077Y-70199763D02*
X150201315Y-70152144D01*
X150201315Y-70152144D02*
X150248934Y-70104524D01*
X150248934Y-70104524D02*
X150296553Y-70009286D01*
X150296553Y-70009286D02*
X150296553Y-69723572D01*
X150296553Y-69723572D02*
X150248934Y-69628334D01*
X150248934Y-69628334D02*
X150201315Y-69580715D01*
X150201315Y-69580715D02*
X150106077Y-69533096D01*
X150106077Y-69533096D02*
X149915601Y-69533096D01*
X149915601Y-69533096D02*
X149820363Y-69580715D01*
X148915601Y-69533096D02*
X148915601Y-70199763D01*
X149344172Y-69533096D02*
X149344172Y-70056905D01*
X149344172Y-70056905D02*
X149296553Y-70152144D01*
X149296553Y-70152144D02*
X149201315Y-70199763D01*
X149201315Y-70199763D02*
X149058458Y-70199763D01*
X149058458Y-70199763D02*
X148963220Y-70152144D01*
X148963220Y-70152144D02*
X148915601Y-70104524D01*
X148296553Y-70199763D02*
X148391791Y-70152144D01*
X148391791Y-70152144D02*
X148439410Y-70056905D01*
X148439410Y-70056905D02*
X148439410Y-69199763D01*
X147772743Y-70199763D02*
X147867981Y-70152144D01*
X147867981Y-70152144D02*
X147915600Y-70056905D01*
X147915600Y-70056905D02*
X147915600Y-69199763D01*
X146629885Y-69675953D02*
X146296552Y-69675953D01*
X146153695Y-70199763D02*
X146629885Y-70199763D01*
X146629885Y-70199763D02*
X146629885Y-69199763D01*
X146629885Y-69199763D02*
X146153695Y-69199763D01*
X145582266Y-70199763D02*
X145677504Y-70152144D01*
X145677504Y-70152144D02*
X145725123Y-70056905D01*
X145725123Y-70056905D02*
X145725123Y-69199763D01*
X144820361Y-70152144D02*
X144915599Y-70199763D01*
X144915599Y-70199763D02*
X145106075Y-70199763D01*
X145106075Y-70199763D02*
X145201313Y-70152144D01*
X145201313Y-70152144D02*
X145248932Y-70056905D01*
X145248932Y-70056905D02*
X145248932Y-69675953D01*
X145248932Y-69675953D02*
X145201313Y-69580715D01*
X145201313Y-69580715D02*
X145106075Y-69533096D01*
X145106075Y-69533096D02*
X144915599Y-69533096D01*
X144915599Y-69533096D02*
X144820361Y-69580715D01*
X144820361Y-69580715D02*
X144772742Y-69675953D01*
X144772742Y-69675953D02*
X144772742Y-69771191D01*
X144772742Y-69771191D02*
X145248932Y-69866429D01*
X143915599Y-70152144D02*
X144010837Y-70199763D01*
X144010837Y-70199763D02*
X144201313Y-70199763D01*
X144201313Y-70199763D02*
X144296551Y-70152144D01*
X144296551Y-70152144D02*
X144344170Y-70104524D01*
X144344170Y-70104524D02*
X144391789Y-70009286D01*
X144391789Y-70009286D02*
X144391789Y-69723572D01*
X144391789Y-69723572D02*
X144344170Y-69628334D01*
X144344170Y-69628334D02*
X144296551Y-69580715D01*
X144296551Y-69580715D02*
X144201313Y-69533096D01*
X144201313Y-69533096D02*
X144010837Y-69533096D01*
X144010837Y-69533096D02*
X143915599Y-69580715D01*
X143629884Y-69533096D02*
X143248932Y-69533096D01*
X143487027Y-69199763D02*
X143487027Y-70056905D01*
X143487027Y-70056905D02*
X143439408Y-70152144D01*
X143439408Y-70152144D02*
X143344170Y-70199763D01*
X143344170Y-70199763D02*
X143248932Y-70199763D01*
X142915598Y-70199763D02*
X142915598Y-69533096D01*
X142915598Y-69723572D02*
X142867979Y-69628334D01*
X142867979Y-69628334D02*
X142820360Y-69580715D01*
X142820360Y-69580715D02*
X142725122Y-69533096D01*
X142725122Y-69533096D02*
X142629884Y-69533096D01*
X142153693Y-70199763D02*
X142248931Y-70152144D01*
X142248931Y-70152144D02*
X142296550Y-70104524D01*
X142296550Y-70104524D02*
X142344169Y-70009286D01*
X142344169Y-70009286D02*
X142344169Y-69723572D01*
X142344169Y-69723572D02*
X142296550Y-69628334D01*
X142296550Y-69628334D02*
X142248931Y-69580715D01*
X142248931Y-69580715D02*
X142153693Y-69533096D01*
X142153693Y-69533096D02*
X142010836Y-69533096D01*
X142010836Y-69533096D02*
X141915598Y-69580715D01*
X141915598Y-69580715D02*
X141867979Y-69628334D01*
X141867979Y-69628334D02*
X141820360Y-69723572D01*
X141820360Y-69723572D02*
X141820360Y-70009286D01*
X141820360Y-70009286D02*
X141867979Y-70104524D01*
X141867979Y-70104524D02*
X141915598Y-70152144D01*
X141915598Y-70152144D02*
X142010836Y-70199763D01*
X142010836Y-70199763D02*
X142153693Y-70199763D01*
X141391788Y-69533096D02*
X141391788Y-70199763D01*
X141391788Y-69628334D02*
X141344169Y-69580715D01*
X141344169Y-69580715D02*
X141248931Y-69533096D01*
X141248931Y-69533096D02*
X141106074Y-69533096D01*
X141106074Y-69533096D02*
X141010836Y-69580715D01*
X141010836Y-69580715D02*
X140963217Y-69675953D01*
X140963217Y-69675953D02*
X140963217Y-70199763D01*
X140487026Y-70199763D02*
X140487026Y-69533096D01*
X140487026Y-69199763D02*
X140534645Y-69247382D01*
X140534645Y-69247382D02*
X140487026Y-69295001D01*
X140487026Y-69295001D02*
X140439407Y-69247382D01*
X140439407Y-69247382D02*
X140487026Y-69199763D01*
X140487026Y-69199763D02*
X140487026Y-69295001D01*
X139582265Y-70152144D02*
X139677503Y-70199763D01*
X139677503Y-70199763D02*
X139867979Y-70199763D01*
X139867979Y-70199763D02*
X139963217Y-70152144D01*
X139963217Y-70152144D02*
X140010836Y-70104524D01*
X140010836Y-70104524D02*
X140058455Y-70009286D01*
X140058455Y-70009286D02*
X140058455Y-69723572D01*
X140058455Y-69723572D02*
X140010836Y-69628334D01*
X140010836Y-69628334D02*
X139963217Y-69580715D01*
X139963217Y-69580715D02*
X139867979Y-69533096D01*
X139867979Y-69533096D02*
X139677503Y-69533096D01*
X139677503Y-69533096D02*
X139582265Y-69580715D01*
X139201312Y-70152144D02*
X139106074Y-70199763D01*
X139106074Y-70199763D02*
X138915598Y-70199763D01*
X138915598Y-70199763D02*
X138820360Y-70152144D01*
X138820360Y-70152144D02*
X138772741Y-70056905D01*
X138772741Y-70056905D02*
X138772741Y-70009286D01*
X138772741Y-70009286D02*
X138820360Y-69914048D01*
X138820360Y-69914048D02*
X138915598Y-69866429D01*
X138915598Y-69866429D02*
X139058455Y-69866429D01*
X139058455Y-69866429D02*
X139153693Y-69818810D01*
X139153693Y-69818810D02*
X139201312Y-69723572D01*
X139201312Y-69723572D02*
X139201312Y-69675953D01*
X139201312Y-69675953D02*
X139153693Y-69580715D01*
X139153693Y-69580715D02*
X139058455Y-69533096D01*
X139058455Y-69533096D02*
X138915598Y-69533096D01*
X138915598Y-69533096D02*
X138820360Y-69580715D01*
X152153696Y-71809707D02*
X152201316Y-71809707D01*
X152201316Y-71809707D02*
X152296554Y-71762088D01*
X152296554Y-71762088D02*
X152439411Y-71619230D01*
X152439411Y-71619230D02*
X152677506Y-71333516D01*
X152677506Y-71333516D02*
X152772744Y-71190659D01*
X152772744Y-71190659D02*
X152820363Y-71047802D01*
X152820363Y-71047802D02*
X152820363Y-70952564D01*
X152820363Y-70952564D02*
X152772744Y-70857326D01*
X152772744Y-70857326D02*
X152677506Y-70809707D01*
X152677506Y-70809707D02*
X152629887Y-70809707D01*
X152629887Y-70809707D02*
X152534649Y-70857326D01*
X152534649Y-70857326D02*
X152487030Y-70952564D01*
X152487030Y-70952564D02*
X152487030Y-71000183D01*
X152487030Y-71000183D02*
X152534649Y-71095421D01*
X152534649Y-71095421D02*
X152582268Y-71143040D01*
X152582268Y-71143040D02*
X152867982Y-71333516D01*
X152867982Y-71333516D02*
X152915601Y-71381135D01*
X152915601Y-71381135D02*
X152963220Y-71476373D01*
X152963220Y-71476373D02*
X152963220Y-71619230D01*
X152963220Y-71619230D02*
X152915601Y-71714468D01*
X152915601Y-71714468D02*
X152867982Y-71762088D01*
X152867982Y-71762088D02*
X152772744Y-71809707D01*
X152772744Y-71809707D02*
X152629887Y-71809707D01*
X152629887Y-71809707D02*
X152534649Y-71762088D01*
X152534649Y-71762088D02*
X152487030Y-71714468D01*
X152487030Y-71714468D02*
X152344173Y-71523992D01*
X152344173Y-71523992D02*
X152296554Y-71381135D01*
X152296554Y-71381135D02*
X152296554Y-71285897D01*
X150629887Y-71285897D02*
X150487030Y-71333516D01*
X150487030Y-71333516D02*
X150439411Y-71381135D01*
X150439411Y-71381135D02*
X150391792Y-71476373D01*
X150391792Y-71476373D02*
X150391792Y-71619230D01*
X150391792Y-71619230D02*
X150439411Y-71714468D01*
X150439411Y-71714468D02*
X150487030Y-71762088D01*
X150487030Y-71762088D02*
X150582268Y-71809707D01*
X150582268Y-71809707D02*
X150963220Y-71809707D01*
X150963220Y-71809707D02*
X150963220Y-70809707D01*
X150963220Y-70809707D02*
X150629887Y-70809707D01*
X150629887Y-70809707D02*
X150534649Y-70857326D01*
X150534649Y-70857326D02*
X150487030Y-70904945D01*
X150487030Y-70904945D02*
X150439411Y-71000183D01*
X150439411Y-71000183D02*
X150439411Y-71095421D01*
X150439411Y-71095421D02*
X150487030Y-71190659D01*
X150487030Y-71190659D02*
X150534649Y-71238278D01*
X150534649Y-71238278D02*
X150629887Y-71285897D01*
X150629887Y-71285897D02*
X150963220Y-71285897D01*
X149820363Y-71809707D02*
X149915601Y-71762088D01*
X149915601Y-71762088D02*
X149963220Y-71714468D01*
X149963220Y-71714468D02*
X150010839Y-71619230D01*
X150010839Y-71619230D02*
X150010839Y-71333516D01*
X150010839Y-71333516D02*
X149963220Y-71238278D01*
X149963220Y-71238278D02*
X149915601Y-71190659D01*
X149915601Y-71190659D02*
X149820363Y-71143040D01*
X149820363Y-71143040D02*
X149677506Y-71143040D01*
X149677506Y-71143040D02*
X149582268Y-71190659D01*
X149582268Y-71190659D02*
X149534649Y-71238278D01*
X149534649Y-71238278D02*
X149487030Y-71333516D01*
X149487030Y-71333516D02*
X149487030Y-71619230D01*
X149487030Y-71619230D02*
X149534649Y-71714468D01*
X149534649Y-71714468D02*
X149582268Y-71762088D01*
X149582268Y-71762088D02*
X149677506Y-71809707D01*
X149677506Y-71809707D02*
X149820363Y-71809707D01*
X149058458Y-71809707D02*
X149058458Y-71143040D01*
X149058458Y-71333516D02*
X149010839Y-71238278D01*
X149010839Y-71238278D02*
X148963220Y-71190659D01*
X148963220Y-71190659D02*
X148867982Y-71143040D01*
X148867982Y-71143040D02*
X148772744Y-71143040D01*
X148439410Y-71809707D02*
X148439410Y-70809707D01*
X148439410Y-71190659D02*
X148344172Y-71143040D01*
X148344172Y-71143040D02*
X148153696Y-71143040D01*
X148153696Y-71143040D02*
X148058458Y-71190659D01*
X148058458Y-71190659D02*
X148010839Y-71238278D01*
X148010839Y-71238278D02*
X147963220Y-71333516D01*
X147963220Y-71333516D02*
X147963220Y-71619230D01*
X147963220Y-71619230D02*
X148010839Y-71714468D01*
X148010839Y-71714468D02*
X148058458Y-71762088D01*
X148058458Y-71762088D02*
X148153696Y-71809707D01*
X148153696Y-71809707D02*
X148344172Y-71809707D01*
X148344172Y-71809707D02*
X148439410Y-71762088D01*
X147153696Y-71762088D02*
X147248934Y-71809707D01*
X147248934Y-71809707D02*
X147439410Y-71809707D01*
X147439410Y-71809707D02*
X147534648Y-71762088D01*
X147534648Y-71762088D02*
X147582267Y-71666849D01*
X147582267Y-71666849D02*
X147582267Y-71285897D01*
X147582267Y-71285897D02*
X147534648Y-71190659D01*
X147534648Y-71190659D02*
X147439410Y-71143040D01*
X147439410Y-71143040D02*
X147248934Y-71143040D01*
X147248934Y-71143040D02*
X147153696Y-71190659D01*
X147153696Y-71190659D02*
X147106077Y-71285897D01*
X147106077Y-71285897D02*
X147106077Y-71381135D01*
X147106077Y-71381135D02*
X147582267Y-71476373D01*
X146248934Y-71762088D02*
X146344172Y-71809707D01*
X146344172Y-71809707D02*
X146534648Y-71809707D01*
X146534648Y-71809707D02*
X146629886Y-71762088D01*
X146629886Y-71762088D02*
X146677505Y-71714468D01*
X146677505Y-71714468D02*
X146725124Y-71619230D01*
X146725124Y-71619230D02*
X146725124Y-71333516D01*
X146725124Y-71333516D02*
X146677505Y-71238278D01*
X146677505Y-71238278D02*
X146629886Y-71190659D01*
X146629886Y-71190659D02*
X146534648Y-71143040D01*
X146534648Y-71143040D02*
X146344172Y-71143040D01*
X146344172Y-71143040D02*
X146248934Y-71190659D01*
X145820362Y-71809707D02*
X145820362Y-70809707D01*
X145725124Y-71428754D02*
X145439410Y-71809707D01*
X145439410Y-71143040D02*
X145820362Y-71523992D01*
X143915600Y-71285897D02*
X143772743Y-71333516D01*
X143772743Y-71333516D02*
X143725124Y-71381135D01*
X143725124Y-71381135D02*
X143677505Y-71476373D01*
X143677505Y-71476373D02*
X143677505Y-71619230D01*
X143677505Y-71619230D02*
X143725124Y-71714468D01*
X143725124Y-71714468D02*
X143772743Y-71762088D01*
X143772743Y-71762088D02*
X143867981Y-71809707D01*
X143867981Y-71809707D02*
X144248933Y-71809707D01*
X144248933Y-71809707D02*
X144248933Y-70809707D01*
X144248933Y-70809707D02*
X143915600Y-70809707D01*
X143915600Y-70809707D02*
X143820362Y-70857326D01*
X143820362Y-70857326D02*
X143772743Y-70904945D01*
X143772743Y-70904945D02*
X143725124Y-71000183D01*
X143725124Y-71000183D02*
X143725124Y-71095421D01*
X143725124Y-71095421D02*
X143772743Y-71190659D01*
X143772743Y-71190659D02*
X143820362Y-71238278D01*
X143820362Y-71238278D02*
X143915600Y-71285897D01*
X143915600Y-71285897D02*
X144248933Y-71285897D01*
X142820362Y-71809707D02*
X142820362Y-71285897D01*
X142820362Y-71285897D02*
X142867981Y-71190659D01*
X142867981Y-71190659D02*
X142963219Y-71143040D01*
X142963219Y-71143040D02*
X143153695Y-71143040D01*
X143153695Y-71143040D02*
X143248933Y-71190659D01*
X142820362Y-71762088D02*
X142915600Y-71809707D01*
X142915600Y-71809707D02*
X143153695Y-71809707D01*
X143153695Y-71809707D02*
X143248933Y-71762088D01*
X143248933Y-71762088D02*
X143296552Y-71666849D01*
X143296552Y-71666849D02*
X143296552Y-71571611D01*
X143296552Y-71571611D02*
X143248933Y-71476373D01*
X143248933Y-71476373D02*
X143153695Y-71428754D01*
X143153695Y-71428754D02*
X142915600Y-71428754D01*
X142915600Y-71428754D02*
X142820362Y-71381135D01*
X142391790Y-71762088D02*
X142296552Y-71809707D01*
X142296552Y-71809707D02*
X142106076Y-71809707D01*
X142106076Y-71809707D02*
X142010838Y-71762088D01*
X142010838Y-71762088D02*
X141963219Y-71666849D01*
X141963219Y-71666849D02*
X141963219Y-71619230D01*
X141963219Y-71619230D02*
X142010838Y-71523992D01*
X142010838Y-71523992D02*
X142106076Y-71476373D01*
X142106076Y-71476373D02*
X142248933Y-71476373D01*
X142248933Y-71476373D02*
X142344171Y-71428754D01*
X142344171Y-71428754D02*
X142391790Y-71333516D01*
X142391790Y-71333516D02*
X142391790Y-71285897D01*
X142391790Y-71285897D02*
X142344171Y-71190659D01*
X142344171Y-71190659D02*
X142248933Y-71143040D01*
X142248933Y-71143040D02*
X142106076Y-71143040D01*
X142106076Y-71143040D02*
X142010838Y-71190659D01*
X141534647Y-71809707D02*
X141534647Y-71143040D01*
X141534647Y-70809707D02*
X141582266Y-70857326D01*
X141582266Y-70857326D02*
X141534647Y-70904945D01*
X141534647Y-70904945D02*
X141487028Y-70857326D01*
X141487028Y-70857326D02*
X141534647Y-70809707D01*
X141534647Y-70809707D02*
X141534647Y-70904945D01*
X140629886Y-71762088D02*
X140725124Y-71809707D01*
X140725124Y-71809707D02*
X140915600Y-71809707D01*
X140915600Y-71809707D02*
X141010838Y-71762088D01*
X141010838Y-71762088D02*
X141058457Y-71714468D01*
X141058457Y-71714468D02*
X141106076Y-71619230D01*
X141106076Y-71619230D02*
X141106076Y-71333516D01*
X141106076Y-71333516D02*
X141058457Y-71238278D01*
X141058457Y-71238278D02*
X141010838Y-71190659D01*
X141010838Y-71190659D02*
X140915600Y-71143040D01*
X140915600Y-71143040D02*
X140725124Y-71143040D01*
X140725124Y-71143040D02*
X140629886Y-71190659D01*
X140248933Y-71762088D02*
X140153695Y-71809707D01*
X140153695Y-71809707D02*
X139963219Y-71809707D01*
X139963219Y-71809707D02*
X139867981Y-71762088D01*
X139867981Y-71762088D02*
X139820362Y-71666849D01*
X139820362Y-71666849D02*
X139820362Y-71619230D01*
X139820362Y-71619230D02*
X139867981Y-71523992D01*
X139867981Y-71523992D02*
X139963219Y-71476373D01*
X139963219Y-71476373D02*
X140106076Y-71476373D01*
X140106076Y-71476373D02*
X140201314Y-71428754D01*
X140201314Y-71428754D02*
X140248933Y-71333516D01*
X140248933Y-71333516D02*
X140248933Y-71285897D01*
X140248933Y-71285897D02*
X140201314Y-71190659D01*
X140201314Y-71190659D02*
X140106076Y-71143040D01*
X140106076Y-71143040D02*
X139963219Y-71143040D01*
X139963219Y-71143040D02*
X139867981Y-71190659D01*
X152677506Y-72419651D02*
X152677506Y-73133936D01*
X152677506Y-73133936D02*
X152725125Y-73276793D01*
X152725125Y-73276793D02*
X152820363Y-73372032D01*
X152820363Y-73372032D02*
X152963220Y-73419651D01*
X152963220Y-73419651D02*
X153058458Y-73419651D01*
X151772744Y-72752984D02*
X151772744Y-73419651D01*
X152201315Y-72752984D02*
X152201315Y-73276793D01*
X152201315Y-73276793D02*
X152153696Y-73372032D01*
X152153696Y-73372032D02*
X152058458Y-73419651D01*
X152058458Y-73419651D02*
X151915601Y-73419651D01*
X151915601Y-73419651D02*
X151820363Y-73372032D01*
X151820363Y-73372032D02*
X151772744Y-73324412D01*
X151153696Y-73419651D02*
X151248934Y-73372032D01*
X151248934Y-73372032D02*
X151296553Y-73276793D01*
X151296553Y-73276793D02*
X151296553Y-72419651D01*
X150867981Y-72752984D02*
X150629886Y-73419651D01*
X150391791Y-72752984D02*
X150629886Y-73419651D01*
X150629886Y-73419651D02*
X150725124Y-73657746D01*
X150725124Y-73657746D02*
X150772743Y-73705365D01*
X150772743Y-73705365D02*
X150867981Y-73752984D01*
X149296552Y-72514889D02*
X149248933Y-72467270D01*
X149248933Y-72467270D02*
X149153695Y-72419651D01*
X149153695Y-72419651D02*
X148915600Y-72419651D01*
X148915600Y-72419651D02*
X148820362Y-72467270D01*
X148820362Y-72467270D02*
X148772743Y-72514889D01*
X148772743Y-72514889D02*
X148725124Y-72610127D01*
X148725124Y-72610127D02*
X148725124Y-72705365D01*
X148725124Y-72705365D02*
X148772743Y-72848222D01*
X148772743Y-72848222D02*
X149344171Y-73419651D01*
X149344171Y-73419651D02*
X148725124Y-73419651D01*
X148106076Y-72419651D02*
X148010838Y-72419651D01*
X148010838Y-72419651D02*
X147915600Y-72467270D01*
X147915600Y-72467270D02*
X147867981Y-72514889D01*
X147867981Y-72514889D02*
X147820362Y-72610127D01*
X147820362Y-72610127D02*
X147772743Y-72800603D01*
X147772743Y-72800603D02*
X147772743Y-73038698D01*
X147772743Y-73038698D02*
X147820362Y-73229174D01*
X147820362Y-73229174D02*
X147867981Y-73324412D01*
X147867981Y-73324412D02*
X147915600Y-73372032D01*
X147915600Y-73372032D02*
X148010838Y-73419651D01*
X148010838Y-73419651D02*
X148106076Y-73419651D01*
X148106076Y-73419651D02*
X148201314Y-73372032D01*
X148201314Y-73372032D02*
X148248933Y-73324412D01*
X148248933Y-73324412D02*
X148296552Y-73229174D01*
X148296552Y-73229174D02*
X148344171Y-73038698D01*
X148344171Y-73038698D02*
X148344171Y-72800603D01*
X148344171Y-72800603D02*
X148296552Y-72610127D01*
X148296552Y-72610127D02*
X148248933Y-72514889D01*
X148248933Y-72514889D02*
X148201314Y-72467270D01*
X148201314Y-72467270D02*
X148106076Y-72419651D01*
X147391790Y-72514889D02*
X147344171Y-72467270D01*
X147344171Y-72467270D02*
X147248933Y-72419651D01*
X147248933Y-72419651D02*
X147010838Y-72419651D01*
X147010838Y-72419651D02*
X146915600Y-72467270D01*
X146915600Y-72467270D02*
X146867981Y-72514889D01*
X146867981Y-72514889D02*
X146820362Y-72610127D01*
X146820362Y-72610127D02*
X146820362Y-72705365D01*
X146820362Y-72705365D02*
X146867981Y-72848222D01*
X146867981Y-72848222D02*
X147439409Y-73419651D01*
X147439409Y-73419651D02*
X146820362Y-73419651D01*
X145963219Y-72752984D02*
X145963219Y-73419651D01*
X146201314Y-72372032D02*
X146439409Y-73086317D01*
X146439409Y-73086317D02*
X145820362Y-73086317D01*
X160353333Y-66466819D02*
X160353333Y-67181104D01*
X160353333Y-67181104D02*
X160400952Y-67323961D01*
X160400952Y-67323961D02*
X160496190Y-67419200D01*
X160496190Y-67419200D02*
X160639047Y-67466819D01*
X160639047Y-67466819D02*
X160734285Y-67466819D01*
X159924761Y-66562057D02*
X159877142Y-66514438D01*
X159877142Y-66514438D02*
X159781904Y-66466819D01*
X159781904Y-66466819D02*
X159543809Y-66466819D01*
X159543809Y-66466819D02*
X159448571Y-66514438D01*
X159448571Y-66514438D02*
X159400952Y-66562057D01*
X159400952Y-66562057D02*
X159353333Y-66657295D01*
X159353333Y-66657295D02*
X159353333Y-66752533D01*
X159353333Y-66752533D02*
X159400952Y-66895390D01*
X159400952Y-66895390D02*
X159972380Y-67466819D01*
X159972380Y-67466819D02*
X159353333Y-67466819D01*
X132413333Y-66466819D02*
X132413333Y-67181104D01*
X132413333Y-67181104D02*
X132460952Y-67323961D01*
X132460952Y-67323961D02*
X132556190Y-67419200D01*
X132556190Y-67419200D02*
X132699047Y-67466819D01*
X132699047Y-67466819D02*
X132794285Y-67466819D01*
X131413333Y-67466819D02*
X131984761Y-67466819D01*
X131699047Y-67466819D02*
X131699047Y-66466819D01*
X131699047Y-66466819D02*
X131794285Y-66609676D01*
X131794285Y-66609676D02*
X131889523Y-66704914D01*
X131889523Y-66704914D02*
X131984761Y-66752533D01*
X138195580Y-78319333D02*
X138243200Y-78271714D01*
X138243200Y-78271714D02*
X138290819Y-78128857D01*
X138290819Y-78128857D02*
X138290819Y-78033619D01*
X138290819Y-78033619D02*
X138243200Y-77890762D01*
X138243200Y-77890762D02*
X138147961Y-77795524D01*
X138147961Y-77795524D02*
X138052723Y-77747905D01*
X138052723Y-77747905D02*
X137862247Y-77700286D01*
X137862247Y-77700286D02*
X137719390Y-77700286D01*
X137719390Y-77700286D02*
X137528914Y-77747905D01*
X137528914Y-77747905D02*
X137433676Y-77795524D01*
X137433676Y-77795524D02*
X137338438Y-77890762D01*
X137338438Y-77890762D02*
X137290819Y-78033619D01*
X137290819Y-78033619D02*
X137290819Y-78128857D01*
X137290819Y-78128857D02*
X137338438Y-78271714D01*
X137338438Y-78271714D02*
X137386057Y-78319333D01*
X138290819Y-79271714D02*
X138290819Y-78700286D01*
X138290819Y-78986000D02*
X137290819Y-78986000D01*
X137290819Y-78986000D02*
X137433676Y-78890762D01*
X137433676Y-78890762D02*
X137528914Y-78795524D01*
X137528914Y-78795524D02*
X137576533Y-78700286D01*
D11*
%TO.C,J2*%
X158690000Y-70612000D02*
X161350000Y-70612000D01*
X158690000Y-98612000D02*
X158690000Y-70612000D01*
X158690000Y-98612000D02*
X161350000Y-98612000D01*
X160020000Y-68012000D02*
X161350000Y-68012000D01*
X161350000Y-68012000D02*
X161350000Y-69342000D01*
X161350000Y-98612000D02*
X161350000Y-70612000D01*
%TO.C,J1*%
X130750000Y-70612000D02*
X133410000Y-70612000D01*
X130750000Y-98612000D02*
X130750000Y-70612000D01*
X130750000Y-98612000D02*
X133410000Y-98612000D01*
X132080000Y-68012000D02*
X133410000Y-68012000D01*
X133410000Y-68012000D02*
X133410000Y-69342000D01*
X133410000Y-98612000D02*
X133410000Y-70612000D01*
%TO.C,C1*%
X134566000Y-76216000D02*
X134566000Y-80756000D01*
X134566000Y-76216000D02*
X134581000Y-76216000D01*
X134566000Y-80756000D02*
X134581000Y-80756000D01*
X136691000Y-76216000D02*
X136706000Y-76216000D01*
X136691000Y-80756000D02*
X136706000Y-80756000D01*
X136706000Y-76216000D02*
X136706000Y-80756000D01*
%TD*%
M02*
